<?xml version="1.0" encoding="utf-8"?>
<!-- Generator: Adobe Illustrator 18.0.0, SVG Export Plug-In . SVG Version: 6.00 Build 0)  -->
<!DOCTYPE svg PUBLIC "-//W3C//DTD SVG 1.1//EN" "http://www.w3.org/Graphics/SVG/1.1/DTD/svg11.dtd">
<svg version="1.1" id="Layer_1" xmlns="http://www.w3.org/2000/svg" xmlns:xlink="http://www.w3.org/1999/xlink" x="0px" y="0px"
	 viewBox="0 0 640 480" enable-background="new 0 0 640 480" xml:space="preserve">
<g>
	<path fill="#C9A429" d="M45.8,215.5c-7.4,10-14.1,20.4-19.8,31.7c0.4,0.8,1,0.6,1.8,0.6c8.4,0,17-0.4,25.4,0.1
		c5.1,0.3,9.9-1.3,14.8-1.7c2.2-0.3,2.6-3,3-4.5c0.8-3.4,1.8-6.7,3.4-9.9c1.7-3.6,2.3-7.8,5.1-11c2.5,0,4.8,0.9,7.3,1.3
		c1.9,0.4,3.9,0.6,5.7-0.4c0.6,1.8-0.3,3.1-1,4.8c-2.3,4.8-4.3,9.7-6.4,14.7c-1.7,1.2-1.3,3.1-0.8,4.5c0.5,1.6,2.2,0.6,3.5,0.8
		c5.3,0.3,10.5-0.4,15.8,0.4c0.5,0.5,0.9,0.9,1.4,1.4c-0.4,0.4-0.6,0.9-0.6,1.6c0-0.6,0.3-1.2,0.8-1.6c1.8,3.2,0,5.7-1.4,8.4
		c-0.3-0.3-0.5-0.5-0.8-0.6c0.3,0.3,0.5,0.5,0.8,0.8c-3.5,2.9-7.7,2.1-11.7,2.1c-3.2,0-6.4,0.1-9.6,0c-2.1-0.1-4,0.9-4.2,2.5
		c-0.6,4.3-3.1,7.9-3.5,12.2c-0.1,1.4-1.2,2.7-1.8,4c-1.6,3.1-0.8,6.6-1.9,9.6c-1.4-1.4-0.3-3.4-0.9-4.9c0.5,1.6-0.4,3.5,0.8,4.9
		c-2.1,2.2,0,5.1-1.3,7.3c-3.1,1.9-6.6,2.2-10.1,2.9c-1.6,0.3-3,0.5-4.4,1.2c-0.4,0.1-0.6,0.1-0.9-0.3c-0.9-5.1,1-9.9,1.9-14.7
		c1.4,1.2,1,2.7,1.2,4.3c0-1.6,0.3-3.1-1.2-4.3c1.2-3.2,2.3-6.6,3.5-9.9c0.5,0.4,0.6,0.9,0.8,1.4c-0.1-0.6-0.4-1-0.8-1.4
		c0.9-3.1,1.8-6.1,2.9-9.2c0.8,0.8,1.2,1.7,1.2,2.2c-0.1-0.4-0.3-1.6-1-2.2c1.2-1.3,1.7-2.9,1-4.5c-0.8-1.9-2.9-1.3-4-0.9
		c-13.1,2.7-26.5,0.9-39.7,1.6c-3.9,0.3-6.5-1.2-8.4-4.3c-0.1-0.4-0.4-0.8-0.5-1c-0.4-2.2-0.5-4.4,0.1-6.6c1-2.2,2.1-4.4,2.6-6.7
		l0,0c1.6-1.3,2.6-3,3.4-4.8c-0.1-2.1,1.3-3.6,2.2-5.1c3-4.7,6.5-9,9.1-14c1-2.1,3.6-3,4.5-5.2C37.1,212.4,41.6,213,45.8,215.5z"/>
	<path fill="#535455" d="M556.9,297.1c-1.6,1.7-3,3.6-5.6,3.6c-1.4,0-1.4,0-0.8,1.4c-1.2,1.3-2.7,1.3-4.2,1.6c-0.5,0-1-1.4-1.6,0
		c-0.6-0.1-1.4-0.1-2.1-0.3c-1.7,0-3.4-1.2-4.9,0c-0.6,0-1.4,0-2.1,0c-3.6-2.3-8-3.5-11.4-6.4c-3.5-2.1-6.1-4.9-6.5-9.2
		c0.9-2.1-0.6-3.8-0.9-5.7c-0.1-0.9,0.1-1.8-1-2.2c0-0.6,0.1-1.4,0.1-2.1c0-1,2.3-1.4,0.8-2.9c0-0.6,0-1.4,0-2.1
		c3.1-4.8,5.4-10.1,8.4-15c0.5-0.5,0.9-0.9,1.4-1.4c0.3,0,0.4,1.2,0.8,0.3c0.4-0.8,0.6-1.7,1.3-2.3c0.5-0.5,0.9-0.9,1.4-1.4
		c0.1,0.1,0.3,0.3,0.3,0.3c0.1,0,0,0-0.3-0.3c1.4-1.9,4-0.9,5.6-2.3c0.1,0.1,0.4,0.3,0.5,0.1c0.1-0.3-0.1-0.4-0.3-0.6
		c1.6-1.9,3.6-1.2,5.6-0.8c2.5,0.1,4.8,1.8,7.4,1.2c2.1,1.9,4.3,3.6,7.4,3.5c1,0,2.1,0.9,2.9,1.8c0.8,1.8,4.2,1.3,3.8,4.2
		c0.6,1.4,1.7,2.5,2.7,3.5c2.1,4.7,1.7,9.2,0.1,13.9c-0.1,0.5,0,1.2,0,1.7c-1.3,1.9-2.3,4-3.5,6.1c-1.3,2.6-3.1,3.2-5.7,1.7
		c-6.6-3.6-13.2-7-20-10.5c-2.1-1-4-2.5-6.5-2.2c-4.2,0.9-1.3,4.3-1.9,6.4c-1.2,3.9,1.3,6.9,3.5,9.9c-0.1,0.1-0.3,0.3-0.3,0.3
		c1,1.4,4.7,3,6.5,2.7c3-0.3,5.7-1,8.6-2.1c2.3,2.5,6.2,2.6,8.3,5.6C554.8,297.4,556.1,296.6,556.9,297.1z"/>
	<path fill="#535455" d="M341.3,274.5c-4.2,0.9-1.3,4.3-1.9,6.4c-1,3,0.4,6,2.2,8.4c-0.4,0.5-0.4,0.5,1.2,1.4c2.1,1.3,4,2.6,6.5,3
		c0.5,0.3,1.3,0.1,1.6,0.8c0.6,2.5,2.2,1.9,4,1.3c-1.7-0.1-4.2,1-3.5-2.3c2.1-0.6,4.3-1.3,6.4-2.1c2.3,2.5,6.2,2.6,8.3,5.6
		c0.3,0.4,1.6-0.5,2.3,0c-1.6,1.7-3,3.6-5.6,3.6c-1.4,0-1.4,0-0.8,1.4c-1.2,1.3-2.7,1.3-4.2,1.6c-0.5,0-1-1.4-1.6,0
		c-0.6-0.1-1.4-0.1-2.1-0.3c-2.7-0.4-5.3-1.2-8-1c-3.9-1.2-7.3-3-10.5-5.3c-3.5-2.1-6.1-4.9-6.5-9.2c0.9-2.1-0.6-3.8-0.9-5.7
		c-0.1-0.9,0.1-1.8-1-2.2c0-0.6,0.1-1.4,0.1-2.1c0-1,2.3-1.4,0.8-2.9c0-0.6,0-1.4,0-2.1c3.1-4.8,5.4-10.1,8.4-15
		c0.5-0.5,0.9-0.9,1.4-1.4c0.3,0,0.4,1.2,0.8,0.3c0.4-0.8,0.6-1.7,1.3-2.3c0.5-0.5,0.9-0.9,1.4-1.4c0.1,0.1,0.3,0.3,0.3,0.3
		c0.1,0,0,0-0.3-0.3c1.2-1.7,3.5-1,4.9-2.3c0.4,0.5,0.9,0.6,1.3,0.1c0.1-0.3-0.9-0.1-1-0.6c1.9-1.7,4-1.3,6.2-0.8
		c2.5,0.1,4.8,1.8,7.4,1.2c2.1,1.9,4.3,3.6,7.4,3.5c1,0,2.1,0.9,2.9,1.8c0.8,1.8,4.2,1.3,3.8,4.2c0.6,1.4,1.7,2.5,2.7,3.5
		c2.1,4.7,1.7,9.2,0.1,13.9c-0.1,0.5,0,1.2,0,1.7c-1.3,2.1-2.5,4.3-3.6,6.5c-1.3,2.3-2.9,2.9-5.2,1.6c-5.7-2.9-11-6.2-16.9-8.8
		C347.9,277.1,345.2,274.5,341.3,274.5z"/>
	<path fill="#535455" d="M293.9,272.2c3.2,2.2,7.5,2.7,9.7,6.5c-0.4,0.5-0.5,1,0.1,1.4c3.5,3.5,1.8,7.5,1.6,11.5
		c-1.6-1.4-0.5-3.4-0.8-4.4c0.3,1-0.8,3,0.8,4.4c-0.5,0.6-1,1.3-1.6,1.9c-0.6,0.4-0.6,0.9-0.3,1.4c-0.6,4.5-5.3,5.1-7.8,7.8
		c-1.7,0.8-3.8-0.3-5.3,1.2c-4.8,0.6-9.7,0.1-14.5,0.4c-3.5-0.6-6.6-1.9-9.2-4.3c-0.4-0.1,0.1-0.6-0.4-0.6c0,0-0.1,0.4-0.4,0.5
		c-0.6-1.8-1.8-3.2-3.1-4.7c0.3-1,0.9-2.1,0.5-3.2c0-0.4-0.6,0.1-0.3,0c0.3,0,0.3,0,0.3,0.1c0,0.6,0.4,1.7-1,1.6
		c0-1.4-0.5-2.6-1.4-3.5c3.1-2.1,6.5-0.5,9.2-1c-2.7-0.4-6.1,0.5-9.3-0.4c4.4-0.9,8.8-1.6,13.1,0.5c1.8,0.9,1.6,3.1,4,4
		c4.9,1.7,10.4,1.7,14-1.7c2.3-1.6,1.6-3.5,0.5-5.4c-1.4-1.8-3.8-1.2-5.4-2.1c0.1-0.1,0.3-0.3,0.3-0.4c0.6-0.5,1.6-0.4,2.3-0.4
		c-1,0-2.1,0.1-3.1-0.3c-1.9-0.5-3.9,0.3-5.7-0.5c-0.9-1.2-2.2-1.3-3.5-1.4c-0.3-1.2,0.6-0.8,1-1c-0.8-0.1-1.6,0.4-2.5,0.5
		c-1.6-1.7-3.8-0.4-5.6-1.3c-3.8-1.7-6.2-4.4-7.7-8.2c1.6-1,0.8-2.7,0.9-4.2c0.1-1.2-0.3-2.3,0-2.9c0,1.3,0,3.2,0,5.2
		c0,0.6,0.1,1.6-1,1.3c-1-6.9,0.5-12.8,6.6-17c0.8-0.6,1.8-0.1,2.7-0.5c0.1-0.3,0.9,0.1,0.8-0.6c-0.3-0.1-0.3-0.3-0.3-0.5
		c1-1,2.7,0,3.8-1.3c4.9,0,10,0.1,14.9,0c1.3,1.7,3.5,0,4.8,1.6c-0.5,0.6-1.2,0.6-1.9,0.6c0.5,0.1,1.2,0.1,1.7,0.4
		c3.1,1.4,6.6,8,5.7,10.8c-3.9,1-7.5,0.5-11.2-0.9c-3.5-3-10.4-3.2-14-0.4c-1.3,0.9-0.9,2.5-0.6,3.6c0.5,1.6,1.6,2.7,3.5,3
		c1.4,0.3,3-0.9,4.2,0.8c-1.4,0.6-2.9,0.4-3.4,0.3c0.5-0.1,2.1,0.4,3.4-0.3c1.8,1.8,4.5-0.3,6.4,1.4c-0.9,0.9-2.1,0.5-3.1,0.6
		c1-0.1,2.3,0.3,3.2-0.6C290.7,272.5,292.7,271,293.9,272.2c-0.1,0.1-0.3,0.3-0.4,0.4C293.7,272.5,293.8,272.3,293.9,272.2z"/>
	<path fill="#535455" d="M412.3,301.4c-4.5-2.7-7.7-6.7-9.9-11.4c0.4-0.4,0.9-0.8,0.8-1.4c0-0.3-0.6,0.4-0.9,0
		c-1.8-3.5-2.2-7.1-1.9-11c0.3-4-0.5-8.2,1.9-11.7c0.3-0.5,0.9,0.3,0.9,0c0-0.5-0.5-0.9-0.8-1.3c1.4-2.5,2.6-5.3,4.5-7.4
		c1.7-1.9,4.3-3.1,6.5-4.5c0.5-0.4,1.2-0.6,1.8-0.9c0.5,0.6,1.3,0.8,1.8,0.8c-0.5,0-1.3-0.1-1.8-0.8c5.6-2.2,11.3-3,17.3-1.6
		c-0.1,0.1-0.3,0.3-0.4,0.4c-3.5,0.1-7,0-9.2,0.1c2.1,0.3,5.6-0.1,9.1,0c1.6,1.2,3.6,0.3,5.2,1c1.2,1.3,2.3,2.3,4.2,2.7
		c1.2,0.3,2.5,1.3,2.5,2.6c0,2.2,1.6,2.9,2.7,4c0.8,1.6,0.1,3.1,0.5,4.7c-0.4,1.7-1.8,1.6-3.1,1.6c-2.5,0-4.9,0.3-7.3-0.6
		c-2.7-2.6-4.3-6.5-9.2-6.5c-7.9,0-10.6,2.5-13.4,9.5c-0.1-0.1-0.3-0.1-0.4-0.3c-0.1-0.3-0.3-0.6-0.1-1c-0.3,0.1-0.3,0.3-0.3,0.5
		c0,0.6-0.3,1.2-0.4,1.7c0,4.4,0,8.7,0,13.1c0.1,0.5,0.3,1,0.4,1.6c0.1,0.4,0.5,0.5,0.3,0.1s0.5-0.1,0.1-0.3
		c0.1-0.3,0.3-0.4,0.5-0.4c3.1,8.4,6.7,10,15.4,9.2c3.4-0.4,4.9-3.9,7.1-6.2c2.6-1,5.3-0.6,7.9-0.6c1.2,0,2.1,0.3,2.5,1.6
		c-0.4,1.6,0.3,3.2-0.5,4.7c-1.2,1.2-2.3,2.3-2.9,4.3c-0.3,1.2-1.3,2.3-3,2.6c-1.6,0.3-2.6,1.4-3.5,2.6c-1.6,0.9-3.5-0.3-5.1,1
		c-3.4,0.1-6.7,0-10.1,0.1c3.1-0.1,6.4,0,9.5,0c0.4,0,0.8,0.1,1,0.5c-4.5,0.6-9,1.7-13.4-0.6c-1.3-0.6-2.9,0.5-3.9-0.9
		c0.5-0.6,1.3-0.8,2.1-0.8c-0.8,0-1.6,0-2.1,0.8C414.5,301.8,413,302,412.3,301.4c0.1-0.1,0.3-0.3,0.5-0.5
		C412.5,301.1,412.4,301.3,412.3,301.4z"/>
	<path fill="#535455" d="M588.7,259.6c-0.6-1.7,0-3.5-0.3-5.2c-0.4-3.1-0.1-5.7,4.3-4.8c2.1,0.4,2.1-1.2,2.1-2.7
		c0-3.1-0.6-6.4,0.4-9.5c1.8,3.4,0.3,7,0.9,10.4c-0.1-1-0.1-2.1-0.1-3.1c0-6.4,1.4-7.5,7.8-6.4c1.4,0.3,2.1,1,2.1,2.3
		c0,1.9,0,3.8,0,5.7c0-7.9,0-7.9-7.8-8c-1,0-2.2,0.1-3-0.8c3.8-1.3,7.7-0.4,11.4-0.5c1.4,0,1.4,1.2,1.4,2.3c0,2.3,0.1,4.8,0,7.1
		c-0.3,2.5,0.6,3.2,3.1,3.2c4.8-0.1,4.8,0,4.8,4.9c0,0.4,0,0.6,0,1c0,4.7,0,4.8-4.7,4.7c-2.7-0.1-3.4,0.9-3.2,3.5
		c0.1,8.4,0,16.7,0,25.2c0,4.3,1.2,5.3,5.4,5.4c1.3,0,2.9-0.9,3.8,0.8c-1,0.8-2.3,0.3-3.4,0.3s-2.1,0.3-3-0.3
		c5.7,0.6,5.7,0.6,5.2,6.1c1-1.7-1.2-4.2,1.2-5.4c0.4,8.6,0.9,9.7-8.6,9.2c-1.8-0.1-3.9,0.9-5.7-0.6c3.5-0.8,7-0.1,10.4-0.4
		c-3.5,0.4-7-0.5-10.4,0.4c-1-0.4-1.9-0.9-3-1.3l0.3-0.3l-0.3,0.3c-2.6-1.4-3.5-4-4.9-6.4c-0.6-6.7-0.1-13.6-0.3-20.5
		c-0.1-4.4-0.1-8.7,0-13.1c0.1-2.5-0.6-3.5-3.1-3.1C590.8,260,589.7,260.1,588.7,259.6z"/>
	<path fill="#535455" d="M198.9,277.9c0.3,0.3,0.5,0.5,0.8,0.8c-1.6,1.3-0.4,3.1-0.8,3.9c0.1-0.8-0.6-2.6,0.6-3.9
		c1.9,0,1.2,1.6,1.3,2.6c0.3,1.8-0.5,3.8,0.8,5.3c-0.8,0.9-0.3,2.1-0.4,2.3c0-0.4-0.4-1.4,0.3-2.5c1.8,1,0.1,3.1,1.6,4.7
		c4,4,6.7,4.2,11,0.1c3.5-3.2,5.4-7.5,8.3-11.2c3.2-3.9,4.2-9,7.3-12.8c0.3-0.3,0.3-0.9,0.3-1.3c3.8-2.1,8-1.9,12.1-2.6
		c0.9-0.1,1.9-0.1,2.1,1.2c-0.6,3.2-2.5,5.8-4,8.7c-2.2,4.2-5.3,7.5-7.8,11.4c-1.8,3-3.5,6.1-6.2,8.6c-3.5,3.1-6.7,6.5-10,9.7
		c-2.3,0.4-4.4,1.8-6.6,2.6c-2.7,0.8-5.6-0.1-8.3,0.5c-4-1-6.7-3.6-9.5-6.7c-1-1.3-0.6-3-1.9-4c0.8-0.9,0.3-2.1,0.4-2.3
		c0,0.1,0.5,1.3-0.4,2.2c-1.4-1.4,0.1-4-1.9-5.1c1.4-1,0.8-2.9,1.2-4.2c-0.9,0.6,0.9,2.7-1.3,2.7c-0.4-1.7,0.3-3.8-1.7-4.9
		c0.1-0.3,0.4-0.5,0.5-0.8c0.8-2.6,0.3-5.2-0.3-7.8c3-2.6,6.7-1.9,10.2-2.6c1.2-0.1,1.4,0.8,1.6,1.9
		C198.5,275.6,198.1,276.7,198.9,277.9z"/>
	<path fill="#535455" d="M252,248.8c-0.4,0.5-0.9,1-1.3,1.4c-0.6,0.4-0.5,0.9-0.1,1.4c-0.4,0.9-1.6,1.4-1.4,2.7
		c-4.5,1.2-8.7-0.1-12.7-2.2c-0.1-1.2-0.8-2.6,1.4-2.6c0.5-0.4,1-0.6,1.3-1.3c0.4-1-0.1-2.3,0.8-3.4c1.2-1.3-0.1-3.1,0.9-4.5
		c1-0.9,1.2-2.3,1.3-3.6c1.4-0.5,0.9,0.8,1.3,1.4c0-1-0.4-1.9-0.6-2.9c1.4-1.4,0.5-3.2,0.9-4.8c2.1,0.9,0.6,2.3,0.9,3.5
		c0.3-1.6,0-3.2-0.4-4.9c1.9-1.8-0.4-4.5,1.4-6.4c0.1,0.1,0.3,0.3,0.3,0.4c0.1,1.6,0,3,0,4.4c0.4-1.7-0.1-3.6,0.6-5.4
		c0.6-2.9-0.3-5.8,0.5-8.8c0.4-0.4,0.9-0.9,1.3-1.3c1.8-2.7,0.5-5.7,0.6-8.6c1.6-1.9,0.3-4.3,0.9-6.2c2.1,1.2,0.6,2.9,0.9,4.3
		c0.3-1.9,0.3-3.8-0.4-5.7c2.1-1.7-0.3-4.5,1.6-6.4c0.8,1.4,0.4,2.9,0.4,4.3c-0.1-1.4,0.4-3-0.4-4.3c1.9-2.3,3.2-5.3,6.5-6.4
		c0.9,0.9,1.9,0.9,2.9,0c1.6,0.9,2.6,2.2,3.6,3.5c-0.9,4.3-0.8,8.6-0.1,12.8c-2.5,2.5-0.6,5.7-1.4,8.6c-2.6-1.7-0.3-4.3-1.2-6.1
		c0.1,2.3-0.3,4.9,0.4,7.5c-1.2,1.3-0.5,2.9-0.8,4.3c-0.1,1.2,0.8,2.6-0.6,3.5c-0.9-2.1-0.3-4.3-0.4-6.4c0.3,2.1-0.5,4.3,0.4,6.4
		c-1.9,1.8,0.3,4.5-1.4,6.4c-0.1-0.1-0.3-0.3-0.4-0.3c-0.5-0.8-0.4-1.6-0.4-2.3c-0.1,1.2,0.1,2.2-0.3,3.4c-0.5,1.8,0.4,3.9-0.5,5.7
		c-1.3,0.9-1.2,2.3-1.3,3.6c-0.8,0.4-0.9,0-1-0.6c-0.1,0.4-0.6-0.4-0.3,0c0.3,0.4,0.5,1,1.2,1.3c-1.8,3.1-2.2,6.7-3.5,10.1
		c-0.1-0.1-0.3-0.3-0.4-0.4c-0.5-1.2-0.5-2.3,0.1-3.5c-0.9,1.3-0.3,2.7-0.6,4.2C252,245.9,252.8,247.4,252,248.8z"/>
	<path fill="#535455" d="M146.4,309.3c-1,0.4-1.9,0.9-3,1.3c-3.2-0.4-6.5,0.4-9.7-0.4c-1-1-2.5-0.4-3.6-1c-1.3-0.6-2.3-1.7-3-3
		c-0.6-0.9-0.1-2.1-0.6-3c-0.3-0.8-0.3-1.6-0.4-2.5c-0.5,0.5-0.4,1.2-0.6,1.6c-0.1,0.3-0.4,0.5-0.6,0.6c-2.5-5.8-2.2-11.8-1.8-17.9
		c0.3-0.6,0.5-1.2,1.2-1.3c4-0.5,8-1.4,12.2-1.9c0.4,0,0.6,0.3,0.8,0.5c0,3.4,0.3,6.9,0.1,10.2c0,3.4,2.5,4.8,4.8,6.2
		c1.3,0.8,3,0.1,4.2-1.2l0.1,0.3l-0.3-0.3c0.6-1,2.3-0.3,2.9-1.4c0.9,0.3,1.7,0.1,2.2-0.6c2.5-3.8,6.6-5.7,9-9.6
		c3.1-2.1,6.4-3.9,7.1-8.2c3.2-1.8,7-1.4,10.5-2.3c1.3-0.4,1.6,0.6,1.3,1.7c-2.7,4.5-6.7,8.3-9.7,12.7c-2.6,3.8-6.7,6.6-10.2,9.7
		c-0.1,0.1-0.5,0.1-0.6,0.4C155.5,304.6,151.2,307.2,146.4,309.3l-0.3-0.3L146.4,309.3z"/>
	<path fill="#C9A529" d="M137.2,282.5c-4.7,0.9-9.5,1.8-14.1,2.6c-0.6-2.2-0.8-4,0.8-6.1c1-1.6,0.4-4.3,0.6-6.5
		c0.1-0.4,0.5-0.4,0.8-0.3c0.9,1.2,0.4,2.5,0.6,3.8c-0.1-1.3,0.3-2.5,0.3-3.6c0.1-0.5,0.4-0.9,0.8-1.2c1.6-1.6,0.6-3.5,0.6-5.3
		c0-0.3,0.3-0.6,0.4-0.8c0.6-1.8-0.5-3.8,0.6-5.4c1.4,1.2,1,2.7,1.2,4.2c0-1.6,0.3-3.1-1-4.3c1.6-2.1,1.6-4.8,2.6-7.1
		c1.6-3.6,1.9-7.8,4.4-11.2c0.9-1.2-0.3-2.6,0.8-3.6c0.5,0.4,1.2,0.8,1,1.6c0.1-0.8-0.5-1.2-1-1.6c1.8-1.3,0.8-3.8,1.9-5.3
		c3.8,0.8,7.8,0.9,11.4,2.7c0.6-0.3,0.1,1.8,1.3,0.6c0.3-0.3,0.5-0.3,0.8-0.1c0.1,1.8-0.3,3.4-1.2,5.2c-2.3,4.7-3.9,9.7-5.7,14.5
		c-0.4-0.3-0.6-0.6-0.8-1.3c0.1,0.6,0.4,1,0.6,1.3c-0.8,3.1-1.8,6-2.6,9.1c-0.6,3-0.9,6.2-2.6,9.1c-0.8,1.3-0.4,2.5-0.6,3.8
		c-0.3,1.2,0.6,2.6-0.6,3.6c-1.4-1.4-0.3-3.4-1-4.9c0.6,1.6-0.4,3.5,0.9,5.1C138,281.4,137.6,281.9,137.2,282.5z"/>
	<path fill="#535455" d="M500.9,260.5c-5.4-0.6-10.8-0.9-15,3.8c-1.2,1.3-1.8,2.5-1.7,4.3c0,10.9,0,21.8-0.1,32.8c-1.3,0-1-1-1-1.8
		c0-10.9,0-21.7,0-32.6c0,10.4,0,20.6,0,31c0,3.9-0.4,4.3-4.2,4.3c-4.4,0.1-5.6-0.8-5.7-4.4c-0.1-14.3-0.1-28.5,0-42.8
		c0-3.6,1-4.4,4.8-4.5c2.2,0,4.3,0.1,6.2,1c1.4,1.6,2.9,1,4.2-0.1c0.3,0.4,0.6,0.6,1.2,0.8c-0.5-0.1-0.9-0.4-1.2-0.6
		c0.6-1.2,2.2-0.3,3-1.3c2.3,0,4.7-0.1,7.1,0c3,0.1,3.5,0.9,3.5,4.8c0,2.5-0.5,4.2-3.5,4c-1.8-0.1-3.8,0.1-5.6-0.1
		c2.3,0.1,4.7,0,7,0.1C500.4,259.2,501.4,259.1,500.9,260.5z"/>
	<path fill="#C9A529" d="M168.1,276.5c0.3-1.9,1-3.6,2.6-4.7c1.8-1.3,2.5-3.2,3.5-5.1c4.7-8,9.9-15.8,13.8-24.4
		c4.9-0.1,9.9,0.6,14.3,2.9c0.4,1.6,0.9,3.1-0.8,4.4c-1,0.8-0.4,1.9-0.5,3c-0.1,1.8,0.8,4-1.8,5.1c-0.9,0.4-0.4,1.7-0.5,2.6
		c-0.1,3.5-0.1,7-0.3,10.5c-0.4,0-0.8-0.1-0.9-0.5c-0.5-3.4,0-6.7-0.3-9.6c-0.3,3.1,0.5,6.6-0.4,10.2c-3.8,2.2-7.9,3-12.2,2.1
		c-0.4-0.9,0.5-2.5-0.8-2.7c-1.7-0.4-0.8,1.6-1.4,2.2c-0.6,0.6-1.3,1.3-1.9,1.8C176.4,275.7,172.4,277.1,168.1,276.5z"/>
	<path fill="#535455" d="M156.2,226.1c-1.2,2.5-3.1,4.5-2.9,7.5c0,0.6-0.4,1-1,1.2c-0.5,0.3-0.9,0.1-1.2-0.4c0.1-0.9,1.6-1,1.2-2.2
		c0.3-0.5-0.6-0.4-0.1-0.3c0.1,0,0.1,0.1,0.1,0.3c0,1.3-1,1.3-1.8,1.7c-2.3,0.4-4.5-0.5-6.9-0.9c-4.4-0.8-4.4-0.9-3.6-5.4
		c0.4-0.5,0.8-1,1.2-1.6c0.6-0.4,0.6-0.8,0.3-1.3c1.2-1.2,1.6-2.6,1.4-4.3c0.3-0.1,0.4-0.1,0.6,0c0.5,0.3,0.3,0.9,0.5,1.3
		c-0.3-0.5,0-1.2-0.5-1.6c-0.1-0.1-0.4-0.3-0.5-0.5c2.1-1.2,0.5-3.8,1.8-5.2c0.1,0.1,0.3,0.3,0.4,0.4c0.1,0.9,0,1.9,0,2.1
		c0.1,1.3,0.8,0.5,0.4,0.8c-0.5-1-0.4-2.2,0-3.2c0.9-2.6,0-5.6,2.1-7.9v-0.1c-0.4-1.4-0.5-3,0.1-4.4c0.4-0.5,1.2-1.2,1.2-1.7
		c-0.5-3.2,1.7-4.8,3.8-6.5c1.7,0.8,3.4,0.8,5.1,0.1c0.6,0.5,1.4,0.9,2.1,1.4c0.4,0.5-0.3,1,0,1.6c0.4-0.4,0.1-1.2,0.6-1.6
		c0.9,1.2,1.2,3,2.9,3.6c-1.7,1.6-0.9,3.6-1,5.6c-0.1,1.9,0.1,3.9-0.1,5.8c-1.4,2.5-2.2,5.1-3,7.8c-0.5-0.4-0.8-0.9-0.8-1.6
		c0,0.6,0.3,1.2,0.8,1.4c-0.9,0.8-0.9,1.9-1.4,2.9l-0.3-0.3l0.3,0.1c-1.2,1.2-1.6,2.6-1.6,4.2c-1,0.8-0.8-0.8-1.3-0.8
		C155.4,225.2,155.5,225.9,156.2,226.1z"/>
	<path fill="#535455" d="M92.1,221.7c-0.3,1.4-0.6,2.5-2.7,1.7c-3.4-1.2-7.1-0.6-10.2-2.7c0-1.7,2.3-2.5,1.8-4.4
		c0.5-0.4,0.8,0.1,1.2,0.4c-0.3-0.6-0.5-1.2-0.9-1.7c2.2-3.6,3.4-7.9,6.1-11.4c0.8-0.4,0.9-0.8,0.3-1.4c0.1-0.3,0.4-0.5,0.5-0.8
		c1-0.6,0.4-2.2,1.6-2.7c1.7-2.1,2.7-4.5,4.9-6.4c2.9-2.6,5.8-2.5,8.4,0.5c-1.2,1.6-0.6,3.4-0.5,5.1c-1.8,1.2,0.1,3.6-1.7,4.8
		c-0.6-0.9-0.1-2.1-0.4-3c0.1,1-0.3,2.1,0.4,3c-0.4,1-0.9,1.9-1.3,3c-0.4-0.3-0.6-0.6-0.6-1c0.1,0.4,0.4,0.8,0.6,1
		c-1.2,1.4-1.2,3.8-3,4.8c-0.6,0.4-0.5,0.9-0.1,1.4c-2.2,1.2-0.4,3.8-1.9,5.1c-0.6-0.9-0.4-2.1-0.4-2.5c0.1,0.4-0.5,1.6,0.4,2.5
		C93.8,218.6,93.6,220.6,92.1,221.7z"/>
	<path fill="#535455" d="M202.4,245.3c-4.8-0.5-9.6-1.4-14.3-2.9c1.9-2.5,2.7-5.6,3.6-8.6c0.8,0.9,0.3,2.1,0.4,2.5
		c-0.1-0.4,0.5-1.4-0.4-2.3c0.9-2.1,2.5-3.9,2.9-6.4c0.4-0.5,0.9,0.3,0.9,0c0-0.5-0.5-0.9-0.9-1.4c1.6-0.9,1.7-2.9,2.1-4.2
		c1.4-4.4,4.2-3.1,7-2.2c-1.3,1.2-3,0.4-4.4,0.9c1.4-0.5,3.1,0.4,4.4-0.9c0.9,0.4,1.9,0.9,2.9,1.3c-0.1,0.1-0.3,0.3-0.4,0.5
		c0.1-0.1,0.3-0.3,0.4-0.5c3.9,4.3,1.4,8.2-0.5,12.1c-1.3,1.2,0,3-0.9,4.3c-1.2,0.9-1.3,2.2-1.4,3.5c-1.4,0.4-0.8-0.9-1.2-1.3
		c0,1,0.4,1.9,0.6,2.9C202.6,243.4,202.4,244.3,202.4,245.3z"/>
	<path fill="#535455" d="M34.3,210.1c4.4-4.4,8.7-8.7,13-13.2c1.6-1.6,3.5-1.9,5.3-2.7c0.1,0.1,0.3,0.3,0.3,0.3c0,0.1,0,0-0.3-0.3
		c0.8-1,2.2-0.3,2.9-1.4c1.7,0.6,3.5,0.4,5.2,0.6c1,0.1,2.1,0.5,2.5,1.7c0.3,1.2,0.1,2.3-0.9,3.2c-1.3,1-2.6,2.1-3.8,3.2
		c0,1.9-2.6,1.3-2.9,2.9c-2.2,3.4-6.4,5.1-7.9,9.1c-4.7,1.2-8.8-0.8-13.1-1.9C34,211.4,33.8,210.7,34.3,210.1z"/>
	<path fill="#4C4D4E" d="M395.4,222c-0.9,3,1.4,2.1,2.7,2.1c14.1,0.1,28.3,0,42.6,0.1c20.5,0.4,41,0.9,61.5,1.6
		c9.9,0.3,19.7,1.2,29.6,1.7c-1.2,1.4-2.9,1-4.3,1.2c-1.6,0-3,0-4.5,0c-4.5,0-9,0-13.5,0c-0.8,0-1.7,0-2.5-0.3
		c-1.7-0.6-3.5-0.5-5.2-0.5c-1.2,0-2.5,0-3.6-0.3c-2.2-0.6-4.5-0.4-6.7-0.4c-12.2-0.1-24.4,0.1-36.6,0c-1.7,0-3.5,0.1-5.2-0.3
		c-3.1-0.9-6.2-0.4-9.3-0.5c-1.7,0-3.4,0-5.2,0.1c-8.4-1.3-17.1-0.3-25.6-1c-3.9-0.5-7.9-0.4-11.8-0.4c3.8,0,7.5-0.1,11.3,0.4
		c3.9,0.5,7.7,1.6,10,5.1c-3.5,0.9-6.9,1.2-10.1-1c-1.9-1.4-4.4-1.6-6.7-1.6c-10.4-0.3-20.6,0.4-31,1.8c-0.9,0.1-1.8,0.3-2.9,0
		c-0.4-0.1-0.8-0.3-1-0.5c-0.3-0.4-0.3-0.6,0-1c1-0.9,2.5-0.8,3.6-1.2c1.3-0.3,2.7-0.4,4-0.8c1.2-0.3,2.3-0.1,3.5-0.5
		c0.4-0.1,0.6-0.1,1-0.3c1.7-0.3,3.5,0,5.2-0.6c2.6-0.6,5.6,0.5,7.9-1.6c0.5-1,1-1.9,2.5-1.8C394.9,221.5,395.1,221.7,395.4,222z"/>
	<path fill="#5E5E5F" d="M305.1,232.5c10.4-2.7,21-4.4,31.7-6.1c7.9-1.2,15.8-1.9,23.7-2.9c1.8-0.1,3.1-1,4.3-2.1
		c2.2-1.8,4.3-4,7-5.3c3.2-0.6,6.5-1,9.7-1.8c7.3-1.6,13.6-5.2,20-8.7c1.3-0.6,2.5-1.3,3.9-1.7c1.7-0.3,3.2-1,5.1-1.3
		c0.5,0,1,0,1.6,0.3c0.3,0.1,0.5,0.5,0.5,0.8c-0.1,0.4-0.3,0.6-0.5,0.8c-1.9,0.9-4,1.7-5.8,3c-0.6,0.4-1.2,0.8-1.8,1
		c-7.9,5.6-16.9,8.3-26.3,10c-2.1,0.1-3.9,0.8-5.4,2.2c-5.7,5.1-7,5.4-14.3,4.4c-0.5-0.1-0.1,0.6-0.1,0.3c0-0.3,0.1-0.3,0.3-0.3
		c0.5,0,0.9-0.1,1.2,0.4c0.3,0.6-0.3,0.9-0.6,1c-1.6,0.8-3.4,1.2-5.2,0.9c-3.6-0.5-7.3-1.4-10.4,1.3c-0.3,0.3-0.6,0.3-1,0.3
		c-5.1-0.8-10,0.9-14.9,1.7c-5.8,1-11.7,0.9-17.4,2.3c-1.4,0.3-2.7,0.4-4.2,0C305.6,233.2,305.4,232.9,305.1,232.5z"/>
	<path fill="#6E6F70" d="M426,231.3c-1,0.8-2.3,0.4-3.4,0.4c-6.9,0-13.6,0-20.5,0c-23.7,0.1-47.5,1.8-71.1,3.6
		c-2.9,0.3-5.8,1-8.7,0.6c-0.1-0.8,0.4-1,1-1.3c4.2-0.8,8.2-1.8,12.3-1.7c2.6,0.1,5.1-0.6,7.5-1.2c1.4-0.3,2.9-0.3,4.4-0.3
		c9.2,0.6,18.2-2.1,27.2-2.7c8-0.5,16.2-1.3,24.3-1.2c3.5,0,6.6,1.7,9.9,2.5c3.6,0.9,7.1,0.9,10.8,0.4
		C421.7,230.2,424.1,229.5,426,231.3z"/>
	<path fill="#4A4B4C" d="M484,251.7c-2.2,1.3-4.3-0.3-6.5-0.1c-2.5,0.3-3.5,0.5-3.5,3.4c0.1,14.4,0.1,28.8,0,43.2
		c0,4,2.3,3.1,4.5,3.2c2.6,0.1,4.2,0,4-3.4c-0.3-9.6-0.1-19.1-0.1-28.7c0-1.2,0-2.2,0-3.4c0.3,0,0.5,0,0.8,0c0,10.5,0,20.9,0,31.4
		c0,1.3-0.5,2.9,0.6,4c0.3,0.9,0.3,1.7-0.8,1.9c-0.4,0.1-0.9,0-1.4,0c-9.9,0.4-9.9,0.4-9.9-9.5c0-13.8,0.1-27.4-0.1-41.1
		c0-2.7,0.6-3.6,3.4-3.2c2.3,0.3,4.7,0.1,7.1,0C483.9,249.5,484.3,250.3,484,251.7z"/>
	<path fill="#4C4D4E" d="M591.7,233.3c-15-0.4-30.2-1-45.3-1.3c-38.4-0.8-76.7-1-115.1-0.6c-1.2,0-2.3-0.1-3.5-0.1
		c-0.3-0.5-0.1-0.9,0.3-1.2c3.5-1.2,7.3-0.4,10.9-0.5c3.4-0.1,6.9,0,10.2,0c1.8,0,3.8,0.3,5.6-0.4c0.9-0.3,1.7-0.3,2.6-0.3
		c6.9,0,13.9,0,20.8,0c7.7,0,15.3,0,22.8,0c1.6,0,3,0,4.5,0c0.4,0,0.9,0,1.3,0c5.1,0.4,10,1,15,0.8c1.3,0,2.5,0,3.8,0.3
		c2.9,0.8,5.8,0.3,8.7,0.4c2.6,0,5.2,0,7.8,0c5.3,0,10.5-0.1,15.8,0.3c1.8,0.6,3.8,0.5,5.7,0.5c5.6,0,11.3-0.3,16.9,0.6
		c2.1,0,4.2,0.3,6.1,0.1c1.6,0.1,3.2-0.3,4.8,0.6C591.8,232.5,592,232.9,591.7,233.3z"/>
	<path fill="#C5A32C" d="M236.5,252.2c4.3,0.8,8.4,1.4,12.7,2.2c1.6,1.9-0.8,2.9-1.3,4.3c-0.9,2.1-1.4,4.4-3.4,5.8
		c-3.6-0.6-7.1,0.8-10.8,1c-1.2,0.1-2.3,0.3-3.4,0.4c2.3-3,2.6-6.9,4.2-10.2C234.9,254.4,236.3,253.7,236.5,252.2z"/>
	<path fill="#5B5C5D" d="M497.4,202.8c-9.9-0.5-19.7-0.9-29.6-1.4c-8.6,0.5-17.1,0.9-25.6,1.7c-1.4,0.1-2.7-0.8-4.2,0.9
		c-0.6,0.9-2.9,0.6-4.4,0.5c-7.7-0.3-14.5,2.5-21.1,5.7c-0.8,0.4,0.8,1.3,0,1.9c-4.5,2.3-9,4.7-13.5,7.1c-0.5-1,0.4-1.4,0.9-2.1
		c0.3-0.4,0.3,0.3,0.3-0.3c0.3-4.5,4.3-5.4,7.1-7.7c2.7-1.8,5.7-3,8.6-4.3c1.4-0.6,2.9-1.2,4.4-1.6c1.2-0.3,2.5-0.1,3.6-0.6
		c2.1-0.6,4.3-1.3,6.5-1.6c3.1-0.1,6.1-0.6,9.2-1.3c0.4-0.1,0.8-0.1,1.3-0.1c5.4-0.1,10.8,0,16.2-0.1c2.2,0,4.4,0,6.5,0
		c4.2,0.1,8.3-0.1,12.3,0c1.4,0.1,3,0,4.4,0.3c2.3,0.8,4.7,0.4,7,0.5c0.8,0,1.6,0.1,2.3,0.3c1.3,0.4,2.6,0.5,3.9,0.4
		c1.3,0,2.7-0.1,3.9,0.6C497.6,202.1,497.6,202.4,497.4,202.8z"/>
	<path fill="#424242" d="M322.9,235.4c-0.3,0.3-0.5,0.5-0.6,0.8c-0.8,0.4-1.4-0.1-2.1-0.5c-0.6-0.8-0.5-1.4,0.4-1.9
		c-1.7,0.9-3.5,1.6-5.4,0.9c-0.9-0.8-3.1,0.1-2.5-2.3c6.4-0.3,12.7-0.8,18.8-2.1c5.1-1.2,10.5-0.8,15.4-2.7c1-0.4,2.3-0.3,3.5-0.3
		c6.1,0.5,11.8-1.4,17.5-3c0.5-0.1,1.2-0.1,1.7,0.1c0.9,1.8-0.8,1.8-1.7,2.3c-1.9,1.2-4.3,0.8-6.2,1.4c1.7-0.1,3.5-1.4,5.3,0.1
		c0,0.3,0,0.5,0,0.6c-1,1.6-2.6,1.4-4.2,1.4c-1.3,0-2.6,0.3-3.8,0.8c-4.7,0.6-9.3,0-14,0.6C337.5,232.9,330,233,322.9,235.4z"/>
	<path fill="#252526" d="M558.3,231.2c-5.4-0.1-10.9-0.1-16.3-0.3c-2.6-0.5-5.2-0.1-7.8-0.3c-1.4,0-2.7,0.1-4.2-0.1
		c-3.6-1.4-7.4-0.8-11.2-0.9c-2.2-0.1-4.4,0-6.6-0.1c-1.8-0.5-3.6-0.3-5.4-0.4c-0.9-2.1,1.4-0.9,1.7-1.7c4.8,0,9.5,0,14.3,0.1
		c1.6,0.5,3.1,0.1,4.5,0.3c2.3,0,4.8,0,7.1,0c1.8,0.5,3.6,0.3,5.4,0.3c3.1-0.3,6.2,0.5,9.3,0.4c1.8,0.5,3.8,0.3,5.7,0.4
		c6.5,0.6,13,0.5,19.5,1c1.2,0.1,2.3-0.3,3.4,0.4c0.6,0.1,1.3,0.4,2.1,0.5c1.9-0.4,3.9-0.4,5.8,0c-1.3,2.3-3.2,0.9-4.9,0.9
		c-5.8,0-11.8-0.1-17.6-0.1C561.7,231.1,560,231.9,558.3,231.2z"/>
	<path fill="#5F6061" d="M359.1,230.4c2.6-0.5,5.2-0.9,7.8-1.4c11.3-1.2,22.6-2.3,34-2.1c3.5,0,6.9,0.3,9.9,2.9
		c2.1,1.8,5.2,0.5,7.9,0.8c3.1-1.4,6.1-1.6,9.2,0c0,0.3,0,0.5,0,0.8c-0.6,0-1.3,0.1-1.9,0.1c-6.7-0.6-13.8,0.8-20.4-0.9
		c-3.9-1-7.7-2.5-11.8-2.1c-9.5,0.8-18.9,0.6-28.3,2.6c-6,1.3-12.2,2.5-18.4,1.7c0.3-1.8,1.7-1.2,2.7-1.4
		C352.8,230.7,356,231.2,359.1,230.4z"/>
	<path fill="#6A6B6C" d="M412.4,212.1c-1.3-1.8-0.4-2.9,1.2-3.6c5.6-2.9,11.5-4.5,17.9-5.1c10.6-1,21.4-1.9,32.2-2.1
		c1.4,0,2.9,0,4.3,0.1c-3.5,0.4-6.9,1.2-10.4,1.2c-8.6,0-16.7,2.1-25,3.1c-5.6,1.4-11.3,2.2-16.5,5.1
		C414.9,211.5,413.7,212.3,412.4,212.1z"/>
	<path fill="#262727" d="M281.1,239.8c0.5-0.3,0.9-0.5,1.4-0.8c4.4-0.9,8.7-2.2,13-3.8c1.9-0.5,3.9-0.4,5.7-1.4
		c0.9-0.1,1.8-0.1,2.7-0.4c0.6,0,1.2,0,1.7,0.1c3.2,0.5,6.5,0.1,9.6,0.8c0.8,0.3,1.9-0.3,2.1,0.8c0.1,1-1,1.4-2.1,1.6
		c-2.7,0.4-5.3,0.4-8,0.6c-4.8,0.5-9.5,2.1-14.3,1.9c-2.9,1-6,1.2-9,1.9c-1.8,0.1-3.5,1.2-5.3,0.9c-0.4-0.1-0.6-0.4-0.6-0.8
		C278.5,239.8,280.1,240.3,281.1,239.8z"/>
	<path fill="#474849" d="M530.1,274.5c-0.5-2.9,1.2-1.2,1.9-0.8c6,3,11.9,6,17.9,9c1.9,1,3.9,2.2,5.8,3.2c4.3,2.2,4.3,2.1,6.7-2.2
		c0.9-1.6,0.9-3.8,3.2-4.3c-0.1,4.2-3.1,7-4.8,10.4c-0.5,1.2-1.9-0.3-2.7-0.6c-7.1-3.8-14.4-7.5-21.5-11.4
		C534.5,276.6,531.9,276.2,530.1,274.5z"/>
	<path fill="#474849" d="M341.3,274.5c-0.6-2.2,0.6-1.4,1.6-1c6.2,3.1,12.3,6.2,18.6,9.3c1.8,0.9,3.8,2.1,5.6,3
		c4.3,2.2,4.3,2.1,6.7-2.2c0.9-1.6,0.9-3.8,3.2-4.3c-0.1,4.2-3.1,7-4.8,10.5c-0.3,0.6-1.3,0.3-1.9-0.1
		C360.6,284.7,351,279.6,341.3,274.5z"/>
	<path fill="#8C8C8D" d="M400.8,202c5.7-2.3,11.5-4.3,17.8-4.8c0.1,0.1,0.1,0.3,0.3,0.5c-0.1,0.3-0.4,0.5-0.6,0.8
		c-4.5,1.6-9.1,3.4-13.2,5.8c-6.2,2.6-11.7,7-18.2,9.1c-2.7,0.9-5.6,1.6-8.4,2.2c-1.3,0.3-2.9,0.6-3.9-0.8c0.5-0.8,1.2-1.3,2.2-1.4
		C385.9,212,393.5,207.2,400.8,202z"/>
	<path fill="#6C6D6E" d="M410.8,203.4c-1.7,0.5-3.4,0.9-4.9,1.4c-0.4-0.8,0.1-1.3,0.6-1.7c2.7-1.7,5.8-2.2,8.7-3.5
		c1.2-0.5,2.5-0.6,3.4-1.8l0,0c3-1.2,6.2-1,9.2-2.2c10.1-1.9,20.4-2.1,30.5-1.9c3.4,0,6.7-0.5,10.1,0.5c-1,1.3-2.5,1-3.8,1
		c-4,0-8.2,0-12.2,0c-6.6-0.6-13.1,0.9-19.6,1.8c-4.5,0.6-9,2.7-13.4,4.2C416.8,202.1,414,203.2,410.8,203.4z"/>
	<path fill="#A5A6A6" d="M400.8,202c-0.4,2.3-2.6,2.6-4,3.6c-6.1,4.2-12.3,8.3-20.2,7.7C384.4,208.8,392.3,204.6,400.8,202z"/>
	<path fill="#525354" d="M53.7,298.4c0.1,0,0.3,0.1,0.4,0.1c3.8-0.5,7.7-0.9,11.3-2.1c2.2-0.6,1.8,1,2.2,2.1c-1.7,3.5-4,5.7-8.4,4.9
		C56.1,302.9,54.6,301,53.7,298.4z"/>
	<path fill="#7F7F80" d="M406.7,203.4c-0.3,0.5-0.5,0.9-0.8,1.4c-5.3,1.6-9.7,5.3-14.8,7.4c-4.9,1.9-10,3.1-15.2,4.4
		c-1.6,0.4-2.7-0.6-4.2-0.5c0.6-0.8,1.6-1.4,2.6-1.6c7.9,0.4,14.8-2.7,21.4-6.6c3-1.7,6-3.5,9.3-4.7
		C405.6,203.1,406.2,203.1,406.7,203.4z"/>
	<path fill="#3D3E3E" d="M566,217.8c-5.1-0.5-9.7-3-14.7-4.3c-2.5-0.6-5.1-0.8-7.3-2.2c0.1-0.3,0.4-0.5,0.8-0.6
		c0.6-0.3,1.3-0.3,1.9-0.1c1.4,0.1,2.7,1,4.2,0.9c0-0.3,0.3-0.4,0.5-0.4c5.1,1.4,10,3,14.8,4.9c0.4,0.4,0.8,0.8,0.6,1.3
		C566.8,218,566.4,218,566,217.8z"/>
	<path fill="#838384" d="M623.6,234.6c-9.7,0.1-19.5-0.8-29.2-1.2c3.5-1.8,7.3-0.5,11-0.6c0.9,0,1.8,0.1,2.7,0.3
		c-0.8-0.4-2.1,0.6-2.3-1c5.6-0.4,11,0,16.3,1.4C622.6,233.9,624,233.3,623.6,234.6z"/>
	<path fill="#3B3C3C" d="M400.3,217.7c-0.5,0.5-0.9,1-1.4,1.6c-0.8,1.4-2.1,2.1-3.5,2.7c-0.3,0-0.5-0.1-0.8-0.1
		c0.4-1.7-1.7-3.2-4.3-3c-2.3,0.3-4.5,0.8-6.9-0.1c-0.3-0.3-0.4-0.5-0.4-0.9c3.5-1.9,7.7-1.9,11.3-3.6c1.8-0.5,3,0.9,4.3,1.7
		C399.4,216.4,400.5,216.4,400.3,217.7z"/>
	<path fill="#987751" d="M184.7,273.2c4-0.8,7.9-1.6,11.9-2.3c0.4-0.4,0.9-0.4,1.4,0c0.1,0,0.4,0.1,0.5,0.1c0.1,2.3,0.1,4.5,0.3,6.9
		c-1.8-1,0.6-4.3-1.9-4.7c-1.7-0.3-3.6,0.6-5.4,1.2c-1.6,0.4-3.6-0.8-4.5,1.6c0.9,2.6,0.9,5.1,0,7.7l-0.3,0.1h-0.3
		c-0.6-0.9-0.4-2.1-0.3-3C186.3,278,186,275.4,184.7,273.2z"/>
	<path fill="#3E3F3F" d="M292.5,239c5.4-0.9,10.9-1.6,16.2-2.6c2.2-0.4,4.4-0.1,6.6-0.4c0.6-0.1,1.6-0.1,1-1.2
		c-0.1-0.3-0.9-0.1-1.3-0.3c-0.1-0.1-0.1-0.3-0.3-0.4c0.1-0.1,0.1-0.3,0.3-0.4c1.8,0.3,3.6-0.4,5.6-0.9c-0.3,1-0.4,1.8-0.6,2.6
		c-1.3,1.9-3.5,1.4-5.1,1.6c-7.7,0.4-15,2.3-22.6,2.7c-0.1-0.1-0.3-0.4-0.3-0.5C292.4,239.1,292.4,239,292.5,239z"/>
	<path fill="#313132" d="M545,211.2c-0.4,0.1-0.6,0.1-1,0.3c-11.7-2.5-23.5-5.2-35.3-7.1c-0.1-0.4,0-0.8,0.3-1
		c2.6-0.9,5.2-0.4,7.7,0.3c8.6,2.1,17.3,3.5,25.7,5.8C543.3,209.7,544.7,209.7,545,211.2z"/>
	<path fill="#313132" d="M512.4,200.6c10.1,2.1,20.1,4.3,29.8,7.8c-0.3,0.4-0.5,0.5-0.9,0.6c-6.2-0.9-12.2-2.6-18.3-4.2
		c-1.3-0.4-2.6-0.4-3.9-0.8c-1.7-0.8-3.5-0.8-5.3-1c-1.4-0.3-3.1-0.3-3.1-2.3C511.3,200.2,511.9,200.3,512.4,200.6z"/>
	<path fill="#987954" d="M34.3,210.1c1.3,2.3,3.8,1.2,5.6,1.8c2.5,0.9,5.2,1,7.8,1.6c-0.6,0.6-1.3,1.4-1.9,2.1
		c-4.4-0.9-9-1.9-13.4-2.9C32.1,211.1,33.6,210.8,34.3,210.1z"/>
	<path fill="#505152" d="M57.7,201.4c1.3-1.2,2.5-2.5,3.9-3.5c1-0.6,1.2-1.4,0.9-2.3c-0.3-1.3-1.3-1-2.2-1.3
		c-1.7-0.4-3.9,1.3-4.8-1.4c2.1-1.3,4.4-0.8,6.4-0.5c2.7,0.4,3.6,4.3,1.4,6.1c-1.3,1-2.1,2.9-4,3.1
		C58.9,201.8,58.2,201.9,57.7,201.4z"/>
	<path fill="#535455" d="M559,256c-2.3-0.3-4.4-1.7-6.9-1.3c-2.5,0.3-1.8-3-3.6-3.6c-0.8,0.3-0.9-0.1-0.8-0.8
		C550.4,248.7,558.7,253,559,256z"/>
	<path fill="#535455" d="M370.4,256c-2.3-0.3-4.4-1.7-6.9-1.3c-2.5,0.3-1.8-3-3.6-3.6c-0.8,0.3-0.9-0.1-0.8-0.8
		C361.7,248.7,370.1,253,370.4,256z"/>
	<path fill="#434444" d="M512.4,200.6c-0.5,0-1,0.1-1.6,0.1c-1,0.9-2.1,0.8-3.2,0.5c-1.7-0.5-3.5-1.3-5.3-1.2
		c-0.8,0-1.6-0.1-2.3-0.3c-4.9-0.6-9.7-1.6-14.7-1.8c-1.8,0-3.5-0.3-4.9-1.6c0-1.4,0.8-1.2,1.7-0.9
		C492.3,196.4,502.4,197.9,512.4,200.6z"/>
	<path fill="#625C54" d="M67.6,298.5c-0.6-0.6-0.5-1.6-2.3-1.2c-3.5,0.9-7.3,2.7-11.2,1c0.4-1.8,2.1-1.4,3.1-1.7
		c4-0.9,7.9-1.6,11.9-2.3C68.1,295.7,67.3,296.9,67.6,298.5z"/>
	<path fill="#4A4B4C" d="M336.4,258.1c-1.7,5.6-4,10.9-8.4,15c-0.9-1.7,0.5-2.6,1.2-3.8c1.6-3.1,3.2-6.2,4.8-9.3
		C334.4,259,334.7,257.7,336.4,258.1z"/>
	<path fill="#4A4B4C" d="M525,258.1c-1.7,5.6-4,10.9-8.4,15c-0.9-1.7,0.5-2.6,1.2-3.8c1.6-3.1,3.2-6.2,4.8-9.3
		C523.2,259,523.3,257.7,525,258.1z"/>
	<path fill="#565758" d="M588.7,259.6c8-0.1,6.5-0.6,6.5,6.5c0.1,10.1,0,20.4,0,30.5c-0.8-0.6-0.5-1.6-0.5-2.3
		c0-10-0.1-20.1,0.1-30.1c0.1-3.2-0.9-4.3-3.9-3.9C590.1,260.4,589.2,260.7,588.7,259.6z"/>
	<path fill="#515253" d="M160.6,286.5c0,1.3-0.9,2.3-1.7,3c-2.7,2.2-5.2,4.7-7.4,7.4c-1,1.3-1.9,1.3-2.3-0.5
		c3.2-3.2,6.6-6.6,9.9-9.9C159.5,286.1,160.1,286.1,160.6,286.5z"/>
	<path fill="#444546" d="M264.8,199.3c-0.5-0.1-1.3-0.3-1.3-0.9c0-3.6,0-7.4,0-11c0-0.6,0.8-0.8,1.3-0.9
		C265.4,190.7,265.7,195,264.8,199.3z"/>
	<path fill="#967754" d="M168.1,276.5c4-0.9,8.2-2.1,12.3-2.1c-0.4,1-0.9,1.9-1.3,3c-0.3-0.4-0.6-1.2-0.6-1
		c-3.5,1.6-7.4,0.9-10.9,2.3c-0.5,0.4-1,0.4-1.6-0.1C166.7,277.8,167.2,276.9,168.1,276.5z"/>
	<path fill="#545556" d="M151.4,233.9c0.4,0.3,0.6,0.5,1,0.9c-0.1,0.3-0.3,0.4-0.5,0.6c-0.3,0-0.4,0-0.5,0.1
		c-0.5,0.3-0.9,0.3-1.4-0.1c-3.2-0.6-6.4-1.4-9.6-2.1c-0.8-0.1-1.7-0.3-1.9-1.2c2.1-0.9,0.1-3.4,1.6-4.5c-0.4,2.7,0.3,4.4,3.4,4.5
		c2.6,0.1,5.2,1.3,7.9,1c0.3,0.1,0.3,0.3,0.3,0.4C151.5,233.9,151.4,233.9,151.4,233.9z"/>
	<path fill="#4D4E4F" d="M524.2,297.1c4,0.8,7.1,3.8,11,4.7c0.3,0,0.3,1,0.4,1.6C532.1,303.6,524.7,299.6,524.2,297.1z"/>
	<path fill="#525354" d="M301.6,263.1c-0.5-3.6-3.4-6-5.2-8.8c-1.3-1.9-3.5-0.4-5.3-1.9c1.7-1,3.2-0.5,4.8-0.6
		c2.7,2.6,5.7,5.1,6.5,9C302.9,261.7,303.3,262.7,301.6,263.1z"/>
	<path fill="#414242" d="M535,228.4c-2.6,0-5.2,0-7.8,0c-0.1-0.1-0.3-0.1-0.3-0.3c0-0.1,0.1-0.3,0.1-0.3c1.6-0.1,3.1-0.1,4.5-0.3
		c8.3-0.3,16.6,0.9,24.8,1.4c-0.4,0.6-1.2,0.4-1.7,0.5c-1.7-0.1-3.2,0.3-4.9-0.3c-3.4,0-6.6-0.1-10-0.1
		C538.4,228.1,536.6,229.1,535,228.4z"/>
	<path fill="#4D4E4F" d="M368.3,297.1c-1.4,0.5-2.9,2.3-4-0.8c-0.4-1.2-2.7-1.6-4.2-2.2c-1.2-0.5-2.5-1-2.5-2.6
		C361.8,292.3,365.4,294.1,368.3,297.1z"/>
	<path fill="#4D4E4F" d="M556.9,297.1c-1.4,0.5-2.9,2.3-4-0.8c-0.4-1.2-2.7-1.6-4.2-2.2c-1.2-0.5-2.5-1-2.5-2.6
		C550.4,292.3,554.1,294.1,556.9,297.1z"/>
	<path fill="#4D4E4F" d="M335.6,297.1c3.9,0.9,7.1,3.4,10.8,4.9c0.4,0.5,0.4,0.9,0,1.4C343.1,303.5,336.1,299.3,335.6,297.1z"/>
	<path fill="#505152" d="M301.6,263.1c0.9-0.5,0.6-1.6,0.8-2.3c2.9,0.4,1.4,2.3,1.3,3.8c-4.2,0.3-8.3,1.3-12.3-0.6
		c-0.6-0.3-1.2-0.6-1.3-1.3c0.4-0.3,0.9-0.8,1-0.8C294.5,263.9,298.2,262.7,301.6,263.1z"/>
	<path fill="#404143" d="M162.1,210.7c-1.8-3.4-0.6-7-0.8-10.5c0-1,1.2-0.9,1.9-0.9c0,3.2,0.1,6.5,0.3,9.6
		C163.6,209.9,163.6,210.8,162.1,210.7z"/>
	<path fill="#464647" d="M500.9,260.5c-1.6-2.1-3.6-0.6-5.6-0.9c-1.3-0.3-2.7,0-4.2-0.8c1.6,0,3.1,0,4.5,0c2.6,0,5.6,0.6,5.3-3.8
		c-0.3-3.9-0.1-3.9-5.4-4c-1.4,0-3.2,1.6-4.4-0.5l0,0c3.1-0.8,6.2-0.1,9.3-0.4c0.8,0,1.4,0.1,1.4,1c0,3.2,0.4,6.5-0.3,9.7
		c0,0.1-0.4,0.1-0.6,0.1C500.9,260.8,500.7,260.7,500.9,260.5z"/>
	<path fill="#3C3D3D" d="M554.7,229.3c0.5-0.1,1.2-0.1,1.7-0.3c7.3,0.3,14.5-0.1,21.7,1.6c-7.8,0.4-15.4-0.6-23.2-0.8
		c-0.3,0-0.3-0.1-0.3-0.3C554.7,229.3,554.7,229.3,554.7,229.3z"/>
	<path fill="#3E3F40" d="M276,304.2c3.4-1.6,6.9-0.4,10.2-0.8c1.6-0.1,3,0,4.5,0c0.3,0.1,0.4,0.3,0.3,0.5c0,0.1-0.1,0.3-0.1,0.3
		C286,305.2,281.1,305.3,276,304.2z"/>
	<path fill="#3E3F40" d="M291.1,250.1c-4.9,1.3-10,1.3-14.9,0C281.1,249.2,286,249.4,291.1,250.1z"/>
	<path fill="#414242" d="M605.8,232c1.2,1.2,3,0.1,4.8,1.4c-5.8,0-11,0-16.2,0c-0.9,0-1.8-0.1-2.7-0.1c0-0.3,0-0.4,0-0.6
		c1-1.2,2.6-0.5,3.8-1c0.8-0.1,1.6,0,2.2,0.3C600.4,231.9,603.1,231.9,605.8,232z"/>
	<path fill="#414244" d="M436.4,266.6c0.9-1.6,1.9,0,2.9,0c2.3-0.3,4.8,0.8,7.1-0.6c0.5-0.4,1-0.4,1.6-0.1c0.9,1,0.9,2.2-0.5,2.3
		c-3.5,0.1-7,0-10.5-0.1C436.3,268.1,436.3,267.3,436.4,266.6z"/>
	<path fill="#505152" d="M537.9,293.6c0.3,0.6,1.3,0.8,1,1.6c-0.1,0.5-0.8,0.5-1.2,0.3c-2.6-1.7-5.8-2.3-9-5.1
		c1.6,0.1,2.2,0.1,2.9,0.1C533.8,291.3,536,292.1,537.9,293.6z"/>
	<path fill="#515253" d="M166,278.6c0.5,0,1,0.1,1.6,0.1c0.1,4.9-3.9,6-7.1,7.8c-0.5,0-1,0-1.6,0c1.9-1.7,3.9-3.2,5.7-4.9
		C166.2,281,165.6,279.6,166,278.6C166.2,278.7,166,278.6,166,278.6z"/>
	<path fill="#7F8080" d="M415.9,210.7c2.5-2.2,5.4-3.2,8.7-3.8c2.6-0.4,4.9-2.2,7.8-1.3C427.1,208,421.3,209,415.9,210.7z"/>
	<path fill="#CCB130" d="M103.1,246.8c-5.6,0-11.3,0-16.9,0c-1,0-2.7,0.4-2.9-1.2c0-1.4-1.4-3.6,1.2-4.4c-1.8,4.2-1.3,4.9,3.1,5.1
		C92.9,246.4,97.9,245.5,103.1,246.8z"/>
	<path fill="#626263" d="M578.2,222c-2.9-0.9-5.7-1.9-8.6-2.9c0.4-0.6,1.3-0.8,1.6-1.4c3.1,1.2,6.1,2.3,9.2,3.6
		C580,222.9,579,222.1,578.2,222z"/>
	<path fill="#CCB133" d="M12.9,241.8c0.4,2.5-1.4,4.3-2.2,6.5c-0.5,2.3-0.6,4.7,0,6.9c0,0.4,0,0.6-0.1,1c-1.8-1.6-2.7-6.2-1.2-8.2
		C11.1,246.1,11.5,243.7,12.9,241.8z"/>
	<path fill="#535455" d="M501,260.9c1.3-3,0.4-6.2,0.5-9.3c0-1.6-1.4-1.3-2.5-1.3c-2.7,0-5.3,0-8,0c3.2-1.7,6.7-0.4,10.2-0.6
		c1-0.1,1.2,0.9,1.2,1.8c0,3,0,5.8,0,8.8C502.4,261.4,502.3,262.5,501,260.9z"/>
	<path fill="#515253" d="M346.4,303.5c0-0.5,0-0.9,0-1.4c2.2-0.8,7,0.1,7.8,1.3C351.6,305.8,349,302.9,346.4,303.5z"/>
	<path fill="#626364" d="M482.1,195.5c-0.5,0.3-1.2,0.5-1.7,0.8c-2.3,0.6-4.7,0.3-7,0c-2.6-1-5.6,0.1-8.2-0.9
		c-0.4-0.3-0.5-0.5-0.4-1c1.3-0.1,2.6-0.1,3.9-0.3C473.1,194.2,477.5,194.4,482.1,195.5z"/>
	<path fill="#535455" d="M351.3,293.5c0.4,3.1,2.3,1.3,3.6,1c0.5-0.1,1.3-0.5,1.6,0.1c0.5,0.8-0.3,1.3-0.9,1.6
		c-3.4,1.9-5.2,0.3-6.5-2.6C349.9,293.6,350.6,293.6,351.3,293.5z"/>
	<path fill="#3D3E3F" d="M133.6,310c2.7-0.1,5.6-0.1,8.3-0.3c0.9,0,1.3,0.4,1.6,1c-3.4,1-6.7,0.8-10.1,0.1
		C133.2,310.5,133.3,310.2,133.6,310z"/>
	<path fill="#515253" d="M359.1,250.1c0.3,0.3,0.5,0.5,0.8,0.8c-2.1,0.6-5.8-0.1-7.1-1.4C355.1,247.4,357.1,248.7,359.1,250.1z"/>
	<path fill="#414242" d="M269,243.3c1.9-0.1,3.4-1.9,5.4-1.7c0.1,0,0.3,0,0.5,0.1c1,0.1,2.2-0.1,3.2,0.4c0.4,0,0.6,0.1,0.8,0.4
		c-3.4,0.8-6.7,1.6-10,2.2C268.6,244.3,268.6,243.8,269,243.3z"/>
	<path fill="#515253" d="M547.7,250.1c0.3,0.3,0.5,0.5,0.8,0.8c-2.1,0.6-5.8-0.1-7.1-1.4C543.7,247.4,545.8,248.7,547.7,250.1z"/>
	<path fill="#474748" d="M597.7,231.7c-0.9,0.1-1.8,0.1-2.7,0.3c-1.7,0.4-3.5,0.1-5.2,0.1c-1.3-0.5-2.7,0-3.9-0.9
		c-1.9-0.1-3.9-0.1-5.7-0.3c2.2-1.6,4.8-0.5,7.1-0.5C590.8,230.7,594.3,231.3,597.7,231.7z"/>
	<path fill="#464748" d="M249.1,203.4c1.8,2.6,0.6,5.6,0.8,8.4c0,0.8-0.9,0.3-1.4,0.1C248.7,209.2,247.1,206.2,249.1,203.4z"/>
	<path fill="#414343" d="M446.4,288.5c-2.7-1.2-5.6-1-8.3-0.1c-1,0.4-1-0.5-1.7-0.6c-0.4-1.3,0.1-1.8,1.4-1.4c3.1,0.6,6.1,0.6,9.2,0
		c1.9,0.1,1.7,1.2,0.9,2.3C447.4,289.1,446.8,289.1,446.4,288.5z"/>
	<path fill="#8B8C8C" d="M578.2,222c0.8-0.3,1.7,0,2.2-0.8c2.3,1,4.7,1.9,7,3c0.5,0.4,0.5,0.8,0,1.2
		C584.2,224.8,581.1,223.6,578.2,222z"/>
	<path fill="#323333" d="M295.4,235.6c-4.2,1.6-8.3,3.2-12.8,3.2c3.9-1.3,7.8-3,11.9-3.5C294.9,235.1,295.1,235.1,295.4,235.6z"/>
	<path fill="#57585A" d="M412.3,285c0-5.2,0-10.4,0-15.7c0.4-0.4,0.8-0.4,1.3-0.1c0.1,0.1,0.1,0.1,0.3,0.3c-2.1,2.9-0.6,6.2-0.9,9.2
		c-0.1,1.9-1,4.3,0.9,6.1c-0.1,0.1-0.1,0.3-0.3,0.3C413.2,285.6,412.7,285.4,412.3,285z"/>
	<path fill="#404142" d="M201.6,305.8c2.7-1.9,5.7-0.5,8.6-0.9c0.3,0.1,0.4,0.3,0.3,0.5c0,0.1-0.1,0.3-0.1,0.3
		C207.3,306.8,204.4,306.7,201.6,305.8z"/>
	<path fill="#828384" d="M427.8,195.5c-2.7,2.1-5.8,2.3-9.2,2.2c0-0.3,0-0.5,0-0.6C421.6,196,424.7,195.7,427.8,195.5z"/>
	<path fill="#4B4C4D" d="M328.6,282.2c1,1.2,1,2.7,1.7,4c0.5,1.3-0.1,1.7-1.2,1.8c-0.8-1.8-1.7-3.8-1.8-5.7
		C327.7,281.8,328.2,281.8,328.6,282.2z"/>
	<path fill="#4B4C4D" d="M517.2,282.2c1,1.2,1,2.7,1.7,4c0.5,1.3-0.1,1.7-1.2,1.8c-0.8-1.8-1.7-3.8-1.8-5.7
		C516.3,281.8,516.8,281.8,517.2,282.2z"/>
	<path fill="#4C4D4E" d="M537.9,303.5c-0.4-0.5-0.6-1.2-1.4-2.6c2.5,1.7,4.8,0.8,6.5,2.5C541.1,303.9,539.5,305.9,537.9,303.5z"/>
	<path fill="#525354" d="M157.7,194.2c-1.7,2.3-3.4,2.5-5.1-0.1C154.4,193.5,156,193.3,157.7,194.2z"/>
	<path fill="#3E3F40" d="M617.2,295.7c-1.6,1.9-0.1,4.4-1,6.6c-0.9-6.1-0.9-6.1-6-7.3c2.3,0,4.7,0,7,0
		C617.2,295.3,617.2,295.4,617.2,295.7z"/>
	<path fill="#474848" d="M508.8,203.4c0,0.3,0,0.5,0,0.8c-3.8-0.5-7.5-1-11.3-1.4c0-0.3,0-0.4,0-0.6c0.4-0.5,0.9-0.6,1.4-0.6
		c0.4,0,0.8,0,1,0.1c2.9,0.8,6-0.3,8.6,1.4C508.5,203.2,508.7,203.3,508.8,203.4z"/>
	<path fill="#464748" d="M261,288.5c3.8,0,7.4,0,11.2,0c-3.6,0.9-7.4,0.3-11,1.6C260.6,289.6,260.5,289.1,261,288.5z"/>
	<path fill="#323333" d="M292.5,239c0,0.3,0,0.5,0,0.8c-2.3,1.3-5.1,1.2-7.7,1.3c-0.4,0.3-0.8,0.3-1-0.3
		C286.7,240.3,289.7,239.6,292.5,239z"/>
	<path fill="#9B9C9C" d="M623.6,234.6c-0.5-0.4-0.9-0.9-1.4-1.3c3.4-0.5,6.6,0.6,9.9,0.6c0.3,0.1,0.3,0.3,0.3,0.4
		c-0.1,0.1-0.1,0.3-0.3,0.3C629.3,234.6,626.5,234.6,623.6,234.6z"/>
	<path fill="#555556" d="M571.2,217.7c0.8,1.9-0.9,1.2-1.6,1.4c-1.4,0-2.6-0.3-3.6-1.3c0.9-0.4,0.4-1,0.3-1.7
		C567.8,216.7,569.5,217.2,571.2,217.7z"/>
	<path fill="#535455" d="M291.5,263.9c4,1.3,8.2,0.4,12.3,0.6C299.7,265.2,295.5,266.4,291.5,263.9z"/>
	<path fill="#4A4B4C" d="M565.5,263.6c-1.8-0.1-3-1.7-2.7-3.5C565.4,260,565.2,262.1,565.5,263.6z"/>
	<path fill="#4A4B4C" d="M376.8,263.6c-1.8-0.1-3-1.7-2.7-3.5C376.7,260,376.6,262.1,376.8,263.6z"/>
	<path fill="#4F5052" d="M327.9,275.2c0.5-0.4,1.2-0.6,2.1-1.3c-0.4,2.2-0.6,3.9-2.9,4.2C326,276.6,327.4,276,327.9,275.2z"/>
	<path fill="#4F5052" d="M516.7,275.2c0.5-0.4,1.2-0.6,2.1-1.3c-0.4,2.2-0.6,3.9-2.9,4.2C514.6,276.6,516.1,276,516.7,275.2z"/>
	<path fill="#575859" d="M240.6,240.4c-0.3,1.7,0.6,3.4-0.6,4.9c-0.9,1,0.1,2.5-0.6,3.5c-0.3,0.6-0.8,0.8-1.4,0.8
		C238.8,246.5,239.7,243.5,240.6,240.4z"/>
	<path fill="#8F8F90" d="M269,243.3c0,0.5,0,1-0.1,1.6c-0.9,1.3-2.2,1.3-3.5,1.4c-0.8,0.3-1.4,0.5-1.3-0.8
		C265.8,244.7,267.5,244,269,243.3z"/>
	<path fill="#CCB133" d="M16.4,236.9c0.1,1.8-1.6,4.3-3.4,4.8C13.6,239.8,14.9,238.2,16.4,236.9z"/>
	<path fill="#424344" d="M262.7,209.2c-1.7-2.7-0.1-5.6-0.6-8.4c1.4,2.2-0.4,4.9,1.4,6.9C263.6,208.5,263.5,209,262.7,209.2z"/>
	<path fill="#F7F047" d="M127.1,271.6c-0.3,0.3-0.5,0.4-0.8,0.6c-0.4,0.4-0.8,0.5-1.3,0.3c-0.3,0-0.5,0-0.6,0c0-1.4,2.6-1.2,1.9-3
		c-0.6-1.2-0.8-2.5,0-3.6c0.5-0.3,1-0.6,1.6-0.9c0,0.3,0,0.5-0.1,0.9C127.8,267.8,128.5,269.9,127.1,271.6z"/>
	<path fill="#4B4B4D" d="M57.7,201.4c0.5,0,1.2,0.1,1.7,0.1c-0.6,1.8-1.3,3.5-3.8,3c-0.3-0.8-0.6-1.7,0.8-1.7
		C57.3,202.8,57.6,202.1,57.7,201.4z"/>
	<path fill="#444546" d="M102.6,198c-1.2-1.8-2.1-3.6,0.5-5.1C103.1,194.6,103.9,196.3,102.6,198z"/>
	<path fill="#414142" d="M262.7,270.1c1.7-2.3,0-5.2,1.3-7.7c-0.6,2.7,1.7,5.8-1.2,8.4c0-0.1-0.1-0.3-0.1-0.4
		C262.6,270.4,262.6,270.3,262.7,270.1z"/>
	<path fill="#555657" d="M247,213.3c-0.3,3.1,0.9,6.5-0.8,9.5c-0.1,0-0.3,0.1-0.4,0.1l-0.3-0.3c1.6-1.6,0.5-3.6,0.8-5.3
		C246.6,215.9,245.8,214.5,247,213.3z"/>
	<path fill="#626363" d="M147.6,206.8c-0.6,2.7-1.3,5.4-2.1,8.2c-0.1,0.3-0.4,0.3-0.6,0.1c-0.1-0.1-0.1-0.3-0.1-0.4
		c0.9-0.9,1-2.1,0.8-3.1C145.3,209.4,146.2,208,147.6,206.8z"/>
	<path fill="#4D4E4F" d="M340,254.6c0,1.7-0.4,3.1-1.9,4.2c-0.8-0.8,0.1-1.4-0.1-2.1C337.9,255.3,338.3,254.2,340,254.6z"/>
	<path fill="#4D4E4F" d="M528.6,254.6c0,1.7-0.4,3.1-1.9,4.2c-0.8-0.8,0.1-1.4-0.1-2.1C526.6,255.3,527,254.2,528.6,254.6z"/>
	<path fill="#535455" d="M447,286.5c-3.1,1.3-6.1,1.3-9.2,0C440.9,286.5,443.9,286.5,447,286.5z"/>
	<path fill="#505152" d="M328.6,282.2c-0.5,0-0.9,0-1.4,0c-0.3-0.6-1.2-1.4-0.1-2.2c0.5-0.4,1.4-1.2,1.6-0.9
		C330,280.1,328.3,281.2,328.6,282.2z"/>
	<path fill="#505152" d="M517.2,282.2c-0.5,0-0.9,0-1.4,0c-0.3-0.6-1.2-1.4-0.1-2.2c0.5-0.4,1.4-1.2,1.6-0.9
		C518.6,280.1,517,281.2,517.2,282.2z"/>
	<path fill="#3F4041" d="M250.4,195.5c1.7,2.1,0.6,4.3,0.8,6.9c-1.2-1.9,0.3-4-1.3-5.3C249.7,196.4,249.7,195.9,250.4,195.5z"/>
	<path fill="#545556" d="M210.3,305.8c0-0.3-0.1-0.5-0.1-0.8c2.1-0.9,3.9-2.5,6.4-2.2C214.4,303.7,212.3,304.8,210.3,305.8z"/>
	<path fill="#3E3F3F" d="M295.4,235.6c-0.3-0.1-0.6-0.1-0.9-0.3c1.7-0.9,3.5-1.6,5.6-1.6c0.4-0.3,0.8-0.1,1,0.3
		C299.3,235.2,297.3,235.5,295.4,235.6z"/>
	<path fill="#BEBEBF" d="M632.2,234.6c0-0.3,0-0.4,0-0.6c2.5,0,4.8,0,7.3,0c0,0.3,0,0.4,0,0.6C637,234.6,634.5,234.6,632.2,234.6z"
		/>
	<path fill="#424345" d="M244.1,229c1.6,1.7,0.4,3.8,0.9,6.2c-1.6-1.8-0.1-3.6-1.6-4.8C243.4,229.8,243.4,229.3,244.1,229z"/>
	<path fill="#222223" d="M541.4,208.6c0.3-0.1,0.6-0.1,0.9-0.3c1.7,0,3.2,0.8,4.8,1.4c0.1,0.4,0.1,0.6-0.3,0.9
		C545,210.1,542.7,210.8,541.4,208.6z"/>
	<path fill="#393A3A" d="M281.1,239.8c-0.9,0.5-1.8,0.9-2.9,1.4c-0.9,1.3-2.1,1.2-3.4,0.8c-0.1-0.1-0.3-0.1-0.4-0.3
		C276.7,240.9,278.6,239.5,281.1,239.8z"/>
	<path fill="#3E3F40" d="M261.3,182.9c-0.1,1-0.5,1.4-1.6,1.4c-0.9,0-1.2-0.6-1.3-1.4C259.3,182.6,260.3,182.6,261.3,182.9z"/>
	<path fill="#393A3A" d="M283.8,240.9c0.4,0.1,0.6,0.1,1,0.3c-1.9,0.6-3.8,1.4-5.8,1.4c-0.3-0.1-0.6-0.1-0.9-0.3
		c-0.1-0.1-0.1-0.3-0.1-0.4c0.1-0.1,0.1-0.1,0.1-0.1C280.1,241.6,282,241.2,283.8,240.9z"/>
	<path fill="#FDFAD4" d="M126.3,265.8c0,1.2,0,2.5,0,3.6C124.4,268.3,124.3,267,126.3,265.8z"/>
	<path fill="#606061" d="M281.1,282.2c2.1,0,4.3,0,6.4,0c0.4,0.4,0.5,0.9,0.1,1.3c-0.1,0.1-0.3,0.1-0.4,0.1
		C285.6,281.7,282.9,283.6,281.1,282.2z"/>
	<path fill="#5A5B5C" d="M258.4,229.6c0-2.1,0-4.3,0-6.4c0.4-0.4,0.9-0.4,1.3-0.1l0.1,0.1C257.8,225.1,260.1,227.8,258.4,229.6z"/>
	<path fill="#4A4B4C" d="M356.2,303.6c0.1-0.8-1.8-1.3-0.8-1.8c1.2-0.6,2.1,0.5,2.3,1.8C357.3,304.2,356.7,304.4,356.2,303.6z"/>
	<path fill="#A8A9A9" d="M587.4,225.4c0-0.4,0-0.8,0-1.2c1.3,0.6,2.6,1.4,4.2,2.2C589.6,227.4,588.6,226.1,587.4,225.4z"/>
	<path fill="#4A4B4C" d="M544.9,303.6c0.1-0.8-1.8-1.3-0.8-1.8c1.2-0.6,2.1,0.5,2.3,1.8C545.9,304.2,545.4,304.4,544.9,303.6z"/>
	<path fill="#414243" d="M188.1,288.7c1.3-0.9,0.4-2.5,1.2-3.5c-0.1,1.7,1.6,3.8-1,4.9C187.8,289.6,187.8,289.1,188.1,288.7z"/>
	<path fill="#5A5B5C" d="M292.8,285.8c1.3,1.9,2.5,4-0.5,5.4C293.8,289.7,293.6,287.8,292.8,285.8z"/>
	<path fill="#DADADA" d="M264.2,245.3c0.4,0.3,0.9,0.5,1.3,0.8c-1,0.9-2.2,1.6-4,1C262.6,246.5,263.3,246,264.2,245.3z"/>
	<path fill="#404142" d="M242.6,235.4c1.4,1,0.6,2.5,0.9,3.8c-1-0.6-0.4-1.9-1.6-2.3C241.7,236.1,241.8,235.6,242.6,235.4z"/>
	<path fill="#555556" d="M301.1,234.2c-0.4-0.1-0.6-0.1-1-0.3c1.7-0.8,3.2-1.3,5.1-1.3c0.3,0,0.6,0.1,0.9,0.1
		c-0.1,1.6-1.7,0.5-2.2,1.3C302.9,234.1,302,234.1,301.1,234.2z"/>
	<path fill="#3F4041" d="M402.4,264.5c1.9,0.3,1.4,1.7,1.3,3c-0.5-0.6-0.9-1-1.3-1.6C402,265.5,401.9,264.9,402.4,264.5z"/>
	<path fill="#565758" d="M446.4,288.5c0.5,0,1,0.1,1.6,0.1c-1.8,1.2-0.1,3.5-1.6,4.7C446.4,291.8,446.4,290.2,446.4,288.5z"/>
	<path fill="#3F4042" d="M194.6,226.1c1.9,0.4,1.4,1.7,1.2,3c-0.5-0.6-0.9-1-1.3-1.6C194.2,227.1,194.1,226.7,194.6,226.1z"/>
	<path fill="#545556" d="M447.9,265.8c-0.5,0-1,0.1-1.6,0.1c0-1.6,0-3.2,0-4.8C447.8,262.3,446.1,264.7,447.9,265.8z"/>
	<path fill="#414243" d="M81.3,214.9c2.2,0.6,0.8,2.3,1.6,3.9c-1.4-0.8-0.8-2.2-1.9-2.5C80.8,215.8,80.8,215.2,81.3,214.9z"/>
	<path fill="#414243" d="M262.7,293.6c0.4-0.8,0.8-1.4,1.3-2.5c0,1.7,0.6,3-0.8,4C262.4,294.8,262.4,294.3,262.7,293.6z"/>
	<path fill="#424344" d="M276,280.2c0.9-1.3,2.3-0.8,3.6-0.8c-0.4,1-1.8,0.4-2.1,1.3C276.8,281,276.3,281,276,280.2z"/>
	<path fill="#535455" d="M437,251.7c-1.6-0.3-3.4,0.6-4.8-0.8c-0.3-0.1-0.3-0.3-0.3-0.4c0-0.1,0.1-0.3,0.1-0.3
		c0.1-0.1,0.1-0.1,0.3-0.3C433.4,252,435.7,250.1,437,251.7z"/>
	<path fill="#414243" d="M203.3,242.6c-1.4-1-0.9-2.3-0.8-3.8c0.9,0.5,0.3,1.8,1.3,2.2C204,241.7,204,242.4,203.3,242.6z"/>
	<path fill="#3E3F41" d="M87.7,202.1c0.9,0.1,2.2-0.1,1.8,1.3c-0.4,1.2-1.3,0.1-2.1,0C87.1,202.9,87.1,202.5,87.7,202.1z"/>
	<path fill="#595A5C" d="M252,248.8c0-1.7,0-3.2,0-4.9c0.4-0.4,0.9-0.4,1.3-0.1c0.1,0.1,0.1,0.3,0.3,0.3
		C251.7,245.2,253.5,247.6,252,248.8z"/>
	<path fill="#535455" d="M291.1,304.4c0-0.3,0-0.5-0.1-0.8c1.4-1.4,3.2-0.5,4.9-0.8C294.6,304.2,292.3,302.7,291.1,304.4z"/>
	<path fill="#545556" d="M432.1,303.6c1.4-1.4,3.2-0.5,4.8-0.8c-1.2,1.6-3.5-0.3-4.7,1.6c-0.1-0.1-0.1-0.1-0.3-0.3
		c-0.1-0.1-0.1-0.3-0.1-0.4C432,303.6,432.1,303.6,432.1,303.6z"/>
	<path fill="#CDCDCE" d="M89.7,198.6c-0.5,0.9,0.6,2.7-1.6,2.7C88.3,200.2,87.7,198.6,89.7,198.6z"/>
	<path fill="#3E3F40" d="M142.9,219.8c2.2,0.5,0.8,2.2,1.2,3.4c-1-0.6-0.1-2.2-1.3-2.7C142.8,220.3,142.9,220,142.9,219.8z"/>
	<path fill="#3F4041" d="M402.3,288.5c0.4-0.5,0.8-1,1.3-1.6c0.1,1.3,0.6,2.7-1.2,3C402,289.6,402,289.1,402.3,288.5z"/>
	<path fill="#535455" d="M342.7,290.8c-1,0-1.9-0.9-3.4-0.3c0.5-1.4,1.4-1,2.2-1.2C341.9,289.7,342.3,290.2,342.7,290.8z"/>
	<path fill="#3D3E3E" d="M547.1,210.6c0-0.3,0-0.5,0-0.8c1.6,0,3,0.6,4.3,1.4c-0.1,0.1-0.1,0.3-0.3,0.4c-1.3,0.4-2.6,0.1-3.8-0.6
		C547.3,210.8,547.2,210.7,547.1,210.6z"/>
	<path fill="#555657" d="M127.2,302.8c0,1.2,0,2.3,0,3.4c-0.9-1-0.5-2.9-2.3-3.2c0.1-0.1,0.1-0.1,0.3-0.3
		C125.8,302.2,126.5,302.2,127.2,302.8z"/>
	<path fill="#404142" d="M346.5,250.3c0.6,0,1.4,0,1.2,0c0.1,0-0.1,3.5-1.3,0.5C346.2,250.7,346.2,250.4,346.5,250.3z"/>
	<path fill="#3F4041" d="M266.2,299.8c0.1-0.8-0.4-1.6,0.4-2.2c0.1-0.1,0.6,0.3,0.8,0.4c1,1-0.4,1.2-0.5,1.8
		C266.7,300,266.4,299.8,266.2,299.8z"/>
	<path fill="#555657" d="M272.5,253.1c-1.2,0-2.2,0-3.4,0c0.9-0.8,2.5-0.4,3.2-1.6c0.1,0.1,0.1,0.1,0.3,0.3
		C273.1,252.4,272.9,252.7,272.5,253.1z"/>
	<path fill="#3D3E3F" d="M535.8,250.3c0.5,0.1,1.3-0.3,1.4,0.4c0.1,0.3-0.4,0.9-0.8,1c-0.9,0.4-0.8-0.5-0.9-0.9
		C535.5,250.7,535.6,250.4,535.8,250.3z"/>
	<path fill="#3E3F40" d="M257,234.1c-1.9-0.3-1.4-1.7-1.3-3c0.9,0.5,0.3,1.8,1.3,2.2C257,233.5,257,233.8,257,234.1z"/>
	<path fill="#3E3F41" d="M141.4,224.7c0.6,0.1,1.6,0.3,1.3,1.2c-0.3,1.2-1,0.3-1.6,0.3C141.1,225.6,141.2,225.2,141.4,224.7z"/>
	<path fill="#3E3F40" d="M156.2,226.1c-1.9-0.4-1.3-1.7-1.2-3c0.9,0.5,0.3,1.8,1.3,2.2C156.3,225.8,156.3,226,156.2,226.1z"/>
	<path fill="#464748" d="M361.9,302c-0.6-0.1-1.6-0.3-1-1.2c0.4-0.8,1-1.2,1.8-0.3C362.4,301.1,362.2,301.7,361.9,302z"/>
	<path fill="#464748" d="M550.6,302c-0.6-0.1-1.6-0.3-1-1.2c0.4-0.8,1-1.2,1.8-0.3C551.1,301.1,550.8,301.7,550.6,302z"/>
	<path fill="#626363" d="M147.7,202.3c0,1.4-0.1,2.9-0.1,4.4C147.3,205.1,146.7,203.7,147.7,202.3z"/>
	<path fill="#58595A" d="M205.2,237.6c0.3-1.4-0.8-3.1,0.9-4.3C205.1,234.6,206.5,236.4,205.2,237.6z"/>
	<path fill="#3B3C3D" d="M160.6,195.7c-0.3,0.8,0.5,1.7-0.4,2.2c-0.1,0-0.5-0.4-0.8-0.6c-0.9-0.9,0.5-1,0.5-1.7
		C160.1,195.7,160.3,195.7,160.6,195.7z"/>
	<path fill="#555657" d="M133.6,310c0,0.3-0.1,0.6-0.1,0.9c-0.8-1.3-2.5-0.5-3.2-1.7C131.3,309.3,132.7,308.7,133.6,310z"/>
	<path fill="#3E3F41" d="M303.5,294.9c-0.6-0.1-1.4-0.4-1.2-1.3c0.3-0.8,0.9-0.3,1.3-0.1C303.9,294.1,304.1,294.5,303.5,294.9z"/>
	<path fill="#3E3F40" d="M250.6,251.7c-0.8-0.1-1.4-0.3-1.3-1.2c0.1-0.9,0.9-0.3,1.3-0.3C250.6,250.8,250.6,251.3,250.6,251.7z"/>
	<path fill="#535455" d="M166.2,278.7c0,1.2,0.6,2.7-1.4,2.9C165.9,280.9,165.1,279.3,166.2,278.7z"/>
	<path fill="#404142" d="M96.6,212c-0.8-0.1-1.4-0.4-1.2-1.2c0.3-0.9,0.9-0.3,1.3-0.1C96.6,211.1,96.6,211.5,96.6,212z"/>
	<path fill="#3E3F40" d="M303.8,280.1c-0.5,0-1.2,0.6-1.3-0.1c-0.3-0.9,0.5-1.2,1.2-1.2C304.1,279.1,303.9,279.6,303.8,280.1z"/>
	<path fill="#BB9723" d="M79.5,257c6.5,0,13.1,0,19.6,0c0,0.3,0,0.4,0,0.6c-6.5,0-13.1,0-19.6,0C79.5,257.4,79.5,257.3,79.5,257z"/>
	<path fill="#B69221" d="M62.4,249.5c-11.9,0-23.7,0-35.7,0c0-0.1,0-0.3,0-0.4c11.9,0,23.9,0,35.8,0
		C62.5,249.2,62.5,249.4,62.4,249.5z"/>
	<path fill="#B59020" d="M52,259.4c-11.9,0-23.9,0-35.9,0c0-0.1,0-0.3,0-0.3c11.9,0,23.9,0,35.8,0C51.9,259.2,51.9,259.2,52,259.4z"
		/>
	<path fill="#BC9823" d="M54.2,257.9c2.9-1.6,5.7-1.3,8.6-0.9c0,0.3,0,0.6,0,0.9C59.9,257.9,57.1,257.9,54.2,257.9z"/>
	<path fill="#BB9723" d="M70.4,287.3c-2.9-2.1-0.6-4.8-1-7.1C71.2,282.2,70,284.8,70.4,287.3C70.4,287.1,70.4,287.3,70.4,287.3z"/>
	<path fill="#BB9722" d="M63.3,247.8c2.5-1.3,4.2-1.3,6.6,0C67.4,248.3,65.7,248.3,63.3,247.8z"/>
	<path fill="#B79321" d="M104.5,248.2c-0.3,1.4,0.3,3-0.8,4.4C103.2,251.1,101.9,249.5,104.5,248.2
		C104.4,248.2,104.5,248.2,104.5,248.2z"/>
	<path fill="#B28E1F" d="M10.9,255.2c-0.9-1.6-1-5.3,0-6.9C10.9,250.5,10.9,252.9,10.9,255.2z"/>
	<path fill="#B99522" d="M73.9,238.6c-0.8-1.9-0.9-3,0-4.5C75,235.5,74.8,236.7,73.9,238.6z"/>
	<path fill="#B99522" d="M59.1,273.6c2.3,0.8,1.3,2.3,0.3,3.8C59.3,276.2,59.1,274.9,59.1,273.6C59,273.6,59.1,273.6,59.1,273.6z"/>
	<path fill="#B99522" d="M85.5,237.8c-1-1.8-1.2-3,0.1-4.2C86.2,235,86.1,236,85.5,237.8z"/>
	<path fill="#B59120" d="M55.5,283.6c2.9,1.2,0.6,3.4,1,5.1C56.3,287,55.9,285.3,55.5,283.6L55.5,283.6z"/>
	<path fill="#B79321" d="M71.2,275.2c0.9,1.3,0.9,2.2,0,3.5C70.3,277.4,70.3,276.5,71.2,275.2z"/>
	<path fill="#B89422" d="M61.2,269.5c0.9,1.3,0.9,2.2,0,3.4C60.4,271.8,60.4,270.9,61.2,269.5z"/>
	<path fill="#B79321" d="M103,256.8c-0.6-0.3-1.8,0.3-1.8-1c0-0.4,0.5-1.2,0.6-1.2C103,254.8,102.8,255.9,103,256.8
		C103.1,256.6,103,256.8,103,256.8z"/>
	<path fill="#B69120" d="M62,264.4c2.2,0.6,1.3,2.2,1,3.6C62.6,266.9,62.2,265.7,62,264.4C61.9,264.4,62,264.4,62,264.4z"/>
	<path fill="#B49020" d="M76.3,264.4c-1-1-0.8-1.9-0.5-3C76.3,262.3,76.8,263.1,76.3,264.4z"/>
	<path fill="#AE8A1E" d="M89.7,226.7c0.1,0.8-0.1,0.9-0.5,0.9c-0.5,0-0.9-0.3-0.9-0.8c0-0.5,0.1-1,0.8-0.9
		C89.4,225.9,89.6,226.4,89.7,226.7z"/>
	<path fill="#B28D1F" d="M57.8,282.2c0-0.9,0-1.8,0-3.2C58.6,280.2,58.3,281.2,57.8,282.2z"/>
	<path fill="#B28F1F" d="M74.4,265.3c0.4,1.7,0.5,2.6,0,3.5C73.8,267.8,73.9,266.9,74.4,265.3z"/>
	<path fill="#B08C1E" d="M72.2,242.1c-0.5-1-0.5-1.9,0.1-2.9C73.1,240.2,72.5,241.1,72.2,242.1z"/>
	<path fill="#B38E1F" d="M77.4,230.4c-0.6-1.6-0.5-2.5-0.3-3.5C77.9,227.8,77.4,228.7,77.4,230.4z"/>
	<path fill="#B18E1F" d="M73,274.1c-0.8-1.3-0.4-2.3,0-3.2C73,271.8,73,272.7,73,274.1z"/>
	<path fill="#B08C1E" d="M87,229.6c0.6,0.8,0.4,1.4,0.3,2.2C86.4,231.2,86.8,230.4,87,229.6z"/>
	<path fill="#FCFCFC" d="M552.6,274.4c-0.5-0.3-0.9-0.4-1.4-0.6c-2.5-1.7-5.3-2.6-7.8-4.2c-2.3-1.2-4.7-2.5-7.1-3.6
		c-0.5-0.6-1.9-0.6-1.3-2.1c2.2,0,3.1-2.2,4.9-2.7c0.1-0.1,0.3-0.3,0.3-0.4c2.5-0.9,4.8-2.6,7.4-0.3c1.2,0.9,2.5,1.7,4,2.1
		c2.5,0.5,1.7,2.7,2.3,4.3c0.1,2.6,2.1,4.8,1.4,7.4C554.6,275.3,553.7,274.9,552.6,274.4z"/>
	<path fill="#525354" d="M540.1,261c-0.5-0.1-1.4-0.3-1.3-0.9c0.3-1.6,4.7-2.3,6.1-1.3C543.8,260.7,541.5,260,540.1,261L540.1,261z"
		/>
	<path fill="#535455" d="M543.6,269.5c2.9,0.9,5.6,2.1,7.8,4.2C548.5,272.7,545.6,271.8,543.6,269.5z"/>
	<path fill="#5D5D5E" d="M540.1,261c1.3-1.7,3.4-1.2,4.9-2.3c1.3,0,2.5,0.1,2.7,1.7C545,258.6,542.7,261.2,540.1,261z"/>
	<path fill="#5D5D5E" d="M554.1,266.8c-1-1.3-0.6-3.4-2.3-4.3C555,262.5,553.9,264.9,554.1,266.8z"/>
	<path fill="#535455" d="M552.6,274.4c0.9,0,1.8,0.4,2.7-0.1C554.7,277.3,553.7,274.9,552.6,274.4z"/>
	<path fill="#535455" d="M535.1,263.8c0.4,0.6,0.9,1.4,1.3,2.1C534.5,265.5,534.2,265.1,535.1,263.8z"/>
	<path fill="#3D3E40" d="M530.1,253.1c0.6,0.1,1.4,0.1,1,1.2c-0.1,0.3-0.5,0.3-0.8,0.4C530.2,254.2,530.1,253.7,530.1,253.1
		L530.1,253.1z"/>
	<path fill="#FDFDFD" d="M354.8,269.5c-2.6-1.3-4.9-2.9-7.8-3.6c-0.5-0.6-1.9-0.6-1.3-2.1c2.3,0.1,3.6-1.9,5.6-2.7
		c0.1-0.1,0.3-0.3,0.3-0.4c2.5-0.9,4.8-2.6,7.4-0.3c1.2,0.9,2.5,1.7,4,2.1c2.5,0.5,1.7,2.7,2.3,4.3c0.1,2.6,2.1,4.8,1.4,7.4
		c-0.9,1-1.8,0.8-2.7,0.1c-0.5-0.3-0.9-0.4-1.4-0.6C360.2,272.1,357.4,271,354.8,269.5z"/>
	<path fill="#525354" d="M351.4,261c-0.5-0.1-1.4-0.3-1.3-0.9c0.3-1.6,4.7-2.3,6.1-1.3C355.2,260.7,352.8,260,351.4,261L351.4,261z"
		/>
	<path fill="#545556" d="M354.8,269.5c2.9,0.9,5.6,2.1,7.8,4.2C359.9,272.7,357,271.8,354.8,269.5z"/>
	<path fill="#5D5D5E" d="M351.4,261c1.3-1.7,3.4-1.2,4.9-2.3c1.3,0,2.5,0.1,2.7,1.7C356.4,258.6,353.9,261.2,351.4,261z"/>
	<path fill="#5D5D5E" d="M365.4,266.8c-1-1.3-0.6-3.4-2.3-4.3C366.3,262.5,365.3,264.9,365.4,266.8z"/>
	<path fill="#545556" d="M364,274.4c0.9,0,1.8,0.4,2.7-0.1C366.1,277.3,365,274.9,364,274.4z"/>
	<path fill="#3D3E40" d="M341.3,253.1c0.6,0.1,1.4,0.1,1,1.2c-0.1,0.3-0.5,0.3-0.8,0.4C341.6,254.2,341.4,253.7,341.3,253.1
		L341.3,253.1z"/>
	<path fill="#545556" d="M345.8,263.8c0.4,0.6,0.9,1.4,1.3,2.1C345.1,265.5,344.9,265.1,345.8,263.8z"/>
	<path fill="#434446" d="M305.4,291.7c-2.6-0.8-1.4-2.9-1.6-4.4c-0.1-1.4-0.4-3,0.8-5.1C305.8,285.6,304.7,288.7,305.4,291.7z"/>
	<path fill="#4B4C4D" d="M274.7,264.7c-0.3,0.8,0.4,2.2-0.9,2.2s-1.3-1.4-1.2-2.5c0-1-0.1-2.5,1.3-2.3
		C275.3,262.2,274.5,263.8,274.7,264.7z"/>
	<path fill="#525354" d="M289.5,270.9c-1.7,2.9-3.9,0.6-5.8,0.8C285.5,270.6,287.6,271,289.5,270.9L289.5,270.9z"/>
	<path fill="#404142" d="M279.8,295.2c3.2,0,6.5,0,9.7,0c0,0.1,0,0.3,0,0.4c-3.2,0-6.4,0-9.6,0C279.8,295.4,279.8,295.3,279.8,295.2
		z"/>
	<path fill="#404142" d="M279.9,259c2.5,0,5.1,0,7.5,0c0,0.1,0,0.3,0,0.4c-2.6,0-5.1,0-7.7,0C279.8,259.2,279.8,259.1,279.9,259z"/>
	<path fill="#434445" d="M271.6,302.2c1.2-0.9,2.3-1,3.8-0.1C273.8,303.1,272.7,302.7,271.6,302.2z"/>
	<path fill="#434546" d="M287.6,283.6c0-0.4-0.1-0.9-0.1-1.3c1.3,0.3,2.7-0.5,3.8,0.9C290.1,284,288.8,283.5,287.6,283.6z"/>
	<path fill="#424345" d="M293.9,272.2c-0.5,2.1-1.8,1.6-3.5,1.2C291.5,271.8,292.9,272.6,293.9,272.2L293.9,272.2z"/>
	<path fill="#3E3F40" d="M283.2,269.5c-1.6,1.3-3.2,0.5-4.9,0C279.9,269.5,281.6,269.5,283.2,269.5L283.2,269.5z"/>
	<path fill="#434445" d="M272.5,253.1c0-0.4,0.1-0.9,0.1-1.3c0.8,0.1,2.2-0.5,2.2,0.6S273.4,253,272.5,253.1z"/>
	<path fill="#3D3E3F" d="M271.4,278.4c1.3-0.8,2.3-0.4,3.2,0C273.7,278.4,272.8,278.4,271.4,278.4z"/>
	<path fill="#343536" d="M274.1,290.1c0.3,0.4,0.5,0.6,0.5,0.9c0,0.5-0.3,0.9-0.8,0.8c-0.1,0-0.4-0.5-0.4-0.8
		S273.7,290.5,274.1,290.1z"/>
	<path fill="#454647" d="M402,270c0,4.9,0,9.7,0,14.7c-0.3,0-0.4,0-0.6,0c0-4.9,0-9.7,0-14.7C401.6,270,401.8,270,402,270z"/>
	<path fill="#3E3F40" d="M432.1,303.6c0,0.1,0,0.4-0.1,0.5c-3.8,0-7.4,0-11.2,0c0-0.1,0-0.4,0-0.5
		C424.6,303.6,428.4,303.6,432.1,303.6z"/>
	<path fill="#3E3F40" d="M432,250.4c0,0.1,0.1,0.4,0.1,0.5c-3.8,0-7.4,0-11.2,0c0-0.1,0-0.4,0-0.5
		C424.6,250.4,428.4,250.4,432,250.4z"/>
	<path fill="#414243" d="M421.6,295.2c3,0,6,0,9.1,0c0,0.1,0,0.3,0,0.4c-3,0-6,0-9.1,0C421.6,295.4,421.6,295.3,421.6,295.2z"/>
	<path fill="#414243" d="M421.7,259c2.9,0,5.8,0,8.7,0c0,0.1,0,0.3,0,0.4c-3,0-6,0-9,0C421.6,259.1,421.7,259,421.7,259z"/>
	<path fill="#535455" d="M415.1,302.8c0.9-2.9,3-0.8,4.5-1.2C418.4,303.5,416.5,302.4,415.1,302.8L415.1,302.8z"/>
	<path fill="#525354" d="M415.1,251.7c1.6,0,3.1,0,4.5,0c0,0.4-0.1,0.8-0.1,1.3C418,252.9,416.3,254.3,415.1,251.7L415.1,251.7z"/>
	<path fill="#424344" d="M412.3,285c0.4,0,0.9,0.1,1.3,0.1c0,0.6,0,1.3,0,2.1C412.5,286.9,412.4,286,412.3,285z"/>
	<path fill="#3D3E3F" d="M409.9,297.1c-1.3,0.4-1.6,0.6-1.8,0.6c-0.5,0-0.8-0.5-0.6-1c0-0.4,0.3-0.6,0.6-0.4
		C408.5,296.5,409,296.7,409.9,297.1z"/>
	<path fill="#424344" d="M413.6,269.3c-0.4,0-0.9,0.1-1.3,0.1c0-0.8,0.3-1.6,1-2.2C414,267.9,413.7,268.6,413.6,269.3z"/>
	<path fill="#3D3E3F" d="M408,259c-0.4-0.9-0.5-1.2-0.5-1.4c0-0.5,0.4-0.8,0.9-0.8c0.4,0,0.6,0.3,0.5,0.6
		C408.8,257.8,408.5,258.2,408,259z"/>
	<path fill="#3F4041" d="M412.3,301.4c0.1-0.6,0.3-1.4,1.2-1.3c0.1,0,0.4,0.3,0.4,0.4C413.7,301.3,412.9,301.3,412.3,301.4
		L412.3,301.4z"/>
	<path fill="#535455" d="M595.2,237.4c3,0,6,0.1,8.8,0.1c2.1,0,2.7,0.8,2.6,2.7c-0.1,2.6,0,5.2,0,7.8c0,0.8,0.4,1.9-0.9,1.9
		c-1,0-1-1-0.8-1.9c0.3-1.3,0.3-2.6,0.3-3.9c0-4.9-2.5-6.6-7.1-5.2c-0.8,0.3-1.3,0.6-1.3,1.4c0.3,2.6-0.9,5.4,0.8,7.9
		c0.4,0.6,0.6,1.3,0.3,1.9c-0.3,0.5-0.8,0.5-1.2,0.3c-0.8-0.4-1.4-0.9-1.4-1.8c0-3,0-6,0-8.8C595.3,239,595.2,238.2,595.2,237.4
		L595.2,237.4z"/>
	<path fill="#454647" d="M605.7,292.2c0-10.4,0-20.9,0-31.3c0.3,0,0.5,0,0.6,0c0,10.4,0,20.9,0,31.3
		C606.1,292.2,605.8,292.2,605.7,292.2z"/>
	<path fill="#3E3F40" d="M608.8,250.7c1.9,0,4.8-1.4,5.8,0.5c1.2,2.1,1.2,5.3,0,7.5c-1,2.1-3.9,0.6-6.1,0.5c3-0.3,6.1,0.3,5.8-4.7
		C614.4,249.9,611.2,251.4,608.8,250.7z"/>
	<path fill="#3E3F40" d="M603.1,304.2c0.3-0.3,0.5-0.6,0.8-0.6c3.6,0,7.3,0,10.9,0.6C610.9,304.2,607,304.2,603.1,304.2L603.1,304.2
		z"/>
	<path fill="#404142" d="M600.1,302.9c0.1-0.8,0.4-1.6,1.4-1.3c0.1,0,0.4,0.3,0.4,0.4C601.8,303.1,600.8,302.6,600.1,302.9
		L600.1,302.9z"/>
	<path fill="#444546" d="M186.9,283.6c0-2.6,0-5.1,0-7.7C188.7,277.9,188.7,281.7,186.9,283.6z"/>
	<path fill="#444546" d="M199.6,278.6c0,2.5,0,4.8,0,7.8C197.4,283.4,197.7,280.4,199.6,278.6L199.6,278.6z"/>
	<path fill="#414243" d="M210.9,295.6c-2.1,0-3.2,0.4-4.4-0.3C207.8,294.9,209,294.8,210.9,295.6z"/>
	<path fill="#3D3E3F" d="M201.7,286.5c0,1.2,0,2.3,0,3.5C200.9,288.7,200.5,287.5,201.7,286.5L201.7,286.5z"/>
	<path fill="#3D3E40" d="M190.2,295.2c0.1-1.3,0.1-2.5,0.3-3.8C191.1,292.7,191.5,294,190.2,295.2L190.2,295.2z"/>
	<path fill="#3E3F40" d="M231.3,285c-0.1-0.5-0.4-0.8-0.3-1c0.1-0.3,0.4-0.4,0.6-0.6c0.1,0.3,0.3,0.5,0.3,0.8
		C231.9,284.5,231.7,284.7,231.3,285z"/>
	<path fill="#515252" d="M259.7,223.3c-0.4,0-0.9,0.1-1.3,0.1c0-1.9,0-4,0-6c0.4,0,0.8,0,1,0C260.1,219.3,259.7,221.3,259.7,223.3z"
		/>
	<path fill="#444546" d="M253.3,243.8c-0.4,0-0.9,0.1-1.3,0.1c0.3-1.3-0.5-2.7,0.9-3.8C253.7,241.3,253.3,242.6,253.3,243.8z"/>
	<path fill="#3F4041" d="M261.3,217.1c-1.7-2.2-0.4-4.7,0-7.1C261.3,212.4,261.3,214.7,261.3,217.1L261.3,217.1z"/>
	<path fill="#3D3E3F" d="M245.8,222.9c0.1-0.1,0.3-0.1,0.4-0.1c0.8,1.7-0.1,3.2-0.4,4.8C245.8,226,245.8,224.5,245.8,222.9z"/>
	<path fill="#3E3F40" d="M251.9,189.3c1.4,1.6,0.5,3.2,0.3,4.9C252,192.5,252,190.9,251.9,189.3L251.9,189.3z"/>
	<path fill="#3B3C3E" d="M239.3,248.8c0.3-1.2-0.5-2.5,0.6-3.5C239.8,246.5,240.5,247.8,239.3,248.8z"/>
	<path fill="#3D3E40" d="M254.1,238.2c0-0.6,0-1.8,0.1-1.8c0.9-0.1,0.4,0.6,0.5,1c0,0.3-0.1,0.6-0.1,0.9
		C254.5,238.2,254.2,238.2,254.1,238.2z"/>
	<path fill="#4D4E4F" d="M127.2,302.8c-0.6,0-1.4,0-2.1,0c0.3-1.3-0.8-3.8,0.9-3.8C128.1,298.9,126.8,301.4,127.2,302.8z"/>
	<path fill="#404141" d="M124.3,287.4c0,3.2,0,6.4,0,9.6c-0.1,0-0.3,0-0.4,0c0-3.2,0-6.4,0-9.6C124,287.4,124.1,287.4,124.3,287.4z"
		/>
	<path fill="#434445" d="M135.8,294.8c0-3,0-6,0-9c0.1,0,0.3,0,0.4,0c0,3,0,6,0,9.1C136.1,294.9,135.9,294.8,135.8,294.8z"/>
	<path fill="#3C3D3E" d="M146.3,297.8c0.6,0.1,1.4-0.1,1.8,0.6c0,0.1-0.4,0.6-0.5,0.6C146.6,299.2,146.4,298.4,146.3,297.8
		L146.3,297.8z"/>
	<path fill="#404142" d="M146.4,309.3c-0.6-0.3-1.7,0.3-1.9-0.9c0-0.1,0.3-0.4,0.4-0.4C146,307.7,146.3,308.5,146.4,309.3l-0.1-0.1
		L146.4,309.3z"/>
	<path fill="#BB9623" d="M138.5,280.9c-3-2.2-0.8-4.9-1.3-7.3c0.5,0,0.9-0.1,1.4-0.1C138.5,275.8,138.5,278.3,138.5,280.9
		C138.5,280.8,138.5,280.9,138.5,280.9z"/>
	<path fill="#B48F20" d="M125,272.5c0.4-0.1,0.9-0.1,1.3-0.3c0.8,2.3-0.1,4.5-0.6,6.7C124.8,276.9,125.3,274.5,125,272.5z"/>
	<path fill="#B99522" d="M127.1,271.6c0.4-1.9-0.6-3.9,0.6-5.7C128.8,267.9,129.7,270,127.1,271.6z"/>
	<path fill="#B99522" d="M139.2,271.8c-0.8-1.6-1-3.1,0.3-5.3C140.1,268.8,140.1,270.3,139.2,271.8z"/>
	<path fill="#B99522" d="M144.9,255.3c-2.2-0.9-1.3-2.3-0.9-4.5C145.3,252.6,144.6,254,144.9,255.3
		C145,255.2,144.9,255.3,144.9,255.3z"/>
	<path fill="#B89421" d="M134.1,245.2c1,1.7,1,2.7-0.1,4C133.5,247.9,133.5,246.9,134.1,245.2z"/>
	<path fill="#B29023" d="M149.8,235.5c0.5,0,0.9,0,1.4,0.1c-0.1,1,0.3,2.1-0.5,3.1C149.4,237.8,150.1,236.5,149.8,235.5z"/>
	<path fill="#B69221" d="M128.7,259.5c2.9,1.2,0.6,3.4,1,5.1C129.3,262.9,128.9,261.2,128.7,259.5
		C128.5,259.5,128.7,259.5,128.7,259.5z"/>
	<path fill="#B59020" d="M141.1,265.8c-0.6-1.9-0.5-3.4,0-4.8C141.1,262.5,141.1,263.8,141.1,265.8z"/>
	<path fill="#B08C1F" d="M132.4,253.4c-0.4-1-0.5-1.9,0.4-3C133.2,251.6,132.8,252.4,132.4,253.4z"/>
	<path fill="#B38F20" d="M136.4,237.4c1.9,0.4,1.3,1.7,1.3,3.8C137.1,239.5,136.7,238.5,136.4,237.4
		C136.3,237.6,136.4,237.4,136.4,237.4z"/>
	<path fill="#B38F20" d="M142.9,259.5c-1.3-0.8-0.9-1.8-0.8-2.7C143.2,257.4,142.8,258.3,142.9,259.5z"/>
	<path fill="#B48F20" d="M147.1,246c0-0.6,0-1.8,0.1-1.8c0.9-0.1,0.4,0.6,0.5,1c0,0.3-0.1,0.6-0.1,0.9
		C147.3,246,147.2,246,147.1,246z"/>
	<path fill="#434445" d="M488.2,251.7c0.8,0.1,1.6,0.1,3.1,0.3C489.5,253.3,488.6,253.7,488.2,251.7L488.2,251.7z"/>
	<path fill="#BB9623" d="M198.1,270.8c-0.5,0-0.9,0-1.4,0c0-4.3,0-8.7,0-13c0.5,0,0.9,0,1.4,0C198.1,262.2,198.1,266.5,198.1,270.8z
		"/>
	<path fill="#BA9522" d="M199.1,248.6c0.5,3.1,0.5,5.3-0.3,7.5C197.9,254,197.7,251.8,199.1,248.6z"/>
	<path fill="#444546" d="M159.2,218.5c-2.3-0.8-1.6-2.2-0.4-3.8C159,216,159,217.2,159.2,218.5L159.2,218.5z"/>
	<path fill="#414243" d="M157.9,221.3c-0.8-0.1-1.6-0.4-1.4-1.4c0-0.1,0.3-0.4,0.4-0.4C158,219.7,157.5,220.7,157.9,221.3
		L157.9,221.3z"/>
	<path fill="#3D3E3F" d="M145,215c0.1-0.1,0.4-0.1,0.6-0.1c0,1.2,0,2.2,0,3.4c-0.3,0-0.4,0-0.6,0C145,217.2,145,216.2,145,215z"/>
	<path fill="#3D3D3F" d="M151.4,233.9c0-0.3,0-0.4,0-0.6c0.9-0.4,0.5-1.6,1.3-2.5C152.5,232.2,153.3,233.7,151.4,233.9z"/>
	<path fill="#434445" d="M99.6,205.8c-1.6-0.4-1.8-1.2-0.8-2.6C99.9,204,99.3,205,99.6,205.8L99.6,205.8z"/>
	<path fill="#3D3E3F" d="M94.7,217.1c-1.3-1-0.8-2.3-0.3-3.6C94.5,214.6,94.5,215.9,94.7,217.1L94.7,217.1z"/>
	<path fill="#3D3E3E" d="M100.9,202.8c-1-1-0.8-2.2,0-3.5C100.9,200.5,100.9,201.6,100.9,202.8L100.9,202.8z"/>
	<path fill="#404142" d="M86.6,207.5c-0.1-0.4-0.4-0.6-0.4-0.9c0-0.3,0.4-0.4,0.5-0.6c0.1,0.3,0.5,0.4,0.5,0.6
		C87.1,206.8,86.9,207.1,86.6,207.5z"/>
	<path fill="#414243" d="M203.8,219.9c-1.3,2.9-3.8,0.3-5.4,1.4C199.6,218.9,202,220.3,203.8,219.9L203.8,219.9z"/>
	<path fill="#444546" d="M206.1,228.4c0.5,1.7,0.6,2.7-0.1,4C204.8,231.2,205.1,230,206.1,228.4z"/>
	<path fill="#38393A" d="M206.6,221.2c-0.3,0.5,0.4,1.6-0.6,1.7c-0.3,0-1-0.5-0.9-0.6C205.2,221.3,206,221.5,206.6,221.2
		L206.6,221.2z"/>
	<path fill="#3B3C3D" d="M191.6,233.9c1.2,1,0.8,2.3,0.3,3.5C191.8,236.3,191.7,235.1,191.6,233.9L191.6,233.9z"/>
	<path fill="#404143" d="M193.5,233c-0.1-0.5-0.3-0.9-0.1-1.2c0.1-0.3,0.5-0.3,0.8-0.4c0.1,0.3,0.3,0.5,0.3,0.6
		C194.2,232.4,193.9,232.6,193.5,233z"/>
	<path fill="#3C3D3E" d="M52.6,194.2c0.5,0.3,1.4-0.3,1.7,0.6c0,0.1-0.3,0.4-0.4,0.5C52.8,195.7,52.8,194.8,52.6,194.2L52.6,194.2z"
		/>
	<path fill="#303031" d="M457,229.8c-0.6,0-1.4,0-2.1,0c-1.6,0.6-3.4,0.1-4.9,0.4c-9-0.1-17.9,0.5-26.9-0.4
		c-4.9-0.5-9.7-2.5-14.1-4.8c8.7,0.1,17.5-0.6,26.2,0.8c1.8,0.5,3.6,0.1,5.4,0.3c3,0.3,5.8-0.4,8.8,0.4c1.7,0,3.2,0,4.9,0
		c0.9,1.3,2.2,1,3.5,1c2.9,0,5.6-0.1,8.4,0c1.3,0,2.9-0.1,3.8,1.7C465.5,230,461.2,228.7,457,229.8z"/>
	<path fill="#3C3D3D" d="M457,229.8c2.5-1.6,5.3-0.4,7.9-0.6c1.3-0.1,2.7,0.3,4.9-0.8c-5.2,0-9.5-0.1-13.9,0c-1.8,0-2.3-0.4-1.9-2.2
		c12.6,0,25,0,37.6,0.1c2.1,0.8,4.3-0.3,6.4,0.6c1.2,0,2.3,0,3.5,0c0.5,0.3,1,0.5,0.8,1.3c-0.9,1-2.1,1-3.2,1.2
		c-7,0.3-14-0.4-21,0.4C471.2,229.8,464,229.8,457,229.8z"/>
	<path fill="#2F2F2F" d="M383.2,218.4c4.5,0.3,9.2-1.8,13.8,1.8c-0.5,0.4-1.4,1-2.3,1.7c-1.4,0.1-1.4,1.2-1.4,2.2
		c-6.5,0.1-13,1.3-19.3,2.6c-0.6,0.1-1.4,0.3-2.1,0.1c-0.5-0.1-0.9-0.3-1.2-0.6c-0.4-0.6,0.1-1.2,0.6-1.4
		C375.4,223.2,378.4,218.9,383.2,218.4z"/>
	<path fill="#3B3C3C" d="M383.2,218.4c-4,2.3-7.7,5.4-12.2,7.1c1.6,1.2,2.7,0.1,3.9,0c4.4-0.8,8.8-1.3,13.1-2.3
		c1.9-0.4,3.5-0.3,5.2,0.8c-2.9,2.2-6.1,1.2-9.2,1.4c-1.8,0.9-3.9-0.3-5.7,0.6l0,0c-1,0.8-2.5-0.1-3.5,0.6c-1.3,0.9-2.9,0.8-4.3,0.6
		c-1,0.8-2.5-0.1-3.5,0.6l0,0c-2.5-0.3-4.8,0.3-7.3,0.4c3.2-1.7,7.1-1.7,10.1-3.9c1.2-2.2,3.6-2.6,5.4-4c1.3-0.5,2.1-1.7,3.4-2.2
		C380.1,218,381.6,217.1,383.2,218.4L383.2,218.4z"/>
	<path fill="#3F3F40" d="M408.8,224.8c3.2,0.9,6.5,1.6,9.7,2.7c10.2,3.9,20.9,1.4,31.4,2.1c0.3,0.1,0.3,0.3,0.3,0.4
		c-0.1,0.1-0.1,0.3-0.3,0.3c-7.4,0-14.7,0-22.1,0.1c-3.1,0-6.1,0-9.2,0c-6.7-4.2-14.1-5.6-21.9-5.6
		C400.8,224.8,404.7,224.8,408.8,224.8z"/>
	<path fill="#2E2F2F" d="M500.2,229c0.6-0.5,1.4-0.9,2.1-1.4c1.4-0.5,2.9-0.5,4.3,0c0.6,0,1.4,0,2.1,0c-0.6,0.5-1.4,0.9-2.1,1.4
		c0.3,0.1,0.4,0.3,0.3,0.5c-0.1,0.1-0.1,0.3-0.3,0.3c-0.3,0-0.4,0-0.6,0c-1.3-0.6-2.7-0.1-4.2-0.4
		C501.3,229.4,500.6,229.4,500.2,229z"/>
	<path fill="#414242" d="M449.1,226.1c-3.1,0-6.1,0-9.2,0c-0.3-0.1-0.3-0.3-0.3-0.5c0.1-0.1,0.1-0.3,0.3-0.3
		C443,225.9,446.3,224.7,449.1,226.1z"/>
	<path fill="#414242" d="M498.2,226.9c-2.1-0.3-4.4,0.6-6.4-0.6C493.9,226.4,496.1,225.6,498.2,226.9z"/>
	<path fill="#424242" d="M378.3,226.1c1.7-1.4,3.8-0.4,5.7-0.6C382.2,226.9,380.1,225.9,378.3,226.1z"/>
	<path fill="#414242" d="M506.6,227.6c-1.4,0-2.9,0-4.3,0c-0.3-0.3-0.5-0.5-0.8-0.6C503.3,227.2,505.2,226.3,506.6,227.6z"/>
	<path fill="#3C3D3D" d="M439.9,225.5c0,0.3,0,0.5,0,0.6c-1.7-0.3-3.4,0.5-4.9-0.6C436.7,225.6,438.3,225.5,439.9,225.5z"/>
	<path fill="#2E2F2F" d="M527.1,227.8c0.1,0.1,0.1,0.4,0.1,0.5c-1.4-0.1-3,0.5-4.3-0.5C524.4,227.7,525.7,227.7,527.1,227.8z"/>
	<path fill="#424242" d="M366.9,228.4c1-1.2,2.3-0.5,3.5-0.6C369.5,228.7,368.2,228.1,366.9,228.4z"/>
	<path fill="#424242" d="M374.6,226.9c1-1.2,2.3-0.5,3.5-0.6C377.2,227.3,375.9,226.8,374.6,226.9z"/>
	<path fill="#555556" d="M368.3,224.7c-7.8,3.2-16.2,3-24.4,4.3c-6.7,1-13.4,1.9-20.1,3.1c-3.9,0.6-7.8,0.1-11.5,0.4
		c-0.8,0.5-1.4,0.6-2.2,0c1.3-1.3,3.2-1,4.7-1c5.4,0.3,10.6-1.6,16-1.9c3.5-0.3,6.9-1.4,10.5-1.2c3,0.1,5.1-3,8.6-2.3
		c3,0.6,6.2,1.8,9.2-0.3c-0.4-0.8-1.4,0-1.9-0.6c0.1-0.1,0.3-0.3,0.4-0.3c6.1,0.5,11.4-0.6,15.6-5.6c1.2-1.4,3.4-1.6,5.3-1.6
		C375.6,221,371.9,222.9,368.3,224.7z"/>
	<path fill="#434444" d="M398.1,216.9c-1.3-0.5-1.7-2.6-3.5-2.1c2.9-3.1,6.6-4.7,10-7.1c0.5-0.3,0.9-0.5,1.4-0.8
		c2.2-0.8,4.3-1.9,6.4-2.9l0,0c0.9-1,2.3-1.2,3.5-1.9c0.4-0.1,0.6-0.3,1-0.3c5.4-1.8,11-2.7,16.6-4.2c1-0.3,2.1-0.4,3.1,0
		c0.6,1.7,2.5,0.8,3.5,1.7c0.3,0.3,0.3,0.6,0,0.9h-0.4h-0.4c-3.1,0.5-6.2,0.6-9.2,1.4c-2.1,0.5-4.3,0.9-6.4,1.4
		c-1,0.8-2.5-0.1-3.5,0.6c-1.4,0.5-2.9,0.9-4.3,1.4c-3.1,1.2-6.4,2.3-9.1,4.4C403.4,211.7,400.2,213.7,398.1,216.9z"/>
	<path fill="#474848" d="M404.5,207.7c-3,2.9-6.4,5.1-10,7.1c-3.5,1.9-7.8,1.8-11.3,3.5c-1.7-0.3-3.4,0.3-4.9,0.8
		c-1,0.6-1.8,1.4-2.9,2.1c-1.6,1.7-3.6,2.6-5.7,3.5c-0.5,0-0.9,0-1.4,0c3.2-2.3,6.2-5.2,10-7.1c2.7-0.6,5.4-1.3,8.2-1.9
		c5.7-1.2,10.9-3.5,15.4-7C402.7,208.2,403.6,208.1,404.5,207.7z"/>
	<path fill="#626364" d="M410.8,203.4c13.2-5.3,26.7-9.5,41.3-9.1c-0.3,1.4-1.4,1.4-2.5,1.6c-11.4,1.4-22.7,3.6-33.9,6.9l0,0
		c-1.2,0.3-2.2,1.4-3.5,0.8C411.9,203.4,411.4,203.4,410.8,203.4z"/>
	<path fill="#3E3F3F" d="M310.2,232.5c0.8,0,1.4,0,2.2,0c0.6,1.2,2.2,0.3,2.9,1.4l0,0c-3.4,0.9-6.6-0.1-10,0c-0.5,0-0.9,0-1.4,0
		c0.8-0.4,1.4-0.8,2.2-1.3C307.3,232.6,308.7,232.6,310.2,232.5z"/>
	<path fill="#474848" d="M412.3,204.2c-1.9,1.4-3.9,2.7-6.4,2.9C407.9,205.5,409.8,204.4,412.3,204.2z"/>
	<path fill="#474848" d="M412.3,203.4c1.2-0.3,2.3-0.5,3.5-0.8c-0.9,1.2-2.2,1.4-3.5,1.4C412.3,204,412.3,203.7,412.3,203.4z"/>
	<path fill="#555556" d="M359.1,230.4c-3,1.3-6.1,0.8-9.1,1.4c-1,0.3-2.1-0.3-3,0.6c-1.4,0-2.9,0-4.3,0c-2.3,0.8-4.9,0.1-7.1,1.4
		c-4.3-0.3-8.4,1.4-12.7,1.4c3.2-1.4,6.6-3.4,10.1-3.4C341.8,232,350.4,229.6,359.1,230.4z"/>
	<path fill="#656666" d="M335.7,233.9c1.9-2.6,4.8-0.9,7.1-1.4C340.5,233.5,338.2,234.1,335.7,233.9z"/>
	<path fill="#2E2F2F" d="M512.3,229c5.3,0,10.6,0,16,0c0.8,0,2.5-0.8,1.8,1.4c-1.4,0.5-2.9,0.5-4.3,0c-1.2,0-2.3,0-3.5,0
		c-2.6-0.8-5.3-0.1-7.9-0.4C513.6,230,512.3,230.7,512.3,229z"/>
	<path fill="#414242" d="M500.2,229c0.5,0,0.9,0,1.4,0c0.3,0.1,0.3,0.3,0.3,0.5c-0.1,0.1-0.1,0.3-0.3,0.3c-7.8,0-15.6,0-23.4,0
		c1.4-1.3,3.1-0.6,4.7-0.6C488.7,229,494.5,229,500.2,229z"/>
	<path fill="#414242" d="M512.3,229c1.8,1.4,4,0.4,6,0.6c1.3,0.1,2.9-0.5,3.9,0.6c-5.2,0.4-10.4-0.5-15.7-0.8c0-0.3,0-0.5,0-0.6
		C508.5,229,510.3,229,512.3,229z"/>
	<path fill="#3C3D3D" d="M585.9,231.2c1.3,0,2.6-0.5,3.6,0.6c-0.8,0.8-1.9,0-2.7,0.6c-1.9-0.1-4,0.6-5.8-0.5
		C582.6,231.6,584.4,232.5,585.9,231.2z"/>
	<path fill="#414242" d="M525.8,230.4c1.4,0,2.9,0,4.3,0s2.9,0,4.3,0c0.1,0.1,0.3,0.1,0.3,0.3c0,0.1-0.1,0.3-0.1,0.3
		C531.5,230.9,528.5,231.9,525.8,230.4z"/>
	<path fill="#252526" d="M586.9,232.5c0.8-1,1.8-0.5,2.7-0.6c1.8,0,3.6,0.1,5.4,0.1c-0.9,1-2.2,0.4-3.4,0.6
		C590.1,232.6,588.4,232.5,586.9,232.5z"/>
	<path fill="#2E2F2F" d="M534.3,231.1c0-0.1-0.1-0.4-0.1-0.5c2.6,0.3,5.3-0.6,7.8,0.5C539.5,231.1,536.9,231.1,534.3,231.1z"/>
	<path fill="#3C3D3D" d="M558.3,231.2c1.7,0.1,3.4-0.5,5.1,0.5C561.7,231.7,559.9,232.4,558.3,231.2z"/>
	<path fill="#414242" d="M449.9,230.4c0-0.3,0-0.4,0-0.6c1.7,0,3.4,0,4.9,0C453.4,231.1,451.6,230.2,449.9,230.4z"/>
	<path fill="#3C3D3D" d="M501.7,229.8c0-0.3,0-0.5,0-0.6c1.4,0.3,3-0.5,4.3,0.6C504.5,229.8,503.1,229.8,501.7,229.8z"/>
	<path fill="#B89422" d="M234.3,261.6c-0.9-1.3-0.9-2.2,0-3.5C235.2,259.5,235.2,260.4,234.3,261.6z"/>
	<path fill="#2C2D2D" d="M498.8,202c-0.5,0-1,0-1.6,0.1c-1.4,0-2.7-0.1-4.2-0.1c-1.2-0.8-2.5,0.1-3.6-0.6c-0.6,0-1.4,0-2.1-0.1
		c-2.3-0.9-4.8,0.3-7.1-0.6c-1.4,0-2.9,0-4.2-0.1c0.9-2.6,3-1,4.2-1.4c-3.2-0.8-6.9-0.5-10.5-1c-0.8-0.1-1.7,0-2.5-0.3
		c-0.5-0.1-1.2-0.4-1.2-1c0-0.8,0.6-0.9,1.2-0.9c1.4-0.3,2.9,0.1,4.2-0.3c0.5-0.1,1.2-0.3,1.7,0.1c2.3,0.3,4.8-0.4,7,0.6
		c6.6,1.2,13.4,0.9,20,2.9c-1.6,0.9-3.1,0.8-4.7,0.3c2.2,0.6,4.5,0.3,6.7-0.1c1.8-0.1,3.5,0.3,5.1,1.3
		C504.8,202.4,501.8,201.9,498.8,202z"/>
	<path fill="#343535" d="M471.9,195.8c-1.4,1.4-3.4,0.1-5.2,1c4.8,1.3,9.9-0.5,14.3,2.1c-1.2,1.6-3.5,0.4-4.8,1.7
		c-4.3,0-8.6,0-12.7,0c-0.8-0.1,1.6-1.3-0.5-1.3c-7.3,0.3-14.7,0.1-21.9,0.8c-0.4,0.1-0.6,0.1-1-0.1c-0.8-0.6-3.1,1.4-2.9-1.4
		c0.1-0.1,0.3-0.3,0.4-0.4c4.7-1,9.6-1,14.3-2.3c0.4-0.1,0.8-0.3,1.2-0.3C459.2,195.4,465.6,194.8,471.9,195.8z"/>
	<path fill="#434444" d="M440.7,199.9c2.5-1.4,5.3-1,7.9-1.2c6.1-0.5,12.5-0.1,19.2-0.1c-1.3,2.1-3.4,0.6-4.3,2.1
		c-2.1,0-4.3,0-6.4,0c-2.7-1.3-5.6-0.6-8.3-0.5C446,200.2,443.3,200.6,440.7,199.9z"/>
	<path fill="#474848" d="M398.1,216.9c1-4.5,4.9-5.7,8.6-7.1c0.3-0.3,0.5-0.3,0.8,0c-0.5,1-1.6,1.6-2.6,2.2
		c-1.3,0.8-4.9,0.4-2.3,3.9c0.5,0.6-1.4,1-2.2,1.7C399.8,216.9,398.9,216.9,398.1,216.9z"/>
	<path fill="#474848" d="M440.7,199.9c4.3,0.5,8.4-0.8,12.6-0.6c1.4,0,2.9-0.3,3.6,1.4c-5.7,0-11.3,0-17,0c0-0.3,0-0.5,0-0.8
		C440.2,199.9,440.4,199.9,440.7,199.9z"/>
	<path fill="#474848" d="M407.3,209.9c-0.3,0-0.5,0-0.8,0c2.6-2.5,5.7-3.8,9.2-4.3C413,207.1,410.2,208.5,407.3,209.9z"/>
	<path fill="#474848" d="M430,202.1c3-1.4,6.1-1.4,9.2-1.4C436.3,201.6,433.2,202.1,430,202.1z"/>
	<path fill="#474848" d="M480.4,200.7c2.3,0.1,4.8-0.6,7.1,0.6C485.2,201.1,482.7,201.9,480.4,200.7z"/>
	<path fill="#474848" d="M420.1,204.2c1-1.2,2.3-0.5,3.5-0.6C422.6,204.6,421.3,204.1,420.1,204.2z"/>
	<path fill="#474848" d="M489.6,201.4c1.2,0.1,2.6-0.4,3.6,0.6C491.9,202,490.6,202.5,489.6,201.4z"/>
	<path fill="#2E2F2F" d="M554.7,229.3c0,0.1,0.1,0.3,0.1,0.5c-1.7-0.1-3.4,0.5-4.9-0.5C551.5,229.1,553.2,229.1,554.7,229.3z"/>
	<path fill="#2E2F2F" d="M535,228.4c1.7,0.1,3.5-0.6,4.9,0.6C538.4,228.7,536.6,229.6,535,228.4z"/>
	<path fill="#323333" d="M305.2,234.1c3.4-1.4,6.6,0.6,10,0c0,0.3,0,0.5,0,0.6C311.9,234.3,308.5,235.5,305.2,234.1z"/>
	<path fill="#2C2C2D" d="M278.2,241.8c0,0.1,0,0.4-0.1,0.5c-1,0-2.3,0.6-3.2-0.4c1.2-0.3,2.2-0.5,3.4-0.8
		C278.2,241.3,278.2,241.6,278.2,241.8z"/>
	<path fill="#828384" d="M406.7,203.4c-0.5,0-0.9,0-1.4,0c4-3,8.6-4.9,13.5-5.7c0.8,1.6-0.6,1.7-1.6,2.1
		C413.7,201.1,410.2,202.3,406.7,203.4z"/>
	<path fill="#474848" d="M415.9,202.8c5.8-3,12.5-3,18.6-4.9c5.8-1.9,11.8-2.1,17.8-3.4c4.2,0,8.4,0,12.6,0c0.1,0.1,0.1,0.4,0.1,0.5
		c-4.2,1-8.6,0.4-12.8,1.4l0,0c-4.9,0.6-9.9,1.4-14.9,2.1l0,0c-5.8,0.5-11.4,2.2-17.1,3.5C418.6,202.4,417.3,202.9,415.9,202.8z"/>
	<path fill="#171718" d="M498.8,202c2.7-1.2,5.6-1.3,8.6-1.4c1.2,0,2.3,0.1,3.5,0.1c1.3,2.1,3.5,0.8,5.1,1.6
		c1.2,0.5,2.6,0.1,3.5,1.2c1,0.9,2.5-0.1,3.5,0.6c6.1,1.4,12.3,3,18.4,4.4c1.7,1.3,3.9,1,5.7,1.9l0,0c0.3,0.1,0.4,0.3,0.3,0.4
		s-0.1,0.3-0.3,0.3c-0.6,0-1.4,0-2.1-0.1c-11.9-3.2-23.9-6.2-36.2-7.7l0,0c-0.6-1.7-2.2-0.8-3.4-1c-1.9-0.4-3.9,0.3-5.8-0.4
		C499.3,202.1,499.1,202.1,498.8,202z"/>
	<path fill="#222223" d="M547.1,211.2c0-0.3,0-0.4,0-0.6c1.4,0.3,2.7,0.6,4.2,0.9c0.3,0.3,0.6,0.4,0.8,0.6c0.3,0.4,0,0.6-0.4,0.5
		C550,212.3,548.5,211.7,547.1,211.2z"/>
	<path fill="#222223" d="M522.9,204.2c-1.2-0.1-2.6,0.5-3.5-0.6C520.6,203.7,521.9,203.2,522.9,204.2z"/>
	<path fill="#161617" d="M502.3,199.3c-4.2,1.6-4.2,1.6-7.8-0.1c2.5,0,4.2,0,5.8,0C501,199.3,501.7,199.3,502.3,199.3z"/>
	<path fill="#434444" d="M452,196.4c4.2-2.1,8.4-1.3,12.8-1.4c2.9,0.3,5.7-0.6,8.6,0.6c-0.5,0-0.9,0-1.4,0.1
		C465.2,195.1,458.7,196.8,452,196.4z"/>
	<path fill="#313132" d="M499.6,202.1c3.5,0,7,0,10.5,0c0,1-1.2,0.6-1.3,1.4C505.8,202.4,502.4,203.4,499.6,202.1z"/>
	<path fill="#414242" d="M472.7,227.8c6.7,0,13.6,0,20.4,0c0,0.1,0,0.3,0,0.4c-6.7,0-13.5,0-20.2,0C472.7,228,472.7,228,472.7,227.8
		z"/>
	<path fill="#414142" d="M375.4,221.2c0.6-1.2,1.4-2.1,2.9-2.1C377.6,220.2,376.8,221.2,375.4,221.2z"/>
	<path fill="#434444" d="M437.2,198.5c4.9-1.2,9.7-2.3,14.9-2.1C447.2,198.1,442.2,198.6,437.2,198.5z"/>
</g>
</svg>
