<?xml version="1.0" encoding="utf-8"?>
<!-- Generator: Adobe Illustrator 18.0.0, SVG Export Plug-In . SVG Version: 6.00 Build 0)  -->
<!DOCTYPE svg PUBLIC "-//W3C//DTD SVG 1.1//EN" "http://www.w3.org/Graphics/SVG/1.1/DTD/svg11.dtd">
<svg version="1.1" id="Layer_1" xmlns="http://www.w3.org/2000/svg" xmlns:xlink="http://www.w3.org/1999/xlink" x="0px" y="0px"
	 viewBox="0 0 640 480" enable-background="new 0 0 640 480" xml:space="preserve">
<g>
	<path d="M188.1,264.6c-9.2,10.6-17.7,21.2-27,31c-4,4.2-9.4,7.6-14.9,9.8c-10.6,4.3-19.9-3.8-20.4-17.2
		c-0.6-18.3,5.5-35.2,11.5-52.2c4.6-13,8.8-26.1,13.3-39.2c1.8-5.2,0.8-13.3,10.1-11.5c5.7,1.1,7.4,9.7,4.4,17.6
		c-6.5,16.7-13.3,33.2-18.9,50.1c-3.2,9.9-4.6,20.5-6,30.9c-0.4,2.8,1.7,7.7,4,8.6c2.2,1,7.2-0.7,9.1-2.9
		c9.9-11.8,20.2-23.5,28.6-36.4c7-10.8,11.4-23.3,17.2-34.9c1.6-3.2,2-9.1,8.1-6.8c5.3,2,5.5,5.8,4.1,11.2
		c-3.4,13.6-6.3,27.3-8.2,41.2c-0.8,5.3,1.1,11.3,2.6,16.7c2.6,9.4,8.3,11.3,14.1,3.5c7.3-9.6,13.1-20.5,18.4-31.4
		c10.5-21.7,13.3-45.5,18.2-68.8c0.4-1.8,0.6-4,1.8-5.1c2.4-2.2,5.4-3.7,8.2-5.5c1.4,3,4.1,6.1,3.9,9c-1.3,21.3-7,41.6-14.8,61.4
		c-7.4,18.9-16.7,36.6-31.9,50.7c-12.1,11.2-25.1,7.9-29.9-8C191.3,279.3,189.9,271.9,188.1,264.6z"/>
	<path d="M84.9,239.3c5.3,0,9.7-0.6,13.9,0.2c2.8,0.5,5.3,2.9,7.9,4.5c-2.7,2.6-4.9,6.4-8.1,7.4c-4,1.3-8.8-0.2-13.1,0.6
		c-2.5,0.5-6,2.7-6.8,4.9c-3.3,9.7-5.7,19.7-8.4,29.6c-0.6,2.1-0.5,4.8-1.8,6.2c-2.2,2.2-5.5,5.2-8,4.9c-2.2-0.3-5.8-4.9-5.5-7.1
		c1.6-9.3,4.3-18.4,6.7-27.5c0.9-3.3,2.1-6.6,3.7-11.6c-5.9,0.8-10.4,1.9-14.8,2c-10.7,0.2-21.4,0.3-32.2,0
		C12.1,253,8.3,246.9,11,241c9.2-20.3,21.6-38.4,38.3-53.3c0.2-0.2,0.4-0.5,0.6-0.5c4.8-1.6,9.5-7.4,14.4-1.6
		c0.6,0.7-4.8,6.8-7.6,10.2c-5.1,6.3-10.8,12.2-15.5,18.9c-5.5,7.9-10.2,16.3-16.8,27.1c15.7-0.9,28.9-1.4,42-2.6
		c2.3-0.2,5.2-3.2,6.3-5.7c6.7-14.5,12.8-29.2,19.3-43.9c0.8-1.7,1.7-3.8,3.1-4.7c2.3-1.4,5.1-1.9,7.7-2.8c0.4,2.6,1.7,5.6,0.9,7.7
		c-5.4,14.5-11.2,28.7-16.9,43.1C86.3,234.5,85.9,236.3,84.9,239.3z"/>
	<path d="M526.1,196.8c-38.7-6.6-39.8-8.6-81.8-1.2c-15.5,2.7-29.3,9-42.1,18.9c73.8,2.9,146.8,5.8,219.9,8.7
		c-115.5,2.1-231.3-8.9-346.1,12.9c-0.2-0.7-0.4-1.3-0.5-2c18-4.3,35.9-8.9,54-12.9c8.8-1.9,17.9-2.9,26.9-4c8-1,14.8-3.6,21.9-8
		c9.1-5.7,18.8-10.5,28.3-15.6c30.9-16.4,65.5-10.8,97.9-5.3c24.5,4.2,48.4,11.6,72.6,17.6"/>
	<path d="M381.4,275c-11.7,0-22.9,0-34.2,0c-0.6,0.6-1.2,1.2-1.7,1.8c3.2,3.8,5.7,8.7,9.7,11.1c4.3,2.6,8.9,0.7,13.3-2.9
		c3.2-2.6,8.7-2.5,14.2-3.8c-5.8,15.5-16.7,21-29.9,17.3c-17.2-4.9-21.6-21.2-18.1-35.9c3.3-14.1,16-22.5,28.4-19.7
		C377.1,245.9,384.4,258.2,381.4,275z M346,261.3c0.5,0.7,1,1.4,1.5,2c7.4,0,14.8,0,23.2,0c-3.2-6.3-6.7-11.4-13.2-9.8
		C353.2,254.6,349.7,258.6,346,261.3z"/>
	<path d="M577.9,280.9c-6.8,16.4-18.2,21.7-32.2,17c-13.3-4.5-20.5-20.5-16.2-35.7c4.7-16.9,17.3-21.3,28.4-19.3
		c13.8,2.4,21.1,15.1,18.6,32c-11.5,0-23.1,0-34.9,0c3.4,14.5,11.4,17.4,22,9.8C566.9,282.3,572,282.4,577.9,280.9z M565.7,263.7
		c-3.8-6.5-7-11.9-13.7-10.1c-4.2,1.1-7.6,5.1-11.3,7.8c0.5,0.8,1,1.5,1.5,2.3C549.5,263.7,556.8,263.7,565.7,263.7z"/>
	<path d="M308.7,259.5c-4.8-1.7-9.5-3.6-14.4-4.9c-3-0.8-6.4-1.1-9.5-0.7c-1.7,0.2-3,2.5-4.5,3.9c1.6,1.5,2.9,3.8,4.8,4.5
		c5.8,2.2,12.1,3.1,17.7,5.6c9.9,4.4,12.3,17.9,4.3,25.3c-11.5,10.7-37.6,9.5-40.5-10.5c5.5-0.3,10.4-1.9,15.2,3.8
		c2.1,2.5,8.6,1.9,13.1,1.6c1.5-0.1,3.8-3.5,3.9-5.5c0.1-1.4-2.6-3.6-4.5-4.4c-4.2-1.7-8.7-2.8-13.1-4.1
		c-7.2-2.1-13.2-5.1-13.4-14.1c-0.1-8.9,5.1-13.2,12.4-16.2C292.5,238.8,305.6,244.4,308.7,259.5z"/>
	<path d="M456.3,281c-2.4,15-14.8,19.6-25.3,18.5c-14.7-1.6-23-12.7-22.9-30.3c0.1-13.9,9.3-24.8,22.4-26.6
		c12.8-1.8,22.2,5,25.7,18.5c-5.7,0.8-10.8,1.2-15-4.7c-3.6-5.1-12.5-4.2-16.6,0.5c-5.7,6.7-5.7,21.9,0,28.3
		c4,4.5,12.9,5.1,16.6,0.1C445.6,279.8,450.5,280.1,456.3,281z"/>
	<path d="M626.7,243.4c0,3,0,5.7,0,9c-2.4,0.6-4.9,1.1-8,1.9c0,9.6-0.6,19.2,0.4,28.7c0.3,2.9,4.8,5.4,7.4,8c1.1,0,2.3,0,3.4,0.1
		c-2.1,2.9-3.7,7.6-6.3,8.2c-9.4,2.2-16.8-2.9-17.2-11.2c-0.4-8.8-0.1-17.6-0.1-26.3c0-7.2,0-7.2-6.4-9.9c0-2.7,0-5.4,0-8.4
		c9.9-0.2,5.2-8.1,7-13.3c3.4,0,7.1,0,11.3,0c0.2,3.6,0.5,7.4,0.8,11.7C621.5,242.2,624,242.8,626.7,243.4z"/>
	<path d="M493.2,297.7c-4.6,0-7.9,0-11.8,0c0-18.2,0-36.1,0-53.6c9.6,0,19.3,0,29.4,0c0,2.2,0,5.3,0,9.2c-2.1,0-4.5-0.3-6.9,0
		c-6.7,0.9-11.1,3.6-10.9,11.5C493.5,275.6,493.2,286.2,493.2,297.7z"/>
	<path fill="#FFFFFF" d="M346,261.3c3.8-2.7,7.2-6.7,11.4-7.7c6.5-1.6,9.9,3.5,13.2,9.8c-8.4,0-15.8,0-23.2,0
		C346.9,262.7,346.4,262,346,261.3z"/>
	<path fill="#FFFFFF" d="M565.7,263.7c-8.9,0-16.2,0-23.5,0c-0.5-0.8-1-1.5-1.5-2.3c3.7-2.7,7.1-6.6,11.3-7.8
		C558.7,251.8,561.9,257.2,565.7,263.7z"/>
</g>
</svg>
