<?xml version="1.0" encoding="utf-8"?>
<!-- Generator: Adobe Illustrator 19.0.0, SVG Export Plug-In . SVG Version: 6.00 Build 0)  -->
<svg version="1.1" id="Layer_7" xmlns="http://www.w3.org/2000/svg" xmlns:xlink="http://www.w3.org/1999/xlink" x="0px" y="0px"
	 viewBox="0 0 1920 1080" style="enable-background:new 0 0 1920 1080;" xml:space="preserve">
<style type="text/css">
	.st0{fill:#385D14;}
	.st1{fill:#4E9A06;}
	.st2{fill:#222222;}
</style>
<path class="st0" d="M873.2,731.3c0,0.1,0.1,0.1,0.1,0.1c0-2.1,0-4.2,0-6.2C873.2,727.2,873.2,729.2,873.2,731.3z M891.9,642.3
	c16.7-32.1,39.2-42.7,42.5-44.1C931.2,599.5,908.7,609.6,891.9,642.3z M930.4,532.1c-33.2,25.9-25.6,26.4-25.6,26.4
	c13.9,6.8,52.7,2.9,52.7,2.9c2.4-4.6,79.1-83.5,79.1-83.5C984.6,492.5,930.4,532.1,930.4,532.1z"/>
<path class="st1" d="M1081.2,480.1c0,0-13,71.1-19.7,93.8c0,0-12.9,45.7-39.6,71.1c0,0-45.4,38.4-78.8,52.7c-0.1,0-1.1,0.4-7.6,3
	c0,0-18.6-32.5-4.4-55c0,0,10-22.7,26.4-35.9c0,0,6.2-9.3,22-8.8l32.7-3.5c0,0,13.3-7.8,17.3-20.7c0,0,8.9-16.7-13.8-13.8l-19.3-0.1
	l53.8-65.5c0,0,10.4-19.6,0-24.2c0,0,11.6-12.8,2.6-17.4c0,0,22.7-22.6,37.8-105.3c0.4-0.5,0.7-1,1-1.6
	C1091.6,348.9,1096.6,384.9,1081.2,480.1z"/>
<path class="st0" d="M1090.5,350.4c-15.1,82.8-37.8,105.3-37.8,105.3c-2.7-1.4-7.3-2.1-14.7-1.4c0,0-19-0.5-45,11.2
	c-67.5,30.2-95.5,47.7-122.4,87c0,0-16,34.8,9.9,42.5l54.2,2.9c0,0-0.1,0.1-0.4,0.2c-3.2,1.3-25.7,11.4-42.5,44.1
	c-0.2,0.4-0.4,0.7-0.6,1.1c-9.5,18.6-17.1,44.2-18,79.2c0,0.9-0.1,1.7-0.1,2.6c-0.1,2-0.1,4-0.1,6.1c-2.2-4.1-57.9-109.3-6-206.3
	c0,0,36.8-55.1,110.5-89.8C977.7,435.2,1064.5,389.2,1090.5,350.4z"/>
<path class="st2" d="M174.8,677.5c-81.5,0-122-53.8-122-136.4c0-85.4,42.9-136.8,126.7-136.8c32.4,0,58.5,7.8,78.3,24.2
	c18.7,16.8,29.2,39.8,32,68.6h-32.7c-11.7,0-20.3-5.5-25.3-16c-9-19.1-26.5-28.8-52.2-28.8c-50.3,0-72.5,35.5-72.5,88.9
	c0,51.8,21.4,88.5,70.9,88.5c33.9,0,53.4-18.7,59.2-47.9h52.6C284.8,642.8,241.9,677.5,174.8,677.5z"/>
<path class="st1" d="M1216,404.3c30.8,0,57.7,7.8,79.9,23.4c20.3,16.4,31.6,39.4,33.5,69.4h-33.5c-9.7,0-17.5-4.7-23.8-13.6
	c-10.5-21.4-28.8-32-54.6-32c-45.6,0-69,28.8-69.4,86.9c-0.4,58.1,23.4,89.3,72.1,92.8c36.6,0,58.1-24.6,63.9-56.5h-32
	c-15.2,0-27.3-12.1-27.3-27.3v-16.8h108v143h-13.6c-12.9,0-25.3-8.6-26.5-20.7l-2.3-12.9c-18.7,24.2-37.8,37.4-76,37.4
	c-76,0-122-58.9-122-136.4C1091.2,462.8,1137.6,401.2,1216,404.3z"/>
<g>
	<path class="st2" d="M324.4,530.2h15v53.6h58.9v-53.6H428v143.4h-29.7v-63.5h-58.9v63.5h-29.7v-128
		C309.7,537.4,316.2,530.2,324.4,530.2z"/>
	<path class="st2" d="M442.4,545.6c0-9.9,4.9-15.2,14.8-15.4h89v24.9h-74.9v30.8h55.9v9.5c0.2,9.9-4.9,14.8-15.2,14.8h-40.7v37.1
		h74.9v26.4H442.4V545.6z"/>
	<path class="st2" d="M625.3,675.7c-44.1,0-66-29.1-66-73.8c0-46.2,23.2-74,68.6-74c17.5,0,31.6,4.2,42.4,13.1
		c10.1,9.1,15.8,21.5,17.3,37.1h-17.7c-6.3,0-11-3-13.7-8.6c-4.9-10.3-14.3-15.6-28.3-15.6c-27.2,0-39.2,19.2-39.2,48.1
		c0,28.1,11.6,47.9,38.4,47.9c18.4,0,28.9-10.1,32.1-25.9h28.5C684.7,657,661.5,675.7,625.3,675.7z"/>
	<path class="st2" d="M716.4,530.2h14.6v59.1l55.9-59.1H824l-57.2,58.2l62.2,85.2h-35.9L756.9,623c-6.3-8.4-12.2-11.8-17.7-9.9
		c-5.5,1.9-8.2,5.5-8.2,10.3v50.2h-29.3v-128C701.6,537.4,708.1,530.2,716.4,530.2z"/>
</g>
<g>
	<path class="st1" d="M1453.3,605.4c6.1,2.1,10.8,5.5,13.7,9.9c2.5,4.9,3.8,12,4.4,21.3l1.3,28.1c0.2,4.4,1.9,7.6,4.6,9.5h-32.3
		c-1.5-2.7-2.1-5.7-2.3-8.6c-0.6-2.1-1.1-10.3-1.3-24.3c-1.1-17.3-4.2-22.8-21.5-22.8h-31.2v55.7h-29.3v-128
		c0-8.2,6.5-15.4,14.8-15.4h54.4c29.7,0,46.2,11.4,46.2,40.9C1474.8,589.8,1467,601.6,1453.3,605.4z M1425.1,555.6h-36.3v37.8h34.6
		c13.9,0,21.7-5.1,21.7-19C1445.1,561.3,1438.1,555.6,1425.1,555.6z"/>
	<path class="st1" d="M1492.1,546.1c0-9.9,4.9-15.2,14.8-15.4h89v24.9H1521v30.8h55.9v9.5c0.2,9.9-4.9,14.8-15.2,14.8H1521v37.1
		h74.9v26.4h-103.8V546.1z"/>
	<path class="st1" d="M1611.1,546.1c0-9.9,4.9-15.2,14.8-15.4h89v24.9H1640v30.8h55.9v9.5c0.2,9.9-4.9,14.8-15.2,14.8H1640v37.1
		h74.9v26.4h-103.8V546.1z"/>
	<path class="st1" d="M1744.4,530.7h15.8l58.4,98.5v-98.5h28.9v143.4H1817l-58.4-98.5v98.5h-28.9v-128
		C1729.7,537.9,1736.2,530.7,1744.4,530.7z"/>
</g>
</svg>
