<?xml version="1.0" encoding="utf-8"?>
<!-- Generator: Adobe Illustrator 18.0.0, SVG Export Plug-In . SVG Version: 6.00 Build 0)  -->
<!DOCTYPE svg PUBLIC "-//W3C//DTD SVG 1.1//EN" "http://www.w3.org/Graphics/SVG/1.1/DTD/svg11.dtd">
<svg version="1.1" id="Layer_1" xmlns="http://www.w3.org/2000/svg" xmlns:xlink="http://www.w3.org/1999/xlink" x="0px" y="0px"
	 viewBox="0 0 640 480" enable-background="new 0 0 640 480" xml:space="preserve">
<g>
	<path fill="#373737" d="M205.8,247.4c0-20.5,0-41,0-61.5c0-48.9,0-97.7,0-146.6c0-9.6,3-13.1,12.5-14.3c1.1-0.1,1.4-0.5,1.8-1.4
		c1.6-4.1,3.9-5.6,8.4-5.6c18.3,0,36.7,0,54.9,0c2.2,0,2.8-0.5,2.6-2.6c-0.1-3.2,0-6.4,0-9.6c0-4.2,0-4.2,4.2-4.2
		c19,0,38.1,0,57.1,0c0.5,0,0.9,0,1.4,0c2.1-0.1,3.2,0.7,3,3c-0.1,3.8,0.1,7.5-0.1,11.3c-0.1,2,0.5,2.2,2.4,2.2
		c18.4,0,36.8,0,55.2-0.1c4.6,0,8,1.4,9.3,6C419,25.4,420,25,421,25c4.7,0.1,8.9,1.2,11.6,5.5c1.3,2.2,1.7,4.7,1.7,7.2
		c0,42.7,0,85.5,0,128.2c0,96.3,0,192.6,0.1,288.7c0,8.8-4.7,12.1-11.2,13.1c-1.3,0.3-2,0.7-2.5,1.8c-2.5,5.6-7.1,8.4-13.3,8.9
		c-0.5,0-0.9,0-1.4,0c-56.1,0-112.3,0-168.4,0c-7.1,0-12.3-2.8-15.2-9.3c-0.5-1.1-1.2-1.2-2.1-1.2c-2.5,0-4.9-0.3-7.2-1.1
		c-5.3-1.7-7.4-4.5-7.4-9.9c0-3.4,0-6.7,0-10.1C205.8,380.6,205.8,314,205.8,247.4z M331.5,398.3c0.3,0.7,0.9,0.4,1.4,0.7
		c0.3,0.4,0.7,0.4,1.1,0.3c0.4,0,0.9,0,1.3,0c2.8,1.2,5.6,0.7,8.4,1.4c9.7,7.4,20.6,10.2,32.7,7.9c10.9-2.1,19.8-7.8,27.1-16
		c7.5-8.7,11.2-18.7,10.9-30.1c-0.1-6.7-1.1-13.1-2.6-19.6c-3.7-17.3-18.8-28.6-34.5-25.7c9.9,7.1,16.4,16,16.6,28.6
		c-0.1,5.3-1.8,9.9-5.4,13.8c-1.8,0.9-3.8,1.3-5.9,1.4c-8,0.8-15.8,2.4-22.6,7.2c-8.8,6.3-16.2,13.7-20,24c-0.4,1.1-0.9,2.1-2.2,1.8
		c-2.4-0.5-4.9-0.1-7.1-1.4c-0.4-0.3-1.4-0.7-1.4,0c-0.1,1.6-1.2,3.2,0.3,4.6l0,0c0.1,0.1,0.4,0.4,0.5,0.5l0,0
		C330.4,398.4,331,398.4,331.5,398.3L331.5,398.3z M373.8,281.7c-0.1-0.1-0.4-0.4-0.5-0.5c-1.2-2.6-3.2-4.6-4.9-6.7
		c-0.7-8.3-3.7-15.8-9.2-21.9c-12-13.7-27.5-17.6-44.8-14.5c-16.4,2.9-26.4,14.2-34.5,27.6c-6.6,8-8.3,16.8-5.3,26.7
		c2.1,6.8,7.5,14.6,10.8,15.5c-0.3-2.5-1.2-5-0.9-7.5c0.3-2.5,0.5-5,0.9-7.5c1.4-10.1,10.2-21.3,21.7-22.1c1.8,0.3,3.4,1.1,5,2.4
		c3.7,3.3,7.6,6.6,12.2,8.5c13.3,5.9,26.9,6.3,40.6,1.1c1.6-0.5,2.5-0.5,3.7,0.8c1.4,1.7,2.8,3.7,3.7,5.8c0.1,0.4,0.1,1.6,0.9,1.1
		c1.2-0.8,2.4-1.8,3.3-2.9c0.5-0.7-0.1-1.7-0.5-2.5c-0.1-0.4-0.4-0.8-0.5-1.2C374.8,282.8,374.6,282,373.8,281.7
		C373.8,281.5,373.8,281.7,373.8,281.7z M266.9,309c-0.3-0.7-0.9-0.4-1.4-0.4c-1.6,1.2-3.3,2.2-4.7,3.4c-2.1,1.8-4.1,3.8-6.2,5.8
		c-6.7,1.2-12.7,4.2-17.7,8.8c-12.7,11.4-16.6,26-13.9,42.4c3.2,19.2,16.2,30,32.7,37.6c4.3,2.5,8.8,4.7,14.1,4.9
		c8.8,0.1,16.4-2.8,22.6-8.9c2.1-1.4,3.8-3.2,5-5.6c-0.5,0-0.9-0.1-1.2-0.1c-4.3,1.6-8.8,1.6-13.3,1.3c-5.1-0.3-10-1.4-14.2-4.5
		c-5.5-3.8-9.9-8.3-10.8-15.2c0.1-1.4,0.4-2.8,1.3-3.9c7.9-10.1,11.4-21.4,10.1-34.3c-0.7-7-2-13.8-5.8-20c-0.7-1.1-1.2-2.2-0.3-3.2
		c1.3-1.3,2.5-2.9,4.2-3.9c3-1.8,3-2,0.1-4.1C267.5,309.1,267.1,309.1,266.9,309L266.9,309z M320.1,171.3c36.1,0,72.3,0,108.4,0
		c3.3,0,3.3,0,3.3-3.3c0-43.4,0-86.8,0-130.2c0-7.1-3.2-10.4-10.2-10.4c-67.5,0-135,0-202.6,0c-7.2,0-10.5,3.4-10.5,10.6
		c0,43.4,0,86.8,0,130.2c0,2.5,0.5,3.2,3.2,3.2C247.7,171.3,283.8,171.3,320.1,171.3z M320.1,188.6c28.9,0,57.7,0,86.6,0
		c7.8,0,15.5,0,23.3,0c1.7,0,2.2-0.5,2.1-2.2c-0.1-3.3-0.3-6.6,0-9.9c0.1-2.4-0.5-2.9-2.9-2.9c-72.6,0.1-145.3,0-217.9,0
		c-0.5,0-1.1,0-1.4,0c-1.2-0.1-1.6,0.4-1.6,1.6c0,3.5,0.1,7.1,0,10.5c-0.1,2.2,0.5,2.8,2.8,2.8C247.3,188.6,283.7,188.6,320.1,188.6
		z"/>
	<path fill="#7AB00C" d="M320.1,171.3c-36.3,0-72.4,0-108.6,0c-2.5,0-3.2-0.7-3.2-3.2c0.1-43.4,0-86.8,0-130.2
		c0-7.2,3.3-10.6,10.5-10.6c67.5,0,135,0,202.6,0c7.1,0,10.2,3.3,10.2,10.4c0,43.4,0,86.8,0,130.2c0,3.3,0,3.3-3.3,3.3
		C392.3,171.3,356.2,171.3,320.1,171.3z"/>
	<path fill="#D8D8D8" d="M320.1,188.6c-36.4,0-72.8,0-109,0c-2.2,0-2.9-0.5-2.8-2.8c0.3-3.5,0.1-7,0-10.5c0-1.2,0.3-1.7,1.6-1.6
		c0.5,0,0.9,0,1.4,0c72.6,0,145.3,0,217.9,0c2.4,0,3,0.5,2.9,2.9c-0.3,3.3-0.1,6.6,0,9.9c0.1,1.7-0.4,2.2-2.1,2.2
		c-7.8-0.1-15.5,0-23.3,0C377.7,188.6,348.8,188.6,320.1,188.6z"/>
	<path fill="#68AF0C" d="M411.9,343c1.6,6.4,2.5,12.9,2.6,19.6c0.3,11.4-3.4,21.4-10.9,30.1c-7.2,8.4-16,13.9-27.1,16
		c-12.1,2.2-23-0.7-32.7-7.9c0.4-0.5,1.1-0.4,1.6-0.4c6.2,1.1,12.2,0.1,18.1-1.1c16.4-3.4,29.6-12.5,40.1-25.2
		c0.4-0.5,1.4-1.2,0.7-1.8c-0.8-0.7-1.3,0.4-1.7,0.9c-4.5,5.3-9.3,10-15,13.9c-10.8,7.8-23,11.7-36.3,12.2
		c-6.6,0.3-13.1-0.7-19.4-2.6c-0.9-0.3-2.1-0.9-2.5,0.8c-1.4-1.4-0.4-3-0.3-4.6c0-0.7,1.1-0.3,1.4,0c2.2,1.3,4.7,0.9,7.1,1.4
		c1.3,0.3,1.8-0.8,2.2-1.8c3.8-10.4,11.3-17.7,20-24c6.7-4.9,14.6-6.4,22.6-7.2c2.1-0.3,4.1-0.5,5.9-1.4c9.1-1.6,16.4-5.9,21.5-13.8
		C410.7,344.8,410.8,343.5,411.9,343z"/>
	<path fill="#68AF0C" d="M255.6,406.7c-16.6-7.6-29.6-18.4-32.7-37.6c-2.6-16.4,1.2-31,13.9-42.4c5-4.6,11-7.5,17.7-8.8
		c-1.3,1.6-2.6,3-3.9,4.6c-5.4,6.6-9.3,13.8-12,21.9c-1.6,5.1-2.5,10.2-3,15.5c-0.7,7.2,0.1,14.3,1.6,21.3c0.1,0.5,0.1,1.3,0.9,1.2
		c1.2-0.1,0.4-1.1,0.3-1.6c-1.1-7.4-2-14.7-1.2-22.3c0.8-7.9,2.8-15.4,6.2-22.5c4.9-9.9,11.6-18.1,20.6-24.4
		c1.1-0.8,2.6-1.2,2.8-2.9c0.3,0.1,0.7,0.1,0.9,0.4c2.8,2.1,2.9,2.2-0.1,4.1c-1.7,1.1-2.9,2.6-4.2,3.9c-0.9,0.9-0.4,2.1,0.3,3.2
		c3.7,6.2,5,13,5.8,20c1.3,12.7-2.2,24.2-10.1,34.3c-0.9,1.2-1.1,2.5-1.3,3.9c-4.6,7.4-5.9,15.2-3.3,23.6
		C254.9,403.7,255.2,405.1,255.6,406.7z"/>
	<path fill="#68AF0C" d="M279.9,265.4c8.1-13.4,18.1-24.7,34.5-27.6c17.3-3,32.8,0.8,44.8,14.5c5.5,6.3,8.4,13.7,9.2,21.9
		c-0.4-0.4-0.9-0.7-1.3-1.1c-4.5-5.6-10-10.1-16-13.8c-13.5-8.3-28.4-11.2-44-9.6c-0.7,0-1.6-0.1-1.4,0.8s1.1,0.7,1.6,0.7
		c4.6-0.8,9.1-0.4,13.7,0c8.9,0.7,17.3,2.9,25.2,7c12,6.2,21.3,15.2,27.5,27.2c0.3,0.7,0.4,1.7,1.3,1.4c1.2-0.3,0.5-1.3,0.7-2.1
		c0.4,0.8,1.1,1.7,0.5,2.5c-0.9,1.2-2,2.1-3.3,2.9c-0.8,0.5-0.8-0.7-0.9-1.1c-0.9-2.1-2.2-3.9-3.7-5.8c-1.1-1.3-2.1-1.4-3.7-0.8
		c-13.7,5.3-27.2,4.9-40.6-1.1c-4.6-2-8.4-5.3-12.2-8.5c-1.4-1.3-3-2.1-5-2.4c-0.5-1.4-2-1.8-3.2-2.5
		C296.4,263.9,288.3,262.7,279.9,265.4z"/>
	<path fill="#598216" d="M279.9,265.4c8.4-2.6,16.4-1.6,24.2,2.6c1.2,0.7,2.6,1.1,3.2,2.5c-11.4,0.8-20.2,12.1-21.7,22.1
		c-0.4,2.5-0.7,5-0.9,7.5c-0.3,2.5,0.5,5,0.9,7.5c-3.3-0.9-8.7-8.7-10.8-15.5C271.6,282.3,273.3,273.4,279.9,265.4z"/>
	<path fill="#598216" d="M411.9,343c-1.2,0.7-1.3,2-1.8,2.9c-3.9-0.9-7.9-0.3-11.8-0.4c-1.4,0-2.9-0.4-4.3,0.5
		c-0.1-12.6-6.7-21.5-16.6-28.6C393.2,314.2,408.3,325.5,411.9,343z"/>
	<path fill="#598216" d="M254.5,402.2c-2.5-8.4-1.3-16.2,3.3-23.6c0.9,7,5.4,11.4,10.8,15.2c4.3,2.9,9.2,4.1,14.2,4.5
		c4.5,0.3,8.9,0.1,13.3-1.3c0.3-0.1,0.7,0,1.2,0.1c-1.3,2.5-2.9,4.2-5,5.6c-0.3-1.3-1.4-0.9-2.2-0.9c-11,0-22.2,0-33.2,0
		C256.1,401.7,255.2,401.5,254.5,402.2z"/>
	<path fill="#7AB00C" d="M254.5,402.2c0.7-0.8,1.4-0.5,2.2-0.5c11,0,22.2,0,33.2,0c0.8,0,1.8-0.5,2.2,0.9
		c-6.3,6.2-13.8,9.1-22.6,8.9c-5.3-0.1-9.7-2.4-14.1-4.9C255.2,405.1,254.9,403.7,254.5,402.2z"/>
	<path fill="#7AB00C" d="M393.9,345.9c1.3-0.8,2.9-0.5,4.3-0.5c3.9,0.1,7.9-0.5,11.8,0.4c-5,7.9-12.3,12.2-21.5,13.8
		C392.1,355.6,393.8,351,393.9,345.9z"/>
	<path fill="#598216" d="M375.8,284.8c-0.3,0.7,0.4,1.8-0.7,2.1c-0.9,0.1-1.1-0.9-1.3-1.4c-6.3-12.1-15.6-21-27.5-27.2
		c-7.9-4.1-16.3-6.3-25.2-7c-4.6-0.4-9.1-0.7-13.7,0c-0.5,0.1-1.4,0.3-1.6-0.7c-0.1-1.1,0.8-0.8,1.4-0.8c15.8-1.6,30.5,1.3,44,9.6
		c6,3.7,11.6,8.3,16,13.8c0.4,0.4,0.8,0.8,1.3,1.1c1.7,2.2,3.7,4.2,4.9,6.7c0.1,0.1,0.4,0.4,0.5,0.5l0,0c0,1.1,0.1,2,1.4,2
		C375.4,284,375.6,284.4,375.8,284.8z"/>
	<path fill="#598216" d="M329.7,397.4c0.4-1.7,1.6-1.1,2.5-0.8c6.3,2,12.9,2.9,19.4,2.6c13.3-0.5,25.4-4.3,36.3-12.2
		c5.6-4.1,10.5-8.7,15-13.9c0.4-0.5,0.9-1.6,1.7-0.9c0.7,0.7-0.3,1.3-0.7,1.8c-10.6,12.9-23.6,21.8-40.1,25.2
		c-5.9,1.2-12,2.1-18.1,1.1c-0.5-0.1-1.2-0.1-1.6,0.4c-2.8-0.9-5.8-0.3-8.4-1.4c-0.4-0.5-0.9-0.5-1.3,0c-0.4,0-0.8,0-1.1-0.3
		c-0.3-0.7-0.9-0.5-1.4-0.7l0,0c-0.4-0.7-0.9-0.5-1.4-0.5l0,0C329.9,397.6,329.8,397.5,329.7,397.4L329.7,397.4z"/>
	<path fill="#598216" d="M266.9,309c-0.1,1.7-1.7,2.1-2.8,2.9c-9.1,6.3-15.8,14.6-20.6,24.4c-3.4,7.1-5.4,14.6-6.2,22.5
		c-0.8,7.5,0,15,1.2,22.3c0.1,0.5,0.8,1.3-0.3,1.6c-0.8,0.1-0.8-0.7-0.9-1.2c-1.4-7.1-2.2-14.1-1.6-21.3c0.5-5.3,1.4-10.4,3-15.5
		c2.6-8.1,6.6-15.4,12-21.9c1.3-1.6,2.6-3.2,3.9-4.6c2-2,3.9-3.9,6.2-5.8c1.4-1.3,3.2-2.4,4.7-3.4C265.8,309.1,266.3,309,266.9,309
		L266.9,309z"/>
	<path fill="#68AF0C" d="M375.2,283.6c-1.3-0.1-1.4-0.9-1.4-2C374.6,282,374.8,282.8,375.2,283.6z"/>
	<path fill="#68AF0C" d="M266.9,309c-0.5,0-1.1,0.1-1.4-0.4C265.9,308.6,266.6,308.3,266.9,309z"/>
	<path fill="#68AF0C" d="M330,397.8c0.5,0,1.2-0.1,1.4,0.5C331,398.4,330.4,398.4,330,397.8z"/>
	<path fill="#68AF0C" d="M331.5,398.3c0.5,0,1.2-0.1,1.4,0.7C332.5,398.8,331.9,399,331.5,398.3z"/>
	<path fill="#68AF0C" d="M334.1,399.2c0.5-0.5,0.9-0.5,1.3,0C335,399.2,334.5,399.2,334.1,399.2z"/>
	<path fill="#68AF0C" d="M373.8,281.7c-0.1-0.1-0.4-0.4-0.5-0.5C373.4,281.3,373.7,281.4,373.8,281.7z"/>
	<path fill="#68AF0C" d="M329.5,397.4c0.1,0.1,0.4,0.4,0.5,0.5C329.9,397.6,329.8,397.5,329.5,397.4z"/>
</g>
</svg>
