<?xml version="1.0" encoding="utf-8"?>
<!-- Generator: Adobe Illustrator 18.0.0, SVG Export Plug-In . SVG Version: 6.00 Build 0)  -->
<!DOCTYPE svg PUBLIC "-//W3C//DTD SVG 1.1//EN" "http://www.w3.org/Graphics/SVG/1.1/DTD/svg11.dtd">
<svg version="1.1" id="Layer_1" xmlns="http://www.w3.org/2000/svg" xmlns:xlink="http://www.w3.org/1999/xlink" x="0px" y="0px"
	 viewBox="0 0 640 480" enable-background="new 0 0 640 480" xml:space="preserve">
<path fill="#D92007" d="M141,30.8c0,0-24.8,300.1,172.8,349.8c208-60,172.8-349.8,172.8-349.8S337.6-38.5,141,30.8z"/>
<g>
	<path d="M97.5,400.9h50.7v8.5h-41.4v21.1h38.3v8.1h-38.3v23.6H149v8.3H97.5V400.9z"/>
	<path d="M160.6,400.9h8.5v69.8h-8.5V400.9z"/>
	<path d="M186.3,419.8l13.7,41.4l14.1-41.4h9.3l-19.2,50.9H195l-18.8-50.9H186.3z"/>
	<path d="M262,421.2c3.3,1.7,6,3.9,7.7,6.6c1.7,2.5,2.9,5.6,3.3,8.9c0.4,2.3,0.8,6,0.8,11.2h-37.1c0.2,5.2,1.4,9.3,3.7,12.4
		c2.3,3.1,5.8,4.8,10.6,4.8c4.3,0,7.9-1.4,10.6-4.3c1.4-1.7,2.5-3.7,3.1-6h8.5c-0.2,1.9-1,3.9-2.3,6.2s-2.7,4.1-4.1,5.6
		c-2.5,2.5-5.8,4.1-9.5,5.2c-2.1,0.4-4.3,0.8-6.8,0.8c-6.2,0-11.6-2.3-15.9-6.8s-6.6-11-6.6-19.5c0-8.1,2.3-14.9,6.6-19.9
		c4.3-5.2,10.1-7.7,17.2-7.7C255.2,418.7,258.7,419.6,262,421.2z M265.1,441.1c-0.4-3.7-1.2-6.6-2.5-8.9c-2.3-4.1-6.2-6.2-11.6-6.2
		c-3.9,0-7.2,1.4-9.7,4.3c-2.7,2.9-3.9,6.4-4.1,10.8H265.1z"/>
	<path d="M286.5,405.5h8.7v14.3h8.1v7h-8.1v33.1c0,1.9,0.6,2.9,1.9,3.5c0.6,0.4,1.9,0.6,3.3,0.6c0.4,0,0.8,0,1.2,0
		c0.4,0,1,0,1.7-0.2v6.8c-1,0.2-2.1,0.4-3.1,0.6s-2.3,0.2-3.5,0.2c-3.9,0-6.6-1-8.1-3.1c-1.4-2.1-2.1-4.8-2.1-7.9v-33.7h-6.8v-7h6.8
		V405.5z"/>
	<path d="M311.7,400.9h8.7v9.7h-8.7V400.9z M311.7,420h8.7v50.7h-8.7V420z"/>
	<path d="M367,422.5c3.5,2.7,5.8,7.7,6.4,14.5h-8.3c-0.4-3.1-1.7-5.8-3.5-7.9s-4.8-3.1-8.7-3.1c-5.4,0-9.3,2.7-11.6,8.1
		c-1.4,3.5-2.3,7.7-2.3,12.8c0,5.2,1,9.3,3.3,12.8c2.1,3.5,5.6,5.2,10.1,5.2c3.5,0,6.4-1,8.5-3.3c2.1-2.1,3.5-5.2,4.3-8.9h8.3
		c-1,6.8-3.3,11.6-7,14.7c-3.7,3.1-8.7,4.8-14.5,4.8c-6.6,0-12-2.5-15.9-7.2c-3.9-4.8-6-11-6-18.2c0-8.9,2.1-15.9,6.4-20.9
		c4.3-5,9.9-7.5,16.6-7.5C358.7,418.3,363.5,419.8,367,422.5z"/>
	<path d="M409.2,439.8c1.9-0.2,3.3-1,3.9-2.5c0.4-0.8,0.6-1.9,0.6-3.3c0-2.9-1-5-3.1-6.4c-2.1-1.2-5-2.1-8.9-2.1
		c-4.6,0-7.7,1.2-9.5,3.7c-1,1.2-1.7,3.3-2.1,6h-8.1c0.2-6.2,2.3-10.8,6-13c3.7-2.3,8.5-3.7,13.7-3.7c6,0,10.8,1.2,14.5,3.5
		c3.7,2.3,5.6,5.8,5.6,10.6V462c0,0.8,0.2,1.7,0.6,2.1c0.4,0.6,1,0.8,2.3,0.8c0.4,0,0.8,0,1.2,0c0.4,0,1-0.2,1.4-0.2v6.4
		c-1.2,0.4-2.3,0.6-3.1,0.6c-0.6,0-1.7,0.2-2.9,0.2c-2.9,0-5.2-1-6.4-3.1c-0.6-1-1.2-2.7-1.4-4.8c-1.7,2.3-4.3,4.3-7.5,6
		c-3.3,1.7-6.8,2.5-10.8,2.5c-4.8,0-8.5-1.4-11.6-4.3c-2.9-2.9-4.6-6.4-4.6-10.8c0-4.8,1.4-8.3,4.3-11c2.9-2.7,6.8-4.1,11.6-4.8
		L409.2,439.8z M391.2,463c1.9,1.4,3.9,2.1,6.4,2.1c3.1,0,6-0.6,8.7-2.1c4.8-2.3,7-6,7-11.4v-6.8c-1,0.6-2.5,1.2-3.9,1.7
		c-1.7,0.4-3.3,0.8-4.8,1l-5.2,0.6c-3.1,0.4-5.4,1-7,1.9c-2.7,1.4-3.9,3.9-3.9,7C388.5,459.5,389.5,461.6,391.2,463z"/>
	<path d="M466.3,400.9h9.5v69.8h-9.5V400.9z"/>
	<path d="M542.1,400.9v8.3h-23.6v61.5H509v-61.5h-23.6v-8.3H542.1z"/>
</g>
<g>
	<g>
		<path fill="#FFFFFF" d="M293.5,102.5c9.1,15.9,13.7,38.5,13.7,67.7s-4.6,51.7-13.7,67.5c-9.1,15.7-24.8,23.6-47.4,23.6
			s-38.3-7.9-47.4-23.6S185,199.3,185,170.1s4.6-51.7,13.7-67.7s24.8-23.8,47.4-23.8C268.7,78.7,284.4,86.7,293.5,102.5z
			 M225.6,216.9c3.3,10.8,10.1,16.1,20.5,16.1c10.3,0,17.2-5.4,20.3-16.1c3.3-10.8,4.8-26.3,4.8-46.8c0-21.3-1.7-37.1-4.8-47.4
			c-3.3-10.3-9.9-15.3-20.3-15.3c-10.3,0-17.2,5.2-20.5,15.3c-3.3,10.3-5,26.1-5,47.4C220.4,190.6,222.3,206.2,225.6,216.9z"/>
		<path fill="#FFFFFF" d="M333.7,135v-23.8c11-0.4,18.6-1.2,23-2.3c7-1.4,12.6-4.6,17-9.3c3.1-3.1,5.4-7.5,6.8-12.6
			c0.8-3.1,1.2-5.6,1.2-7h29v177.2h-35.6V135H333.7z"/>
	</g>
</g>
</svg>
