<?xml version="1.0" encoding="utf-8"?>
<!-- Generator: Adobe Illustrator 18.0.0, SVG Export Plug-In . SVG Version: 6.00 Build 0)  -->
<!DOCTYPE svg PUBLIC "-//W3C//DTD SVG 1.1//EN" "http://www.w3.org/Graphics/SVG/1.1/DTD/svg11.dtd">
<svg version="1.1" id="Layer_1" xmlns="http://www.w3.org/2000/svg" xmlns:xlink="http://www.w3.org/1999/xlink" x="0px" y="0px"
	 viewBox="0 0 640 480" enable-background="new 0 0 640 480" xml:space="preserve">
<g>
	<path fill="#515050" d="M232,443.8c0.7-77.9,25.2-147.9,66.5-212.8c4.5-6.9,9.8-12.9-1.1-19.4c-5.6-3.3-2.9-9.4,0.7-13.6
		c6-7.1,4.7-12.5-3.1-17.2c-4.2-2.5-9.1-5.6-4.7-11.4c3.3-4.5,4.9-13.4,13.6-9.4c5.6,2.7,6.2-0.7,7.6-4.5c4-13.2,2-25.9-4-37.7
		c-4.2-8-3.8-14.5,1.6-21.6c10.7-14.7,21.4-29.4,31.7-44.4c5.4-7.8,11.4-9.6,18.3-3.1c7.1,6.7,10.9,4.5,15.8-2.9
		c8.5-13.2,18.1-25.4,26.8-38.4c4.2-6.2,7.8-7.6,14.3-2.7c22.3,16.3,20.5,11.6,6,32.1c-7.1,10.3-14.1,21-22.1,30.8
		c-4.7,5.8-2.9,8.3,2.2,12c22.3,16.3,22.3,16.5,38.4-6.2c6-8.5,12.3-16.7,18.1-25.4c4-6.2,7.6-7.8,14.3-2.9
		c21.6,16.5,21.4,10.3,5.6,32.8c-7.1,10.3-14.3,20.7-22.1,30.8c-3.6,4.7-2.7,7.1,1.8,10.5c12.9,9.6,12.7,10.3,3.3,23.6
		c-9.6,13.6-19.6,27-28.8,41c-4.7,7.1-10.3,9.8-18.7,8.9c-12.9-1.6-25.2,0.2-36.4,7.1c-3.8,2.5-8.7,4.2-2.9,10.7
		c5.6,6.2-2,10.5-4.9,15.2c-3.3,5.4-7.8,2.9-11.4,0c-7.8-6.7-13.8-5.6-19,3.3c-3.3,5.6-8.5,7.4-14.1,3.1c-4.7-3.8-6.9-1.8-9.6,2.2
		C280,290.3,255,349.9,250.5,416.8c-1.1,17.8-2.5,35.5-1.8,53.3c0.2,6.5-2.2,8.3-8.3,8c-5.6-0.2-9.1-0.7-8.9-7.6
		C232.2,461.7,232,452.7,232,443.8z M468.5,69.7c4.2-0.7,6.9-2.7,6.7-7.1c-0.2-3.8-2.2-6-6.2-6s-6.2,2.2-6.7,5.8
		C461.6,66.6,464.2,69,468.5,69.7z M418.3,22.2c-0.2-3.3-2.2-5.8-6-6c-4.2-0.2-7.1,1.8-7.1,6.2c-0.2,4,2.7,6.5,6,6.7
		C414.9,29.6,417.6,26.9,418.3,22.2z"/>
	<path fill="#88A62C" d="M334.2,368c-21.2,3.6-41,6-61.1,5.6c-10-0.2-10.3-4-6.9-11.6c5.8-13.4,16.1-21.9,28.6-28.8
		c19.6-10.7,41-14.7,62.9-17.2c20.5-2.2,39.9-8.3,58-18.3c6.9-3.8,8.3-1.8,7.6,5.1c-5.8,48.2-27.9,86.6-68.9,112.9
		c-19,12-40.2,12-61.1,4.7c-7.8-2.7-14.5-7.4-19.9-13.8c-4.5-5.6-10-12-8.3-18.7c1.8-6.9,10.3-3.3,15.6-4.2
		c15.4-2.7,30.8-4.9,45.5-10C328.6,372.9,331.7,372.9,334.2,368z M337.3,369.3c0.7-0.2,1.6-0.4,1.8-0.9c0.4-1.3-0.4-1.8-1.6-1.3
		c-0.7,0.2-1.1,0.7-1.8,1.1C336.4,368.4,336.9,368.9,337.3,369.3z"/>
	<path fill="#88A62C" d="M200.3,274.3c8.3,16.3,19.2,30.8,31.7,44.2c4.9,5.1,4,7.6-1.8,10.5c-14.7,7.1-29,5.4-42.6-2.2
		c-20.7-11.6-33-29.4-35.9-53.1c-5.1-40.2,4.5-76.5,28.8-108.9c0.7-0.9,1.3-1.8,2.2-2.5c0.4-0.4,1.3-0.4,2.9-1.1
		c7.8,28.1,25.9,50.2,43.9,72.3c11.4,13.8,19,30.1,22.3,48c0.4,2.5,0.9,5.1,0.9,7.8c0.2,9.1,0,20.3-7.6,24.3
		c-5.4,2.9-11.6-7.1-16.5-12.3c-9.1-9.1-17.4-19.2-26.1-29c-0.9-0.7-2-1.8-2.2-1.6C198.8,271.6,199.7,272.9,200.3,274.3z M196.1,268
		c0.7,0.4,1.1,0.9,1.8,1.1c1.8,0.7,1.6-0.7,1.3-1.6c0-0.4-1.1-0.9-1.6-0.9C197,266.9,196.5,267.6,196.1,268z"/>
	<path fill="#FEFEFE" d="M468.5,69.7c-4-0.7-6.7-3.1-6.5-7.4c0.2-3.6,2.7-5.8,6.7-5.8c4,0,6,2.5,6.2,6C475.2,67,472.5,69,468.5,69.7
		z"/>
	<path fill="#FEFEFE" d="M418.3,22.2c-0.7,4.7-3.3,7.1-7.4,6.9c-3.3-0.2-6-2.7-6-6.7c0.2-4.5,2.9-6.5,7.1-6.2
		C416.1,16.4,418.1,18.9,418.3,22.2z"/>
	<path fill="#FEFEFE" d="M337.3,369.3c-0.4-0.4-1.1-0.9-1.6-1.1c0.7-0.4,1.1-0.9,1.8-1.1c1.1-0.4,2,0.2,1.6,1.3
		C339.1,368.9,338,368.9,337.3,369.3z"/>
	<path fill="#FEFEFE" d="M196.1,268c0.4-0.4,0.9-1.1,1.6-1.1c0.4,0,1.6,0.4,1.6,0.9c0.2,0.9,0.2,2.2-1.3,1.6
		C197.2,268.9,196.5,268.5,196.1,268z"/>
	<path fill="#FEFEFE" d="M200.3,274.3c-0.7-1.3-1.6-2.7,0.2-3.6c0.4-0.2,1.6,1.1,2.2,1.6C201.9,272.9,201.2,273.6,200.3,274.3z"/>
</g>
</svg>
