<?xml version="1.0" encoding="utf-8"?>
<!-- Generator: Adobe Illustrator 18.0.0, SVG Export Plug-In . SVG Version: 6.00 Build 0)  -->
<!DOCTYPE svg PUBLIC "-//W3C//DTD SVG 1.1//EN" "http://www.w3.org/Graphics/SVG/1.1/DTD/svg11.dtd">
<svg version="1.1" id="Layer_1" xmlns="http://www.w3.org/2000/svg" xmlns:xlink="http://www.w3.org/1999/xlink" x="0px" y="0px"
	 viewBox="0 0 640 480" enable-background="new 0 0 640 480" xml:space="preserve">
<g>
	<path fill="#525251" d="M231.8,444.6c0.1-51.5,10.8-100.7,31-148c10.3-24.2,22.8-47.1,37.1-69.1c0.9-1.4,1.7-2.8,2.3-4.3
		c1.2-2.9,0.9-5.7-1.2-8.1c-0.9-1-1.9-1.8-3.1-2.6c-5.2-3.5-5.8-6.6-2.3-11.9c1.1-1.6,2.4-3.2,3.5-4.8c2.9-4.5,2.4-8.5-1.7-12.3
		c-1.9-1.7-4.2-2.7-6.2-4.3c-3.9-2.8-4.3-5.2-1.7-9.1c1.4-1.9,2.4-4.1,3.6-6.1c2.5-4.1,5.2-5,9.6-3.2c4.3,1.8,5.8,1.2,7.3-3.2
		c4.5-13.3,2.7-26-3.4-38.2c-1.2-2.5-2.4-5.1-2.8-7.9c-0.7-4.9,0.9-9.2,3.7-13c10.8-14.9,21.6-29.7,32-44.9c0.8-1.2,1.8-2.4,2.8-3.4
		c4.1-4.1,8.7-4.2,13.3-0.6c1.6,1.2,3.1,2.7,4.8,3.9c3.3,2.2,6.2,1.8,9-0.9c3.6-3.7,5.9-8.4,9-12.5c7.5-10.5,15-21.2,22.5-31.6
		c3.1-4.2,6.2-4.9,10.5-2c5.2,3.4,10.4,7,15.2,11c4.3,3.6,4.5,5.6,1.2,10.1c-4.9,6.8-9.9,13.5-14.5,20.5
		c-5.1,7.6-10.4,15.1-16.2,22.2c-3.4,4.3-3.2,6.9,1.1,10.4c5.2,4.1,10.4,8.2,16.3,11.1c4.9,2.5,8.2,1.9,12-1.9
		c4.2-4.2,7.4-9.2,10.9-14.1c6.4-8.8,12.8-17.7,18.9-26.7c3.5-5.2,7-5.7,12.1-2.2c4.8,3.4,9.5,6.8,14.2,10.3c4,3.1,4.4,5,1.7,9.1
		c-5,7.4-10.2,14.5-15.3,21.8c-5.2,7.5-10.4,14.9-16,22c-3.3,4.3-2.9,6.6,1.2,10c2.3,1.8,4.7,3.6,6.9,5.6c4.1,3.4,4.7,5.9,1.9,10.4
		c-3.6,6.2-8.1,11.9-12.3,17.7c-7.1,10-14.4,20-21.1,30.3c-4.5,7-10.8,10-19.3,9c-13.5-1.7-26.2,0.8-37.7,8.5
		c-3.7,2.5-4.4,4.8-1.4,8.2c4.3,4.8,3.3,7.6-0.9,12.3c-1.1,1.2-2.2,2.6-3.2,4c-2.3,3.2-4.5,3.7-8.1,1.9c-1.7-0.9-3.1-2.2-4.7-3.3
		c-6.4-4.8-11.7-3.9-16.1,2.7c-0.9,1.2-1.6,2.6-2.6,3.9c-3.4,4-7.5,4.4-11.8,1.5c-5-3.5-6.8-3.2-10.2,2
		c-20.2,31.6-37.3,64.9-48.9,100.7c-8.8,27.5-14.1,55.7-15.8,84.5c-0.9,16.2-1.8,32.3-1.5,48.7c0.1,4.7-1.9,6.6-6.6,6.6
		c-1.6,0-3.3,0-4.9-0.2c-3.6-0.5-5.2-2.3-5.3-5.9c0-2.5,0.2-4.9,0.2-7.4C231.8,456,231.8,450.3,231.8,444.6z M402.7,25.2
		c0,3.9,2.6,6.5,6.5,6.5c3.7,0,6.7-3.2,6.7-7c0-3.4-2.8-5.8-6.7-5.9C405,18.7,402.7,21,402.7,25.2z M459,65c0,3.6,2.9,6.7,6.5,6.7
		c3.5,0,6.5-2.9,6.5-6.5c0-4.1-2.3-6.5-6.4-6.5C461.5,58.6,459,61,459,65z"/>
	<path fill="#88A63D" d="M331.3,359.5c-3.3,2-6.2,4-9.3,5.9c-14.6,9.2-29.6,17.7-45.7,24c-0.1,0-0.2,0.1-0.3,0.1
		c-4.9,1.8-7.8-0.1-8.2-5.3c-0.8-11.8,2.5-22.6,8.6-32.6c8.2-13.2,19.1-23.6,31.3-32.8c8.1-6,16.7-11.2,25.3-16.3
		c17-10,31.6-22.6,43.7-38.2c1-1.4,2-2.7,3.4-3.7c1.9-1.6,2.9-1.5,4.4,0.5c1.7,2.5,2.2,5.4,2.9,8.3c4.2,15.1,6.6,30.4,6.4,46.1
		c-0.3,29.5-9.5,56.3-26.2,80.5c-8.2,11.7-19.3,19.3-32.9,23.5c-8.5,2.6-17.2,4.2-26.2,3.6c-10.3-0.7-19.3-5-27.3-11.1
		c-2.3-1.7-3.6-4.1-4.2-6.9c-0.6-2.5,0.3-4.4,2.5-5.8c0.7-0.5,1.2-0.9,2-1.1c8.5-2.6,15.2-8.4,22.6-13c8.7-5.6,16.7-12.1,24.5-18.9
		C330.3,364.6,331.4,362.5,331.3,359.5z M333,358.8c1.2,0.9,2.3,0.7,3.1-0.6c0.3-0.6,0.2-1.2-0.3-1.4
		C333.9,356.3,333.5,357.8,333,358.8z"/>
	<path fill="#88A63D" d="M248.1,290.4c0,10.4-1.5,20.5-6.2,29.8c-1.2,2.5-2.9,4.8-5.2,6.5c-4.2,2.9-7.7,2.3-10.3-2
		c-0.8-1.4-1.6-2.7-2.2-4.1c-6.5-13.7-13.6-27.2-19.7-41.2c-0.5-0.9-0.8-1.9-1.2-2.8c-0.3-0.6-0.8-1.2-1.7-0.9c-0.8,0.3-1.2,1-1,1.8
		c0.3,1.8,0.7,3.6,1.1,5.3c3.5,16.4,9.6,31.9,17.2,46.8c3.1,6,1.8,8.3-5,9.3c-13.7,2.2-25.6-1.6-36-10.7
		c-11.9-10.5-20.1-23.5-22.9-39.5c-1.5-8.1-1.2-16.1,0-24.2c1.2-8.1,3.1-15.9,5.4-23.6c5.2-16.3,13.2-31.4,23.8-44.8
		c8.2-10.3,17.7-19.3,28.2-27.2c1.2-0.9,2.5-1.6,4.1-1.5c0.9,0,1.2,0.3,1.2,1.2c0,22.3,6.9,43,15.1,63.3c4,9.9,8.7,19.4,11.6,29.7
		C246.9,271.3,248.1,280.8,248.1,290.4z M201.5,272.8c-0.2-0.9-0.7-1.6-1.6-1.6c-0.6,0-1.6,0.1-1.5,1c0.2,0.9,0.9,1.8,1.9,2
		C201.3,274.4,201.4,273.5,201.5,272.8z"/>
	<path fill="#FEFEFE" d="M402.7,25.2c0-4.1,2.4-6.5,6.5-6.5c3.9,0,6.7,2.5,6.7,5.9c0,3.9-2.9,7-6.7,7
		C405.2,31.6,402.7,29,402.7,25.2z"/>
	<path fill="#FEFEFE" d="M459,65c0-3.9,2.5-6.2,6.6-6.2c4.1,0,6.4,2.4,6.4,6.5c0,3.5-2.9,6.5-6.5,6.5C462,71.7,459,68.6,459,65z"/>
	<path fill="#FEFEFE" d="M333,358.8c0.7-1,1-2.5,2.6-1.9c0.6,0.1,0.8,0.8,0.3,1.4C335.2,359.5,334.2,359.7,333,358.8z"/>
	<path fill="#FEFEFE" d="M201.5,272.8c-0.1,0.7-0.2,1.6-1.1,1.5c-1-0.2-1.7-1.1-1.9-2s0.8-1,1.5-1
		C200.8,271.2,201.4,271.9,201.5,272.8z"/>
</g>
</svg>
