<?xml version="1.0" encoding="utf-8"?>
<!-- Generator: Adobe Illustrator 18.0.0, SVG Export Plug-In . SVG Version: 6.00 Build 0)  -->
<!DOCTYPE svg PUBLIC "-//W3C//DTD SVG 1.1//EN" "http://www.w3.org/Graphics/SVG/1.1/DTD/svg11.dtd">
<svg version="1.1" id="Layer_1" xmlns="http://www.w3.org/2000/svg" xmlns:xlink="http://www.w3.org/1999/xlink" x="0px" y="0px"
	 viewBox="0 0 640 480" enable-background="new 0 0 640 480" xml:space="preserve">
<g>
	<polygon fill="#FFFFFF" stroke="#000000" stroke-width="6" stroke-miterlimit="10" points="282,305 244.3,239.5 282,174 357.5,174 
		395.2,239.5 357.5,305 	"/>
	<polygon fill="#FFFFFF" stroke="#000000" stroke-width="6" stroke-miterlimit="10" points="282,175 244.3,109.5 282,44 357.5,44 
		395.2,109.5 357.5,175 	"/>
	<polygon fill="#FFFFFF" stroke="#000000" stroke-width="6" stroke-miterlimit="10" points="169,240 131.3,174.5 169,109 244.5,109 
		282.2,174.5 244.5,240 	"/>
	<polygon fill="#FFFFFF" stroke="#000000" stroke-width="6" stroke-miterlimit="10" points="395,239 357.3,173.5 395,108 470.5,108 
		508.2,173.5 470.5,239 	"/>
	<polygon fill="#FFFFFF" stroke="#000000" stroke-width="6" stroke-miterlimit="10" points="395,370 357.3,304.5 395,239 470.5,239 
		508.2,304.5 470.5,370 	"/>
	<polygon fill="#FFFFFF" stroke="#000000" stroke-width="6" stroke-miterlimit="10" points="282,436 244.3,370.5 282,305 357.5,305 
		395.2,370.5 357.5,436 	"/>
	<polygon fill="#FFFFFF" stroke="#000000" stroke-width="6" stroke-miterlimit="10" points="169,371 131.3,305.5 169,240 244.5,240 
		282.2,305.5 244.5,371 	"/>
	<circle stroke="#FFFFFF" stroke-miterlimit="10" cx="357.5" cy="173.5" r="8.5"/>
	<circle stroke="#FFFFFF" stroke-miterlimit="10" cx="282.5" cy="174.5" r="8.5"/>
	<circle stroke="#FFFFFF" stroke-miterlimit="10" cx="244.5" cy="239.5" r="8.5"/>
	<circle stroke="#FFFFFF" stroke-miterlimit="10" cx="282.5" cy="305.5" r="8.5"/>
	<circle stroke="#FFFFFF" stroke-miterlimit="10" cx="395.5" cy="107.5" r="8.5"/>
	<circle stroke="#FFFFFF" stroke-miterlimit="10" cx="470.5" cy="108.5" r="8.5"/>
	<circle stroke="#FFFFFF" stroke-miterlimit="10" cx="508.5" cy="174.5" r="8.5"/>
	<circle stroke="#FFFFFF" stroke-miterlimit="10" cx="470.5" cy="240.5" r="8.5"/>
	<circle stroke="#FFFFFF" stroke-miterlimit="10" cx="508.5" cy="306.5" r="8.5"/>
	<circle stroke="#FFFFFF" stroke-miterlimit="10" cx="470.5" cy="372.5" r="8.5"/>
	<circle stroke="#FFFFFF" stroke-miterlimit="10" cx="395.5" cy="370.5" r="8.5"/>
	<circle stroke="#FFFFFF" stroke-miterlimit="10" cx="357.5" cy="436.5" r="8.5"/>
	<circle stroke="#FFFFFF" stroke-miterlimit="10" cx="282.5" cy="435.5" r="8.5"/>
	<circle stroke="#FFFFFF" stroke-miterlimit="10" cx="131.5" cy="305.5" r="8.5"/>
	<circle stroke="#FFFFFF" stroke-miterlimit="10" cx="169.5" cy="239.5" r="8.5"/>
	<circle stroke="#FFFFFF" stroke-miterlimit="10" cx="131.5" cy="174.5" r="8.5"/>
	<circle stroke="#FFFFFF" stroke-miterlimit="10" cx="169.5" cy="108.5" r="8.5"/>
	<circle stroke="#FFFFFF" stroke-miterlimit="10" cx="244.5" cy="109.5" r="8.5"/>
	<circle stroke="#FFFFFF" stroke-miterlimit="10" cx="282.5" cy="43.5" r="8.5"/>
	<circle stroke="#FFFFFF" stroke-miterlimit="10" cx="357.5" cy="44.5" r="8.5"/>
	<circle stroke="#FFFFFF" stroke-miterlimit="10" cx="244.5" cy="371.5" r="8.5"/>
	<circle stroke="#FFFFFF" stroke-miterlimit="10" cx="169.5" cy="370.5" r="8.5"/>
	<circle stroke="#FFFFFF" stroke-miterlimit="10" cx="395.5" cy="239.5" r="8.5"/>
	<circle stroke="#FFFFFF" stroke-miterlimit="10" cx="357.5" cy="305.5" r="8.5"/>
</g>
</svg>
