<?xml version="1.0" encoding="utf-8"?>
<!-- Generator: Adobe Illustrator 18.1.0, SVG Export Plug-In . SVG Version: 6.00 Build 0)  -->
<svg version="1.1" id="Layer_1" xmlns="http://www.w3.org/2000/svg" xmlns:xlink="http://www.w3.org/1999/xlink" x="0px" y="0px"
	 viewBox="0 0 640 480" enable-background="new 0 0 640 480" xml:space="preserve">
<g>
	<path fill="#544E68" d="M331.3,216.8l-20.8-6.8c-1.2-0.4-1.9-1.6-1.6-2.9c0.3-1.2-0.1-2.5-2-3.9c-0.5-0.4-1.1-0.7-1.5-1.1
		c-0.5,0.8-1.3,1.5-2.3,1.9l-24,13.9c0,0-4.7,2.8-6.9-0.7l16.3-14.5c0.9-0.8,2.4-0.8,3.3,0c0.9,0.8,2.3,1.2,4.3,0.1
		c0.7-0.3,1.3-0.5,1.9-0.8c-0.3-0.5-0.5-1.3-0.5-2h0.7h0.7v-28.4c0,0-0.8-5.5,3.3-5.7l4.1,21.3c0.3,1.2-0.7,2.4-1.9,2.8
		c-1.2,0.4-2.1,1.3-2.4,3.6c0,0.7-0.1,1.3-0.3,2c0.7,0,1.3,0.1,2,0.5l0,0l24.5,14.3C328.3,210.5,333,213.2,331.3,216.8z M345.4,200
		c0,24.1-19.6,43.7-43.7,43.7s-43.7-19.6-43.7-43.7c0-24.1,19.6-43.7,43.7-43.7S345.4,176,345.4,200z M335.7,200
		c0-18.8-15.2-34-34-34c-18.8,0-34,15.2-34,34s15.2,34,34,34C320.5,234,335.7,218.8,335.7,200z"/>
	<path fill="#544E68" d="M111.1,141.7c-10.1,0-18.4-4.3-25.6-11.3c-7.1-7.1-10.5-15.9-10.5-26.1c0-10.1,3.5-18.3,10.5-25.5
		c7.2-7.2,15.6-10.5,25.6-10.5h27.6c1.2,0,2.3-0.1,3.3,0.3s2,0.9,2.8,1.7c0.8,0.8,1.5,1.6,1.9,2.7c0.4,1.1,0.7,2.1,0.7,3.3
		c0,1.2-0.3,2.3-0.7,3.3c-0.4,1.1-1.1,2-1.9,2.8c-0.8,0.8-1.7,1.7-2.8,2.1s-2.1,0.9-3.3,0.9h-27.6c-5.2,0-9.6,1.6-13.3,5.2
		c-3.6,3.6-5.5,7.9-5.5,13.1c0,5.1,1.9,9.6,5.5,13.3c3.9,3.7,8.3,5.6,13.3,5.6h19.6v-9.3h-19.6c-2.4,0-4.3-1.3-6-3.1s-2.5-4-2.5-6.4
		c0-1.2,0.3-2.4,0.7-3.5c0.4-1.1,1.1-2.1,1.9-2.9c0.8-0.8,1.6-1.5,2.7-2c1.1-0.4,2.1-0.8,3.3-0.8h27.6c1.2,0,2.3,0.3,3.3,0.8
		c1.1,0.4,2,1.1,2.8,1.9c0.8,0.8,1.7,1.7,2.3,2.8c0.4,1.1,1.1,2.1,1.1,3.3V131c0,1.2-0.5,2.4-1.1,3.3c-0.4,1.1-1.3,2-2.1,2.8
		c-0.8,0.8-1.9,2.1-2.9,2.7c-1.1,0.4-2.3,1.5-3.5,1.5h-27.5V141.7z"/>
	<path fill="#544E68" d="M169.9,140.2c-2.4,0-3.6-0.8-5.3-2.5c-1.7-1.7-1.9-3.7-1.9-6.1V104c0-10.1,2.8-18.1,9.9-25.2
		c7.2-7.2,14.9-10.3,24.9-10.3h27.6c1.2,0,2.3-0.1,3.3,0.3s2,0.9,2.8,1.7c0.8,0.8,1.5,1.6,1.9,2.7c0.4,1.1,0.7,2.1,0.7,3.3
		s-0.3,2.3-0.7,3.3c-0.4,1.1-1.1,2-1.9,2.8c-0.8,0.8-1.7,1.7-2.8,2.1c-1.1,0.4-2.1,0.9-3.3,0.9h-27.6c-5.2,0-9.6,1.6-13.3,5.2
		c-3.6,3.6-5.5,7.7-5.5,12.9v27.6c0,1.2-0.3,2.4-0.7,3.5c-0.4,1.1-1.1,2-1.9,2.8c-0.8,0.8-1.7,1.3-2.8,1.9
		C172.3,140,171.3,140.2,169.9,140.2z"/>
	<path fill="#544E68" d="M277.9,141.7c-10.1,0-18.4-4.3-25.6-11.3c-7.1-7.1-10.5-15.9-10.5-26.1c0-10.1,3.5-18.3,10.5-25.5
		c7.2-7.2,15.6-10.5,25.6-10.5h27.5c1.2,0,2.3-0.1,3.3,0.3c1.1,0.4,2,0.9,2.8,1.7s1.5,1.6,1.9,2.7s0.7,2.1,0.7,3.3
		c0,1.2-0.3,2.3-0.7,3.3c-0.4,1.1-1.1,2-1.9,2.8c-0.8,0.8-1.7,1.7-2.8,2.1c-1.1,0.4-2.1,0.9-3.3,0.9h-27.6c-5.2,0-9.6,1.6-13.3,5.2
		c-3.6,3.6-5.5,7.9-5.5,13.1c0,5.1,1.9,9.6,5.5,13.3c3.9,3.7,8.3,5.6,13.3,5.6h27.6c1.2,0,2.3,0,3.3,0.5c1.1,0.4,2,1.1,2.8,1.9
		c0.8,0.8,1.5,1.7,1.9,2.8c0.4,1.1,0.7,2.1,0.7,3.3c0,1.2-0.3,2.4-0.7,3.3c-0.4,1.1-1.1,2-1.9,2.8c-0.8,0.8-1.7,2.1-2.8,2.7
		c-1.1,0.4-2.1,1.5-3.3,1.5h-27.5V141.7z M277.9,112.6c-2.4,0-4.3-0.8-6-2.5c-1.7-1.7-2.5-3.7-2.5-6.1c0-1.2,0.3-2.3,0.7-3.3
		c0.4-1.1,1.1-2,1.9-2.8s1.6-1.5,2.7-1.9c1.1-0.4,2.1-0.7,3.3-0.7s2.3,0.3,3.3,0.7c1.1,0.4,2,1.1,2.8,1.9c0.8,0.8,1.5,1.7,1.9,2.8
		c0.4,1.1,0.7,2.1,0.7,3.3s-0.3,2.4-0.7,3.3c-0.4,1.1-1.1,2-1.9,2.8c-0.8,0.8-1.7,1.5-2.8,1.9C280.2,112.4,279.1,112.6,277.9,112.6z
		"/>
	<path fill="#544E68" d="M363.1,141.7c-10.1,0-18.4-4.3-25.6-11.3c-7.1-7.1-10.5-15.9-10.5-26.1c0-10.1,3.5-18.3,10.5-25.5
		c7.2-7.2,15.6-10.5,25.6-10.5h27.6c1.2,0,2.3-0.1,3.3,0.3c1.1,0.4,2,0.9,2.8,1.7c0.8,0.8,1.5,1.6,1.9,2.7c0.4,1.1,0.7,2.1,0.7,3.3
		c0,1.2-0.3,2.3-0.7,3.3c-0.4,1.1-1.1,2-1.9,2.8c-0.8,0.8-1.7,1.7-2.8,2.1c-1.1,0.4-2.1,0.9-3.3,0.9h-27.6c-5.2,0-9.6,1.6-13.3,5.2
		c-3.6,3.6-5.5,7.9-5.5,13.1c0,5.1,1.9,9.6,5.5,13.3c3.9,3.7,8.3,5.6,13.3,5.6h27.6c1.2,0,2.3,0,3.3,0.5c1.1,0.4,2,1.1,2.8,1.9
		c0.8,0.8,1.5,1.7,1.9,2.8c0.4,1.1,0.7,2.1,0.7,3.3c0,1.2-0.3,2.4-0.7,3.3c-0.4,1.1-1.1,2-1.9,2.8c-0.8,0.8-1.7,2.1-2.8,2.7
		c-1.1,0.4-2.1,1.5-3.3,1.5h-27.6V141.7z M363.1,112.6c-2.4,0-4.3-0.8-6-2.5c-1.7-1.7-2.5-3.7-2.5-6.1c0-1.2,0.3-2.3,0.7-3.3
		c0.4-1.1,1.1-2,1.9-2.8c0.8-0.8,1.6-1.5,2.7-1.9c1.1-0.4,2.1-0.7,3.3-0.7s2.3,0.3,3.3,0.7c1.1,0.4,2,1.1,2.8,1.9
		c0.8,0.8,1.5,1.7,1.9,2.8c0.4,1.1,0.7,2.1,0.7,3.3s-0.3,2.4-0.7,3.3c-0.4,1.1-1.1,2-1.9,2.8c-0.8,0.8-1.7,1.5-2.8,1.9
		C365.4,112.4,364.3,112.6,363.1,112.6z"/>
	<path fill="#544E68" d="M477.1,140.2c-2.4,0-3.9-0.8-5.6-2.5c-1.7-1.7-2.1-3.7-2.1-6.1V104c0-5.1-2.3-9.6-6-13.2
		c-3.7-3.7-8.4-5.6-13.6-5.6c-5.2,0-9.1,1.9-12.8,5.6c-3.6,3.6-4.9,8.1-4.9,13.2v27.6c0,1.2-0.8,2.4-1.3,3.5c-0.4,1.1-1.3,2-2.1,2.8
		s-1.9,1.3-2.9,1.9c-1.1,0.4-2.3,0.7-3.6,0.7c-2.4,0-4.4-0.8-6.1-2.5c-1.7-1.7-2.7-3.7-2.7-6.1v-27.6c0-10.1,3.5-18.4,10.5-25.6
		c7.2-7.2,15.6-10.7,25.6-10.7c10.1,0,18.9,3.5,26,10.7c7.2,7.2,11.2,15.5,11.2,25.6v27.6c0,1.2-0.7,2.4-1.1,3.3
		c-0.4,1.1-1.3,2-2.1,2.8c-0.8,0.8-1.9,1.5-2.9,1.9C479.5,140,478.3,140.2,477.1,140.2z"/>
	<path fill="#544E68" d="M109.9,232.4c-2.4,0-4.3-0.9-6-2.7c-1.7-1.7-2.5-3.9-2.5-6.3v-27.6c0-1.2,0.1-2.3,0.7-3.3
		c0.4-1.1,1.1-2,1.9-2.8c0.8-0.8,1.6-1.5,2.7-1.9c1.1-0.4,2.1-0.7,3.3-0.7s2.3,0.3,3.3,0.7c1.1,0.4,2,1.1,2.8,1.9s2.1,1.7,2.7,2.8
		c0.4,1.1,1.3,2.1,1.3,3.3V215h17.3c5.1,0,9.6-2,13.3-5.6c3.7-3.6,5.6-8.1,5.6-13.5c0-5.1-1.9-9.3-5.6-12.9
		c-3.7-3.7-8.1-5.3-13.3-5.3h-27.5c-2.4,0-4.4-1.2-6-2.9c-1.7-1.7-2.5-3.9-2.5-6.3c0-1.2,0.3-2.4,0.7-3.5c0.4-1.1,1.1-2.1,1.9-2.9
		c0.8-0.8,1.6-1.1,2.7-1.5c1.1-0.4,2.1-0.3,3.3-0.3h27.5c10.1,0,18.4,3.1,25.6,10.3c7.2,7.2,10.7,15.3,10.7,25.3
		c0,10.1-3.5,18.5-10.7,25.7c-7.1,7.1-15.5,10.5-25.6,10.5h-27.5V232.4z"/>
	<path fill="#544E68" d="M196.3,232.1c-2.4,0-3.5-0.8-5.2-2.5c-1.7-1.7-1.7-3.7-1.7-6.1v-27.6c0-10.1,2.7-18.1,9.7-25.2
		c7.2-7.2,14.7-10.3,24.7-10.3h27.6c1.2,0,2.3-0.1,3.3,0.3c1.1,0.4,2,0.9,2.8,1.7c0.8,0.8,1.5,1.6,1.9,2.7c0.4,1.1,0.7,2.1,0.7,3.3
		c0,1.2-0.3,2.4-0.7,3.3c-0.4,1.1-1.1,2-1.9,2.8c-0.8,0.8-1.7,1.7-2.8,2.3c-1.1,0.4-2.1,0.9-3.3,0.9h-27.6c-5.2,0-9.5,1.6-13.2,5.2
		c-3.6,3.6-5.3,7.7-5.3,12.9v27.6c0,1.2-0.4,2.4-0.8,3.5c-0.4,1.1-1.2,2-1.9,2.8c-0.8,0.8-1.7,1.3-2.8,1.9
		C198.7,232,197.5,232.1,196.3,232.1z"/>
	<path fill="#544E68" d="M418.2,232.1c-2.4,0-3.7-0.8-5.5-2.5c-1.7-1.7-2-3.7-2-6.1v-27.6c0-5.1-2.4-9.6-6.1-13.2
		c-3.7-3.7-8.5-5.6-13.6-5.6c-5.2,0-9.7,1.9-13.3,5.6c-3.6,3.6-5.5,8.1-5.5,13.2v27.6c0,1.2-0.3,2.4-0.8,3.5c-0.4,1.1-1.1,2-1.9,2.8
		s-1.7,1.3-2.8,1.9c-1.1,0.4-2.3,0.7-3.5,0.7c-2.4,0-4.3-0.8-6-2.5s-2.4-3.7-2.4-6.1V196c0-10.1,3.3-18.4,10.5-25.6
		c7.2-7.2,15.5-10.7,25.5-10.7c10.1,0,18.3,3.5,25.5,10.7c7.2,7.2,10.5,15.5,10.5,25.6v27.6c0,1.2-0.1,2.4-0.5,3.3
		c-0.4,1.1-1.1,2-1.9,2.8c-0.8,0.8-1.7,1.5-2.8,1.9C420.5,232,419.4,232.1,418.2,232.1z"/>
	<path fill="#544E68" d="M477.1,232.4c-10.1,0-18.4-3.6-25.6-10.7c-7.1-7.1-10.5-15.6-10.5-25.7c0-10.1,3.5-18.1,10.5-25.2
		c7.2-7.2,15.6-10.4,25.6-10.4h27.6c1.2,0,2.3-0.1,3.3,0.3c1.1,0.4,2,0.9,2.8,1.7c0.8,0.8,1.5,1.6,1.9,2.7s0.7,2.1,0.7,3.3
		c0,1.2-0.3,2.4-0.7,3.3c-0.4,1.1-1.1,2-1.9,2.8c-0.8,0.8-1.7,1.7-2.8,2.3c-1.1,0.4-2.1,0.9-3.3,0.9h-27.6c-5.2,0-9.6,1.6-13.3,5.2
		c-3.6,3.6-5.5,7.9-5.5,13.1c0,5.1,1.9,9.6,5.5,13.5c3.9,3.7,8.3,5.6,13.3,5.6h27.6c1.2,0,2.3,0,3.3,0.5c1.1,0.4,2,0.9,2.8,1.9
		c0.8,0.8,1.5,1.7,1.9,2.8c0.4,1.1,0.7,2.1,0.7,3.3c0,1.2-0.3,2.4-0.7,3.3c-0.4,1.1-1.1,2-1.9,2.8c-0.8,0.8-1.7,1.6-2.8,2
		c-1.1,0.4-2.1,0.8-3.3,0.8h-27.6V232.4z M477.1,204.6c-2.4,0-4.3-0.8-6-2.5c-1.7-1.7-2.5-3.7-2.5-6.1c0-1.2,0.3-2.3,0.7-3.3
		c0.4-1.1,1.1-2,1.9-2.8c0.8-0.8,1.6-1.5,2.7-1.9s2.1-0.7,3.3-0.7c1.2,0,2.3,0.3,3.3,0.7s2,1.1,2.8,1.9c0.8,0.8,1.5,1.7,1.9,2.8
		c0.4,1.1,0.7,2.1,0.7,3.3c0,1.2-0.3,2.4-0.7,3.3c-0.4,1.1-1.1,2-1.9,2.8c-0.8,0.8-1.7,1.5-2.8,1.9
		C479.4,204.4,478.2,204.6,477.1,204.6z"/>
	<path fill="#544E68" d="M228.2,344.8c-11.9,0-21.6-4-30-12.4c-8.4-8.4-12.4-18.1-12.4-30.1c0-11.9,4-21.6,12.4-30
		c8.4-8.4,18.3-12.5,30-12.5c11.9,0,21.6,4.1,30,12.5c8.4,8.4,12.5,18.1,12.5,30c0,11.9-4.1,21.7-12.5,30.1
		C249.8,340.8,239.9,344.8,228.2,344.8z M228.2,280.2c-6,0-11.3,2.1-15.6,6.5c-4.3,4.3-6.4,9.5-6.4,15.5c0,6,2.1,11.2,6.4,15.6
		c4.5,4.3,9.7,6.4,15.7,6.4s11.2-2.1,15.6-6.4c4.4-4.1,6.5-9.5,6.5-15.7c0-6-2.1-11.2-6.5-15.5C239.5,282.5,234.2,280.2,228.2,280.2
		z"/>
	<path fill="#544E68" d="M297.1,344.8c-2.8,0-5.3-0.9-7.3-3.1c-2-2-3.3-4.4-3.3-7.2v-32.1c0-11.9,4.4-21.7,12.7-30
		c8.4-8.4,18.5-12.5,30.3-12.5h32.3c1.3,0,2.7,0.3,3.9,0.8c1.2,0.5,2.4,1.3,3.3,2.3s1.7,2,2.3,3.3c0.5,1.2,0.8,2.5,0.8,3.9
		c0,1.5-0.3,2.8-0.8,4c-0.5,1.2-1.3,2.3-2.3,3.3c-0.9,0.9-2,2-3.3,2.5c-1.2,0.5-2.5,1.2-3.9,1.2h-32.3c-6,0-11.1,1.9-15.5,6.1
		c-4.3,4.3-6.1,9.1-6.1,15.2v32.3c0,1.5-0.4,2.8-0.9,4c-0.5,1.2-1.3,2.4-2.3,3.2c-0.9,0.9-2,1.6-3.3,2.1
		C300.1,344.6,298.6,344.8,297.1,344.8z"/>
	<path fill="#544E68" d="M430.7,344.8c-11.9,0-21.2-4-29.6-12.4c-8.4-8.4-12-18.1-12-30.1v-48.4c0-1.3-0.1-2.7,0.4-3.9
		c0.5-1.3,1.1-2.4,2-3.3c0.9-0.9,1.9-1.6,3.1-2.1c1.2-0.5,2.4-0.8,3.9-0.8c1.3,0,2.7,0.3,3.9,0.8c1.3,0.5,2.4,1.2,3.3,2.3
		c0.9,0.9,1.9,2,2.4,3.3c0.5,1.2,1.1,2.5,1.1,3.9v48.4c0,6,1.9,11.2,6.1,15.6c4.5,4.3,9.6,6.4,15.6,6.4c1.3,0,2.7,0.3,3.9,0.8
		c1.3,0.5,2.3,1.3,3.3,2.3c0.9,0.9,1.6,2,2.1,3.3c0.5,1.2,0.8,2.5,0.8,3.9c0,1.5-0.3,2.8-0.8,4c-0.5,1.2-1.3,2.3-2.3,3.2
		s-2,1.7-3.3,2.3C433.4,344.6,432.1,344.8,430.7,344.8z M430.7,280.2c-2.8,0-5.1-0.9-7.1-3.1c-2-2-3.1-4.4-3.1-7.2
		c0-1.3,0.3-2.7,0.8-3.9c0.5-1.3,1.3-2.4,2.1-3.3c0.9-0.9,2-1.6,3.2-2.1c1.2-0.5,2.5-0.8,4-0.8c1.3,0,2.7,0.3,3.9,0.8
		c1.3,0.5,2.4,1.2,3.3,2.3c0.9,0.9,1.7,2,2.3,3.3c0.5,1.2,0.8,2.5,0.8,3.9c0,1.5-0.3,2.8-0.8,4c-0.5,1.2-1.3,2.3-2.3,3.2
		c-0.9,0.9-2,1.7-3.3,2.3C433.4,280,432.1,280.2,430.7,280.2z"/>
	<path fill="#544E68" d="M217.4,322.2v117.2c0,2.9-2.5,5.3-5.5,5.1c-10.3-1.1-33.3-6.9-54.5-37.6c-1.6-2.3-0.9-5.3,1.3-6.9l0.9-0.7
		c3.1-2.1,2.8-6.9-0.7-8.7l-22.9-11.5c-3.2-1.6-7.1,0.7-7.3,4.3l-1.5,26.3c-0.3,3.6,3.3,6.3,6.7,5.1l2.5-0.9c2.1-0.8,4.7,0.1,5.9,2
		c7.5,11.7,35.9,49.9,86.4,49.9c50.3,0,77.6-37.9,85.1-49.7c1.2-2,3.7-2.9,6-2.1l2.8,1.1c3.5,1.2,7.1-1.5,6.8-5.1l-1.6-26.1
		c-0.3-3.6-4-5.7-7.2-4.3l-22.4,11.1c-3.5,1.7-3.7,6.4-0.7,8.7l0,0c2.3,1.6,2.8,4.8,1.2,7.1c-7.3,10.1-28.1,35.5-54.7,38.7
		c-2.9,0.4-5.6-2-5.6-5.1l0.5-117.7c0-2.8-2.3-5.1-5.1-5.1h-11.5C219.7,317.2,217.4,319.4,217.4,322.2z"/>
	<path fill="#62A362" d="M588.1,24.2l-86.1,99.3c-3.3,3.9-0.7,9.9,4.5,9.9h79.1c5.1,0,7.9,6,4.5,9.9L460.6,291.2
		c-4.9,5.7-13.7-0.9-9.5-7.2l82.3-119.3c2.7-4-0.1-9.2-4.9-9.3l-74.5-0.8c-5.3,0-7.9-6.5-4.1-10.3L579.3,16.1
		C584.9,10.8,593.1,18.5,588.1,24.2z"/>
	<path fill="#544E68" d="M98.7,344.8c-2.8,0-4.8-0.9-6.8-3.1c-2-2-2.7-4.4-2.7-7.2v-32.1c0-11.9,3.7-21.7,12.1-30
		c8.4-8.4,18-12.5,29.7-12.5h32.3c1.3,0,2.7,0.3,3.9,0.8c1.2,0.5,2.4,1.3,3.3,2.3s1.7,2,2.3,3.3c0.5,1.2,0.8,2.5,0.8,3.9
		c0,11.9-4.1,21.7-12.5,30.1c-8.4,8.4-18.1,12.4-30,12.4c-2.8,0-5.1-0.9-7.1-3.1c-2-2-3.1-4.4-3.1-7.2c0-1.3,0.3-2.7,0.8-3.9
		c0.5-1.3,1.2-2.4,2.1-3.3s2-1.6,3.2-2.1c1.2-0.5,2.5-0.8,4-0.8c6,0,11.2-1.7,15.5-5.9l5.7-5.2h-21.2c-6,0-11.2,1.9-15.6,6.1
		c-4.3,4.3-6.3,9.1-6.3,15.2v32.3c0,1.5-0.4,2.8-0.9,4c-0.5,1.2-1.3,2.4-2.3,3.2c-0.9,0.9-2,1.6-3.2,2.1
		C101.5,344.6,100.2,344.8,98.7,344.8z"/>
</g>
</svg>
