<?xml version="1.0" encoding="utf-8"?>
<!-- Generator: Adobe Illustrator 18.0.0, SVG Export Plug-In . SVG Version: 6.00 Build 0)  -->
<!DOCTYPE svg PUBLIC "-//W3C//DTD SVG 1.1//EN" "http://www.w3.org/Graphics/SVG/1.1/DTD/svg11.dtd">
<svg version="1.1" id="Layer_1" xmlns="http://www.w3.org/2000/svg" xmlns:xlink="http://www.w3.org/1999/xlink" x="0px" y="0px"
	 viewBox="0 0 640 480" enable-background="new 0 0 640 480" xml:space="preserve">
<path display="none" d="M400.5,56.9c0,7.8-2.8,14.5-8.4,20.1c-5.5,5.5-12.2,8.3-20,8.3c-2.3,0-4.2-0.8-5.8-2.5
	c-1.6-1.6-2.5-3.6-2.5-5.9c0-1.1,0.2-2.2,0.7-3.2c0.4-1,1-1.9,1.8-2.7c0.7-0.8,1.6-1.4,2.6-1.8c1-0.4,2.1-0.7,3.3-0.7
	c3.2,0,6-1.1,8.2-3.3h-8.2c-3.2,0-6,1.2-8.3,3.5c-2.3,2.3-3.4,5-3.4,8.2v20c0,1.2-0.2,2.3-0.7,3.3c-0.4,1-1,1.9-1.8,2.6
	c-0.7,0.7-1.6,1.3-2.6,1.8c-1,0.4-2.1,0.7-3.3,0.7c-2.3,0-4.2-0.8-5.8-2.5c-1.6-1.6-2.5-3.6-2.5-5.9v-20c0-7.8,2.8-14.5,8.3-20
	c5.6-5.6,12.3-8.4,20-8.4h20c1.1,0,2.2,0.2,3.2,0.7c1,0.4,1.9,1,2.7,1.8c0.8,0.8,1.4,1.7,1.8,2.7C400.3,54.7,400.5,55.7,400.5,56.9z
	"/>
<path display="none" d="M460.9,76.9c0,7.8-2.8,14.5-8.4,20.1c-5.5,5.5-12.2,8.3-20,8.3c-7.8,0-14.5-2.8-20-8.3
	c-5.5-5.5-8.3-12.2-8.3-20.1c0-7.8,2.8-14.5,8.3-20c5.6-5.6,12.3-8.4,20-8.4c7.8,0,14.5,2.8,20,8.4
	C458.1,62.4,460.9,69.1,460.9,76.9z M444.2,76.9c0-3.2-1.2-5.9-3.5-8.2c-2.3-2.3-5.1-3.5-8.3-3.5c-3.2,0-6,1.2-8.3,3.5
	c-2.3,2.3-3.4,5-3.4,8.2c0,3.2,1.1,5.9,3.4,8.3c2.4,2.3,5.1,3.4,8.3,3.4c3.2,0,5.9-1.1,8.3-3.4C443.1,83,444.2,80.2,444.2,76.9z"/>
<path display="none" d="M523.8,56.9c0,1.2-0.2,2.3-0.7,3.3c-0.4,1-1,1.9-1.8,2.7c-0.8,0.8-1.7,1.4-2.7,1.8c-1,0.4-2.1,0.7-3.2,0.7
	h-20c-3.2,0-6,1.2-8.3,3.5c-2.3,2.3-3.4,5-3.4,8.2v20c0,1.2-0.2,2.3-0.7,3.3c-0.4,1-1,1.9-1.8,2.6c-0.7,0.7-1.6,1.3-2.6,1.8
	c-1,0.4-2.1,0.7-3.3,0.7c-2.3,0-4.2-0.8-5.8-2.5c-1.6-1.6-2.5-3.6-2.5-5.9v-20c0-7.8,2.8-14.5,8.3-20c5.6-5.6,12.3-8.4,20-8.4h20
	c1.1,0,2.2,0.2,3.2,0.7c1,0.4,1.9,1,2.7,1.8c0.8,0.8,1.4,1.7,1.8,2.7C523.6,54.7,523.8,55.7,523.8,56.9z"/>
<path display="none" d="M566.7,97c0,1.2-0.2,2.3-0.7,3.3c-0.4,1-1,1.9-1.8,2.6c-0.8,0.8-1.7,1.4-2.7,1.8c-1,0.4-2.1,0.7-3.2,0.7
	c-7.8,0-14.5-2.8-20-8.3c-5.5-5.5-8.3-12.2-8.3-20.1v-30c0-1.1,0.2-2.2,0.7-3.2c0.4-1,1-1.9,1.8-2.7c0.7-0.8,1.6-1.4,2.6-1.8
	c1-0.4,2.1-0.7,3.3-0.7c1.1,0,2.2,0.2,3.2,0.7c1,0.4,1.9,1,2.7,1.8c0.8,0.8,1.4,1.7,1.8,2.7c0.4,1,0.7,2.1,0.7,3.2v30
	c0,3.2,1.1,5.9,3.4,8.3c2.4,2.3,5.1,3.4,8.3,3.4c1.1,0,2.2,0.2,3.2,0.7c1,0.4,1.9,1,2.7,1.8c0.8,0.8,1.4,1.7,1.8,2.7
	C566.5,94.8,566.7,95.8,566.7,97z M550,56.9c0-1.1,0.2-2.2,0.7-3.2c0.4-1,1-1.9,1.8-2.7c0.7-0.8,1.6-1.4,2.6-1.8
	c1-0.4,2.1-0.7,3.3-0.7c1.1,0,2.2,0.2,3.2,0.7c1,0.4,1.9,1,2.7,1.8c0.8,0.8,1.4,1.7,1.8,2.7c0.4,1,0.7,2.1,0.7,3.2
	c0,1.2-0.2,2.3-0.7,3.3c-0.4,1-1,1.9-1.8,2.7c-0.8,0.8-1.7,1.4-2.7,1.8c-1,0.4-2.1,0.7-3.2,0.7c-2.3,0-4.2-0.8-5.8-2.5
	C550.8,61.1,550,59.2,550,56.9z"/>
<g>
	<path fill="#544E68" d="M204.4,282.3l-15.6-5.1c-0.9-0.3-1.4-1.2-1.2-2.2c0.2-0.9-0.1-1.9-1.5-2.9c-0.4-0.3-0.8-0.5-1.1-0.8
		c-0.4,0.6-1,1.1-1.7,1.4l-18,10.4c0,0-3.5,2.1-5.2-0.5l12.2-10.9c0.7-0.6,1.8-0.6,2.5,0c0.7,0.6,1.7,0.9,3.2,0.1
		c0.5-0.2,1-0.4,1.4-0.6c-0.2-0.4-0.4-1-0.4-1.5c0,0,0.5,0,0.5,0c0,0,0.5,0,0.5,0v-21.3c0,0-0.6-4.1,2.5-4.3l3.1,16
		c0.2,0.9-0.5,1.8-1.4,2.1c-0.9,0.3-1.6,1-1.8,2.7c0,0.5-0.1,1-0.2,1.5c0.5,0,1,0.1,1.5,0.4c0,0,0,0,0,0l18.4,10.7
		C202.2,277.6,205.7,279.6,204.4,282.3z M215,269.7c0,18.1-14.7,32.8-32.8,32.8s-32.8-14.7-32.8-32.8c0-18.1,14.7-32.8,32.8-32.8
		S215,251.7,215,269.7z M207.7,269.7c0-14.1-11.4-25.5-25.5-25.5c-14.1,0-25.5,11.4-25.5,25.5c0,14.1,11.4,25.5,25.5,25.5
		C196.3,295.2,207.7,283.8,207.7,269.7z"/>
	<path fill="#544E68" d="M39.3,226c-7.6,0-13.8-3.2-19.2-8.5c-5.3-5.3-7.9-11.9-7.9-19.6c0-7.6,2.6-13.7,7.9-19.1
		c5.4-5.4,11.7-7.9,19.2-7.9h20.7c0.9,0,1.7-0.1,2.5,0.2c0.8,0.3,1.5,0.7,2.1,1.3c0.6,0.6,1.1,1.2,1.4,2c0.3,0.8,0.5,1.6,0.5,2.5
		c0,0.9-0.2,1.7-0.5,2.5c-0.3,0.8-0.8,1.5-1.4,2.1c-0.6,0.6-1.3,1.3-2.1,1.6c-0.8,0.3-1.6,0.7-2.5,0.7H39.3c-3.9,0-7.2,1.2-10,3.9
		c-2.7,2.7-4.1,5.9-4.1,9.8c0,3.8,1.4,7.2,4.1,10c2.9,2.8,6.2,4.2,10,4.2H54v-7H39.3c-1.8,0-3.2-1-4.5-2.3c-1.3-1.3-1.9-3-1.9-4.8
		c0-0.9,0.2-1.8,0.5-2.6c0.3-0.8,0.8-1.6,1.4-2.2c0.6-0.6,1.2-1.1,2-1.5c0.8-0.3,1.6-0.6,2.5-0.6h20.7c0.9,0,1.7,0.2,2.5,0.6
		c0.8,0.3,1.5,0.8,2.1,1.4c0.6,0.6,1.3,1.3,1.7,2.1c0.3,0.8,0.8,1.6,0.8,2.5v20.7c0,0.9-0.4,1.8-0.8,2.5c-0.3,0.8-1,1.5-1.6,2.1
		c-0.6,0.6-1.4,1.6-2.2,2c-0.8,0.3-1.7,1.1-2.6,1.1H39.3z"/>
	<path fill="#544E68" d="M83.4,224.9c-1.8,0-2.7-0.6-4-1.9c-1.3-1.3-1.4-2.8-1.4-4.6v-20.7c0-7.6,2.1-13.6,7.4-18.9
		c5.4-5.4,11.2-7.7,18.7-7.7h20.7c0.9,0,1.7-0.1,2.5,0.2c0.8,0.3,1.5,0.7,2.1,1.3c0.6,0.6,1.1,1.2,1.4,2c0.3,0.8,0.5,1.6,0.5,2.5
		c0,0.9-0.2,1.7-0.5,2.5c-0.3,0.8-0.8,1.5-1.4,2.1c-0.6,0.6-1.3,1.3-2.1,1.6c-0.8,0.3-1.6,0.7-2.5,0.7h-20.7c-3.9,0-7.2,1.2-10,3.9
		c-2.7,2.7-4.1,5.8-4.1,9.7v20.7c0,0.9-0.2,1.8-0.5,2.6c-0.3,0.8-0.8,1.5-1.4,2.1c-0.6,0.6-1.3,1-2.1,1.4
		C85.2,224.7,84.4,224.9,83.4,224.9z"/>
	<path fill="#544E68" d="M164.4,226c-7.6,0-13.8-3.2-19.2-8.5c-5.3-5.3-7.9-11.9-7.9-19.6c0-7.6,2.6-13.7,7.9-19.1
		c5.4-5.4,11.7-7.9,19.2-7.9H185c0.9,0,1.7-0.1,2.5,0.2c0.8,0.3,1.5,0.7,2.1,1.3c0.6,0.6,1.1,1.2,1.4,2c0.3,0.8,0.5,1.6,0.5,2.5
		c0,0.9-0.2,1.7-0.5,2.5c-0.3,0.8-0.8,1.5-1.4,2.1c-0.6,0.6-1.3,1.3-2.1,1.6c-0.8,0.3-1.6,0.7-2.5,0.7h-20.7c-3.9,0-7.2,1.2-10,3.9
		c-2.7,2.7-4.1,5.9-4.1,9.8c0,3.8,1.4,7.2,4.1,10c2.9,2.8,6.2,4.2,10,4.2H185c0.9,0,1.7,0,2.5,0.4c0.8,0.3,1.5,0.8,2.1,1.4
		c0.6,0.6,1.1,1.3,1.4,2.1c0.3,0.8,0.5,1.6,0.5,2.5c0,0.9-0.2,1.8-0.5,2.5c-0.3,0.8-0.8,1.5-1.4,2.1c-0.6,0.6-1.3,1.6-2.1,2
		c-0.8,0.3-1.6,1.1-2.5,1.1H164.4z M164.4,204.2c-1.8,0-3.2-0.6-4.5-1.9c-1.3-1.3-1.9-2.8-1.9-4.6c0-0.9,0.2-1.7,0.5-2.5
		c0.3-0.8,0.8-1.5,1.4-2.1c0.6-0.6,1.2-1.1,2-1.4c0.8-0.3,1.6-0.5,2.5-0.5c0.9,0,1.7,0.2,2.5,0.5c0.8,0.3,1.5,0.8,2.1,1.4
		c0.6,0.6,1.1,1.3,1.4,2.1c0.3,0.8,0.5,1.6,0.5,2.5c0,0.9-0.2,1.8-0.5,2.5c-0.3,0.8-0.8,1.5-1.4,2.1c-0.6,0.6-1.3,1.1-2.1,1.4
		C166.1,204,165.3,204.2,164.4,204.2z"/>
	<path fill="#544E68" d="M228.3,226c-7.6,0-13.8-3.2-19.2-8.5c-5.3-5.3-7.9-11.9-7.9-19.6c0-7.6,2.6-13.7,7.9-19.1
		c5.4-5.4,11.7-7.9,19.2-7.9H249c0.9,0,1.7-0.1,2.5,0.2c0.8,0.3,1.5,0.7,2.1,1.3c0.6,0.6,1.1,1.2,1.4,2c0.3,0.8,0.5,1.6,0.5,2.5
		c0,0.9-0.2,1.7-0.5,2.5c-0.3,0.8-0.8,1.5-1.4,2.1c-0.6,0.6-1.3,1.3-2.1,1.6c-0.8,0.3-1.6,0.7-2.5,0.7h-20.7c-3.9,0-7.2,1.2-10,3.9
		c-2.7,2.7-4.1,5.9-4.1,9.8c0,3.8,1.4,7.2,4.1,10c2.9,2.8,6.2,4.2,10,4.2H249c0.9,0,1.7,0,2.5,0.4c0.8,0.3,1.5,0.8,2.1,1.4
		c0.6,0.6,1.1,1.3,1.4,2.1c0.3,0.8,0.5,1.6,0.5,2.5c0,0.9-0.2,1.8-0.5,2.5c-0.3,0.8-0.8,1.5-1.4,2.1c-0.6,0.6-1.3,1.6-2.1,2
		c-0.8,0.3-1.6,1.1-2.5,1.1H228.3z M228.3,204.2c-1.8,0-3.2-0.6-4.5-1.9c-1.3-1.3-1.9-2.8-1.9-4.6c0-0.9,0.2-1.7,0.5-2.5
		c0.3-0.8,0.8-1.5,1.4-2.1c0.6-0.6,1.2-1.1,2-1.4c0.8-0.3,1.6-0.5,2.5-0.5c0.9,0,1.7,0.2,2.5,0.5c0.8,0.3,1.5,0.8,2.1,1.4
		c0.6,0.6,1.1,1.3,1.4,2.1c0.3,0.8,0.5,1.6,0.5,2.5c0,0.9-0.2,1.8-0.5,2.5c-0.3,0.8-0.8,1.5-1.4,2.1c-0.6,0.6-1.3,1.1-2.1,1.4
		C230,204,229.2,204.2,228.3,204.2z"/>
	<path fill="#544E68" d="M313.8,224.9c-1.8,0-2.9-0.6-4.2-1.9c-1.3-1.3-1.6-2.8-1.6-4.6v-20.7c0-3.8-1.7-7.2-4.5-9.9
		c-2.8-2.8-6.3-4.2-10.2-4.2c-3.9,0-6.8,1.4-9.6,4.2c-2.7,2.7-3.7,6.1-3.7,9.9v20.7c0,0.9-0.6,1.8-1,2.6c-0.3,0.8-1,1.5-1.6,2.1
		c-0.6,0.6-1.4,1-2.2,1.4c-0.8,0.3-1.7,0.5-2.7,0.5c-1.8,0-3.3-0.6-4.6-1.9c-1.3-1.3-2-2.8-2-4.6v-20.7c0-7.6,2.6-13.8,7.9-19.2
		c5.4-5.4,11.7-8,19.2-8c7.6,0,14.2,2.6,19.5,8c5.4,5.4,8.4,11.6,8.4,19.2v20.7c0,0.9-0.5,1.8-0.8,2.5c-0.3,0.8-1,1.5-1.6,2.1
		c-0.6,0.6-1.4,1.1-2.2,1.4C315.6,224.7,314.7,224.9,313.8,224.9z"/>
	<path fill="#544E68" d="M38.4,294c-1.8,0-3.2-0.7-4.5-2c-1.3-1.3-1.9-2.9-1.9-4.7v-20.7c0-0.9,0.1-1.7,0.5-2.5
		c0.3-0.8,0.8-1.5,1.4-2.1c0.6-0.6,1.2-1.1,2-1.4c0.8-0.3,1.6-0.5,2.5-0.5c0.9,0,1.7,0.2,2.5,0.5c0.8,0.3,1.5,0.8,2.1,1.4
		c0.6,0.6,1.6,1.3,2,2.1c0.3,0.8,1,1.6,1,2.5V281h13c3.8,0,7.2-1.5,10-4.2c2.8-2.7,4.2-6.1,4.2-10.1c0-3.8-1.4-7-4.2-9.7
		c-2.8-2.8-6.1-4-10-4H38.4c-1.8,0-3.3-0.9-4.5-2.2c-1.3-1.3-1.9-2.9-1.9-4.7c0-0.9,0.2-1.8,0.5-2.6c0.3-0.8,0.8-1.6,1.4-2.2
		c0.6-0.6,1.2-0.8,2-1.1c0.8-0.3,1.6-0.2,2.5-0.2H59c7.6,0,13.8,2.3,19.2,7.7c5.4,5.4,8,11.5,8,19c0,7.6-2.6,13.9-8,19.3
		c-5.3,5.3-11.6,7.9-19.2,7.9H38.4z"/>
	<path fill="#544E68" d="M103.2,293.8c-1.8,0-2.6-0.6-3.9-1.9c-1.3-1.3-1.3-2.8-1.3-4.6v-20.7c0-7.6,2-13.6,7.3-18.9
		c5.4-5.4,11-7.7,18.5-7.7h20.7c0.9,0,1.7-0.1,2.5,0.2c0.8,0.3,1.5,0.7,2.1,1.3c0.6,0.6,1.1,1.2,1.4,2c0.3,0.8,0.5,1.6,0.5,2.5
		c0,0.9-0.2,1.8-0.5,2.5c-0.3,0.8-0.8,1.5-1.4,2.1c-0.6,0.6-1.3,1.3-2.1,1.7c-0.8,0.3-1.6,0.7-2.5,0.7h-20.7c-3.9,0-7.1,1.2-9.9,3.9
		c-2.7,2.7-4,5.8-4,9.7v20.7c0,0.9-0.3,1.8-0.6,2.6c-0.3,0.8-0.9,1.5-1.4,2.1c-0.6,0.6-1.3,1-2.1,1.4
		C105,293.7,104.1,293.8,103.2,293.8z"/>
	<path fill="#544E68" d="M269.6,293.8c-1.8,0-2.8-0.6-4.1-1.9c-1.3-1.3-1.5-2.8-1.5-4.6v-20.7c0-3.8-1.8-7.2-4.6-9.9
		c-2.8-2.8-6.4-4.2-10.2-4.2c-3.9,0-7.3,1.4-10,4.2c-2.7,2.7-4.1,6.1-4.1,9.9v20.7c0,0.9-0.2,1.8-0.6,2.6c-0.3,0.8-0.8,1.5-1.4,2.1
		c-0.6,0.6-1.3,1-2.1,1.4c-0.8,0.3-1.7,0.5-2.6,0.5c-1.8,0-3.2-0.6-4.5-1.9c-1.3-1.3-1.8-2.8-1.8-4.6v-20.7c0-7.6,2.5-13.8,7.9-19.2
		c5.4-5.4,11.6-8,19.1-8c7.6,0,13.7,2.6,19.1,8c5.4,5.4,7.9,11.6,7.9,19.2v20.7c0,0.9-0.1,1.8-0.4,2.5c-0.3,0.8-0.8,1.5-1.4,2.1
		c-0.6,0.6-1.3,1.1-2.1,1.4C271.3,293.7,270.5,293.8,269.6,293.8z"/>
	<path fill="#544E68" d="M313.8,294c-7.6,0-13.8-2.7-19.2-8c-5.3-5.3-7.9-11.7-7.9-19.3c0-7.6,2.6-13.6,7.9-18.9
		c5.4-5.4,11.7-7.8,19.2-7.8h20.7c0.9,0,1.7-0.1,2.5,0.2c0.8,0.3,1.5,0.7,2.1,1.3c0.6,0.6,1.1,1.2,1.4,2c0.3,0.8,0.5,1.6,0.5,2.5
		c0,0.9-0.2,1.8-0.5,2.5c-0.3,0.8-0.8,1.5-1.4,2.1c-0.6,0.6-1.3,1.3-2.1,1.7c-0.8,0.3-1.6,0.7-2.5,0.7h-20.7c-3.9,0-7.2,1.2-10,3.9
		c-2.7,2.7-4.1,5.9-4.1,9.8c0,3.8,1.4,7.2,4.1,10.1c2.9,2.8,6.2,4.2,10,4.2h20.7c0.9,0,1.7,0,2.5,0.4c0.8,0.3,1.5,0.7,2.1,1.4
		c0.6,0.6,1.1,1.3,1.4,2.1c0.3,0.8,0.5,1.6,0.5,2.5c0,0.9-0.2,1.8-0.5,2.5c-0.3,0.8-0.8,1.5-1.4,2.1c-0.6,0.6-1.3,1.2-2.1,1.5
		c-0.8,0.3-1.6,0.6-2.5,0.6H313.8z M313.8,273.2c-1.8,0-3.2-0.6-4.5-1.9c-1.3-1.3-1.9-2.8-1.9-4.6c0-0.9,0.2-1.7,0.5-2.5
		c0.3-0.8,0.8-1.5,1.4-2.1c0.6-0.6,1.2-1.1,2-1.4c0.8-0.3,1.6-0.5,2.5-0.5c0.9,0,1.7,0.2,2.5,0.5c0.8,0.3,1.5,0.8,2.1,1.4
		c0.6,0.6,1.1,1.3,1.4,2.1c0.3,0.8,0.5,1.6,0.5,2.5c0,0.9-0.2,1.8-0.5,2.5c-0.3,0.8-0.8,1.5-1.4,2.1c-0.6,0.6-1.3,1.1-2.1,1.4
		C315.5,273,314.6,273.2,313.8,273.2z"/>
	<path fill="#544E68" d="M468.3,258.8c-8.9,0-16.2-3-22.5-9.3c-6.3-6.3-9.3-13.6-9.3-22.6c0-8.9,3-16.2,9.3-22.5
		c6.3-6.3,13.7-9.4,22.5-9.4c8.9,0,16.2,3.1,22.5,9.4c6.3,6.3,9.4,13.6,9.4,22.5c0,8.9-3.1,16.3-9.4,22.6
		C484.5,255.8,477.1,258.8,468.3,258.8z M468.3,210.4c-4.5,0-8.5,1.6-11.7,4.9c-3.2,3.2-4.8,7.1-4.8,11.6c0,4.5,1.6,8.4,4.8,11.7
		c3.4,3.2,7.3,4.8,11.8,4.8c4.5,0,8.4-1.6,11.7-4.8c3.3-3.1,4.9-7.1,4.9-11.8c0-4.5-1.6-8.4-4.9-11.6
		C476.8,212.1,472.8,210.4,468.3,210.4z"/>
	<path fill="#544E68" d="M520,258.8c-2.1,0-4-0.7-5.5-2.3c-1.5-1.5-2.5-3.3-2.5-5.4V227c0-8.9,3.3-16.3,9.5-22.5
		c6.3-6.3,13.9-9.4,22.7-9.4h24.2c1,0,2,0.2,2.9,0.6c0.9,0.4,1.8,1,2.5,1.7c0.7,0.7,1.3,1.5,1.7,2.5c0.4,0.9,0.6,1.9,0.6,2.9
		c0,1.1-0.2,2.1-0.6,3c-0.4,0.9-1,1.7-1.7,2.5c-0.7,0.7-1.5,1.5-2.5,1.9c-0.9,0.4-1.9,0.9-2.9,0.9h-24.2c-4.5,0-8.3,1.4-11.6,4.6
		c-3.2,3.2-4.6,6.8-4.6,11.4v24.2c0,1.1-0.3,2.1-0.7,3c-0.4,0.9-1,1.8-1.7,2.4c-0.7,0.7-1.5,1.2-2.5,1.6
		C522.2,258.7,521.1,258.8,520,258.8z"/>
	<path fill="#544E68" d="M620.2,258.8c-8.9,0-15.9-3-22.2-9.3c-6.3-6.3-9-13.6-9-22.6v-36.3c0-1-0.1-2,0.3-2.9
		c0.4-1,0.8-1.8,1.5-2.5c0.7-0.7,1.4-1.2,2.3-1.6c0.9-0.4,1.8-0.6,2.9-0.6c1,0,2,0.2,2.9,0.6c1,0.4,1.8,0.9,2.5,1.7
		c0.7,0.7,1.4,1.5,1.8,2.5c0.4,0.9,0.8,1.9,0.8,2.9V227c0,4.5,1.4,8.4,4.6,11.7c3.4,3.2,7.2,4.8,11.7,4.8c1,0,2,0.2,2.9,0.6
		c1,0.4,1.7,1,2.5,1.7c0.7,0.7,1.2,1.5,1.6,2.5c0.4,0.9,0.6,1.9,0.6,2.9c0,1.1-0.2,2.1-0.6,3c-0.4,0.9-1,1.7-1.7,2.4
		c-0.7,0.7-1.5,1.3-2.5,1.7C622.2,258.7,621.2,258.8,620.2,258.8z M620.2,210.4c-2.1,0-3.8-0.7-5.3-2.3c-1.5-1.5-2.3-3.3-2.3-5.4
		c0-1,0.2-2,0.6-2.9c0.4-1,1-1.8,1.6-2.5c0.7-0.7,1.5-1.2,2.4-1.6c0.9-0.4,1.9-0.6,3-0.6c1,0,2,0.2,2.9,0.6c1,0.4,1.8,0.9,2.5,1.7
		c0.7,0.7,1.3,1.5,1.7,2.5c0.4,0.9,0.6,1.9,0.6,2.9c0,1.1-0.2,2.1-0.6,3c-0.4,0.9-1,1.7-1.7,2.4c-0.7,0.7-1.5,1.3-2.5,1.7
		C622.2,210.2,621.2,210.4,620.2,210.4z"/>
	<path fill="#544E68" d="M460.2,241.9v87.9c0,2.2-1.9,4-4.1,3.8c-7.7-0.8-25-5.2-40.9-28.2c-1.2-1.7-0.7-4,1-5.2l0.7-0.5
		c2.3-1.6,2.1-5.2-0.5-6.5l-17.2-8.6c-2.4-1.2-5.3,0.5-5.5,3.2l-1.1,19.7c-0.2,2.7,2.5,4.7,5,3.8l1.9-0.7c1.6-0.6,3.5,0.1,4.4,1.5
		c5.6,8.8,26.9,37.4,64.8,37.4c37.7,0,58.2-28.4,63.8-37.3c0.9-1.5,2.8-2.2,4.5-1.6l2.1,0.8c2.6,0.9,5.3-1.1,5.1-3.8l-1.2-19.6
		c-0.2-2.7-3-4.3-5.4-3.2l-16.8,8.3c-2.6,1.3-2.8,4.8-0.5,6.5l0,0c1.7,1.2,2.1,3.6,0.9,5.3c-5.5,7.6-21.1,26.6-41,29
		c-2.2,0.3-4.2-1.5-4.2-3.8l0.4-88.3c0-2.1-1.7-3.8-3.8-3.8H464C461.9,238.1,460.2,239.8,460.2,241.9z"/>
	<path fill="#62A362" d="M397,137.9l-64.6,74.5c-2.5,2.9-0.5,7.4,3.4,7.4h59.3c3.8,0,5.9,4.5,3.4,7.4l-97.1,110.9
		c-3.7,4.3-10.3-0.7-7.1-5.4l61.7-89.5c2-3-0.1-6.9-3.7-7l-55.9-0.6c-4,0-5.9-4.9-3.1-7.7l97.1-96.1
		C394.6,127.8,400.8,133.6,397,137.9z"/>
	<path fill="#544E68" d="M371.2,258.8c-2.1,0-3.6-0.7-5.1-2.3c-1.5-1.5-2-3.3-2-5.4V227c0-8.9,2.8-16.3,9.1-22.5
		c6.3-6.3,13.5-9.4,22.3-9.4h24.2c1,0,2,0.2,2.9,0.6c0.9,0.4,1.8,1,2.5,1.7c0.7,0.7,1.3,1.5,1.7,2.5c0.4,0.9,0.6,1.9,0.6,2.9
		c0,8.9-3.1,16.3-9.4,22.6c-6.3,6.3-13.6,9.3-22.5,9.3c-2.1,0-3.8-0.7-5.3-2.3c-1.5-1.5-2.3-3.3-2.3-5.4c0-1,0.2-2,0.6-2.9
		c0.4-1,0.9-1.8,1.6-2.5c0.7-0.7,1.5-1.2,2.4-1.6c0.9-0.4,1.9-0.6,3-0.6c4.5,0,8.4-1.3,11.6-4.4l4.3-3.9h-15.9
		c-4.5,0-8.4,1.4-11.7,4.6c-3.2,3.2-4.7,6.8-4.7,11.4v24.2c0,1.1-0.3,2.1-0.7,3c-0.4,0.9-1,1.8-1.7,2.4c-0.7,0.7-1.5,1.2-2.4,1.6
		C373.3,258.7,372.3,258.8,371.2,258.8z"/>
</g>
</svg>
