<?xml version="1.0" encoding="utf-8"?>
<!-- Generator: Adobe Illustrator 18.0.0, SVG Export Plug-In . SVG Version: 6.00 Build 0)  -->
<!DOCTYPE svg PUBLIC "-//W3C//DTD SVG 1.1//EN" "http://www.w3.org/Graphics/SVG/1.1/DTD/svg11.dtd">
<svg version="1.1" id="Layer_1" xmlns="http://www.w3.org/2000/svg" xmlns:xlink="http://www.w3.org/1999/xlink" x="0px" y="0px"
	 viewBox="0 0 640 480" enable-background="new 0 0 640 480" xml:space="preserve">
<g>
	<path fill="#693494" d="M307.2,181.9c1.7,2.7,4.2,4.8,6.1,7.5c4.4,6.7,8.6,13.6,10.5,21.3c2.1,8.1,2.5,16.1,1.5,24.3
		c-0.6,5.4-1.5,10.7-3.5,15.9c-1.3,3.8-2.9,7.5-4.2,11.1c-1.7,4.4-3.1,9-4,13.6c-0.8,4.6,1.5,8.2,5.9,9.4c2.7,0.8,5.6,1.2,8.4,1.2
		c6.5,0.2,13,0.6,19.6,0.8c5.8,0,11.3,0.8,16.5,3.1c2.7,1.2,4.4,3.5,5.4,5.9c1.3,3.5,0.4,6.5-3.1,9c-5.2,3.8-10.9,6.1-17.1,7.1
		c-6.9,1.2-14,2.3-21.1,1.9c-6.1-0.4-12.5-0.8-18.2-2.9c-4.6-1.7-9-4.2-11.7-8.8c-0.4-0.8-0.8-1-1.5-0.4
		c-8.1,6.3-17.3,9.6-27.4,10.4c-8.8,0.6-17.8,1-26.6-0.8c-5.6-1-10.7-2.9-15.1-6.7c-4.2-3.6-4.4-8.6-0.2-12.5
		c3.6-3.5,8.1-4.8,12.8-5.6c10.9-1.9,21.9-2.1,32.8-1.3c0.4,0,0.8,0,1.2,0c5.8,0.2,8.1-2.3,8.1-7.9s-1.5-10.9-3.3-16.1
		c-3.8-12.7-6.7-25.7-5.8-39.1c0.6-7.9,3.3-15,6.9-21.9c2.9-5.4,7.1-9.6,10.7-14.2c1.3-1.7,3.6-2.5,5.2-4c0.2,0.2,0.4,0.2,0.4,0.4
		c-6.5,8.8-10.5,18.8-12.8,29.3c-1.5,6.7-1.7,13.6,0.2,20.5c1.3,4.4,3.5,8.8,7.1,11.1c8.4,5.4,17.3,4.8,22.4-5.6
		c1.2-2.3,1.9-4.8,2.3-7.5c1.3-13-0.6-25.5-5.2-37.6c-1.3-3.6-2.7-7.3-4-10.9C306.8,182.1,307,182.1,307.2,181.9z"/>
	<path fill="#2BACE1" d="M330.2,152c5.6-5.8,11.5-10.9,17.6-15.9c4.4-3.5,8.8-6.9,13.4-10c4.8-3.3,9.8-6.5,15-9.2
		c5.9-2.9,11.5-6.5,17.6-8.8c9.4-3.5,18.6-7.7,28.2-10.4c2.7-0.8,5-2.1,7.3-3.6c5-3.5,5.4-9.4,0.6-13.2c-4.6-3.6-10.2-5.4-15.5-7.3
		c-4.4-1.5-8.4-4-12.5-6.1c-5.2-2.5-10.2-5.4-15-8.4c-4.8-3.3-10-5.9-14.6-10.4c4.4,1.3,8.2,2.7,12.3,4
		c20.7,6.1,41.6,12.1,63.6,11.9c14.2-0.2,27.8-3.3,41.6-7.1c7.5-2.1,14.6-4.8,21.9-7.3c5.6-1.9,10.9-4.4,16.3-6.7
		c0.6-0.2,1.2-0.8,1.9-0.4c-1.2,3.6-4.6,5.4-7.1,7.9c-4.6,5-10.7,8.2-16.7,11.3c-8.4,4.4-17.3,8.4-26.3,11.7
		c-5.6,2.1-10.7,5.2-15.5,8.8c-2.7,2.1-3.1,5.8-1.2,8.4c2.5,3.5,5.6,6.1,9,8.4c4.4,3.1,8.6,6.5,12.3,10.4c5.9,6.7,5.4,12.7,1.2,19.7
		c-2.9,4.8-6.9,9-10.9,12.8c-4.6,4.4-9.6,8.2-14.2,12.5c-0.6,0.6-1.2,1.2-2.1,0.8c3.5-4.6,7.3-8.8,10-13.8
		c3.6-6.7,4.6-13.6,0.2-18.4c-3.1-3.5-7.3-5.6-11.7-7.1c-10.9-3.5-21.9-2.7-33-1c-10.9,1.7-21.1,5.6-31.6,8.8
		c-10,3.1-19.4,7.3-28.9,11.5c-9,4-18.2,8.1-26.8,13C334.6,149.9,332.5,150.8,330.2,152z"/>
	<path fill="#41B64D" d="M119.6,304.6c5.2-4.4,10-9.4,14-15c3.1-4.4,3.6-9.2,3.3-14.4c-0.4-4.2-3.3-6.9-5.9-9.4
		c-4.6-4.2-10.5-5.8-16.5-6.7c-3.3-0.4-4.8,0.8-5.6,4c-1.3,6.5-1,13.2-0.4,19.7c1.2,12.3,2.5,24.3,4.8,36.4
		c1.5,8.2,3.5,16.3,5.4,24.3c0.2,1,0.8,1.7,0.4,3.1c-2.9-5.9-6.1-11.3-8.2-17.3c-1.9-5.2-4.2-10.2-6.1-15.3
		c-2.7-7.5-5.2-15-7.5-22.6c-4.6-16.5-7.9-33.2-9-50.4c-1.2-16.7,0.2-33.4,4.6-49.6c2.9-10.4,7.3-19.9,13.2-28.8
		c3.1-4.8,6.5-9.4,10.9-13c2.7-2.1,4.6-5,7.9-6.5c-0.4,0.6-0.8,1.2-1.2,1.7c-4.2,6.1-8.4,12.3-11.5,19c-4.4,9.2-8.6,18.6-9.2,29.1
		c-0.2,3.1-0.2,6.1,1,9c3.1,7.9,9,10,16.7,9c8.6-1,13.2-6.9,16.1-14.4c4-10.7,3.1-21.5,0.6-32.4c-1.3-6.1-3.1-12.1-5.8-17.6
		c-0.4-0.8-1.2-1.5-0.6-2.5l0,0c9.6,11.7,16.9,24.5,18,40.1c0.6,8.6-1.7,16.9-6.1,24.2c-3.1,5-6.9,9.6-11.9,13
		c-2.7,1.9-4.6,4.6-6.7,7.1c-1.7,2.3-1.9,5.2-0.8,7.9c1.7,4.4,5,7.5,8.4,10.5c4.2,3.8,8.4,7.5,11.7,12.3c3.6,5.4,6.5,11.1,5.2,17.8
		c-1.2,5.4-3.8,10-7.9,13.6c-6.3,5.9-13.2,11.3-21.5,14.6C119.7,304.9,119.6,304.8,119.6,304.6z"/>
	<path fill="#F05F2B" d="M218.1,129.8c-2.7-3.1-4.6-6.7-6.7-10c-5.6-8.2-10.2-17.1-14-26.3c-3.6-8.2-7.1-16.7-8.8-25.7
		c-2.3-12.1-3.5-24-1-36.2c1.2-5.9,2.9-11.5,5.8-16.7c1.2-2.1,2.7-4.4,4.2-6.1c5.2-5.9,13.2-6.3,20.1-2.1
		c7.5,4.6,12.7,11.3,15.7,19.6c4,10.5,4.4,21.5,4,32.4c-0.4,11.5-1.3,23-1.9,34.5c-0.6,11.9-0.2,23.6,3.3,35.1
		c0.2,0.4,0.2,0.8,0.2,1.7c-3.3-4.2-5.9-8.1-7.9-12.3c-2.5-5.8-5-11.3-6.9-17.3c-2.3-6.9-3.1-14.2-4.2-21.3
		c-1.5-9.6-2.1-19.2-2.5-28.8c0-0.4,0.2-1-0.6-1.3c-1.7,2.9-3.1,6.1-3.8,9.4c-2.5,12.8-1.7,25.7-0.6,38.7c1,10.5,2.9,20.7,5.4,30.9
		c0.2,0.6,0.2,1.2,0.2,1.5C218.3,129.6,218.3,129.6,218.1,129.8z"/>
	<path fill="#41B64D" d="M552.2,322.6c-1.9-2.9-3.5-5.2-4.8-7.7c-2.1-3.8-5.2-7.1-7.7-10.9c-3.3-4.8-7.3-8.6-10.7-13.2
		c-1-1.3-2.3-2.7-3.6-3.8c-1.7-1.5-3.1-3.3-4.6-5c-2.1-2.5-4.8-4.2-6.9-6.7c-2.9-3.5-6.9-5.9-10.2-8.8c-1.3-1.2-2.5-1.2-3.8,0
		c-3.5,2.9-6.1,6.5-9.2,9.8c-4.8,5.2-9.4,10.7-14.4,15.5c-4.6,4.4-9,8.8-13.8,13c-5.8,5.2-11.9,9.6-18.6,13.2
		c-6.5,3.6-13.4,5.6-21.1,4.6c2.3-1.5,4.8-2.5,6.9-4.2c5.6-4.2,10.7-8.6,15.5-13.8c5.8-5.9,10.4-12.7,15.1-19.2
		c4.8-6.7,8.6-14,13.2-20.9c3.8-6.1,7.7-12.3,12.5-17.8c3.1-3.6,6.5-6.9,10.5-9.4c5.2-3.3,14.4-3.6,21.3,2.7
		c5.4,4.8,9.6,10.5,13.4,16.7c6.5,10.9,11.3,22.8,15.1,34.9c2.5,7.9,4.6,15.9,5.8,24.2C552.2,318,552.4,319.9,552.2,322.6z"/>
	<path fill="#EA0C8E" d="M329.3,391.2c2.7,1,3.8,3.1,5.8,4.4c5.9,4.4,10.5,9.8,14,16.1c5.2,9.2,7.1,19.2,5.8,29.7
		c-1.2,9,0.6,17.6,7.3,24.2c4.8,4.6,10.4,8.2,16.9,9.6c0.6,0.2,1,0.4,1.3,1c-1.7,0-3.3,0-5,0c-1.7,0-3.5-0.2-5.2-0.4
		c-5.9-0.6-11.7-1.7-17.1-4.6c-2.9-1.5-5.4-3.6-7.9-5.6c-1.7-1.3-2.9-3.3-3.6-5.4c-1-3.1-1.2-2.9-3.5-1c-1,1-2.1,1.7-3.3,2.7
		c-7.7,5.9-16.9,8.1-26.3,9.6c-14,2.5-28.2,2.1-42.4,1.2c-10.9-0.8-21.9-1.5-32.8-2.5c-11.1-1-22.2-1.7-33.5-1.7
		c1.3-0.4,2.7-1,4-1.3c12.8-3.5,26.1-5.6,39.3-6.5c13.4-1,26.8-1.7,40.3-2.9c11.3-1,22.6-3.5,33-8.6c7.7-3.8,13.2-9.8,15.9-17.8
		c2.1-6.5,1.9-13.6,1.3-20.5C332.9,404.2,331.6,397.9,329.3,391.2z"/>
	<path fill="#EA0C8E" d="M316,376.1c0-6.7,4.6-10.4,11.3-9c2.3,0.6,4.6,1.3,6.5,2.7c1.9,1.3,4.4,2.3,6.1,4c3.3,3.3,3.3,6.5-0.2,9.8
		c-6.5,6.1-17.6,4.8-22.6-2.5C316,379.5,316,377.8,316,376.1z"/>
	<path fill="#41B64D" d="M453.3,267c4,0,7.1,1.2,9.6,3.5c1,1,1.2,1.9,1,3.1c-1.3,6.1-7.7,14-15,15.3c-3.3,0.6-5.8-0.8-7.5-3.3
		c-3.8-5.4-2.7-11.5,2.7-15.5C447,268,450.4,267,453.3,267z"/>
	<path fill="#693494" d="M310.3,224.8c-1,5-2.3,10.9-7.1,15.1c-2.5,2.1-3.8,2.3-6.5,0.4c-5.8-3.8-6.7-9.4-6.1-15.9
		c0.6-5.8,6.7-10,11.9-9.4C307.8,215.8,310.5,218.5,310.3,224.8z"/>
	<path fill="#F05F2B" d="M241.7,80.9c0-1.5,0.4-3.8,1-5.9c1-3.5,3.3-4.8,6.7-4c7.9,1.3,12.5,9.2,12.3,15.3c0,5.4-5.4,10.5-10.7,10.7
		c-3.1,0-5-1.7-6.5-4C242.2,89.5,241.7,85.7,241.7,80.9z"/>
	<path fill="#2BACE1" d="M461.1,44.5c-0.4,5.4-3.5,10.9-8.6,15.3c-1.2,1-2.3,0.8-3.5,0.2c-2.3-1-4-2.5-5.4-4.4
		c-3.1-4.8-4-12.7,1-18.8c2.1-2.5,7.7-3.6,11.3-2.1C459.6,35.8,461.1,38.3,461.1,44.5z"/>
	<path fill="#41B64D" d="M129.5,187.3c-0.6,5.6-2.3,11.5-7.9,15.5c-1.7,1.3-3.3,1.3-5.2,0.2c-5.8-3.3-8.2-9.8-6.3-17.3
		c1.5-5.9,5.9-9,12.1-8.4C127,178.1,129.5,180.9,129.5,187.3z"/>
	<path fill="#41B64D" d="M119.9,305.1c-0.6,0.8-1.3,1.3-2.5,1.2l0,0c0.4-1,1.2-1.2,2.1-1.7C119.6,304.8,119.7,304.9,119.9,305.1z"/>
	<path fill="#F05F2B" d="M218.5,129.6c0.2,0.2,0.4,0.6,0.2,0.8c-0.4,0.2-0.4-0.2-0.4-0.4C218.3,129.6,218.3,129.6,218.5,129.6z"/>
	<path fill="#693494" d="M306.4,181.7c-0.4-0.2-0.6-0.6-0.2-1c0.2,0.2,0.4,0.4,0.6,0.6C306.6,181.5,306.4,181.7,306.4,181.7z"/>
	<polygon fill="#41B64D" points="125.5,142.2 125.5,142.4 125.3,142.4 	"/>
	<path fill="#41B64D" d="M131.2,143.9c-0.2,0-0.2,0-0.4,0v-0.2C131.1,143.7,131.2,143.7,131.2,143.9L131.2,143.9z"/>
	<path fill="#693494" d="M306.6,182.3c0-0.2-0.2-0.4-0.2-0.6c0.2-0.2,0.2-0.2,0.4-0.4c0.2,0.2,0.2,0.4,0.4,0.6
		C307,182.1,306.8,182.1,306.6,182.3z"/>
	<path fill="#693494" d="M296.3,182.5c0.2-0.2,0.4-0.6,0.6-0.2c0.4,0.2,0,0.4-0.2,0.6C296.5,182.7,296.5,182.5,296.3,182.5z"/>
	<path fill="#41B64D" d="M117.4,306.3c0,0.2-0.2,0.2-0.2,0.4c0,0-0.2,0-0.2-0.2C117.3,306.5,117.3,306.5,117.4,306.3L117.4,306.3z"
		/>
</g>
</svg>
