<?xml version="1.0" encoding="utf-8"?>
<!-- Generator: Adobe Illustrator 18.0.0, SVG Export Plug-In . SVG Version: 6.00 Build 0)  -->
<!DOCTYPE svg PUBLIC "-//W3C//DTD SVG 1.1//EN" "http://www.w3.org/Graphics/SVG/1.1/DTD/svg11.dtd">
<svg version="1.1" id="Layer_1" xmlns="http://www.w3.org/2000/svg" xmlns:xlink="http://www.w3.org/1999/xlink" x="0px" y="0px"
	 viewBox="0 0 640 158.5" enable-background="new 0 0 640 158.5" xml:space="preserve">
<rect y="0" fill="#4F81BD" fill-opacity="0.9" width="640" height="158.5"/>
<rect x="11.9" y="11.7" fill="none" stroke="#FFFFFF" stroke-width="4" stroke-miterlimit="10" width="612.5" height="136.6"/>
<rect x="503" y="120.5" fill="#FFFFFF" width="4.1" height="4.1"/>
<rect x="503" y="112.5" fill="#FFFFFF" width="4.1" height="4.1"/>
<rect x="511.1" y="120.5" fill="#FFFFFF" width="4.1" height="4.1"/>
<rect x="511.1" y="112.5" fill="#FFFFFF" width="4.1" height="4.1"/>
<rect x="519.2" y="120.5" fill="#FFFFFF" width="4.1" height="4.1"/>
<rect x="519.2" y="112.5" fill="#FFFFFF" width="4.1" height="4.1"/>
<rect x="115.1" y="120.5" fill="#FFFFFF" width="4.1" height="4.1"/>
<rect x="115.1" y="112.5" fill="#FFFFFF" width="4.1" height="4.1"/>
<rect x="123.2" y="120.5" fill="#FFFFFF" width="4.1" height="4.1"/>
<rect x="123.2" y="112.5" fill="#FFFFFF" width="4.1" height="4.1"/>
<rect x="131.3" y="120.5" fill="#FFFFFF" width="4.1" height="4.1"/>
<rect x="131.3" y="112.5" fill="#FFFFFF" width="4.1" height="4.1"/>
<g>
	<path fill="#FFFFFF" d="M90.8,67.1l0.8,0.2c0.1,0.4,0.3,0.9,0.6,1.2s0.9,0.6,1.4,0.9s1.1,0.4,1.7,0.5c0.6,0.1,1.2,0.2,1.7,0.2
		c1.7,0,3-0.2,3.9-0.8s1.2-1.5,1.2-2.9V52.2c0-0.4-0.2-0.8-0.5-1s-0.6-0.3-1-0.3v-0.6h8.4v0.8c-0.5,0-1,0.1-1.3,0.3s-0.5,0.5-0.5,1
		v14.5c0,1.2-0.2,2.2-0.8,3s-1.2,1.5-2,2.2c-0.9,0.5-1.9,1-3.1,1.2c-1.2,0.2-2.6,0.3-4,0.3c-0.9,0-1.7-0.1-2.5-0.2s-1.4-0.2-2-0.4
		c-0.6-0.1-1.2-0.3-1.6-0.4s-0.9-0.2-1.1-0.2c-0.3,0-0.5,0.2-0.8,0.5l-0.6-0.4L90.8,67.1z"/>
	<path fill="#FFFFFF" d="M139.7,51.1c-0.5,0-1,0.2-1.3,0.6c-0.2,0.4-0.4,0.8-0.5,1.1L130,69.9c-0.2,0.5-0.5,1.1-0.6,1.4
		c-0.2,0.3-0.2,0.6-0.2,0.8s0,0.2,0.1,0.3c0.1,0.1,0.2,0.2,0.3,0.2v0.8h-6.8v-0.8c0.2-0.1,0.4-0.3,0.4-0.6c0-0.1-0.1-0.4-0.3-0.9
		c-0.2-0.4-0.5-1-0.9-1.7l-8-17.2c-0.1-0.3-0.3-0.5-0.6-0.8c-0.2-0.1-0.6-0.3-1.2-0.4v-0.6h7.8v0.8c-0.2,0-0.4,0-0.6,0.1
		c-0.2,0.1-0.3,0.3-0.3,0.6s0.1,0.8,0.3,1.2c0.2,0.5,0.5,1.1,0.9,1.8l5.6,12.1l5.5-11.9c0.3-0.8,0.6-1.4,1-2c0.3-0.6,0.4-1,0.4-1.3
		c0-0.4-0.4-0.8-1.2-0.8v-0.6h7.7v0.8C139.3,51.1,139.7,51.1,139.7,51.1z"/>
	<path fill="#FFFFFF" d="M159.7,66.2l0.4,0.2c0,0.2,0.1,0.5,0.2,0.8c0.2,0.3,0.6,0.6,1.2,1.1c0.6,0.3,1.3,0.6,2,0.9
		c0.8,0.2,1.6,0.4,2.5,0.6c0.9,0.2,1.6,0.2,2.3,0.2c0.5,0,1.2,0,1.9-0.1s1.6-0.2,2.4-0.4c0.8-0.2,1.4-0.5,1.9-1
		c0.5-0.4,0.9-1,0.9-1.6c0-0.6-0.2-1.2-0.8-1.5c-0.5-0.3-1.2-0.5-2-0.8c-0.9-0.1-1.8-0.2-2.9-0.3c-1.1,0-2.2-0.1-3.3-0.2
		c-1.1-0.1-2.3-0.2-3.3-0.4s-2-0.5-2.9-1.1c-0.9-0.5-1.5-1.2-2-1.9c-0.5-0.9-0.8-1.9-0.8-3.3c0-0.9,0.2-1.8,0.6-2.7
		c0.4-0.9,1.1-1.6,1.9-2.4c0.9-0.6,2-1.2,3.3-1.6c1.4-0.4,2.9-0.6,4.7-0.6c1.5,0,2.9,0.1,4.1,0.3s2.2,0.5,3,0.8
		c0.9,0.2,1.5,0.5,2.2,0.8c0.5,0.2,1.1,0.3,1.4,0.3c0.4,0,0.8-0.1,0.9-0.2l0.5,0.3l-3,5.5l-0.4-0.2c-0.1-0.4-0.2-0.8-0.3-1
		c-0.2-0.3-0.6-0.6-1.2-1.1c-0.5-0.3-1.2-0.6-1.9-0.9c-0.8-0.2-1.5-0.4-2.4-0.6c-0.9-0.1-1.7-0.2-2.6-0.2c-0.6,0-1.3,0-2,0.1
		c-0.6,0.1-1.3,0.2-1.8,0.4c-0.5,0.2-1.1,0.4-1.4,0.9c-0.3,0.3-0.5,0.8-0.5,1.3c0,0.8,0.2,1.2,0.8,1.6c0.5,0.3,1.2,0.6,2,0.8
		c0.9,0.2,1.8,0.3,2.9,0.3c1.1,0.1,2.2,0.1,3.3,0.2c1.1,0.1,2.3,0.2,3.3,0.4s2,0.5,2.9,1.1s1.5,1.2,2,1.9c0.5,0.9,0.8,1.9,0.8,3.2
		c0,1.5-0.4,2.8-1.2,3.8c-0.9,1-1.8,1.7-3,2.3c-1.2,0.5-2.5,1-3.9,1.1c-1.4,0.2-2.7,0.3-3.9,0.3c-1.7,0-3.1-0.1-4.2-0.3
		c-1.2-0.2-2-0.4-2.8-0.8c-0.8-0.3-1.4-0.5-1.8-0.8c-0.4-0.2-0.9-0.3-1.2-0.3c-0.2,0-0.4,0.1-0.5,0.3l-0.6-0.3L159.7,66.2z"/>
	<path fill="#FFFFFF" d="M204.2,58.2c0-0.5-0.4-0.9-1.4-0.9H192v4.4h6.8c0.5,0,0.9,0,1.1-0.1c0.2-0.1,0.3-0.3,0.3-0.6h0.8v4.6h-0.9
		c0.1-0.3,0-0.5-0.3-0.6s-0.8-0.1-1.4-0.1h-6.5V70h11.3c0.3,0,0.6-0.1,0.9-0.2s0.3-0.3,0.3-0.6h0.8v4.6h-0.8c0-0.2-0.1-0.4-0.3-0.4
		s-0.5,0-0.9,0h-16.1v-0.8c0.1,0,0.3,0,0.4-0.1c0.1-0.1,0.2-0.3,0.2-0.5V55.5c0-0.2-0.1-0.4-0.2-0.5c-0.1-0.1-0.3-0.1-0.4-0.1v-0.8
		h15.7c0.9,0,1.4-0.2,1.4-0.8h0.8v4.9L204.2,58.2L204.2,58.2z"/>
	<path fill="#FFFFFF" d="M211.6,72.7c0.5,0,0.8-0.2,0.8-0.6V55.6c0-0.4-0.2-0.6-0.8-0.6v-0.8h6.5v0.8c-0.2,0-0.3,0.1-0.3,0.2
		s0.3,0.5,1,1.2l10.5,11.2V55.6c0-0.4-0.3-0.6-0.9-0.6v-0.8h5.4v0.8c-0.5,0-0.8,0.2-0.8,0.6V72c0,0.4,0.2,0.6,0.8,0.6v0.8H228v-0.8
		c0.2,0,0.3-0.1,0.3-0.2s-0.1-0.3-0.4-0.6c-0.3-0.3-0.6-0.6-1-1l-10.9-11.6V72c0,0.4,0.3,0.6,1,0.6v0.8h-5.4L211.6,72.7L211.6,72.7z
		"/>
	<path fill="#FFFFFF" d="M242.3,66.8c0,0.1,0,0.2,0,0.3c0,0.1,0,0.3,0,0.4c0,0.4,0.3,0.9,0.9,1.2c0.5,0.3,1.2,0.6,2,1
		c0.8,0.2,1.5,0.4,2.4,0.6c0.8,0.1,1.4,0.2,1.8,0.2c0.4,0,1,0,1.5-0.1c0.6-0.1,1.2-0.2,1.8-0.3c0.5-0.2,1.1-0.4,1.5-0.8
		c0.4-0.3,0.6-0.8,0.6-1.4s-0.3-1.1-1.1-1.4c-0.8-0.3-1.6-0.5-2.7-0.6c-1.1-0.1-2.3-0.3-3.5-0.5c-1.3-0.1-2.5-0.4-3.5-0.8
		s-2-0.9-2.7-1.6c-0.8-0.6-1.1-1.7-1.1-2.9c0-1.8,0.8-3.3,2.4-4.5c1.5-1.1,3.8-1.7,6.6-1.7c1.4,0,2.6,0.1,3.5,0.3
		c1,0.2,1.8,0.4,2.5,0.8c0.6,0.2,1.2,0.5,1.6,0.8s0.8,0.3,1,0.3c0.2,0,0.4,0,0.5-0.1c0.1-0.1,0.2-0.1,0.4-0.2l0.5,0.5l-2.2,4.2
		l-0.8-0.2c0-0.2-0.1-0.3-0.1-0.5c0-0.2-0.2-0.3-0.4-0.5c-0.5-0.5-1.5-1-2.7-1.3s-2.6-0.5-4.2-0.5c-0.5,0-1.2,0-1.7,0.1
		c-0.5,0.1-1,0.2-1.4,0.3c-0.4,0.2-0.8,0.4-1,0.6c-0.2,0.3-0.3,0.6-0.3,1.1c0,0.6,0.3,1.1,1.1,1.4c0.8,0.3,1.6,0.5,2.7,0.6
		c1.1,0.2,2.3,0.3,3.5,0.5c1.3,0.2,2.5,0.4,3.5,0.9c1.1,0.4,2,1,2.7,1.7c0.8,0.8,1.1,1.7,1.1,3c0,1.3-0.3,2.4-1,3.2
		c-0.6,0.9-1.4,1.5-2.4,1.9s-1.9,0.8-3.1,1c-1.2,0.1-2.2,0.2-3.2,0.2s-2-0.1-3-0.3c-1-0.2-1.9-0.4-2.7-0.6c-0.9-0.2-1.5-0.5-2-0.8
		c-0.5-0.2-0.9-0.3-1-0.3c-0.2,0-0.4,0.1-0.5,0.2l-0.6-0.4l2-4.9L242.3,66.8z"/>
	<path fill="#FFFFFF" d="M275.3,53.9c1.6,0,3.1,0.2,4.5,0.6c1.4,0.4,2.7,1.1,3.8,1.8c1.1,0.9,1.9,1.8,2.5,3.1c0.6,1.3,1,2.7,1,4.4
		c0,1.7-0.3,3.1-1,4.4c-0.6,1.3-1.5,2.3-2.5,3.1c-1,0.9-2.3,1.4-3.8,1.8c-1.4,0.3-2.9,0.5-4.5,0.5s-3.1-0.2-4.5-0.5
		c-1.4-0.3-2.7-1-3.8-1.8c-1.1-0.9-1.9-1.8-2.5-3.1c-0.6-1.3-1-2.7-1-4.4c0-1.7,0.3-3.1,1-4.4c0.6-1.3,1.5-2.3,2.5-3.1
		c1.1-0.9,2.3-1.4,3.8-1.8C272.2,54.1,273.7,53.9,275.3,53.9z M275.3,57.1c-1,0-1.8,0.1-2.8,0.4c-0.9,0.3-1.7,0.8-2.4,1.3
		c-0.8,0.5-1.3,1.3-1.7,2c-0.4,0.9-0.6,1.7-0.6,2.8s0.2,2,0.6,2.8c0.4,0.9,1,1.5,1.7,2c0.8,0.5,1.5,1,2.4,1.3
		c0.9,0.3,1.8,0.4,2.8,0.4c1,0,1.8-0.1,2.8-0.4c0.9-0.3,1.7-0.8,2.4-1.3c0.8-0.5,1.3-1.3,1.7-2c0.4-0.9,0.6-1.7,0.6-2.8
		s-0.2-2-0.6-2.8c-0.4-0.9-1-1.5-1.7-2c-0.8-0.5-1.5-1-2.4-1.3C277.3,57.2,276.3,57.1,275.3,57.1z"/>
	<path fill="#FFFFFF" d="M304.5,54.1c2.6,0,4.6,0.4,6.1,1.3s2.3,2.4,2.3,4.4c0,0.8-0.1,1.5-0.4,2.2c-0.3,0.6-0.6,1.2-1.2,1.6
		c-0.5,0.4-1.1,0.9-1.6,1.1c-0.5,0.3-1.2,0.5-1.8,0.6l4.3,6.3c0.2,0.3,0.5,0.5,0.8,0.8c0.3,0.2,0.5,0.3,0.9,0.3v0.8h-6.8v-0.8
		c0.4,0,0.5-0.1,0.5-0.4c0-0.3-0.2-0.8-0.6-1.4l-3.4-5.2h-6.1V72c0,0.2,0.1,0.4,0.3,0.5c0.2,0.1,0.3,0.1,0.5,0.1v0.8h-5.9v-0.8
		c0.5,0,0.8-0.2,0.8-0.6V55.6c0-0.4-0.2-0.6-0.8-0.6v-0.8h12.3L304.5,54.1L304.5,54.1z M304.4,62.5c2.9,0,4.3-0.9,4.3-2.7
		c0-0.8-0.3-1.3-1.1-1.7c-0.6-0.4-1.8-0.6-3.3-0.6h-7v5.2L304.4,62.5L304.4,62.5z"/>
	<path fill="#FFFFFF" d="M357.6,51.1c-0.5,0-1,0.2-1.3,0.6c-0.2,0.4-0.4,0.8-0.5,1.1l-7.8,17.1c-0.2,0.5-0.5,1.1-0.6,1.4
		c-0.2,0.3-0.2,0.6-0.2,0.8s0,0.2,0.1,0.3c0.1,0.1,0.2,0.2,0.3,0.2v0.8h-6.8v-0.8c0.2-0.1,0.4-0.3,0.4-0.6c0-0.1-0.1-0.4-0.3-0.9
		c-0.2-0.4-0.5-1-0.9-1.7l-8-17.2c-0.1-0.3-0.3-0.5-0.6-0.8c-0.2-0.1-0.6-0.3-1.2-0.4v-0.6h7.8v0.8c-0.2,0-0.4,0-0.6,0.1
		c-0.2,0.1-0.3,0.3-0.3,0.6s0.1,0.8,0.3,1.2c0.2,0.5,0.5,1.1,0.9,1.8l5.6,12.1l5.5-11.9c0.3-0.8,0.6-1.4,1-2c0.3-0.6,0.4-1,0.4-1.3
		c0-0.4-0.4-0.8-1.2-0.8v-0.6h7.7v0.8C357.3,51.1,357.6,51.1,357.6,51.1z"/>
	<path fill="#FFFFFF" d="M379.3,58.2c0-0.5-0.4-0.9-1.4-0.9h-10.8v4.4h6.8c0.5,0,0.9,0,1.1-0.1c0.2-0.1,0.3-0.3,0.3-0.6h0.8v4.6
		h-0.9c0.1-0.3,0-0.5-0.3-0.6s-0.8-0.1-1.4-0.1H367V70h11.4c0.3,0,0.6-0.1,0.9-0.2c0.2-0.1,0.3-0.3,0.3-0.6h0.8v4.6h-0.8
		c0-0.2-0.1-0.4-0.3-0.4c-0.2,0-0.5,0-0.9,0h-16.1v-0.8c0.1,0,0.3,0,0.4-0.1s0.2-0.3,0.2-0.5V55.5c0-0.2-0.1-0.4-0.2-0.5
		c-0.1-0.1-0.3-0.1-0.4-0.1v-0.8H378c0.9,0,1.4-0.2,1.4-0.8h0.8v4.9L379.3,58.2L379.3,58.2z"/>
	<path fill="#FFFFFF" d="M386.7,72.7c0.5,0,0.8-0.2,0.8-0.6V55.6c0-0.4-0.2-0.6-0.8-0.6v-0.8h6.5v0.8c-0.2,0-0.3,0.1-0.3,0.2
		s0.3,0.5,1,1.2l10.5,11.2V55.6c0-0.4-0.3-0.6-0.9-0.6v-0.8h5.4v0.8c-0.5,0-0.8,0.2-0.8,0.6V72c0,0.4,0.2,0.6,0.8,0.6v0.8h-5.7v-0.8
		c0.2,0,0.3-0.1,0.3-0.2s-0.1-0.3-0.4-0.6c-0.3-0.3-0.6-0.6-1-1l-11-11.6V72c0,0.4,0.3,0.6,1,0.6v0.8h-5.4L386.7,72.7L386.7,72.7z"
		/>
	<path fill="#FFFFFF" d="M420.8,72.7c0.1,0,0.3,0,0.4-0.1s0.2-0.3,0.2-0.5V57.3h-5.7c-0.2,0-0.4,0.1-0.6,0.2
		c-0.2,0.1-0.3,0.3-0.3,0.5h-0.9V53h0.8c0,0.4,0.1,0.6,0.3,0.9c0.2,0.1,0.4,0.2,0.6,0.2h15.7c0.2,0,0.4-0.1,0.6-0.2
		c0.2-0.1,0.3-0.4,0.3-0.9h0.8v5.1h-0.8c0-0.2-0.1-0.4-0.3-0.5c-0.2-0.1-0.4-0.2-0.6-0.2h-5.6V72c0,0.4,0.2,0.6,0.8,0.6v0.8h-5.7
		L420.8,72.7L420.8,72.7z"/>
	<path fill="#FFFFFF" d="M444.1,54.8c-0.6,0-1,0.2-1,0.6v10.1c0,1.4,0.5,2.6,1.5,3.4c1.1,0.9,2.6,1.3,4.7,1.3s3.7-0.4,4.7-1.3
		c1.1-0.9,1.5-1.9,1.5-3.4V55.5c0-0.4-0.3-0.6-1.1-0.6v-0.8h6.1v0.8c-0.6,0-1,0.2-1,0.6v11.2c0,0.9-0.2,1.8-0.6,2.6
		c-0.4,0.8-1.1,1.6-1.8,2.3c-0.9,0.6-1.9,1.2-3.2,1.5c-1.3,0.3-2.8,0.5-4.6,0.5c-1.7,0-3.3-0.2-4.6-0.5c-1.3-0.3-2.4-0.9-3.2-1.5
		c-0.9-0.6-1.5-1.4-1.8-2.3c-0.3-0.9-0.6-1.7-0.6-2.6V55.5c0-0.2-0.1-0.4-0.2-0.5c-0.2-0.1-0.5-0.1-1-0.1v-0.8h6.3L444.1,54.8
		L444.1,54.8z"/>
	<path fill="#FFFFFF" d="M479.6,54.1c2.6,0,4.6,0.4,6.1,1.3s2.2,2.4,2.2,4.4c0,0.8-0.1,1.5-0.4,2.2c-0.3,0.6-0.6,1.2-1.2,1.6
		c-0.5,0.4-1.1,0.9-1.6,1.1c-0.5,0.3-1.2,0.5-1.8,0.6l4.3,6.3c0.2,0.3,0.5,0.5,0.8,0.8c0.3,0.2,0.5,0.3,0.9,0.3v0.8H482v-0.8
		c0.4,0,0.5-0.1,0.5-0.4c0-0.3-0.2-0.8-0.6-1.4l-3.4-5.2h-6.1V72c0,0.2,0.1,0.4,0.3,0.5c0.2,0.1,0.3,0.1,0.5,0.1v0.8h-5.9v-0.8
		c0.5,0,0.8-0.2,0.8-0.6V55.6c0-0.4-0.2-0.6-0.8-0.6v-0.8h12.4L479.6,54.1L479.6,54.1z M479.5,62.5c2.9,0,4.3-0.9,4.3-2.7
		c0-0.8-0.3-1.3-1.1-1.7c-0.6-0.4-1.8-0.6-3.3-0.6h-7v5.2L479.5,62.5L479.5,62.5z"/>
	<path fill="#FFFFFF" d="M511.5,58.2c0-0.5-0.4-0.9-1.4-0.9h-10.8v4.4h6.8c0.5,0,0.9,0,1.1-0.1c0.2-0.1,0.3-0.3,0.3-0.6h0.8v4.6
		h-0.9c0.1-0.3,0-0.5-0.3-0.6s-0.8-0.1-1.4-0.1h-6.5V70h11.4c0.3,0,0.6-0.1,0.9-0.2c0.2-0.1,0.3-0.3,0.3-0.6h0.8v4.6h-0.8
		c0-0.2-0.1-0.4-0.3-0.4c-0.2,0-0.5,0-0.9,0h-16.1v-0.8c0.1,0,0.3,0,0.4-0.1s0.2-0.3,0.2-0.5V55.5c0-0.2-0.1-0.4-0.2-0.5
		c-0.1-0.1-0.3-0.1-0.4-0.1v-0.8h15.7c0.9,0,1.4-0.2,1.4-0.8h0.8v4.9L511.5,58.2L511.5,58.2z"/>
	<path fill="#FFFFFF" d="M520.3,66.8c0,0.1,0,0.2,0,0.3c0,0.1,0,0.3,0,0.4c0,0.4,0.3,0.9,0.9,1.2s1.2,0.6,2,1
		c0.8,0.2,1.5,0.4,2.4,0.6c0.8,0.1,1.4,0.2,1.8,0.2s1,0,1.5-0.1c0.6-0.1,1.2-0.2,1.8-0.3c0.6-0.1,1.1-0.4,1.5-0.8
		c0.4-0.3,0.6-0.8,0.6-1.4s-0.3-1.1-1.1-1.4s-1.6-0.5-2.7-0.6c-1.1-0.1-2.3-0.3-3.5-0.5c-1.3-0.1-2.5-0.4-3.5-0.8
		c-1.1-0.3-2-0.9-2.7-1.6c-0.8-0.6-1.1-1.7-1.1-2.9c0-1.8,0.8-3.3,2.4-4.5c1.5-1.1,3.8-1.7,6.6-1.7c1.4,0,2.6,0.1,3.5,0.3
		c1,0.2,1.8,0.4,2.5,0.8c0.6,0.2,1.2,0.5,1.6,0.8s0.8,0.3,1,0.3s0.4,0,0.5-0.1c0.1-0.1,0.2-0.1,0.4-0.2l0.5,0.5l-2.2,4.2l-0.8-0.2
		c0-0.2-0.1-0.3-0.1-0.5c0-0.2-0.2-0.3-0.4-0.5c-0.5-0.5-1.5-1-2.7-1.3s-2.6-0.5-4.2-0.5c-0.5,0-1.2,0-1.7,0.1
		c-0.5,0.1-1,0.2-1.4,0.3c-0.4,0.2-0.8,0.4-1,0.6c-0.2,0.3-0.3,0.6-0.3,1.1c0,0.6,0.3,1.1,1.1,1.4s1.6,0.5,2.7,0.6
		c1.1,0.2,2.3,0.3,3.5,0.5c1.3,0.2,2.5,0.4,3.5,0.9c1.1,0.4,2,1,2.7,1.7c0.8,0.8,1.1,1.7,1.1,3c0,1.3-0.3,2.4-1,3.2
		c-0.6,0.9-1.4,1.5-2.4,1.9s-1.9,0.8-3.1,1c-1.2,0.1-2.2,0.2-3.2,0.2c-1,0-2-0.1-3-0.3s-1.9-0.4-2.7-0.6c-0.9-0.2-1.5-0.5-2-0.8
		c-0.5-0.2-0.9-0.3-1-0.3c-0.2,0-0.4,0.1-0.5,0.2l-0.6-0.4l2-4.9L520.3,66.8z"/>
</g>
<g>
	<path fill="#FFFDFD" d="M142.3,120.4l0.3,0.1c0,0.1,0,0.2,0,0.4c0,0.1,0.1,0.3,0.1,0.4c0.1,0.2,0.4,0.4,1,0.5
		c0.5,0.2,1.1,0.3,1.7,0.3c0.8,0,1.4-0.1,1.7-0.3c0.4-0.2,0.5-0.8,0.5-1.5v-7c0-0.2-0.1-0.3-0.2-0.5c-0.1-0.1-0.3-0.2-0.4-0.2v-0.5
		h4v0.5c-0.2,0-0.3,0.1-0.5,0.2c-0.1,0.1-0.2,0.3-0.2,0.5v7.3c0,0.6-0.1,1.2-0.4,1.6c-0.2,0.4-0.6,0.9-1.1,1.1
		c-0.4,0.2-1,0.4-1.5,0.5c-0.6,0.1-1.3,0.1-1.9,0.1c-0.4,0-0.8,0-1.2-0.1c-0.4-0.1-0.8-0.1-1.1-0.2c-0.3-0.1-0.6-0.2-0.9-0.2
		c-0.2-0.1-0.4-0.1-0.6-0.1c-0.1,0-0.2,0-0.3,0.1c-0.1,0.1-0.1,0.1-0.2,0.2l-0.2-0.2L142.3,120.4z"/>
	<path fill="#FFFDFD" d="M155.6,123.5c0.3,0,0.5,0,0.5-0.1c0.1-0.1,0.2-0.2,0.2-0.3v-10c0-0.1-0.1-0.2-0.2-0.3
		c-0.1-0.1-0.3-0.1-0.5-0.1v-0.5h4.1v0.5c-0.5,0-0.8,0.1-0.8,0.4v10c0,0.2,0.2,0.4,0.8,0.4v0.5h-4.1V123.5z"/>
	<path fill="#FFFDFD" d="M167.9,112.7c-0.4,0-0.5,0.1-0.5,0.4v6.1c0,0.9,0.3,1.5,1,2c0.6,0.5,1.6,0.8,2.9,0.8s2.3-0.2,2.9-0.8
		c0.6-0.5,1-1.2,1-2v-6.1c0-0.3-0.2-0.4-0.6-0.4v-0.5h3.8v0.5c-0.4,0-0.6,0.1-0.6,0.4v6.8c0,0.5-0.1,1.1-0.4,1.6
		c-0.2,0.5-0.6,1-1.2,1.4c-0.5,0.4-1.2,0.8-1.9,1c-0.8,0.2-1.7,0.3-2.8,0.3s-2-0.1-2.8-0.3c-0.8-0.2-1.5-0.5-1.9-1
		c-0.5-0.4-0.9-0.9-1.2-1.4c-0.2-0.5-0.3-1.1-0.3-1.6v-6.8c0-0.1-0.1-0.2-0.2-0.3c-0.1-0.1-0.3-0.1-0.6-0.1v-0.5h3.9L167.9,112.7
		L167.9,112.7z"/>
	<path fill="#FFFDFD" d="M202.5,112.7c-0.2,0-0.4,0.2-0.6,0.6L198,122c-0.2,0.4-0.3,0.8-0.4,1c-0.1,0.2-0.1,0.3-0.1,0.4
		s0.1,0.2,0.4,0.2v0.5h-4.1v-0.5c0.1,0,0.2-0.1,0.2-0.1c0.1,0,0.1-0.1,0.1-0.2s-0.1-0.2-0.2-0.4c-0.1-0.2-0.2-0.4-0.4-0.9l-4.1-8.8
		c-0.1-0.1-0.2-0.3-0.3-0.3c-0.1-0.1-0.2-0.1-0.3-0.1v-0.5h3.8v0.5c-0.2,0-0.3,0.1-0.3,0.3c0,0.1,0,0.3,0.1,0.5
		c0.1,0.2,0.2,0.4,0.3,0.8l3.1,6.7l2.9-6.5c0.2-0.4,0.3-0.8,0.4-1c0.1-0.2,0.1-0.4,0.1-0.5c0-0.2-0.1-0.3-0.4-0.3v-0.5h3.5v0.4
		C202.3,112.7,202.5,112.7,202.5,112.7z"/>
	<path fill="#FFFDFD" d="M203.5,123.5c0.2,0,0.4-0.1,0.5-0.3s0.2-0.3,0.3-0.4l4-8.7c0.1-0.2,0.2-0.4,0.2-0.6c0-0.2,0.1-0.3,0.1-0.4
		s0-0.2-0.1-0.2l-0.1-0.1v-0.5h4.1v0.5c0,0-0.1,0.1-0.2,0.1c-0.1,0-0.1,0.1-0.1,0.2s0,0.2,0.1,0.4c0.1,0.1,0.2,0.3,0.2,0.5l4.3,9.1
		c0.1,0.1,0.2,0.3,0.3,0.3c0.1,0.1,0.2,0.1,0.3,0.1v0.5h-3.8v-0.4c0.1,0,0.2,0,0.3-0.1s0.1-0.1,0.1-0.3c0-0.1,0-0.2,0-0.3
		c0-0.1-0.1-0.2-0.1-0.3l-0.8-1.5h-5.8l-0.8,1.4c-0.1,0.1-0.1,0.3-0.2,0.4c0,0.1-0.1,0.2-0.1,0.3c0,0.1,0,0.2,0.1,0.2s0.2,0,0.4,0
		v0.5h-3.7v-0.4C203.3,123.5,203.5,123.5,203.5,123.5z M212.5,119.1l-2.2-4.5l-1.9,4.5H212.5z"/>
	<path fill="#FFFDFD" d="M224,112.2v0.5c-0.4,0-0.6,0.1-0.6,0.4v8.9h7.3c0.2,0,0.4,0,0.5-0.1c0.1-0.1,0.2-0.2,0.2-0.4h0.5v2.8h-0.5
		c0-0.1-0.1-0.2-0.2-0.2c-0.1,0-0.3,0-0.5,0h-10.5v-0.5c0.4,0,0.6-0.1,0.6-0.4v-10c0-0.2-0.2-0.4-0.6-0.4v-0.5
		C220.2,112.2,224,112.2,224,112.2z"/>
	<path fill="#FFFDFD" d="M239,112.2v0.5c-0.4,0-0.6,0.1-0.6,0.4v8.9h7.3c0.2,0,0.4,0,0.5-0.1c0.1-0.1,0.2-0.2,0.2-0.4h0.5v2.8h-0.5
		c0-0.1-0.1-0.2-0.2-0.2c-0.1,0-0.3,0-0.5,0h-10.5v-0.5c0.4,0,0.6-0.1,0.6-0.4v-10c0-0.2-0.2-0.4-0.6-0.4v-0.5
		C235.1,112.2,239,112.2,239,112.2z"/>
	<path fill="#FFFDFD" d="M260.6,114.7c0-0.3-0.3-0.5-0.9-0.5h-6.6v2.7h4.1c0.3,0,0.5,0,0.6-0.1c0.1,0,0.2-0.2,0.2-0.3h0.5v2.8h-0.5
		c0-0.2,0-0.3-0.2-0.3s-0.4-0.1-0.9-0.1h-3.9v3.2h6.9c0.2,0,0.4,0,0.5-0.1s0.2-0.2,0.2-0.4h0.5v2.8h-0.5c0-0.2-0.1-0.2-0.2-0.2
		c-0.1,0-0.3,0-0.5,0h-9.9v-0.5c0.1,0,0.2,0,0.2-0.1s0.1-0.2,0.1-0.3v-10c0-0.1,0-0.2-0.1-0.3c-0.1-0.1-0.2-0.1-0.2-0.1v-0.5h9.6
		c0.5,0,0.9-0.2,0.9-0.5h0.4v3L260.6,114.7L260.6,114.7z"/>
	<path fill="#FFFDFD" d="M264.6,113.1c-0.1-0.2-0.3-0.3-0.4-0.3c-0.2-0.1-0.3-0.1-0.5-0.1v-0.5h4.4v0.5c-0.1,0-0.2,0-0.3,0.1
		c-0.1,0.1-0.2,0.1-0.2,0.2s0,0.2,0.1,0.3s0.1,0.2,0.2,0.3l2.7,3.5l2.4-3.3c0.1-0.2,0.3-0.4,0.3-0.5c0.1-0.1,0.1-0.2,0.1-0.3
		c0-0.1,0-0.2-0.1-0.2s-0.2,0-0.2,0v-0.5h4.1v0.5c-0.2,0-0.4,0.1-0.8,0.3c-0.2,0.2-0.5,0.5-0.6,0.8l-4.1,5.4v4.1
		c0,0.2,0.2,0.4,0.5,0.4v0.5h-3.5v-0.5c0.3,0,0.5-0.1,0.5-0.4v-4.1L264.6,113.1z"/>
	<path fill="#FFFDFD" d="M288.4,123.5c0.3,0,0.5,0,0.5-0.1c0.1-0.1,0.2-0.2,0.2-0.3v-10c0-0.1-0.1-0.2-0.2-0.3
		c-0.1-0.1-0.3-0.1-0.5-0.1v-0.5h4.1v0.5c-0.5,0-0.8,0.1-0.8,0.4v10c0,0.2,0.2,0.4,0.8,0.4v0.5h-4.1V123.5z"/>
	<path fill="#FFFDFD" d="M297.2,123.5c0.3,0,0.5-0.1,0.5-0.4v-10c0-0.2-0.1-0.4-0.5-0.4v-0.5h4v0.5c-0.1,0-0.2,0.1-0.2,0.1
		c0,0.1,0.2,0.3,0.6,0.8l6.5,6.8V113c0-0.2-0.2-0.4-0.5-0.4V112h3.2v0.5c-0.3,0-0.5,0.1-0.5,0.4v10c0,0.2,0.2,0.4,0.5,0.4v0.5h-3.4
		v-0.5c0.1,0,0.2,0,0.2-0.1s-0.1-0.2-0.2-0.3c-0.2-0.2-0.3-0.4-0.5-0.6l-6.7-7.1v7.8c0,0.2,0.2,0.4,0.5,0.4v0.5h-3.3L297.2,123.5
		L297.2,123.5z"/>
	<path fill="#FFFDFD" d="M327.3,112.7c-0.2,0-0.4,0.2-0.6,0.6l-3.9,8.7c-0.2,0.4-0.3,0.8-0.4,1c-0.1,0.2-0.1,0.3-0.1,0.4
		s0.2,0.2,0.5,0.2v0.5h-4.1v-0.5c0.1,0,0.2-0.1,0.2-0.1c0.1,0,0.1-0.1,0.1-0.2s-0.1-0.2-0.2-0.4c-0.1-0.2-0.2-0.4-0.4-0.9l-4.1-8.8
		c-0.1-0.1-0.2-0.3-0.3-0.3c-0.1-0.1-0.2-0.1-0.3-0.1v-0.5h3.8v0.5c-0.2,0-0.3,0.1-0.3,0.3c0,0.1,0,0.3,0.1,0.5
		c0.1,0.2,0.2,0.4,0.3,0.8l3.1,6.7l2.9-6.5c0.2-0.4,0.3-0.8,0.4-1c0.1-0.2,0.1-0.4,0.1-0.5c0-0.2-0.1-0.3-0.4-0.3v-0.5h3.5
		L327.3,112.7L327.3,112.7z"/>
	<path fill="#FFFDFD" d="M340.5,114.7c0-0.3-0.3-0.5-0.9-0.5h-6.6v2.7h4.1c0.3,0,0.5,0,0.6-0.1c0.1,0,0.2-0.2,0.2-0.3h0.5v2.8H338
		c0-0.2,0-0.3-0.2-0.3s-0.4-0.1-0.9-0.1h-3.9v3.2h6.9c0.2,0,0.4,0,0.5-0.1s0.2-0.2,0.2-0.4h0.5v2.8h-0.5c0-0.2-0.1-0.2-0.2-0.2
		s-0.3,0-0.5,0h-9.9v-0.5c0.1,0,0.2,0,0.2-0.1s0.1-0.2,0.1-0.3v-10c0-0.1,0-0.2-0.1-0.3c-0.1-0.1-0.2-0.1-0.2-0.1v-0.5h9.6
		c0.5,0,0.9-0.2,0.9-0.5h0.5v3L340.5,114.7L340.5,114.7z"/>
	<path fill="#FFFDFD" d="M345.9,119.9c0,0.1,0,0.1,0,0.2s0,0.2,0,0.2c0,0.2,0.2,0.5,0.5,0.8c0.3,0.2,0.8,0.4,1.2,0.5
		c0.4,0.1,1,0.3,1.4,0.3c0.4,0.1,0.9,0.1,1.1,0.1s0.5,0,1,0c0.3,0,0.8-0.1,1.1-0.2s0.6-0.3,1-0.4s0.3-0.4,0.3-0.9
		c0-0.4-0.2-0.6-0.6-0.9c-0.4-0.2-1-0.3-1.6-0.4c-0.6-0.1-1.4-0.2-2.2-0.3c-0.8-0.1-1.5-0.2-2.2-0.5c-0.6-0.2-1.2-0.5-1.6-1
		s-0.6-1-0.6-1.8c0-1.2,0.4-2,1.4-2.7c1-0.6,2.3-1.1,4-1.1c0.9,0,1.6,0.1,2.2,0.2s1.1,0.3,1.5,0.4s0.8,0.3,1,0.4
		c0.2,0.1,0.4,0.2,0.5,0.2c0.1,0,0.2,0,0.3-0.1c0.1,0,0.2-0.1,0.2-0.1l0.3,0.3l-1.3,2.5l-0.5-0.1c0-0.1,0-0.2,0-0.3
		c0-0.1-0.1-0.2-0.2-0.3c-0.3-0.3-0.9-0.5-1.6-0.8s-1.6-0.3-2.5-0.3c-0.3,0-0.8,0-1.1,0.1c-0.3,0.1-0.6,0.1-0.9,0.2
		c-0.2,0.1-0.4,0.2-0.6,0.4c-0.1,0.2-0.2,0.4-0.2,0.6c0,0.4,0.2,0.6,0.6,0.9s1,0.3,1.6,0.4c0.6,0.1,1.4,0.2,2.2,0.3
		c0.8,0.1,1.5,0.2,2.2,0.5c0.6,0.2,1.2,0.5,1.6,1.1c0.4,0.4,0.6,1.1,0.6,1.8c0,0.8-0.2,1.4-0.5,1.9c-0.3,0.5-0.9,0.9-1.4,1.2
		c-0.5,0.3-1.2,0.4-1.9,0.5c-0.8,0.1-1.3,0.1-1.9,0.1c-0.6,0-1.2-0.1-1.8-0.2c-0.6-0.1-1.2-0.2-1.6-0.4c-0.5-0.1-0.9-0.3-1.3-0.4
		c-0.4-0.1-0.5-0.2-0.6-0.2s-0.2,0-0.3,0.1l-0.3-0.2l1.2-3L345.9,119.9z"/>
	<path fill="#FFFDFD" d="M362.8,123.5c0.1,0,0.2,0,0.2-0.1s0.1-0.2,0.1-0.3v-8.9h-3.4c-0.1,0-0.3,0-0.4,0.1
		c-0.1,0.1-0.2,0.2-0.2,0.3h-0.5v-3h0.5c0,0.2,0.1,0.4,0.2,0.5c0.1,0.1,0.2,0.1,0.4,0.1h9.6c0.1,0,0.3,0,0.4-0.1s0.2-0.2,0.2-0.5
		h0.5v3.1h-0.6c0-0.2-0.1-0.3-0.2-0.3c-0.1-0.1-0.2-0.1-0.4-0.1h-3.4v8.9c0,0.2,0.1,0.4,0.5,0.4v0.5h-3.4L362.8,123.5L362.8,123.5z"
		/>
	<path fill="#FFFDFD" d="M373.7,123.5c0.1,0,0.2,0,0.2-0.1s0.1-0.2,0.1-0.4v-9.8c0-0.2,0-0.4-0.1-0.4c0-0.1-0.1-0.1-0.2-0.1v-0.5
		h3.8v0.5c-0.2,0-0.2,0.1-0.2,0.2s0,0.2,0.1,0.3s0.1,0.3,0.3,0.5l3.2,6l3.3-6c0.1-0.2,0.2-0.4,0.3-0.5c0.1-0.1,0.1-0.2,0.1-0.3
		c0-0.1-0.1-0.2-0.2-0.2v-0.5h3.8v0.5c-0.1,0-0.2,0-0.2,0.1c0,0.1-0.1,0.1-0.1,0.3v10.1c0,0.1,0,0.2,0.1,0.3
		c0.1,0.1,0.2,0.1,0.2,0.1v0.5h-3.1v-0.5c0.3,0,0.5-0.1,0.5-0.4v-7.5h-0.1l-4.5,8.4h-0.2l-4.3-8.4l0,0h-0.2v7.5
		c0,0.2,0.1,0.4,0.4,0.4v0.5h-3V123.5z"/>
	<path fill="#FFFDFD" d="M403.2,114.7c0-0.3-0.3-0.5-0.9-0.5h-6.6v2.7h4.1c0.3,0,0.5,0,0.6-0.1c0.1,0,0.2-0.2,0.2-0.3h0.5v2.8h-0.5
		c0-0.2,0-0.3-0.2-0.3s-0.4-0.1-0.9-0.1h-3.9v3.2h6.9c0.2,0,0.4,0,0.5-0.1s0.2-0.2,0.2-0.4h0.5v2.8h-0.5c0-0.2-0.1-0.2-0.2-0.2
		s-0.3,0-0.5,0h-9.9v-0.5c0.1,0,0.2,0,0.2-0.1s0.1-0.2,0.1-0.3v-10c0-0.1,0-0.2-0.1-0.3c-0.1-0.1-0.2-0.1-0.2-0.1v-0.5h9.6
		c0.5,0,0.9-0.2,0.9-0.5h0.5v3L403.2,114.7L403.2,114.7z"/>
	<path fill="#FFFDFD" d="M407.8,123.5c0.3,0,0.4-0.1,0.4-0.4v-10c0-0.2-0.1-0.4-0.4-0.4v-0.5h4v0.5c-0.1,0-0.2,0.1-0.2,0.1
		c0,0.1,0.2,0.3,0.5,0.8l6.5,6.8V113c0-0.2-0.2-0.4-0.5-0.4V112h3.2v0.5c-0.3,0-0.5,0.1-0.5,0.4v10c0,0.2,0.2,0.4,0.5,0.4v0.5h-3.4
		v-0.5c0.1,0,0.2,0,0.2-0.1s-0.1-0.2-0.2-0.3c-0.1-0.1-0.3-0.4-0.5-0.6l-6.7-7.1v7.8c0,0.2,0.2,0.4,0.5,0.4v0.5h-3.3L407.8,123.5
		L407.8,123.5z"/>
	<path fill="#FFFDFD" d="M428.5,123.5c0.1,0,0.2,0,0.2-0.1s0.1-0.2,0.1-0.3v-8.9h-3.4c-0.1,0-0.3,0-0.4,0.1s-0.2,0.2-0.2,0.3h-0.5
		v-3h0.5c0,0.2,0.1,0.4,0.2,0.5s0.2,0.1,0.4,0.1h9.6c0.1,0,0.3,0,0.4-0.1s0.2-0.2,0.2-0.5h0.5v3.1h-0.5c0-0.2-0.1-0.3-0.2-0.3
		c-0.1-0.1-0.2-0.1-0.4-0.1h-3.4v8.9c0,0.2,0.1,0.4,0.5,0.4v0.5h-3.4L428.5,123.5L428.5,123.5z"/>
	<path fill="#FFFDFD" d="M450.5,123.1c0,0.1,0,0.2,0.1,0.3c0.1,0.1,0.2,0.1,0.3,0.1v0.5h-3.3v-0.5c0.1,0,0.2,0,0.3-0.1
		c0.1-0.1,0.1-0.2,0.1-0.3v-10c0-0.1,0-0.2-0.1-0.3c-0.1-0.1-0.2-0.1-0.3-0.1v-0.5h3.3v0.5c-0.1,0-0.2,0-0.3,0.1
		c-0.1,0.1-0.1,0.2-0.1,0.3v3.8h7.2v-3.8c0-0.1,0-0.2-0.1-0.3c-0.1-0.1-0.2-0.1-0.3-0.1v-0.5h3.4v0.5c-0.1,0-0.2,0-0.3,0.1
		c-0.1,0.1-0.1,0.2-0.1,0.3v10c0,0.1,0,0.2,0.1,0.3c0.1,0.1,0.2,0.1,0.3,0.1v0.5h-3.4v-0.5c0.1,0,0.2,0,0.3-0.1
		c0.1-0.1,0.1-0.2,0.1-0.3v-4h-7.2V123.1z"/>
	<path fill="#FFFDFD" d="M468.8,112.7c-0.4,0-0.5,0.1-0.5,0.4v6.1c0,0.9,0.3,1.5,1,2s1.6,0.8,2.9,0.8c1.3,0,2.3-0.2,2.9-0.8
		c0.6-0.5,1-1.2,1-2v-6.1c0-0.3-0.2-0.4-0.6-0.4v-0.5h3.8v0.5c-0.4,0-0.5,0.1-0.5,0.4v6.8c0,0.5-0.1,1.1-0.4,1.6
		c-0.2,0.5-0.6,1-1.2,1.4c-0.5,0.4-1.2,0.8-1.9,1c-0.8,0.2-1.7,0.3-2.8,0.3c-1.1,0-2-0.1-2.8-0.3c-0.8-0.2-1.4-0.5-1.9-1
		s-0.9-0.9-1.2-1.4c-0.2-0.5-0.3-1.1-0.3-1.6v-6.8c0-0.1,0-0.2-0.2-0.3c-0.1-0.1-0.3-0.1-0.6-0.1v-0.5h3.9v0.5H468.8z"/>
	<path fill="#FFFDFD" d="M483.5,113.1c0-0.1-0.1-0.2-0.2-0.3c-0.1-0.1-0.3-0.1-0.4-0.1v-0.5h8.4c0.6,0,1.3,0.1,1.7,0.2
		c0.5,0.2,0.9,0.4,1.3,0.6c0.3,0.3,0.5,0.6,0.8,1c0.2,0.3,0.2,0.8,0.2,1.2c0,0.3,0,0.6-0.1,0.9c-0.1,0.3-0.2,0.5-0.4,0.8
		c-0.2,0.2-0.3,0.4-0.5,0.6s-0.4,0.3-0.6,0.4l0,0c0.2,0.1,0.5,0.2,0.8,0.4s0.4,0.4,0.6,0.6c0.2,0.2,0.3,0.5,0.4,0.9
		c0.1,0.3,0.2,0.6,0.2,1.1s-0.1,0.9-0.2,1.2c-0.1,0.3-0.4,0.8-0.8,1c-0.3,0.3-0.9,0.5-1.4,0.6c-0.5,0.1-1.3,0.2-2,0.2h-8.3v-0.5
		c0.1,0,0.3,0,0.4-0.1c0.1-0.1,0.2-0.2,0.2-0.3L483.5,113.1L483.5,113.1z M490.9,116.9c0.4,0,0.9-0.1,1.2-0.2
		c0.4-0.2,0.5-0.5,0.5-1.1c0-0.3,0-0.5-0.2-0.6c-0.1-0.2-0.2-0.3-0.4-0.4c-0.1-0.1-0.3-0.2-0.5-0.2s-0.4,0-0.6,0h-4.8v2.7
		L490.9,116.9L490.9,116.9z M490.8,122c0.9,0,1.4-0.1,1.7-0.4c0.3-0.2,0.4-0.6,0.4-1.2c0-0.5-0.2-1-0.5-1.2c-0.4-0.2-1.1-0.4-2-0.4
		H486v3.2H490.8z"/>
</g>
</svg>
