<?xml version="1.0" encoding="utf-8"?>
<!-- Generator: Adobe Illustrator 18.0.0, SVG Export Plug-In . SVG Version: 6.00 Build 0)  -->
<!DOCTYPE svg PUBLIC "-//W3C//DTD SVG 1.1//EN" "http://www.w3.org/Graphics/SVG/1.1/DTD/svg11.dtd">
<svg version="1.1" id="Layer_1" xmlns="http://www.w3.org/2000/svg" xmlns:xlink="http://www.w3.org/1999/xlink" x="0px" y="0px"
	 viewBox="0 0 640 480" enable-background="new 0 0 640 480" xml:space="preserve">
<path fill="#E72222" d="M636.9,243.3c-0.1,13.6,0.2,27.3-3.3,40.6c-1.6,6-4.1,11.5-8.9,15.9c-5.9,5.3-12.3,6-19.2,2.3
	c-4.6-2.6-8.5-6-11.4-10.6c-5.3-8.4-11.2-16.4-17.9-23.8c-6.1-6.7-13.2-11.2-22.4-12.6c-11.9-1.7-23.5-5.2-35.7-3.5
	c-7.3,0.9-13.4,3.8-18.7,9c-7.4,7.3-15.6,13.6-25.1,17.9c-16.7,7.5-28.2,0.3-29.2-18c-0.6-11.5,1-22.9,4.9-33.5
	c7.4-20.1,15.7-39.8,26.4-58.5c2.5-4.3,5.4-8.3,8.7-12c8-9.2,18.2-11.9,29.9-9.6c6.5,1.3,12.7,3.6,18.1,7.9c6.5,5.1,14,8,22.2,9.5
	c2,0.3,2.4,0,2.9-2.1c2.5-10.3,8-18.9,17-24.9c1.2-0.8,2-0.6,3,0.5c1.4,1.6-0.2,2-1,2.7c-4.3,3.5-8.3,7.1-11.3,11.9
	c-1.7,2.8-2.7,5.7-2.5,9.2c0.2,3.1,0.9,3.7,3.8,3.5c5.4-0.4,10.6-1.5,15.7-3.3c19.7-6.8,39.6,2.8,46.2,22.6
	c4.2,12.7,5.7,26,6.8,39.4C636.4,229.9,636.5,236.6,636.9,243.3z M536.2,199.2c0.2-14.9-10.5-25.8-25.8-26.1s-26.6,11.7-26.9,28.5
	c-0.2,13.5,11.2,26.2,23.9,26.4C525.1,228.2,535.9,217.5,536.2,199.2z M599.8,204.3c4.2,0.1,7.5-3.6,7.5-8.4c0-4.3-3.5-7.7-8.2-7.8
	c-4.6-0.1-7.8,3.5-7.8,8.5C591.4,200.7,595.2,204.2,599.8,204.3z M589.8,209.7c-0.1-4.6-3.4-7.9-7.9-7.9c-4.7-0.1-7.9,3.6-7.9,8.8
	c0.1,4.1,3.9,7.9,8.2,7.9C586.3,218.6,589.8,214.4,589.8,209.7z M618.7,212.8c0-4.3-3.3-7.5-7.8-7.5c-4.2,0-7.2,3.5-7.3,8.4
	c0,4.6,3.7,8.5,8,8.3C615.5,222.1,618.8,217.7,618.7,212.8z M602.2,225.3c-0.1-4.4-3.5-7.5-7.9-7.4c-4,0.2-6.8,3.8-6.8,9
	c0.1,4.1,3.1,6.9,7.4,6.9C599.2,233.7,602.3,230.1,602.2,225.3z"/>
<path fill="#3881C0" d="M162.6,262.7c-0.2-0.5-0.2-0.6-0.2-0.7c1.6-10.3,1.6-10.3,11.9-10.3c0.2,0,0.2,0,0.4,0
	c3.1-0.3,7.5,1.4,8.9-0.7c1.3-1.9-0.7-5.9-1.3-9c-4.5-20.1-9-40.3-13.6-60.4c-0.9-3.7,0.7-6.9,1.4-10.4c0.3-1.5,1.4-1.3,2.4-1.3
	c10.4,0,20.9,0.1,31.4-0.1c2.5,0,2.6,1.5,3,3.1c6,26.2,12.1,52.4,18.2,78.6c2,8.5,4.1,17,6,25.5c0.7,3.3,2.1,5.8,5.5,7
	c2.3,0.8,3.8,2.4,3.3,5.1c-0.5,2.9-2.7,3.8-5.2,3.8c-15.6,0.1-31.1,0.1-46.7,0c-2.4,0-4.2-1.3-4.9-3.8c-0.6-2.6,0.5-4.5,2.7-5.4
	c3.9-1.7,4.6-4.7,3.8-8.4c-0.9-4.2-0.4-9.6-3.2-12.2c-2.6-2.4-7.8-0.6-11.8-0.7C170.6,262.6,166.5,262.7,162.6,262.7z"/>
<path fill="#3881C0" d="M31.8,293.3c-7.5,0-14.9,0.1-22.4,0c-4.6-0.1-6.6-2.1-6.1-5.7c0.3-2.5,2.1-3.5,4.2-4.1
	c3.5-0.9,4.6-3.2,4.6-6.7c-0.1-30.1-0.1-60.2,0-90.3c0-3.5-1.1-5.7-4.7-6.6c-3.1-0.8-4.7-2.8-4.1-6.1c0.6-3.1,3.1-3.8,5.7-3.8
	c15.3-0.1,30.6-0.1,46,0c2.7,0,5,0.9,5.6,3.9c0.5,3.1-1.2,5.1-4,5.8c-4,0.9-4.9,3.7-4.9,7.3c0,29.9,0,59.6,0,89.5
	c0,3.5,0.9,6.1,4.8,7c3.1,0.7,4.2,2.8,3.8,5.9c-0.5,3.1-2.9,3.8-5.5,3.8C47,293.3,39.3,293.3,31.8,293.3z"/>
<path fill="#3881C0" d="M276.7,169.9c7.2,0,14.4,0,21.6,0c1.4,0,2.9,0.1,4.2,0.5c2.2,0.5,3.8,1.9,4,4.3c0.2,2.6-1.3,4.2-3.6,4.9
	c-1,0.3-2,0.5-3.1,0.8c-2.7,0.6-3.9,2.4-4.2,5c-0.1,1.3-0.1,2.6-0.1,3.9c0,33.2-0.1,66.5,0.1,99.8c0,3.6-1,4.2-4.4,4.2
	c-12-0.2-24.1-0.1-36.1-0.1c-1.2,0-2.4,0.1-3.5-0.2c-2.4-0.4-4.3-1.5-4.6-4.2c-0.2-2.4,0.9-4.6,3.3-5.1c5.2-1.1,5.8-4.8,5.8-9.2
	c-0.1-28.7,0-57.4,0-86c0-4.3-0.5-8.1-5.7-9.3c-2.7-0.6-3.8-2.8-3.4-5.4c0.5-3,2.8-3.9,5.5-4C260.7,169.9,268.8,169.9,276.7,169.9
	L276.7,169.9z"/>
<path fill="#3881C0" d="M392.3,231.8c0,19.2-0.1,38.4,0.1,57.7c0,3.1-0.8,3.9-3.8,3.9c-12.4-0.2-24.8-0.1-37.2-0.1
	c-1,0-2.1,0-3.1-0.2c-2.2-0.5-3.9-1.6-4.2-4c-0.3-2.5,0.8-4.6,3.2-5.2c5.4-1.2,5.9-4.9,5.9-9.5c-0.1-28.5-0.1-57,0-85.6
	c0-4.5-0.5-8.3-5.9-9.5c-2.4-0.5-3.5-2.7-3.2-5.2c0.3-2.8,2.4-4,4.9-4.2c3.8-0.2,7.6-0.2,11.4-0.2c9.4,0,18.9,0.1,28.3-0.1
	c3-0.1,3.9,0.7,3.9,3.8C392.2,193,392.3,212.5,392.3,231.8z"/>
<path fill="#3881C0" d="M93.4,293.3c-7.2,0-14.4,0-21.6,0c-3,0-6-0.2-7.1-3.6c-1-3.5,1-5.4,3.9-6.7c2.8-1.3,2.7-3.4,1.9-5.9
	c-3.7-11-7.1-22.2-11-33.1c-2.6-7.3-2.1-13.4,2.7-19.8c6.5-8.5,12.3-17.5,18.5-26.3c1.5-2.2,2.7-4.5,3.3-7.1c1-4.7-0.9-8.6-5.3-10.6
	c-0.9-0.5-2-0.8-2.9-1.3c-2.2-1.1-3-2.8-2.6-5.2c0.5-2.4,2-3.8,4.3-3.8c11.5-0.1,23-0.1,34.6,0c2.5,0,4.5,1.5,4.9,4.2
	c0.5,2.6-0.5,4.6-2.8,5.9c-0.5,0.2-0.9,0.5-1.4,0.7c-9,2.7-14.7,9.4-20.3,16.4c-4.6,5.7-5.6,10.6-2.6,17.8
	c8.3,20.3,15.6,41,23.3,61.5c1.2,3.1,2.6,6,6,7.4c2.4,1,3.3,2.8,2.9,5.3c-0.5,2.7-2.5,3.6-4.9,3.8c-3.5,0.2-7.1,0.1-10.6,0.1
	C102.3,293.3,97.9,293.3,93.4,293.3z"/>
<path fill="#3881C0" d="M164.6,194.1c1.3,5.6,2.7,11.2,3.9,16.7c0.3,1.5-0.2,2.8-0.6,4.2c-4.9,18.1-9.7,36.3-14.6,54.5
	c-2,7.7-0.7,10.7,6.4,14.1c2.6,1.3,4.6,2.8,3.8,6c-0.6,3.1-3.1,3.6-5.7,3.6c-8,0-15.9,0.1-24,0c-2.9,0-5.6-0.9-6.2-4.3
	c-0.5-3.1,1.7-4.5,4.1-5.4c7.2-2.8,10.4-8.7,12.3-15.7c5.5-20.4,11-40.9,16.5-61.3c1.1-4.2,2.3-8.3,3.4-12.5
	C164.2,194.1,164.4,194.1,164.6,194.1z"/>
<path fill="#3881C0" d="M336.6,272.7c0,5.9-0.1,11.8,0,17.7c0,2-0.3,3.1-2.7,3c-9.6-0.2-19.1-0.1-28.7,0c-1.7,0-2.7-0.4-2.5-2.4
	c0.1-0.6,0.1-1,0-1.6c-0.9-4.6,0.5-7.1,5.6-7.9c4.9-0.8,8.1-4.6,10.9-8.4c3.4-4.7,5.6-10,7.2-15.6c0.5-1.7,1.2-3.5,2-5.1
	c1-2,2.9-2.7,4.9-2.2c2,0.5,3.1,2,3.1,4C336.6,260.4,336.6,266.5,336.6,272.7C336.6,272.7,336.6,272.7,336.6,272.7z"/>
<path fill="#3881C0" d="M418.7,293.3c-5.3,0-10.7-0.1-16.1,0c-1.8,0-2.4-0.5-2.5-2.4c-0.3-6.8-0.4-6.7,6.2-8.8
	c10.1-3.2,16.5-10.1,20.3-19.8c0.7-1.7,1.3-3.5,2-5.1c0.9-2,2.7-2.7,4.9-2.4c2.2,0.3,3.1,1.9,3.3,3.8c0.2,2.8,0.2,5.7,0.2,8.6
	c0,7.5-0.2,14.9,0.1,22.3c0.1,3.2-1,3.9-4,3.8C428.4,293.1,423.5,293.3,418.7,293.3z"/>
<path fill="#3881C0" d="M418.1,169.9c5.1,0,10.2,0.1,15.2,0c1.9,0,2.5,0.6,2.4,2.4c-0.1,9.9,0,19.9-0.1,29.8c0,2.6-0.4,5.1-3.7,5.5
	c-3.4,0.5-4.5-1.7-5.3-4.4c-3.9-12.1-11.3-20.4-24.6-22.2c-1.7-0.2-2-1.2-2-2.6c-0.5-8.4-0.6-8.4,7.9-8.4
	C411.4,169.9,414.7,169.9,418.1,169.9z"/>
<path fill="#3881C0" d="M420.6,230.8c0,6.1,0.1,12.3,0,18.5c-0.1,2.7,0,5.8-3.8,6.3c-3.6,0.4-4.7-2.2-5.4-4.9
	c-1.6-6.3-3.8-12-10.6-14.5c-1.2-0.4-1.1-1.3-1.1-2.2c0-2.1,0.1-4.2,0-6.3c-0.1-1.7,0.5-2.7,2-3.4c5.4-2.7,8.2-7.4,9.5-13.2
	c0.1-0.2,0.1-0.5,0.2-0.8c0.7-2.8,1.9-5.3,5.5-4.9c3.4,0.5,3.8,3.1,3.9,5.8c0.1,4.3,0,8.6,0.1,13
	C420.6,226.4,420.6,228.6,420.6,230.8L420.6,230.8z"/>
<path fill="#FEFEFE" d="M536.2,199.2c-0.3,18.3-11.1,29-28.9,28.8c-12.6-0.2-24.1-12.9-23.9-26.4c0.3-16.8,11.6-28.8,26.9-28.5
	C525.7,173.3,536.4,184.2,536.2,199.2z M525.3,200.3c0.2-9.2-6.8-16-16.1-16.1c-8.3-0.1-14.7,7-14.8,16.5
	c-0.1,8.8,7.1,15.6,16.5,15.8C519.4,216.5,525.1,210,525.3,200.3z"/>
<path fill="#FEFEFE" d="M599.8,204.3c-4.6-0.1-8.5-3.6-8.5-7.6c0-5,3.2-8.6,7.8-8.5c4.7,0.1,8.2,3.4,8.2,7.8
	C607.3,200.7,604,204.4,599.8,204.3z"/>
<path fill="#FEFEFE" d="M589.8,209.7c0.1,4.7-3.5,8.9-7.6,8.8c-4.2-0.1-8.1-3.8-8.2-7.9c-0.1-5.2,3.1-8.8,7.9-8.8
	C586.4,201.8,589.7,205.1,589.8,209.7z"/>
<path fill="#FEFEFE" d="M618.7,212.8c0,4.9-3.3,9.2-7.1,9.3c-4.3,0.2-8-3.8-8-8.3c0-4.9,3-8.4,7.3-8.4
	C615.5,205.4,618.7,208.5,618.7,212.8z"/>
<path fill="#FEFEFE" d="M602.2,225.3c0.1,4.9-3,8.5-7.2,8.5c-4.3,0.1-7.4-2.8-7.4-6.9c-0.1-5.2,2.7-8.9,6.8-9
	C598.8,217.7,602.1,220.9,602.2,225.3z"/>
<path fill="#E72222" d="M525.3,200.3c-0.2,9.7-5.9,16.3-14.4,16.1c-9.4-0.2-16.6-6.9-16.5-15.8c0.1-9.4,6.4-16.6,14.8-16.5
	C518.5,184.2,525.4,191.2,525.3,200.3z"/>
</svg>
