<?xml version="1.0" encoding="utf-8"?>
<!-- Generator: Adobe Illustrator 18.0.0, SVG Export Plug-In . SVG Version: 6.00 Build 0)  -->
<!DOCTYPE svg PUBLIC "-//W3C//DTD SVG 1.1//EN" "http://www.w3.org/Graphics/SVG/1.1/DTD/svg11.dtd">
<svg version="1.1" id="Layer_1" xmlns="http://www.w3.org/2000/svg" xmlns:xlink="http://www.w3.org/1999/xlink" x="0px" y="0px"
	 viewBox="0 0 640 480" enable-background="new 0 0 640 480" xml:space="preserve">
<g>
	<path fill="#502E09" d="M292.9,447.3c3.5-5.6,4.6-11.9,5.7-18.2c3.7-22.4,4.5-45,4.6-67.7c0.2-10.5,0.8-21,3.4-31.2
		c4.8-18.2,15.4-31.8,32.7-39.9c10.6-4.9,19.6-12.8,28.1-20.8c7.4-7.1,14.7-14.3,20.8-22.5c8.3-11.1,12.3-23.6,12.2-37.6
		c0-4.3-2.9-6.9-6.5-8.8c-2.6-1.4-4-3.7-5.4-6.2c-0.5-0.9-0.6-1.9,0-2.8c0.8-0.9,1.7-1.1,2.8-0.8c2.3,0.6,4.5,1.4,6.3,2.8
		c2,1.5,2.9,0.8,4-1.1c1.5-2.9,2.3-6,3.1-9.3c0.5-1.9,0.9-3.5,2-5.1c0.9-1.2,2.2-2.3,3.9-1.9c1.9,0.6,2.5,1.9,2.3,3.9
		c-0.3,5.1-1.4,10-3.2,14.8c-1.4,3.5-2,7.1-1.5,11c2,17-2,32.4-11.3,46.7c-11.3,17.1-25.4,31.3-41.3,44.1c-0.3,0.3-0.8,0.6-1.2,0.8
		c-13.1,5.9-19.3,17-21.4,30.4c-2.9,17.6-3.5,35.5-3.1,53.4c0.5,20,2.8,39.8,9.3,58.8c0.9,2.8,1.9,5.4,3.4,7.9
		c-0.6,1.1-1.2,1.9-2.6,1.5c-2.9-0.6-5.9-0.8-8.8-1.1c-12-1.1-24.1-0.6-35.9,1.1C293.5,449.9,292.6,449.5,292.9,447.3z"/>
	<path fill="#448328" d="M292.9,447.3c-0.3,2.2,0.6,2.6,2.6,2.3c11.9-1.7,23.9-2.2,35.9-1.1c2.9,0.3,5.9,0.5,8.8,1.1
		c1.4,0.3,2.2-0.5,2.6-1.5c4.3,0.2,8.6,0.5,13.1,0.6c3.7,1.4,7.2,2.5,11.1,0.6c0.2-0.2,0.6,0,0.8,0c7.4,0.6,14.7,1.1,22.1,1.7
		c1.5,0.3,3.1,0.8,4.8,0.5c1.1,0.2,2.3,0.2,3.4,0.3c8.8,0.9,17.4,1.7,26.2,2.6h0.2c6.8,0.9,13.4,2,20.2,2.9c31,4.5,62,9.9,92.4,17.4
		c0,0.3,0,0.5,0,0.8c-21.1-4-42.3-7.4-63.5-9.9c-20.7-2.5-41.3-4.2-62.2-5.4c-37.3-2.2-74.6-2.6-112-1.7
		c-28.5,0.8-56.9,2.3-85.3,4.5c-25.9,2-51.8,4.6-77.6,7.7c-17,2-33.8,4.3-50.7,7.2c-1.1,0.2-2,0.2-3.2-0.2c4.3-1.2,8.6-2.5,13-3.9
		c0.2,0,0.3-0.2,0.5-0.2c0.3-0.5,1.4,0.2,1.2-0.9l0,0c0.8,0.9,1.4,0.2,2,0c14.8-4,29.6-7.6,44.6-10.5c0.3,0,0.8-0.3,1.1-0.5
		c1.2,0,2.3-0.2,3.4-0.9c4.9,0,9.6-1.5,14.3-2.3c2.6-0.3,5.2-0.9,7.9-1.4c3.1,0,6.3,0.2,9.1-1.2c7.7-1.1,15.4-2.2,23.1-3.2
		c0.5,0,0.8-0.2,1.2-0.2c13-1.2,25.8-2.3,38.7-3.5c3.1,2,5.9,0.6,8.8-0.6c6.5-0.3,13-0.3,19.3-1.1c0.8,0,1.4,0,2.2,0
		C279.5,447.4,286.1,447.4,292.9,447.3z"/>
	<path fill="#5B5B5B" d="M341.1,193.6c3.4,4.3,4.9,8.9,4.8,14c0,1.9,0.9,4-2,5.2c-1.2,0.5-0.6,2.3,1.1,2.8c3.9,1.1,3.9,1.2,1.1,4.2
		c-10.8,11.1-7.6,9.1-22.1,9.3c-6.2,0-12.3,0-18.4,0c-2.8,0-5.1-0.9-6.9-2.8c-2.5-2.5-4.8-4.9-7.2-7.4c-0.5-0.5-1.2-1.1-0.9-2
		c0.3-0.9,1.2-1.1,2.2-1.1c0.9-0.2,1.9-0.2,2.9-0.2c2,0,4.2,0.2,5.1-2.6c0.3,2.3,1.4,2.8,3.2,2.6c4.8-0.2,9.6-0.2,14.3,0
		c2,0,2.8-0.3,2.8-2.6c0-4.5,0.3-4.3-4.6-4.6c-2.6-0.2-5.1-0.2-7.7-0.6c-1.9-0.3-3.9-0.6-5.1,1.9c0-2.3-1.4-2.3-2.8-2.5
		c-2-0.2-4-0.5-6-0.6c-0.6,0-1.2,0.2-1.4-0.6c-0.2-0.6,0.3-1.1,0.8-1.4c2-1.9,3.9-4,4.6-6.8c0.2-0.8,0.6-1.7,0.3-2.2
		c-1.7-2.8,0-4.6,1.4-6.6c1.9-2.6,3.4-5.2,2.6-8.8c-0.3-1.5,1.1-2,2-2.5c4.8-2.8,6.8-7.6,8.6-12.3c0.3-0.6,0.2-1.4,0.5-2
		c0.5-1.1-1.1-2.6,0.3-3.1c1.2-0.3,2,1.2,2.8,2.2c11.3,12.8,15.9,27.6,13.7,44.6c-0.3,2.2-1.1,2.9-3.1,2.5c-2.5-0.6-3.1,0.6-3.1,2.9
		c0,2.2,0.2,3.5,3.1,3.4c3.9-0.3,7.7,0,11.6,0c1.1,0,2.6,0.3,2.6-1.7c0-1.9-1.2-1.9-2.3-2.2c-1.7-0.6-4.6,0.5-5.1-1.2
		c-0.3-1.2,0.6-3.5,1.2-5.2c0.9-2.5,1.2-5.1,3.2-7.1C340.1,197.1,340.3,195.4,341.1,193.6z"/>
	<path fill="#502E09" d="M226.3,177.4c1.9,0,4.3,2.3,4.3,4.3c0,3.9,1.9,7.2,3.2,10.6c0.9,2.5,2.9,2.8,5.4,1.1
		c1.4-0.9,2.6-1.9,4.3-2.2c2.3-0.3,3.4,0.9,2.8,3.2c-0.5,1.4-1.2,2.5-2.3,3.2c-8.6,6.2-10,14.7-7.7,24.2
		c2.6,10.8,8.6,19.9,15.1,28.8c10.6,14.7,25,25,38.9,36.1c6.9,5.6,14.2,10.8,21.4,16c2,1.5,2.2,2.5,0.3,4.5
		c-4.3,4.3-5.9,10.2-6.9,16c-0.3,1.4,0.6,4-1.5,4c-2.3,0-1.2-2.6-1.5-3.9c-1.9-8.3-6.6-14.8-12.2-20.8c-4.2-4.5-8.8-8.2-13.7-11.7
		c-12.6-8.9-22.5-20.4-31.8-32.7c-6.9-9.1-13.1-18.7-15.9-29.9c-1.4-6-2.3-12-2-18.2c0.2-2.2,0.3-4.2,1.2-6.2c0.9-2-0.2-4.3-0.5-6.5
		c-0.8-4.6-3.1-8.9-3.5-13.6c-0.2-1.7-0.2-3.2,0.3-4.8C224.1,178,225.1,177.4,226.3,177.4z"/>
	<path fill="#5B5B5B" d="M239.9,121.4c14,0.6,24.5,12.5,23.8,25.4c-0.8,14.5-12.3,25-26.5,23.9c-14-1.1-24.1-13.1-22.8-26.7
		C215.5,130.5,226.9,120.9,239.9,121.4z M220.3,136.1c2.3,1.2,3.7,3.7,5.9,5.2c1.4,0.9,1.9,2.5,1.5,4.2c-0.2,0.6,0,1.4,0.3,2
		c1.2,3.1,1.4,2.9-2.2,2.9c-1.4,0-2.3-0.6-3.5-0.9c-2-0.6-2.8,0.5-3.5,1.9c-0.5,0.9,2,6.9,2.9,7.4c0.8,0.5,1.2-0.2,1.7-0.6
		c0.5-0.5,0.5-0.9-0.2-1.4c-0.6-0.5-1.7-0.8-0.9-1.7c1.1-1.2,2.2-2.6,4-2.8c2.3-0.3,1.7,2.2,1.9,2.5c0.2,2.5,3.4,4.5,1.2,7.2
		c-0.3,0.5,0.5,1.4,0.8,0.9c0.8-1.5,3.1-1.2,3.4-2.8c0.6-2.2,2.3-3.2,3.9-4.3c2.8-2,3.4-1.7,4.5,1.9c0.8,2.3,1.2,5.1,3.9,6.5
		c0.5,0.3,0.8,0.6,0.6,1.1c-0.3,0.5-0.9,0.5-1.2,0.3c-3.1-1.2-5.9-3.5-9.7-2.9c-1.5,0.3-4.5,0.8-4.6,2.6c-0.2,2,1.9,1.5,2.9,1.9
		c13.4,3.2,26.2-6.5,26.8-20.4c0.2-5.7-1.9-10.8-5.6-15c-0.5-0.5-1.9-1.5-1.9-0.6c0,2.3-1.1,1.5-2.3,1.2c-0.9-0.2-1.7,0.2-1.7,1.4
		c0,1.9-0.9,2.5-2.6,2c-1.1-0.2-1.9,0.6-2.5,1.2c-1.1,1.1-0.8,2.3-0.3,3.5c0.8,1.5,1.5,0.3,2.3,0c2.2-0.6,4.3,1.1,6.5-0.6
		c0.2,0,0.6,0.2,0.6,0.3c-0.2,3.1,3.1,4.6,3.4,7.4c0.2,1.2,1.9,2.6,0.2,3.5c-1.4,0.8-3.1,0.6-4.6-0.3c-0.3-0.2-0.6-0.6-0.9-0.8
		c-1.9-0.8-3.5-2-4.8,0.9c-0.8,1.7-3.4,2.2-4.6,0.9c-1.5-1.4-1.1-4.6-4.2-4.5c-0.2,0-0.2-0.5-0.3-0.8c-1.4-2.2,1.1-6.3-3.5-6.8
		c0,0-0.2-0.2-0.2-0.3c-0.2-2-1.4-3.9-1.1-5.9c0.2-0.9,0.2-2,1.1-2.5s1.5,0.5,2.2,1.1c1.7,1.5,4.2,2.3,5.9,1.9
		c1.5-0.5,2,0.3,2.9,0.9c0.9-2.8-0.5-3.7-2.6-3.9c-1.2-0.2-2.5-0.3-3.5-1.1c-0.9-0.6-2.5-1.2,0-2.2c1.1-0.3,2.2-1.7,1.9-2.9
		c-0.3-1.5-1.9-0.9-2.9-0.8c-2.9,0.2-5.7,0.9-8.2,2.5C225.2,129.1,221.8,131.6,220.3,136.1c-0.2,0.2-0.3,0.2-0.3,0.3
		c0.2,0,0.2,0.2,0.3,0.2C220.3,136.4,220.3,136.2,220.3,136.1z M237.1,139.6c1.2-1.1,1.1-2-0.3-2.8
		C237.1,137.8,237.1,138.7,237.1,139.6z M219.5,137.4c0,0.2-0.2,0.3-0.2,0.5l0.2,0.2c0.2-0.2,0.2-0.3,0.2-0.5
		C219.7,137.6,219.7,137.4,219.5,137.4z"/>
	<path fill="#448328" d="M245.3,48.9c-1.1,9.6-2.2,19.1-3.4,28.7c-1.2,0.2-1.9-0.6-2.3-1.2c-11.6-11-13.3-25.8-4.6-39
		c2.8-4.3,6.3-7.9,10-11.3c1.2-1.1,2-0.9,3.1,0.2c16,16,16.8,34.7-0.3,50.7c-0.6,0.6-1.1,1.5-2.2,0.9c-0.8-0.5-0.5-1.4-0.5-2.2
		c0.2-8.2,0.3-16.3,0.3-24.4c0-0.8,0-1.5,0-2.3C245.4,48.9,245.3,48.9,245.3,48.9z"/>
	<path fill="#448328" d="M181,217.2c8.6,0,17.4,0,26.1,0c0.9,0,2.3-0.6,2.8,0.6c0.5,1.1-0.8,1.9-1.5,2.6
		c-11.4,12.6-25.4,15.6-41.6,5.4c-2.9-1.9-5.7-4.2-8.3-6.6c-1.2-1.1-1.4-2.2-0.3-3.4c12.8-15.3,29.6-20.4,47.5-7.1
		c1.2,0.9,2.5,2.2,3.7,3.1c0.5,0.3,0.9,0.8,0.6,1.4c-0.3,0.6-0.9,0.5-1.5,0.5c-8.6,0.8-17.4,1.5-26.1,2.2c-0.5,0-0.9,0.2-1.4,0.2
		C181,216.6,181,216.9,181,217.2z"/>
	<path fill="#448328" d="M391.6,53.1c-1.9,8.9-3.5,17.4-5.4,26.4c-5.1-5.2-8.3-11-9.7-17.4c-2-9.4,1.4-17.4,7.1-24.8
		c2.9-3.7,6.3-6.6,10-9.4c1.5-1.1,2.5-1.2,3.9,0.5c5.4,7.1,9.7,14.5,9.6,23.8c0,9.9-4.9,17.4-11.9,23.9c-0.9,0.9-2,1.7-3.2,2.5
		c-0.6,0.3-1.1,1.4-2,0.8c-0.8-0.6-0.3-1.4-0.3-2.2c0.6-6.3,1.4-12.8,2-19.1C391.9,56.5,392.3,55.1,391.6,53.1z"/>
	<path fill="#448328" d="M205,255c6.8-1.9,13.7-3.7,20.5-5.6c0.9-0.3,2.2-1.2,2.9-0.2c0.6,0.9-0.3,2-0.8,2.9
		c-7.4,16-21,21.9-38.2,17c-3.5-1.1-7.1-2.5-10.3-4.3c-0.9-0.5-1.9-0.8-1.2-2.2c4.6-10.3,10.8-19.3,22.5-22.5
		c8.9-2.5,17.4-0.5,25.6,3.5c0.6,0.3,1.5,0.5,1.2,1.4c-0.2,0.6-1.1,0.8-1.7,0.9c-7.1,2.8-14,5.6-21.1,8.3c-0.6,0.2-1.2,0.5-2.2,0.8
		C203.5,255.3,204.3,255.4,205,255z"/>
	<path fill="#448328" d="M427.9,88.6c-3.1,6.2-6.3,12.3-9.4,18.4c-0.3,0.8-0.5,1.9-1.5,2c-1.1,0-1.1-1.2-1.4-1.9
		c-4.6-10.8-5.2-21.4,2.3-31.2c5.2-6.9,12.6-11.1,20.7-14c0.9-0.3,1.9-0.5,2.3,0.8c5.1,10.8,7.4,23.8-0.5,35
		c-4.5,6.3-10.6,10.5-17.7,13.1c-0.5,0.2-1.1,0.6-1.5,0.2c-0.8-0.6-0.2-1.2,0.2-1.9c2.5-6.6,4.9-13.3,7.4-19.9
		c0.2-0.5,0.5-0.9,0-1.2C428.2,87.6,428,88.2,427.9,88.6z"/>
	<path fill="#448328" d="M175.3,175.4c6.8,3.4,13.6,6.6,20.4,10c0.6,0.3,1.7,0.3,1.7,1.4c0,0.9-1.1,0.9-1.7,1.2
		c-9.7,4.5-19.4,5.7-29.1,0c-8.5-5.1-13.3-13.3-16.8-22.2c-0.5-1.2,0.2-1.7,1.1-2.3c21.9-10.8,39.8-2.8,48,17.3
		c0.3,0.6,0.8,1.2,0.2,1.9s-1.4,0.2-2.2-0.2c-6.9-2.5-14-5.1-21.1-7.6c-0.5-0.2-0.8-0.3-1.2-0.5c-0.6-0.3-1.1-0.5-1.9,0.2
		c0.6,0.2,1.1,0.2,1.4,0.3C174.5,174.9,174.9,175.2,175.3,175.4z"/>
	<path fill="#448328" d="M228.2,284.1c4.3-3.1,8.2-5.7,12-8.5c1.4-0.9,2.8-2,4.2-2.9c0.5-0.3,1.1-1.1,1.7-0.5
		c0.6,0.5,0.5,1.2,0.5,1.9c-0.8,17.6-12.5,29.5-30.2,30.2c-3.7,0.2-7.4,0.3-11.3-0.5c-1.1-0.2-2.2-0.5-2-1.9
		c0.8-9.4,2.8-18.4,9.6-25.3c8-8.2,18.2-9.9,29.1-8.8c2.2,0.3,1.4,1.4,0.5,2.2c-4.2,3.7-8.5,7.6-12.6,11.3
		C229.1,281.8,228,282.3,228.2,284.1z M221.4,288.4C221.4,288.4,221.4,288.6,221.4,288.4c0,0.2,0,0.2,0,0.3v0.2
		C221.4,288.7,221.4,288.6,221.4,288.4z M226.9,284.9c0.5-0.3,1.2-0.5,0.8-1.1c-0.5-0.6-0.9,0.2-1.2,0.5c-0.2,0-0.3,0.2-0.3,0.3
		c-1.2,0.8-2.6,1.5-3.5,3.5c1.7-1.2,2.8-2.2,3.9-3.2C226.8,285.2,226.9,285,226.9,284.9z"/>
	<path fill="#448328" d="M178.6,127.1c2.9,6.6,5.9,13.3,8.8,19.9c0.3,0.6,1.1,1.4,0.5,2.2c-0.6,0.8-1.5,0.3-2.5,0.2
		c-17.4-4.3-26.5-19-23.1-36.9c0.6-3.2,1.4-6.3,2.5-9.4c0.5-1.2,1.1-1.7,2.3-1.4c12.6,3.5,23.3,9.4,27,23.3c1.9,7.1,0.9,17.6-2.3,23
		c-4.2-7.2-8.3-14.3-12.5-21.3c-0.2-0.6-0.6-1.1-1.1-0.6C177.7,126.2,178.5,126.6,178.6,127.1z"/>
	<path fill="#448328" d="M207.3,87.9c2.6,6.8,5.4,13.7,8,20.5c0.3,0.8,1.2,1.7,0.3,2.6c-0.8,0.6-1.7-0.2-2.5-0.3
		c-10.6-3.7-18.7-9.9-21.3-21.4c-2-8.9-0.2-17.4,3.1-25.8c0.5-1.1,1.2-1.4,2.3-1.1c12.2,4,22.4,10.2,25.6,23.8
		c2,8.2,0.5,15.9-2.9,24.2c-4.3-8-8.2-15.4-12-22.8c-0.2-0.3-0.5-0.8-0.6-1.1c-0.2-0.5-0.3-1.2-0.8-0.9c-0.8,0.5,0.3,0.8,0.3,1.2
		C207,87.2,207.2,87.5,207.3,87.9z"/>
	<path fill="#448328" d="M294.9,27c-3.9,6.3-7.7,12.5-11.4,18.8c-0.3,0.6-0.5,1.5-1.5,1.5c-0.9-0.2-0.9-1.1-1.2-1.7
		c-3.4-9.7-3.9-19.4,2.2-28.2C288.8,9,297.4,4.8,307,2c1.1-0.3,1.9,0,2.2,1.1c3.9,11.1,5.4,22.1-1.5,32.5
		c-4.8,7.4-12.2,11.4-20.4,14c-0.5,0.2-1.2,0.5-1.5-0.2c-0.5-0.8,0.2-1.4,0.5-2.2c3.1-6.6,6.2-13.1,9.3-19.7c0.3-0.5,0.5-0.8,0-1.2
		C295.4,26.6,295.1,26.7,294.9,27z"/>
	<path fill="#448328" d="M404.6,282.9c-2.6-2.5-4.8-4.6-6.9-6.6c-2.2-2.2-4.5-4.2-6.8-6.3c-1.4-1.2-1.4-2,0.6-2.3
		c11.9-1.7,23.9,1.1,31.2,12.8c4,6.5,5.9,13.7,6.5,21.3c0.2,1.1,0.3,2.3-1.4,2.5c-11.7,1.5-22.8,0.6-31.8-8.5
		c-6-6.2-8.3-13.9-9.4-22.1c-0.2-0.6-0.2-1.4,0.5-1.9c0.9-0.6,1.4,0.3,2,0.6c4,3.1,8,6.2,12.2,9.3C402,282.4,402.6,283,404.6,282.9z
		 M407.2,286.1c0.3,0.2,0.6,0.6,0.9,0c0,0-0.3-0.3-0.5-0.6c-0.3-0.5-0.8-1.2-1.2-0.6C405.8,285.7,406.8,285.8,407.2,286.1z
		 M406.8,284.6c-1.4-0.9-1.7-2.2-3.2-1.7C404,284.1,404.7,284.7,406.8,284.6z"/>
	<path fill="#448328" d="M345.2,29c2.6,6.8,5.4,13.7,8,20.5c0.3,0.6,0.9,1.5,0.5,2.2c-0.6,0.9-1.5,0-2.3-0.2
		c-11.1-3.5-19.4-10-22.1-22.2c-1.9-8.6,0-17,3.1-25c0.5-1.2,1.2-1.5,2.5-1.2C357.7,9.9,366,26.9,358.9,48c-0.3,0.6-0.3,1.9-1.2,1.9
		c-0.9,0-1.2-1.1-1.7-1.9c-3.4-6.5-6.9-13-10.3-19.6c-0.5-0.8-0.8-1.5-1.2-2.3C344.3,27.3,344.6,28.1,345.2,29z M343.2,24.2l0.2-0.2
		c0-0.2-0.2-0.3-0.2-0.5l-0.2,0.2C343.1,23.9,343.2,24.1,343.2,24.2z M344,25.2l-0.2-0.2l-0.2,0.2c0.2,0,0.3,0,0.3,0.2
		C344,25.2,344,25.2,344,25.2z"/>
	<path fill="#448328" d="M455.8,131.6c-1.5,0.6-1.9,2-2.5,3.1c-2.8,4.2-5.2,8.3-8,12.5c-0.3,0.6-0.6,1.7-1.5,1.5
		c-0.9-0.2-0.9-1.1-1.1-1.9c-5.9-16.8,0.3-31.3,16.8-39.2c3.2-1.5,6.5-2.8,9.9-3.7c1.1-0.3,2.2-0.8,2.8,0.9
		c3.9,11.3,4.8,22.4-2.5,32.7c-4.9,7.1-12.3,11-20.5,13.4c-0.5,0.2-1.2,0.2-1.7,0c-0.8-0.6,0-1.2,0.3-1.7c2.6-5.2,5.2-10.5,7.9-15.7
		C455.8,133,456.3,132.5,455.8,131.6z M455.5,132c1.4-1.1,2.2-2,1.9-3.5C456.4,129.4,455.6,130.3,455.5,132z"/>
	<path fill="#448328" d="M457.8,175.4c-6.5,2.3-13,4.6-19.4,7.1c-0.8,0.3-1.5,0.8-2.2,0.2c-0.6-0.6,0-1.4,0.2-2.2
		c5.9-17.4,20-25,38.6-20.5c3.2,0.8,6.3,1.7,9.3,3.1c0.8,0.3,1.5,0.6,1.1,1.9c-4,11.7-10,21.6-23,25c-8,2.2-15.7,0.8-23.3-2.2
		c-0.5-0.2-1.2-0.3-1.2-0.9c0-0.9,0.8-0.9,1.4-1.2c6.3-3.1,12.6-6.3,19-9.4c0.3-0.2,0.5-0.5,0.8-0.6
		C458.7,175.1,458.3,175.1,457.8,175.4z"/>
	<path fill="#448328" d="M275.5,182.3c-6.6,1.4-12.6,2.8-18.8,4.2c-0.6,0.2-1.2,0.3-2,0.5c-1.2,0.2-2.9,1.4-3.7,0.2
		c-0.6-1.1,0.8-2.3,1.4-3.5c4.5-8.3,11-14.3,20.5-16c10.3-1.9,19.6,1.5,28.4,6.6c0.8,0.5,1.2,1.1,0.8,2.2
		c-5.4,11.1-14,21.1-28.5,21.7c-7.4,0.3-14.2-2-20.5-5.6c-0.5-0.3-1.2-0.5-1.1-1.2c0.2-0.8,0.9-0.6,1.4-0.8
		c6.5-2.2,12.8-4.3,19.3-6.5C273.5,183.7,274.4,183.7,275.5,182.3z M277.2,182.3c-0.5-0.2-0.8-0.2-1.1-0.2c-0.2,0-0.3,0.3-0.5,0.5
		c0.3,0,0.5,0.2,0.8,0.2C276.6,182.6,276.9,182.5,277.2,182.3z"/>
	<path fill="#448328" d="M454.9,216.3c-8.5-0.5-17-0.8-25.4-1.2c-1.1,0-2.5,0.3-2.9-0.8c-0.5-1.1,0.8-1.9,1.5-2.6
		c13.6-14.2,29.1-13.7,44.1-2.2c2,1.5,3.7,3.4,5.6,4.9c1.4,1.2,1.4,2.3,0.2,3.5c-15.3,16.7-33.3,18.4-50.3,2.8
		c-0.6-0.6-1.5-1.2-1.2-2.2c0.3-0.9,1.5-0.6,2.3-0.8c8.6-0.5,17.4-0.8,26.1-1.2C454.9,216.4,454.9,216.3,454.9,216.3z"/>
	<path fill="#448328" d="M359.9,182.3c8,3.2,16,6.3,24.7,9.7c-4.9,3.4-9.9,5.4-15.1,6.2c-11.6,1.7-20.2-3.2-27.5-11.7
		c-2.9-3.4-5.1-7.1-7.1-11.1c-0.5-0.9-0.9-1.9,0.3-2.6c11.3-6.6,25-9.9,37.3-1.2c5.2,3.7,9.1,8.6,12,14.3c0.3,0.6,0.9,1.4,0.5,2.2
		c-0.6,0.9-1.4,0-2-0.2c-6.6-1.7-13.1-3.5-19.6-5.4C362.2,182.2,361.1,181.9,359.9,182.3z"/>
	<path fill="#448328" d="M434.1,254.5c-6.6-3.4-13.3-6.8-19.9-10.2c-0.8-0.5-2.2-0.5-2.2-1.7c0-1.4,1.4-1.4,2.3-1.7
		c16-6.9,30.7-2.2,39.8,13c2,3.2,3.5,6.5,4.9,10c0.5,1.1,0.6,2-0.8,2.6c-10.5,4.6-21,6.9-31.8,1.4c-8.2-4.2-13-11.3-16.3-19.6
		c-0.2-0.5-0.8-1.1-0.2-1.5c0.8-0.6,1.4,0,2.2,0.2c6,2.3,12,4.6,17.9,6.8c1.2,0.5,2.3,0.9,3.5,1.2c0.5,0.3,0.8,0.3,1.2,0
		C434.7,254.8,434.4,254.7,434.1,254.5z"/>
	<path fill="#448328" d="M294.2,138.7c2.6,6.8,5.2,13.6,7.7,20.4c0.3,0.9,1.4,2,0.5,2.9c-0.9,0.8-2-0.2-2.9-0.5
		c-10.5-3.9-18.4-10.3-20.7-21.9c-1.9-8.8,0-17.3,3.4-25.4c0.5-1.2,1.2-1.2,2.3-0.9c22.5,6.9,31,24.2,23.1,45.5
		c-0.3,0.6-0.3,1.7-1.4,1.5c-0.8,0-0.9-0.9-1.2-1.5c-3.5-6.8-6.9-13.6-10.3-20.4c-0.2-0.3-0.5-0.8-0.6-1.1c0-0.5-0.2-1.2-0.8-0.9
		c-0.8,0.5,0.3,0.8,0.3,1.2C293.9,137.8,294,138.2,294.2,138.7z"/>
	<path fill="#448328" d="M340.4,138.1c-3.9,6.8-7.9,13.7-11.9,20.8c-7.4-14.7-5.2-30.7,10.5-40.7c4-2.5,8.2-4.5,12.6-6
		c1.2-0.5,2.2-0.6,2.8,0.9c3.4,8.6,5.2,17.4,2.2,26.7c-3.7,11-12.3,16.7-22.7,20.5c-0.5,0.2-1.1,0.5-1.7,0c-0.8-0.6,0-1.2,0.2-1.7
		c2.8-6.6,5.7-13.1,8.5-19.7c0.2-0.5,0.8-1.1,0.3-1.4C340.6,136.8,340.6,137.8,340.4,138.1z"/>
	<path fill="#448328" d="M275.8,235.4c-7.1-2.5-14-4.8-21.1-7.2c-0.8-0.3-2-0.2-2.2-1.2c-0.2-0.9,0.9-1.2,1.7-1.7
		c14.3-9.3,29.9-6.8,40.9,6.2c2.6,3.2,4.9,6.5,6.9,10.2c0.6,1.1,0.9,1.9-0.3,2.6c-10.3,6.5-23.1,10.5-35.2,3.9
		c-6.3-3.5-11.1-8.6-14.7-15c-0.3-0.6-1.1-1.2-0.5-2c0.6-0.8,1.4-0.2,2.2,0c7.2,1.7,14.5,3.2,21.7,4.9c0.6,0.3,1.1,0.6,1.7,0
		C276.7,235.7,276.3,235.5,275.8,235.4z"/>
	<path fill="#448328" d="M361.6,236c6.9-1.9,14-3.9,21-5.7c0.8-0.2,1.5-0.8,2.2,0c0.6,0.8-0.2,1.4-0.5,2
		c-4.6,10.2-11.4,17.7-23,19.3c-9.4,1.4-18-1.4-26.2-5.7c-0.9-0.5-1.2-1.1-0.8-2c5.1-12.2,14-22.8,29-23.4
		c6.5-0.3,12.6,1.5,18.5,4.3c0.6,0.3,1.4,0.5,1.4,1.2c0,0.9-1.1,0.9-1.7,1.2c-6.8,2.8-13.7,5.4-20.5,8c-0.6,0.2-1.2,0.5-1.9,0.6
		C360,236.3,360.8,236.3,361.6,236z"/>
	<path fill="#404040" d="M203.9,452.7c-0.5,0-0.8,0.2-1.2,0.2c-2.8,0-4.5-1.9-5.7-3.9c-1.9-2.8,0.9-5.1,1.4-7.6
		c-0.5-0.3-0.8,0-1.1,0.2c-3.7,2-5.9,5.9-9.4,8c-2.9,1.9-5.7,4.3-8.5,6.5c-2.9,1.5-6,1.2-9.1,1.2c-5.1-3.9-5.4-4.8-2.8-10.6
		c2.6-5.7,6.8-9.7,13.1-11.3c1.2-0.3,2.5,0,3.7-0.3c1.7-0.3,2.8,1.2,2.8,2.6c0,1.5-1.4,2.8-2.9,2.3c-5.2-1.2-8.2,2.3-10.8,5.6
		c-1.4,1.7-2.8,3.9-2.6,6.5c0,1.4,0.6,2,1.9,1.7c2-0.5,3.9-0.9,5.7-2c7.9-4.5,14.3-10.8,21.4-16.2c2.8-2.2,5.6-2,6.9,0.6
		c1.1,2.2-0.6,3.9-1.5,5.6c-1.1,1.9-1.9,3.9-2,6.5c3.9-3.1,7.2-6.2,10.3-9.6c1.7-1.9,3.5-3.9,5.2-5.7c2-2,3.7-0.8,5.6,0.3
		c1.9,1.2,1.4,2.6,0.6,4c-1.1,2.3-1.5,4.9-2,7.6c2.9-0.3,4.2-2.6,5.9-4.3c3.7-3.9,8.3-6.2,12.2-9.7c0.9-0.8,1.9-1.7,2.8-2.5
		c2.6-2,4.3-1.2,6,1.4c2.3,3.5,2,6.3-1.1,9.1c-1.5,1.4-2.3,3.5-3.1,5.4c-0.2,0.5-0.8,0.9-0.3,1.5c0.5,0.5,1.1,0.3,1.7,0.2
		c3.9-1.1,6.9-3.4,10-6c2.9-2.5,4.9-5.9,8.2-7.9c1.9-1.1,3.7-2.3,5.4-3.7c1.4-1.1,2.6-1.1,4-0.2c1.4,0.8,1.7,2,1.5,3.7
		c-0.2,2.6-2,4.8-2.3,7.2c-0.2,0.8-0.5,1.5,0.3,2c0.6,0.3,1.2-0.3,1.9-0.6c2.9-1.4,5.4-3.4,7.9-5.2c0.5-0.3,0.9-0.8,1.5-0.3
		s0.3,1.1,0.2,1.5c-0.6,1.7-1.5,3.1-2.9,4.2c-3.1,2.6-6.3,4.9-9.9,6.8c-0.8,0-1.4,0-2.2,0c-2.3-1.5-2.5-3.9-2.3-6.3
		c0.3-2.6,1.7-4.9,2.3-7.6c-3.2,0.5-6,1.9-7.6,3.9c-3.2,4.6-8,7.4-11.9,11.1c-2.9,1.2-5.7,2.5-8.8,0.6c-2.2-2.8-2.2-5.6-0.6-8.5
		c1.1-1.9,1.9-3.7,2.8-5.7c0.3-0.6,0.9-1.2,0.3-1.9c-0.8-0.6-1.2,0.2-1.7,0.5c-7.2,4.5-13.7,10-20.2,15.6c-0.8,0.6-1.2,1.4-2.5,0.9
		c-2.5-0.9-4.2-3.9-3.7-6.6c0.2-1.4,0.8-2.8,0.5-4C213,444.1,208.4,448.4,203.9,452.7z"/>
	<path fill="#404040" d="M500.4,452.5c-4.3,0.8-7.6,3.4-11.1,4.9c-4.3,1.9-8.5,4.3-13.7,3.2c-2.6-0.5-3.7-2-4.8-4
		c-2.8-4.9,1.5-7.7,3.9-10.6c2.6-3.4,6.5-5.2,11-4.9c0.3,0,0.6,0,0.9,0c2,0.6,4.6,0.3,5.1,2.9c0.3,2.3-2,3.1-3.7,3.7
		c-4.2,1.5-7.9,4-12,5.7c-1.2,0.5-1.9,1.1-1.7,2.3c0.2,1.2,1.4,1.1,2.3,1.2c1.9,0,3.9-0.2,5.6-0.9c4.6-2.2,9.6-3.7,13.7-6.8
		c1.1-0.8,2.3,0,3.2-0.5c0.6-0.3,1.4-0.3,1.9-0.8c1.4-1.4,2.8-2,4.5-0.6c1.7,1.4,2,3.1,1.2,5.2c-0.2,0.3-0.3,0.6-0.6,1.5
		c2.3-1.1,4-1.7,5.7-2.6c2-1.1,4.3-1.7,6.6-2c3.1-0.3,5.1,1.4,4.8,4.5c-0.2,2.2-0.6,4.5-1.7,6.3c-0.8,1.2-0.5,2.3,0.2,3.1
		c0.8,1.1,1.7,0,2.5-0.5c6.3-3.5,12.5-7.1,19.3-9.6c1.5-0.6,2.8-1.1,4.2,0.5c1.4,1.4,1.1,2.8,0.5,4.5c-0.8,2.3-2.9,3.7-3.7,6
		c-0.3,0.8-0.8,1.4-0.2,2.2s1.2,0,1.9-0.2c2.8-0.6,5.4-1.9,8-3.1c0.6-0.3,1.4-0.8,1.9-0.2c0.5,0.6-0.2,1.2-0.5,1.9
		c-2.9,3.9-7.4,4.9-11.4,6.6c-0.6,0.3-1.2,0.3-2,0.5c-2.3,0.5-3.5-0.6-3.7-3.1c-0.2-2.9,1.2-5.4,2.8-7.7c0.6-0.9,1.2-1.7,1.9-2.6
		c-3.1-0.5-7.1,0.6-10.5,3.2c-2.9,2.3-6.2,3.7-9.3,5.6c-1.5,1.1-3.2,1.1-4.8,0c-1.7-1.2-2.5-2.9-2.3-4.9c0.2-2.3,0.6-4.5,0.9-6.8
		c0.3-1.4,0-1.9-1.7-1.5c-4.2,0.9-7.4,3.4-11,5.4c-2.5,1.4-4.9,3.1-7.6,4.2c-1.5,0.6-2.3-0.9-2.5-2.3c-0.2-2.6,1.4-4.2,3.4-5.6
		C498.8,455.2,500.1,454.4,500.4,452.5z M477.7,449.6c3.5-0.8,6.3-2.8,9.4-4.8C482.5,444.5,479.4,446.1,477.7,449.6z"/>
	<path fill="#502E09" d="M317.3,259.7c8.6,0,15.4,6.9,15.4,15.6c0,8.6-6.9,15.6-15.6,15.6c-8.5,0-15.6-7.2-15.6-15.6
		C301.7,266.5,308.7,259.6,317.3,259.7z"/>
	<path fill="#404040" d="M424.5,454.4C424.5,454.4,424.5,454.5,424.5,454.4c-2.6-1.9-2.8-4.2-0.9-6.8c1.5-2.2,4.3-3.4,5.2-6.5
		c-1.2-0.2-2.2,0.2-2.9,0.6c-1.7,1.2-3.4,2.6-5.1,3.9c-2.5,2-5.1,4-8.3,4.8c-2.5,0.6-3.9-0.6-4-3.1c0-1.4,0-2.8,0-4.3
		c-4.6,2.8-9.3,5.7-13.7,8.5c-1.7,0.3-3.2-0.3-4.8-0.5c-2-2.9-1.9-6,0.2-8.8c4.3-5.7,10.2-8.9,17.1-10.2c2.5-0.5,4.6,0.5,4.5,3.5
		c0.5,0,0.6,0,0.8-0.2c1.4-1.4,2.9-2.6,4.6-1.1c1.5,1.5,0.2,3.2-0.8,4.6c-1.7,2.2-3.4,4.3-3.1,8c2.6-2,4.9-3.7,7.2-5.4
		c2.6-1.9,5.1-3.7,8.2-4.6c4-1.2,4.5-0.8,4.8,3.7c2-1.1,4-2.2,6-3.2c2.9-1.5,5.7-1.2,6.5,0.9c0.6,1.4,0.2,3.1,0,4.5
		c-0.2,1.1-0.3,2.2-0.6,3.5c3.5-0.8,5.7-3.7,8.8-4.6c0.9-0.3,2-0.8,2.9-0.9c2.2-0.2,3.5,0.8,3.5,3.1c0,1.9-0.3,3.5-0.5,5.4
		c0,0.8-0.8,1.9,0,2.5c0.8,0.5,1.7,0,2.5-0.5c1.4-0.8,2.5-1.7,3.9-2.5c0.6-0.3,1.7-1.2,2.3-0.5c0.6,0.8,0.6,2.2-0.5,2.8
		c-2.9,2-6,4-9.1,5.9c-1.7,0.9-4.3-1.5-4.3-3.7c-0.2-2.6,0-5.2,1.1-8.5c-4.5,2.5-7.6,5.4-10.8,8.2c-2.6,2.3-3.5,2-4.3-1.4
		c-0.6-2.9,0.8-5.6,0.8-8.5c0-0.8,0.8-1.5,0-2.2c-0.8-0.5-1.7,0.2-2.3,0.6c-2.8,2-5.4,4-7.9,6.3C429,450.4,426.6,452.2,424.5,454.4z
		 M410.1,437.9c-6.5-1.4-13.7,1.9-16.7,6.9c-0.5,0.8-0.9,1.5-0.3,2.3c0.5,0.6,1.2,0.2,1.9-0.2C400.6,445.1,405.5,442,410.1,437.9z"
		/>
	<path fill="#404040" d="M367.9,449.3c-0.3,0-0.6-0.2-0.8,0c-3.9,1.9-7.4,0.8-11.1-0.6c-4-5.1-2.8-10.5-0.8-15.7
		c2.8-7.2,7.4-13.4,13-18.8c3.7-3.5,7.4-6.9,12-9.3c1.4-0.8,2.6-1.5,4,0.3c0.8,1.1,2,0.3,2.9,0c3.1-1.2,6.2-0.8,9.3-0.2
		c3.4,0.6,5.2,6,3.7,10.2c-2.5,7.2-6.9,13.3-12,18.8c-4.2,4.5-8.6,8.5-13.6,12C372.4,447.4,369.9,447.9,367.9,449.3z M377.1,410.7
		c-1.4,1.1-2.5,2.3-3.7,3.5c-3.5,3.7-6,8-8.8,12.3c-3.4,5.2-6.6,10.6-6.9,17.3c-0.2,2.6,1.2,3.2,3.2,3.2c1.1,0,2.2-0.3,3.1-0.8
		c3.4-1.7,6.6-3.9,9.4-6.3c5.7-4.9,10.8-10.6,15.3-16.7c2.6-3.5,5.2-7.2,5.9-11.9c0.2-1.7,0.2-3.1-1.7-3.7c-3.1-0.8-6.2-0.3-8.6,1.5
		c-4.6,3.4-9.4,7.1-8.6,14c0.2,1.2-0.9,2.2-2.3,2c-1.4,0-1.7-1.1-1.9-2.2c-0.3-1.9,0.5-3.4,1.4-4.8c1.5-2.5,3.2-4.8,4.8-7.1
		c0.6-0.3,1.7-0.5,1.5-1.7C378.1,409.5,377.6,410.1,377.1,410.7z"/>
	<path fill="#5B5B5B" d="M408.6,132.7c0.6,0.3,1.2,0.8,1.9,1.1c0.2,0.9,0.8,1.2,1.5,1.4c0.8,0.9,1.9,1.9,2,3.2
		c-0.5,1.1-0.8,2.2-1.2,3.2c-2.2,5.1-3.5,5.7-8.9,4.8c-2.8-0.5-5.2,0.8-6.6,3.4c-1.4,2.6-0.9,5.6,1.2,7.6c1.7,1.7,3.9,1.9,6.2,1.9
		c2.2,0,4.3-0.9,6.3,0.5c-0.2,0.2-0.3,0.5-0.5,0.6c-0.8,0.3-1.7,0.3-2.2,1.2c-2.6,4.6-6.2,8.3-11.1,10.6c-0.8,0.3-1.7,0.5-2.5,0.8
		c-3.5,1.2-3.5,1.2-3.7-2.5c0-0.6-0.2-1.4-0.2-2c-0.6-6-2.8-11.6-4.3-17.3c-1.9-6.5,0-12.2,5.2-16.5
		C396.9,130.3,402.6,129.6,408.6,132.7z"/>
	<path fill="#404040" d="M96,473.8c-0.2,0-0.3,0-0.5,0.2c-2.6-0.2-5.1,0.5-7.7-0.3c-1.2-0.3-2.5-0.9-2.8-2.2
		c-0.5-1.5,1.1-1.9,1.9-2.5c2.6-2.3,6-3.2,8.9-5.1c1.9-1.1,2.9-2.5,3.5-4.2c1.9-5.2,5.1-10,6.3-15.6c0.2-0.8,0.5-1.5,0.9-3.1
		c-3.2,2.5-5.9,4.8-8.9,5.9c-0.9,0.3-1.7,1.5-2.9,0.9c-0.8-0.5-1.2-1.2-0.8-2.2c0.5-1.4,1.4-2.6,2.8-2.6c5.2,0.3,8-3.4,11.3-6.3
		c1.7-1.5,2.5-4.2,3.1-6.5c1.1-4,2.8-7.7,5.4-11.1c0.9-1.1,1.2-2.8,2.6-3.5c2.9-1.7,5.4-0.3,5.6,3.1c0.2,3.5-1.5,6.2-3.7,8.8
		c-3.5,4.5-7.7,8.2-8.5,14.5c-0.8,5.7-3.7,11-5.6,16.8c3.7-0.6,7.1-1.1,10.3-1.9c4.6-1.1,9.4-0.3,14-0.8c1.4-0.2,2.6,0.6,3.9,1.2
		c1.9,0.9,1.7,2.5,1.2,4c-0.5,1.7-1.9,1.7-3.1,1.1c-3.4-1.5-6.9-2.3-10.6-2.6c-5.7-0.5-11,0.8-16.2,2.8c-0.5,0.2-0.8,0.5-0.9,0.9
		c-2,3.7-4.6,6.9-7.9,9.6l0,0C96.3,472.7,95.8,472.7,96,473.8z M117.9,425.7c2.5-2.3,4.8-4.8,4.3-8.5
		C119.7,419.5,117.9,422.2,117.9,425.7c-0.2,0.2-0.2,0.2-0.3,0.2c0,0.2,0.2,0.2,0.2,0.3C117.7,425.9,117.7,425.9,117.9,425.7z
		 M96.1,466.3c-3.7,1.4-6.6,2.6-9.4,4.6C91.4,471.8,93.8,470.6,96.1,466.3z"/>
	<path fill="#5B5B5B" d="M402.9,121.2c0.6,0.2,1.2,0.3,1.7,0.3c0.5,0.6,1.1,0.8,1.7,0.5c0.6,0.3,1.4,0.6,2,0.8
		c0.9,1.1,2.8,1.4,2.5,3.4c-0.5,0.8-0.9,1.4-0.8,2.3c-0.8,1.5-1.7,2.3-3.7,1.7c-6.9-1.9-13-0.2-17.6,5.4c-4.5,5.4-5.2,11.7-2.6,18.4
		c1.9,4.5,3.4,9.1,2.9,14.2c-0.5,0.3-0.6,0.9-0.6,1.5c-0.5,0.3-0.9,0.8-1.1,1.4l0,0c-0.5,0.3-1.1,0.6-1.5,0.9
		c-0.3,0.2-0.5,0.2-0.8,0.3c-0.8-0.2-1.5,0.2-1.9,0.9c-0.2,0-0.3,0-0.5,0.2c-0.6,0-1.4,0-1.7-0.8c0.5-0.8,0.5-1.5,0.5-2.3
		c0.8-0.9,0.5-1.9,0-2.8c0-0.5,0-0.8,0-1.2c0.3-0.5,0.5-0.8,0-1.1c0-1.7-0.3-3.5-0.9-5.2c-0.3-3.1-1.1-6-2.6-8.6
		c-0.8-2.9-2.2-5.7-2.2-8.8c0-6.6,2.6-12,7.6-16.2c0.9-0.8,1.7-1.4,2.6-2.2c0.8,0,1.4-0.3,1.9-1.1c0.2-0.2,0.3-0.2,0.5-0.3
		c2.5-0.8,4.9-1.4,7.4-2.2c1.7,0,3.5,0,5.2,0C401.7,121.2,402.3,121.4,402.9,121.2z"/>
	<path fill="#5B5B5B" d="M306,53.7c3.4-0.8,3.2,2.3,4.3,4c-0.2,0.6,0.2,1.2,0.6,1.7c0.2,0.6,0.5,1.2,0.6,1.9c-0.2,0.6,0,1.2,0.6,1.5
		c0.2,0.6,0.3,1.2,0.6,1.9c-0.3,0.8,0.2,1.2,0.6,1.5c0.2,0.6,0.5,1.4,0.6,2c0.2,1.7,0.6,3.2,1.7,4.5c0.2,0.9,0,2,1.1,2.6l0,0
		c0.5,3.2,1.7,6.2,2.9,9.1c0.5,1.2,0.9,2.6,1.4,3.9c0,0.3,0,0.8,0,1.1c-2.9,1.7-6.2,1.7-9.3,2.8c-5.9,1.9-11.4,4.8-17.1,6.3
		c-7.9,2.3-15.4,4.9-23,8.2c-0.9,0.5-1.9,1.1-2.9,0.5c-0.2-0.2-0.3-0.3-0.5-0.3l0.2-0.2c-0.3-0.8-0.2-1.7-1.1-2l0,0
		c0.2-0.8,0.2-1.4-0.6-1.7l0.2-0.2c-0.8-4-2-7.9-4-11.4l0,0c0.2-0.8,0.2-1.4-0.6-1.7l0,0c0.2-0.6,0.2-1.4-0.6-1.7v-0.2
		c-0.6-3.4-1.5-6.8-3.5-9.7l0,0c0.2-0.8,0.2-1.4-0.6-1.7l0,0c0.2-0.8,0.2-1.4-0.6-1.7l0,0c-1.2-3.4,1.2-4.3,3.5-5.6
		c6.5-3.2,13.4-4.8,20.7-4.8c1.1,0,2.2,0,2.9-0.8c5.9-4.9,12.6-8,20.2-9.7C305,54.2,305.6,54.2,306,53.7z M279.4,66.7
		c-6.8,0.3-12.8,2-18.5,4.8c-1.5,0.8-2,1.4-1.4,3.1c3.2,9.3,6.5,18.5,9.6,27.8c0.8,2,1.4,2.5,3.4,1.5c6-2.9,12.3-5.4,18.8-6.8
		c2-0.5,1.2-1.4,0.9-2.5c-2.9-8.2-5.9-16.5-8.5-24.7C282.9,67,281.7,66,279.4,66.7z M305.9,56c-7.4,1.4-14,4.3-19.9,9.1
		c-0.8,0.6-0.8,1.2-0.5,2c3.1,8.9,6.2,17.9,9.4,26.8c0.3,0.9,0.6,1.5,1.9,1.1c6.5-3.1,13.3-4.9,20.2-6.6c1.4-0.3,1.7-0.9,1.2-2.3
		c-3.4-9.6-6.6-19-9.9-28.5C307.7,56.6,307.3,55.7,305.9,56z"/>
	<path fill="#404040" d="M148.3,461c-1.1,0.6-2.2,0.9-3.4,0.9c-0.6-0.3-1.4-0.6-2-0.9c-3.1-1.4-4.9-3.5-4.3-7.2c0.2-0.9,0-1.9,0-2.8
		c-0.9-0.3-1.1,0.6-1.7,0.9c-0.6,0.3-0.8,2-1.9,1.1c-0.6-0.6-0.8-1.7-0.2-2.6c0.3-0.5,0.8-0.9,1.1-1.2c3.7-4.2,8-7.6,13.3-9.6
		c1.7-0.6,3.1-0.3,4.8,0c1.5,0.3,2,1.2,2.8,2.6c1.2,2,2.8,3.9,2.5,6.3c-0.5,4.8-3.2,8-6.9,10.5C150.9,459.6,149.5,460.2,148.3,461z
		 M153,444.1c-5.7,1.4-8.8,4.9-10,10.2c-0.3,1.7-0.3,3.5,0.9,4.6c0.9,0.9,2.5,0.6,3.5-0.2c3.2-2.2,5.9-4.8,7.1-8.6
		c0.3-0.9,0.6-2-0.5-2.6C152.7,446.7,152.7,445.4,153,444.1z"/>
	<path fill="#5B5B5B" d="M420.6,152.4c0.3,0.3,0.5,0.6,0.8,0.9c0.3,1.2,0.6,2.6,1.5,3.5c0.8,2,1.4,4,2.8,5.6
		c-0.5,1.5-1.9,0.5-2.6,0.8c-0.5,0-0.8-0.2-1.2-0.2c-2.2-0.6-4-2-6.3-2.2c-0.2-0.2-0.3-0.2-0.6-0.3c-0.5-1.1-1.2-1.5-2.3-1.7
		c0-0.2-0.2-0.3-0.2-0.5c-0.6-1.2-1.9-0.9-2.9-0.9c-2,0.2-4,0.2-6,0.3c-2.5,0.2-4.3-0.6-5.4-2.9c-0.9-2-0.8-3.9,0.6-5.6
		c1.7-1.9,3.7-2.3,6-1.4c2.6,1.1,4.6,0.2,6.5-1.7c1.5-1.5,2.3-3.4,3.1-5.4c0.5-0.9,0.8-1.9,1.9-0.8c0.6,2,1.1,4,2.3,5.7
		c0,0.5,0,0.8,0,1.2c-0.6,0.2-1.2,0.2-1.9,0.3c-0.8-0.2-1.5-0.3-2.3,0.3c-0.6,0-1.5-0.3-1.7,0.6c0,1.4,1.1,1.9,2.2,2.3
		C416.6,151.9,418.6,152.4,420.6,152.4z"/>
	<path fill="#5B5B5B" d="M363.6,109.7c-0.9,0.5-1.7,0.6-2.3,1.1c-2,1.5-2.5,0.5-2.9-1.4c-0.6-3.2-0.8-3.2-3.7-1.5
		c-0.5,0.3-0.9,0.8-1.5,0.5c-0.6-0.2-0.5-0.8-0.3-1.2c3.4-10.8,6.2-21.9,13-31.3c0.5-0.6,0.8-1.5,1.9-1.7c2-0.2,3.4,1.7,2.6,3.7
		c-2.6,7.1-1.4,10,5.6,13.1c1.2,0.6,2.6,1.2,4,1.4c2.6,0.3,2.8,1.7,2.3,4c-1.5,6.9-2.8,14-6.6,20.4c-0.5,0.9-0.9,2.2-2.2,2
		c-0.9-0.2-1.1-1.5-1.4-2.3c-0.8-2.5-2-3.7-4.5-2.2c-2.2,1.2-2.6,0.2-2.8-1.7C364.6,111.5,364.8,110.1,363.6,109.7z M373.7,115.7
		c1.2-0.9,1.5-2.3,2.2-3.5c1.9-4.5,3.1-9.1,4-13.7c0.8-3.9,0.8-3.9-3.1-5.2c-9.1-3.4-10.5-5.7-8.5-15.3c0.2-0.5,0.5-1.1-0.3-1.4
		c-0.6-0.3-1.1,0.3-1.4,0.8c-0.5,0.6-0.9,1.4-1.4,2.2c-3.5,5.7-5.7,12.2-7.9,18.5c-0.8,2.3-2,4.5-1.9,7.1c3.2-1.1,3.4-1.1,4,2.2
		c0.3,1.7,0.9,2.2,2.6,1.2c3.2-1.7,3.2-1.7,4,1.9c0.2,1.2,0.2,2.8,2.2,1.7c2.8-1.7,4-0.5,4.6,2.2
		C373.1,114.8,373.4,115.2,373.7,115.7z"/>
	<path fill="#5B5B5B" d="M367.3,54c-1.1,4.2-1.5,8.6-3.4,12.6c-0.9,2-2.3,4.2-3.5,6.3c-0.2,0.5-0.6,1.1-0.9,1.1
		c-2.8,0-3.1,2.5-3.9,4.2c-3.7,8.2-7.4,16.5-11.1,24.7c-0.5,0.9-0.3,2.8-2,2c-1.9-0.8-0.5-2,0-2.8c3.9-8.8,8-17.7,11.9-26.5
		c0.5-1.1,1.1-2,0-3.4c-1.4-1.9,1.1-3.4,1.2-5.2c0.6-5.4,5.1-8.6,7.4-13.1c0.3-0.5,0.6-0.9,1.1-1.4c0.6-0.8,1.5-1.5,2.5-1.2
		C367.4,51.5,367.1,52.9,367.3,54z M365.4,54.2c-0.2-0.2-0.5-0.2-0.6-0.3c-1.9,3.2-4.2,6.2-6.3,9.1c-1.1,1.4,0,2.6,1.1,3.2
		c1.1,0.6,2.5,0.5,2.9-1.1C363.6,61.4,364.5,57.7,365.4,54.2z"/>
	<path fill="#F5F5F5" d="M268.4,106.8C268.4,106.8,268.3,106.8,268.4,106.8c0,0.5-0.6,0.9,0,1.1c0.2-0.2,0.2-0.5,0.3-0.6
		c1.1,0.6,2-0.2,2.9-0.5c7.4-3.2,15.1-6,23-8.2c5.7-1.7,11.3-4.5,17.1-6.3c3.1-0.9,6.5-1.1,9.3-2.8c0.3,0.3,0.5,0.6,0.8,0.9
		c-0.5,1.1-1.4,1.1-2.3,1.2c-8,2.2-16,3.7-23.3,8c-0.5,0.3-0.9,0.5-1.4,0.5c-6.9,0.8-13.1,3.7-19.3,6.3c-2.8,1.1-5.4,2.8-8.6,2.6
		c-2-1.1-2-3.4-2.6-5.1c-3.4-9.3-6.5-18.5-9.7-27.8c-0.3-1.1-0.3-2,0-3.1c1.4,0,1.1,1.9,2.5,1.7l0,0c-0.3,0.8-0.8,1.5,0.6,1.7
		c0,0,0,0-0.2,0c-0.3,0.8-0.8,1.5,0.6,1.7l0,0c0,3.7,0.9,6.9,3.5,9.7c0,0,0,0.2-0.2,0.2c-0.3,0.8-0.8,1.5,0.6,1.7c0,0,0,0-0.2,0
		c-0.3,0.8-0.8,1.5,0.6,1.7l0,0c-0.3,3.9,1.9,7.1,2.9,10.5c0.2,0.6,0.3,1.1,1.1,0.9l-0.2,0.2c-0.3,0.8-0.8,1.5,0.6,1.7
		c0,0,0,0-0.2,0C266.7,105.8,267,106.6,268.4,106.8z"/>
	<path fill="#5B5B5B" d="M266.9,108.9c3.2,0.2,5.9-1.4,8.6-2.6c6.3-2.6,12.5-5.6,19.3-6.3c0.5,0,0.9-0.3,1.4-0.5
		c7.2-4.3,15.3-5.9,23.3-8c0.9-0.3,2-0.3,2.3-1.2c0.2-0.2,0.3-0.2,0.5-0.3c0.6-0.2,1.2-0.5,1.9,0c0,0.9,0.5,1.7,0,2.6
		c-1.1,0.2-2,0.3-2.9,0.9c-8.2,1.9-16.3,3.7-23.8,8.2c-1.5,0.9-3.1,0.6-4.8,0.9c-7.2,1.7-14,4.6-20.7,7.7c-0.5,0.3-1.1,0.5-1.5,0.8
		C267.8,112.1,267.2,111.8,266.9,108.9z"/>
	<path fill="#F5F5F5" d="M389,168.3c0.5-5.1-1.2-9.7-2.9-14.2c-2.6-6.6-1.9-12.8,2.6-18.4c4.6-5.6,10.6-7.2,17.6-5.4
		c2,0.5,2.9-0.2,3.7-1.7c0.9,1.9-1.2,2.6-1.4,4c-6-3.1-11.7-2.3-17,1.9c-5.2,4.3-7.1,10-5.2,16.5c1.5,5.7,3.7,11.3,4.3,17.3
		c0,0.6,0.2,1.4,0.2,2c0.2,3.7,0.2,3.7,3.7,2.5c0.8-0.3,1.7-0.5,2.5-0.8c-1.9,2.2-4.8,2.2-7.2,2.9c-0.9,0.3-0.9-0.9-0.5-1.4
		c1.2-1.4,0.8-3.1,0.8-4.6C390.3,167.8,389.5,168.1,389,168.3z"/>
	<path fill="#F5F5F5" d="M324.1,89.9c-0.6-0.3-1.2-0.2-1.9,0c0-0.9,0-1.7-1.2-1.7c-0.5-1.2-0.9-2.6-1.4-3.9c0.8-1.9-1.1-7.6-2.9-9.1
		l0,0c0.3-1.2,0.8-2.3-1.1-2.6c-1.1-1.4-1.4-2.9-1.7-4.5c1.4-1.4,0-2.3-0.5-3.5c0-1.2-0.3-2.5-1.1-3.4c-0.6-0.6,0.5-2.3-1.4-1.9
		c-0.5-0.5-0.8-0.9-0.6-1.7c1.4-0.5,0.3-1.2,0.3-1.9c0-0.9-1.5-2.2,0.2-2.6c1.4-0.3,1.4,1.2,1.7,2.2c1.5,4.2,2.9,8.3,4.3,12.5
		c2.3,6.8,4.8,13.4,7.1,20.2C324.4,88.7,324.7,89.3,324.1,89.9z"/>
	<path fill="#F5F5F5" d="M416.2,140.1c-1.2-1.2-1.5-0.3-1.9,0.8c-0.8,2-1.7,3.9-3.1,5.4c-1.9,1.9-3.9,2.8-6.5,1.7
		c-2.3-0.9-4.3-0.5-6,1.4c-1.5,1.7-1.5,3.5-0.6,5.6c1.1,2.3,2.9,3.1,5.4,2.9c2-0.2,4-0.2,6-0.3c1.1,0,2.3-0.3,2.9,0.9
		c-0.8,0-1.2,0.5-1.7,1.1c-2-1.4-4.3-0.5-6.3-0.5c-2.3,0-4.3-0.2-6.2-1.9c-2.2-2-2.6-4.9-1.2-7.6c1.4-2.6,3.9-3.9,6.6-3.4
		c5.4,0.9,6.8,0.3,8.9-4.8c0.5-1.1,0.8-2.2,1.2-3.2C415.4,137.9,416.9,137.6,416.2,140.1z"/>
	<path fill="#404040" d="M276.6,414.9c-0.2-2,1.5-2.3,2.8-2.3c1.5,0,2.6,1.2,2.5,2.9c0,1.5-0.8,2.8-2.5,2.6
		C277.4,418.1,276.6,416.8,276.6,414.9z"/>
	<path fill="#404040" d="M552.5,442.7c0-1.7,0.8-2.8,2.6-2.6c1.9,0,2.3,1.4,2.3,2.8c0,1.5-0.6,2.9-2.5,2.9
		C553.1,445.6,552.7,444.2,552.5,442.7z"/>
	<path fill="#F5F5F5" d="M378.1,151.6c1.5,2.6,2.2,5.6,2.6,8.6C378.8,157.6,378.4,154.6,378.1,151.6z"/>
	<path fill="#5B5B5B" d="M537.1,475.5c0-0.3,0-0.5,0-0.8c2.3,0.6,4.6,1.1,6.9,1.7c0,0.2-0.2,0.3-0.2,0.6
		C541.7,476.4,539.4,476,537.1,475.5z"/>
	<path fill="#F5F5F5" d="M396,120.9c-2.5,0.8-4.9,1.4-7.4,2.2C390.6,120.9,393,120.5,396,120.9z"/>
	<path fill="#F5F5F5" d="M415.5,161c2.3,0.2,4.2,1.5,6.3,2.2C419.2,163.7,417.2,163,415.5,161z"/>
	<path fill="#F5F5F5" d="M420.6,152.4c-2.2-0.2-4.2-0.5-5.7-2C416.9,151,419.2,150.7,420.6,152.4z"/>
	<path fill="#F5F5F5" d="M422.9,163.4c0.9-0.5,2.2,0.8,2.6-0.8c0.6,0.2,1.1,0.5,1.1,1.1c0,0.8-0.8,0.8-1.2,0.6
		C424.6,164.1,423.4,164.7,422.9,163.4z"/>
	<path fill="#F5F5F5" d="M410.8,126.2c0.3-2-1.4-2.3-2.5-3.4C411.5,123.4,412,124,410.8,126.2z"/>
	<path fill="#F5F5F5" d="M381,172.9c0.3,0.8,0.9,0.8,1.7,0.8c-0.2,1.4-1.2,2-2.2,1.4C379.3,174.3,380.4,173.5,381,172.9z"/>
	<path fill="#F5F5F5" d="M422.9,156.9c-0.9-1.1-1.2-2.3-1.5-3.5C423.3,153.9,422.9,155.5,422.9,156.9z"/>
	<path fill="#F5F5F5" d="M345.2,29c-0.6-0.8-0.9-1.7-0.8-2.9c0.5,0.8,0.8,1.5,1.2,2.3C345.5,28.6,345.4,28.7,345.2,29z"/>
	<path fill="#F5F5F5" d="M381.5,167.7c0.5,0.9,0.8,1.9,0,2.8C380.7,169.5,380.7,168.6,381.5,167.7z"/>
	<path fill="#F5F5F5" d="M412.6,159c1.1,0.3,1.9,0.8,2.3,1.7C413.7,160.9,412.6,160.6,412.6,159z"/>
	<path fill="#F5F5F5" d="M321.2,93.5c0.9-0.6,1.9-0.8,2.9-0.9C323.3,93.6,322.4,94.3,321.2,93.5z"/>
	<path fill="#F5F5F5" d="M414.3,147.6c0.8-0.5,1.5-0.5,2.3-0.3C416,148.5,415.2,148.4,414.3,147.6z"/>
	<path fill="#F5F5F5" d="M408.1,161.3c0.5-0.9,1.4-0.9,2.2-1.2C410.3,161.7,409.1,161.3,408.1,161.3z"/>
	<path fill="#F5F5F5" d="M306,53.7c-0.5,0.6-1.1,0.6-1.7,0.5C304.8,52.9,305.3,52.8,306,53.7z"/>
	<path fill="#F5F5F5" d="M406.3,122c-0.6,0.2-1.2,0-1.7-0.5C405.5,120.8,406,120.9,406.3,122z"/>
	<path fill="#F5F5F5" d="M412,135c-0.8-0.2-1.4-0.5-1.5-1.4C411.2,133.7,412.2,133.7,412,135z"/>
	<path fill="#F5F5F5" d="M402.9,121.2c-0.6,0.2-1.2,0.2-1.7-0.3C401.8,120.3,402.4,120.3,402.9,121.2z"/>
	<path fill="#F5F5F5" d="M383.2,173.4c0.3-0.8,0.9-1.1,1.9-0.9C384.9,173.5,383.9,173.4,383.2,173.4z"/>
	<path fill="#F5F5F5" d="M387.9,123.4c-0.3,0.8-1.1,1.1-1.9,1.1C386.2,123.3,387.2,123.4,387.9,123.4z"/>
	<path fill="#F5F5F5" d="M385.8,172.1c0.5-0.3,1.1-0.6,1.5-0.9C387.2,172.1,386.6,172.3,385.8,172.1z"/>
	<path fill="#F5F5F5" d="M418.5,147c0-0.5,0-0.8,0-1.2c0.3,0.2,0.8,0.3,0.8,0.5C419.4,146.9,418.9,146.9,418.5,147z"/>
	<path fill="#F5F5F5" d="M381.5,165.4c0.5,0.3,0.5,0.8,0,1.1C381,166.1,380.8,165.8,381.5,165.4z"/>
	<path fill="#F5F5F5" d="M387.3,171.2c0.2-0.6,0.5-1.1,1.1-1.4C388.6,170.6,388.2,171.1,387.3,171.2z"/>
	<path fill="#F5F5F5" d="M203.9,452.7c4.5-4.3,9.1-8.8,13.6-13.1c0.3,1.2-0.2,2.6-0.5,4c-0.5,2.6,1.2,5.6,3.7,6.6
		c1.2,0.5,1.7-0.3,2.5-0.9c6.5-5.6,13-11.1,20.2-15.6c0.5-0.3,0.9-1.2,1.7-0.5c0.6,0.6,0,1.2-0.3,1.9c-0.9,1.9-1.7,3.9-2.8,5.7
		c-1.7,2.9-1.5,5.9,0.6,8.5C229.7,450.4,216.9,451.6,203.9,452.7z"/>
	<path fill="#F5F5F5" d="M394.7,451.5c4.6-2.8,9.1-5.6,13.7-8.5c0,1.5,0,2.9,0,4.3c0.2,2.5,1.5,3.5,4,3.1c3.2-0.8,5.7-2.8,8.3-4.8
		c1.7-1.4,3.4-2.6,5.1-3.9c0.8-0.5,1.7-0.9,2.9-0.6c-0.9,2.9-3.5,4.3-5.2,6.5c-2,2.6-1.7,4.9,0.8,6.8c-8.8-0.9-17.4-1.7-26.2-2.6
		C397,451.8,396,451.6,394.7,451.5z"/>
	<path fill="#F5F5F5" d="M251.4,448.7c3.9-3.7,8.6-6.5,11.9-11.1c1.5-2.2,4.3-3.4,7.6-3.9c-0.6,2.8-2.2,4.9-2.3,7.6
		c-0.3,2.5,0,4.8,2.3,6.3C264.4,448.4,257.9,448.4,251.4,448.7z"/>
	<path fill="#F5F5F5" d="M179.6,456.1c2.8-2.2,5.6-4.6,8.5-6.5c3.5-2.3,5.7-6,9.4-8c0.3-0.2,0.6-0.5,1.1-0.2
		c-0.5,2.5-3.2,4.8-1.4,7.6c1.2,2,2.9,3.7,5.7,3.9C195,453.9,187.3,455,179.6,456.1z"/>
	<path fill="#FEFEFE" d="M96,473.8c-0.2-1.1,0.5-1.1,1.2-0.9C97.4,474,96.3,473.4,96,473.8z"/>
	<path fill="#F5F5F5" d="M220.3,136.1c1.4-4.5,4.9-6.9,8.6-9.1c2.5-1.4,5.2-2.2,8.2-2.5c1.1,0,2.6-0.6,2.9,0.8
		c0.3,1.2-0.8,2.6-1.9,2.9c-2.5,0.9-0.9,1.5,0,2.2c1.1,0.8,2.2,0.9,3.5,1.1c2,0.3,3.5,1.2,2.6,3.9c-0.9-0.6-1.4-1.4-2.9-0.9
		c-1.9,0.5-4.2-0.3-5.9-1.9c-0.6-0.5-1.2-1.5-2.2-1.1c-0.9,0.5-0.9,1.5-1.1,2.5c-0.3,2,0.8,3.9,1.1,5.9c0,0.2,0.2,0.3,0.2,0.3
		c4.6,0.5,2.2,4.6,3.5,6.8c0.2,0.2,0.2,0.8,0.3,0.8c3.1,0,2.8,3.1,4.2,4.5c1.2,1.2,4,0.8,4.6-0.9c1.2-2.9,3.1-1.7,4.8-0.9
		c0.3,0.2,0.6,0.5,0.9,0.8c1.5,0.9,3.2,1.1,4.6,0.3c1.7-0.9,0-2.3-0.2-3.5c-0.2-2.8-3.5-4.3-3.4-7.4c0-0.2-0.6-0.3-0.6-0.3
		c-2,1.5-4.3-0.2-6.5,0.6c-0.8,0.3-1.5,1.5-2.3,0c-0.5-1.2-0.8-2.5,0.3-3.5c0.6-0.6,1.4-1.4,2.5-1.2c1.7,0.3,2.6-0.3,2.6-2
		c0-1.2,0.8-1.5,1.7-1.4c1.2,0.2,2.3,1.1,2.3-1.2c0-0.9,1.4,0,1.9,0.6c3.9,4.2,5.9,9.3,5.6,15c-0.5,13.9-13.4,23.6-26.8,20.4
		c-1.1-0.3-3.1,0.2-2.9-1.9c0.2-1.9,3.1-2.5,4.6-2.6c3.9-0.6,6.6,1.7,9.7,2.9c0.5,0.2,1.1,0.2,1.2-0.3c0.3-0.5,0-0.8-0.6-1.1
		c-2.5-1.4-3.1-4.2-3.9-6.5c-1.2-3.4-1.7-3.7-4.5-1.9c-1.7,1.1-3.2,2.2-3.9,4.3c-0.5,1.5-2.6,1.2-3.4,2.8c-0.3,0.5-1.1-0.5-0.8-0.9
		c2.2-2.8-1.1-4.8-1.2-7.2c0-0.5,0.5-2.8-1.9-2.5c-2,0.2-2.9,1.5-4,2.8c-0.8,0.9,0.3,1.2,0.9,1.7c0.6,0.5,0.6,0.9,0.2,1.4
		c-0.5,0.5-0.9,0.9-1.7,0.6c-0.9-0.5-3.4-6.5-2.9-7.4c0.8-1.4,1.4-2.5,3.5-1.9c1.1,0.3,2.2,0.9,3.5,0.9c3.5,0,3.5,0.2,2.2-2.9
		c-0.3-0.6-0.5-1.4-0.3-2c0.3-1.9-0.3-3.2-1.5-4.2C224.1,139.6,222.6,137.3,220.3,136.1L220.3,136.1z"/>
	<path fill="#F5F5F5" d="M237.1,139.6c0-0.9,0-1.9-0.3-2.8C238.2,137.4,238.3,138.4,237.1,139.6z"/>
	<path fill="#F5F5F5" d="M219.5,137.4l0.2,0.2c0,0.2-0.2,0.3-0.2,0.5l-0.2-0.2C219.4,137.8,219.5,137.6,219.5,137.4z"/>
	<path fill="#F5F5F5" d="M220.3,136.1c0,0.2,0,0.3,0,0.5c-0.2,0-0.2-0.2-0.3-0.2C220.1,136.2,220.1,136.1,220.3,136.1L220.3,136.1z"
		/>
	<path fill="#FEFEFE" d="M205,255c-0.8,0.5-1.5,0.3-2.6,0.2c0.9-0.3,1.5-0.5,2.2-0.8C204.7,254.5,204.9,254.7,205,255z"/>
	<path fill="#FEFEFE" d="M427.9,88.6c0.2-0.3,0.3-0.9,0.6-0.6c0.6,0.3,0.2,0.8,0,1.2C428.3,88.9,428.2,88.7,427.9,88.6z"/>
	<path fill="#FEFEFE" d="M174.2,174.8c-0.5-0.2-0.9-0.2-1.4-0.3c0.6-0.6,1.2-0.5,1.9-0.2C174.3,174.5,174.2,174.6,174.2,174.8z"/>
	<path fill="#FEFEFE" d="M175.3,175.4c-0.3-0.2-0.8-0.5-1.1-0.6c0.2-0.2,0.3-0.3,0.3-0.5c0.5,0.2,0.8,0.3,1.2,0.5
		C175.6,174.9,175.4,175.2,175.3,175.4z"/>
	<path fill="#F5F5F5" d="M226.6,285.2c-1.1,0.9-2.3,1.9-3.9,3.2c0.9-2.2,2.2-2.8,3.5-3.5C226.3,284.9,226.5,285,226.6,285.2z"/>
	<path fill="#FEFEFE" d="M226.5,284.4c0.3-0.3,0.8-1.1,1.2-0.5c0.5,0.6-0.3,0.8-0.8,1.1C226.8,284.7,226.6,284.6,226.5,284.4z"/>
	<path fill="#FEFEFE" d="M226.6,285.2c-0.2-0.2-0.3-0.3-0.5-0.5c0-0.2,0.2-0.3,0.3-0.3c0.2,0.2,0.3,0.3,0.5,0.6
		C226.9,285,226.8,285.2,226.6,285.2z"/>
	<path fill="#F5F5F5" d="M221.4,288.6C221.4,288.6,221.4,288.4,221.4,288.6L221.4,288.6z"/>
	<path fill="#F5F5F5" d="M221.4,288.4c0,0.2,0,0.3,0,0.5v-0.2C221.4,288.7,221.4,288.6,221.4,288.4
		C221.4,288.6,221.4,288.4,221.4,288.4z"/>
	<path fill="#FEFEFE" d="M178.6,127.1c-0.2-0.5-0.9-0.8-0.5-1.2c0.5-0.5,0.9,0.2,1.1,0.6C179,126.6,178.8,126.8,178.6,127.1z"/>
	<path fill="#FEFEFE" d="M206.9,86.7c0-0.5-1.1-0.8-0.3-1.2c0.5-0.3,0.6,0.5,0.8,0.9C207,86.5,207,86.5,206.9,86.7z"/>
	<path fill="#FEFEFE" d="M207.3,87.9c-0.2-0.5-0.3-0.8-0.5-1.2c0.2-0.2,0.3-0.2,0.3-0.3c0.2,0.3,0.5,0.8,0.6,1.1
		C207.6,87.6,207.5,87.8,207.3,87.9z"/>
	<path fill="#FEFEFE" d="M294.9,27c0.2-0.3,0.5-0.5,0.6-0.8c0.5,0.5,0.2,0.9,0,1.2C295.4,27.3,295.1,27.2,294.9,27z"/>
	<path fill="#FEFEFE" d="M406.8,284.6c-2,0-2.8-0.6-3.2-1.7C405.1,282.4,405.4,283.7,406.8,284.6z"/>
	<path fill="#FEFEFE" d="M407.2,286.1c-0.5-0.3-1.2-0.5-0.8-1.1c0.5-0.6,0.9,0.2,1.2,0.6C407.4,285.8,407.4,286,407.2,286.1z"/>
	<path fill="#FEFEFE" d="M407.5,285.7c0.2,0.2,0.5,0.5,0.5,0.6c-0.3,0.5-0.6,0-0.9,0C407.4,286,407.4,285.8,407.5,285.7z"/>
	<path fill="#F5F5F5" d="M343.2,24.2c0-0.2-0.2-0.3-0.2-0.5l0.2-0.2c0,0.2,0.2,0.3,0.2,0.5C343.4,24.1,343.4,24.1,343.2,24.2z"/>
	<path fill="#F5F5F5" d="M344,25.2v0.2c-0.2,0-0.3,0-0.3-0.2l0.2-0.2C343.8,25,344,25,344,25.2z"/>
	<path fill="#FEFEFE" d="M455.5,132c0.2-1.9,0.9-2.6,1.9-3.5C457.7,130.2,457,131,455.5,132z"/>
	<path fill="#FEFEFE" d="M457.8,175.4c0.5-0.2,0.9-0.3,1.2,0.2c-0.3,0.2-0.5,0.5-0.8,0.6C458.3,175.8,458,175.5,457.8,175.4z"/>
	<path fill="#FEFEFE" d="M277.2,182.3c-0.5,0.2-0.6,0.3-0.8,0.5c-0.3,0-0.5-0.2-0.8-0.2c0.2-0.2,0.3-0.5,0.5-0.5
		C276.4,182,276.7,182.2,277.2,182.3z"/>
	<path fill="#FEFEFE" d="M434.1,254.5c0.3,0.2,0.6,0.3,0.8,0.5c-0.5,0.3-0.8,0.2-1.2,0C433.7,254.8,433.9,254.7,434.1,254.5z"/>
	<path fill="#FEFEFE" d="M293.7,137.4c0-0.5-1.1-0.8-0.3-1.2c0.5-0.3,0.6,0.5,0.8,0.9C294,137.1,293.9,137.3,293.7,137.4z"/>
	<path fill="#FEFEFE" d="M294.2,137.1c0.2,0.3,0.5,0.8,0.6,1.1c-0.2,0.2-0.3,0.3-0.6,0.5c-0.2-0.5-0.3-0.8-0.5-1.2
		C293.9,137.3,294,137.1,294.2,137.1z"/>
	<path fill="#FEFEFE" d="M340.4,138.1c0.3-0.3,0.3-1.2,0.9-0.8c0.5,0.3-0.2,0.9-0.3,1.4C340.9,138.4,340.6,138.2,340.4,138.1z"/>
	<path fill="#FEFEFE" d="M275.8,235.4c0.5,0.2,0.8,0.5,1.2,0.6c-0.6,0.6-1.2,0.3-1.7,0C275.5,235.7,275.7,235.5,275.8,235.4z"/>
	<path fill="#FEFEFE" d="M361.6,236c-0.8,0.5-1.5,0.5-2.5,0c0.8-0.3,1.2-0.5,1.9-0.6C361.3,235.5,361.4,235.7,361.6,236z"/>
	<path fill="#F5F5F5" d="M477.7,449.6c1.7-3.5,4.8-5.1,9.4-4.8C483.9,446.8,481.2,448.8,477.7,449.6z"/>
	<path fill="#F5F5F5" d="M410.1,437.9c-4.6,4.2-9.6,7.1-15,9.1c-0.6,0.2-1.2,0.8-1.9,0.2c-0.6-0.8-0.2-1.5,0.3-2.3
		C396.4,439.7,403.7,436.6,410.1,437.9z"/>
	<path fill="#FEFEFE" d="M377.6,411.4c-1.5,2.3-3.2,4.6-4.8,7.1c-0.9,1.4-1.7,2.9-1.4,4.8c0.2,1.1,0.5,2.2,1.9,2.2
		c1.4,0,2.5-0.9,2.3-2c-0.8-6.9,3.9-10.6,8.6-14c2.5-1.9,5.6-2.5,8.6-1.5c1.9,0.5,2,2,1.7,3.7c-0.6,4.6-3.2,8.2-5.9,11.9
		c-4.6,6-9.6,11.7-15.3,16.7c-2.8,2.5-6,4.6-9.4,6.3c-0.9,0.5-2,0.8-3.1,0.8c-2,0-3.4-0.6-3.2-3.2c0.3-6.6,3.5-12,6.9-17.3
		c2.8-4.2,5.2-8.6,8.8-12.3c1.2-1.2,2.5-2.5,3.7-3.5C377.3,411,377.5,411.2,377.6,411.4z"/>
	<path fill="#FEFEFE" d="M377.1,410.7c0.5-0.6,0.9-1.4,2-1.1c0.2,1.2-0.8,1.4-1.5,1.7C377.5,411.2,377.3,411,377.1,410.7z"/>
	<path fill="#F5F5F5" d="M96.1,466.3c-2.3,4.5-4.8,5.6-9.4,4.6C89.5,468.7,92.4,467.5,96.1,466.3z"/>
	<path fill="#F5F5F5" d="M117.9,425.7c0-3.5,1.9-6.2,4.3-8.5C122.5,420.9,120.2,423.2,117.9,425.7L117.9,425.7z"/>
	<path fill="#F5F5F5" d="M117.9,425.7c0,0.2-0.2,0.3-0.2,0.5c0-0.2-0.2-0.2-0.2-0.3C117.6,425.7,117.7,425.7,117.9,425.7
		L117.9,425.7z"/>
	<path fill="#F5F5F5" d="M279.4,66.7c2.3-0.6,3.5,0.3,4.5,2.9c2.6,8.3,5.7,16.5,8.5,24.7c0.3,1.1,1.1,2-0.9,2.5
		c-6.6,1.4-12.8,3.9-18.8,6.8c-2,0.9-2.8,0.6-3.4-1.5c-3.1-9.3-6.3-18.5-9.6-27.8c-0.6-1.7-0.2-2.3,1.4-3.1
		C266.6,68.7,272.6,67,279.4,66.7z M282.6,83.8c-4.6,0.3-9.3,1.4-13.6,3.9c-0.9,0.5-2.2,1.1-1.2,2.3c0.8,1.1,1.7,0.3,2.5-0.2
		c4.2-2.5,8.6-3.2,13.4-3.4c1.1,0,2.6,0.5,2.6-1.2c0-1.7-1.7-1.1-2.8-1.2C283.2,83.8,282.9,83.8,282.6,83.8z M278.4,71.6
		c-4.9,0.3-9.4,1.5-13.6,3.7c-0.9,0.5-2,1.1-1.4,2.2c0.6,1.5,1.9,0.5,2.6,0c3.9-2,8-3.1,12.3-3.4c1.2-0.2,3.5,0.9,3.5-1.1
		C282,70.7,279.5,72,278.4,71.6z M280.1,77.8c-4.6,0.3-8.9,1.4-13,3.5c-0.9,0.5-2.3,1.1-1.7,2.2c0.6,1.5,2,0.6,2.9,0
		c3.9-2.3,8-3.1,12.3-3.4c1.2-0.2,3.5,1.1,3.4-1.2c-0.2-1.9-2.3-0.9-3.7-1.2C280.3,77.6,280.1,77.8,280.1,77.8z M288.3,91.2
		c-0.2-1.1-0.9-1.1-1.7-1.2c-5.9-0.3-11.1,1.1-16.2,4c-0.6,0.5-1.4,0.9-0.8,1.9c0.5,0.8,1.2,0.8,2,0.3c4.6-2.9,9.7-3.9,15-3.9
		C287.5,92.4,288.3,92.1,288.3,91.2z"/>
	<path fill="#F5F5F5" d="M305.9,56c1.4-0.3,1.9,0.6,2.2,1.7c3.2,9.6,6.6,19,9.9,28.5c0.5,1.4,0.2,2-1.2,2.3
		c-6.9,1.5-13.7,3.5-20.2,6.6c-1.2,0.6-1.5-0.2-1.9-1.1c-3.1-8.9-6.2-17.9-9.4-26.8c-0.3-0.8-0.2-1.5,0.5-2
		C291.9,60.3,298.5,57.4,305.9,56z M311.7,79.8c-5.9,0.9-11.3,3.1-15.7,7.1c-0.5,0.5-0.9,1.1-0.5,1.7c0.6,0.6,1.4,0.8,2,0.2
		c4.2-3.5,8.9-5.9,14.5-6.5c0.8-0.2,1.5-0.6,1.2-1.5C313.1,79.8,312.4,79.6,311.7,79.8z M307.1,62.6c-0.2-0.9-0.9-1.2-1.7-1.1
		c-5.9,0.9-11.3,3.1-15.7,7.1c-0.6,0.6-0.9,1.4-0.2,2c0.6,0.6,1.2,0.3,1.9-0.2c4.2-3.5,9.1-5.7,14.5-6.5
		C306.5,63.7,307,63.4,307.1,62.6z M307.4,67.6c-5.9,0.9-11.1,3.1-15.6,6.9c-0.6,0.6-1.1,1.2-0.5,2c0.6,0.8,1.4,0.5,2-0.2
		c4-3.5,8.8-5.7,14.2-6.5c0.8-0.2,1.5-0.5,1.5-1.4C309,67.6,308.2,67.6,307.4,67.6z M309.3,73.7c-5.6,0.6-10.6,3.1-15,6.6
		c-0.6,0.5-1.4,1.2-0.6,2.2c0.8,0.9,1.5,0.3,2.3-0.3c4-3.4,8.5-5.6,13.7-6.2c0.9-0.2,1.9-0.5,1.5-1.5
		C311,73.6,310.1,73.7,309.3,73.7z"/>
	<path fill="#FEFEFE" d="M266.9,102.9c-0.8,0.2-0.9-0.5-1.1-0.9c-1.2-3.4-3.2-6.6-2.9-10.5C264.9,95,265.9,98.9,266.9,102.9z"/>
	<path fill="#FEFEFE" d="M261.6,87.9c-2.5-2.8-3.5-6-3.5-9.7C260.1,81.1,261,84.5,261.6,87.9z"/>
	<path fill="#FEFEFE" d="M316.7,75.3c1.9,1.5,3.7,7.2,2.9,9.1C318.4,81.5,317.1,78.4,316.7,75.3z"/>
	<path fill="#FEFEFE" d="M312.5,61.3c0.8,1.1,1.1,2.2,1.1,3.4c-0.3,0-0.5,0-0.8,0c-0.2-0.6-0.3-1.2-0.6-1.9
		C312.4,62.2,312.4,61.7,312.5,61.3L312.5,61.3z"/>
	<path fill="#FEFEFE" d="M313.6,64.6c0.5,1.1,1.9,2.2,0.5,3.5c-0.2-0.6-0.5-1.4-0.6-2C313.4,65.7,313.6,65.1,313.6,64.6z"/>
	<path fill="#FEFEFE" d="M311,59.4c1.9-0.5,0.9,1.2,1.4,1.9l0,0c-0.3,0-0.6,0-0.8,0C311.4,60.5,311.1,60,311,59.4z"/>
	<path fill="#FEFEFE" d="M315.6,72.7c1.9,0.3,1.4,1.4,1.1,2.6C315.6,74.7,315.9,73.6,315.6,72.7z"/>
	<path fill="#FEFEFE" d="M321,88.2c1.2,0,1.2,0.9,1.2,1.7c-0.2,0.2-0.3,0.2-0.5,0.3c-0.3-0.3-0.5-0.6-0.8-0.9
		C321,89,321,88.6,321,88.2z"/>
	<path fill="#FEFEFE" d="M268.4,106.8c-1.4-0.2-1.7-0.8-1.1-2C268.3,105.1,268.1,106,268.4,106.8z"/>
	<path fill="#F5F5F5" d="M313.6,64.6c0,0.5-0.2,1.1-0.2,1.5c-0.6-0.5-0.9-0.9-0.6-1.5C313.1,64.6,313.3,64.6,313.6,64.6z"/>
	<path fill="#F5F5F5" d="M311.6,61.1c0.3,0,0.6,0,0.8,0c0,0.5-0.2,1.1-0.2,1.5C311.6,62.3,311.4,61.9,311.6,61.1z"/>
	<path fill="#FEFEFE" d="M267.5,104.6c-1.4,0-0.9-0.9-0.6-1.7C267.6,103.4,267.5,104,267.5,104.6z"/>
	<path fill="#FEFEFE" d="M257.6,76.4c-1.4,0-0.9-0.9-0.6-1.7C257.8,75.1,257.8,75.8,257.6,76.4z"/>
	<path fill="#FEFEFE" d="M262.9,91.3c-1.4,0-0.9-0.9-0.6-1.7C263,90.1,263,90.7,262.9,91.3z"/>
	<path fill="#FEFEFE" d="M262.2,89.6c-1.4,0-0.9-0.9-0.6-1.7C262.4,88.4,262.4,89,262.2,89.6z"/>
	<path fill="#FEFEFE" d="M258.2,78.2c-1.5,0-0.9-0.9-0.6-1.7C258.4,76.8,258.4,77.4,258.2,78.2z"/>
	<path fill="#FEFEFE" d="M268.7,107.2c-0.2,0.2-0.2,0.5-0.3,0.6c-0.6-0.3-0.2-0.6-0.2-1.1C268.4,106.9,268.6,107.1,268.7,107.2z"/>
	<path fill="#F5F5F5" d="M153,444.1c-0.3,1.5-0.3,2.8,1.2,3.5c1.1,0.6,0.8,1.7,0.5,2.6c-1.2,3.7-3.9,6.5-7.1,8.6
		c-1.1,0.6-2.6,0.9-3.5,0.2c-1.2-1.2-1.4-3.1-0.9-4.6C144.3,449,147.3,445.4,153,444.1z"/>
	<path fill="#F5F5F5" d="M373.7,115.7c-0.3-0.6-0.6-1.1-0.8-1.5c-0.6-2.6-2-3.9-4.6-2.2c-2,1.2-1.9-0.5-2.2-1.7
		c-0.6-3.5-0.8-3.7-4-1.9c-1.7,0.9-2.3,0.5-2.6-1.2c-0.8-3.2-0.8-3.2-4-2.2c0-2.6,1.1-4.8,1.9-7.1c2.2-6.3,4.3-12.6,7.9-18.5
		c0.5-0.8,0.9-1.4,1.4-2.2c0.3-0.5,0.8-1.1,1.4-0.8c0.8,0.3,0.3,0.9,0.3,1.4c-2,9.6-0.8,11.9,8.5,15.3c3.9,1.4,3.9,1.4,3.1,5.2
		c-0.9,4.6-2.2,9.4-4,13.7C375.3,113.5,375,114.8,373.7,115.7z M372.5,100.4c-0.6-1.5-1.5-2.9-3.4-3.4c-0.8-0.2-1.2,0.5-1.2,1.2
		c0.3,1.7,1.1,3.1,2.9,3.5C371.6,101.8,372.4,101.5,372.5,100.4z M366.8,92.4c-0.5-0.9,0.2-2.5-1.4-2.6c-1.1,0-2.2,0.6-2,1.9
		c0.2,1.2,0.9,2.6,2.5,2.8C366.8,94.4,366.7,93.2,366.8,92.4z M364.5,103c0.5,0,0.5-1.1,0.5-1.9c0-1.9-1.5-2.2-2.8-2.6
		c-0.5-0.2-1.4,0.2-0.9,0.9C362,100.7,361.3,103,364.5,103z M375.8,108.1c-0.8-0.6,0.6-2.5-1.1-2.6c-1.5,0-1.5,1.5-1.7,2.8
		c-0.2,1.1,0.6,1.9,1.7,1.9C375.8,110.1,375.8,109.2,375.8,108.1z M376.1,100.9c0.8-0.2,0.9-0.8,0.9-1.4c-0.2-1.1-0.2-2.5-1.5-2.6
		c-0.9-0.2-1.1,0.9-1.1,1.7C374.5,99.7,374.7,100.6,376.1,100.9z M369.7,104.1c-0.9,0-1.2,0.6-1.2,1.5c0,0.5,0.2,1.1,0.6,1.1
		c0.9,0,1.4-0.8,1.5-1.5C371,104.6,370.5,104.3,369.7,104.1z"/>
	<path fill="#F5F5F5" d="M365.4,54.2c-0.9,3.7-1.9,7.2-2.9,11c-0.5,1.5-1.9,1.7-2.9,1.1c-1.2-0.6-2.2-1.9-1.1-3.2
		c2.2-2.9,4.6-5.7,6.3-9.1C365.1,53.9,365.3,54,365.4,54.2z"/>
	<path fill="#5B5B5B" d="M282.6,83.8c0.5,0,0.8,0,0.9,0c1.1,0.2,2.6-0.3,2.8,1.2c0,1.7-1.5,1.2-2.6,1.2c-4.8,0.2-9.3,0.9-13.4,3.4
		c-0.8,0.5-1.7,1.2-2.5,0.2c-0.8-1.2,0.3-1.9,1.2-2.3C273.2,85,277.8,84.1,282.6,83.8z"/>
	<path fill="#5B5B5B" d="M278.4,71.6c1.1,0.5,3.5-0.9,3.4,1.4c0,2-2.3,0.9-3.5,1.1c-4.3,0.3-8.5,1.4-12.3,3.4c-0.9,0.5-2,1.4-2.6,0
		c-0.5-1.1,0.6-1.7,1.4-2.2C269,73.1,273.5,71.9,278.4,71.6z"/>
	<path fill="#5B5B5B" d="M280.1,77.8c0.2,0,0.2,0,0.3,0c1.2,0.3,3.5-0.6,3.7,1.2c0.2,2.3-2.2,1.2-3.4,1.2c-4.3,0.3-8.5,1.1-12.3,3.4
		c-0.9,0.6-2.2,1.5-2.9,0c-0.5-1.2,0.9-1.7,1.7-2.2C271.2,79,275.5,77.9,280.1,77.8z"/>
	<path fill="#5B5B5B" d="M288.3,91.2c-0.2,0.9-0.8,1.2-1.5,1.2c-5.4,0-10.5,0.9-15,3.9c-0.8,0.5-1.5,0.5-2-0.3
		c-0.5-0.9,0.2-1.4,0.8-1.9c4.9-2.9,10.3-4.3,16.2-4C287.4,89.9,288.3,90.1,288.3,91.2z"/>
	<path fill="#5B5B5B" d="M311.7,79.8c0.8,0,1.4,0.2,1.7,0.9c0.2,0.9-0.5,1.5-1.2,1.5c-5.6,0.6-10.2,2.9-14.5,6.5
		c-0.8,0.6-1.4,0.6-2-0.2c-0.6-0.6-0.2-1.2,0.5-1.7C300.5,82.7,305.9,80.7,311.7,79.8z"/>
	<path fill="#5B5B5B" d="M307.1,62.6c-0.2,0.8-0.6,1.2-1.4,1.2c-5.4,0.8-10.2,2.9-14.5,6.5c-0.5,0.5-1.2,0.8-1.9,0.2
		c-0.8-0.6-0.5-1.5,0.2-2c4.5-4,9.9-6.2,15.7-7.1C306.2,61.3,306.8,61.7,307.1,62.6z"/>
	<path fill="#5B5B5B" d="M307.4,67.6c0.8,0,1.5,0,1.7,1.1c0.2,0.9-0.6,1.2-1.5,1.4c-5.4,0.8-10,2.9-14.2,6.5c-0.6,0.6-1.4,0.8-2,0.2
		c-0.6-0.8-0.2-1.4,0.5-2C296.3,70.7,301.6,68.5,307.4,67.6z"/>
	<path fill="#5B5B5B" d="M309.3,73.7c0.8,0,1.7-0.2,2,0.8c0.2,1.1-0.6,1.5-1.5,1.5c-5.2,0.6-9.7,2.8-13.7,6.2
		c-0.6,0.6-1.5,1.2-2.3,0.3c-0.8-0.9,0-1.7,0.6-2.2C298.6,76.8,303.6,74.4,309.3,73.7z"/>
	<path fill="#5B5B5B" d="M372.5,100.4c-0.2,1.2-0.9,1.5-1.7,1.2c-1.9-0.5-2.6-1.9-2.9-3.5c-0.2-0.8,0.3-1.4,1.2-1.2
		C370.8,97.5,371.9,98.9,372.5,100.4z"/>
	<path fill="#5B5B5B" d="M366.8,92.4c0,0.9,0,2.2-1.1,2c-1.4-0.2-2.3-1.4-2.5-2.8c-0.2-1.2,0.9-1.9,2-1.9
		C367,89.8,366.3,91.5,366.8,92.4z"/>
	<path fill="#5B5B5B" d="M364.5,103c-3.2,0-2.5-2.3-3.2-3.5c-0.5-0.8,0.5-1.1,0.9-0.9c1.4,0.5,2.9,0.8,2.8,2.6
		C365,102.1,365,103,364.5,103z"/>
	<path fill="#5B5B5B" d="M375.8,108.1c0,1.1,0,2-1.2,2c-1.1,0-1.9-0.8-1.7-1.9c0.2-1.2,0.2-2.8,1.7-2.8
		C376.4,105.7,374.8,107.5,375.8,108.1z"/>
	<path fill="#5B5B5B" d="M376.1,100.9c-1.4-0.3-1.5-1.4-1.7-2.3c0-0.8,0.2-1.9,1.1-1.7c1.4,0.2,1.4,1.5,1.5,2.6
		C377,100.3,376.8,100.9,376.1,100.9z"/>
	<path fill="#5B5B5B" d="M369.7,104.1c0.6,0.2,1.2,0.5,0.9,1.1c-0.2,0.8-0.8,1.4-1.5,1.5c-0.6,0-0.6-0.6-0.6-1.1
		C368.5,104.7,368.8,104.1,369.7,104.1z"/>
</g>
</svg>
