<?xml version="1.0" encoding="utf-8"?>
<!-- Generator: Adobe Illustrator 18.0.0, SVG Export Plug-In . SVG Version: 6.00 Build 0)  -->
<!DOCTYPE svg PUBLIC "-//W3C//DTD SVG 1.1//EN" "http://www.w3.org/Graphics/SVG/1.1/DTD/svg11.dtd">
<svg version="1.1" id="Layer_1" xmlns="http://www.w3.org/2000/svg" xmlns:xlink="http://www.w3.org/1999/xlink" x="0px" y="0px"
	 viewBox="0 0 640 480" enable-background="new 0 0 640 480" xml:space="preserve">
<g>
	<path fill="#0A0A0A" d="M497.3,201.1c0.7-0.2,1.5-0.2,2.2-0.3c4.3-0.5,6.3,1.3,5.8,5.8c-0.2,1.7-0.7,3.5-1.5,5
		c-7.3,12.6-14.9,24.9-24.9,35.6c-1.8,1.8-3.6,3.6-5.5,5.3c-4,3.5-8.6,5.3-14.1,5c-15.1-0.8-29.5-4.3-43.2-10.8
		c-3.5-1.7-7.1-2.5-11.3-3.6c3.3,5.5,6.1,10.8,8.3,16.2c7.6,19.7,9.8,40.1,8.5,61c-0.2,3.1-0.5,6.5-1,9.4c-0.5,2.7,0.7,3.3,3,3.5
		c4.1,0.2,8.3-0.3,12.3-1.2c8.1-1.7,16.1-4,24-6.6c10.6-3.5,18.7-0.8,24.7,8.6c5.3,8.3,7.5,17.7,8.9,27.3
		c1.7,10.3,2.3,20.7,2.3,31.2c0,1.2,0.2,2.3,0.3,3.3c1.5,8,6.3,11.3,14.4,9.1c8.6-2.2,15.7-7,22.7-12.1c3.1-2.3,6-4.8,8.9-7.1
		c0.5-0.5,1.2-1,1.7-1.3c1.8-1,3.6-2.2,5.8-1c2,1.2,2.3,3.3,2.2,5.5c-0.7,7.5-4.5,13.6-9.1,19.2c-11.4,13.9-26.8,22.2-43.2,28.7
		c-2.2,0.8-3.8,1.7-4,4.3c-0.2,1.7-1.3,2.5-2.8,2.8c-7,1.7-13.9,1.3-20.9,0.7c-2.8-0.3-4.5-2.8-5.8-5.1c-4.3-7.3-5.8-15.4-7.5-23.4
		c-1.2-6.1-1.3-12.1-1-18.4c0.7-10.9-1.3-21.7-4-32.3c-0.5-2-1.3-1.2-2.5-0.7c-11.3,4.8-22.2,10.3-33.5,15.2
		c-22.2,9.8-45.4,16.6-68.9,22c-9.3,2.2-17.6,7.1-25.5,12.1c-18.7,11.8-36,25.4-52.7,39.8c-7,6-13.6,11.8-22.2,15.4
		c-5.1,2.2-9.8,2.3-14.9,0.3c-7.6-3-14.1-8.1-20.2-13.4c-4-3.5-7.8-7.1-11.3-11.1c-5.5-6.3-11.8-6.8-18.6-1.8
		c-4.5,3.3-8,7.3-9.9,12.6c-2.8,7.5-5.8,14.7-9.9,21.5c-2.7,4.5-3.6,4.6-7.6,1.5c-8.9-7-11.6-16.6-10.3-27.3
		c1.8-14.9,8.8-27.7,17.2-39.8c1.3-2,1.8-3.6,0.8-5.8c-0.8-1.5-0.8-3.5-1.7-5c-4-7.3-0.2-12.6,4.6-17.6c3.3-3.5,7.8-5,12.4-5.3
		c1.7-0.2,3,0.7,4.3,1.5c11.6,8.1,22.2,17.2,32.8,26.7c6.5,5.8,12.8,11.6,19.4,17.7c2-7.6,4.6-14.7,7.6-21.7
		c2.3-5.1,4-10.6,6.8-15.6c3.6-6.3,3.6-12.8,2.8-19.4c-2-19.6-4.6-39.1-9.3-58.2c-6.5-26.8-7.3-54-8.1-81.4c0-1.3,0-2.7,0-4.5
		c-5.3,3-9.8,6.3-14.1,9.9c-8,6.6-16.1,13.6-18.9,23.9c-4.3,15.2-11.4,29.3-15.7,44.4c-0.2,0.8-0.3,1.8-1.3,2c-2.8,0.3-2.2,2.3-2,4
		c0.8,10.6-0.3,20.7-5.3,30.3c-4,7.6-9.9,12.9-18.2,15.9c-4.5,1.7-5.8,0.7-6.1-4c-0.2-1.7-1-1.2-1.8-0.7c-1.8,1.2-3.8,2-6,2.5
		c-4,0.8-8.3-3.1-8-7.1c0.2-1.3,1.7-1.8,2.2-3c0.3-0.8,0-1-0.7-0.8c-2.2,1.2-3.8,0.7-5.6-1.2c-5.5-5.6-7.3-16.4-3.6-23.4
		c1-2,2.5-3.1,5-2.8c1.8,0.2,3.6,0,5.5,0c1.8,0.2,2.8,1.2,2.3,3.1c-0.2,0.2-0.2,0.3-0.3,0.5c-0.8,0.7-1.5,1.5-1.8,2.5
		c-0.3,0.3-0.5,0.7-0.8,1.2c-0.2,0.3-0.3,0.5-0.3,0.8c-0.5,0.2-0.7,0.7-0.3,1.2c0.2-0.3,0.5-0.5,0.7-0.8c0.2-0.2,0.3-0.5,0.5-0.7
		c0.3-0.3,0.5-0.7,0.8-1c0.7-0.8,1.2-1.7,1.8-2.5c0.3-0.3,0.5-0.8,0.8-1.2c4.8-6.3,9.6-12.6,14.6-18.9c0.8-1.2,0.8-1.7-0.2-2.7
		c-7.1-7-6-5.1-2.5-13.3c11.6-26.3,24.4-52,40.9-75.6c7.5-10.6,15.4-21,26.2-28.5c5.6-3.8,11.1-7.8,16.9-11.3
		c8.3-5,16.9-8.6,26.8-8.9c1.3,0,2.7-0.2,4,1.2c0.2-2,0.3-3.5,1.8-4.6c-8.3-1.5-16.1-0.7-24,0.2c-18.9,2-37.6,4.6-56.3,8
		c-3.6,0.7-7.3,1.7-10.6,3.5c-1.2,0.7-2.3,1.3-3.3,2.2c-1.3,1.2-2.5,2.5-2,4.3c0.5,2,2.5,1.2,3.6,1.2c6.5,0.5,12.9,1,19.2,2.5
		c1.2,0.3,2.2,0.5,3.3,0.8c2.5,1,5.1,1.8,5.3,4.8c0.3,2.8-2,4.3-4.1,5.6c-7.5,4.6-15.7,7-24,9.4c-2,0.5-2.8,1.3-3.1,3.3
		c-1,5.5-4.6,9.1-9.4,11.6c-6,3-12.1,4.8-19.2,3c-10.4-2.5-21.4-1.8-32-1.2c-2.8,0.2-5.8,0.3-8.6-0.3c-7.6-1.5-11.6-5.5-12.6-13.1
		c-0.3-2.3-1-2.5-3-2.3c-13.3,0.3-26.2-1.7-38.8-6.3c-14.1-5.1-21-16.1-24-30.2c-3.1-14.7-1.7-29.5,1.5-44.1c0.7-3,0.7-6.1,1.3-9.1
		c2.3-10.8,9.4-17.9,18.6-23.5c6.8-4.3,13.6-6.1,21.7-4.3c6.8,1.5,6.8,1.2,6.6,8.1c-0.2,14.3-0.3,28.7-0.5,42.9c0,4.3,0,4.5-4.3,4.5
		c-1.3,0-2.5,0.3-3.6,1.3c-2.3,1.8-4.3,4.1-5.8,6.6c-2.5,4-1.5,9.1,2.7,11.3c8.9,4.5,18.4,7.1,28.5,4.6c2.2-0.5,2.5-1.5,2.5-3.5
		c0.8-20.5,1.8-41.3,2.7-61.8c0.2-5,0.3-4.5,5-5.8c7.3-2,13.1-0.7,18.4,5c4.8,5.1,10.4,8.1,17.7,5.3c1.2-0.5,2.5-0.3,3.6-0.3
		c5.8-0.2,11.1,0.2,16.1,4.5c6.5,5.3,14.6,8,22.7,9.9c16.2,3.8,32.8,5,49.4,2.3c2.2-0.3,4.3-0.3,6.5-0.5c1.7,0,2.5-0.2,1.8-2.3
		c-0.8-2.2-1-4.5-1-6.6c0.3-5.6,4.5-9.4,10.3-9.1c1.8,0.2,3.6,0.3,5.5,0.7c0.5-1.2-0.5-1.7-0.8-2.3c-1.3-2-2.7-4-4-5.8
		c-4.5-6.3-6.1-13.1-4.8-20.9c2-11.4,4.3-22.7,8.5-33.5c7.1-18.4,19.9-29.8,39.6-33.8c20.5-4.1,38.6,0.2,54.5,13.4
		c7.8,6.5,15.6,13.1,21.5,21.5c0.7,1,1.8,1,2.7,1.5c5,2.8,10.4,3,15.9,3.5c13.4,1,26.7,2.5,40.1,1c3.6-0.3,7.1-1,10.8-1.5
		c3.3-0.5,6.8-0.5,10.1-0.3c6.3,0.3,7.6,1.5,6.8,7.8c-3.3,25.7-19.6,45.2-46.9,49.2c-5.8,0.8-11.4,1.2-17.1,0.2
		c-0.7,0.7-0.2,1.2,0.2,1.5c4.6,6.5,8,13.4,9.9,21c0.7,2.3,1.8,3,4,3c22.2,0.5,44.2,1,66.4,1.5c32.8,0.8,65.8,1.5,98.6,2.5
		c9.4,0.3,18.7,1.8,27.7,4.8c3.3,1.2,6.5,2.7,9.1,5c5.6,4.8,5,12.6-1.5,16.1c-6.3,3.5-13.3,4.1-20.2,4.8c-4.3,0.5-8.6,0.3-12.9,0.7
		c-9.3,1-18.2-1.8-27.2-2.7c-8.5-0.8-16.9-0.5-25.8,0.2c4.5,2.3,4.6,2.8,3,7.5c-1.7,4.5-4.1,8.6-6.6,12.4
		c-5.5,8.1-11.4,15.9-17.9,23.4c-0.8,1-1.8,1.7-3,2c-1.8,0.3-3.6,0.7-5.5,0.8C493.9,201.4,495.7,201.9,497.3,201.1z M471.5,141.4
		L471.5,141.4c0.7-0.3,1-0.8,0.7-1.5l0,0c5.1,0.5,9.3-1.7,12.8-5.3c1.2-1.2,2.3-2.2,3.6-2.8c2.8-1.3,5.3-1,7.8,1
		c2.5,2,3,4.5,1.8,7.5c-0.8,2.2-2,4.1-3.1,6c-1.7,2.5-3.5,5-5.1,7.6c2.2,1,4.1,1,6.1,0.7c9.9-1.5,19.9-2.5,29.8-2.8
		c11.8-0.5,23.5-0.3,35.3,2.3c8.9,2,18.6,0.5,27.7-0.3c6-0.5,12.1-1.3,17.6-4.1c5-2.5,5.5-8,1-11.4c-2.5-2-5.5-3.3-8.5-4.3
		c-8.8-3-17.9-4.1-27-4.5c-26.5-0.8-53.2-1.3-79.7-2c-27.8-0.7-55.7-1.3-83.3-2c-2.5,0-3.3,0.5-2.7,3.1c0.8,3.8,1,7.8,1,11.6
		c0,1-0.5,2.2,0.5,2.8v0.2c-1.3,2.7-0.7,5.6-1.2,8.5c-0.2,1.2,0.8,1.2,1.7,1.2c2.3,0.2,4.5,0.3,6.8,0.5c6.5,0.3,12.8,2.2,19.2,2
		c10.6-0.2,21-1.2,31.6-1.8c0.8,0,1.7,0.2,1.8-1.2c0.3-3.1,1.7-5.8,2.5-8.8l0,0c0.7-0.2,0.8-0.7,0.7-1.3l0,0
		C471.3,142.1,471.5,141.8,471.5,141.4z M386.6,189c-1.8,1.3-3.6,2.7-5.8,4C385.2,193.3,386.6,192.1,386.6,189
		c0.2-0.2,0.2-0.2,0.3-0.2c0-0.2,0-0.2,0-0.3C387,188.8,386.8,189,386.6,189z M353.5,212.3c-0.2-0.3-0.3-0.8-0.7-0.5
		c-0.5,0.3,0,0.7,0.2,1c0.3,1.2,1,2.2-0.7,3.3c-1.5,1.2-2,3.5-1,5.6c1.5,3,3.1,6,4.6,9.1c0.5,1.2,1.2,1.3,2.3,1
		c5-1.7,9.9-3.3,14.9-5c1.3-0.5,1.7-0.8,0.8-2c-1.3-2-2-4.3-2.7-6.6c-1.7-6-2.2-12.3-3.3-19.2c-3,7.6-5.6,14.4-8.5,21.4
		C357.2,217.5,355.8,214.7,353.5,212.3z M163.3,337.4c0.3,0.3,0.7,0.7,0.8,0.8c-2.5,3.5-5,6.8-7.5,10.3c-0.7,1-1.8,2.2-1,3.3
		c1,1.3,2.3,0.7,3.6,0.2c8.1-2.8,13.9-8.3,17.6-15.9c4.5-9.4,5.3-19.4,4.5-29.5c-0.2-1.3-0.5-1.7-1.8-1.8
		c-6.1-0.2-11.9-1.8-17.6-4.5c-2-0.8-2.8-0.5-4,1.2c-5.5,7.3-11.1,14.6-16.7,21.9c-1.5,2-3,3.8-4.6,6c-1-5.5,1.3-9.6,4.6-13.4
		c-2.5-1.2-4.8-0.2-6.8-0.5c-1.3-0.2-2,0.7-2.7,1.8c-3.3,6-1.7,16.6,3.3,21.2c1.5,1.5,2.7,1.5,4.1,0.2c3.3-2.7,5.8-6.1,8.5-9.4
		c2.2-2.8,4.1-5.5,6.8-8.9c0,1.3,0.2,1.7,0,2c-3.6,7.3-6.5,14.9-12.8,20.5c-1.7,1.5-1.8,3-0.8,4.8c1.2,2,2.8,2.7,5,2.2
		c3-0.7,5.5-2.2,7.8-4.1C157,342.8,160.1,340.1,163.3,337.4z M474.3,185.7c-0.2,0-0.5,0-0.7,0c0.2,0.2,0.2,0.2,0.3,0.3
		c2.5,10.1,10.9,15.1,21.2,12.6c1.5-0.3,3-0.7,4.1-2c7.3-8.6,14.4-17.6,20.2-27.3c1.7-2.8,3.1-5.8,4.1-8.9c0.7-1.8,0.2-2.5-1.7-3
		c-4.6-1.2-9.1-1.2-13.8-0.2c-5.8,1.2-11.8,2.5-17.7,1c-3.8-1-4.5-3.3-2.2-6.3c3.1-4,6.1-8.1,8.1-12.8c0.8-1.8,0.5-3.3-1-4.6
		c-2.7-2.5-5.3-2.3-8.6,1.2c-2.7,3-6,5.1-9.6,5.8c-4,0.7-5.1,3.1-6.1,6.3c-1,3-1.7,6.3-1.2,9.4c1.8,10.1,5.6,19.2,11.4,27.7
		c1,1.5,0.8,2.2-0.2,3.3c-1.2,1.7-2,0.5-3-0.2C477,187.2,475.6,186.3,474.3,185.7z M472,189.1c0.2,0.3,0.3,0.5,0.7,0.3
		c0.2-0.2,0-0.5,0-0.7c-0.2-0.5-0.3-1.2-0.7-1.7c-0.5-1.2-1.2-2.7-0.2-3.6c1.2-1.2,2.5,0,3.6,0.5c0.7,0.3,1.5,0.7,2.2,1
		c0.2,0.5,0.7,0.7,1,0.3c0.5-0.3,0-0.7-0.3-0.8c-4.5-8.6-8.8-17.2-10.4-26.8c-0.3-1.8-1.5-1.2-2.3-1.2c-5.3,0.2-10.8,0.7-16.1,0.8
		c-6.1,0.2-12.3,1.7-18.4,0.8c-7.6-1.2-15.1-1.7-22.7-2.3c-2.2-0.2-2.7,0.7-3.1,2.7c-1.5,6.3-2.8,12.6-7,17.9
		c-2.8,3.6-5.8,7-9.1,10.8c11.9,2.5,23.2,5.6,34.3,9.6c7.8,2.8,15.4,6,21.7,11.4c1.7,1.5,2.3,1,3.6-0.3c5.6-6,11.4-11.9,18.1-16.9
		C468.2,189.6,469.8,188.3,472,189.1z M174.7,175.7c-2.3-5.1-1.5-8.3,3.1-11.6c2.7-2,5.8-3.1,8.9-4c8.5-2.3,17.2-3.3,25.8-4.6
		c15.1-2.2,30.2-4.3,45.4-5.5c5.6-0.5,11.1,0.5,16.7,0.3c1.7,0,2.3-0.3,1.8-2.2c-0.5-1.8-0.8-3.6-1.3-5.5c-2.5,0.5-4.8,1.5-7.5,0.8
		c-5.5-1.3-9.6-4.3-12.8-8.6c-3.6-5-7.1-10.1-9.8-15.7c-0.8-1.7-1.8-2.2-3.6-2c-4,0-8,0.8-11.9,1.3c-17.6,1.7-34.8,0.3-51.7-5
		c-6.6-2-13.1-4.6-18.6-8.9c-2.8-2.3-5.8-3.3-9.3-3.5c-4.8-0.2-9.4,0.2-14.1,1.2c-2.5,0.5-4.6,0.5-6.8-1.5c-2.5-2.3-5.5-4-8-6.3
		c-3.6-3.5-7.6-5-12.8-3.6c-4.1,1.2-4.1,0.8-4.3,5.3c-0.8,20.5-1.8,40.9-2.7,61.5c0,1.8-0.3,3.3-2.3,3.8c-1.3,0.3-1.5,1.2-1.5,2.3
		c0.3,11.8-0.5,23.5,0.5,35.3c0.5,5.8,4,9.6,9.8,10.6c3.5,0.7,6.8,0.2,10.1,0c6.3-0.2,12.6-0.2,18.9-0.3c1.7,0.2,3.1,0.3,4.8,0.3
		c2.3,0.3,4.6,0.5,7,1.3c6.6,2.3,12.4,0.2,18.2-3c4-2.2,7-5.3,7.1-10.1c0.2-2.3,1.2-3.5,3.1-4.3c7.5-2,15.1-4,22.2-6.8
		c1.8-0.7,3.6-1.5,4.6-3.3c1-1.7,1-2.8-1.2-3.5c-2.3-0.8-4.6-1.3-7.1-1.8C188.8,176.7,181.7,176.6,174.7,175.7z M244.1,218.8
		c-2.5,1.7-5.6,2.8-5.6,6.6c0.7,27.8,1.3,55.7,8,83.2c4.6,19.2,7.3,39.1,9.4,58.8c0.8,7.3,0.7,14.3-3.3,20.9
		c-2.8,4.6-4.6,10.1-6.8,15.2c-3,7.3-6.3,14.6-7.6,22.5c-0.2,1.2,0,2.5-1.3,3c-1.3,0.5-2-0.7-2.8-1.5c-5.1-4.8-10.1-9.6-15.2-14.4
		c-11.8-10.8-23.7-21.2-36.5-30.5c-1.7-1.2-3.1-1.7-5.1-1.3c-6.1,1.2-10.1,4.8-12.8,10.1c-1,2-1.2,3.8-0.5,5.8
		c1.3,3.3,2.2,6.6,3.3,9.9c0.5,1.7,0.3,2.8-0.7,4.3c-2.2,3-4.1,6-6,8.9c-5.8,9.8-10.6,19.7-12.1,31.2c-1.2,9.4,1,17.7,8.5,24.4
		c1.8,1.5,2.7,1.3,3.8-0.7c3.8-6.8,6.8-13.8,9.6-21c2.3-6.3,6.6-10.8,12.1-14.4c7.6-5,15.1-4.1,21,2.7c3.6,4,7.5,7.8,11.4,11.3
		c6.3,5.3,12.6,10.6,20.5,13.3c2.3,0.8,4.8,1.7,7.3,0.7c6.3-2.3,12.6-5,17.6-9.4c13.1-11.9,27-23,41.3-33.5
		c12.1-8.9,24.4-17.6,38.4-23.4c8.9-3.6,18.6-4.8,27.7-7.6c20.5-6.1,40.9-12.4,60-22.4c7.8-4,15.9-7.1,24-10.8
		c1.8-0.8,3.3-0.7,3.8,1.5c3.1,11.8,5.5,23.7,4.6,36c-0.3,6-0.2,11.9,1,17.7c1.5,7.5,3,14.9,6.8,21.7c1,1.8,2.2,4,4.6,4.1
		c5.8,0.3,11.6,0.7,17.2-0.3c1.5-0.2,2.3-0.8,2.5-2.3c0.2-2.8,1.8-3.8,4.3-4.6c1.7-0.5,3.1-1.2,4.6-1.8
		c14.7-6.3,28.5-13.9,38.8-26.5c4-5,7.5-10.4,8.3-17.1c0.2-0.8,0.3-2-0.5-2.7c-1-0.7-2,0.2-2.8,0.8c-3.3,2.5-6.6,5.3-9.9,7.8
		c-7.6,5.6-15.4,10.8-24.7,12.9c-8,1.8-13.9-0.8-16.6-7.6c-1-2.7-1.7-5.5-1.7-8.5c0-10.3-0.5-20.5-2.2-30.8
		c-1.5-8.9-3.5-17.7-8.5-25.7c-5.3-8.3-11.9-10.6-21.2-7.5c-8.1,2.7-16.2,5.1-24.7,6.8c-4.8,1-9.4,2-14.4,1
		c-3.3-0.7-4.5-2.3-4.1-5.6c0.7-6.6,1.3-13.3,1.3-20c0-19.7-2.8-38.8-11.8-56.7c-3.5-7-7.5-13.8-10.4-21
		c-4.6-11.6-9.9-22.9-11.9-35.3c-0.3-1.7-1.2-1.3-2.2-1c-3.5,1.3-7,2.7-10.6,3c-1.3,0.2-1.5,0.8-1.3,1.8c1.3,8,2,15.9,5.6,23.4
		c1,2,0.7,3.1-1.3,3.8c-16.6,6.5-33.6,10.6-51.4,10.9c-2.5,0-3.8-1-5-3.3c-6.1-13.6-12.9-26.8-20.5-39.8
		c-6.5-11.1-13.3-22-22.4-31.3c-3.6-3.6-7.6-6-13.3-4.3c-3,0.8-6.3,1.2-9.3,2c-0.8,0.3-1.8,0.3-2.3,1.5c0.8,0.7,1.7,1.2,2.3,1.8
		c6.5,5.8,12.9,11.6,17.4,19.1c11.4,19.2,16.1,39.9,14.4,62.1c-0.3,3.6-0.7,7.1-2,10.6c-2.7,6.8-8.1,10.3-15.1,8.6
		c-12.6-3.1-21.7-10.8-26-23.2c-2.8-8.3-0.7-16.2,2.8-24c0.3-0.3,0.5-0.7,0.2-1C244.8,218.5,244.5,218.6,244.1,218.8z M384.3,96
		c2.2,1.3,2.8,2.7,0.8,4.1c-2.2,1.5-3.3-0.2-4.5-1.7c-0.3-0.5-0.7-1-0.8-1.7c-0.3-2-1.7-2.3-3.3-2.5c-9.6-0.8-19.4-1.5-29-1.5
		c-2.5,0-4.8-0.2-7.3-0.8c-3.6-0.8-7.5-1.5-11.3-2.2c-7.8-1.3-15.6-2-23.2-5c-9.6-3.8-19.6-4.3-28.8,1.8c-1.3,0.8-2.8,1.8-4.1,2.5
		c-5.3,2.8-8,6.6-5.6,12.8c0.2,0.3,0.2,0.7,0.2,1c0,0.8-0.2,1.7-0.8,2.2c-1,0.5-1.5-0.2-2.2-0.7c-2-2.2-4.3-4-7.1-4.5
		c-3.8-0.8-7.8-2.3-11.1,1c-3,3.3-1.8,7.1-0.7,10.8c3,8.6,7.8,16.1,13.4,23c2.5,3,6,5.1,10.1,5.6c3.3,0.3,5.5-1.5,7.5-3.6
		c0.5-0.5,1.2-1,1.8-0.3c0.7,0.5,1,1.3,0.7,2.2c-1.3,5.1,0.5,9.8,2.8,14.3c5.8,10.8,13.4,19.9,23.9,26.5
		c14.4,8.9,29.2,16.7,46.4,18.1c18.6,1.3,39.9-10.8,46.2-27.5c9.4-24.2,7.8-47.7-6.6-69.9C390,97.2,387.6,96.4,384.3,96z M178.2,301
		c5.3,0.2,5.5,0.2,6.5-3.3c4.5-14.1,10.9-27.2,14.9-41.4c3-10.9,11.8-18.2,20-25.4c4.3-3.6,9.4-6.6,13.8-10.4
		c4.6-4.1,10.1-6.1,15.9-7.8c1-0.3,1.8-0.2,2.5,0.8c0.5,0.8,0,1.7-0.5,2.2c-2.2,2.5-2.8,5.6-3.6,8.8c-0.7,2.3-0.5,4.6-1.3,7
		c-2.8,8.3,0.3,15.7,5.1,21.9c3.6,4.5,9.1,7.3,14.9,8.9c7,2,12.1-0.7,14.1-7.6c2.2-7.5,2.2-15.2,1.5-23c-1.2-11.3-4.8-22-8.3-32.8
		c-4.5-13.8-13.9-23.5-26-31c-1.5-0.8-2.5-0.8-4,0c-4.3,2.5-7.8,6.1-12.3,8.5c-9.9,5.3-17.4,13.1-24.2,21.5
		c-10.3,12.8-18.6,26.7-26.5,40.9c-8.6,15.6-16.2,31.6-23.4,47.9c-0.3,0.8-1.2,1.7-0.2,2.8C163.3,296.2,170.4,300.7,178.2,301z
		 M262,96.9c0.8-2.7,2-4.3,3.6-6c6.8-6.5,15.2-9.9,24-12.8c1.8-0.7,3.8,0,5.6-1c13.9-6.5,27.7-13.1,41.3-20.2
		c10.4-5.5,20.9-10.8,30.3-17.6c2-1.3,2.2-2.5,0.5-4.3c-6.3-7.8-13.9-14.3-21.7-20.5c-9.6-7.6-20.5-11.9-32.8-12.6
		c-10.8-0.7-20.9,2.2-30.7,6c-9.1,3.5-15.1,10.8-19.7,19.2c-7,12.6-10.3,26.3-12.1,40.6c-0.5,3.5-1.7,7-0.3,10.4
		C252.8,84.8,257.2,90.7,262,96.9z M458.7,254.3c3.5,0.5,7.5,0.2,10.9-2.7c2.5-2,5-4,7.1-6.5c9.6-10.6,17.2-22.5,24.4-34.8
		c0.7-1.3,1.2-2.7,1.3-4.1c0.2-1.8-0.3-2.8-2.3-2.3c-0.8,0.2-1.7,0.3-2.5,0.3c-10.4,0.7-19.9-1.5-26.5-10.6c-1.2-1.5-1.8-1-2.8-0.2
		c-7,5.5-13.1,11.9-19.2,18.4c-1.3,1.5-2.5,2-4.1,0.3c-3.3-3.6-7.5-6.1-11.9-8.1c-12.8-6.1-26.2-9.9-39.8-13.1
		c-3.6-0.8-4.1-0.7-4,3.1c0.5,8.1,1.5,16.1,5,23.7c2.5,5.3,5.5,10.4,8,15.7c2.3,5,5.5,8.5,11.3,8.9c1.2,0.2,2.2,0.8,3.1,1.2
		C429.7,249.8,443.5,253.4,458.7,254.3z M73.5,106.8c0.5,0,1,0,1.5,0c0-6.8,0-13.6,0-20.4c0-0.8,0.7-2.3-0.7-2.3
		c-4.5-0.3-9.4-2.3-13.4-0.5c-9.1,4-17.7,8.9-21.5,19.1c-7,18.2-9.8,37-5.8,56.3c2,9.6,5.6,18.2,13.9,24.4
		c13.8,10.1,29.5,10.4,45.6,8.5c1.7-0.2,1.5-1.3,1.5-2.5c0-6.6,0-13.4,0-20c0-5.1,0-5.1-5-5.6c-1.2-0.2-2.5-0.3-3.6-0.5
		c-6.8-1.2-13.8-2-19.7-5.6c-6.6-3.8-8.1-9.8-4-16.2c2.5-4,6-7.1,9.6-9.9c1.3-1,1.8-2,1.8-3.6C73.5,120.7,73.5,113.8,73.5,106.8z
		 M436.5,43.5c-4.8,0.8-9.1,1.5-13.6,1.5c-15.4,0.2-30.7-1.2-45.9-3c-2.5-0.3-4.5,0-6.6,1.3c-20,12.4-39.9,24.9-60.8,36
		c-0.7,0.3-1.8,0.5-2.2,1.5c5,1.2,9.9,2.3,14.7,3.5c11.4,2.8,22.9,6.5,34.8,5.3c1.2-0.2,2.3,0.2,3.3,0.3c7,0.3,13.9,1.7,20.9-0.3
		c11.1-3.3,20.9-8.1,28.2-17.7c7.3-9.6,14.9-18.9,25.4-25.5C435.2,45.6,435.7,44.7,436.5,43.5z M365.3,200.6
		c-10.4,0.5-20.4-0.8-30.2-3.3c-24.2-6.1-41.3-22.2-56.7-40.6c-0.3-0.5-0.7-1.2-1.2-1.5c-1.5-1.3-2.8-0.2-3.8,0.7
		c-1.3,1,0.3,1.5,0.7,2c8.3,9.4,16.2,18.9,22.7,29.8c7.1,11.8,16.9,21.9,27.5,31.6c1.8-6.8,7.8-10.1,11.4-15.6
		c3.3-4.8,6.1-5,10.8-1.5c4,3,7,7,10.1,10.8c0.7,1,1,2.3,2.5,2.7C361.3,211,363.1,206,365.3,200.6z M302.1,197.9
		c-0.2,0.2-0.5,0.3-0.7,0.5c0,0.2,0,0.3,0,0.5c6.6,11.9,13.1,24,19.7,36c0.7,1.2,1.5,1.7,2.7,1.5c3.3,0,6.6,0,9.9,0
		c-0.8-4,0.8-7.6,2.5-10.8c2.7-5,1.8-8.9-1.3-13.1c-1.5-2-2.3-1.7-3.6-0.3c-1.5,1.5-2.7,3.1-3.6,5c-1,1.8-1.8,3.6-2.8,5.5
		C316.7,214.7,309.1,206.5,302.1,197.9z M352.5,211.2c0-0.2,0-0.5-0.2-0.5s-0.3,0-0.5,0.2c-0.5,0.5,0.2,0.3,0.3,0.5
		C352.2,211.3,352.3,211.3,352.5,211.2z M153.8,348.5l0.2-0.2c-0.2,0-0.3-0.2-0.5-0.2l-0.2,0.2C153.7,348.4,153.8,348.5,153.8,348.5
		z"/>
	<path fill="#7E7E7E" d="M497.3,201.1c-1.8,0.7-3.6,0.2-5.5-0.2c1.8-0.3,3.6-0.7,5.5-0.8C497.5,200.4,497.5,200.7,497.3,201.1z"/>
	<path fill="#BEC4B7" d="M144.1,316.4c-0.3,0.3-0.5,0.8-0.8,1.2c-0.2-0.2-0.3-0.5-0.5-0.7c0.2-0.2,0.2-0.3,0.3-0.5
		C143.4,316.4,143.7,316.4,144.1,316.4z"/>
	<path fill="#C4C9BC" d="M244.8,219.6c-3.5,7.6-5.6,15.6-2.8,24c4.3,12.6,13.4,20,26,23.2c7.1,1.8,12.4-1.7,15.1-8.6
		c1.3-3.5,1.8-7,2-10.6c1.7-22.2-3-42.9-14.4-62.1c-4.5-7.5-10.9-13.4-17.4-19.1c-0.8-0.7-1.7-1.3-2.3-1.8c0.5-1.2,1.5-1.2,2.3-1.5
		c3-1,6.3-1.2,9.3-2c5.6-1.7,9.6,0.7,13.3,4.3c9.3,9.1,15.9,20.2,22.4,31.3c7.5,12.9,14.3,26.2,20.5,39.8c1,2.3,2.3,3.3,5,3.3
		c17.9-0.3,34.8-4.5,51.4-10.9c2-0.8,2.3-2,1.3-3.8c-3.6-7.3-4.3-15.4-5.6-23.4c-0.2-1,0-1.8,1.3-1.8c3.6-0.3,7.1-1.7,10.6-3
		c1-0.3,1.8-0.7,2.2,1c2,12.4,7.5,23.7,11.9,35.3c2.8,7.3,6.8,14.1,10.4,21c8.9,17.7,11.8,37,11.8,56.7c0,6.8-0.7,13.4-1.3,20
		c-0.3,3.3,0.8,5,4.1,5.6c4.8,1,9.6,0,14.4-1c8.5-1.7,16.6-4.1,24.7-6.8c9.3-3.1,15.9-0.8,21.2,7.5c5,7.8,7.1,16.6,8.5,25.7
		c1.7,10.1,2.3,20.5,2.2,30.8c0,3,0.5,5.8,1.7,8.5c2.7,6.6,8.6,9.4,16.6,7.6c9.3-2.2,17.1-7.5,24.7-12.9c3.3-2.5,6.6-5.3,9.9-7.8
		c0.8-0.5,1.7-1.5,2.8-0.8c0.8,0.5,0.5,1.7,0.5,2.7c-0.8,6.6-4.1,12.1-8.3,17.1c-10.3,12.6-24.2,20.4-38.8,26.5
		c-1.5,0.7-3,1.3-4.6,1.8c-2.3,0.7-4.1,1.8-4.3,4.6c-0.2,1.3-1,2-2.5,2.3c-5.8,1-11.4,0.7-17.2,0.3c-2.5-0.2-3.6-2.2-4.6-4.1
		c-3.8-6.8-5.5-14.3-6.8-21.7c-1.2-6-1.3-11.8-1-17.7c0.8-12.3-1.7-24.2-4.6-36c-0.5-2.2-2-2.3-3.8-1.5c-8,3.5-16.2,6.6-24,10.8
		c-19.1,9.9-39.4,16.2-60,22.4c-9.1,2.7-18.7,4-27.7,7.6c-14.1,5.8-26.3,14.4-38.4,23.4c-14.3,10.4-28.2,21.5-41.3,33.5
		c-5,4.6-11.3,7.1-17.6,9.4c-2.3,0.8-5,0.2-7.3-0.7c-8-2.8-14.4-8-20.5-13.3c-4-3.5-7.8-7.3-11.4-11.3c-6-6.6-13.6-7.5-21-2.7
		c-5.5,3.6-9.8,8.1-12.1,14.4c-2.7,7.3-5.8,14.3-9.6,21c-1.2,2.2-2.2,2.3-3.8,0.7c-7.5-6.5-9.6-14.9-8.5-24.4
		c1.3-11.4,6.3-21.5,12.1-31.2c1.8-3.1,3.8-6.1,6-8.9c1-1.5,1.2-2.7,0.7-4.3c-1.2-3.3-2.2-6.6-3.3-9.9c-0.8-2.2-0.7-3.8,0.5-5.8
		c2.8-5.3,6.8-8.9,12.8-10.1c2-0.3,3.5,0,5.1,1.3c12.9,9.3,24.9,19.7,36.5,30.5c5.1,4.8,10.3,9.6,15.2,14.4c0.8,0.7,1.5,2,2.8,1.5
		c1.3-0.5,1.2-1.8,1.3-3c1.3-8,4.5-15.1,7.6-22.5c2.2-5.1,4-10.4,6.8-15.2c4-6.6,4.1-13.6,3.3-20.9c-2.2-19.7-4.8-39.6-9.4-58.8
		c-6.6-27.5-7.3-55.3-8-83.2c-0.2-3.8,3.1-5,5.6-6.6C244.3,219,244.6,219.3,244.8,219.6z M317.1,344.4c2.2-2,4.5-3.5,7.1-4.5
		c2.7-1,5.1-2.2,7.8-3c23.7-7.3,48.1-11.4,72.4-15.4c2.7-0.5,4.6-1,4.5-4.3c-0.2-2.3,0.3-4.5,0.3-6.8c0-16.4-2-32.6-4-48.9
		c-0.5-3.8-2-4.6-5.3-5.1c-6.1-0.8-12.3-0.5-18.4,0.5c-16.1,2.5-31.3,7.8-46.4,13.6c-10.8,4.3-21.2,8.9-31.5,14.1
		c-0.7,0.3-2.5,0.3-1.5,2.2c4.3,8.3,6,17.2,8.1,26.2C312.4,323.2,314.7,333.6,317.1,344.4z"/>
	<path fill="#EDC6C7" d="M384.3,96c3.3,0.2,5.6,1.2,7.3,3.8c14.4,22.2,16.1,45.7,6.6,69.9c-6.5,16.7-27.7,28.8-46.2,27.5
		c-17.2-1.3-32.1-8.9-46.4-18.1c-10.6-6.6-18.2-15.7-23.9-26.5c-2.3-4.3-4.1-8.9-2.8-14.3c0.2-0.8,0-1.7-0.7-2.2
		c-0.8-0.7-1.3-0.2-1.8,0.3c-2,2.3-4.1,4.1-7.5,3.6c-4.1-0.5-7.6-2.5-10.1-5.6c-5.6-7-10.6-14.4-13.4-23c-1.2-3.6-2.5-7.6,0.7-10.8
		c3.1-3.5,7.3-1.8,11.1-1c2.8,0.7,5.1,2.3,7.1,4.5c0.5,0.7,1.2,1.3,2.2,0.7c0.8-0.5,1-1.3,0.8-2.2c0-0.3,0-0.7-0.2-1
		c-2.3-6.1,0.3-9.9,5.6-12.8c1.5-0.8,2.8-1.7,4.1-2.5c9.3-6.1,19.2-5.6,28.8-1.8c7.6,3,15.4,3.6,23.2,5c3.8,0.7,7.5,1.2,11.3,2.2
		c2.5,0.7,4.8,0.8,7.3,0.8c9.6,0,19.4,0.7,29,1.5c1.7,0.2,3,0.5,3.3,2.5c0.2,0.7,0.5,1.2,0.8,1.7c1.2,1.5,2.2,3.1,4.5,1.7
		C387.1,98.7,386.5,97.3,384.3,96z M377.4,99.2c1.5,3.1,2.8,5.6,3.8,8.3c1.2,2.7,2,5.3,2.8,8.1c1.7,5.8,1,11.4-1.5,16.9
		c-2.5,5.5-7.6,7-12.9,3.8c-2.7-1.5-4.6-3.8-6.3-6.3c-1.3-2.2-2.3-4.3-3.5-6.5c-0.3-0.5-0.3-1.3-1.2-1c-0.7,0.3-0.5,1-0.3,1.7
		c1.8,5.8,4.8,10.9,9.6,14.7c4.8,4.1,9.9,4.3,15.1,0.5c2.8-2,4.5-4.8,5.5-8C392.3,120,387.6,106.3,377.4,99.2z M341.6,152.9
		c5.5,8.3,18.4,10.6,29.3,5.1C360.5,158.7,350.9,157.3,341.6,152.9z M342.1,99.8c0-2-3-5.6-4.6-5.5c-1.7,0-4,4-3.8,6.1
		c0.2,1.7,3.5,5,5,5C340.3,105.3,342.2,102.2,342.1,99.8z M341.4,166.6c4.8,5.1,13.9,6.3,19.1,2.8
		C354,170.1,347.9,168.4,341.4,166.6z"/>
	<path fill="#7E7E7E" d="M136.9,209.2c-6.3,0.2-12.6,0.2-18.9,0.3c-3.3,0.2-6.8,0.7-10.1,0c-5.8-1-9.3-4.8-9.8-10.6
		c-1-11.8-0.2-23.5-0.5-35.3c0-1.2,0.2-2,1.5-2.3c2-0.5,2.3-2,2.3-3.8c0.8-20.5,1.8-40.9,2.7-61.5c0.2-4.5,0.2-4.1,4.3-5.3
		c5.1-1.3,9.1,0.2,12.8,3.6c2.5,2.3,5.5,4,8,6.3c2.2,2,4.3,2,6.8,1.5c4.6-1,9.4-1.3,14.1-1.2c3.5,0,6.3,1.2,9.3,3.5
		c5.3,4.5,11.9,7,18.6,8.9c16.9,5.3,34.1,6.6,51.7,5c4-0.3,8-1.2,11.9-1.3c1.8,0,2.8,0.3,3.6,2c2.7,5.6,6.1,10.8,9.8,15.7
		c3.1,4.3,7.3,7.3,12.8,8.6c2.7,0.7,5-0.3,7.5-0.8c0.5,2,0.8,3.8,1.3,5.5c0.5,1.8-0.2,2.2-1.8,2.2c-5.6,0.2-11.1-0.7-16.7-0.3
		c-15.2,1.2-30.3,3.1-45.4,5.5c-8.6,1.3-17.4,2.3-25.8,4.6c-3.1,0.8-6.3,2-8.9,4c-4.6,3.5-5.5,6.5-3.1,11.6c-0.5,0.5-0.7,1-0.3,1.7
		c2.3,5.1,3.1,10.6,2.7,16.2c-1.8,0.8-3,2-3.1,4.3c-0.2,4.8-3.3,8-7.1,10.1c-5.6,3.1-11.4,5.5-18.2,3c-2.2-0.8-4.6-0.8-7-1.3
		c2.3-1.3,5-0.8,7.5-1.7c2.3-0.7,3.3-1.5,3.1-4.1c-0.3-9.6-0.5-19.4-0.7-29c0-3.8-0.8-4.6-4.6-4.3c-6.3,0.5-9.4,4.6-11.4,9.9
		c-2.2,5.8-2.7,11.8-2.7,17.9C133.1,202.4,132.1,206.9,136.9,209.2z M154.2,194.1c0,4-0.2,7.8,0.7,11.8c0.3,1.3,0.7,2.2,2.3,2.5
		c7.1,1,13.3-3.3,15.1-10.3c2.5-10.3-1.5-18.2-8.5-25.4c-1.5-1.5-3.5-2.3-5.8-2.3c-1.7,0-2.3,0.5-2.5,2.3
		C154.7,179.9,154.2,187,154.2,194.1z M181.8,135c-2.8,1.2-5,2.3-7,3.8c-1,0.8-2.3,1.7-2,3.1c0.3,1.5,1.7,2,3,2.3
		c2.5,0.8,5,1.2,7.6,1.3c9.9,1,19.7,0.5,29.7,0c14.3-0.7,28.5-1.8,43.6-3.5c-3.3,0-5.8-0.2-8.3,0c-16.1,0.7-32.1,0.7-48.2-0.2
		c-5.3-0.3-10.8-0.7-15.7-2.5C182.5,138.9,180.7,137.9,181.8,135z M113.4,191.5c2.7-14.6,4-29.3,4.6-44.1c0.5-9.9,0.7-19.7-0.5-29.7
		c-0.7-5-1.3-10.1-3.6-15.6C113.9,132.5,114.1,162,113.4,191.5z M173.9,149c-7.6-8.9-7.5-13.1,0.3-21c-5.3,2-9.6,4-12.9,7.6
		c-2.3,2.5-2.3,4.8,0.2,7.3C164.8,146.2,169.1,147.6,173.9,149z M134,114.4c-0.3,14.3-0.3,28.7-0.7,43.1
		C138.3,143.1,136.4,128.8,134,114.4z"/>
	<path fill="#FCFCFC" d="M178.2,301c-7.6-0.3-14.9-4.8-20.9-11.8c-1-1.2-0.3-1.8,0.2-2.8c7-16.4,14.7-32.3,23.4-47.9
		c7.8-14.3,16.2-28.2,26.5-40.9c7-8.5,14.4-16.4,24.2-21.5c4.3-2.3,8-6,12.3-8.5c1.3-0.8,2.5-1,4,0c12.1,7.5,21.4,17.2,26,31
		c3.5,10.8,7.3,21.5,8.3,32.8c0.7,7.6,0.7,15.4-1.5,23c-2,6.8-7.1,9.6-14.1,7.6c-5.8-1.7-11.3-4.5-14.9-8.9c-5-6.1-8-13.6-5.1-21.9
		c0.8-2.3,0.7-4.6,1.3-7c0.8-3.1,1.5-6.1,3.6-8.8c0.5-0.7,1-1.3,0.5-2.2c-0.5-1-1.5-1.2-2.5-0.8c-5.8,1.7-11.3,3.6-15.9,7.8
		c-4.3,3.8-9.3,6.8-13.8,10.4c-8.5,7.1-17.1,14.4-20,25.4c-4,14.3-10.4,27.5-14.9,41.4C183.7,301.2,183.5,301.2,178.2,301z"/>
	<path fill="#BEC4B7" d="M262,96.9c-4.8-6.1-9.3-11.9-11.8-18.9c-1.3-3.3-0.2-7,0.3-10.4c1.8-14.3,5.1-28,12.1-40.6
		c4.6-8.5,10.4-15.7,19.7-19.2c9.8-3.8,19.9-6.6,30.7-6c12.3,0.8,23.2,5,32.8,12.6c7.8,6.3,15.2,12.8,21.7,20.5
		c1.5,1.8,1.3,3-0.5,4.3c-9.6,6.8-20,12.3-30.3,17.6c-13.6,7.1-27.3,13.8-41.3,20.2c-2,0.8-3.8,0.3-5.6,1c-8.8,2.8-17.2,6.3-24,12.8
		C264,92.4,262.9,94.2,262,96.9z"/>
	<path fill="#FDFDFD" d="M458.7,254.3c-15.2-0.8-29-4.5-42.1-10.8c-1-0.5-2-1.2-3.1-1.2c-5.8-0.5-8.9-4-11.3-8.9
		c-2.5-5.3-5.5-10.4-8-15.7c-3.5-7.5-4.5-15.6-5-23.7c-0.3-3.8,0.3-4,4-3.1c13.6,3.1,27.2,7,39.8,13.1c4.3,2.2,8.6,4.5,11.9,8.1
		c1.5,1.7,2.7,1.2,4.1-0.3c6.1-6.3,12.3-12.9,19.2-18.4c1-0.8,1.8-1.5,2.8,0.2c6.5,9.3,15.9,11.3,26.5,10.6c0.8,0,1.7-0.2,2.5-0.3
		c2.2-0.5,2.5,0.7,2.3,2.3c-0.2,1.5-0.5,2.8-1.3,4.1c-7.1,12.3-14.7,24.4-24.4,34.8c-2.2,2.3-4.6,4.5-7.1,6.5
		C466,254.4,462,254.8,458.7,254.3z"/>
	<path fill="#CACACA" d="M73.5,106.8c0,7,0,13.9,0,21c0,1.7-0.5,2.7-1.8,3.6c-3.6,2.8-7.1,6-9.6,9.9c-4.1,6.5-2.7,12.4,4,16.2
		c6.1,3.5,12.9,4.5,19.7,5.6c1.2,0.2,2.5,0.3,3.6,0.5c5,0.7,5,0.7,5,5.6c0,6.6,0,13.4,0,20c0,1.2,0.2,2.2-1.5,2.5
		c-16.1,2.2-31.6,1.8-45.6-8.5c-8.1-6.1-11.9-14.7-13.9-24.4c-4-19.4-1-38.1,5.8-56.3C43,92.7,51.6,87.7,60.7,83.8
		c4-1.8,8.9,0.3,13.4,0.5c1.3,0,0.7,1.5,0.7,2.3c0,6.8,0,13.6,0,20.4C74.5,106.8,74,106.8,73.5,106.8z"/>
	<path fill="#BEC4B7" d="M436.5,43.5c-0.8,1.2-1.2,2.3-2,2.8c-10.4,6.6-18.1,16.1-25.4,25.5c-7.3,9.6-16.9,14.6-28.2,17.7
		c-7,2-13.9,0.5-20.9,0.3c-1.2,0-2.3-0.3-3.3-0.3c-12.1,1.2-23.4-2.5-34.8-5.3c-5-1.2-9.8-2.3-14.7-3.5c0.3-1,1.3-1.2,2.2-1.5
		c20.9-10.9,40.8-23.5,60.8-36c2.2-1.3,4.3-1.7,6.6-1.3c15.2,1.8,30.5,3.1,45.9,3C427.2,44.8,431.6,44.2,436.5,43.5z"/>
	<path fill="#7D7D7D" d="M407.7,142.7c-1-0.8-0.7-1.8-0.5-2.8c0-4-0.2-7.8-1-11.6c-0.7-2.7,0.2-3.1,2.7-3.1
		c27.8,0.7,55.7,1.3,83.3,2c26.5,0.7,53.2,1.2,79.7,2c9.1,0.3,18.2,1.5,27,4.5c3,1,6,2.3,8.5,4.3c4.5,3.5,4,8.9-1,11.4
		c-5.5,2.8-11.6,3.6-17.6,4.1c-9.3,0.8-18.7,2.3-27.7,0.3c-11.8-2.7-23.5-2.7-35.3-2.3c-9.9,0.3-19.9,1.3-29.8,2.8
		c-2.2,0.3-4.1,0.3-6.1-0.7c1.7-2.5,3.5-5,5.1-7.6c1.3-1.8,2.3-3.8,3.1-6c1.2-3,0.7-5.3-1.8-7.5c-2.5-2-5-2.3-7.8-1
		c-1.3,0.7-2.7,1.7-3.6,2.8c-3.5,3.6-7.6,5.8-12.8,5.3c-6-0.7-12.1-0.3-18.1-0.3c-13.3,0-26.5-0.2-39.6,1.3
		C412,141.1,409.5,140.8,407.7,142.7z M513.1,144.1c-4-0.5-7.8-0.3-11.8,0.2c4-0.2,7.8,1.3,11.6,0.8c1.5,0,3.1,0.2,4.6,0.2
		c19.9,1.5,39.9,2.3,59.8,1.7c4-0.2,8-0.5,11.9-1.8c0.8-0.3,2.2-0.3,1.8-2c-1.2-4.1-8.1-7.1-12.3-5.3c2,2.2,2,2.7-0.8,3.6
		c-1.5,0.5-3,0.8-4.5,1C553.3,144.9,533.3,144.7,513.1,144.1z"/>
	<path fill="#FCFCFC" d="M477.5,184.8c-0.7-0.3-1.5-0.7-2.2-1c-1.2-0.5-2.5-1.7-3.6-0.5c-1,1-0.3,2.5,0.2,3.6
		c0.2,0.5,0.3,1.2,0.7,1.7c-0.2,0.2-0.3,0.3-0.5,0.5c-2.2-0.8-3.8,0.3-5.3,1.7c-6.6,5-12.3,10.9-18.1,16.9c-1.3,1.3-2,1.7-3.6,0.3
		c-6.3-5.5-13.9-8.6-21.7-11.4c-10.9-4.1-22.4-7.1-34.3-9.6c3.3-3.6,6.3-7.1,9.1-10.8c4.1-5.3,5.5-11.8,7-17.9c0.5-2,1-2.8,3.1-2.7
		c7.6,0.7,15.2,1.2,22.7,2.3c6.1,1,12.3-0.5,18.4-0.8c5.3-0.2,10.8-0.7,16.1-0.8c0.8,0,2-0.7,2.3,1.2c1.5,9.6,6,18.4,10.4,26.8
		C477.9,184.5,477.8,184.7,477.5,184.8z"/>
	<path fill="#EAC4C4" d="M474.3,185.7c1.3,0.8,2.7,1.5,4,2.3c1,0.7,1.8,1.8,3,0.2c0.8-1.2,1.2-1.8,0.2-3.3
		c-5.8-8.5-9.6-17.7-11.4-27.7c-0.7-3.1,0-6.3,1.2-9.4c1-3,2.3-5.6,6.1-6.3c3.6-0.7,7-2.8,9.6-5.8c3.1-3.5,6-3.6,8.6-1.2
		c1.5,1.3,1.8,2.8,1,4.6c-2,4.6-5,8.8-8.1,12.8c-2.3,3-1.7,5.3,2.2,6.3c6,1.5,11.9,0.2,17.7-1c4.6-1,9.1-1,13.8,0.2
		c1.8,0.5,2.3,1.2,1.7,3c-1,3.1-2.5,6.1-4.1,8.9c-5.8,9.8-12.9,18.6-20.2,27.3c-1.2,1.3-2.7,1.7-4.1,2c-10.3,2.3-18.7-2.7-21.2-12.6
		C474,185.8,474.1,185.8,474.3,185.7z"/>
	<path fill="#EAC4C4" d="M163.3,337.4c-3.1,2.7-6.1,5.5-9.3,8.1c-2.3,2-4.8,3.5-7.8,4.1c-2.2,0.5-3.8-0.2-5-2.2
		c-1.2-1.8-0.8-3.3,0.8-4.8c6.3-5.6,9.1-13.3,12.8-20.5c0.2-0.3,0-0.7,0-2c-2.5,3.5-4.6,6.1-6.8,8.9c-2.5,3.3-5,6.8-8.5,9.4
		c-1.5,1.2-2.7,1.3-4.1-0.2c-5-4.6-6.6-15.2-3.3-21.2c0.5-1,1.3-2,2.7-1.8c2.2,0.3,4.3-0.7,6.8,0.5c-3.5,3.8-5.6,8-4.6,13.4
		c1.7-2,3.1-4,4.6-6c5.6-7.3,11.3-14.6,16.7-21.9c1.2-1.5,2-2,4-1.2c5.5,2.5,11.4,4.1,17.6,4.5c1.3,0,1.7,0.5,1.8,1.8
		c0.8,10.3,0,20.2-4.5,29.5c-3.6,7.8-9.6,13.1-17.6,15.9c-1.3,0.5-2.8,1.2-3.6-0.2c-0.8-1.2,0.3-2.3,1-3.3c2.5-3.5,5-6.8,7.5-10.3
		c1-0.8,1.8-2,2.5-3.1c0.2-0.2,0.2-0.3,0.3-0.7c-0.2,0-0.5,0.2-0.7,0.2C165.1,335.5,163.9,336.3,163.3,337.4z"/>
	<path fill="#F9F9F8" d="M365.3,200.6c-2.2,5.3-4,10.3-6,15.2c-1.5-0.3-1.8-1.7-2.5-2.7c-3-4-6-7.8-10.1-10.8
		c-4.8-3.5-7.6-3.5-10.8,1.5c-3.6,5.3-9.4,8.8-11.4,15.6c-10.6-9.8-20.4-19.9-27.5-31.6c-6.6-10.9-14.4-20.4-22.7-29.8
		c-0.5-0.5-2.2-1.2-0.7-2c1-0.7,2.3-1.8,3.8-0.7c0.5,0.3,0.7,1,1.2,1.5c15.4,18.4,32.5,34.5,56.7,40.6
		C344.9,199.8,354.7,201.1,365.3,200.6z"/>
	<path fill="#CACACA" d="M136.9,209.2c-4.8-2.3-3.8-6.8-4-10.9c-0.2-6.1,0.5-12.1,2.7-17.9c2-5.3,5.1-9.4,11.4-9.9
		c3.8-0.3,4.6,0.5,4.6,4.3c0.2,9.6,0.3,19.4,0.7,29c0.2,2.7-0.8,3.5-3.1,4.1c-2.5,0.7-5.1,0.2-7.5,1.7
		C140.1,209.5,138.4,209.4,136.9,209.2z"/>
	<path fill="#7D7D7D" d="M470.3,143.2c-0.7,3-2.2,5.8-2.5,8.8c-0.2,1.2-1,1-1.8,1.2c-10.6,0.7-21,1.7-31.6,1.8
		c-6.5,0-12.8-1.8-19.2-2c-2.3-0.2-4.5-0.3-6.8-0.5c-0.8,0-2,0-1.7-1.2c0.5-2.8,0-5.6,1.2-8.5c1,1.3,2.5,0.8,3.6,0.8
		c18.1,0,36,0,54,0C467.2,143.9,468.7,143.7,470.3,143.2z"/>
	<path fill="#F9F9F8" d="M302.1,197.9c7,8.8,14.6,16.9,22.7,24.9c1-1.8,1.8-3.6,2.8-5.5c1-1.8,2.2-3.5,3.6-5
		c1.3-1.3,2.2-1.7,3.6,0.3c3.1,4.3,4.1,8.1,1.3,13.1c-1.7,3.1-3.3,6.8-2.5,10.8c-3.3,0-6.6,0-9.9,0c-1.3,0-2.2-0.3-2.7-1.5
		c-6.5-11.9-13.1-24-19.7-36c0-0.2,0-0.3,0-0.5C301.6,198.3,301.8,198.1,302.1,197.9z"/>
	<path fill="#F9F9F8" d="M353.5,212.3c2.3,2.3,3.6,5.1,6,8.1c2.8-7,5.5-13.8,8.5-21.4c1,7,1.7,13.3,3.3,19.2
		c0.7,2.3,1.2,4.6,2.7,6.6c0.8,1.2,0.7,1.7-0.8,2c-5,1.7-9.9,3.3-14.9,5c-1.2,0.5-1.8,0.2-2.3-1c-1.5-3-3-6.1-4.6-9.1
		c-1.2-2.2-0.7-4.5,1-5.6s1-2.2,0.7-3.3C353,212.7,353.3,212.5,353.5,212.3z"/>
	<path fill="#C4C4C4" d="M177,193.5c0.3-5.6-0.5-11.1-2.7-16.2c-0.3-0.7,0-1.2,0.3-1.7c7,0.8,14.1,1,21,2.3c2.5,0.5,4.8,1,7.1,1.8
		c2,0.7,2.2,1.8,1.2,3.5c-1.2,1.8-2.8,2.7-4.6,3.3C191.9,189.5,184.5,191.5,177,193.5z"/>
	<path fill="#040404" d="M470.3,143.2c-1.5,0.5-3.1,0.7-4.8,0.7c-18.1,0-36,0-54,0c-1.3,0-2.7,0.3-3.6-0.8v-0.2c1.8-2,4.3-1.7,6.5-2
		c13.3-1.3,26.5-1.3,39.6-1.3c6,0,12.1-0.3,18.1,0.3l0,0c-0.5,0.5-1,0.8-0.7,1.7l0,0c-0.5-0.2-0.7,0.2-0.7,0.7l0,0
		C470.2,142.3,469.8,142.6,470.3,143.2L470.3,143.2z"/>
	<path fill="#E4E4E4" d="M386.6,189c-0.2,3.1-1.7,4.3-5.8,4.1C383,191.6,384.8,190.3,386.6,189L386.6,189z"/>
	<path fill="#3F3F3D" d="M166.6,335.1c-0.5,1.2-1.3,2.3-2.5,3.1c-0.3-0.3-0.7-0.7-0.8-0.8c0.8-1.2,1.8-2,3-2.7
		C166.3,334.8,166.4,335,166.6,335.1z"/>
	<path fill="#BEC4B7" d="M143.4,317.6c-0.7,0.8-1.2,1.7-1.8,2.5c-0.2-0.2-0.3-0.3-0.5-0.7c0.5-1,1-1.8,1.8-2.5
		C143.1,317.2,143.2,317.4,143.4,317.6z"/>
	<path fill="#F9F9F8" d="M352.5,211.2c-0.2,0-0.3,0.2-0.3,0.2c-0.2-0.2-0.7,0-0.3-0.5c0.2-0.2,0.3-0.2,0.5-0.2
		C352.5,210.9,352.5,211,352.5,211.2z"/>
	<path fill="#FCFCFC" d="M478.3,184.3c0.2,0.2,0.8,0.5,0.3,0.8c-0.3,0.2-0.8,0.2-1-0.3C477.8,184.7,477.9,184.5,478.3,184.3z"/>
	<path fill="#7D7D7D" d="M470.2,143.2c-0.3-0.7,0-1.2,0.7-1.3C471,142.6,471,143.1,470.2,143.2z"/>
	<path fill="#BEC4B7" d="M140.1,321.7c-0.2,0.3-0.5,0.5-0.7,0.8c-0.3-0.5-0.2-0.8,0.3-1.2C139.9,321.4,140.1,321.5,140.1,321.7z"/>
	<path fill="#7D7D7D" d="M471.5,141.4c-0.3-0.7,0.2-1.2,0.7-1.7C472.5,140.6,472.1,141.1,471.5,141.4z"/>
	<path fill="#BEC4B7" d="M141.4,320c-0.3,0.3-0.5,0.7-0.8,1c-0.2-0.2-0.3-0.3-0.5-0.5c0.3-0.3,0.5-0.7,0.8-1.2
		C141.1,319.7,141.2,319.9,141.4,320z"/>
	<path fill="#FCFCFC" d="M472.5,188.6c0,0.3,0.2,0.7,0,0.7c-0.3,0.2-0.5,0-0.7-0.3C472.1,189,472.3,188.8,472.5,188.6z"/>
	<path fill="#F9F9F8" d="M352.8,212.8c-0.2-0.3-0.5-0.7-0.2-1c0.5-0.3,0.5,0.2,0.7,0.5C353.3,212.5,353,212.7,352.8,212.8z"/>
	<path fill="#C4C9BC" d="M244.1,218.8c0.3,0,0.7-0.2,0.8-0.2c0.3,0.3,0,0.7-0.2,1C244.6,219.3,244.3,219,244.1,218.8z"/>
	<path fill="#E4E4E4" d="M386.6,189c0.2-0.2,0.2-0.2,0.3-0.3c0,0.2,0,0.2,0,0.3C387,189,386.8,189,386.6,189L386.6,189z"/>
	<path fill="#EAC4C4" d="M474,186c-0.2-0.2-0.2-0.2-0.3-0.3c0.2,0,0.5,0,0.7,0C474.1,185.8,474,185.8,474,186z"/>
	<path fill="#7D7D7D" d="M470.8,142.1c0-0.5,0.2-0.8,0.7-0.7C471.5,141.8,471.3,142.1,470.8,142.1z"/>
	<path fill="#BEC4B7" d="M140.6,320.9c-0.2,0.2-0.3,0.5-0.5,0.7c-0.2-0.2-0.2-0.2-0.3-0.3c0.2-0.3,0.3-0.5,0.3-0.8
		C140.4,320.7,140.6,320.9,140.6,320.9z"/>
	<path fill="#FEFEFE" d="M139.6,340.8c0.8-0.2,1,0,0.7,0.8C140.1,341.3,139.9,340.9,139.6,340.8z"/>
	<path fill="#FEFEFE" d="M153.8,348.5c-0.2,0-0.3-0.2-0.3-0.2l0.2-0.2c0.2,0,0.3,0.2,0.5,0.2C154,348.4,154,348.4,153.8,348.5z"/>
	<path fill="#3F3F3D" d="M317.1,344.4c-2.3-10.8-4.6-21.2-7.1-31.5c-2.2-8.9-3.8-17.9-8.1-26.2c-1-2,0.8-1.8,1.5-2.2
		c10.3-5.1,20.9-9.9,31.5-14.1c15.1-6,30.3-11.3,46.4-13.6c6.1-1,12.3-1.3,18.4-0.5c3.3,0.5,4.8,1.3,5.3,5.1c2,16.2,4.1,32.5,4,48.9
		c0,2.3-0.3,4.5-0.3,6.8c0.2,3.3-1.7,3.8-4.5,4.3c-24.4,4-48.7,8.1-72.4,15.4c-2.7,0.8-5.1,1.8-7.8,3
		C321.5,340.8,319.2,342.3,317.1,344.4z M357.2,284.9c-0.2-0.2-0.3-0.3-0.5-0.5c0.2-0.7,0.3-1.2,0.5-1.8c0.3-1.7,0.2-3.1-1.5-4
		c-1.5-0.7-2.8,0.3-3.8,1.3c-1.5,1.5-2.2,3.5-2.3,5.5c-0.2,3.1,0.8,5.1,3,5.1c2,0.2,5.8-3.3,5.8-5.3
		C358.3,284.9,357.5,285.1,357.2,284.9z M363.9,312.3c-0.2-0.2-0.3-0.3-0.5-0.5c0.2-0.7,0.3-1.2,0.5-1.8c0.3-1.7,0.2-3.1-1.5-4
		c-1.5-0.7-2.8,0.3-3.8,1.3c-1.7,1.8-2.3,4.1-2.3,6.5c0,1.5,0.2,3.1,2,3.8c1.7,0.8,3,0,4.1-1.2c1.2-1.2,2.2-2.5,3.3-3.8
		c1.3,1.8,3,2.7,5,1.7c2-1,3.1-2.7,3.1-5c0-0.5,0.2-1.5-0.7-1.5s-0.7,1-1,1.3c-0.3-0.3-0.7-0.5-1-0.8c1.3-2.5,2.2-5.1,1.2-8
		c-0.3-1.2-1-2.3-2.3-2.5c-1.5-0.2-2.2,1-2.7,2.2c-1.7,3.3-2.5,7-1.8,10.8C365.8,312.8,364.9,312.3,363.9,312.3z M336.3,286.9
		c2.5,1.8,4,4.1,6.1,5.8c1.5,1.2,2.7,0.8,2.8-1.2c0.3-4.3,0.3-8.6,0.5-12.9c0-0.7,0-1.7-0.8-1.8c-1-0.2-1.5,0.7-1.8,1.3
		c-0.7,1.3-0.7,2.8-0.5,4.3c0.2,1,0.3,2.2-0.5,3.5c-1.5-2.2-2.8-4-4.3-5.6c-0.8-1-1.8-1.2-3-0.5c-0.8,0.5-2.2,0.8-1.8,1.8
		c1.5,4.5-0.2,8.9-0.2,13.3c0,0.7-0.5,1.3,0.2,1.7c0.8,0.5,1.3-0.2,1.8-0.7c1.2-1,1.3-2.5,1.3-4
		C336.3,290.2,336.3,288.6,336.3,286.9z M343.1,314.7c2.5,1.8,4,4,6.1,5.6c1.3,1.2,2.7,1,2.8-1c0.3-4.5,0.3-8.8,0.5-13.3
		c0-0.7-0.2-1.3-0.8-1.5c-0.8-0.2-1.3,0.3-1.8,1c-0.8,1.3-0.8,2.8-0.7,4.1c0,1.2,0.5,2.3-0.3,3.6c-2-1.5-2.8-3.6-4.3-5.3
		c-1-1.2-2.2-1.2-3.3-0.3c-0.7,0.5-2,0.7-1.7,1.8c1.3,4.3-0.2,8.8-0.2,13.1c0,0.7-0.7,1.5,0.3,1.8c0.8,0.3,1.3-0.3,1.8-0.8
		c1-1,1.2-2.3,1.2-3.8C343.1,318.2,343.1,316.4,343.1,314.7z M367.1,283.4c1,1.5,1.7,3,3.5,1.8c1.8-1,1.2-2.3,0.5-3.6
		c-0.8-1.5-1.2-3-1.8-4.5c-1.3-3-3.3-2.5-5.3-1.3c-3.1,1.8-4.5,5-4.5,8.6c0,1.5,0.5,2.8,2.2,3.5c1.7,0.5,3-0.3,3.8-1.7
		C365.9,285.4,366.4,284.6,367.1,283.4z M380.8,306.1c-0.2-0.2-0.5-0.2-0.7-0.3c0-0.8,0.2-1.7,0.2-2.3c0-1.3,0-2.7-1.7-2.8
		c-1.7-0.2-2.3,1.2-2.5,2.5c-0.2,2.3-0.3,4.5,0.2,6.8c0.2,1,0.3,2.2,1.7,2.3c1.2,0.2,1.8-0.8,2.5-1.7c0.7-1,1.5-1.8,2.2-2.8
		c0.3,0.3,0.5,0.5,0.7,0.8c1,1.7,2.2,1.7,3.6,0.8c1.7-0.8,0.5-2,0.2-2.8c-0.3-1.3-0.8-2.8-1.2-4.1c-0.2-0.7-0.3-1.5-1.2-1.7
		c-1-0.3-1.5,0.7-1.8,1.3C382.3,303.3,381.7,304.6,380.8,306.1z M371.1,273c1.5-1.3,2.2-2.8,0.8-4.3c-0.5-0.7-1.3-0.8-2.2-0.2
		C367.4,270.8,371.9,271,371.1,273z"/>
	<path fill="#0A0A0A" d="M377.4,99.2c10.3,7.1,15.1,20.9,11.3,32.1c-1,3.1-2.8,6-5.5,8c-5.3,3.6-10.3,3.5-15.1-0.5
		c-4.8-4-7.8-8.9-9.6-14.7c-0.2-0.7-0.3-1.3,0.3-1.7c0.8-0.3,1,0.5,1.2,1c1.2,2.2,2.2,4.5,3.5,6.5c1.7,2.5,3.6,4.8,6.3,6.3
		c5.1,3.1,10.3,1.7,12.9-3.8c2.5-5.3,3.1-11.1,1.5-16.9c-0.8-2.8-1.8-5.5-2.8-8.1C380,104.8,378.7,102.2,377.4,99.2z"/>
	<path fill="#0A0A0A" d="M341.6,152.9c9.3,4.5,18.9,5.8,29.3,5.1C360,163.5,346.9,161.3,341.6,152.9z"/>
	<path fill="#0A0A0A" d="M342.1,99.8c0,2.3-2,5.6-3.5,5.6s-4.8-3.5-5-5c-0.2-2.2,2.3-6,3.8-6.1C339.1,94.2,342.1,97.7,342.1,99.8z"
		/>
	<path fill="#0A0A0A" d="M341.4,166.6c6.3,1.8,12.6,3.5,19.1,2.8C355.3,172.9,346.2,171.7,341.4,166.6z"/>
	<path fill="#CACACA" d="M154.2,194.1c0-7.1,0.5-14.4,1.2-21.5c0.2-1.8,0.8-2.3,2.5-2.3c2.3,0,4.3,0.8,5.8,2.3
		c7,7,10.9,15.1,8.5,25.4c-1.7,7-7.8,11.3-15.1,10.3c-1.7-0.2-2-1.2-2.3-2.5C153.8,201.9,154.2,198.1,154.2,194.1z"/>
	<path fill="#040404" d="M181.8,135c-1.2,3,0.7,4,2.5,4.6c5.1,1.8,10.4,2.2,15.7,2.5c16.1,1,32.1,1,48.2,0.2c2.5-0.2,5,0,8.3,0
		c-15.1,1.7-29.3,2.8-43.6,3.5c-9.9,0.5-19.7,1-29.7,0c-2.7-0.2-5.1-0.5-7.6-1.3c-1.3-0.3-2.7-0.8-3-2.3c-0.3-1.5,1-2.3,2-3.1
		C176.9,137.3,179,136,181.8,135z"/>
	<path fill="#CACACA" d="M113.4,191.5c0.7-29.5,0.3-59,0.5-89.3c2.5,5.6,3.1,10.6,3.6,15.6c1.2,9.8,1,19.7,0.5,29.7
		C117.4,162.1,116.1,176.9,113.4,191.5z"/>
	<path fill="#CACACA" d="M173.9,149c-4.8-1.5-8.9-2.8-12.3-6.1c-2.5-2.3-2.5-4.8-0.2-7.3c3.3-3.6,7.6-5.6,12.9-7.6
		C166.4,136,166.3,140.1,173.9,149z"/>
	<path fill="#C4C4C4" d="M134,114.4c2.5,14.4,4.3,28.8-0.7,43.1C133.8,143.1,133.8,128.7,134,114.4z"/>
	<path fill="#040404" d="M513.1,144.1c20.2,0.5,40.3,0.7,60.5-1.5c1.5-0.2,3-0.7,4.5-1c2.8-1,2.8-1.5,0.8-3.6
		c4.1-1.8,11.1,1.2,12.3,5.3c0.5,1.7-1,1.7-1.8,2c-3.8,1.3-7.8,1.7-11.9,1.8c-20,0.7-39.9,0-59.8-1.7c-1.5-0.2-3.1-0.2-4.6-0.2
		C513.1,144.7,513.1,144.4,513.1,144.1z"/>
	<path fill="#3F3F3D" d="M513.1,144.1c0,0.3,0,0.7-0.2,1c-4,0.5-7.8-1-11.6-0.8C505.3,143.9,509.1,143.6,513.1,144.1z"/>
	<path fill="#3F3F3D" d="M166.3,334.8c0.2,0,0.5-0.2,0.7-0.2c-0.2,0.2-0.2,0.3-0.3,0.7C166.4,335,166.3,334.8,166.3,334.8z"/>
	<path fill="#E4E4E4" d="M372.2,309.4c0.3-0.5,0.3-1.5,1-1.3c0.8,0,0.7,1,0.7,1.5c0,2.3-1.2,4-3.1,5c-2,1-3.8,0.2-5-1.7
		c-1.2,1.5-2.2,2.8-3.3,3.8c-1.2,1.2-2.5,1.8-4.1,1.2c-1.7-0.8-2-2.3-2-3.8c0-2.5,0.5-4.6,2.3-6.5c1-1,2.3-2,3.8-1.3
		c1.7,0.7,1.8,2.3,1.5,4c-0.2,0.7-0.3,1.2-0.5,1.8c-0.2,0.3-0.8,0.5-0.5,0.8s0.8,0,1-0.3c1,0.2,1.8,0.5,1.7-1.3
		c-0.7-3.8,0.3-7.3,1.8-10.8c0.5-1.2,1.3-2.3,2.7-2.2c1.3,0.2,2,1.3,2.3,2.5c1,2.8,0.2,5.5-1.2,8c-0.5,0.2-1,0.3-1.5,0.5
		c0.2-2.7,0.7-5.3-0.7-7.8c0,2.7-1.5,5.1,0.3,7.6c-0.5,0.8-0.2,2,0.5,2.2C371.4,311.4,371.7,310.3,372.2,309.4z M360.5,313.9
		c0.8-2.2,1.2-4,0-6C359.8,309.9,359.5,311.6,360.5,313.9z"/>
	<path fill="#E4E4E4" d="M336.3,286.9c0,1.7,0,3.5,0,5.1c0,1.5-0.2,3-1.3,4c-0.5,0.5-1.2,1.2-1.8,0.7c-0.7-0.3-0.2-1-0.2-1.7
		c0-4.5,1.7-8.8,0.2-13.3c-0.3-1,1-1.3,1.8-1.8c1.2-0.7,2.2-0.7,3,0.5c1.3,1.8,2.7,3.6,4.3,5.6c0.8-1.3,0.5-2.5,0.5-3.5
		c-0.2-1.5-0.2-3,0.5-4.3c0.3-0.8,1-1.5,1.8-1.3c0.8,0.2,0.8,1,0.8,1.8c-0.2,4.3-0.2,8.6-0.5,12.9c-0.2,1.8-1.3,2.3-2.8,1.2
		C340.3,290.9,338.8,288.7,336.3,286.9z"/>
	<path fill="#E4E4E4" d="M343.1,314.7c0,1.7,0,3.5,0,5.1c0,1.3-0.2,2.7-1.2,3.8c-0.5,0.5-1.2,1.2-1.8,0.8c-1-0.3-0.3-1.2-0.3-1.8
		c0.2-4.3,1.5-8.6,0.2-13.1c-0.3-1.3,0.8-1.5,1.7-1.8c1.2-0.8,2.3-0.7,3.3,0.3c1.5,1.7,2.3,3.8,4.3,5.3c0.7-1.3,0.3-2.5,0.3-3.6
		c0-1.5-0.2-3,0.7-4.1c0.3-0.7,1-1.2,1.8-1c0.7,0.2,0.8,1,0.8,1.5c-0.2,4.5-0.2,8.8-0.5,13.3c-0.2,2-1.5,2-2.8,1
		C347,318.7,345.4,316.6,343.1,314.7z"/>
	<path fill="#E4E4E4" d="M367.1,283.4c-0.7,1.2-1.2,1.8-1.7,2.7c-0.8,1.5-2.2,2.3-3.8,1.7c-1.7-0.5-2.2-1.8-2.2-3.5
		c0-3.6,1.3-6.6,4.5-8.6c2-1.2,3.8-1.7,5.3,1.3c0.7,1.5,1.2,3,1.8,4.5c0.7,1.3,1.3,2.7-0.5,3.6C368.6,286.4,368.1,284.9,367.1,283.4
		z M364.6,277.6c-1.2,1.3-1.5,2.8-1.5,4.3c0,0.7,0.2,1.5,1,1.7c0.8,0.2,1.2-0.7,1.5-1.3C366.6,280.6,364.9,279.3,364.6,277.6z"/>
	<path fill="#E4E4E4" d="M380.8,306.1c0.8-1.3,1.5-2.8,2.3-4.1c0.3-0.7,0.8-1.5,1.8-1.3c0.7,0.2,1,1,1.2,1.7
		c0.3,1.3,0.8,2.8,1.2,4.1c0.3,1,1.3,2-0.2,2.8c-1.5,0.8-2.8,0.7-3.6-0.8c-0.2-0.3-0.3-0.5-0.7-0.8c-0.8,1-1.5,2-2.2,2.8
		c-0.7,0.8-1.2,1.8-2.5,1.7s-1.3-1.5-1.7-2.3c-0.5-2.2-0.5-4.5-0.2-6.8c0.2-1.5,0.8-2.7,2.5-2.5c1.5,0.2,1.7,1.7,1.7,2.8
		c0,0.8-0.2,1.7-0.2,2.3C380.4,306,380.7,306,380.8,306.1z"/>
	<path fill="#E4E4E4" d="M357.2,284.9c0.5,0,1.2-0.2,1.2,0.7c0,2-3.8,5.3-5.8,5.3c-2.2-0.2-3.1-2.2-3-5.1c0.2-2.2,0.8-4,2.3-5.5
		c1-1,2.3-2,3.8-1.3c1.7,0.8,1.8,2.3,1.5,4c-0.2,0.7-0.3,1.2-0.5,1.8c-0.2,0.3-0.8,0.5-0.5,0.8C356.5,285.7,357,285.4,357.2,284.9z
		 M353.3,280.6c-0.2,2.2-1,4,0.3,6C354.5,284.6,354.7,282.8,353.3,280.6z"/>
	<path fill="#E4E4E4" d="M371.1,273c0.8-1.8-3.6-2.2-1.2-4.5c0.7-0.7,1.5-0.7,2.2,0.2C373.2,270.2,372.7,271.7,371.1,273z"/>
	<path fill="#7D7D7D" d="M369.6,309.1c-1.8-2.5-0.3-5.1-0.3-7.6c1.3,2.5,0.8,5.1,0.7,7.8C369.9,309.1,369.7,309.1,369.6,309.1
		L369.6,309.1z"/>
	<path fill="#3F3F3D" d="M360.5,313.9c-1-2.3-0.7-4,0-6C361.6,309.9,361.3,311.8,360.5,313.9z"/>
	<path fill="#3F3F3D" d="M369.6,309.1L369.6,309.1c0.2,0.2,0.3,0,0.3,0c0.5-0.2,1-0.3,1.5-0.5c0.3,0.3,0.7,0.5,1,0.8
		c-0.5,0.8-0.8,2.2-2,1.8C369.4,310.9,369.2,309.9,369.6,309.1z"/>
	<path fill="#3F3F3D" d="M363.9,312.3c-0.2,0.5-0.7,0.7-1,0.3c-0.5-0.5,0.3-0.5,0.5-0.8C363.6,311.9,363.8,312.1,363.9,312.3z"/>
	<path fill="#3F3F3D" d="M364.6,277.6c0.3,1.7,2,3,1.2,4.8c-0.3,0.7-0.7,1.5-1.5,1.3c-0.8-0.2-1-1-1-1.7
		C363.1,280.4,363.4,279,364.6,277.6z"/>
	<path fill="#3F3F3D" d="M353.3,280.6c1.3,2.2,1,4,0.3,6C352.3,284.6,353.2,282.8,353.3,280.6z"/>
	<path fill="#3F3F3D" d="M357.2,284.9c-0.2,0.5-0.7,0.7-1,0.3c-0.5-0.5,0.3-0.5,0.5-0.8C356.8,284.8,357,284.9,357.2,284.9z"/>
</g>
</svg>
