<?xml version="1.0" encoding="utf-8"?>
<!-- Generator: Adobe Illustrator 19.0.0, SVG Export Plug-In . SVG Version: 6.00 Build 0)  -->
<svg version="1.1" id="Layer_1" xmlns="http://www.w3.org/2000/svg" xmlns:xlink="http://www.w3.org/1999/xlink" x="0px" y="0px"
	 viewBox="0 0 400 323.1" style="enable-background:new 0 0 400 323.1;" xml:space="preserve">
<style type="text/css">
	.st0{fill:#020202;}
	.st1{fill:#FDFDFD;}
	.st2{fill:#FB0103;}
</style>
<g id="XMLID_2_">
	<path id="XMLID_104_" class="st0" d="M400,73.4c-2.8,7.3-8.9,12-14.1,17.4c-41.7,43-83.4,85.9-125.1,128.8c-0.4,0.5-0.9,1-1.5,1.7
		c9.6,18.2,11.4,37.2,4.5,56.7c-5,14.1-13.9,25.5-26.6,33.7c-26.8,17.4-61,14.7-84-6.6c-23.4-21.6-28.8-55.3-13.4-84.1
		c-6.4-6.7-12.8-13.5-19.3-20.2c-28.4-29.4-56.7-58.8-85.1-88.2c-9.6-9.9-19.2-19.8-28.5-30C4.2,79.5,2.3,75.5,0,71.9
		c0-2.3,0-4.7,0-7c2.8-12.1,9.8-17.5,22.4-17.5c35.1,0,70.2,0,105.3,0c6,0,6,0,8.2-5.5c8.2-19.8,22.8-32.8,42.8-40
		c3.6-1.3,7.4-1,11-1.9c7,0,14.1,0,21.1,0c13.2,1,24.4,6.6,34.4,15c8.8,7.3,15.1,16.4,19.5,26.9c2.2,5.4,2.2,5.4,7.9,5.4
		c35.4,0,70.8,0,106.2,0c5.8,0,11,1.5,15.5,5.3c3.1,2.6,5,5.9,5.6,9.9C400,66.1,400,69.8,400,73.4z"/>
	<path id="XMLID_103_" class="st1" d="M189.8,0c-4.2,1.2-8.4,2.1-12.5,3.7c-21.3,8-35.3,23-42.7,44.9c-2.1,0-4.3,0-6.5,0
		c-35.1,0-70.3,0-105.4,0c-12.2,0-17.9,4-22,15.6c-0.1,0.3-0.5,0.5-0.8,0.7C0,43.3,0,21.7,0,0C63.3,0,126.6,0,189.8,0z"/>
	<path id="XMLID_102_" class="st1" d="M400,62.5c-3.3-7-7.9-12.4-16-13.7c-1.8-0.3-3.6-0.3-5.4-0.3c-36,0-72-0.1-108.1,0.1
		c-3.3,0-4.7-0.8-6-4.1c-9.6-24.1-27-39.1-52.8-43.8c-0.3,0-0.5-0.5-0.7-0.7C274,0,337,0,400,0C400,20.8,400,41.7,400,62.5z"/>
	<path id="XMLID_91_" class="st1" d="M199.2,296.8c-26-1-41.2-17.8-41.8-42.1c-0.6-24.8,19.8-42.4,42.6-42.2
		c24,0.2,42,19.4,41.8,42.5C241.5,278.3,223.4,297.2,199.2,296.8z"/>
	<path id="XMLID_90_" class="st2" d="M242.8,68.1c-0.1,23.7-18.5,42.1-41.5,42.4c-24.2,0.4-42.5-17.4-43.2-41.9
		c-0.7-23.8,18.9-42.7,41.9-43.1C222.7,25.3,242.8,44.1,242.8,68.1z"/>
	<path id="XMLID_89_" class="st1" d="M266.2,87.7c22.5,0,45,0,68.1,0c-0.9,1-1.5,1.9-2.2,2.7c-32.7,33.7-65.4,67.4-98.1,101.1
		c-1.9,2-3.4,2.5-5.9,1.1c-2.7-1.5-5.7-2.4-9-3.7c0-4.3,0-8.7,0-13c0-12.9,0-25.8,0-38.6c0-2,0.1-3.3,2.4-4
		c22-7.5,36.6-22.4,44.2-44.4C265.8,88.4,266,88.1,266.2,87.7z"/>
	<path id="XMLID_88_" class="st1" d="M134.8,87.8c5.3,16.6,15.3,29.8,30.4,38.9c3.9,2.3,8.2,3.8,12.2,5.9c1.1,0.6,2.5,2,2.5,3.1
		c0.1,17.1,0.1,34.1,0,51.2c0,0.9-1,2.3-1.9,2.8c-3.2,1.5-6.5,2.6-10.1,4.1c-33.7-35-67.6-70.2-101.9-105.9
		C89.3,87.8,112,87.8,134.8,87.8z"/>
</g>
</svg>
