<?xml version="1.0" encoding="utf-8"?>
<!-- Generator: Adobe Illustrator 18.0.0, SVG Export Plug-In . SVG Version: 6.00 Build 0)  -->
<!DOCTYPE svg PUBLIC "-//W3C//DTD SVG 1.1//EN" "http://www.w3.org/Graphics/SVG/1.1/DTD/svg11.dtd">
<svg version="1.1" id="Layer_1" xmlns="http://www.w3.org/2000/svg" xmlns:xlink="http://www.w3.org/1999/xlink" x="0px" y="0px"
	 viewBox="0 0 640 480" enable-background="new 0 0 640 480" xml:space="preserve">
<g>
	<path fill="#727272" d="M249.7,424C252.3,416.1,241.3,427.6,249.7,424L249.7,424z"/>
	<path fill="#727272" d="M438,210.5V122C438,57,385.1,4,320,4C254.9,4,202,57,202,122v88.5c-33,0-59,26.4-59,59V417
		c0,32.6,26.4,59,59,59h236c32.6,0,59.1-26.5,59.1-59V269.5C497,236.9,471,210.5,438,210.5z M238.3,338.1
		c-6.4-5.7,11.3-10.3,13.3-16.6c4.5-5.3,12.6-3.3,4.2,2.2C248.8,326.4,241.5,336.7,238.3,338.1z M235,349.4
		C238.6,339.2,243.3,355.2,235,349.4L235,349.4z M385.2,291.7c-14.9-8.7-30.8-16.5-48.2-19.1c-18.1-2.6-37.2-2.3-53.8,6
		c-4.5,1-15.8,10.5-16.5,3.7c7.5-3.7,17.2-7.1,26.3-9.8c16.8-5.6,35.4-6.6,52.3-0.9c16.2,3.5,31.2,10.9,44.5,20.7
		c3.2,8.2,18.9,12.1,17.6,20l-0.9-0.4l-1.5-1.2h0c-11.3-7.3-22.8-14.2-34.8-20.3c-8.3-4.6-17.9-6-26.6-9.7c-7.3,1.6-18-2.1-21.6-4.8
		c9.6-2,20.3,2.3,30,4.3c8.5,3.3,17.6,6.1,25.3,10.8C379.7,294.4,392.7,299,385.2,291.7z M304.9,275.5c4.3-1.8,22-0.4,8.7,1.8
		c-9.5,0.9-18.8,2.7-27.4,7c-11.6,3.3-20.8,11.6-32,15.8c-6.6,3.5-12.5,7.9-18.8,11.9c3.2-11.1,17.1-13.1,25.6-18.8
		C275.6,287.3,288.8,277.4,304.9,275.5z M257.4,302.8c12.6-7.7,26.1-13.9,39.9-19.1c9.3-2.4,19.3-3.8,28.8-2.2
		c-3.9,3.7-16.6,1.5-23.8,4c-17.8,5-34.1,14.1-50,23.3c-5.2,4.6-12.8,8.5-17,12.7C237.3,311.1,249.6,308,257.4,302.8z M263.2,310
		c-4.4,2.2-8.9,7.3-13.8,6.9c6.1-7.6,15.6-11.3,24-15.6C283.3,301.6,266.1,307.5,263.2,310z M244.9,322.5c-2.6,0.8-5.8,6.3-8.3,4.7
		C236.4,321.1,255.2,314.6,244.9,322.5z M241.9,344C240,337.3,248.3,344.7,241.9,344L241.9,344z M268.5,327.2
		c8.7-8.7,21-13,33.2-13.1c12.5-3.6,25.8-2.2,38.1,1.2c4.2,1.6,19.7,4.3,16.4,7.9c-8.8-2.2-17-6.6-26-7.3c-10.8-4-22.1-1.4-32.8,1.2
		c-16.9,1.6-29.6,13.7-42.5,23.3c-4.2,3.8-6.4,10.8-12.3,12.2C246.2,340.3,259.1,334.7,268.5,327.2z M248.6,358
		c-0.5,1.1-1.8,3-3.2,2C242.8,354.7,255.1,350.5,248.6,358z M251.8,358.7c9.6-12.4,22-22.8,36.2-29.5c6.8,0.6-8.9,8.1-12.7,10.5
		c-8.2,5.1-13.3,13.7-21.1,19.3c-4.5,8-10.9,14.9-13.9,23.6c-0.3,1.2-1.3,2.9-2.8,2.5C237.6,374.8,246.6,367,251.8,358.7z
		 M291.1,334c0.4,5.4,8.1,1.5,0.6,4.6c-9.1,2.1-15.1,10.9-23.3,13.2C272.4,342.6,285.3,339.7,291.1,334z M292.3,332.7
		c3-4.9,19.6-4.8,15.9-3.3C302.8,330,298,333.9,292.3,332.7z M292.3,327.9c4.6-3.8,21-7.6,19-3.8
		C305.2,326.2,298.7,326.9,292.3,327.9z M303.1,321c-14.6,1.9-27.6,9.9-38.1,20c-6.3,0.3-8.1,10.7-14.1,9.9l0,0v0h0
		c5.4-9.8,16.1-14.9,24.3-22.1c12.6-8,27.6-11.2,42.4-11.7c9.4-0.3,18.4,2.7,27.2,5.1c5.7,0.7,14.4,8.6,17.5,6.7
		c-8-11.4,11.3,5.3,14.4,8.4c5.3,2.2,11.3,12.4,1.9,7.9c-6-8.7-14.9-13.3-24.7-16.5C338.4,320.2,320.2,319.5,303.1,321z
		 M371.8,327.9c-7.2-6.7-15.4-11.1-24.8-13.9c-10.8-4.1-22.2-5.1-33.7-4.5c-9.3,0.1-19.1,1.6-27.9,3.5c-14.2,5-24.8,16-36.8,24.6
		c-8.7,1.8,5.5-8.8,8.7-10.3c7.8-8,18.3-12.5,28.1-17.4c9.7-0.7,19.3-2.5,29-3.7c9.5-1.5,18.3,1.8,27.6,3c8.4,2.5,17,4.7,23.9,10.7
		c9.6,4.9,16.8,12.9,25,19.6c-0.5,6.5,19.8,13.9,11.4,15.8C390.3,348.2,383.9,334.9,371.8,327.9z M367.2,317.2c-0.3-0.3-0.7-0.7-1-1
		C360.2,307.2,379.8,323.6,367.2,317.2z M354.2,309c-13.1-3.7-26.8-6.9-40.5-5.9c-7.7-0.3-16.4,5.4-23.3,3.3c9-3.7,19-5.5,28.6-6.2
		c14.5-1,28.3,4.2,42.3,7.1c3.1,0.8,21,6.9,16.5,9.3C370.7,311.6,362.4,310.2,354.2,309z M350.6,301.6c-16.9-6.4-35.6-6.1-53-1.8
		c-11.1,4.3-21.2,10.6-31.7,16.2c-1.7,0.6-3.5,1-5.3,0.9l0,0h0h0c6.6-6.3,15.8-8.8,23.2-14.1c10.3-4.6,20.8-8.8,32.3-9
		c9.3-3.2,18.2-0.1,27.1,3.2C347.3,297.9,362.4,304,350.6,301.6z M326.7,289c-9.9,2.4-20.7,0.4-30,5.3c-4.1,0.7-18.1,8.1-16,3
		c10.2-4,20.2-9.5,31.5-9.5c10.1-0.8,20.2-3.7,30.4-2.8c10.8,2.1,21.3,5.8,30.9,11.4c10.8,4.4,19.2,12.9,28.7,19.4
		c2,0.9,9.9,11.9,3.6,9.6c-8.3-10.9-20.2-18.4-31.9-25.3C359.4,292.7,343.3,284.3,326.7,289z M405.5,299.9l-0.1-0.1
		c-8.5-6.6-16.6-13.7-26-19.1c-12.1-8.7-27.2-10.9-41.2-14.9c-10.9-1.9-22.4-3.4-33.2-0.5c-10.1,1.7-19.8,6-30,7.8
		c-7.8,3.3-17.1,11.2-24.3,11.1c9.6-7.4,20.3-13.8,32.4-16.8c10.1-3.4,20.6-3.4,30.7-6.9c9.5,1,19.5,1,28.8,3.4
		c18.7,3.9,37.1,11.5,52.4,23.3C399.6,287.7,413.1,304.1,405.5,299.9z M252.6,277C258.4,270,261.9,280.6,252.6,277L252.6,277z
		 M402.8,286.1c-9.1-3.1-15.2-11.6-24.4-14.8c-16.2-8.5-34.4-11.5-52.4-13.2c-11.7-3.3-22.6,1.7-34.3,2
		c-10.1,2.6-19.7,7.3-29.7,10.3c-0.5-7.1,14.7-5.9,20-10.8c8.2-3.8,18-0.4,26.3-4.7c8.8-2,17.6,0.3,26.2,0.8c8.6,4.4,18.1,3,27.2,5
		c13.4,4.1,26,11,36.5,20.3c12.5,5.8-7.4-10-11-13.2c-10-8.9-23.5-11.1-35.9-14.3c-13.9,0.9-27.7-6.6-41.4-1.5
		c-4.5-2.6-18.8,7.2-16.7,0.6c9.8-3.8,20.7-4.9,31.2-5.1c10.3,0.5,19.9,4.9,30.4,4.2c14.7,0.1,27.9,7.5,38.4,17.2
		C396.7,270.1,415.5,289.9,402.8,286.1z M276.8,258.2c-1.4-0.6-2.4,2.8-3.5,1.1C274.5,251.8,288.1,258.4,276.8,258.2z M276.6,253.5
		c5-6.3,16.2-8.8,23.6-9.8c-0.6,5.8-13.3,4.4-18,9.6C280.4,253.9,278.5,254,276.6,253.5z M310,241.4c11.1-0.5,22.6-1,33.6,1
		c1.8-0.3,17.6,6.2,10.3,5.8c-13.2-3-26.6-4.9-40.2-3.8C308.9,245.3,300.6,242.2,310,241.4z M401.7,270.8
		C400.3,263.1,409.1,273,401.7,270.8L401.7,270.8z M397.1,267.8L397.1,267.8c-3.1-9.8-15.1-11.3-22.2-17.3
		c-8.8-2.6-17-6.2-25.2-10.2c-9.1-3.4-19.1-2.8-28.6-4.6c-9.4,1.2-18.8,1.8-28,4.3c-10.9,2.7-21.6,7.4-30.9,13.5
		c-6.7-5.5,12.3-9,17-12.3c10.5-3.4,21-7.1,32.2-7.7c11.4-1.8,22.6,0.6,33.8,2.2c15.5,5.2,30.8,11.3,44.8,19.9
		C393.8,256.5,407.6,268.9,397.1,267.8z M391.1,250.5c-12.8-6.7-26-12.6-39.7-17c-9.5-3.7-20.2-3.6-30.3-4.1
		c-10,1.8-20.5-0.1-30.2,3.2c-5.6,0.9-20.5,10.7-21.2,4.2c9.5-1.8,17.2-9,27.2-9c10.9-1.1,21.8-1.3,32.6-2.2c9.3,0.7,18,2,26.4,6.1
		c10.5,3.5,20.3,8.7,30.9,11.7C387.7,245.1,400.5,253.5,391.1,250.5z M281.9,227.4c-5.9,2.6-11.6,5.5-17.9,7.1
		c4.8-7.3,14.9-8.1,22.1-12.1c9.7-1.4,20.2-6.7,29.3-4.7C304.7,223.2,292.8,222.9,281.9,227.4z M313,224.7
		C315.5,217.9,321.1,227.5,313,224.7L313,224.7z M319.2,215.3C319.5,213,321.4,216.7,319.2,215.3L319.2,215.3z M320.6,219
		C322.1,214.1,322.2,223,320.6,219L320.6,219z M325.7,220.2C325.1,217.5,328,220.9,325.7,220.2L325.7,220.2z M380.7,237
		c-10.7-5.8-22.5-8.9-33.8-13.1c-4.6-0.7-23.7-2.3-10-4.3c12,0.2,22.7,6.8,34.2,9.6C373.7,229,393.3,240.1,380.7,237z M261,122
		c0-32.5,26.5-59,59-59c32.5,0,59,26.4,59,59v89H261V122z M261.7,245.3c-3.1,1.8-6.5,2.9-9.8,4.1
		C252.4,242.1,273.7,236.9,261.7,245.3z M253.3,257.1c-1,0.6-2.1,2.3-3.4,1.3C247.2,249.1,266.1,255.4,253.3,257.1z M271.3,253
		c1,1.4-1.6,6.9-3.7,8.1c-6.7-1.2-16.3,6.4-22.8,8.1C250.3,260.3,263.5,259.3,271.3,253z M250.1,274.7c-2.7,1-5.5,1.6-8.3,2.6
		C246.1,267.8,267.4,267.8,250.1,274.7z M239.9,272.3C242.8,265.9,244.9,274.7,239.9,272.3L239.9,272.3z M247.9,282.7
		c-2.6,2.2-5.8,4.4-9.3,4C239.6,281.1,258.7,274.5,247.9,282.7z M246.3,288.3C248,282.5,251.6,289.6,246.3,288.3L246.3,288.3z
		 M240.2,291.6C239.9,285,247.5,294.7,240.2,291.6L240.2,291.6z M259,286.5c7-5.1,8,2.3,0.5,3.3c-7.7,4.8-16.4,6.4-24.3,11.1
		C240.2,292.6,251.9,292.4,259,286.5z M234,329.5C235.1,326.1,237.7,331.3,234,329.5L234,329.5z M235.8,343.8l-1,0.7l-1.1,0.7
		C230.2,339.3,244.5,338.3,235.8,343.8z M232.2,353.2C234.8,346.2,236.9,355.6,232.2,353.2L232.2,353.2z M239.4,358.6
		c-1.1,1.6-1.9,8.1-5,4.9C229.9,357.8,247.8,349.8,239.4,358.6z M235.3,373.9c-1.6-5.3,12.9-17.9,6.7-7.9
		C239.3,368.1,239.7,374.4,235.3,373.9z M266.5,353.2c1.6,5.3-13.7,13.7-15.9,22.2c-3.6,6.3-5.2,16.1-13.7,17.6
		C247.5,380.3,251.9,362.5,266.5,353.2z M238.5,407.4C237.8,404.7,240.8,408,238.5,407.4L238.5,407.4z M240.2,418.6
		c-2.5-7.3,9.1-21,4.1-23.4c-1.6,5.2-8.2,12.3-4.4,2.2c7.2-5.8,9.6-15.6,15.3-21.7c-3.7,12.3-8.3,24.5-11.3,37.1
		C243.1,414.9,242.3,417.4,240.2,418.6z M247.9,432.7C247.6,429.2,250.4,434.7,247.9,432.7L247.9,432.7z M249.3,433.7
		C250.6,431.9,250.4,436.1,249.3,433.7L249.3,433.7z M254.5,443.9c-3-8.9,1.4-18.3,0.4-27.3c-0.4-11.1,3.8-21.9,7.2-32.7
		c3.1-7.5-1.5-7.8-3.3-0.8c-2.8,8.6-5.9,17-7.2,26.2c-4.9,6.2,6.2,15.2-3.2,20.1c-10-9.9,4-23.4,4.6-35c2-9.4,5.1-19.3,13.7-24.7
		c3.6-4.1,12-15,14.6-12.6c-8,8.6-17.1,16.9-17.6,29.5c-2.6,11.4-6.4,22.3-6.5,34.7C256.7,428.9,257,436.7,254.5,443.9z
		 M268.4,457.7C269,455.3,270.7,459.6,268.4,457.7L268.4,457.7z M269.3,447.5c-3.8-9.7-1.7-20.5-2.4-30.7c4.5-1.6,0.7,13.5,3.7,18.4
		C269.6,438.1,277.2,452.9,269.3,447.5z M273.4,450.1C272.5,447.5,276,450.9,273.4,450.1L273.4,450.1z M274.4,458.9
		C269.9,445.7,284.7,463.3,274.4,458.9L274.4,458.9z M283,470.7c-4.6-3.5-7.5-14.7-0.8-5.4C283.6,466.6,288.7,471.6,283,470.7z
		 M293,469.6c-8.6-4.6-12.9-14.6-16.5-23.2c-3.4-11-2.7-22.4-5.7-33.6c-2.4-3.7-0.5-19.5,3.1-15.1c-2.8,13.8,2.9,27.4,3.9,41.1
		c3,9.6,6.5,19.5,13.8,26.7C293.5,467.1,297.8,473.9,293,469.6z M271.7,393.1C270.2,385.8,279.6,394.5,271.7,393.1L271.7,393.1z
		 M273.4,388.2c0.3-5.2,7.7-19.3,4.2-6.5C276.8,383.9,276.7,388.7,273.4,388.2z M295.5,464.2L295.5,464.2
		c-7.9-8.1-11.9-19.5-14.9-30.1c-2.2-10.9-4.9-21.7-4-32.8c0.4-9.3,2.9-21.3,9.9-27.1c-2.7,9.3-8.9,20.5-7.5,31.6
		c0.5,10.1,2,19.5,5.2,29.2c3,9.9,6.9,19.7,13.2,28C306,465.6,298.1,471,295.5,464.2z M331.6,359.8c-7.5-3.5-16.3-1.1-23.1,3.1
		c-7.7,3.5-12.9,11.3-17.1,18.5c-7.1,8.5-6.1,21.7-4.7,32.4c-1.1,2.9,5.6,18.1-1.4,13.3c-2-11.3-4.3-23.1-1.8-34.7
		c3.6-12.7,11.9-24.3,22.7-31.7c8.7-4.4,19.5-8.9,28.5-2.5c5.4,2.7,15.5,12.3,11.8,16.5c-4.8-5.8-12.6-9.9-18.2-12.6
		C332.1,361.9,339.4,363.9,331.6,359.8z M293,420.8c9.1,3.3-3.4-18.4,5-15.5c0,7.4,1.1,17.3,0.4,23.4c2.6,2.2-0.9,3.8-2.9,3.8
		c-4.7-9.8-6.9-20.3-6.4-31.3c-2.9-5.6,8-19.4,4.1-7.1C291.1,402.7,291.3,412.3,293,420.8z M299.2,392.2c-0.4,1.6-0.2,9.7-2.8,7.8
		C295.4,396.4,298.7,380.6,299.2,392.2z M299.4,384.2C297.2,378.2,304.2,387.6,299.4,384.2L299.4,384.2z M302.1,462.7
		c-0.4-0.3-0.7-0.5-1.1-0.8c-6.8-7.9-9.5-18.1-12.7-27.5c-1.6-9.7,5.6-2.8,4.3,2.8C293.8,446.2,304.1,454.9,302.1,462.7z
		 M307.9,467.1C299.5,462.3,316.6,465.4,307.9,467.1L307.9,467.1z M311.4,469.1C309.8,464.4,314.3,468.8,311.4,469.1L311.4,469.1z
		 M315.8,465.5L315.8,465.5c-10.7-5.7-13.9-18.6-18.8-28.3c3.8-10.1,10.7,12.3,12,17.2c1.4,5.8,10.4,10,11.9,11.9
		C319.2,466.6,317.2,466.6,315.8,465.5z M304,404.7c0.8,10.3,1.1,22,6.4,30.5c1.7,1.7,1.2,11.3-2.2,5.3v0c-6-7.9-6.6-17.6-6.2-27
		C300.8,408.3,302.6,390.6,304,404.7z M309.5,378.4c-2.5,4-2.9,9.1-6,12.8C300,386.7,309.6,370,309.5,378.4z M317.8,388.7
		c-2.7,11,3.4,21.1,3.3,31.5c-5.5,1.9-3.8-13.4-6.3-17.9c-1.9-9.1,2-27.5,14.4-20.7c9.2,7.6,9.7,20.4,16.2,29.8
		c5.2,11,12.8,21.1,21.9,29c-0.7,1.2-2.9-0.4-4-0.3c-14.8-9.7-21.3-27.1-28.1-42.6C334.1,389.2,322.8,375.4,317.8,388.7z
		 M328.1,395.3c-3.8-5.2-0.9-10.7,1.6-2.8C330.6,393.5,330.2,398,328.1,395.3z M321.1,427.8c-0.3-0.3-0.7-0.6-1-0.8
		C317,418,331.2,427.7,321.1,427.8z M324.6,442.7c0,0.7-1.6,4.3-2.3,2.3c-7.3-3.3-15.2-18.6-8.9-23.1
		C318.1,428.4,316.3,438.2,324.6,442.7z M323.6,462.2c-5.2-1.4-16.9-12-11.2-13.6C313.6,454.2,324.9,457.6,323.6,462.2z
		 M328.6,464.3C328.9,462,330.8,465.7,328.6,464.3L328.6,464.3z M334.7,462.2L334.7,462.2c-9.8-3-15.6-12.3-23.3-18.2
		c7.6-0.4,14.8,11.4,22.8,15.3C335.5,460.2,338.4,464.8,334.7,462.2z M339.8,457.7c-4.9-1.2-18.3-10.4-12.2-11.8
		c5,3.4,13.3,9.8,15.4,12.6C341.8,458.7,340.5,458.6,339.8,457.7z M351.6,456.4l-2.4-0.3c-9.6-4.8-17.7-12-24.9-19.7
		c-4.7-5.5,3.5-13.3,4.7-4c4.7,11.1,17.4,14.3,23.5,23.7L351.6,456.4z M349.9,447.3c-8.7-5.1-15.8-12.3-19.9-21.5
		c-5.9-11-9.5-24-9.2-36.7c4.4-3.3,3,11,5.5,13.9c0.9,10.5,6.1,16.8,9.6,26.6c5.6,6.3,14.6,14.3,21.7,19.9
		C355.3,452.3,351.5,449.5,349.9,447.3z M359,453.4C356.9,446.4,366.3,454.2,359,453.4L359,453.4z M363.6,447.9
		c-8.5-5.5-16.4-11.2-21.8-18.9c-5.2-9.4-10.9-19.1-12.8-29.8c8.1-1.7,4.5,16.3,12.6,18.6c2.4,11.3,13.3,21.8,24,27
		C369.5,447.1,367.9,450.2,363.6,447.9z M368.3,442.1L368.3,442.1L368.3,442.1L368.3,442.1c2.9-9-11.5-14.7-14.1-23.3
		c-5.2-8.4-10.4-16.3-12.9-25.8c-4.5-7.5-11.9-22.1-22.3-15.2c-10.6,6.6-7.8,20.6-7.3,31.2c2.4,4.2,1.8,15.1-3,7.3
		c-0.2-9.9-1.7-20.1,0.4-30c2.6-8,12.3-16.8,21-12.9c10.2,8.1,14.9,20.8,20.3,32.2c5.4,9.9,11.1,19.4,18.9,27.7
		C373.3,435.4,374.3,443.4,368.3,442.1z M311.3,372.8c2.6-5.2,17.9-5,6.2-0.7C316,372.6,311.4,376.6,311.3,372.8z M375.1,432.8
		L375.1,432.8c-6.2-8.4-14.9-14.9-18.8-24.9c-6.9-10.5-10.2-23.4-18.8-32.7c-7.1-4.7-17.4-15.2-25.6-7c-7.1,3-13.9,16.8-17.4,16.9
		c2.3-10.4,11.9-18.5,21.3-22.5c9.8-2.3,17,6.5,24.9,10.7c13.7,15.2,17.1,37.5,32.5,51.5C374.1,426.8,383.7,438.8,375.1,432.8z
		 M377.8,424.7c-6.7-8.9-13.2-18-19-27.2c-2.4-5.5-11.6-18.2-7.8-20.7c6.7,7.3,10.2,16.9,15.5,25.7c4.2,8,11.1,14.4,15.8,22
		C381.1,425.6,379.1,424.7,377.8,424.7z M382.7,416.9c-4.2-8.8-12.5-15-16-23.8c-8.4-7.1-9.5-18.9-17.7-26.3
		c-7.1-7.6-15.4-16.3-26.8-15c-10.8,1.9-22.8,7.1-28.6,16.7c-3.8,6.4-8.3,2.1-2.5-2.2c8.2-10.8,22.1-15.7,35.2-17
		c12.4,1.8,22.4,10,29.6,19.9c6.5,8.1,10.2,18.1,17.1,25.9C373.8,401.7,389.4,411.5,382.7,416.9z M384.3,421.7
		C383.8,418.1,386.9,422.6,384.3,421.7L384.3,421.7z M384.9,403c-5.7-8.1-14-14.9-17.8-24c-5.8-9.6-12.8-17.5-20.9-25.1
		c-9.3-6.4-21.7-10.3-32.6-5.1c-13.4,3.4-25.3,11.9-32.1,24c-6.5,2.9,8.3-15-2.1-6.1c-7.3,7.4-8,18.6-11.3,28.1
		c-1.2,11.1-4.9,20.7-5.3,31.6c-0.5,10.1,2.2,20.3,5.5,29.5l-0.9,0.1l-2-1h0c-5.5-8.2-6.7-18.4-5.4-27.8c-0.8-9.1,3.9-17.3,3.8-26.4
		c3.2-9.4,3.3-19.9,8.6-28.7c3-5.4,7.6-11.7,14-10.9c-1.1-7,5.9-0.8,8.8-7.4c10.2-6.3,22.1-8.8,33.8-10.9
		c16.6,3.9,28.9,16.7,38.5,30.1c7.8,8.1,11.9,19,20.1,26.7C391.2,404.2,388.1,411.4,384.9,403z M282.8,355.1
		c5.1-6.9,14.5-7.8,21.6-11.9c4.5-4,23.6-2.9,9.9,0c-11,1.2-19.9,8.2-30.1,11.6L282.8,355.1z M390.9,396.3L390.9,396.3
		c-10.6-13.9-21.6-27.5-32.8-40.8c-8.2-7.2-17.5-15-29-15.1c-9.5-3.5-19.7-2.8-28.9,1c-9.9,3.8-19.1,8.9-26.9,16.3
		c-6,3.4-12.6,17.4-16.7,14.5c9.4-12.5,21.3-23.4,35.4-30.3c16.5-6.5,35.4-7.9,52-0.8c8.4,3.6,14.8,10.8,21.2,17
		c8,7.9,13.6,17.5,20.9,25.7C386.3,387.7,401.1,398.1,390.9,396.3z M393,385.7L393,385.7c-11.5-16-24-32.1-40.2-43.7
		c-13.5-8.4-30.5-11.3-45.9-7c-5.6,1.2-11.9-0.5-3.2-2c9.4-0.7,18.7-3.9,28.2-2.2c15.7,2.8,30.7,11.4,40.5,24.2
		c8.3,9.3,17,18.4,23.8,28.8C398.3,386.9,394.5,386.8,393,385.7z M397.1,377.2c-10.4-14.2-22.7-27.5-36.7-38.3
		c-9.1-4.4-17.9-10.8-28.4-11c-6.7-4.4-15.7,3.9-20.1-0.5c8.3-6.5,19.9-2.4,29.7-0.4c11.9,4.2,24,9.6,32.6,19.3
		c10.2,7.3,15.7,19.3,24.6,27.9C400.1,375.6,399.5,378.4,397.1,377.2z M398.7,364.5c2.1,2.2,6.9,10,0,4.8l0,0
		c-3.6-7.2-13.1-16.5-15-20.9c7.8,2.3,16.1,10.2,20.7,15.4C401,360.9,391.6,358,398.7,364.5z M403.1,345.1
		c-9.4-8.1-21.7-18.4-28.5-26.1c10.9-0.4,16.6,12.2,24.3,18.6C402.1,338.4,412.4,351.7,403.1,345.1z M406.2,337.1
		c-7.8-6.1-13.7-14.4-21.9-20.1c-5.7-8.5-15.3-10.8-23.7-15.5c-5.3-5.9-18.9-4.4-20.8-10.7c9.8,1.3,18.9,5.7,27.5,10.3
		c12.2,5.9,22.1,15.7,32.2,24.5C401.6,326.5,414.5,344.3,406.2,337.1z"/>
</g>
</svg>
