<?xml version="1.0" encoding="utf-8"?>
<!-- Generator: Adobe Illustrator 18.0.0, SVG Export Plug-In . SVG Version: 6.00 Build 0)  -->
<!DOCTYPE svg PUBLIC "-//W3C//DTD SVG 1.1//EN" "http://www.w3.org/Graphics/SVG/1.1/DTD/svg11.dtd">
<svg version="1.1" id="Layer_1" xmlns="http://www.w3.org/2000/svg" xmlns:xlink="http://www.w3.org/1999/xlink" x="0px" y="0px"
	 viewBox="0 0 640 480" enable-background="new 0 0 640 480" xml:space="preserve">
<g>
	<path fill="#737373" d="M320,478.9c-39.8,0-79.7,0-119.5,0c-26.7,0-50-17.6-57.4-43.2c-1.5-5.2-2.3-10.5-2.3-15.9
		c0-50.2-0.3-100.5,0.1-150.7c0.2-24,11.8-41.7,33-52.8c7.7-4,15.9-6,24.6-6.1c1.6,0,1.9-0.6,1.9-2c0-28.6,0-57.2,0-85.8
		c0-18.7,3.6-36.7,11.9-53.5c11.7-23.9,29.3-42,52.9-54.3c19-10,39.5-14.3,60.9-13.2c27.2,1.4,51.2,11,71.7,28.7
		c20.1,17.3,33,38.9,38.9,64.7c1.8,8,2.8,16.1,2.8,24.3c0,14.2,0,28.4,0,42.6c0,1.4-0.3,1.9-1.8,1.9c-18.7-0.1-37.5-0.1-56.3,0
		c-1.5,0-1.8-0.5-1.8-1.9c0.1-13.8,0.3-27.6,0-41.4C379,96.9,368.4,79.2,348,68c-23.2-12.8-51.8-8.3-70.4,10.6
		c-10.8,11-16.9,24.4-17.2,39.9c-0.5,23-0.1,46.1-0.2,69.1c0,7,0,14.1,0,21.1c0,1.3,0.4,1.7,1.7,1.7c38.8,0,77.7,0,116.5,0
		c20,0,40-0.3,60-0.5c30-0.2,54.4,19.9,60,49.4c0.6,3,0.9,6,0.9,9.1c0,50.2,0.1,100.5,0,150.7c0,19.9-8.4,35.7-24.2,47.9
		c-1.1,0.8-1.9,1.6-2.3,3c-0.8,2.3-3.2,2.6-5.2,2.9c-1.9,0.4-3.8,0.8-5.7,1.5c-7,2.8-14.4,4.3-22,4.3
		C399.9,478.9,359.9,478.9,320,478.9z M241.5,277.2c3.1-0.7,6-1.5,8.9-2.8c1.6-0.7,3.2-1.3,4.5-2.5c0.3-0.3,0.8-0.5,0.7-1
		c-0.1-0.6-0.7-0.6-1.2-0.7c-1.2-0.2-2.3,0.1-3.4,0.4c-3.9,1.1-7.7,2.6-9.8,6.4c-0.1,0.1-0.2,0.2-0.2,0.2
		C241.4,277.5,241.5,277.4,241.5,277.2z M403.1,363.5c0.1,0.2,0.1,0.4,0.3,0.1C403.3,363.6,403.3,363.5,403.1,363.5
		c0-0.2,0-0.5-0.1-0.6c-4.3-4.4-8.8-8.4-14.4-11.3c-1.2-0.6-2.2-1.2-3.7-1.3c0.5,1.3,1.3,2.3,2,3.3c4.2,5.7,9.2,10.8,12.7,17.1
		c0.5,0.9,1.5,1.2,2.4,1.7c0.3,0.2,0.7,0.3,1,0c0.2-0.3,0-0.6-0.1-0.9c-0.7-1.8-1.8-3.5-3.1-5c-0.8-1-1.7-1.8-2.5-2.8
		c-0.7-1-0.6-1.6,0.9-1.6C400,362.1,401.5,363.1,403.1,363.5z M261.3,270.6c0.7-0.2,1.2-0.3,1.5-0.5c6.9-2.2,13.5-5.1,20.4-7.5
		c2.8-1,5.5-2.1,8.4-2.4c3.5-0.3,6.8-0.8,10.3-1.2c6.6-1.1,13.2-2.7,20-1.6c3.1,0.5,6,1.1,9.1,1.3c8.6,0.9,17.2,2.3,25.6,4.4
		c9.1,2.2,17.7,6,26.1,10.1c4,2,7.4,5,11,7.7c3.6,2.7,7.3,5.2,11.8,6.1c1.9,0.4,2.8-0.6,2.1-2.4c-0.7-1.9-1.9-3.6-3.2-5.2
		c-4.6-6-10.8-10.6-16.6-15.1c-10.6-8.2-22.4-13-36-12.4c-4,0.2-7.9-0.8-11.8-1.6c-6.1-1.2-12.2-3-18.5-2.7
		c-5.8,0.3-11.5,0.8-17.2,1.8c-3.6,0.7-7.2,1.6-10.7,3c-0.7,0.3-1.2,0.6-1,1.4c0.1,0.9,0.8,1,1.4,1c0.6,0,1.2-0.1,1.7-0.2
		c1.9-0.6,3.8-1.2,5.8-1.8c2.1-0.7,4.3-1.3,6.6-1.2c0.7,0,1.2,0.4,2.1,0.2c6.5-2.2,13.2-1.7,20-0.6c5.5,0.9,10.9,2.2,16.6,2.4
		c3,0.1,6,0,8.7,1c1.3,0.5,2.9,0.8,4.3,1.1c8.4,2.1,17,4.3,24.2,9.6c6.3,4.6,12.2,9.7,17.8,15.3c0.3,0.3,0.5,0.5,0.7,0.8
		c0.3,0.4,0.7,0.9,0.4,1.2c-0.3,0.5-0.9,0.3-1.3,0.2c-1.2-0.5-2.6-0.9-3.6-1.8c-6.8-6-14.3-10.8-22.5-14.6
		c-7.5-3.5-15.1-6.2-23.5-6.5c-4.9-0.2-9.9-0.7-14.6-2.4c-1.9-0.7-3.7-1.3-5.8-1.5c-6.2-0.6-12.6-1.6-18.9-1.2
		c-2.1,0.1-4.1,0.4-6,1.2c-2.2,1-4.5,1.3-6.9,1.6c-3.7,0.5-7.5,0.2-11.2,0.7c-2.5,0.4-5.1,0.6-7.2,1.9c-2.6,1.8-5.5,2.7-8.5,3.6
		c-2.9,0.8-6,1.3-8.6,2.8C262.8,267.2,261.5,268.3,261.3,270.6z M261.9,430.2c-0.1-2.9,0.3-6.4,1-10.1c1.1-5.6,2.4-11,3.4-16.6
		c1.3-8.3,3.6-16.3,6.1-24.3c1.6-5.1,4.1-9.8,8.7-13c0.5-0.3,1-0.9,1.4-0.6c0.6,0.4,0.1,1.1-0.1,1.6c-0.9,1.9-1.9,3.7-2.8,5.6
		c-0.2,0.5-0.5,1.2,0.2,1.5c0.6,0.3,1-0.3,1.3-0.7c0.2-0.2,0.3-0.5,0.5-0.8c3.8-6.2,8.8-11.4,14.9-15.5c5.2-3.6,10.9-5.6,16.8-7.7
		c5.5-2,10.9-2.9,16.6-1.8c6.3,1.2,12.4,3.5,17.2,7.8c7.3,6.4,13.6,13.9,18.9,22.1c2.2,3.4,3.7,7.2,6.1,10.5
		c4.8,6.6,11.3,12,15.1,19.5c0.3,0.6,0.8,1,1.4,0.8c0.6-0.1,0.8-0.7,1-1.2c0.5-2.3-0.1-4.2-1.7-5.9c-1.5-1.6-3-3.3-4.3-5
		c-5.7-7.4-10.2-15.7-16.3-22.8c-4.6-5.4-8.7-11-13.9-15.8c-5.8-5.3-12.2-9.5-19.6-12.3c-2.7-1-5.5-1.6-8.4-0.8
		c-1.6,0.5-3.3,0.7-4.9,1.1c-8.2,1.7-16,4-23.3,8c-0.9,0.5-1.9,0.9-2.3,1.5c-1.4,2.5-3.5,3.4-6.2,3.4c-1.7,0-3,0.8-2.8,2.9
		c0.1,0.6-0.1,1.1-0.9,1.1c-4-0.1-6.9,2.2-9.2,5.1c-3.9,4.9-6.8,10.4-8.3,16.5c-2,8.7-4.3,17.4-5.5,26.3c-0.5,4-1.9,7.9-2.6,11.8
		c-0.4,2.5-0.2,5.1-0.5,7.6c-0.8,6.7-0.4,13.3,1.7,19.8c0.9,2.6,2,5,3.6,7.2c0.6,0.9,1.7,1.6,2.5,1.2c0.8-0.3-0.1-1.4-0.4-2.1
		C263.9,448,261.8,439.7,261.9,430.2z M322.2,276.5c5.9,3.2,11.5,5.1,17.7,4.9c3.1-0.1,5.9,0.6,8.8,1.4c10,3.2,19.8,6.2,28.9,11.5
		c10,5.8,20.2,11.4,29.7,18c0.3,0.2,0.7,0.7,1.1,0.3c0.2-0.2,0.1-0.7,0.1-1.1c-0.2-1.6-1.1-3-2.2-4.2c-2.3-2.5-5.2-4.2-7.9-6.2
		c-3-2.2-6-4.3-7.7-7.9c-0.3-0.6-0.8-0.8-1.2-1.1c-6.6-4.8-13.6-8.9-21-12.5c-7.6-3.6-15.6-5.8-23.7-8.2
		c-12.2-3.6-24.5-4.6-36.9-2.4c-14,2.4-27.4,7.2-40.3,12.9c-0.6,0.2-1.4,0.4-1.2,1.2s0.8,1.4,1.7,1.6c1.2,0.2,2.2-0.2,3.3-0.6
		c4.4-1.8,8.4-4.4,12.9-6.3c8.1-3.6,16.4-5.7,25.1-6.4c6.8-0.6,13.6-0.4,20.5,0.3c6.1,0.6,12.2,1.4,18,3.1
		c13.3,3.6,25.6,9.8,37.5,16.7c1,0.6,1.7,1.4,2.4,2.4c0.4,0.5,1,1.1,0.5,1.7c-0.5,0.6-1.2,0.5-1.8,0.4c-2.7-0.7-5.2-1.7-7.4-3.5
		c-1.2-1-2.3-1.8-3.6-2.6c-14-7.1-28.8-11.7-44.3-14.2C328.3,275.8,325.5,275.8,322.2,276.5z M319.4,306.9c-4-0.2-8.2,0.8-12.3,1.2
		c-6,0.8-11.9,1.8-17.9,2.3c-1.5,0.1-3.3,0-4.5,0.6c-7.7,3.6-15.5,7.3-22.4,12.3c-2.9,2-5.2,4.8-8.3,6.6c-3,1.7-5.7,3.9-8.1,6.5
		c-0.6,0.6-1.5,1.3-0.9,2.1c0.6,0.7,1.8,0.4,2.7,0c0.3-0.1,0.5-0.4,0.7-0.6c7.2-5.3,13.9-11.3,21.3-16.3c4.8-3.3,9.7-6.4,15.4-7.9
		c8.4-2.1,17.1-3.2,25.7-3.6c8.2-0.4,16.3-0.4,24.4,1.3c10.4,2.2,20.4,5.5,29.5,11.3c2.8,1.8,5.2,4.2,7.9,6.1
		c3.8,2.6,7.4,5.5,10.6,8.8c4.2,4.3,8,9,12.5,13.2c2,1.9,4.2,3.6,6.6,5.2c0.9,0.6,1.7,0.5,2.4-0.3c0.8-0.9-0.1-1.4-0.5-2
		c-0.5-0.6-1.1-1-1.5-1.4c-2.6-2-5.3-4-7.9-6.1c-1.4-1.2-2.7-2.6-3.2-4.4c-0.2-0.8-0.5-1.2-1.1-1.7c-3.3-2.8-6.4-5.7-9.7-8.5
		c-7.2-6.3-15.1-11.7-23.6-16c-6.8-3.6-14.4-5.3-22-6.5C330.3,308.1,325,306.7,319.4,306.9z M250.7,284.5c1.3-0.1,2.7-0.3,4-0.8
		c4-1.4,7.7-3.7,11.4-5.9c3.4-1.9,6.5-4.1,10.5-4.9c9.6-1.9,18.7-5.6,28.4-7.6c7.3-1.5,14.5-1.8,21.9-1.1c6.7,0.7,13.3,2.1,19.9,3.8
		c8,2.2,16.1,3.8,23.6,7.4c9.6,4.5,18.1,10.7,26.5,17.2c3.2,2.5,6.2,5,9.4,7.5c0.7,0.5,1.4,1.3,2.2,0.7c0.7-0.6-0.2-1.4-0.6-2
		c-1.6-2.6-3.7-4.8-5.9-6.9c-2-2-4.7-3.2-7-4.8c-10.7-7.9-22.4-13.8-34.9-18.1c-8.4-2.9-17.1-5-25.9-6.3c-4.7-0.7-9.5-0.8-14.2-1.3
		c-3.8-0.5-7.6-0.4-11.2,1.1c-1.1,0.4-2.2,0.6-3.3,0.8c-8,1.5-16,2.7-23.9,5C270,271.4,260,277.2,250.7,284.5z M320.1,337.7
		c-4.2-0.1-8.4,0.4-12.5,1.2c-6.8,1.2-13.4,3-19.6,6.3c-6.7,3.7-12.9,8.3-18.4,13.4c-4.7,4.3-8.9,9.1-12.9,14.2
		c-0.2,0.3-0.8,0.6-0.5,1.1c0.3,0.5,0.9,0.3,1.3,0.2c0.9-0.3,1.5-0.7,2.1-1.2c1.2-1.2,2.5-2.6,3.6-3.9c3-3.6,6-7,9.5-10.2
		c7.9-6.9,16.7-12,26.3-15.8c6-2.4,12-3.7,18.4-3.6c5.9,0.2,11.5,2,17.3,3.2c9.7,1.9,17.2,8.2,23.9,15c5.6,5.7,10.3,12.2,15.4,18.4
		c5.8,7.2,11.4,14.4,17.1,21.6c0.6,0.8,2.9,1.3,3.6,0.7c1.1-1.1-0.1-1.9-0.6-2.6c-3.3-3.7-6.4-7.6-9.1-11.8
		c-1.2-1.8-2.7-3.4-3.9-5.1c-6.6-9.1-13.7-17.9-22.1-25.5c-2.8-2.5-5.5-5.1-8.6-7.2C341.1,339.8,330.8,338,320.1,337.7z M320.5,233
		c-5.6-0.1-10.9,0.5-16.2,1.3c-10.2,1.7-20,4.7-29.5,8.8c-3.6,1.6-7.5,2.6-11,4.5c-1.2,0.7-2.4,1.2-3.3,2.5c-0.7,1-0.4,1.9,0.3,2.8
		c0.9,1.1,1.4,0.1,1.9-0.3c10-6.2,20.7-10.7,32.2-13.3c6.4-1.5,13-2.2,19.5-3c2.4-0.3,4.8-1.1,7.3-0.7c4.8,0.8,9.7,1.2,14.5,1.6
		c5.7,0.7,11.1,1.4,16.3,4c5.7,2.9,11.5,5.3,17.4,7.4c1.8,0.7,4,0.9,5.6,1.9c4.2,3,8.9,5,13.4,7.5c3.7,2.1,7.1,4.6,8.7,8.8
		c0.8,1.8,1.9,1.2,3.1,0.8c1.3-0.5,1.1-1.5,0.7-2.5c-0.5-1.1-1.2-2-2-2.9c-2.7-2.9-5.9-5.1-9.4-7c-6.4-3.6-12.8-7.2-19.6-10
		c-9.1-3.8-18.1-8.2-27.9-10C335.2,234.1,327.8,232.8,320.5,233z M307.8,400.1c0.3,6,0.6,11.4,0.7,16.8c0,1.6,0.8,2.7,1.8,3.6
		c1,1,1.7,0.6,2.1-0.6c0.6-1.5,0.5-3.2,0.3-4.8s-1.2-3.1-1.2-4.6c-0.3-6-1.2-11.9-0.4-17.9c0.7-4.5,2.1-8.6,5.7-11.8
		c4.9-4.4,10-4.6,14.9-0.3c4.5,4,8,9,10,14.5c2.7,7.3,6.1,14,10,20.7s8,13.2,13.8,18.2c1.2,1.1,2.2,2.5,3,4s1.3,3.1,1.1,4.8
		c-0.2,1.5,0.2,1.9,1.6,1.5s2.1-1.5,2-3c0-1.8-0.7-3.6-2-4.8c-3.7-3.1-6.5-7-9.3-10.8c-6.5-9.1-11.6-18.9-16.2-29.2
		c-3.4-7.5-7.5-14.5-13.6-20.2c-1.6-1.4-3.5-2.2-5.6-2.3c-7.6-0.5-15.6,7.7-17.3,14.5C308,392.7,308,396.6,307.8,400.1z
		 M325.7,350.9c-0.5,0-1,0-1.4,0c-0.6,0.1-1.1,0.2-1.5,0.3c-13.4,1.8-24.9,7.5-33.5,18.1c-0.4,0.5-0.7,1-1,1.5
		c-0.3,0.7-0.4,1.4,0.2,2c0.6,0.5,1.3,0.3,2-0.1c1.1-0.6,1.7-1.4,2.4-2.4c1-1.4,1.8-2.9,3.1-4.2c6.1-6.8,14.1-10.3,22.8-12.5
		c6.6-1.7,12.6-0.5,18.2,3.2c2.3,1.5,4.5,3.2,6.4,5.2c4.6,4.6,9.9,8.8,12.6,15c3.6,8.7,10,15.6,14.7,23.7c0.6,1.1,1.3,1.9,2.1,2.9
		c3.6,4.7,7.6,8.9,10.3,14.1c0.5,1,0.9,0.8,1.3,0c0.3-0.5,0.6-1.1,0.6-1.6c0.1-1.3-0.3-2.5-0.9-3.6c-1.1-2-2.5-3.8-3.9-5.5
		c-3-3.3-5.2-7-7.4-10.8c-2.1-3.6-4.7-6.7-6.8-10.3c-3.3-5.6-6.4-11.1-10.4-16.2c-5.3-6.8-11.4-12.6-19.3-16.1
		C332.8,352.2,329.4,351,325.7,350.9z M395.2,251.1c-2.3-3.3-7.9-7.4-11.2-8.5c-1.7-0.6-3.4-1.2-5-1.8c-8.4-3.4-16.9-6.7-25.3-10.2
		c-12-4.9-24.5-5.5-37.2-4.2c-6.2,0.6-12.5,1-18.7,1.2c-4.3,0.2-8.4,1.1-12.5,2.8c-4.9,2.1-9.6,4.8-14.8,6.1c-0.5,0.1-1.2,0-1.2,0.8
		s0.6,1.3,1.3,1.4c1.2,0.1,2.2,0.1,3.4-0.2c3.3-0.9,6.2-2.3,9.3-3.6c5.8-2.5,11.7-4.1,18-4.5c4.6-0.3,9.2-0.1,13.7-0.6
		c2.3-0.2,4.6-0.8,6.9-0.7c3.8,0.2,7.6,0.4,11.4,0.7c5.8,0.3,11.3,1.2,16.8,3c14.1,4.6,27.7,10.5,40.8,17.4
		C392.4,250.8,393.6,251.2,395.2,251.1z M294.3,386.7c1.6-0.7,2.7-1.9,3.6-3.1c4.4-5.4,8.4-11.2,14.6-14.9c2.1-1.2,4-2.2,6.4-2.1
		c3.8,0.1,7,1.9,10,3.9c3.5,2.4,7.2,4.5,10,7.7c4.3,5,7.1,10.9,10,16.9c3.7,7.9,7.6,15.7,12.6,23c4.1,6,9.8,10.9,14.3,16.8
		c0.5,0.7,1.4,1,2.2,1.4c0.2,0.1,0.7,0.2,0.9,0.1c0.4-0.2,0.2-0.7,0-1c-1.7-3.3-3.6-6.4-6-9c-3.5-3.6-6.5-7.4-9.2-11.6
		c-4.4-7.1-7.6-14.8-11.5-22.2c-4.2-8.1-8.3-16.4-16.8-21.2c-3.4-1.8-6.1-4.5-9.7-6c-3.4-1.5-6.9-2.5-10.4-1
		c-7.6,3.3-13.9,8.1-18.2,15.3C295.9,381.8,294.8,384,294.3,386.7z M250.4,351.9c0.3,0.4,0.5,0.3,0.8,0.3c2.4-0.3,3.7-2.1,5.2-3.8
		c2.1-2.6,3.9-5.6,7.7-6.2c0.4-0.1,0.7-0.5,1-0.8c4.8-4.3,9.8-8.4,15.5-11.5c6.7-3.9,13.9-6.8,21.7-7.8c7.1-0.9,14.2-1.1,21.4-0.5
		s14.1,1.7,20.9,3.9c4.5,1.4,8.6,3.9,13.2,5.5c8.4,3,15.8,7.4,21.2,14.9c0.9,1.2,2.3,1.5,3.6,1.6c1.5,0.2,2-0.5,1.4-1.9
		c-1.1-2.6-2.8-4.6-5.1-6c-1.7-1.1-3.1-2.4-4.6-3.6c-3.5-3-6.9-6-10.8-8.5c-0.8-0.5-1.4-1.2-2.7-0.9c0.5,0.9,1,1.6,1.3,2.4
		c0.2,0.4,0.8,0.8,0.4,1.2c-0.4,0.5-1,0.5-1.5,0.3c-1.5-0.4-3.1-1-4.4-1.7c-4.7-2.8-9.5-5-14.9-6.3c-9-2.3-18-4.8-27.6-4
		c-7.5,0.6-14.9,1.7-22.1,3.8c-8.7,2.6-16.5,6.8-23.6,12.7c-4.8,3.9-10.1,7.2-14.3,11.8C252.8,348.2,251.4,350,250.4,351.9z
		 M409.1,325.5c-0.2-0.5-0.3-1.2-0.6-1.7c-1.5-2.9-3.4-5.6-6.1-7.5c-9.6-6.7-18.4-14.7-29.3-19.8c-7.2-3.4-14.3-6.7-22-8.8
		c-5.2-1.4-10.4-2.5-15.8-2c-5.4,0.5-10.7,1.3-15.9,2c-3.7,0.5-7.5,0.8-11.2,1.1c-6,0.6-11.4,2.5-16.9,4.8
		c-3.4,1.4-6.7,2.8-10.1,4.2c-0.6,0.3-1.2,0.5-1,1.2c0.2,0.9,0.9,0.7,1.4,0.7c0.4,0,0.7-0.1,1.1-0.2c4.8-1.2,9.4-3.1,13.9-4.9
		c5.6-2.2,11.1-3.2,17-3.6c4-0.3,8.2-0.3,12-1.4c9.9-2.7,19.6-1.6,29.1,1.9c10.1,3.7,19.6,8.6,28.6,14.5c7.7,4.9,15,10.3,20.9,17.2
		c0.9,1,1.6,1.9,2.4,2.9c0.5,0.6,1.2,0.6,1.8,0.4C409,326.4,409.1,326.1,409.1,325.5z M253.6,445.8c0.2-0.6,0.3-0.8,0.4-1.1
		c1.6-5.6,1.9-11.2,2-17c0.1-9.8,1.6-19.3,4.1-28.7c1-3.7,2-7.6,2.7-11.4c0.5-2.7,0.8-5.3,1.7-7.8c2.2-5.8,6-10.5,10-14.9
		c1.9-2.1,3.8-4.1,5.9-6.3c-1-0.4-1.6-0.1-2.4,0.3c-1.2,0.8-2.4,1.7-3.5,2.8c-4.5,4.6-8.6,9.5-13.3,13.9c-4.6,4.2-6.5,10.2-8,16.1
		c-1.3,5.7-2.1,11.4-4.8,16.7c-1.2,2.6-2.3,5.2-3.3,7.9c-1.4,4-2.2,8.1-0.1,12.1c0.6,1.2,1.2,2.9,2.4,2.8c1.5-0.2,2.7-1.6,3.3-3.3
		c0.2-0.5,0.3-1,0.3-1.3c0.1-1.6-0.1-3.2-0.6-4.8c-0.5-1.8-1-3.6-1.3-5.6c-0.5-2.8,1.3-5,1.7-7.6c1.3-8.8,4.6-17.1,7.3-25.5
		c0.4-1.2,1-2.3,1.9-3.2c1.1-1,1.8-0.7,2.1,0.8c0.3,1.2-0.2,2.5-0.6,3.6c-1.5,5-3.3,10-4.8,15c-1.8,6-3.3,12-3,18.2
		c0.3,5.3-0.5,10.5-1.1,15.6C252.6,437.3,252.1,441.4,253.6,445.8z M329.2,363.9c0.6,0.3,0.8,0.5,1,0.6c5.9,2.9,11.4,6.1,15.9,11
		c0.7,0.8,1,0.5,1.2-0.3c0.6-2-0.4-3.6-1.3-5.2c-2-3.3-4.7-5.9-7.8-8.1c-3.5-2.4-7-4.9-11.3-5.2c-8.2-0.6-15.4,2.3-22,6.6
		c-5.4,3.5-9.6,8.3-13.2,13.4c-5.4,7.8-9.2,16.1-9.5,25.7c-0.3,8.6,1.2,17.2,2.7,25.6c0.3,1.4,1.2,2,2.3,1.9
		c1.2-0.2,1.1-1.4,0.9-2.3c-1.2-6-2.1-12-2.5-18.1c-0.3-5.6-0.5-11,0.7-16.5c1-4.3,3.5-7.8,5.6-11.5c5.5-9.4,12.6-16.8,23-20.4
		c6.5-2.3,13-2.7,19.1,1.2c0.6,0.4,1.2,0.7,1.4,1.4c-1,0.4-1.8,0.2-2.7,0.1C331.5,363.9,330.6,363.9,329.2,363.9z M367.8,443.1
		c-0.7-0.7-1.1-1-1.4-1.3c-0.4-0.3-0.8-0.6-1.1-1c-11.9-11.3-19.9-25.2-25.9-40.2c-2.1-5.3-4-10.6-7.9-14.9
		c-5.2-5.8-11.9-4.8-15,2.3c-2,4.5-2.7,9.3-2.1,14.3c0.2,1.7,1,3.2,1.2,4.8c0.5,3.5,1,6.8,1.4,10.3c0.2,1.5,0.6,3.1,1.5,4.3
		c0.4,0.6,1.1,0.9,1.7,0.7c0.9-0.2,0.6-1,0.6-1.5c-0.1-1.2-0.2-2.5-0.4-3.7c-1.1-6.5-3.4-12.9-3.6-19.6c-0.1-3.6,0.1-7.1,2.3-10.3
		c1.8-2.5,4.5-3.2,7.2-1.6c1.5,0.9,2.8,2,3.9,3.4c2.7,3.2,3.8,7,5.3,10.8c3.2,8.3,6.7,16.3,11.1,23.9c4,6.9,8.8,13.1,15.4,17.8
		C363.8,442.5,365.5,443.1,367.8,443.1z M299.1,335.8c2.9,1.2,5.7,0.8,8.4,0.1c7.6-1.9,15.2-2.3,22.8-1.1
		c11.2,1.7,21.1,6.2,29.8,13.6c9.9,8.5,18.4,18.3,26.3,28.7c2.4,3.2,4.7,6.4,7.1,9.6c0.9,1.2,3,1.7,3.6,1c1-1.1-0.1-2-0.6-2.8
		c-3.2-4.9-6.7-9.4-10.6-13.7c-4.2-4.9-8.8-9.4-12.8-14.5c-8.5-10.8-19.4-18.2-32.4-22.5c-6-2-12.2-3.2-18.6-2.6c-6,0.6-12,2-18,2.5
		C302.4,334.3,300.7,334.5,299.1,335.8z M241.7,353.8c3.6-1.2,5.6-3.8,7.6-6.5c1.5-2.1,2.9-4.4,5-6c3.9-3.1,7.9-6,11.8-9
		c7-5.3,14.1-10.3,22.7-12.6c6.6-1.7,13.3-2.9,20.1-4.2c5-1,10.1-1.1,15.2-0.4c2.4,0.3,4.7,1.4,7.1,1.7c3.8,0.5,7.5,1.4,11,2.6
		c4.3,1.4,8.6,2.9,13.1,4.3c0.6,0.2,1.3,0.8,1.7-0.2c0.3-0.8-0.3-1.2-0.8-1.6c-1-0.8-2.1-1.3-3.4-1.7c-9.1-2.9-18.2-5.8-27.8-6.8
		c-5.3-0.6-10.6-0.6-15.8,0.2c-4.1,0.7-8.2,1.5-12.3,1.9c-9.8,0.8-18.7,4.1-26.2,10.6c-4,3.5-8.3,6.4-12.6,9.4
		c-3.7,2.6-7.4,5.3-10.5,8.6C244.9,346.9,243,350,241.7,353.8z M323.2,325.1c-2.6-0.2-5.6,0.4-8.3,1.6c-1,0.5-2.8,1-2.4,1.9
		c0.4,1.2,2.2,1.2,3.5,1.2c0.2,0,0.5-0.1,0.7-0.1c3.1-0.4,6-1.5,9-2c3.6-0.6,6.9,1.2,10.3,1.7c9.6,1.4,17.9,6.6,25.9,11.6
		c5.8,3.6,10.6,8.6,15.4,13.4c7.3,7.3,14,15.1,20.2,23.5c0.7,0.9,1.3,1.7,2.5,1c1-0.8,0.5-1.8-0.1-2.7c-0.3-0.4-0.6-0.6-0.9-0.9
		c-1.5-1.7-3.2-3.3-4.5-5.1c-6.6-8.7-13.3-17.4-21.7-24.7c-9.6-8.5-20.7-14.1-32.9-17.6C334.4,326.3,329.1,325,323.2,325.1z
		 M235,321.5c0.4-0.3,0.8-0.6,1.1-0.9c5.2-4,10.5-7.9,16-11.4c10-6.3,20.5-11.8,31.4-16.6c11-4.8,22.2-8.7,34.6-8.4
		c2.5,0.1,5.2-0.4,7.6-2c-0.6-0.2-1-0.4-1.3-0.4c-5.8-0.8-11.5-0.3-17.3,0.4c-7.7,1-14.6,3.9-21.7,6.8
		c-13.9,5.7-26.5,13.7-39.6,20.7c-1.6,0.9-3.2,1.8-4.6,3C238.1,315,235.5,317.6,235,321.5z M355.2,302.8c-0.7-0.9-1.4-1.2-2.1-1.4
		c-6.8-3-13.8-5.2-20.9-7.1c-4.7-1.2-9.5-1.5-14.3-0.3c-1,0.3-1.9,0.7-3,0.7c-6.3,0.1-12.5,1.7-18.4,3.6c-7.5,2.4-14.3,6.1-21.1,10
		c-4.5,2.6-9.4,4.6-13.5,7.9c-0.5,0.4-1.1,0.7-1.2,1.4c2.1,0.1,4-0.5,5.8-1.4c5.8-3.2,11.5-6.4,17.4-9.5c4.7-2.5,9.3-5.2,14.5-6.4
		c9.8-2.4,19.8-3.5,30-2.7c7.5,0.6,14.8,1.9,21.9,4.5C351.7,302.5,353.3,302.7,355.2,302.8z M355.3,453.1c0.8,0.1,1.7,0,2.1-0.8
		c0.5-1-0.7-1.2-1.2-1.4c-6.4-5.3-12.7-10.8-18.3-16.7c-1-1-1.9-1.9-2.4-3.3c-1-2.4-2-4.7-3.1-7c-2.1-4.5-4.3-8.9-5.4-13.7
		c-0.4-1.7-0.5-3.6-1.1-5.2c-0.7-1.8-1.1-3.6-1.3-5.5c-0.4-2.6-0.4-5.2-1.4-7.7c-0.3-0.6-0.6-1.2-1.4-1.1c-0.9,0.2-0.9,0.8-0.9,1.5
		c0,4.1,0.4,8.4,1.2,12.4c1.5,8.4,4.6,16.3,8.4,24c3.6,7.1,8.4,13.1,14.8,17.9c2.3,1.7,5,3.1,7,5.3
		C352.9,452.5,354.1,453.1,355.3,453.1z M285.6,376.8c-2.6,2-4.2,4.5-5.5,7.3c-3.2,7.1-4.1,14.8-4.2,22.5
		c-0.2,10.8,2.1,21.4,4.9,31.8c2.5,9.6,6.1,18.8,12.7,26.5c1.2,1.5,2,3.4,3.6,4.6c1.2,1,3,0.9,3.5-0.2c0.8-1.4-0.7-1.9-1.4-2.6
		c-0.2-0.2-0.5-0.3-0.8-0.4c-1.2-0.3-1.8-1.1-2.4-1.9c-4.9-6.8-8.1-14.5-10.9-22.4c-4.3-12-6.5-24.5-6.9-37.2
		c-0.2-5.7,1.4-11,3.4-16.3C282.8,384.6,284.3,380.8,285.6,376.8z M318.2,276.3c-0.4-0.5-0.9-0.6-1.3-0.7c-3.1-0.6-6.2-0.7-9.3-0.2
		c-8.5,1.2-16.7,3.6-24.5,7.5c-10.2,5.1-20.4,10.1-30.6,15.1c-3.8,1.9-7.9,3.5-11.4,6c-3,2.1-5.3,4.7-6.5,8.6
		c3.5-2.3,6.5-4.2,9.5-6.3c5.5-3.9,11.9-6.2,17.8-9.6c8.9-5.2,18-10.2,27.8-13.7c7.3-2.7,14.8-4.3,22.6-5.1
		C314.2,277.6,316.2,277.5,318.2,276.3z M340.1,291.7c1.1,2,2.6,3,4.2,3.6c2.4,1,4.9,1.5,7.3,2.2c3.4,1,6.5,2.2,9.4,4.5
		c2.8,2.2,6.3,3.3,9.5,4.8c4.7,2.2,9.1,4.7,12.6,8.6c1,1.1,1.6,2.3,2.9,3.2c2.7,1.9,5.2,4.2,7.6,6.5c4.1,4,8,8.4,12.5,12.1
		c1.1,0.9,2,2.1,3.8,2.6c-2.5-4.9-5.5-9.1-9.2-12.7c-4-3.8-8.4-7.4-12.7-11c-11.1-10-24-16.9-37.9-22.1
		C347.2,292.8,343.9,292,340.1,291.7z M366.6,451.2c0.5-0.1,1.1-0.1,1.3-0.7c0.3-0.6,0.1-1.1-0.2-1.5c-0.5-0.8-1.2-1.2-2-1.7
		c-1.2-0.7-2.5-1.3-3.7-2.1c-9.3-6-16.9-13.3-20.2-24.3c-0.1-0.5-0.3-0.8-0.7-1c-3.3-1.4-4.2-4.5-5.1-7.6c-0.8-2.6-1.2-5.2-2.1-7.7
		c-0.6-1.4-1.3-2.7-2.8-3.3c-0.6-0.3-1.2-0.5-1.6-0.1c-0.5,0.4-0.1,1,0,1.5c1.2,5.8,3.5,11.1,6.1,16.3c2.4,4.7,4.6,9.6,7.8,13.8
		c5.6,7.3,13.1,12.5,20.7,17.4C364.9,450.9,365.8,451.1,366.6,451.2z M269.1,408c-0.1,3.2,0.7,5.5,1.3,7.9
		c1.7,6.1,2.2,12.5,2.8,18.8c0.8,8.8,3.4,17.1,7.7,24.9c2.4,4.3,5.3,8.4,9.4,11.3c0.9,0.6,1.9,1.6,2.8,0.8c0.6-0.7-0.7-1.5-1.2-2.3
		c-0.1-0.1-0.2-0.2-0.2-0.3c-4.6-4.5-8-9.8-10.4-15.7c-1.7-4.1-3.7-8.4-4.3-12.8c-0.8-5.6-1.7-11.1-2.8-16.7
		c-1.1-5.7-2-11.3-1.9-17.2c0-1.9,0.3-3.9,0.6-5.9c0.1-0.7,0.3-1.3-0.6-1.7c-1-0.4-1.2,0.4-1.6,1c-0.3,0.5-0.5,1-0.6,1.4
		C269.4,403.9,269.2,406.3,269.1,408z M290.8,307.1c0.6,0.7,1.2,0.5,1.9,0.5c3.2,0.1,6.2-0.9,9.3-1.6c2.6-0.7,5.2-1.6,7.8-1.9
		c9.4-1.1,18.8-0.3,28,1.5c6,1.2,11.9,3,17.9,4.3c3.1,0.7,6.2,1.1,9.3,1.7c4.5,1.1,8.7,2.7,12.7,5.2c0.4,0.2,0.8,0.7,1.2,0.1
		s0-0.9-0.3-1.2c-0.7-0.8-1.4-1.2-2.3-1.7c-3.5-1.9-7.2-3.5-11-4.6c-8.6-2.5-17.4-4.4-26.1-6.5c-5.7-1.3-11.5-2.1-17.4-2
		s-11.6,0.9-17.4,2.1C299.8,304,295.2,305.1,290.8,307.1z M381.2,427.2c0.5,0,1.1-0.1,1.2-0.5c0.3-0.5-0.2-0.9-0.5-1.2
		c-0.7-1-1.3-2-2.1-2.9c-7.9-9.4-14.6-19.5-19.9-30.6c-2.1-4.4-4.6-8.6-7.9-12.3c-0.3-0.3-0.5-1.1-1-0.9c-0.6,0.2-0.8,1-0.7,1.5
		c0.1,1.6,0.6,3.2,1.2,4.6c2.6,5.7,5.7,11,8.8,16.3c5.1,8.4,10.9,16.1,16.7,24.1C378.4,426.9,379.8,427,381.2,427.2z M236.6,385.8
		c0,0.3-0.2,0.8,0.2,1c0.4,0.2,0.7,0,1-0.2c0.7-0.5,1-1.2,1.2-1.9c0.7-1.6,1.2-3.2,2-4.8c3.4-6.8,8.3-12.7,12.1-19.2
		c0.2-0.4,0.7-0.7,1.1-1c2.3-1.7,4.4-3.6,6.3-5.8c6.2-7.1,13.1-13.3,21.8-17.4c2.2-1.1,4.2-2.4,6-4c0.4-0.4,1.1-0.8,0.7-1.4
		s-1.2-0.6-1.8-0.3c-0.3,0.1-0.6,0.2-0.8,0.4c-8.6,4.2-16.3,9.8-23.4,16.2c-8.6,7.9-15.2,17.5-21.8,26.9
		C238.6,377.5,236.9,381.5,236.6,385.8z M298.1,424.5c-0.2,0-0.3,0-0.5,0c0-4.3,0-8.7,0-13.1c0-1.1-0.1-2-0.2-3.1
		c0-0.5,0-1.2-0.8-1.2c-0.7,0-1.2,0.1-1.5,0.7s-0.6,1.3-0.5,2c0.1,1.1,0.2,2.1,0.4,3.2c0.4,2.5,1.2,5,1.2,7.6c0,1.3-0.3,2.7-2.1,2.8
		c-1.8,0.2-1.9-1.2-2.1-2.4c-1.2-9-1.4-18,1.1-26.8c0.3-1.1,0.9-2.6,0-3c-1-0.5-1.6,1.1-2.2,1.9c-1.9,3.1-2.9,6.1-2.3,10.1
		c0.6,4.3,0.1,8.8,0.9,13.2c1.1,6,2.7,11.8,5.3,17.4c0.2,0.4,0.3,1,0.8,0.9c1.1-0.2,2.1-0.4,2.9-1.2c0.7-0.8,0.4-1.4-0.2-2.1
		c-0.4-0.5-0.2-0.9-0.2-1.3C298.1,428.2,298.1,426.3,298.1,424.5z M352.4,458.7c0-0.7-0.5-1.1-0.9-1.5c-3.2-4.2-7.6-7-11.7-10.1
		c-3.8-3-7.5-6-10-10.4c-0.9-1.4-1-3.2-1.6-4.7c-1-1.8-2.7-2-3.9-0.4c-1.7,2-1.6,5,0.2,7c1.8,2,3.7,3.8,5.7,5.8
		c5.5,5.4,11.5,10,18.2,13.6C349.6,458.7,350.9,459,352.4,458.7z M356.2,248c-1.2-1.3-2.4-1.8-3.6-2.4c-4.7-2.4-9.7-3.5-14.9-3.9
		c-8.4-0.9-16.9-0.6-25.3-0.2c-1.8,0.1-3.7,0-5.5,0.6c-0.5,0.1-1.1,0.2-1.2,0.7c-0.1,0.6,0.6,0.8,1,0.9c0.6,0.2,1.2,0.4,1.7,0.5
		c2.3,0.6,4.6,0.2,6.9,0.1c11-0.5,21.9,0.4,32.6,2.7C350.5,247.4,353.1,248.4,356.2,248z M314.3,217.5c-2.5-0.2-5.1-0.6-7.5-0.1
		c-9,2-18.1,3.7-26.7,7.3c-3.6,1.4-7.3,2.5-10.8,4.4c-2.1,1.2-4.1,2.7-5.8,5.2c2.4-0.9,4.3-1.5,6.2-2.2c5.6-2,10.7-5,16.3-6.7
		c6.5-1.9,13.2-2.8,19.8-4.6C308.8,220.1,311.7,219.1,314.3,217.5z M385.5,237.3c-0.5-1.3-1.5-1.8-2.5-2.5c-4.3-3-9-5.1-14.2-6.4
		c-6.5-1.6-12.6-4.7-19-6.6c-4.7-1.3-9.3-2.8-14.3-2c-1,0.2-2.7,0-2.7,1.1s1.7,0.9,2.7,1.2c5.9,1.2,11.8,1.4,17.6,3.6
		c9.4,3.6,19.2,6.4,28.1,11.1C382.4,237.4,383.8,237.5,385.5,237.3z M302.6,401.5c-0.8,1.2-0.7,2.5-1,3.7c-0.8,4.8,0.2,9.6,0,14.5
		c-0.2,3.8,0.3,7.8,1.1,11.5c1,4.6,3,8.7,5.9,12.6c0.4,0.5,0.7,1.2,1.3,1.1c0.8-0.1,0.9-1,1-1.5c0.3-1.9,0.3-3.7-0.8-5.6
		c-3.1-5-4.4-10.7-5.2-16.4c-0.6-4.2-0.9-8.5-1.2-12.8C303.6,406.2,303.6,403.8,302.6,401.5z M253.7,378.9c-2.2,1.9-3.6,4.4-5,6.9
		c-2.7,4.8-5.3,9.6-9.4,13.3c-1.2,1.1-1.3,2.6-1.4,4.1c0,0.3-0.2,0.8,0.3,1c0.4,0.2,0.7-0.2,0.9-0.5c1.5-1.4,2.5-3.2,3.5-5
		c0.3-0.6,0.2-1.7,1.2-1.5c0.9,0.2,1.1,1.2,1.1,2c0,0.6-0.1,1.1-0.2,1.6c-0.6,2.7-1.8,5.2-2.9,7.7c-1.3,3.3-2.9,6.5-2.7,10.3
		c0,0.5-0.3,1.2,0.4,1.4c0.6,0.2,0.9-0.5,1.2-0.9c1.2-1.4,1.9-3.2,2.3-5c1.6-6.9,3.7-13.6,6-20.4C250.5,389,252.1,384,253.7,378.9z
		 M320.6,468.9c-2.2-1.6-4.2-3-6-4.4c-3.1-2.4-5.5-5.2-6.4-9.1c-1.2-4.9-3-9.7-5.4-14.1c-0.7-1.2-1.3-2.4-2.4-3.4
		c-0.7-0.6-1.4-1.1-2.2-0.4s-1.7,1.5-1.2,2.8c2.9,6,5.1,12.3,8.6,18c2.6,4.1,5.9,7.7,10.2,10C317.2,469,318.6,469.5,320.6,468.9z
		 M375.6,320.1c0.4,0.5,0.5,0.7,0.6,0.9c8.7,9.2,18.5,17.3,28.1,25.4c1,0.8,1.9,1.7,3.6,1.6c-1.7-3.5-3.9-6.3-7-8.4
		c-2.2-1.5-4-3.4-5.8-5.3c-2.8-3.2-5.4-6.5-8.5-9.4C383.5,322.2,380.2,320.2,375.6,320.1z M265.7,355c-0.9,0.2-1.4,0.8-2,1.2
		c-3.5,2.6-6.3,5.7-8.8,9c-6.9,9.2-11.2,20.2-18.7,29.5c1.8-0.5,3.1-1.1,4.2-1.9c3.2-2.4,4.6-5.9,6.2-9.2c2-4.1,3.3-8.7,6.2-12.4
		c1.9-2.4,4.1-4.6,6.4-6.7c1.9-1.8,3.8-3.7,5.4-6C265.3,357.5,265.9,356.4,265.7,355z M292.2,437.7c-0.1-1.5-0.7-3.3-1.9-4.7
		c-0.5-0.6-1-1.2-1.7-1c-0.7,0.3-0.9,1.1-0.9,1.8c-0.1,1.2,0.1,2.4,0.5,3.6c1.4,4.1,2.8,8.3,4.2,12.3c1.8,5,4.2,9.7,7.6,13.9
		c0.4,0.6,0.9,1.5,1.5,1.2c0.7-0.3,0.6-1.3,0.4-2.1c-0.3-2.1-0.9-4-1.9-6c-1.4-2.6-2.9-5.1-4.2-7.7
		C294,445.7,291.9,442.3,292.2,437.7z M311.1,429.5c0,6.2,5.6,15.1,11.4,18.2c0.4,0.2,0.6,0.2,0.9-0.1c1.2-1,1.1-2.2-0.2-3.2
		c-0.5-0.4-1.1-0.9-1.5-1.2c-2.9-2.7-3.8-6.3-4.9-10c-0.8-2.6-1.4-5.2-2.7-7.6c-0.9-1.5-1.2-1.5-2.1,0
		C311.3,426.9,311,428.1,311.1,429.5z M236,336.7c0,0.9,0.4,1.6,1.2,2.1c0.8,0.4,1.2-0.3,1.6-0.7c1.2-1.1,2.3-2.1,3.4-3.2
		c3.8-3.9,7.7-8,12.9-10.4c1.2-0.6,2.2-1.4,3-2.5c0.4-0.5,0.8-1.2,0.5-1.8c-0.4-0.8-1.2-1-1.8-0.9c-2.2,0.3-4.4,1.1-5.5,3
		c-1.7,3.1-4.4,4.9-7.2,6.8c-2.3,1.5-4.8,3-6.7,5C236.6,335,236.1,335.8,236,336.7z M270.5,253.5c-3.3,2.5-6.9,4-10.6,5.6
		c-3.5,1.4-6.9,2.8-10.1,4.9c-2.1,1.3-3.9,3-5.8,5.5c4.1-1.3,7.4-3.3,10.8-4.9c3.2-1.5,6.3-3,9.9-3.3c0.8-0.1,1.5,0.4,2.3-0.1
		C268.7,260.2,270.8,255.8,270.5,253.5z M268.3,426c0-1.3,0-2.6,0-3.9c0-0.8-0.2-1.5-0.6-2.2c-0.2-0.5-0.5-0.9-1.1-0.8
		c-0.8,0.1-0.5,0.8-0.4,1.2c0.2,2.3,0.3,4.5,0.2,6.8c-0.4,5.5-0.3,10.9,0.5,16.4c0.3,2,0.8,4.1,1.5,6c0.5,1.2,1.7,1.9,2.9,1.6
		s0.8-1.5,0.7-2.4c-0.5-3.7-1.7-7.3-2.5-10.9C268.8,433.8,268.5,429.9,268.3,426z M318.7,342.6c-4.8-1.1-9.4-0.8-13.8,1.5
		c-1.7,0.9-3.5,1.9-5.3,2.6c-3.2,1.2-6.4,2.5-9.6,3.9c-2.8,1.2-5.4,3-7.5,5.8c4.5-1.2,8.4-3.4,12.4-5.3c5.5-2.7,10.8-5.4,16.9-6.4
		C314.3,344.3,316.7,344,318.7,342.6z M249,317.6c2.9,0.1,5-1.2,7-2.7c3.7-2.6,7.6-5.2,11.7-7.1c2.1-1,4.2-2.1,6.3-3.3
		c0.7-0.4,1.7-0.7,1.4-1.5c-0.4-0.9-1.5-0.8-2.4-0.8c-0.2,0-0.5,0.1-0.7,0.2c-6.4,3.2-13,6-18.7,10.5
		C252,314.2,250.3,315.5,249,317.6z M267.9,352.9c2.9-0.8,5-2.1,7.1-3.6c5.9-4.3,11.4-9,19.4-10.5c-2.6-0.8-2.8-1-4-3.2
		c-2.2,1.9-4.7,3.4-7.3,4.8c-2.9,1.5-5.8,3.2-8.4,5C271.9,347.4,269.6,349.6,267.9,352.9z M234.8,300.9c9.1-3.8,17.7-7.6,26.3-11.2
		c0.9-0.4,1.5-0.9,2.1-1.5c0.5-0.7,0.8-1.4,0.2-2.1c-0.5-0.7-1.2-0.7-1.9-0.5c-1.2,0.4-2.3,1-3.3,1.7c-2.4,1.9-5,3.2-7.8,4.3
		c-3.3,1.3-6.5,2.5-9.6,4.2C238.7,297,236.6,298.3,234.8,300.9z M336.6,465.5c-0.5-1.4-1.2-2.7-2.5-3.4c-4.1-2.3-7.5-5.7-10.9-8.8
		c-2.1-1.9-4.3-3.9-6.9-5.3c-1.2-0.7-2.6-1.3-4.4-1.2C319.9,453.4,325.7,462.5,336.6,465.5z M276.3,253.7c2.7,0.3,4.9,0.3,6.8-1.5
		c0.9-0.9,2-1.2,3.2-1.6c2.4-0.8,4.8-1.3,7.2-2.1c1.8-0.6,3.6-1.1,5.1-2.4c0.5-0.5,1.2-1,1-1.6c-0.3-0.8-1.2-0.4-1.7-0.3
		c-4.7,0.9-9.4,1.9-13.8,3.9C281.1,249.5,278.4,251,276.3,253.7z M342.6,460.8c-0.9-1.3-2.1-2.2-3.3-3.2c-3.5-3.1-7.2-5.9-11-8.5
		c-0.7-0.5-1.2-0.6-1.9,0s-0.4,1.2-0.1,1.7c0.4,0.6,0.9,1.2,1.3,1.6c3.7,3.9,8.4,6.2,13.3,8.4C341.5,461.1,342.2,461.5,342.6,460.8z
		 M311.9,451.4c-0.8,0.4-1.2,1-1.1,1.8c0.2,0.9,0.6,1.7,1.2,2.4c2.8,3.6,6,6.5,10.2,8.5c0.4,0.2,0.9,0.7,1.2,0.3
		c0.4-0.4,0.1-1-0.1-1.5c-0.7-1.4-1.9-2.4-3.1-3.4c-2.8-2.4-6.3-4.1-7.9-7.8C312.2,451.6,312,451.5,311.9,451.4z M251.2,249.3
		c2.9-1,5.5-1.9,8-3.2c1.6-0.8,3.2-1.8,4.4-3.3c0.4-0.4,1-0.8,0.7-1.3s-1-0.4-1.4-0.3c-4.3,0.6-7.9,2.4-10.8,5.8
		C251.7,247.5,251.3,248.2,251.2,249.3z M303.3,392.9c3-4.1,3.7-9,6-13.2c0.3-0.6,0-1.4-0.7-1.7s-1.1,0.4-1.4,0.8
		c-1.9,2.3-3.2,4.9-3.9,7.8C302.6,388.5,302,390.6,303.3,392.9z M292.7,328.4c0.1,0.1,0.2,0.2,0.3,0.3c2.4-0.4,4.8-0.7,7.2-1.1
		c3.4-0.6,6.6-1.2,9.9-2.3c0.4-0.1,1.1-0.2,1-0.9c-0.1-0.6-0.6-0.7-1.1-0.8c-0.4-0.1-0.7,0-1.1,0c-5.5,0.3-10.7,1.9-15.5,4.4
		C293.2,328.2,292.9,328.3,292.7,328.4z M239,287.2c0.3,0,0.5,0,0.7,0c4.2-1,7.2-3.7,10.2-6.6c0.2-0.2,0.4-0.5,0.2-0.8
		c-0.3-0.3-0.7-0.2-1-0.1c-4.1,1-7.8,2.9-10.6,6.1c-0.3,0.3-0.6,0.7-0.4,1.2C238.2,287.4,238.8,287.1,239,287.2z M239.4,356.3
		c-2.3,0.1-6.4,3.8-6.7,6.2c-0.1,1,0.1,1.7,0.8,2.5c1,1.1,2.1,1.1,2.7-0.3c1.2-2.5,2.1-5.1,4-7.3
		C240.8,356.8,240.4,356.2,239.4,356.3z M246.8,320.6c-0.1-0.9-0.7-0.6-1.2-0.5c-3.7,1-7.1,2.8-9.4,6c-0.4,0.6-1.1,1.4-0.4,2.1
		c0.7,0.6,1.5,0.1,2.1-0.4c2.6-2,5.2-4.1,7.8-6.2C246.3,321.4,246.5,320.9,246.8,320.6z M242.3,363.8c-2.6,1.2-4.2,3.3-5.8,5.3
		c-1.1,1.3-1.9,2.9-2.3,4.6c-0.1,0.5-0.3,1.2,0.2,1.5c0.6,0.3,1.2,0.1,1.8-0.3c1-0.7,1.4-1.7,1.9-2.8c0.8-1.7,1.4-3.5,2.7-5
		C241.7,366.4,242.3,365.3,242.3,363.8z M292.4,333.5c5.8,1.1,10.4-2.6,15.6-3.5C302.4,329.6,297,329.8,292.4,333.5z M283.4,473.5
		c1.5,0,2-0.8,1.2-1.9c-1.7-2.3-3.6-4.4-5.6-6.5c-0.2-0.3-0.5-0.6-1-0.4c-0.6,0.3-0.3,0.7-0.2,1.1c0.7,2.7,2,5.1,4,7.1
		C282.3,473.3,282.8,473.6,283.4,473.5z M319.4,370.6c-2.7,0.3-5.3,0.9-7.4,2.9c-0.7,0.6-1,1.3-0.5,2.1c0.5,0.8,1.2,0.5,1.9,0.2
		c2.2-1.1,4.4-2.1,6.5-3.2c0.6-0.3,1.6-0.6,1.5-1.3C321.3,370.2,320.2,370.8,319.4,370.6z M248.7,257c0.3,0.5-0.1,1.3,0.7,1.7
		c0.7,0.4,1.2-0.2,1.7-0.6c0.8-0.7,1.6-1.1,2.7-1.2c0.8-0.1,1.5-0.4,2.2-0.8c0.9-0.5,1.2-1.2,0.1-1.7c-1.7-1-3.6-1.1-5.5-0.4
		C249.3,254.6,248.9,255.7,248.7,257z M298,390.1c-0.9,0.9-1,1.8-1.2,2.8c-0.7,2.6-1.1,5.3-1,8c0,0.6,0.1,1.2,0.7,1.2
		c0.7,0.1,0.9-0.6,1.1-1c0.1-0.3,0.3-0.6,0.3-0.9c0.3-2.2,0.7-4.3,0.8-6.5C298.9,392.5,298.7,391.2,298,390.1z M277.6,378.7
		c-2.2,2.7-3.4,5.9-4.3,9.2c-0.2,0.7-0.8,1.7,0.1,2c0.8,0.3,1.4-0.6,1.9-1.2c0.1-0.1,0.2-0.3,0.3-0.5
		C276.5,385,277.5,381.9,277.6,378.7z M244.1,359.9c0.2,0.6,0,1.3,0.8,1.6c0.7,0.3,1.2-0.2,1.5-0.7c1-1.2,1.9-2.6,2.8-3.9
		c0.5-0.8,0.4-1.5-0.9-1.4C246.4,355.7,244.1,358,244.1,359.9z M326.4,392.7c0.1,1.4,0.8,3.2,2,4.6c0.3,0.3,0.6,0.7,1.1,0.5
		c0.4-0.2,0.5-0.6,0.6-1.1c0.2-1.9-0.8-3.5-1.5-5c-0.3-0.6-0.7-1.3-1.4-1.2C326.3,390.9,326.4,391.6,326.4,392.7z M319.6,427.1
		c0.1,1.8,1,3,2.2,2.8c1.1-0.2,2.6,0.2,2.8-1.5c0.1-1.1-2.3-2.9-3.6-2.8C320,425.6,319.7,426.4,319.6,427.1z M276.9,258.4
		c0.9-0.1,1.8-0.2,2.8-0.4c0.4-0.1,1.3-0.4,0.6-1.1c-1.2-1-2.7-1.2-4.2-0.9s-2.7,1.2-3.1,2.8c-0.1,0.3-0.1,0.6,0.2,0.8
		c0.4,0.3,0.7-0.1,0.9-0.3C274.8,258.6,275.6,258.1,276.9,258.4z M276.2,462.1c0.9,0.1,1.3-0.4,1.1-1.2c-0.5-1.7-1.6-3-3.1-3.9
		c-0.5-0.3-0.9-0.3-1.2,0.3C272.3,459.2,274.1,462.1,276.2,462.1z M238.5,350.2c-0.3-1.2-0.4-2.4-1.8-2.7c-0.8-0.2-2.6,1.9-2.4,3
		c0.3,1.3,1.6,1.4,2.7,1.5C238,352.1,238.4,351.1,238.5,350.2z M236.1,341.6c-2.3,0-4.2,1.8-3.8,3.6c0.1,0.7,0.4,1.2,1.2,0.6
		c1.2-0.9,2.4-1.4,3.5-2.6c0.4-0.4,0.9-0.8,0.6-1.3C237,341.5,236.5,341.6,236.1,341.6z M365.8,314.3c0.4,3.1,3.2,5.3,6.2,5
		C370.4,317,368.3,315.5,365.8,314.3z M252,277.4c1.2,0.5,2.4,1,3.6,0.8c0.9-0.2,1.8-0.6,1.5-1.7c-0.3-1.2-1.2-1.4-2.2-1.2
		C253.7,275.6,252.9,276.3,252,277.4z M315.2,225c0.8-0.2,1.7-0.1,1.7-1.2c0-0.9-0.6-1.5-1.6-1.5c-1.2,0-2,0.9-2,1.8
		C313.3,225.3,314.6,224.5,315.2,225z M272.5,395.1c0.7-0.1,1.7,0.1,1.6-1.1c-0.1-1.1-1-1.6-1.9-1.8c-1-0.2-1.2,0.7-1.2,1.4
		C270.9,394.6,271.3,395.2,272.5,395.1z M404.1,271.3c0.7,0,1.3,0,1.4-0.8c0.1-0.7-1.3-2.3-2-2.2c-1,0-1,0.9-1,1.4
		C402.5,270.8,402.9,271.5,404.1,271.3z M307.1,467.4c-0.6,0.2-1.3-0.3-1.5,0.4c-0.2,0.6,0.5,0.9,0.9,1.2c0.6,0.5,1.2,0.8,1.9,0.6
		c0.6-0.2,1.5-0.1,1.5-1c0-0.7-0.9-0.8-1.3-0.9S307.5,467.5,307.1,467.4z M360.3,456c0.9,0,1.7,0,1.7-1c0-1.1-1-1.6-1.8-1.8
		c-0.8-0.2-1.1,0.6-1,1.2C359.3,455,359.1,456.1,360.3,456z M241.1,292.7c0.5,0,1.2,0,1.1-0.7c-0.1-1-0.8-1.7-1.8-1.9
		c-0.8-0.2-1,0.5-1.1,1.2C239.1,292.6,240.2,292.5,241.1,292.7z M240.3,273.1c1-0.1,1.4-0.6,1.4-1.4c0-0.6-0.3-1.2-0.9-1.1
		c-1.1,0.1-1.4,1.1-1.6,1.8C239.1,273.1,240,272.8,240.3,273.1z M233.8,353.4c-0.1-0.5,0-1.3-0.8-1.2c-1,0.1-1.2,1.2-1.5,2
		c-0.2,0.6,0.4,0.8,0.9,0.8C233.3,354.9,233.7,354.3,233.8,353.4z M240.8,343.5c0,1.1,0,1.8,1.1,1.7c0.7,0,1.4-0.1,1.3-1
		s-0.8-1.4-1.6-1.6C240.6,342.5,240.8,343.2,240.8,343.5z M246.5,289c0.8,0,1.4-0.3,1.4-1.2c0-0.6-0.4-1.1-1-1
		c-0.9,0.2-1.2,1-1.3,1.7C245.6,289.2,246.3,288.8,246.5,289z M300.8,386.5c-0.5-1.2-1-1.9-1.8-2.4C299,385.9,299,385.9,300.8,386.5
		z"/>
	<path fill="#1BFC04" d="M261.3,270.6c0.2-2.3,1.4-3.5,3.1-4.2c2.7-1.4,5.8-1.9,8.6-2.8c3-0.8,5.9-1.7,8.5-3.6
		c2.1-1.4,4.7-1.6,7.2-1.9c3.7-0.5,7.5-0.2,11.2-0.7c2.4-0.3,4.7-0.7,6.9-1.6c1.9-0.9,3.9-1.2,6-1.2c6.3-0.4,12.6,0.7,18.9,1.2
		c2.1,0.2,3.9,0.9,5.8,1.5c4.7,1.7,9.6,2.3,14.6,2.4c8.4,0.3,16,3.1,23.5,6.5c8.2,3.8,15.6,8.6,22.5,14.6c1.1,1,2.4,1.3,3.6,1.8
		c0.4,0.2,1.1,0.3,1.3-0.2c0.3-0.5-0.1-0.9-0.4-1.2c-0.2-0.3-0.5-0.6-0.7-0.8c-5.6-5.6-11.4-10.7-17.8-15.3
		c-7.2-5.3-15.7-7.4-24.2-9.6c-1.4-0.4-2.9-0.6-4.3-1.1c-2.9-1.1-5.9-0.9-8.7-1c-5.7-0.2-11-1.4-16.6-2.4c-6.7-1.1-13.3-1.6-20,0.6
		c-0.8,0.3-1.3-0.1-2.1-0.2c-2.3-0.1-4.5,0.6-6.6,1.2c-1.9,0.6-3.8,1.2-5.8,1.8c-0.6,0.2-1.2,0.2-1.7,0.2c-0.7,0-1.3-0.1-1.4-1
		c-0.1-0.9,0.3-1.2,1-1.4c3.5-1.3,7-2.3,10.7-3c5.7-1.2,11.4-1.5,17.2-1.8c6.3-0.3,12.4,1.3,18.5,2.7c3.9,0.8,7.8,1.7,11.8,1.6
		c13.6-0.6,25.4,4.2,36,12.4c6,4.6,12,9,16.6,15.1c1.2,1.6,2.5,3.3,3.2,5.2c0.7,1.8-0.2,2.8-2.1,2.4c-4.5-1-8.2-3.5-11.8-6.1
		c-3.6-2.7-7-5.7-11-7.7c-8.4-4.1-16.9-7.9-26.1-10.1c-8.4-2.1-17-3.6-25.6-4.4c-3.1-0.3-6.1-0.9-9.1-1.3c-6.8-1.1-13.3,0.5-20,1.6
		c-3.4,0.6-6.8,1-10.3,1.2c-2.9,0.3-5.7,1.4-8.4,2.4c-6.8,2.3-13.5,5.3-20.4,7.5C262.5,270.3,262,270.4,261.3,270.6z"/>
	<path fill="#1BFC04" d="M261.9,430.2c-0.1,9.5,2,17.8,4.7,25.9c0.2,0.8,1.1,1.8,0.4,2.1c-0.8,0.4-1.9-0.4-2.5-1.2
		c-1.5-2.2-2.7-4.7-3.6-7.2c-2.1-6.4-2.5-13.1-1.7-19.8c0.3-2.5,0.1-5.1,0.5-7.6c0.6-4,2.1-7.9,2.6-11.8c1.2-8.9,3.5-17.6,5.5-26.3
		c1.3-6.1,4.2-11.6,8.3-16.5c2.3-2.9,5.2-5.2,9.2-5.1c0.8,0,0.9-0.4,0.9-1.1c-0.2-2.1,1.1-2.9,2.8-2.9c2.8,0,4.8-1,6.2-3.4
		c0.4-0.8,1.5-1.2,2.3-1.5c7.3-4,15.3-6.3,23.3-8c1.6-0.4,3.3-0.6,4.9-1.1c2.9-0.8,5.6-0.2,8.4,0.8c7.4,2.7,13.8,6.9,19.6,12.3
		c5.2,4.8,9.4,10.5,13.9,15.8c6.1,7.2,10.6,15.5,16.3,22.8c1.3,1.7,2.9,3.4,4.3,5c1.5,1.6,2.2,3.6,1.7,5.9c-0.1,0.5-0.3,1.1-1,1.2
		c-0.7,0.2-1.2-0.2-1.4-0.8c-3.7-7.5-10.3-12.9-15.1-19.5c-2.4-3.3-3.9-7.1-6.1-10.5c-5.3-8.3-11.6-15.6-18.9-22.1
		c-4.8-4.3-10.8-6.6-17.2-7.8c-5.7-1.1-11.1-0.2-16.6,1.8c-5.9,2.1-11.6,4.1-16.8,7.7c-6,4.1-11,9.2-14.9,15.5
		c-0.2,0.3-0.3,0.5-0.5,0.8c-0.3,0.4-0.7,1-1.3,0.7c-0.8-0.3-0.5-1.1-0.2-1.5c0.9-1.9,1.8-3.7,2.8-5.6c0.3-0.5,0.8-1.2,0.1-1.6
		c-0.5-0.3-1,0.3-1.4,0.6c-4.6,3.2-7.2,7.8-8.7,13c-2.5,8-4.8,16-6.1,24.3c-0.9,5.6-2.2,11-3.4,16.6
		C262.2,423.8,261.8,427.3,261.9,430.2z"/>
	<path fill="#1BFC04" d="M322.2,276.5c3.3-0.8,6.1-0.8,8.8-0.4c15.5,2.4,30.2,7.1,44.3,14.2c1.3,0.7,2.5,1.6,3.6,2.6
		c2.1,1.7,4.7,2.9,7.4,3.5c0.7,0.2,1.3,0.3,1.8-0.4c0.5-0.7-0.1-1.2-0.5-1.7c-0.7-1-1.4-1.8-2.4-2.4c-11.9-6.9-24.2-13.2-37.5-16.7
		c-6-1.6-12-2.5-18-3.1c-6.8-0.7-13.7-0.9-20.5-0.3c-8.7,0.8-17.1,2.9-25.1,6.4c-4.4,1.9-8.4,4.4-12.9,6.3c-1.1,0.5-2.1,0.8-3.3,0.6
		c-1-0.1-1.5-0.7-1.7-1.6c-0.2-1,0.7-1.1,1.2-1.2c13-5.7,26.3-10.5,40.3-12.9c12.5-2.2,24.8-1.2,36.9,2.4c8.1,2.4,16.1,4.5,23.7,8.2
		c7.4,3.5,14.4,7.6,21,12.5c0.4,0.3,0.9,0.6,1.2,1.1c1.6,3.5,4.7,5.7,7.7,7.9c2.7,2,5.6,3.7,7.9,6.2c1.2,1.2,1.9,2.5,2.2,4.2
		c0,0.4,0.1,0.9-0.1,1.1c-0.4,0.4-0.8-0.1-1.1-0.3c-9.5-6.6-19.6-12.2-29.7-18c-9.1-5.3-19-8.4-28.9-11.5c-2.9-1-5.7-1.5-8.8-1.4
		C333.7,281.6,328,279.7,322.2,276.5z"/>
	<path fill="#1BFC04" d="M319.4,306.9c5.6-0.1,10.8,1.3,16,2.2c7.6,1.2,15.1,3,22,6.5c8.4,4.3,16.4,9.7,23.6,16
		c3.3,2.9,6.4,5.7,9.7,8.5c0.6,0.5,0.9,1,1.1,1.7c0.4,1.9,1.6,3.3,3.2,4.4c2.6,2.1,5.3,4.1,7.9,6.1c0.6,0.5,1.2,0.9,1.5,1.4
		c0.5,0.6,1.2,1.2,0.5,2c-0.7,0.8-1.5,0.9-2.4,0.3c-2.4-1.5-4.6-3.3-6.6-5.2c-4.4-4.1-8.3-8.8-12.5-13.2c-3.2-3.4-6.7-6.2-10.6-8.8
		c-2.8-1.8-5.1-4.3-7.9-6.1c-9-6-19-9.1-29.5-11.3c-8.1-1.7-16.2-1.6-24.4-1.3c-8.6,0.4-17.3,1.4-25.7,3.6
		c-5.7,1.4-10.6,4.6-15.4,7.9c-7.4,5-14.1,11-21.3,16.3c-0.3,0.2-0.5,0.4-0.7,0.6c-0.9,0.5-2.1,0.7-2.7,0c-0.6-0.7,0.4-1.5,0.9-2.1
		c2.4-2.6,5.1-4.7,8.1-6.5c3.1-1.8,5.4-4.5,8.3-6.6c6.9-5,14.7-8.6,22.4-12.3c1.3-0.7,3.1-0.5,4.5-0.6c6-0.5,11.9-1.5,17.9-2.3
		C311.3,307.5,315.4,306.7,319.4,306.9z"/>
	<path fill="#1BFC04" d="M250.7,284.5c9.3-7.3,19.3-13.1,30.7-16.4c7.9-2.3,15.8-3.5,23.9-5c1.2-0.2,2.3-0.3,3.3-0.8
		c3.6-1.4,7.4-1.5,11.2-1.1c4.7,0.6,9.5,0.7,14.2,1.3c8.8,1.2,17.5,3.5,25.9,6.3c12.6,4.2,24.2,10.2,34.9,18.1c2.3,1.6,5,2.8,7,4.8
		c2.1,2.1,4.2,4.4,5.9,6.9c0.4,0.6,1.2,1.4,0.6,2c-0.7,0.7-1.5-0.2-2.2-0.7c-3.2-2.5-6.2-5-9.4-7.5c-8.4-6.5-16.9-12.7-26.5-17.2
		c-7.5-3.6-15.6-5.3-23.6-7.4c-6.5-1.8-13.2-3.2-19.9-3.8c-7.3-0.8-14.6-0.5-21.9,1.1c-9.6,2-18.8,5.7-28.4,7.6
		c-3.9,0.8-7.1,3-10.5,4.9c-3.7,2.1-7.4,4.4-11.4,5.9C253.4,284.2,252,284.4,250.7,284.5z"/>
	<path fill="#1BFC04" d="M320.1,337.7c10.8,0.3,21,2.1,30.2,8.3c3.2,2.1,5.9,4.7,8.6,7.2c8.4,7.7,15.5,16.4,22.1,25.5
		c1.2,1.7,2.8,3.3,3.9,5.1c2.7,4.2,5.9,8.1,9.1,11.8c0.6,0.7,1.7,1.5,0.6,2.6c-0.6,0.6-2.9,0.1-3.6-0.7
		c-5.7-7.2-11.3-14.5-17.1-21.6c-5-6.2-9.7-12.8-15.4-18.4c-6.7-6.8-14.1-13.1-23.9-15c-5.8-1.2-11.4-3-17.3-3.2
		c-6.4-0.2-12.5,1.2-18.4,3.6c-9.6,3.8-18.4,9-26.3,15.8c-3.6,3.1-6.5,6.6-9.5,10.2c-1.2,1.3-2.4,2.7-3.6,3.9
		c-0.6,0.6-1.2,1.1-2.1,1.2c-0.5,0.1-1,0.3-1.3-0.2c-0.3-0.5,0.2-0.8,0.5-1.1c3.8-5.1,8.2-9.8,12.9-14.2c5.7-5.2,11.7-9.7,18.4-13.4
		c6.1-3.4,12.8-5.1,19.6-6.3C311.7,338.1,315.9,337.6,320.1,337.7z"/>
	<path fill="#1BFC04" d="M320.5,233c7.3-0.2,14.7,1.1,22,2.4c9.8,1.8,18.8,6.1,27.9,10c6.7,2.9,13.2,6.4,19.6,10
		c3.5,1.9,6.7,4.1,9.4,7c0.9,0.9,1.5,1.8,2,2.9c0.5,1,0.8,2-0.7,2.5c-1.2,0.4-2.3,1.1-3.1-0.8c-1.6-4.2-5-6.7-8.7-8.8
		c-4.5-2.5-9.2-4.5-13.4-7.5c-1.5-1.1-3.6-1.2-5.6-1.9c-6-2.1-11.8-4.5-17.4-7.4c-5.2-2.6-10.8-3.5-16.3-4
		c-4.8-0.6-9.7-0.9-14.5-1.6c-2.4-0.4-4.9,0.4-7.3,0.7c-6.5,0.8-13.1,1.5-19.5,3c-11.4,2.7-22.2,7.1-32.2,13.3
		c-0.6,0.4-1.2,1.2-1.9,0.3c-0.7-0.9-1-1.7-0.3-2.8c0.8-1.2,2-1.8,3.3-2.5c3.6-1.8,7.4-2.9,11-4.5c9.4-4.1,19.3-7.1,29.5-8.8
		C309.6,233.5,314.9,232.8,320.5,233z"/>
	<path fill="#1BFC04" d="M307.8,400.1c0.2-3.5,0.2-7.5,1.2-11.3c1.6-6.8,9.7-15,17.3-14.5c2.2,0.1,4,0.9,5.6,2.3
		c6.1,5.7,10.3,12.7,13.6,20.2c4.6,10.2,9.7,20.1,16.2,29.2c2.8,3.8,5.6,7.8,9.3,10.8c1.4,1.2,2,3,2,4.8c0,1.4-0.6,2.6-2,3
		s-1.8,0-1.6-1.5c0.3-1.7-0.3-3.3-1.1-4.8s-1.7-3-3-4c-6-5.1-10.1-11.5-13.8-18.2s-7.2-13.4-10-20.7c-2-5.5-5.5-10.5-10-14.5
		c-4.9-4.3-9.9-4.1-14.9,0.3c-3.6,3.2-5,7.2-5.7,11.8c-0.9,6,0.1,11.9,0.4,17.9c0.1,1.5,1.1,3,1.2,4.6c0.2,1.6,0.3,3.2-0.3,4.8
		c-0.4,1.2-1.2,1.5-2.1,0.6c-1.1-1-1.8-2.1-1.8-3.6C308.4,411.5,308.1,406,307.8,400.1z"/>
	<path fill="#1BFC04" d="M325.7,350.9c3.6,0.1,7.1,1.2,10.4,2.7c7.9,3.6,14,9.3,19.3,16.1c3.9,5.1,7.2,10.7,10.4,16.2
		c2.1,3.6,4.7,6.7,6.8,10.3c2.2,3.8,4.5,7.6,7.4,10.8c1.5,1.7,2.9,3.5,3.9,5.5c0.6,1.2,1,2.3,0.9,3.6c-0.1,0.6-0.3,1.2-0.6,1.6
		c-0.5,0.8-0.9,0.9-1.3,0c-2.7-5.3-6.8-9.5-10.3-14.1c-0.7-1-1.5-1.9-2.1-2.9c-4.7-8.1-11-15.1-14.7-23.7c-2.6-6.1-7.9-10.4-12.6-15
		c-1.9-1.9-4.1-3.6-6.4-5.2c-5.7-3.6-11.6-4.9-18.2-3.2c-8.7,2.2-16.7,5.7-22.8,12.5c-1.2,1.2-2.1,2.7-3.1,4.2
		c-0.6,1-1.3,1.8-2.4,2.4c-0.7,0.4-1.3,0.6-2,0.1c-0.7-0.6-0.5-1.3-0.2-2c0.2-0.6,0.6-1.1,1-1.5c8.6-10.8,20.1-16.3,33.5-18.1
		c0.6-0.1,1.1-0.3,1.5-0.3C324.8,350.9,325.3,350.9,325.7,350.9z"/>
	<path fill="#1BFC04" d="M395.2,251.1c-1.6,0.1-2.9-0.3-4.1-1c-13.2-6.9-26.7-12.8-40.8-17.4c-5.5-1.8-11-2.7-16.8-3
		c-3.8-0.2-7.6-0.5-11.4-0.7c-2.3-0.1-4.6,0.5-6.9,0.7c-4.6,0.5-9.2,0.2-13.7,0.6c-6.3,0.5-12.3,2-18,4.5c-3.1,1.3-6,2.8-9.3,3.6
		c-1.2,0.3-2.2,0.3-3.4,0.2c-0.8-0.1-1.3-0.7-1.3-1.4s0.8-0.6,1.2-0.8c5.2-1.3,9.9-4,14.8-6.1c4-1.7,8.2-2.6,12.5-2.8
		c6.2-0.3,12.5-0.7,18.7-1.2c12.7-1.2,25.2-0.7,37.2,4.2c8.4,3.5,16.9,6.8,25.3,10.2c1.6,0.7,3.4,1.2,5,1.8
		C387.4,243.7,393,247.8,395.2,251.1z"/>
	<path fill="#1BFC04" d="M294.3,386.7c0.4-2.6,1.4-4.9,2.7-7c4.3-7.2,10.7-12,18.2-15.3c3.5-1.5,7-0.5,10.4,1c3.6,1.5,6.3,4.2,9.7,6
		c8.6,4.7,12.6,13.2,16.8,21.2c3.9,7.4,7.1,15.1,11.5,22.2c2.6,4.2,5.8,8,9.2,11.6c2.5,2.6,4.3,5.9,6,9c0.2,0.3,0.3,0.8,0,1
		c-0.2,0.1-0.6,0-0.9-0.1c-0.8-0.5-1.7-0.8-2.2-1.4c-4.5-5.9-10.1-10.7-14.3-16.8c-4.9-7.2-8.7-15.2-12.6-23
		c-2.8-6-5.7-11.8-10-16.9c-2.8-3.3-6.5-5.3-10-7.7c-3-2.1-6.1-3.8-10-3.9c-2.4-0.1-4.4,1-6.4,2.1c-6.2,3.6-10.2,9.5-14.6,14.9
		C297,384.8,296.1,386.1,294.3,386.7z"/>
	<path fill="#1BFC04" d="M250.4,351.9c1-1.9,2.3-3.6,3.7-5.3c4.2-4.6,9.5-7.9,14.3-11.8c7-5.8,14.8-10.1,23.6-12.7
		c7.2-2.1,14.6-3.2,22.1-3.8c9.5-0.8,18.4,1.7,27.6,4c5.3,1.3,10.2,3.6,14.9,6.3c1.4,0.9,2.9,1.3,4.4,1.7c0.6,0.1,1.2,0.2,1.5-0.3
		c0.4-0.5-0.2-0.9-0.4-1.2c-0.4-0.8-0.9-1.5-1.3-2.4c1.2-0.4,1.9,0.4,2.7,0.9c3.8,2.5,7.3,5.6,10.8,8.5c1.4,1.2,2.9,2.6,4.6,3.6
		c2.3,1.4,4.1,3.5,5.1,6c0.6,1.4,0.1,2.1-1.4,1.9c-1.3-0.2-2.8-0.5-3.6-1.6c-5.3-7.4-12.8-11.8-21.2-14.9c-4.5-1.6-8.6-4-13.2-5.5
		c-6.8-2.2-13.8-3.4-20.9-3.9c-7.2-0.6-14.3-0.3-21.4,0.5c-7.8,0.9-15,3.8-21.7,7.8c-5.6,3.3-10.7,7.2-15.5,11.5
		c-0.3,0.3-0.6,0.7-1,0.8c-3.7,0.7-5.6,3.6-7.7,6.2c-1.4,1.7-2.8,3.5-5.2,3.8C251,352.2,250.7,352.3,250.4,351.9z"/>
	<path fill="#1BFC04" d="M409.1,325.5c0,0.6-0.1,1-0.5,1.1c-0.7,0.2-1.3,0.2-1.8-0.4c-0.9-1-1.6-1.9-2.4-2.9
		c-6-6.9-13.3-12.2-20.9-17.2c-9-5.9-18.5-10.8-28.6-14.5c-9.5-3.6-19.1-4.7-29.1-1.9c-3.9,1.1-8,1.2-12,1.4
		c-5.9,0.4-11.5,1.3-17,3.6c-4.5,1.8-9.1,3.8-13.9,4.9c-0.4,0.1-0.7,0.2-1.1,0.2c-0.6,0-1.2,0.2-1.4-0.7c-0.1-0.8,0.4-1,1-1.2
		c3.4-1.3,6.7-2.8,10.1-4.2c5.5-2.3,11-4.2,16.9-4.8c3.7-0.4,7.5-0.6,11.2-1.1c5.3-0.8,10.6-1.6,15.9-2c5.5-0.5,10.7,0.6,15.8,2
		c7.7,2.1,14.8,5.6,22,8.8c10.8,5.1,19.7,13.1,29.3,19.8c2.8,1.9,4.6,4.6,6.1,7.5C408.8,324.3,408.9,325,409.1,325.5z"/>
	<path fill="#1BFC04" d="M253.6,445.8c-1.5-4.3-1.1-8.4-0.6-12.4c0.6-5.2,1.3-10.3,1.1-15.6c-0.4-6.2,1.2-12.3,3-18.2
		c1.5-5,3.2-10,4.8-15c0.4-1.2,0.9-2.4,0.6-3.6c-0.3-1.4-1.1-1.6-2.1-0.8c-1,0.9-1.5,1.9-1.9,3.2c-2.7,8.4-6,16.7-7.3,25.5
		c-0.4,2.6-2.2,4.7-1.7,7.6c0.3,1.9,0.8,3.7,1.3,5.6c0.5,1.5,0.7,3.2,0.6,4.8c0,0.5-0.1,1-0.3,1.3c-0.6,1.6-1.7,3.1-3.3,3.3
		c-1.2,0.1-1.8-1.6-2.4-2.8c-2.1-4-1.3-8.2,0.1-12.1c1-2.7,2-5.4,3.3-7.9c2.6-5.3,3.4-11.1,4.8-16.7c1.4-6,3.4-11.9,8-16.1
		c4.7-4.4,8.9-9.3,13.3-13.9c1.1-1.1,2.2-2,3.5-2.8c0.7-0.4,1.3-0.7,2.4-0.3c-2,2.1-3.9,4.2-5.9,6.3c-4.1,4.4-7.9,9.1-10,14.9
		c-1,2.5-1.2,5.2-1.7,7.8c-0.7,3.8-1.7,7.7-2.7,11.4c-2.5,9.4-3.9,18.9-4.1,28.7c-0.1,5.7-0.4,11.4-2,17
		C253.9,444.9,253.8,445.1,253.6,445.8z M246.5,427.1c1.7-0.1,2.8-1.1,2.8-2.6c0-0.7-0.2-1.2-1.1-1.1c-1,0.1-2.9,2.1-2.9,3
		C245.5,427.2,246.1,427,246.5,427.1z"/>
	<path fill="#1BFC04" d="M329.2,363.9c1.3,0,2.3,0,3.3,0c0.9,0,1.7,0.3,2.7-0.1c-0.2-0.8-0.9-1.1-1.4-1.4
		c-6.1-3.7-12.6-3.5-19.1-1.2c-10.5,3.6-17.6,11-23,20.4c-2.1,3.7-4.6,7.2-5.6,11.5c-1.2,5.5-1.1,11-0.7,16.5
		c0.4,6.1,1.2,12.2,2.5,18.1c0.2,0.9,0.3,2.1-0.9,2.3c-1.2,0.2-2-0.4-2.3-1.9c-1.6-8.4-3.1-17-2.7-25.6c0.4-9.6,4.1-18,9.5-25.7
		c3.6-5.3,7.9-10,13.2-13.4c6.6-4.3,13.8-7.2,22-6.6c4.4,0.3,8,2.8,11.3,5.2c3.1,2.2,5.8,4.8,7.8,8.1c1,1.5,1.9,3.2,1.3,5.2
		c-0.2,0.8-0.5,1.1-1.2,0.3c-4.5-4.9-10.1-8.2-15.9-11C330,364.3,329.8,364.2,329.2,363.9z"/>
	<path fill="#1BFC04" d="M367.8,443.1c-2.3,0-4-0.6-5.6-1.7c-6.5-4.7-11.3-10.8-15.4-17.8c-4.4-7.6-8.1-15.7-11.1-23.9
		c-1.4-3.8-2.7-7.6-5.3-10.8c-1.2-1.3-2.4-2.5-3.9-3.4c-2.8-1.4-5.4-0.9-7.2,1.6c-2.3,3.1-2.5,6.6-2.3,10.3
		c0.2,6.7,2.6,13.1,3.6,19.6c0.2,1.2,0.3,2.5,0.4,3.7c0,0.6,0.3,1.3-0.6,1.5c-0.7,0.2-1.2-0.1-1.7-0.7c-1-1.2-1.3-2.8-1.5-4.3
		c-0.5-3.5-1-6.8-1.4-10.3c-0.2-1.6-1.1-3.2-1.2-4.8c-0.6-5,0.2-9.7,2.1-14.3c3.1-7.1,9.8-8.1,15-2.3c3.8,4.3,5.9,9.6,7.9,14.9
		c6,15.1,14,29,25.9,40.2c0.4,0.3,0.8,0.6,1.1,1S367.1,442.4,367.8,443.1z"/>
	<path fill="#1BFC04" d="M299.1,335.8c1.5-1.2,3.4-1.4,5-1.6c6-0.5,12-1.9,18-2.5c6.4-0.6,12.6,0.6,18.6,2.6
		c13.1,4.3,23.8,11.7,32.4,22.5c4,5,8.5,9.6,12.8,14.5c3.8,4.3,7.4,8.9,10.6,13.7c0.6,0.9,1.5,1.7,0.6,2.8c-0.7,0.8-2.8,0.1-3.6-1
		c-2.4-3.2-4.7-6.4-7.1-9.6c-7.9-10.4-16.4-20.2-26.3-28.7c-8.6-7.5-18.5-11.9-29.8-13.6c-7.7-1.2-15.3-0.9-22.8,1.1
		C304.8,336.5,302,337,299.1,335.8z"/>
	<path fill="#1BFC04" d="M241.7,353.8c1.2-3.8,3.2-6.9,5.7-9.7c3.1-3.4,6.7-6,10.5-8.6c4.3-3,8.6-6,12.6-9.4
		c7.5-6.4,16.4-9.8,26.2-10.6c4.1-0.3,8.2-1.2,12.3-1.9c5.3-0.9,10.6-0.8,15.8-0.2c9.6,1.1,18.7,3.9,27.8,6.8c1.2,0.4,2.3,1,3.4,1.7
		c0.5,0.4,1.1,0.9,0.8,1.6c-0.4,1-1.2,0.4-1.7,0.2c-4.3-1.4-8.6-2.9-13.1-4.3c-3.6-1.2-7.3-2.1-11-2.6c-2.4-0.3-4.7-1.3-7.1-1.7
		c-5.1-0.7-10.1-0.6-15.2,0.4c-6.7,1.3-13.4,2.4-20.1,4.2c-8.5,2.3-15.7,7.3-22.7,12.6c-3.9,3-7.9,6-11.8,9c-2.1,1.6-3.5,3.9-5,6
		C247.4,350,245.4,352.7,241.7,353.8z"/>
	<path fill="#1BFC04" d="M323.2,325.1c6-0.1,11.3,1.2,16.5,2.7c12.2,3.5,23.3,9,32.9,17.6c8.3,7.4,15.1,15.9,21.7,24.7
		c1.3,1.8,3,3.5,4.5,5.1c0.3,0.3,0.6,0.6,0.9,0.9c0.6,0.9,1.2,1.9,0.1,2.7c-1.1,0.9-1.8-0.1-2.5-1c-6-8.4-12.9-16.1-20.2-23.5
		c-4.8-4.8-9.6-9.8-15.4-13.4c-8.1-5-16.2-10.2-25.9-11.6c-3.5-0.5-6.6-2.3-10.3-1.7c-3.1,0.5-6,1.6-9,2c-0.2,0-0.5,0.1-0.7,0.1
		c-1.3,0-3.1,0-3.5-1.2c-0.3-1,1.4-1.4,2.4-1.9C317.6,325.5,320.5,324.9,323.2,325.1z"/>
	<path fill="#1BFC04" d="M235,321.5c0.6-3.9,3.1-6.5,6-8.7c1.4-1.2,3.1-2.1,4.6-3c13.2-7.1,25.8-15.1,39.6-20.7
		c7-2.9,14-5.8,21.7-6.8c5.8-0.8,11.5-1.2,17.3-0.4c0.4,0.1,0.8,0.3,1.3,0.4c-2.4,1.6-5.1,2-7.6,2c-12.3-0.4-23.5,3.6-34.6,8.4
		c-10.8,4.8-21.4,10.3-31.4,16.6c-5.5,3.5-10.8,7.3-16,11.4C235.7,321,235.3,321.3,235,321.5z"/>
	<path fill="#1BFC04" d="M355.2,302.8c-1.9-0.2-3.6-0.4-5.1-0.9c-7.1-2.5-14.4-3.9-21.9-4.5c-10.2-0.8-20.1,0.4-30,2.7
		c-5.2,1.2-9.8,3.9-14.5,6.4c-5.9,3.1-11.6,6.3-17.4,9.5c-1.7,1-3.6,1.5-5.8,1.4c0.2-0.8,0.8-1.1,1.2-1.4c4.1-3.3,9-5.3,13.5-7.9
		c6.8-3.8,13.6-7.6,21.1-10c6-1.9,12.1-3.6,18.4-3.6c1.1,0,2-0.4,3-0.7c4.8-1.2,9.6-1,14.3,0.3c7.1,1.9,14.1,4.2,20.9,7.1
		C353.8,301.7,354.5,302,355.2,302.8z"/>
	<path fill="#1BFC04" d="M355.3,453.1c-1.2-0.1-2.4-0.6-3.2-1.4c-2-2.2-4.6-3.6-7-5.3c-6.4-4.7-11.2-10.7-14.8-17.9
		c-3.8-7.7-6.9-15.6-8.4-24c-0.8-4.1-1.2-8.3-1.2-12.4c0-0.7,0-1.3,0.9-1.5s1.2,0.4,1.4,1.1c1.1,2.4,1.1,5.1,1.4,7.7
		c0.3,1.9,0.7,3.7,1.3,5.5c0.6,1.6,0.7,3.5,1.1,5.2c1.1,4.9,3.4,9.3,5.4,13.7c1.1,2.3,2.1,4.7,3.1,7c0.6,1.3,1.4,2.3,2.4,3.3
		c5.8,6,12,11.4,18.3,16.7c0.5,0.4,1.6,0.6,1.2,1.4C357,453.2,356.1,453.2,355.3,453.1z"/>
	<path fill="#1BFC04" d="M285.6,376.8c-1.4,3.9-2.9,7.8-4.2,11.7c-1.8,5.3-3.6,10.7-3.4,16.3c0.4,12.8,2.7,25.2,6.9,37.2
		c2.8,7.9,6,15.6,10.9,22.4c0.7,0.9,1.3,1.6,2.4,1.9c0.3,0.1,0.6,0.2,0.8,0.4c0.9,0.7,2.2,1.2,1.4,2.6c-0.5,1.1-2.3,1.2-3.5,0.2
		c-1.6-1.2-2.3-3.1-3.6-4.6c-6.6-7.7-10.2-16.9-12.7-26.5c-2.7-10.4-5.1-20.9-4.9-31.8c0.1-7.7,1.1-15.4,4.2-22.5
		C281.4,381.4,283.1,378.9,285.6,376.8z"/>
	<path fill="#1BFC04" d="M318.2,276.3c-1.8,1.2-3.9,1.2-6,1.4c-7.8,0.8-15.3,2.4-22.6,5.1c-9.8,3.6-18.8,8.5-27.8,13.7
		c-5.8,3.4-12.2,5.6-17.8,9.6c-3,2.1-6.1,4.1-9.5,6.3c1.2-3.9,3.6-6.5,6.5-8.6c3.6-2.5,7.5-4,11.4-6c10.2-5,20.4-10.1,30.6-15.1
		c7.8-3.8,15.9-6.2,24.5-7.5c3.1-0.4,6.1-0.4,9.3,0.2C317.3,275.8,317.8,275.9,318.2,276.3z"/>
	<path fill="#1BFC04" d="M340.1,291.7c3.7,0.3,7,1.2,10.2,2.4c13.9,5.2,26.8,12.1,37.9,22.1c4.1,3.7,8.5,7.2,12.7,11
		c3.7,3.6,6.6,7.8,9.2,12.7c-1.8-0.5-2.8-1.7-3.8-2.6c-4.5-3.6-8.4-8.1-12.5-12.1c-2.4-2.3-4.8-4.6-7.6-6.5
		c-1.2-0.9-1.9-2.1-2.9-3.2c-3.5-3.9-8-6.4-12.6-8.6c-3.3-1.5-6.7-2.7-9.5-4.8c-2.9-2.2-6-3.6-9.4-4.5c-2.5-0.7-5-1.2-7.3-2.2
		C342.7,294.7,341.3,293.7,340.1,291.7z"/>
	<path fill="#1BFC04" d="M366.6,451.2c-1-0.2-1.8-0.4-2.6-0.9c-7.6-5-15.2-10.1-20.7-17.4c-3.3-4.2-5.4-9.1-7.8-13.8
		c-2.7-5.2-4.8-10.6-6.1-16.3c-0.1-0.5-0.4-1.2,0-1.5c0.5-0.4,1.2-0.2,1.6,0.1c1.4,0.7,2.3,1.8,2.8,3.3c1,2.5,1.4,5.2,2.1,7.7
		c0.9,3.1,1.8,6.1,5.1,7.6c0.4,0.2,0.6,0.6,0.7,1c3.3,10.9,10.8,18.4,20.2,24.3c1.2,0.8,2.5,1.4,3.7,2.1c0.8,0.4,1.5,0.9,2,1.7
		c0.3,0.5,0.5,1,0.2,1.5C367.7,451.1,367.1,451.2,366.6,451.2z"/>
	<path fill="#1BFC04" d="M269.1,408c0.1-1.7,0.3-4.1,1.1-6.5c0.2-0.5,0.4-1.1,0.6-1.4c0.4-0.6,0.8-1.3,1.6-1
		c0.8,0.4,0.7,1.1,0.6,1.7c-0.4,1.9-0.6,3.8-0.6,5.9c-0.1,5.8,0.9,11.5,1.9,17.2c1.1,5.6,2,11.1,2.8,16.7c0.6,4.5,2.6,8.6,4.3,12.8
		c2.5,5.9,5.8,11.2,10.4,15.7c0.1,0.1,0.2,0.2,0.2,0.3c0.6,0.7,1.8,1.6,1.2,2.3c-0.9,1-2-0.1-2.8-0.8c-4.1-2.9-7-6.9-9.4-11.3
		c-4.3-7.8-6.8-15.9-7.7-24.9c-0.6-6.3-1.2-12.7-2.8-18.8C269.8,413.5,269,411.2,269.1,408z"/>
	<path fill="#1BFC04" d="M290.8,307.1c4.4-1.9,9-3.1,13.6-4c5.7-1.2,11.5-1.9,17.4-2.1c5.9-0.1,11.6,0.7,17.4,2
		c8.7,2,17.5,3.9,26.1,6.5c3.8,1.2,7.5,2.7,11,4.6c0.9,0.5,1.6,1,2.3,1.7c0.3,0.3,0.8,0.7,0.3,1.2c-0.5,0.6-0.9,0.1-1.2-0.1
		c-3.9-2.5-8.2-4.2-12.7-5.2c-3.1-0.7-6.2-1.1-9.3-1.7c-6-1.3-11.8-3.1-17.9-4.3c-9.3-1.8-18.6-2.6-28-1.5c-2.6,0.3-5.2,1.2-7.8,1.9
		c-3.1,0.8-6,1.7-9.3,1.6C292.1,307.5,291.4,307.7,290.8,307.1z"/>
	<path fill="#1BFC04" d="M381.2,427.2c-1.4-0.3-2.9-0.4-3.9-1.9c-5.8-7.9-11.6-15.7-16.7-24.1c-3.3-5.3-6.2-10.7-8.8-16.3
		c-0.7-1.4-1.2-3-1.2-4.6c0-0.6,0.1-1.3,0.7-1.5c0.5-0.2,0.7,0.5,1,0.9c3.3,3.7,5.8,7.9,7.9,12.3c5.3,11,12,21.2,19.9,30.6
		c0.8,0.9,1.4,1.9,2.1,2.9c0.3,0.4,0.8,0.8,0.5,1.2C382.3,427.2,381.7,427.2,381.2,427.2z"/>
	<path fill="#1BFC04" d="M236.6,385.8c0.4-4.3,2-8.3,4.5-11.7c6.7-9.4,13.2-19,21.8-26.9c7.1-6.4,14.9-11.9,23.4-16.2
		c0.3-0.1,0.6-0.3,0.8-0.4c0.7-0.2,1.3-0.3,1.8,0.3c0.4,0.7-0.3,1.2-0.7,1.4c-1.8,1.6-3.8,3.1-6,4c-8.6,4-15.6,10.3-21.8,17.4
		c-1.9,2.1-4,4-6.3,5.8c-0.4,0.3-0.8,0.6-1.1,1c-3.7,6.5-8.7,12.4-12.1,19.2c-0.8,1.5-1.3,3.2-2,4.8c-0.3,0.8-0.6,1.4-1.2,1.9
		c-0.3,0.2-0.7,0.4-1,0.2C236.4,386.5,236.6,386.1,236.6,385.8z"/>
	<path fill="#1BFC04" d="M298.1,424.5c0,1.8,0,3.7,0,5.6c0,0.5-0.1,1,0.2,1.3c0.5,0.7,0.9,1.3,0.2,2.1c-0.8,0.9-1.8,1.1-2.9,1.2
		c-0.5,0.1-0.6-0.5-0.8-0.9c-2.6-5.6-4.3-11.3-5.3-17.4c-0.8-4.4-0.3-8.8-0.9-13.2c-0.6-3.9,0.4-7,2.3-10.1c0.6-0.9,1.2-2.4,2.2-1.9
		c0.9,0.4,0.3,1.9,0,3c-2.5,8.8-2.3,17.8-1.1,26.8c0.2,1.2,0.3,2.5,2.1,2.4c1.8-0.2,2.1-1.4,2.1-2.8c0-2.6-0.8-5.1-1.2-7.6
		c-0.2-1.1-0.3-2.1-0.4-3.2c-0.1-0.8,0.1-1.4,0.5-2s1-0.7,1.5-0.7c0.8,0.1,0.8,0.7,0.8,1.2c0.1,1,0.2,2,0.2,3.1c0,4.3,0,8.7,0,13.1
		C297.8,424.5,298,424.5,298.1,424.5z"/>
	<path fill="#1BFC04" d="M352.4,458.7c-1.4,0.3-2.8,0-4.1-0.8c-6.8-3.6-12.8-8.3-18.2-13.6c-1.9-1.8-3.8-3.7-5.7-5.8s-1.9-5-0.2-7
		c1.3-1.6,3.1-1.4,3.9,0.4c0.8,1.4,0.9,3.2,1.6,4.7c2.4,4.3,6,7.4,10,10.4c4.1,3.2,8.5,6,11.7,10.1
		C351.9,457.7,352.4,458.1,352.4,458.7z"/>
	<path fill="#1BFC04" d="M356.2,248c-3.1,0.4-5.7-0.6-8.2-1.2c-10.8-2.2-21.7-3.2-32.6-2.7c-2.3,0.1-4.6,0.6-6.9-0.1
		c-0.6-0.2-1.2-0.3-1.7-0.5c-0.4-0.2-1.1-0.3-1-0.9c0.1-0.5,0.7-0.6,1.2-0.7c1.8-0.6,3.6-0.5,5.5-0.6c8.4-0.4,16.9-0.6,25.3,0.2
		c5.2,0.5,10.3,1.5,14.9,3.9C353.8,246.2,355,246.7,356.2,248z"/>
	<path fill="#1BFC04" d="M314.3,217.5c-2.6,1.6-5.5,2.6-8.4,3.4c-6.5,1.8-13.2,2.7-19.8,4.6c-5.7,1.6-10.8,4.7-16.3,6.7
		c-1.9,0.7-3.9,1.3-6.2,2.2c1.6-2.6,3.6-4,5.8-5.2c3.4-1.9,7.1-2.9,10.8-4.4c8.6-3.6,17.7-5.4,26.7-7.3
		C309.2,216.9,311.7,217.3,314.3,217.5z"/>
	<path fill="#1BFC04" d="M385.5,237.3c-1.6,0.2-3.1,0.1-4.3-0.6c-9-4.7-18.7-7.5-28.1-11.1c-5.8-2.2-11.7-2.4-17.6-3.6
		c-1-0.2-2.7-0.1-2.7-1.2c0-1,1.7-0.9,2.7-1.1c5-0.8,9.7,0.7,14.3,2c6.4,1.9,12.5,4.9,19,6.6c5.2,1.3,9.9,3.5,14.2,6.4
		C383.9,235.4,385,235.9,385.5,237.3z"/>
	<path fill="#1BFC04" d="M302.6,401.5c1.1,2.3,1,4.7,1.2,7c0.3,4.3,0.6,8.5,1.2,12.8c0.8,5.8,2.1,11.3,5.2,16.4
		c1.1,1.7,1.1,3.6,0.8,5.6c-0.1,0.6-0.1,1.4-1,1.5c-0.7,0.1-1.1-0.6-1.3-1.1c-2.8-3.7-4.9-7.9-5.9-12.6c-0.8-3.8-1.2-7.7-1.1-11.5
		c0.2-4.8-0.9-9.6,0-14.5C301.8,404,301.8,402.8,302.6,401.5z"/>
	<path fill="#1BFC04" d="M253.7,378.9c-1.6,5.1-3.3,10.2-4.9,15.2c-2.2,6.7-4.3,13.4-6,20.4c-0.5,1.8-1.2,3.6-2.3,5
		c-0.3,0.4-0.7,1.1-1.2,0.9c-0.7-0.2-0.4-1-0.4-1.4c-0.2-3.7,1.3-6.9,2.7-10.3c1.1-2.5,2.2-5,2.9-7.7c0.1-0.5,0.2-1.1,0.2-1.6
		c0-0.9-0.2-1.8-1.1-2c-1-0.2-0.8,1-1.2,1.5c-1,1.8-1.9,3.6-3.5,5c-0.3,0.2-0.5,0.6-0.9,0.5c-0.4-0.2-0.3-0.6-0.3-1
		c0.2-1.5,0.3-3.1,1.4-4.1c4.1-3.7,6.7-8.5,9.4-13.3C250.2,383.4,251.5,380.9,253.7,378.9z"/>
	<path fill="#1BFC04" d="M320.6,468.9c-2,0.6-3.4,0.1-4.7-0.6c-4.4-2.3-7.7-5.9-10.2-10c-3.6-5.7-5.8-12-8.6-18
		c-0.6-1.2,0.3-2,1.2-2.8c0.8-0.7,1.6-0.2,2.2,0.4c1.1,1,1.7,2.1,2.4,3.4c2.4,4.5,4.1,9.2,5.4,14.1c1,3.9,3.4,6.8,6.4,9.1
		C316.4,465.9,318.4,467.3,320.6,468.9z"/>
	<path fill="#1BFC04" d="M375.6,320.1c4.6,0.1,8,2.1,11,4.8c3.2,2.9,5.8,6.2,8.5,9.4c1.7,1.9,3.6,3.8,5.8,5.3c3.1,2,5.3,4.9,7,8.4
		c-1.6,0.1-2.7-0.8-3.6-1.6c-9.6-8.2-19.4-16.3-28.1-25.4C376,320.8,376,320.6,375.6,320.1z"/>
	<path fill="#1BFC04" d="M265.7,355c0.2,1.3-0.5,2.5-1.2,3.5c-1.5,2.2-3.5,4.1-5.4,6c-2.2,2.1-4.4,4.3-6.4,6.7
		c-3,3.6-4.3,8.3-6.2,12.4c-1.6,3.4-3.1,6.9-6.2,9.2c-1.2,0.9-2.4,1.4-4.2,1.9c7.5-9.3,11.7-20.3,18.7-29.5c2.6-3.5,5.5-6.5,8.8-9
		C264.3,355.7,264.9,355.1,265.7,355z"/>
	<path fill="#1BFC04" d="M292.2,437.7c-0.4,4.6,1.7,7.9,3.6,11.3c1.3,2.6,2.9,5.1,4.2,7.7c1.1,1.8,1.5,3.8,1.9,6
		c0.1,0.8,0.3,1.8-0.4,2.1c-0.7,0.3-1.2-0.7-1.5-1.2c-3.4-4.2-5.8-8.9-7.6-13.9c-1.5-4-2.9-8.2-4.2-12.3c-0.4-1.2-0.5-2.3-0.5-3.6
		c0-0.8,0.2-1.5,0.9-1.8c0.8-0.3,1.3,0.4,1.7,1C291.6,434.5,292.1,436.3,292.2,437.7z"/>
	<path fill="#1BFC04" d="M403.1,363.5c-1.6-0.4-3.1-1.4-4.9-1.4c-1.4,0-1.5,0.7-0.9,1.6c0.7,1.1,1.7,1.8,2.5,2.8
		c1.2,1.5,2.4,3.1,3.1,5c0.1,0.3,0.3,0.6,0.1,0.9c-0.3,0.3-0.7,0.2-1,0c-0.9-0.5-1.9-0.9-2.4-1.7c-3.5-6.2-8.4-11.4-12.7-17.1
		c-0.8-1-1.5-1.9-2-3.3c1.4,0.1,2.6,0.8,3.7,1.3c5.5,2.9,10.1,6.9,14.4,11.3C403.1,363,403.1,363.3,403.1,363.5L403.1,363.5z"/>
	<path fill="#1BFC04" d="M311.1,429.5c0-1.3,0.3-2.6,1-3.7c1-1.5,1.2-1.5,2.1,0c1.3,2.4,2,5,2.7,7.6c1.1,3.6,2,7.3,4.9,10
		c0.5,0.5,1,0.9,1.5,1.2c1.2,1,1.3,2.2,0.2,3.2c-0.3,0.3-0.5,0.3-0.9,0.1C316.6,444.5,311.1,435.6,311.1,429.5z"/>
	<path fill="#1BFC04" d="M236,336.7c0.1-1,0.6-1.8,1.2-2.5c1.9-2.1,4.4-3.5,6.7-5c2.8-1.9,5.5-3.7,7.2-6.8c1.1-1.9,3.3-2.7,5.5-3
		c0.7-0.1,1.4,0.1,1.8,0.9c0.3,0.7-0.1,1.2-0.5,1.8c-0.9,1.1-1.8,1.9-3,2.5c-5.2,2.4-8.9,6.4-12.9,10.4c-1.1,1.2-2.2,2.1-3.4,3.2
		c-0.4,0.4-0.9,1.2-1.6,0.7C236.4,338.4,236,337.6,236,336.7z"/>
	<path fill="#1BFC04" d="M270.5,253.5c0.3,2.3-1.7,6.7-3.5,7.6c-0.8,0.4-1.5,0-2.3,0.1c-3.6,0.3-6.7,1.8-9.9,3.3
		c-3.5,1.6-6.7,3.6-10.8,4.9c1.7-2.5,3.6-4.1,5.8-5.5c3.2-2,6.6-3.5,10.1-4.9C263.6,257.5,267.3,255.9,270.5,253.5z"/>
	<path fill="#1BFC04" d="M268.3,426c0.1,3.9,0.4,7.8,1.2,11.6c0.8,3.6,2,7.2,2.5,10.9c0.1,1,0.5,2.2-0.7,2.4
		c-1.2,0.3-2.4-0.4-2.9-1.6c-0.9-1.9-1.2-3.9-1.5-6c-0.8-5.5-0.9-10.9-0.5-16.4c0.2-2.2,0.1-4.5-0.2-6.8c0-0.4-0.4-1.1,0.4-1.2
		c0.6-0.1,0.9,0.3,1.1,0.8c0.3,0.7,0.6,1.4,0.6,2.2C268.3,423.4,268.3,424.7,268.3,426z"/>
	<path fill="#1BFC04" d="M318.7,342.6c-2.1,1.4-4.4,1.7-6.7,2.1c-6,1.1-11.5,3.7-16.9,6.4c-3.9,1.9-7.9,3.9-12.4,5.3
		c2.1-2.8,4.6-4.5,7.5-5.8c3.2-1.4,6.3-2.6,9.6-3.9c1.8-0.8,3.6-1.7,5.3-2.6C309.3,341.9,314,341.5,318.7,342.6z"/>
	<path fill="#1BFC04" d="M249,317.6c1.2-2.1,3.1-3.5,4.7-4.8c5.7-4.4,12.3-7.3,18.7-10.5c0.2-0.1,0.5-0.2,0.7-0.2
		c0.9,0,2-0.1,2.4,0.8s-0.8,1.2-1.4,1.5c-2.1,1.2-4.2,2.3-6.3,3.3c-4.2,1.9-8,4.5-11.7,7.1C254,316.4,251.9,317.7,249,317.6z"/>
	<path fill="#1BFC04" d="M267.9,352.9c1.6-3.4,3.9-5.6,6.7-7.5c2.7-1.9,5.6-3.5,8.4-5c2.6-1.4,5.1-2.9,7.3-4.8
		c1.2,2.1,1.4,2.3,4,3.2c-7.9,1.4-13.5,6.2-19.4,10.5C272.9,350.8,270.8,352.2,267.9,352.9z"/>
	<path fill="#1BFC04" d="M234.8,300.9c1.7-2.5,3.8-3.9,6-5.2c3.1-1.7,6.4-2.9,9.6-4.2c2.8-1.2,5.4-2.4,7.8-4.3
		c1-0.8,2.1-1.3,3.3-1.7c0.8-0.2,1.5-0.2,1.9,0.5c0.5,0.7,0.3,1.4-0.2,2.1c-0.6,0.7-1.3,1.2-2.1,1.5
		C252.5,293.3,243.9,297,234.8,300.9z"/>
	<path fill="#1BFC04" d="M336.6,465.5c-10.8-2.9-16.7-12.1-24.8-18.7c1.8-0.1,3.2,0.6,4.4,1.2c2.6,1.3,4.8,3.4,6.9,5.3
		c3.5,3.2,6.8,6.5,10.9,8.8C335.3,462.8,336,464,336.6,465.5z"/>
	<path fill="#1BFC04" d="M276.3,253.7c2.1-2.8,4.8-4.3,7.6-5.6c4.4-2,9.1-3.1,13.8-3.9c0.6-0.1,1.4-0.5,1.7,0.3
		c0.3,0.7-0.5,1.2-1,1.6c-1.4,1.3-3.3,1.8-5.1,2.4c-2.4,0.7-4.8,1.3-7.2,2.1c-1.2,0.4-2.3,0.8-3.2,1.6
		C281.2,254,279,254,276.3,253.7z"/>
	<path fill="#1BFC04" d="M342.6,460.8c-0.6,0.7-1.2,0.3-1.5,0.1c-4.9-2.1-9.6-4.4-13.3-8.4c-0.5-0.5-1-1.1-1.3-1.6s-0.6-1.2,0.1-1.7
		c0.7-0.6,1.2-0.5,1.9,0c3.8,2.7,7.5,5.5,11,8.5C340.6,458.6,341.9,459.6,342.6,460.8z"/>
	<path fill="#1BFC04" d="M311.9,451.4c0.1,0.1,0.3,0.2,0.4,0.4c1.5,3.6,5.1,5.4,7.9,7.8c1.2,1,2.4,1.9,3.1,3.4
		c0.3,0.5,0.5,1.1,0.1,1.5c-0.4,0.4-0.9-0.1-1.2-0.3c-4-2-7.4-4.9-10.2-8.5c-0.6-0.7-1-1.5-1.2-2.4
		C310.7,452.4,311.2,451.8,311.9,451.4z"/>
	<path fill="#1BFC04" d="M251.2,249.3c0-1.1,0.4-1.7,1-2.3c2.9-3.3,6.4-5.2,10.8-5.8c0.5-0.1,1.2-0.3,1.4,0.3c0.3,0.6-0.3,1-0.7,1.3
		c-1.2,1.3-2.8,2.4-4.4,3.3C256.7,247.3,254.1,248.3,251.2,249.3z"/>
	<path fill="#1BFC04" d="M303.3,392.9c-1.2-2.3-0.7-4.4-0.1-6.3c0.8-2.8,2-5.5,3.9-7.8c0.4-0.4,0.8-1.2,1.4-0.8
		c0.6,0.3,1,1.2,0.7,1.7C307,383.9,306.3,388.8,303.3,392.9z"/>
	<path fill="#1BFC04" d="M241.5,277.1c2.2-3.8,5.9-5.4,9.8-6.4c1.1-0.3,2.2-0.5,3.4-0.4c0.5,0.1,1,0.1,1.2,0.7
		c0.1,0.5-0.4,0.8-0.7,1c-1.3,1.1-2.9,1.8-4.5,2.5c-2.9,1.2-5.9,2.1-8.9,2.8C241.5,277.2,241.5,277.1,241.5,277.1z"/>
	<path fill="#1BFC04" d="M292.7,328.4c0.2-0.1,0.5-0.2,0.7-0.3c4.9-2.5,10-4.1,15.5-4.4c0.4,0,0.8,0,1.1,0c0.5,0.1,1,0.2,1.1,0.8
		c0.1,0.7-0.6,0.8-1,0.9c-3.3,1.1-6.5,1.7-9.9,2.3c-2.4,0.4-4.8,0.7-7.2,1.1C292.9,328.6,292.8,328.5,292.7,328.4z"/>
	<path fill="#1BFC04" d="M239,287.2c-0.3-0.1-0.8,0.2-1.1-0.3c-0.2-0.5,0.1-0.9,0.4-1.2c2.8-3.3,6.4-5.2,10.6-6.1
		c0.4-0.1,0.8-0.2,1,0.1c0.3,0.3,0.1,0.6-0.2,0.8c-3,2.9-6,5.7-10.2,6.6C239.4,287.2,239.2,287.2,239,287.2z"/>
	<path fill="#1BFC04" d="M239.4,356.3c1-0.1,1.3,0.5,0.8,1.2c-1.8,2.1-2.8,4.8-4,7.3c-0.7,1.3-1.7,1.3-2.7,0.3
		c-0.7-0.7-0.9-1.5-0.8-2.5C233.1,360.1,237.1,356.4,239.4,356.3z"/>
	<path fill="#1BFC04" d="M246.8,320.6c-0.3,0.3-0.6,0.8-0.9,1.1c-2.6,2.1-5.2,4.2-7.8,6.2c-0.6,0.5-1.5,1-2.1,0.4
		c-0.7-0.7-0.1-1.4,0.4-2.1c2.3-3.3,5.6-5.1,9.4-6C246.2,320,246.6,319.7,246.8,320.6z"/>
	<path fill="#1BFC04" d="M242.3,363.8c0,1.4-0.7,2.6-1.3,3.4c-1.2,1.4-2,3.2-2.7,5c-0.5,1.1-1,2-1.9,2.8c-0.6,0.5-1.2,0.7-1.8,0.3
		c-0.5-0.3-0.3-1-0.2-1.5c0.3-1.7,1.2-3.3,2.3-4.6C238.1,367.1,239.7,365,242.3,363.8z"/>
	<path fill="#1BFC04" d="M292.4,333.5c4.6-3.7,10-3.9,15.6-3.5C302.7,331.1,298.1,334.6,292.4,333.5z"/>
	<path fill="#1BFC04" d="M283.4,473.5c-0.6,0.1-1.1-0.2-1.5-0.7c-1.9-2-3.4-4.3-4-7.1c-0.1-0.4-0.4-0.9,0.2-1.1
		c0.4-0.2,0.7,0.2,1,0.4c1.9,2.1,3.8,4.2,5.6,6.5C285.4,472.8,284.9,473.5,283.4,473.5z"/>
	<path fill="#1BFC04" d="M319.4,370.6c0.8,0.2,1.9-0.4,2.1,0.6c0.2,0.7-0.9,1-1.5,1.3c-2.2,1.1-4.3,2.1-6.5,3.2
		c-0.7,0.3-1.4,0.7-1.9-0.2c-0.5-0.8-0.2-1.4,0.5-2.1C314.1,371.5,316.7,370.9,319.4,370.6z"/>
	<path fill="#1BFC04" d="M248.7,257c0.1-1.3,0.6-2.4,1.8-2.9c1.9-0.7,3.7-0.6,5.5,0.4c1.1,0.6,0.8,1.2-0.1,1.7
		c-0.7,0.4-1.4,0.7-2.2,0.8c-1.1,0.1-1.9,0.5-2.7,1.2c-0.5,0.4-1.1,1-1.7,0.6C248.7,258.4,249,257.5,248.7,257z"/>
	<path fill="#1BFC04" d="M298,390.1c0.7,1.2,0.8,2.5,0.8,3.6c-0.1,2.2-0.5,4.3-0.8,6.5c0,0.3-0.2,0.6-0.3,0.9
		c-0.2,0.5-0.4,1.2-1.1,1c-0.7-0.1-0.7-0.8-0.7-1.2c-0.1-2.7,0.3-5.4,1-8C297.1,391.9,297.1,390.9,298,390.1z"/>
	<path fill="#1BFC04" d="M277.6,378.7c-0.1,3.3-1.1,6.4-2.1,9.5c-0.1,0.2-0.1,0.3-0.3,0.5c-0.5,0.7-1.2,1.6-1.9,1.2
		c-0.8-0.3-0.3-1.3-0.1-2C274.2,384.5,275.4,381.4,277.6,378.7z"/>
	<path fill="#1BFC04" d="M244.1,359.9c0-1.9,2.3-4.2,4.1-4.3c1.2-0.1,1.3,0.7,0.9,1.4c-0.9,1.3-1.8,2.7-2.8,3.9
		c-0.4,0.5-0.9,1-1.5,0.7C244.1,361.3,244.3,360.5,244.1,359.9z"/>
	<path fill="#1BFC04" d="M326.4,392.7c0-1.1-0.1-1.9,0.7-2.1c0.8-0.2,1.2,0.6,1.4,1.2c0.8,1.6,1.7,3.2,1.5,5
		c-0.1,0.5-0.2,0.9-0.6,1.1c-0.5,0.2-0.8-0.2-1.1-0.5C327.2,395.9,326.5,394.2,326.4,392.7z"/>
	<path fill="#1BFC04" d="M319.6,427.1c0.1-0.8,0.4-1.5,1.4-1.5c1.2-0.1,3.6,1.7,3.6,2.8c-0.2,1.7-1.7,1.4-2.8,1.5
		C320.6,430.1,319.7,428.9,319.6,427.1z"/>
	<path fill="#1BFC04" d="M276.9,258.4c-1.2-0.3-2.1,0.2-2.9,1.1c-0.2,0.3-0.5,0.6-0.9,0.3c-0.3-0.2-0.3-0.5-0.2-0.8
		c0.4-1.6,1.5-2.4,3.1-2.8s3-0.1,4.2,0.9c0.8,0.6-0.1,1-0.6,1.1C278.8,258.3,277.8,258.3,276.9,258.4z"/>
	<path fill="#1BFC04" d="M276.2,462.1c-2.1,0-4-2.9-3.2-4.9c0.3-0.6,0.7-0.6,1.2-0.3c1.5,1,2.6,2.3,3.1,3.9
		C277.5,461.7,277.1,462.2,276.2,462.1z"/>
	<path fill="#1BFC04" d="M238.5,350.2c-0.1,1-0.5,2-1.5,1.8s-2.4-0.2-2.7-1.5c-0.2-1,1.6-3.2,2.4-3
		C238.1,347.7,238.3,349,238.5,350.2z"/>
	<path fill="#1BFC04" d="M236.1,341.6c0.5,0,1.1-0.1,1.2,0.4c0.3,0.6-0.2,1-0.6,1.3c-1,1.1-2.3,1.7-3.5,2.6c-0.8,0.6-1.1,0-1.2-0.6
		C231.8,343.4,233.7,341.6,236.1,341.6z"/>
	<path fill="#1BFC04" d="M365.8,314.3c2.5,1.2,4.6,2.8,6.2,5C368.9,319.5,366.2,317.3,365.8,314.3z"/>
	<path fill="#1BFC04" d="M252,277.4c0.9-1.1,1.7-1.8,3.1-2.1c1.1-0.3,1.9,0,2.2,1.2c0.3,1.2-0.7,1.5-1.5,1.7
		C254.4,278.3,253.3,277.9,252,277.4z"/>
	<path fill="#1BFC04" d="M315.2,225c-0.6-0.5-1.9,0.3-1.9-0.9c0-1,0.8-1.8,2-1.8c1.1,0,1.5,0.7,1.6,1.5
		C317,224.9,316,224.8,315.2,225z"/>
	<path fill="#1BFC04" d="M272.5,395.1c-1.2,0.2-1.5-0.5-1.4-1.4c0-0.7,0.2-1.5,1.2-1.4c1,0.2,1.8,0.8,1.9,1.8
		C274.2,395.2,273.1,395,272.5,395.1z"/>
	<path fill="#1BFC04" d="M404.1,271.3c-1.1,0.2-1.5-0.6-1.5-1.6c0-0.6,0-1.4,1-1.4c0.7,0,2.1,1.5,2,2.2
		C405.4,271.4,404.8,271.4,404.1,271.3z"/>
	<path fill="#1BFC04" d="M307.1,467.4c0.4,0.1,1,0.2,1.4,0.4c0.6,0.2,1.3,0.2,1.3,0.9c0,0.8-1,0.8-1.5,1c-0.8,0.2-1.4-0.1-1.9-0.6
		c-0.4-0.3-1.1-0.6-0.9-1.2C305.8,467.1,306.5,467.6,307.1,467.4z"/>
	<path fill="#1BFC04" d="M360.3,456c-1.2,0.2-1-1-1.1-1.6c-0.1-0.6,0.2-1.3,1-1.2c0.9,0.3,1.9,0.8,1.8,1.8
		C362,456,361.2,456,360.3,456z"/>
	<path fill="#1BFC04" d="M241.1,292.7c-0.9-0.3-1.9-0.2-1.7-1.5c0.1-0.7,0.3-1.2,1.1-1.2c1,0.2,1.6,1,1.8,1.9
		C242.2,292.7,241.5,292.7,241.1,292.7z"/>
	<path fill="#1BFC04" d="M240.3,273.1c-0.4-0.3-1.3,0.1-1.2-0.7c0.2-0.8,0.7-1.7,1.6-1.8c0.7-0.1,1,0.5,0.9,1.1
		C241.7,272.5,241.3,273,240.3,273.1z"/>
	<path fill="#1BFC04" d="M233.8,353.4c-0.1,1-0.5,1.5-1.4,1.5c-0.5,0-1.1-0.1-0.9-0.8c0.3-0.9,0.6-1.8,1.5-2
		C233.8,352.1,233.6,352.9,233.8,353.4z"/>
	<path fill="#1BFC04" d="M240.8,343.5c0-0.2-0.2-1,0.8-0.9c0.9,0.2,1.5,0.8,1.6,1.6c0.1,0.9-0.8,0.9-1.3,1
		C240.8,345.3,240.8,344.6,240.8,343.5z"/>
	<path fill="#1BFC04" d="M246.5,289c-0.3-0.1-1,0.3-0.9-0.5s0.4-1.5,1.3-1.7c0.7-0.1,1,0.3,1,1C248,288.7,247.3,288.9,246.5,289z"/>
	<path fill="#1BFC04" d="M300.8,386.5c-1.8-0.7-1.8-0.7-1.8-2.4C299.8,384.6,300.2,385.5,300.8,386.5z"/>
	<path fill="#1BFC04" d="M241.5,277.2c-0.1,0.2-0.2,0.3-0.4,0.1c0,0,0.2-0.1,0.2-0.2C241.5,277.1,241.5,277.2,241.5,277.2z"/>
	<path fill="#1BFC04" d="M403.2,363.4c0.1,0.1,0.2,0.1,0.3,0.2C403.2,363.9,403.2,363.7,403.2,363.4
		C403.1,363.5,403.2,363.4,403.2,363.4z"/>
	<path fill="#737373" d="M246.5,427.1c-0.5,0-1.1,0.1-1.1-0.7c0-0.9,1.9-2.9,2.9-3c0.8-0.1,1.1,0.4,1.1,1.1
		C249.3,425.9,248.3,427,246.5,427.1z"/>
</g>
</svg>
