<?xml version="1.0" encoding="utf-8"?>
<!-- Generator: Adobe Illustrator 16.0.0, SVG Export Plug-In . SVG Version: 6.00 Build 0)  -->
<!DOCTYPE svg PUBLIC "-//W3C//DTD SVG 1.1//EN" "http://www.w3.org/Graphics/SVG/1.1/DTD/svg11.dtd">
<svg version="1.1" xmlns="http://www.w3.org/2000/svg" xmlns:xlink="http://www.w3.org/1999/xlink" x="0px" y="0px" width="1920px"
	 height="1080px" viewBox="0 0 1920 1080" enable-background="new 0 0 1920 1080" xml:space="preserve">
<g id="BG_Color_xA0_Image_1_">
</g>
<g id="Rectangle_1_1_" enable-background="new    ">
	<g id="Rectangle_1">
		<g>
			
				<rect x="616.689" y="197.189" transform="matrix(0.7071 -0.7071 0.7071 0.7071 -101.0137 837.1313)" fill="#336699" width="686.623" height="686.623"/>
		</g>
		<g>
			
				<rect x="616.689" y="197.189" transform="matrix(0.7071 -0.7071 0.7071 0.7071 -101.0137 837.1313)" fill="none" stroke="#66CC66" stroke-width="17" stroke-miterlimit="10" width="686.623" height="686.623"/>
		</g>
	</g>
</g>
<g id="Forma_1_1_" enable-background="new    ">
	<g id="Forma_1">
		<g>
			<path fill-rule="evenodd" clip-rule="evenodd" fill="#66CC66" d="M734.824,540.868c-5.884-41.526-19.657-138.744,43.626-195.988
				c53.319-46.073,126.08-43.774,210.405,6.665c2.871,1.714,4.62,2.767,6.094,3.463c13.606,8.426,31.679,17.811,42.462,16.072
				c2.667-0.425,5.002-1.688,6.783-3.47c2.716-2.717,4.146-6.665,3.482-10.756c-1.053-6.532-7.029-11.052-13.529-10.365
				c-3.974-0.511-16.605-6.634-26.933-13.082c-0.612-0.387-1.257-0.705-1.924-0.974c-0.736-0.412-2.298-1.35-3.701-2.184
				c-13.369-7.999-48.871-29.235-92.857-38.613c-56.805-12.107-106.14-0.481-146.629,34.565c-0.067,0.05-0.126,0.108-0.193,0.176
				c-73.167,66.056-58.096,172.52-51.659,217.971l0.676,4.776c1.721,12.401-0.194,23.108-1.096,26.555
				c-0.438,1.025-0.757,2.131-0.92,3.293c-0.662,4.798,1.532,9.66,5.61,12.269c4.072,2.599,9.302,2.599,13.382-0.017
				c3.35-2.156,5.862-4.755,7.687-18.63c0.807-6.168,1.451-15.825-0.088-26.881L734.824,540.868z M981.309,405.113
				c-9.927-23.162-26.848-40.418-46.45-47.318c-17.479-6.178-36.593-4.19-55.264,5.725c-27.404,14.563-41.187,51.647-37.79,101.648
				c0.031,0.624,1.749,68.683-11.753,124.844c-0.102,0.409-10.309,41.2-29.679,75.089c-3.408,5.945-1.338,13.529,4.604,16.927
				c5.945,3.408,13.53,1.347,16.928-4.613c21.084-36.843,31.795-79.648,32.264-81.521c14.646-60.926,12.458-131.66,12.401-132.29
				c-2.057-30.354,3.338-66.826,24.665-78.155c12.558-6.672,24.462-8.103,35.379-4.246c13.068,4.605,24.694,16.892,31.896,33.694
				c13.398,31.28,12.53,86.086-2.438,154.348c-7.499,34.223-27.223,119.564-48.476,172.532c-2.55,6.364,0.533,13.579,6.898,16.137
				c4.763,1.91,9.994,0.664,13.402-2.744c1.152-1.152,2.093-2.554,2.744-4.153c21.917-54.698,42.044-141.627,49.679-176.456
				C991.676,522.722,1001.069,451.255,981.309,405.113z M800.273,493.866c-0.893-8.754-1.285-17.542-1.309-26.343
				c-0.013-4.8,0.143-9.595,0.4-14.399c0.136-2.495,0.325-4.981,0.538-7.481c0.11-1.258,0.235-2.521,0.368-3.79
				c0.029-0.328,0.318-2.764,0.387-3.388c1.431-10.793,3.781-21.465,7.114-31.832c3.143-9.801,7.308-18.613,13.539-28.131
				c2.07-3.155,2.581-3.783,4.335-5.935c4.265-5.246,5.153-12.395,0.003-17.546c-4.417-4.416-13.281-5.262-17.551-0.002
				c-28.433,35.014-35.731,81.974-33.613,125.9c0.409,8.369,1.548,16.654,2.19,24.999c0.852,10.933,0.85,21.946,0.287,32.893
				c-0.572,11.258-1.542,19.862-4.503,30.852c-3.162,11.642-6.412,23.481-10.342,34.884c-1.35,3.925-2.787,7.026-4.859,10.885
				c-3.199,5.951-1.318,13.513,4.669,16.919c5.768,3.287,13.72,1.298,16.929-4.66c6.268-11.674,9.78-24.426,13.273-37.123
				c2.959-10.733,6.247-21.028,7.75-32.097C802.821,536.896,802.486,515.476,800.273,493.866z M926.05,425.562
				c-1.132-6.756-7.52-11.317-14.286-10.191c-6.76,1.133-11.326,7.533-10.198,14.293c20.775,124.161-37.713,252.24-49.64,276.67
				c-0.263,0.515-0.421,0.836-0.478,0.947c-2.805,6.259-0.024,13.604,6.223,16.415c4.837,2.179,10.324,0.994,13.87-2.552
				c0.99-0.99,1.843-2.167,2.476-3.505l0.201-0.418C886.734,691.613,948.064,557.198,926.05,425.562z M1102.987,571.688
				c26.44-4.444,53.778-9.037,73.324-18.801c6.126-3.069,8.607-10.523,5.547-16.648s-10.519-8.611-16.648-5.546
				c-16.214,8.104-41.695,12.395-66.331,16.535c-35.697,5.989-66.504,11.165-78.646,28.352
				c-9.11,12.926-16.056,44.479-26.424,94.889c-7.46,36.346-15.927,77.549-23.819,91.254c-3.413,5.945-1.377,13.527,4.562,16.947
				c4.979,2.868,11.092,1.898,14.966-1.975c0.755-0.756,1.43-1.619,1.982-2.58c9.889-17.192,18.018-56.766,26.63-98.655
				c6.945-33.843,15.593-75.959,22.383-85.568C1046.687,581.168,1077.896,575.905,1102.987,571.688z M1196.789,618.116
				c6.192-2.901,8.869-10.297,5.949-16.508s-10.302-8.883-16.514-5.962c-9.628,4.52-28.229,8.909-46.215,13.162
				c-37.999,8.969-61.74,15.09-70.6,27.646c-8.975,12.728-16.277,51.003-26.588,117.177c-1.272,8.098-2.362,15.091-3.183,19.88
				c-1.15,6.756,3.374,13.17,10.126,14.339c4.136,0.7,8.136-0.714,10.887-3.465c1.749-1.749,2.992-4.041,3.449-6.659
				c0.854-4.977,1.95-12.066,3.245-20.259c4.1-26.341,15.02-96.295,22.278-106.584c5.1-5.849,37.018-13.411,56.103-17.923
				C1165.829,628.21,1184.819,623.722,1196.789,618.116z M1214.915,678.49c-1.419-6.708-7.995-10.989-14.699-9.593
				c-8.15,1.714-15.912,3.002-23.425,4.276c-24.667,4.101-45.985,7.662-57.246,23.669c-12.699,18.006-12.559,67.039-12.417,76.679
				c0.115,6.854,5.764,12.317,12.616,12.209c3.345-0.063,6.381-1.426,8.573-3.618c2.296-2.297,3.692-5.483,3.63-8.982
				c-0.39-23.895,2.52-54.377,7.877-61.976c5.297-7.504,21.873-10.303,41.063-13.507c7.396-1.229,15.768-2.64,24.437-4.457
				C1212.027,691.784,1216.326,685.198,1214.915,678.49z M1018.534,431.562c26.512,19.009,55.591,14.583,84.051,3.011
				c6.278-2.535,10.745-7.969,8.865-15.139c-1.533-5.917-8.879-11.4-15.148-8.864c-10.401,4.227-21.3,8.625-32.58,9.657
				c-12.413,1.14-22.966-3.111-32.924-10.249C1017.815,400.665,1005.645,422.324,1018.534,431.562z M1035.246,480.856
				c-6.225-2.627-13.286-1.731-16.92,4.669c-3.056,5.37-1.573,14.285,4.669,16.929c36.235,15.324,79.734,10.809,114.329-7.485
				c14.171-7.508,1.84-29.043-12.273-21.585c-8.61,4.553-16.191,6.988-27.28,9.841
				C1077.457,488.451,1054.877,489.169,1035.246,480.856z"/>
		</g>
	</g>
</g>
</svg>
