<?xml version="1.0" encoding="utf-8"?>
<!-- Generator: Adobe Illustrator 18.0.0, SVG Export Plug-In . SVG Version: 6.00 Build 0)  -->
<!DOCTYPE svg PUBLIC "-//W3C//DTD SVG 1.1//EN" "http://www.w3.org/Graphics/SVG/1.1/DTD/svg11.dtd">
<svg version="1.1" id="Layer_1" xmlns="http://www.w3.org/2000/svg" xmlns:xlink="http://www.w3.org/1999/xlink" x="0px" y="0px"
	 viewBox="0 0 640 480" enable-background="new 0 0 640 480" xml:space="preserve">
<g>
	<path fill="#727272" d="M256.9,415.7C259.3,408.6,249.4,419,256.9,415.7L256.9,415.7z"/>
	<path fill="#727272" d="M438,210.5V122C438,57,385.1,4,320,4S202,57,202,122v88.5c-33,0-59,26.4-59,59V417c0,32.6,26.4,59,59,59
		h236c32.6,0,59.1-26.5,59.1-59V269.5C497,236.9,471,210.5,438,210.5z M246.7,338.6c-5.7-5.1,10.1-9.3,11.9-14.9c4-4.8,11.3-3,3.8,2
		C256.1,328.1,249.6,337.3,246.7,338.6z M243.7,348.7C246.9,339.6,251.2,353.9,243.7,348.7L243.7,348.7z M378.6,296.9
		c-13.4-7.8-27.7-14.8-43.3-17.2c-16.3-2.3-33.4-2.1-48.3,5.4c-4,0.9-14.2,9.4-14.8,3.3c6.7-3.3,15.4-6.4,23.6-8.8
		c15.1-5,31.8-5.9,47-0.8c14.6,3.1,28,9.8,40,18.6c2.9,7.4,17,10.9,15.8,18l-0.8-0.4l-1.3-1.1l0,0c-10.1-6.6-20.5-12.8-31.3-18.2
		c-7.5-4.1-16.1-5.4-23.9-8.7c-6.6,1.4-16.2-1.9-19.4-4.3c8.6-1.8,18.2,2.1,26.9,3.9c7.6,3,15.8,5.5,22.7,9.7
		C373.7,299.3,385.4,303.5,378.6,296.9z M306.5,282.4c3.9-1.6,19.8-0.4,7.8,1.6c-8.5,0.8-16.9,2.4-24.6,6.3
		c-10.4,3-18.7,10.4-28.7,14.2c-5.9,3.1-11.2,7.1-16.9,10.7c2.9-10,15.4-11.8,23-16.9C280.2,292.9,292,284.1,306.5,282.4z
		 M263.8,306.9c11.3-6.9,23.4-12.5,35.8-17.2c8.4-2.2,17.3-3.4,25.9-2c-3.5,3.3-14.9,1.3-21.4,3.6c-16,4.5-30.6,12.7-44.9,20.9
		c-4.7,4.1-11.5,7.6-15.3,11.4C245.8,314.3,256.8,311.5,263.8,306.9z M269,313.3c-4,2-8,6.6-12.4,6.2c5.5-6.8,14-10.1,21.6-14
		C287.1,305.8,271.6,311.1,269,313.3z M252.6,324.6c-2.3,0.7-5.2,5.7-7.5,4.2C245,323.3,261.9,317.5,252.6,324.6z M249.9,343.9
		C248.2,337.9,255.7,344.5,249.9,343.9L249.9,343.9z M273.8,328.8c7.8-7.8,18.9-11.7,29.8-11.8c11.2-3.2,23.2-2,34.2,1.1
		c3.8,1.4,17.7,3.9,14.7,7.1c-7.9-2-15.3-5.9-23.4-6.6c-9.7-3.6-19.8-1.3-29.5,1.1c-15.2,1.4-26.6,12.3-38.2,20.9
		c-3.8,3.4-5.7,9.7-11,11C253.8,340.6,265.4,335.5,273.8,328.8z M255.9,356.4c-0.4,1-1.6,2.7-2.9,1.8
		C250.7,353.5,261.8,349.7,255.9,356.4z M258.8,357.1c8.6-11.1,19.8-20.5,32.5-26.5c6.1,0.5-8,7.3-11.4,9.4
		c-7.4,4.6-11.9,12.3-19,17.3c-4,7.2-9.8,13.4-12.5,21.2c-0.3,1.1-1.2,2.6-2.5,2.2C246.1,371.5,254.1,364.5,258.8,357.1z
		 M294.1,334.9c0.4,4.9,7.3,1.3,0.5,4.1c-8.2,1.9-13.6,9.8-20.9,11.9C277.3,342.6,288.9,340,294.1,334.9z M295.2,333.7
		c2.7-4.4,17.6-4.3,14.3-3C304.6,331.3,300.3,334.8,295.2,333.7z M295.2,329.4c4.1-3.4,18.9-6.8,17.1-3.4
		C306.8,327.9,300.9,328.5,295.2,329.4z M304.9,323.2c-13.1,1.7-24.8,8.9-34.2,18c-5.7,0.3-7.3,9.6-12.7,8.9l0,0l0,0l0,0
		c4.9-8.8,14.5-13.4,21.8-19.8c11.3-7.2,24.8-10.1,38.1-10.5c8.4-0.3,16.5,2.4,24.4,4.6c5.1,0.6,12.9,7.7,15.7,6
		c-7.2-10.2,10.1,4.8,12.9,7.5c4.8,2,10.1,11.1,1.7,7.1c-5.4-7.8-13.4-11.9-22.2-14.8C336.6,322.5,320.2,321.9,304.9,323.2z
		 M366.6,329.4c-6.5-6-13.8-10-22.3-12.5c-9.7-3.7-19.9-4.6-30.3-4c-8.4,0.1-17.2,1.4-25.1,3.1c-12.8,4.5-22.3,14.4-33.1,22.1
		c-7.8,1.6,4.9-7.9,7.8-9.3c7-7.2,16.4-11.2,25.2-15.6c8.7-0.6,17.3-2.2,26-3.3c8.5-1.3,16.4,1.6,24.8,2.7
		c7.5,2.2,15.3,4.2,21.5,9.6c8.6,4.4,15.1,11.6,22.5,17.6c-0.4,5.8,17.8,12.5,10.2,14.2C383.2,347.6,377.5,335.7,366.6,329.4z
		 M362.5,319.8c-0.3-0.3-0.6-0.6-0.9-0.9C356.2,310.8,373.8,325.6,362.5,319.8z M350.8,312.4c-11.8-3.3-24.1-6.2-36.4-5.3
		c-6.9-0.3-14.7,4.9-20.9,3c8.1-3.3,17.1-4.9,25.7-5.6c13-0.9,25.4,3.8,38,6.4c2.8,0.7,18.9,6.2,14.8,8.4
		C365.6,314.8,358.1,313.5,350.8,312.4z M347.5,305.8c-15.2-5.7-32-5.5-47.6-1.6c-10,3.9-19,9.5-28.5,14.6c-1.5,0.5-3.1,0.9-4.8,0.8
		l0,0l0,0l0,0c5.9-5.7,14.2-7.9,20.8-12.7c9.3-4.1,18.7-7.9,29-8.1c8.4-2.9,16.3-0.1,24.3,2.9C344.6,302.5,358.1,307.9,347.5,305.8z
		 M326.1,294.5c-8.9,2.2-18.6,0.4-26.9,4.8c-3.7,0.6-16.3,7.3-14.4,2.7c9.2-3.6,18.1-8.5,28.3-8.5c9.1-0.7,18.1-3.3,27.3-2.5
		c9.7,1.9,19.1,5.2,27.8,10.2c9.7,4,17.2,11.6,25.8,17.4c1.8,0.8,8.9,10.7,3.2,8.6c-7.5-9.8-18.1-16.5-28.7-22.7
		C355.4,297.8,341,290.3,326.1,294.5z M396.9,304.3L396.9,304.3c-7.7-6-15-12.4-23.4-17.2c-10.9-7.8-24.4-9.8-37-13.4
		c-9.8-1.7-20.1-3.1-29.8-0.4c-9.1,1.5-17.8,5.4-26.9,7c-7,3-15.4,10.1-21.8,10c8.6-6.6,18.2-12.4,29.1-15.1
		c9.1-3.1,18.5-3.1,27.6-6.2c8.5,0.9,17.5,0.9,25.9,3.1c16.8,3.5,33.3,10.3,47.1,20.9C391.6,293.3,403.7,308,396.9,304.3z
		 M259.5,283.7C264.7,277.4,267.9,286.9,259.5,283.7L259.5,283.7z M394.4,291.9c-8.2-2.8-13.7-10.4-21.9-13.3
		c-14.6-7.6-30.9-10.3-47.1-11.9c-10.5-3-20.3,1.5-30.8,1.8c-9.1,2.3-17.7,6.6-26.7,9.3c-0.4-6.4,13.2-5.3,18-9.7
		c7.4-3.4,16.2-0.4,23.6-4.2c7.9-1.8,15.8,0.3,23.5,0.7c7.7,4,16.3,2.7,24.4,4.5c12,3.7,23.4,9.9,32.8,18.2c11.2,5.2-6.6-9-9.9-11.9
		c-9-8-21.1-10-32.2-12.8c-12.5,0.8-24.9-5.9-37.2-1.3c-4-2.3-16.9,6.5-15,0.5c8.8-3.4,18.6-4.4,28-4.6c9.3,0.4,17.9,4.4,27.3,3.8
		c13.2,0.1,25.1,6.7,34.5,15.4C388.9,277.5,405.8,295.3,394.4,291.9z M281.3,266.8c-1.3-0.5-2.2,2.5-3.1,1
		C279.2,261.1,291.4,267,281.3,266.8z M281.1,262.6c4.5-5.7,14.6-7.9,21.2-8.8c-0.5,5.2-11.9,4-16.2,8.6
		C284.5,262.9,282.8,263,281.1,262.6z M311.1,251.7c10-0.4,20.3-0.9,30.2,0.9c1.6-0.3,15.8,5.6,9.3,5.2c-11.9-2.7-23.9-4.4-36.1-3.4
		C310.1,255.2,302.6,252.4,311.1,251.7z M393.4,278.1C392.2,271.2,400.1,280.1,393.4,278.1L393.4,278.1z M389.3,275.4L389.3,275.4
		c-2.8-8.8-13.6-10.1-19.9-15.5c-7.9-2.3-15.3-5.6-22.6-9.2c-8.2-3.1-17.2-2.5-25.7-4.1c-8.4,1.1-16.9,1.6-25.1,3.9
		c-9.8,2.4-19.4,6.6-27.8,12.1c-6-4.9,11-8.1,15.3-11c9.4-3.1,18.9-6.4,28.9-6.9c10.2-1.6,20.3,0.5,30.4,2
		c13.9,4.7,27.7,10.1,40.2,17.9C386.3,265.3,398.7,276.4,389.3,275.4z M383.9,259.9c-11.5-6-23.4-11.3-35.7-15.3
		c-8.5-3.3-18.1-3.2-27.2-3.7c-9,1.6-18.4-0.1-27.1,2.9c-5,0.8-18.4,9.6-19,3.8c8.5-1.6,15.4-8.1,24.4-8.1c9.8-1,19.6-1.2,29.3-2
		c8.4,0.6,16.2,1.8,23.7,5.5c9.4,3.1,18.2,7.8,27.8,10.5C380.9,255,392.4,262.6,383.9,259.9z M285.8,239.1
		c-5.3,2.3-10.4,4.9-16.1,6.4c4.3-6.6,13.4-7.3,19.8-10.9c8.7-1.3,18.1-6,26.3-4.2C306.3,235.4,295.6,235.1,285.8,239.1z
		 M313.8,236.7C316,230.6,321,239.2,313.8,236.7L313.8,236.7z M319.3,228.3C319.6,226.2,321.3,229.5,319.3,228.3L319.3,228.3z
		 M320.6,231.6C321.9,227.2,322,235.2,320.6,231.6L320.6,231.6z M325.2,232.7C324.6,230.3,327.2,233.3,325.2,232.7L325.2,232.7z
		 M374.6,247.8c-9.6-5.2-20.2-8-30.4-11.8c-4.1-0.6-21.3-2.1-9-3.9c10.8,0.2,20.4,6.1,30.7,8.6C368.3,240.6,385.9,250.6,374.6,247.8
		z M261,122c0-32.5,26.5-59,59-59s59,26.4,59,59v89H261V122z M267.7,255.2c-2.8,1.6-5.8,2.6-8.8,3.7
		C259.3,252.4,278.5,247.7,267.7,255.2z M260.2,265.8c-0.9,0.5-1.9,2.1-3.1,1.2C254.7,258.6,271.6,264.3,260.2,265.8z M276.3,262.1
		c0.9,1.3-1.4,6.2-3.3,7.3c-6-1.1-14.6,5.7-20.5,7.3C257.5,268.7,269.3,267.8,276.3,262.1z M257.3,281.6c-2.4,0.9-4.9,1.4-7.5,2.3
		C253.7,275.4,272.8,275.4,257.3,281.6z M248.1,279.5C250.7,273.7,252.6,281.6,248.1,279.5L248.1,279.5z M255.3,288.8
		c-2.3,2-5.2,4-8.4,3.6C247.8,287.4,265,281.5,255.3,288.8z M253.9,293.8C255.4,288.6,258.6,295,253.9,293.8L253.9,293.8z
		 M248.4,296.8C248.1,290.9,254.9,299.6,248.4,296.8L248.4,296.8z M265.3,292.2c6.3-4.6,7.2,2.1,0.4,3c-6.9,4.3-14.7,5.7-21.8,10
		C248.4,297.7,258.9,297.5,265.3,292.2z M242.8,330.9C243.8,327.8,246.1,332.5,242.8,330.9L242.8,330.9z M244.4,343.7l-0.9,0.6
		l-1,0.6C239.4,339.7,252.2,338.8,244.4,343.7z M241.2,352.1C243.5,345.9,245.4,354.3,241.2,352.1L241.2,352.1z M247.7,357
		c-1,1.4-1.7,7.3-4.5,4.4C239.1,356.3,255.2,349.1,247.7,357z M244,370.7c-1.4-4.8,11.6-16.1,6-7.1
		C247.6,365.5,247.9,371.2,244,370.7z M272,352.1c1.4,4.8-12.3,12.3-14.3,19.9c-3.2,5.7-4.7,14.5-12.3,15.8
		C254.9,376.5,258.9,360.5,272,352.1z M246.9,400.8C246.2,398.4,248.9,401.4,246.9,400.8L246.9,400.8z M248.4,410.9
		c-2.2-6.6,8.2-18.9,3.7-21c-1.4,4.7-7.4,11-4,2c6.5-5.2,8.6-14,13.7-19.5c-3.3,11-7.5,22-10.1,33.3
		C251,407.6,250.3,409.8,248.4,410.9z M255.3,423.5C255,420.4,257.5,425.3,255.3,423.5L255.3,423.5z M256.6,424.4
		C257.7,422.8,257.5,426.6,256.6,424.4L256.6,424.4z M261.2,433.6c-2.7-8,1.3-16.4,0.4-24.5c-0.4-10,3.4-19.7,6.5-29.4
		c2.8-6.7-1.3-7-3-0.7c-2.5,7.7-5.3,15.3-6.5,23.5c-4.4,5.6,5.6,13.7-2.9,18.1c-9-8.9,3.6-21,4.1-31.4c1.8-8.4,4.6-17.3,12.3-22.2
		c3.2-3.7,10.8-13.5,13.1-11.3c-7.2,7.7-15.4,15.2-15.8,26.5c-2.3,10.2-5.7,20-5.8,31.2C263.2,420.1,263.5,427.1,261.2,433.6z
		 M273.7,446C274.3,443.8,275.8,447.7,273.7,446L273.7,446z M274.5,436.8c-3.4-8.7-1.5-18.4-2.2-27.6c4-1.4,0.6,12.1,3.3,16.5
		C274.8,428.4,281.6,441.7,274.5,436.8z M278.2,439.2C277.4,436.8,280.5,439.9,278.2,439.2L278.2,439.2z M279.1,447.1
		C275.1,435.2,288.4,451,279.1,447.1L279.1,447.1z M286.8,457.7c-4.1-3.1-6.7-13.2-0.7-4.9C287.4,454,291.9,458.5,286.8,457.7z
		 M295.8,456.7c-7.7-4.1-11.6-13.1-14.8-20.8c-3.1-9.9-2.4-20.1-5.1-30.2c-2.2-3.3-0.4-17.5,2.8-13.6c-2.5,12.4,2.6,24.6,3.5,36.9
		c2.7,8.6,5.8,17.5,12.4,24C296.3,454.4,300.1,460.5,295.8,456.7z M276.7,388C275.3,381.4,283.8,389.2,276.7,388L276.7,388z
		 M278.2,383.6c0.3-4.7,6.9-17.3,3.8-5.8C281.3,379.7,281.2,384,278.2,383.6z M298.1,451.8L298.1,451.8c-7.1-7.3-10.7-17.5-13.4-27
		c-2-9.8-4.4-19.5-3.6-29.5c0.4-8.4,2.6-19.1,8.9-24.3c-2.4,8.4-8,18.4-6.7,28.4c0.4,9.1,1.8,17.5,4.7,26.2
		c2.7,8.9,6.2,17.7,11.9,25.1C307.5,453.1,300.4,457.9,298.1,451.8z M330.5,358.1c-6.7-3.1-14.6-1-20.7,2.8
		c-6.9,3.1-11.6,10.1-15.4,16.6c-6.4,7.6-5.5,19.5-4.2,29.1c-1,2.6,5,16.3-1.3,11.9c-1.8-10.1-3.9-20.7-1.6-31.2
		c3.2-11.4,10.7-21.8,20.4-28.5c7.8-4,17.5-8,25.6-2.2c4.9,2.4,13.9,11,10.6,14.8c-4.3-5.2-11.3-8.9-16.3-11.3
		C330.9,360,337.5,361.7,330.5,358.1z M295.8,412.9c8.2,3-3.1-16.5,4.5-13.9c0,6.6,1,15.5,0.4,21c2.3,2-0.8,3.4-2.6,3.4
		c-4.2-8.8-6.2-18.2-5.7-28.1c-2.6-5,7.2-17.4,3.7-6.4C294.1,396.6,294.3,405.2,295.8,412.9z M301.4,387.2c-0.4,1.4-0.2,8.7-2.5,7
		C298,390.9,300.9,376.7,301.4,387.2z M301.6,380C299.6,374.6,305.9,383,301.6,380L301.6,380z M304,450.5c-0.4-0.3-0.6-0.4-1-0.7
		c-6.1-7.1-8.5-16.3-11.4-24.7c-1.4-8.7,5-2.5,3.9,2.5C296.5,435.7,305.8,443.5,304,450.5z M309.2,454.4
		C301.6,450.1,317,452.9,309.2,454.4L309.2,454.4z M312.3,456.2C310.9,452,314.9,456,312.3,456.2L312.3,456.2z M316.3,453L316.3,453
		c-9.6-5.1-12.5-16.7-16.9-25.4c3.4-9.1,9.6,11,10.8,15.4c1.3,5.2,9.3,9,10.7,10.7C319.3,454,317.5,454,316.3,453z M305.7,398.4
		c0.7,9.3,1,19.8,5.7,27.4c1.5,1.5,1.1,10.1-2,4.8l0,0c-5.4-7.1-5.9-15.8-5.6-24.3C302.8,401.6,304.4,385.7,305.7,398.4z
		 M310.6,374.8c-2.2,3.6-2.6,8.2-5.4,11.5C302.1,382.2,310.7,367.2,310.6,374.8z M318.1,384c-2.4,9.9,3.1,19,3,28.3
		c-4.9,1.7-3.4-12-5.7-16.1c-1.7-8.2,1.8-24.7,12.9-18.6c8.3,6.8,8.7,18.3,14.6,26.8c4.7,9.9,11.5,19,19.7,26
		c-0.6,1.1-2.6-0.4-3.6-0.3c-13.3-8.7-19.1-24.3-25.2-38.3C332.7,384.5,322.6,372.1,318.1,384z M327.3,390c-3.4-4.7-0.8-9.6,1.4-2.5
		C329.6,388.3,329.2,392.4,327.3,390z M321,419.1c-0.3-0.3-0.6-0.5-0.9-0.7C317.4,410.3,330.1,419.1,321,419.1z M324.2,432.5
		c0,0.6-1.4,3.9-2.1,2.1c-6.6-3-13.7-16.7-8-20.7C318.4,419.7,316.7,428.5,324.2,432.5z M323.3,450c-4.7-1.3-15.2-10.8-10.1-12.2
		C314.3,442.9,324.5,445.9,323.3,450z M327.8,451.9C328.1,449.9,329.8,453.2,327.8,451.9L327.8,451.9z M333.3,450L333.3,450
		c-8.8-2.7-14-11-20.9-16.3c6.8-0.4,13.3,10.2,20.5,13.7C334,448.2,336.6,452.4,333.3,450z M337.8,446c-4.4-1.1-16.4-9.3-11-10.6
		c4.5,3.1,11.9,8.8,13.8,11.3C339.6,446.9,338.5,446.8,337.8,446z M348.4,444.8l-2.2-0.3c-8.6-4.3-15.9-10.8-22.4-17.7
		c-4.2-4.9,3.1-11.9,4.2-3.6c4.2,10,15.6,12.8,21.1,21.3L348.4,444.8z M346.9,436.7c-7.8-4.6-14.2-11-17.9-19.3
		c-5.3-9.9-8.5-21.6-8.3-33c4-3,2.7,9.9,4.9,12.5c0.8,9.4,5.5,15.1,8.6,23.9c5,5.7,13.1,12.8,19.5,17.9
		C351.8,441.1,348.4,438.6,346.9,436.7z M355.1,442.1C353.2,435.8,361.6,442.9,355.1,442.1L355.1,442.1z M359.2,437.2
		c-7.6-4.9-14.7-10.1-19.6-17c-4.7-8.4-9.8-17.2-11.5-26.8c7.3-1.5,4,14.6,11.3,16.7c2.2,10.1,11.9,19.6,21.6,24.3
		C364.5,436.5,363.1,439.3,359.2,437.2z M363.4,432L363.4,432L363.4,432L363.4,432c2.6-8.1-10.3-13.2-12.7-20.9
		c-4.7-7.5-9.3-14.6-11.6-23.2c-4-6.7-10.7-19.8-20-13.7c-9.5,5.9-7,18.5-6.6,28c2.2,3.8,1.6,13.6-2.7,6.6
		c-0.2-8.9-1.5-18.1,0.4-26.9c2.3-7.2,11-15.1,18.9-11.6c9.2,7.3,13.4,18.7,18.2,28.9c4.9,8.9,10,17.4,17,24.9
		C367.9,426,368.8,433.2,363.4,432z M312.2,369.7c2.3-4.7,16.1-4.5,5.6-0.6C316.5,369.6,312.3,373.2,312.2,369.7z M369.5,423.6
		L369.5,423.6c-5.6-7.5-13.4-13.4-16.9-22.4c-6.2-9.4-9.2-21-16.9-29.4c-6.4-4.2-15.6-13.7-23-6.3c-6.4,2.7-12.5,15.1-15.6,15.2
		c2.1-9.3,10.7-16.6,19.1-20.2c8.8-2.1,15.3,5.8,22.4,9.6c12.3,13.7,15.4,33.7,29.2,46.3C368.6,418.2,377.3,429,369.5,423.6z
		 M372,416.4c-6-8-11.9-16.2-17.1-24.4c-2.2-4.9-10.4-16.3-7-18.6c6,6.6,9.2,15.2,13.9,23.1c3.8,7.2,10,12.9,14.2,19.8
		C374.9,417.2,373.1,416.4,372,416.4z M376.4,409.4c-3.8-7.9-11.2-13.5-14.4-21.4c-7.5-6.4-8.5-17-15.9-23.6
		c-6.4-6.8-13.8-14.6-24.1-13.5c-9.7,1.7-20.5,6.4-25.7,15c-3.4,5.7-7.5,1.9-2.2-2c7.4-9.7,19.8-14.1,31.6-15.3
		c11.1,1.6,20.1,9,26.6,17.9c5.8,7.3,9.2,16.3,15.4,23.3C368.4,395.7,382.4,404.5,376.4,409.4z M377.8,413.7
		C377.4,410.4,380.1,414.5,377.8,413.7L377.8,413.7z M378.3,396.9c-5.1-7.3-12.6-13.4-16-21.6c-5.2-8.6-11.5-15.7-18.8-22.5
		c-8.4-5.7-19.5-9.3-29.3-4.6c-12,3.1-22.7,10.7-28.8,21.6c-5.8,2.6,7.5-13.5-1.9-5.5c-6.6,6.6-7.2,16.7-10.1,25.2
		c-1.1,10-4.4,18.6-4.8,28.4c-0.4,9.1,2,18.2,4.9,26.5l-0.8,0.1l-1.8-0.9l0,0c-4.9-7.4-6-16.5-4.9-25c-0.7-8.2,3.5-15.5,3.4-23.7
		c2.9-8.4,3-17.9,7.7-25.8c2.7-4.9,6.8-10.5,12.6-9.8c-1-6.3,5.3-0.7,7.9-6.6c9.2-5.7,19.8-7.9,30.4-9.8c14.9,3.5,26,15,34.6,27
		c7,7.3,10.7,17.1,18.1,24C384,397.9,381.2,404.4,378.3,396.9z M286.6,353.8c4.6-6.2,13-7,19.4-10.7c4-3.6,21.2-2.6,8.9,0
		c-9.9,1.1-17.9,7.4-27,10.4L286.6,353.8z M383.7,390.8L383.7,390.8c-9.5-12.5-19.4-24.7-29.5-36.6c-7.4-6.5-15.7-13.5-26-13.6
		c-8.5-3.1-17.7-2.5-26,0.9c-8.9,3.4-17.2,8-24.2,14.6c-5.4,3.1-11.3,15.6-15,13c8.4-11.2,19.1-21,31.8-27.2
		c14.8-5.8,31.8-7.1,46.7-0.7c7.5,3.2,13.3,9.7,19,15.3c7.2,7.1,12.2,15.7,18.8,23.1C379.6,383.1,392.9,392.5,383.7,390.8z
		 M385.6,381.3L385.6,381.3c-10.3-14.4-21.6-28.8-36.1-39.2c-12.1-7.5-27.4-10.1-41.2-6.3c-5,1.1-10.7-0.4-2.9-1.8
		c8.4-0.6,16.8-3.5,25.3-2c14.1,2.5,27.6,10.2,36.4,21.7c7.5,8.4,15.3,16.5,21.4,25.9C390.4,382.4,387,382.3,385.6,381.3z
		 M389.3,373.7c-9.3-12.8-20.4-24.7-33-34.4c-8.2-4-16.1-9.7-25.5-9.9c-6-4-14.1,3.5-18.1-0.4c7.5-5.8,17.9-2.2,26.7-0.4
		c10.7,3.8,21.6,8.6,29.3,17.3c9.2,6.6,14.1,17.3,22.1,25.1C392,372.3,391.5,374.8,389.3,373.7z M390.7,362.3c1.9,2,6.2,9,0,4.3l0,0
		c-3.2-6.5-11.8-14.8-13.5-18.8c7,2.1,14.5,9.2,18.6,13.8C392.8,359.1,384.4,356.4,390.7,362.3z M394.7,344.9
		c-8.4-7.3-19.5-16.5-25.6-23.4c9.8-0.4,14.9,11,21.8,16.7C393.8,338.8,403,350.8,394.7,344.9z M397.5,337.7
		c-7-5.5-12.3-12.9-19.7-18.1c-5.1-7.6-13.7-9.7-21.3-13.9c-4.8-5.3-17-4-18.7-9.6c8.8,1.2,17,5.1,24.7,9.3
		c11,5.3,19.8,14.1,28.9,22C393.3,328.2,404.9,344.1,397.5,337.7z"/>
</g>
</svg>
