<?xml version="1.0" encoding="utf-8"?>
<!-- Generator: Adobe Illustrator 18.0.0, SVG Export Plug-In . SVG Version: 6.00 Build 0)  -->
<!DOCTYPE svg PUBLIC "-//W3C//DTD SVG 1.1//EN" "http://www.w3.org/Graphics/SVG/1.1/DTD/svg11.dtd">
<svg version="1.1" id="Layer_1" xmlns="http://www.w3.org/2000/svg" xmlns:xlink="http://www.w3.org/1999/xlink" x="0px" y="0px"
	 viewBox="0 0 640 480" enable-background="new 0 0 640 480" xml:space="preserve">
<g>
	<path fill="#656565" d="M276.7,284.3c1,1.7,2.9,1.5,4.4,2.1c11.3,4.6,15.7,10.9,15.1,23.1c-0.8,17.2-1.3,34.6-3.1,51.9
		c-1.7,14.9-11.1,23.5-26.2,23.9c-17.4,0.4-34.8,0-52.3,0.2c-3.1,0-2.5-1.7-2.5-3.6c0.8-18.7,1.9-37.4,2.7-56.1
		c1.3-22.9,2.3-45.8,3.6-68.6c1-21.4,2.1-42.8,3.1-64.4c0.2-2.3,0.8-2.9,3.1-2.9c15.5,0.2,31.3-0.6,46.8,0.4
		c15.7,1,25.8,11.1,26.2,26.9c0.6,15.7-1,31.5-1.9,47c-0.6,10.1-6.7,15.7-16,18.7C278.8,283.3,277.4,282.9,276.7,284.3z
		 M239.4,346.9c-0.2,0-0.4,0-0.6,0c0,4.2,0,8.4,0,12.6c0,1.7,0.4,2.3,2.1,2.3c6.3,0,12.6,0.2,18.9-0.2c5.7-0.4,8.4-3.1,8.8-8.6
		c0.8-14.9,1.5-29.8,2.1-44.7c0.2-7.1-3.8-11.1-10.9-11.8c-4.6-0.4-9.2,0-13.6-0.2c-2.7-0.2-3.8,0.6-3.8,3.6
		C241,315.4,240.2,331.2,239.4,346.9z M271.9,232.7c0-3.4,0.4-6.7,0-10.3c-0.8-5.5-3.8-8.4-9.4-8.6c-4.4-0.2-8.6,0.2-13-0.2
		c-2.7-0.2-3.4,1-3.6,3.4c-0.8,17.4-1.9,35.1-2.7,52.5c-0.2,2.1,0.4,2.9,2.5,2.7c3.8-0.2,7.6,0,11.3-0.2c8-0.4,12.6-4.8,13-12.8
		C271.1,250.5,271.5,241.5,271.9,232.7z"/>
	<path fill="#656565" d="M146.4,385.3c-4.6,0-9.2,0-13.9,0c-17.2-0.4-27.1-10.1-27.5-27.1c-0.2-14.5,1.3-29,1.9-43.7
		c1-22.7,2.3-45.3,3.6-67.8c0.6-10.9,0.4-21.8,2.3-32.5c2.9-14.9,12.2-23.1,27.3-23.9c10.5-0.6,21.2-0.6,31.9,0
		c16.4,0.8,25.4,10.3,25.6,26.9c0.2,14.9-1.3,29.6-1.9,44.3c-1,22.3-2.3,44.5-3.6,66.8c-0.6,10.9-0.4,21.8-2.3,32.5
		c-2.7,15.5-13,24.4-28.8,24.8C156.2,385.5,151.4,385.3,146.4,385.3L146.4,385.3z M172,230C172.2,230,172.2,230,172,230
		c0.2-1.9,0.2-4,0.2-5.9c0-6.9-3.1-10.1-10.1-10.3c-4.2-0.2-8.4,0-12.6,0c-8.2,0.2-11.8,3.4-12.2,11.5c-0.4,6.1-0.6,12-0.8,18.1
		c-0.8,17-1.9,34-2.9,51c-1,18.7-2.1,37.4-2.9,56.1c-0.4,7.6,3.1,10.9,10.9,11.1c3.6,0,7.3,0,10.9,0c9,0,12.4-3.4,13-12.4
		c0.4-7.6,0.6-15.1,1-22.7C168.4,294.4,170.3,262.1,172,230z"/>
	<path fill="#656565" d="M404.4,275.7c-1.3,22.5-2.3,44.9-3.6,67.6c-0.2,5.7-0.4,11.5-1.5,17.2c-2.7,14.5-10.9,22.9-25.6,24.4
		c-11.8,1.3-23.9,1.3-35.7,0c-15.1-1.5-23.1-10.7-23.5-26c-0.4-14.9,1.3-29.6,1.9-44.3c1-22.7,2.3-45.3,3.6-67.8
		c0.6-10.5,0.4-21.2,2.3-31.7c2.9-15.7,12-23.9,27.9-24.8c10.5-0.6,21-0.6,31.5,0c16.4,1,25.4,10.3,25.6,26.7
		c0.2,15.1-1.3,30-1.9,45.1C405,266.7,404.6,271.3,404.4,275.7L404.4,275.7z M364.9,213.8L364.9,213.8c-1.9,0-3.6,0-5.5,0
		c-8.8,0-12.4,3.4-12.8,12.2c-0.2,5.7-0.6,11.5-0.8,17.2c-1,17.2-1.9,34.2-2.9,51.4c-1,18.5-1.9,37.2-2.9,55.6
		c-0.4,8,2.9,11.3,10.9,11.3c3.8,0,7.6,0,11.3,0c8.2,0,11.8-3.4,12.4-11.5c0.6-10.9,1-21.6,1.7-32.5c1.3-22,2.5-44.1,3.6-66.3
		c0.4-9.2,1-18.3,1.3-27.5c0.2-6.7-3.1-9.9-9.7-10.1C369.5,213.8,367.2,213.8,364.9,213.8z"/>
	<path fill="#656565" d="M92,227.7c-0.8,15.7-1.5,31.7-2.7,47.4c-0.8,11.3-4.2,22-15.3,28.1c-1.9,1-1.3,2.3-1,3.8
		c3.8,21.8,7.6,43.9,11.3,65.7c0.4,2.7,0.6,5.5,1.5,8.2c1.5,4.2-0.4,4.8-4,4.6c-5-0.2-10.3-0.2-15.3,0c-3.1,0.2-4.4-0.6-5-4
		c-3.6-23.5-7.6-47-11.1-70.5c-0.6-3.4-1.7-4.8-5.2-4.4c-2.5,0.2-5,0.2-7.6,0c-3.4-0.4-3.8,1-4,4c-1,23.5-2.3,47-3.4,70.7
		c-0.2,3.4-1,4.4-4.6,4.2c-6.1-0.4-12-0.2-18.1,0c-2.5,0-3.4-0.6-3.1-3.4c1-18.9,1.9-37.8,2.9-56.5c1.3-22.7,2.3-45.6,3.6-68.2
		c1-21.4,2.1-42.8,3.1-64.4c0-2.1,0.6-3.1,2.9-2.9c17.2,0.2,34.4-0.2,51.4,0.4c13.4,0.4,21.8,9,23.3,22.5
		C92.2,217.8,92.4,222.8,92,227.7z M66,233.1c-0.2-3.1,0.6-6.7,0.2-10.3c-1-6.3-4-9-10.5-9.2c-4.4,0-8.6,0.2-13,0
		c-3.1-0.2-4,1-4.2,4c-0.4,9.2-0.8,18.5-1.5,27.9c-0.6,11.8-1.3,23.5-1.9,35.3c-0.2,2.5,0.4,3.6,3.1,3.4c4.8-0.2,9.7,0,14.5-0.2
		c4.8,0,8.2-2.5,9.9-6.9c0.8-2.3,1.3-4.8,1.5-7.3C64.7,257.7,65.3,245.7,66,233.1z"/>
	<path fill="#212121" d="M508.9,207.7c-8.2,7.6-17.2,14.3-25.6,21.8c-1-1.5-1.7-3.1-3.6-4c0.4,4.2-2.1,6.9-4,10.1
		c-4.2,7.1-8.2,14.3-12.6,21.2c-1.3,1.9-1.5,3.4-0.2,5.7c3.8,7.3,1.3,18.3-10.3,19.1c0.6-1,1-1.9,1.5-2.7c3.4-5.9,3.4-5.9-2.3-9
		c-7.1-4-7.1-4-11.1,2.9c-0.2,0.4-0.6,0.8-0.8,1.3c-4.2-6.3-1.3-14.5,6.7-17c3.8-1.3,5.7-3.4,7.6-6.5c4.4-8,9-15.5,13.4-23.5
		c1.5-2.7,3.8-4.2,6.1-6.1c5.2-3.8,9.9-8.2,14.7-12.4c1.3-1,1.7-2.5,2.1-4c2.7-8,7.1-14.5,15.3-17.8c0.2,0,0.6-0.2,0.6-0.4
		c2.7-5.7,7.1-1.7,10.9-2.1c9-0.8,13.6,5.5,18.1,11.5c4.6,6.7,6.5,14.1,4.8,22.3c-2.7,13.9-5.5,27.7-8.2,41.6
		c-1.9,9.7-7.6,16.6-16.6,20.6c-2.1,1-3.1,2.3-4,4.4c-1.7,5-3.6,9.9-5.2,14.7c-0.8,2.1,2.5,7.6,4.6,8.2c3.1,0.6,4.6,2.9,4.4,5.7
		c0,1.9,0.2,2.7,1.7,3.8c2.3,1.5,4,3.8,2.5,6.9c-0.4,1-0.6,2.3,0.6,3.1c2.9,2.1,2.7,5,1.9,8c-0.4,1.3-0.8,2.3,0.4,3.6
		c1.3,1.3,1,3.6,0.2,4.4c-2.7,3.4-1.5,7.6-2.9,11.1c-0.6,1.3-0.8,2.7-2.7,2.9c-0.8,0-1.5,0.8-1,1.7c1,2.9-1.3,5.2-2.5,5.9
		c-3.1,1.3-3.6,4.2-5.5,5.9c-1.5,1.3-2.5,3.4-5.2,2.9c-1.3-0.2-1.5,1-2.1,1.9c-1.7,2.5-3.6,4.6-7.1,3.4c-1.3-0.4-1.7,0.2-2.7,0.8
		c-2.5,1.9-5,4.4-8.4,1.7c-1-0.8-1.9,0-2.7,0.4c-2.5,1.3-5.2,2.3-7.6-0.4c-0.8-0.8-1.7-1-2.9-0.6c-0.2,0-0.4,0.4-0.6,0.4
		c-4,1-6.5-3.6-9-3.4c-4.2,0.2-6.1-1.5-8-4.4c-0.4-0.6-0.6-1.7-1.5-1.7c-4.2,0-6.5-1.9-6.5-6.3c0-1-1-1.5-2.1-2.1
		c-2.9-1.5-5.2-3.1-4.4-6.9c0.2-1,0-1.9-1.3-2.5c-2.9-1.7-4.4-4.2-2.5-7.6c0.6-1,1-2.3-0.4-3.1c-1.7-0.8-1.9-2.5-1.5-3.8
		c1.3-4.2,0.2-8.6,1.5-12.8c0.2-0.8,0.6-1.7,1.5-2.1c1.7-0.8,2.5-1.9,1.5-3.8c-0.2-0.4-0.2-1,0-1.5c2.3-3.8,4.4-7.6,6.7-11.1
		c0.8-1.3,1.9-1.9,3.4-2.3c1.3-0.4,2.7-0.8,2.7-2.7c0.2-1.9,2.1-2.7,3.4-2.9c4.8-0.6,7.1-6.5,12-5.7c2.5,0.4,3.6,0,5.2-1.3
		c1.9-1.3,4.2-1.3,6.5-0.4c4.6,1.7,7.1,0.4,8.4-4.2c0.4-1.3,0.6-2.5,0.8-3.8c1.9-6.3,3.1-12-1.3-18.5c-3.1-4.6-3.4-10.9-2.1-16.8
		c0.2-0.6,0.2-1.3,0.2-1.9c0.6-11.1,5.7-19.3,15.3-25c3.4-2.1,6.3-5.2,9.4-7.6C509.5,212.3,510.2,210,508.9,207.7z M499.3,264.2
		c-0.2-0.2-0.4-0.2-0.6-0.4c0,0.2,0,0.6,0.2,0.8c0.6,2.5,0.6,4.8,0,7.3c-4.2,17.8-8.4,35.9-12.6,54c-0.8,4-1.3,8.2-5.7,10.5
		c2.5,1,4-0.4,5.9-0.4c-0.4,5.5-2.5,8.4-6.9,9.4c-4.4,1-8-0.4-9.9-3.8c-1.9-3.6-1.9-9.2,1.5-11.1c5.2-3.1,4.8-8.4,6.5-13
		c-0.6-0.2-1-0.2-1.3-0.2c-8.4,1-14.7,4.8-17.8,12.8c-3.4,8.4-1.3,16,4.4,22.3c5.5,6.1,13,6.9,20.8,5.2c12.6-2.7,21.2-22,9.2-34.2
		c-1-1-3.1-2.3-1.5-3.8c1.5-1.5,2.5,1,3.6,1.9c8.2,8.4,8.8,20.8,1.5,30.4c-6.9,9-19.5,11.8-30,6.1c-10.1-5.2-14.5-17.2-10.5-28.8
		c3.4-9.2,10.3-13.6,19.5-14.5c3.1-0.2,3.4-2.3,3.4-4.2c-0.2-2.7-2.5-1.3-3.6-1c-13.6,0.8-24.6,12-25.6,26.2
		c-0.8,11.3,3.6,20.6,13.4,26c10.7,5.9,21.6,6.1,31.7-1.3c9.2-6.7,12.8-16.4,11.1-27.7c-1-7.6-5.5-13.4-11.5-18.1
		c-1-0.8-2.5-1.3-1.9-3.4c1.3-4.6,2.3-9,3.6-13.6c0.2-0.6-0.2-1.9,1.3-1.3c1.9,0.8,1.9-0.6,2.1-1.7c1-3.4,2.3-6.7,3.4-10.1
		c0.6-1.5,0.8-2.5-1.3-2.9c-2.1-0.4-2.3-1.5-1.7-3.4s1.3-3.8,1.5-5.7C501.6,269.7,502.8,266.3,499.3,264.2z M465.5,371.7
		c-16.6-6.9-25-19.7-24.4-37.4c0.8-18.5,13-27.9,29.6-33.4c-16.2,0.2-33.2,17.8-33.6,34.4C436.7,352.8,450.8,370.8,465.5,371.7z
		 M501.8,198.7c7.6,0,10.1,1.5,11.8,6.3c1.7,5,0.4,8.2-5.5,12.4c-0.8,0.6-1.3,1.3-1.5,2.1c-1.9,8.2-3.8,16.6-5.7,25.6
		c1.7-1,1.9-2.3,2.1-3.4c1.9-5.2,3.8-10.7,5.5-16c1.3-4,2.7-7.8,6.7-10.5c5.2-3.8,5.5-9,1.3-14.5C512.7,196,507.7,195.1,501.8,198.7
		z"/>
	<path fill="#656565" d="M587.6,187.2c7.8,0,15.5-0.4,23.1,0c15.7,0.8,24.8,10.5,25,26.5c0.4,15.5-1.3,31.1-2.1,46.6
		c-0.4,9.4-0.2,18.9-2.3,28.1c-3.6,14.5-13.4,22.5-28.3,22.9c-6.7,0.2-13.6,0.2-20.4,0c-2.5,0-3.6,0.6-3.8,3.4
		c-0.8,19.7-1.9,39.5-2.9,59.2c-0.4,8.2-0.4,8.2-8.6,8.2c-4.6,0-9.4-0.2-14.1,0c-2.9,0.2-3.4-0.8-3.4-3.6c1-18.7,1.9-37.4,2.9-56.1
		c1-22.3,2.3-44.5,3.6-66.8c1-22,2.3-43.9,3.1-65.9c0.2-2.7,1-3.4,3.6-3.1c8.2,0.2,16.2,0,24.4,0
		C587.6,186.9,587.6,186.9,587.6,187.2z M582.6,249.7L582.6,249.7c-0.6,11.8-1.3,23.5-1.9,35.3c0,1-0.8,2.7,1.5,2.7
		c5.7,0,11.3,0.2,16.8-0.2c5.7-0.6,8-4.4,8.4-12.4c0.6-9.2,1-18.5,1.5-27.9c0.4-8.8,1-17.6,1.3-26.2c0.2-6.9-2.9-10.1-9.9-10.3
		c-4-0.2-8.2,0.2-12.2-0.2c-3.1-0.2-3.8,1-3.8,3.8C583.9,226.2,583.2,238,582.6,249.7z"/>
	<path fill="#212121" d="M529.9,180.9c-9-0.4-18.5-2.7-26.5-8.8c-3.6-2.7-6.3-6.1-8.4-10.3c-1.7-3.8-3.1-7.1,0.6-10.9
		c2.9-2.9,3.4-7.1,2.1-11.3c-0.6-1.9-0.6-3.6,0.4-5.2c6.9-11.8,22.3-18.3,35.9-15.1c14.9,3.6,25.4,15.1,26.7,29.4
		c0.2,1.7-0.2,2.9-1.3,4.2c-2.3,2.9-2.9,6.3-1,9.4c1,1.9,0.6,3.1-0.2,4.6C552.4,177.7,542.5,180.9,529.9,180.9z M538.1,142
		c0.4,0.4,0.6,0.6,1,1c0.6-0.6,0-1-0.4-1.5c-1.7-2.7-3.1-5.7-4.8-8.4c-0.4-0.6-0.8-1.5-1.7-0.4c-1.3,1.9-2.3,0.6-3.4-0.2
		c-1.9-1.5-3.8-2.9-5.7-4.4c-0.2,0.2-0.4,0.4-0.6,0.6c2.5,3.6,5,7.3,7.8,11.3c2.1-3.4,4-2.7,5.9,0
		C536.6,140.8,537.5,141.4,538.1,142z M538.3,151.7c-7.1,0-12.2,5.5-12.2,13s5.5,13.2,12.6,13.2c8.8,0,14.7-5.5,14.5-13.6
		C553,156.7,547.1,151.7,538.3,151.7z M512.5,172.5c7.8,0,12.2-5.5,12.2-14.9c0-7.1-5.5-11.5-14.3-11.5c-6.9,0-11.8,5.7-11.8,13.9
		C498.6,166.8,504.7,172.2,512.5,172.5z"/>
	<path fill="#212121" d="M495.9,137.4c-0.4,4.8-0.4,9.2-2.7,13.2c-1.7,2.7-3.4,2.7-4.6-0.2c-2.3-4.8-1.5-9.4,0.8-14.9
		C490.7,140.1,493.2,138.7,495.9,137.4z"/>
	<path fill="#212121" d="M496.3,103c-0.8,11.1-0.8,22.3-3.4,34.2c-2.7-3.6-1.9-6.5-1.5-9.4c1.3-8.2,2.5-16.6,3.8-24.8
		C495.7,103,495.9,103,496.3,103z"/>
	<path fill="#656565" d="M496.3,103c-0.2,0-0.6,0-0.8,0c0.2-3.6,0.8-7.1,1.5-8.8C496.5,96,497.6,99.6,496.3,103z"/>
	<path fill="#FEFEFE" d="M239.4,346.9c0.8-15.7,1.9-31.3,2.5-47c0.2-2.9,1-3.8,3.8-3.6c4.6,0.2,9.2,0,13.6,0.2
		c7.1,0.4,11.1,4.6,10.9,11.8c-0.4,14.9-1.3,29.8-2.1,44.7c-0.4,5.7-3.1,8.4-8.8,8.6c-6.3,0.4-12.6,0-18.9,0.2
		c-1.9,0-2.1-0.8-2.1-2.3c0-4.2,0-8.4,0-12.6C238.9,346.9,239.2,346.9,239.4,346.9z"/>
	<path fill="#FEFEFE" d="M271.9,232.7c-0.6,8.8-1,17.8-1.7,26.7c-0.6,8-5.2,12.4-13,12.8c-3.8,0.2-7.6,0-11.3,0.2
		c-2.1,0-2.7-0.6-2.5-2.7c1-17.4,1.9-35.1,2.7-52.5c0.2-2.3,0.8-3.6,3.6-3.4c4.4,0.2,8.6,0,13,0.2c5.5,0.2,8.6,3.1,9.4,8.6
		C272.3,226,271.9,229.3,271.9,232.7z"/>
	<path fill="#FEFEFE" d="M172,230c-1.9,32.1-3.6,64.2-5.2,96.6c-0.4,7.6-0.8,15.1-1,22.7c-0.4,9.2-3.8,12.4-13,12.4
		c-3.6,0-7.3,0-10.9,0c-7.8-0.2-11.1-3.6-10.9-11.1c0.8-18.7,1.9-37.4,2.9-56.1c0.8-17,1.9-34,2.9-51c0.4-6.1,0.6-12,0.8-18.1
		c0.4-8.2,4-11.5,12.2-11.5c4.2,0,8.4,0,12.6,0c6.9,0.2,9.9,3.4,10.1,10.3C172.2,226.2,172.2,228.1,172,230
		C172.2,230,172.2,230,172,230z"/>
	<path fill="#FEFEFE" d="M364.9,213.8c2.3,0,4.4,0,6.7,0c6.7,0.2,9.9,3.6,9.7,10.1c-0.2,9.2-0.8,18.3-1.3,27.5
		c-1.3,22-2.5,44.1-3.6,66.3c-0.6,10.9-1,21.6-1.7,32.5c-0.4,8.2-4,11.3-12.4,11.5c-3.8,0-7.6,0-11.3,0c-8-0.2-11.3-3.6-10.9-11.3
		c0.8-18.5,1.9-37.2,2.9-55.6c0.8-17.2,1.9-34.2,2.9-51.4c0.4-5.7,0.6-11.5,0.8-17.2c0.4-8.8,4-12.2,12.8-12.2
		C361.3,213.8,363.2,213.8,364.9,213.8L364.9,213.8z"/>
	<path fill="#FEFEFE" d="M66,233.1c-0.6,12.4-1.3,24.4-1.9,36.5c-0.2,2.5-0.4,5-1.5,7.3c-1.7,4.4-5,6.9-9.9,6.9
		c-4.8,0-9.7-0.2-14.5,0.2c-2.7,0.2-3.4-0.8-3.1-3.4c0.6-11.8,1.3-23.5,1.9-35.3c0.4-9.2,1-18.5,1.5-27.9c0.2-2.9,1-4.2,4.2-4
		c4.2,0.2,8.6,0,13,0c6.5,0.2,9.4,2.9,10.5,9.2C66.6,226.6,65.8,230,66,233.1z"/>
	<path fill="#FEFEFE" d="M499.3,264.2c3.6,2.1,2.3,5.5,2.1,8.4c-0.2,1.9-0.8,3.8-1.5,5.7c-0.6,1.9-0.4,2.9,1.7,3.4
		c1.9,0.2,1.7,1.5,1.3,2.9c-1.3,3.4-2.3,6.7-3.4,10.1c-0.4,1-0.2,2.5-2.1,1.7c-1.3-0.6-1,0.8-1.3,1.3c-1.3,4.6-2.3,9.2-3.6,13.6
		c-0.6,2.1,0.8,2.5,1.9,3.4c6.1,4.6,10.3,10.5,11.5,18.1c1.7,11.3-1.9,20.8-11.1,27.7c-10.1,7.6-21.2,7.3-31.7,1.3
		c-9.9-5.5-14.3-14.7-13.4-26c1-14.3,12-25.4,25.6-26.2c1,0,3.6-1.7,3.6,1c0,1.9-0.2,4-3.4,4.2c-9.2,0.8-16.4,5.5-19.5,14.5
		c-4,11.5,0.4,23.5,10.5,28.8c10.5,5.5,23.1,2.9,30-6.1c7.3-9.7,6.7-22-1.5-30.4c-0.8-0.8-1.9-3.4-3.6-1.9c-1.7,1.5,0.4,2.7,1.5,3.8
		c12,12,3.4,31.3-9.2,34.2c-7.8,1.7-15.3,0.8-20.8-5.2c-5.7-6.3-7.8-13.9-4.4-22.3c3.1-8,9.4-11.8,17.8-12.8c0.4,0,0.8,0.2,1.3,0.2
		c-1.7,4.6-1.3,9.9-6.5,13c-3.4,2.1-3.6,7.6-1.5,11.1c1.9,3.4,5.5,4.6,9.9,3.8c4.4-1,6.5-3.8,6.9-9.4c-1.7,0.2-3.4,1.7-5.9,0.4
		c4.4-2.3,4.8-6.5,5.7-10.5c4.2-18.1,8.4-35.9,12.6-54c0.6-2.5,0.8-4.8,0-7.3C498.8,264.4,499.1,264.4,499.3,264.2z"/>
	<path fill="#FEFEFE" d="M465.5,371.7c-14.7-0.6-28.6-18.9-28.3-36.3c0.4-16.6,17.4-34.2,33.6-34.4c-16.4,5.5-28.8,14.9-29.6,33.4
		C440.3,351.9,448.7,364.5,465.5,371.7z"/>
	<path fill="#FEFEFE" d="M501.8,198.7c5.9-3.8,10.7-2.9,14.7,2.3c4.2,5.2,4,10.7-1.3,14.5c-4,2.7-5.5,6.3-6.7,10.5
		c-1.7,5.2-3.6,10.7-5.5,16c-0.4,1-0.4,2.3-2.1,3.4c2.1-9,3.8-17.2,5.7-25.6c0.2-0.8,0.6-1.5,1.5-2.1c5.7-4,7.1-7.1,5.5-12.4
		C511.9,200.4,509.3,198.9,501.8,198.7z"/>
	<path fill="#FEFEFE" d="M498.6,264.6c0-0.2,0-0.6-0.2-0.8c0.2,0.2,0.4,0.2,0.6,0.4C499.1,264.4,498.8,264.4,498.6,264.6z"/>
	<path fill="#FEFEFE" d="M582.6,249.7c0.6-11.8,1.3-23.5,1.7-35.3c0.2-2.7,0.8-4,3.8-3.8c4,0.2,8.2,0,12.2,0.2
		c6.9,0.2,10.1,3.4,9.9,10.3c-0.2,8.8-0.8,17.6-1.3,26.2c-0.4,9.2-1,18.7-1.5,27.9c-0.4,7.8-2.9,11.8-8.4,12.4
		c-5.7,0.6-11.3,0.2-16.8,0.2c-2.3,0-1.5-1.7-1.5-2.7C581.3,273.2,582,261.5,582.6,249.7L582.6,249.7z"/>
	<path fill="#FEFEFE" d="M538.3,151.7c8.8,0,14.9,5,14.9,12.6c0.2,8.2-5.7,13.6-14.5,13.6c-7.1,0-12.6-5.7-12.6-13.2
		C526.1,157.3,531.2,151.9,538.3,151.7z M547.1,165.1c0-4.2-3.4-7.8-7.6-8c-4.6-0.2-8.2,3.4-8.2,7.8c0,4.2,3.6,7.8,7.8,7.8
		C543.3,172.7,546.9,169.3,547.1,165.1z"/>
	<path fill="#FEFEFE" d="M512.5,172.5c-7.8,0-13.9-5.5-13.9-12.6c0-8.2,4.8-13.9,11.8-13.9c8.8,0,14.3,4.4,14.3,11.5
		C524.7,166.8,520.3,172.5,512.5,172.5z M519,159.6c0-4.4-3.1-7.8-7.3-8c-4.4-0.2-8,3.4-8,7.8c0,4.2,3.4,7.8,7.8,7.8
		C515.4,167.4,519,164.1,519,159.6z"/>
	<path fill="#FEFEFE" d="M538.1,142c-0.6-0.6-1.5-1.3-1.9-1.9c-1.9-2.7-3.6-3.4-5.9,0c-2.7-4-5.2-7.6-7.8-11.3
		c0.2-0.2,0.4-0.4,0.6-0.6c1.9,1.5,3.8,2.9,5.7,4.4c1,0.8,2.1,2.3,3.4,0.2c0.8-1,1.3-0.2,1.7,0.4c1.7,2.7,3.1,5.7,4.8,8.4
		C538.3,141.6,538.1,141.8,538.1,142z"/>
	<path fill="#FEFEFE" d="M538.5,141.6c0.6,0.2,1,0.6,0.4,1.5c-0.4-0.4-0.6-0.6-1-1C538.1,141.8,538.3,141.6,538.5,141.6z"/>
	<path fill="#212121" d="M547.1,165.1c0,4.2-3.8,7.8-8,7.6c-4.2,0-7.8-3.6-7.8-7.8c0-4.4,3.6-7.8,8.2-7.8
		C543.8,157.3,547.1,160.9,547.1,165.1z"/>
	<path fill="#212121" d="M519,159.6c0,4.2-3.6,7.8-7.8,7.6c-4.2,0-7.8-3.6-7.8-7.8c0-4.4,3.6-8,8-7.8
		C515.8,151.9,519.2,155.5,519,159.6z"/>
</g>
</svg>
