<?xml version="1.0" encoding="utf-8"?>
<!-- Generator: Adobe Illustrator 18.0.0, SVG Export Plug-In . SVG Version: 6.00 Build 0)  -->
<!DOCTYPE svg PUBLIC "-//W3C//DTD SVG 1.1//EN" "http://www.w3.org/Graphics/SVG/1.1/DTD/svg11.dtd">
<svg version="1.1" id="Layer_1" xmlns="http://www.w3.org/2000/svg" xmlns:xlink="http://www.w3.org/1999/xlink" x="0px" y="0px"
	 viewBox="0 0 640 480" enable-background="new 0 0 640 480" xml:space="preserve">
<g>
	<path fill="#9B272B" d="M320,394.8c-80.3,0-160.4,0-240.7,0c-2.2,0-2.7-0.5-2.7-2.7c0.1-129.2,0.1-258.5,0-387.7
		c0-2.2,0.6-2.7,2.7-2.7c160.4,0,320.9,0,481.4,0c2.2,0,2.7,0.5,2.7,2.7c-0.1,129.2-0.1,258.5,0,387.7c0,2.2-0.6,2.7-2.7,2.7
		C480.4,394.8,400.3,394.8,320,394.8z M484.3,173c0.9-0.3,1.5-0.6,2.1-0.8c14.3-5.3,28-11.8,41-19.9c9.9-6,19.2-12.8,27.6-20.9
		c1.2-1.2,1.2-1.7-0.1-2.7c-2.7-2-5.2-4.1-7.7-6.4c-1.5-1.5-2.4-1.3-4.1,0c-20.4,17.1-43.3,29.5-68.3,38.3c-1.6,0.6-2.4,0.2-3.5-1
		c-8.1-9.3-17.3-17.4-28.1-23.5c-13.6-7.6-28-10.2-43.2-6.7c-13.7,3.1-25.1,10.2-35.1,20c-0.6,0.6-0.9,1.3-1.9,1.4
		c-4.9,0.2-9.9,1-14.8,0.5c-8.1-0.9-14.9,1.4-20.2,7.4c-4.1,4.5-6.5,9.9-8.1,15.6c-0.1,0.5,0,1.4-0.7,1.4s-1.4-0.1-1.9-0.8
		c-0.3-0.5-0.6-0.9-0.9-1.5c-2.6-3.9-5.6-7.6-9.5-10.2c-2.8-1.9-5.9-3.3-9.4-2.8c-4.4,0.6-8.9,0.5-13.4,0.7
		c-1.2,0.1-1.7-0.3-2.3-1.4c-2.6-5-5.5-9.6-9.1-13.9c-10-12-22.8-18.1-38.6-17.5c-10.8,0.3-20.8,3.6-30.2,8.8
		c-1.5,0.8-2,0.6-2.8-0.8c-2.2-3.9-4.4-7.9-6.7-11.8c-0.6-1-0.6-1.6,0.5-2.2c3.5-2.2,4.3-5.7,4.1-9.4c-0.2-5-4.1-8.2-8.9-7.8
		c-3,0.3-6,0.6-9.1,1c-14.6,2-28.8,5.8-41.9,13c-20.8,11.5-34.9,28.3-40.5,51.7c-0.9,3.8,0.1,7.2,1.4,10.5c0.7,1.7,3.4,2,5.1,3
		c0.9,0.6,1.9,0.6,2.9,0.2c1.4-0.5,2.8-0.7,4.2-1.2c1-0.3,1.7-0.1,2.3,0.8c3,3.9,6.5,7.6,10.1,11c5.9,5.9,12.1,11.5,18.2,17
		c0.5,0.5,1.5,0.7,0.9,1.9c-1,2-1.5,4.1-2.1,6.2c-0.2,0.9-0.6,1.3-1.6,1.3c-4.3,0.3-8.4,1.5-12.3,3.1c-15.5,6.2-29.4,15-43,24.5
		c-0.1,0-0.1,0.2-0.1,0.3c4.1,1.5,6.9,4.5,9.5,7.7c0.9,1,1.5,1.2,2.7,0.3c4.6-3.4,9.4-6.4,14.3-9.3c7.4-4.4,15-8.5,23.2-10.9
		c1.3-0.3,2.6-0.9,4.1-0.6c-1.2,4.5-1.4,9.1-1.3,13.6c0.2,10.2,2.8,19.6,9.4,27.8c6.4,7.9,14.3,11.7,24.5,9.6c2.6-0.6,5-2.8,7.2-2.3
		c2.2,0.5,4.1,3,6.4,4.2c8.9,4.5,17.9,3.5,26.4-0.9c3.6-1.9,7-3.4,11.2-2.8c0.6,0.1,1.2-0.1,1.7-0.2c6.7-1,12.1-4.5,16.6-9.4
		c0.6-0.6,1-1.3,2.1-1.3c3.7,0,6.9-1.4,9.9-3.5c3.6-2.4,6.5-5.6,9.1-8.9c0.6-0.8,1.3-1.3,2.3-1.3c11,0.1,22.1-1.2,33.1-0.5
		c8.8,0.6,15.5-3.3,19.7-11.2c0.8-1.6,1.5-3.3,2.1-5c0.1-0.5,0-1.2,0.9-1c2.2,0.2,4.3-0.7,6.2-1.6c1.4-0.7,2.1-0.7,3,0.7
		c1.7,2.8,4.1,5.1,6.9,6.9s5.7,2.8,9.1,2.3c10.3-1.3,20.7-2.4,31-3.8c1.5-0.2,2.3,0.1,3,1.6c3.3,6.5,8.4,10.6,15.7,11.6
		c4.3,0.6,8.5,0.1,12.7-1.2c1.3-0.5,2.2-0.2,3.4,0.3c10.5,5.8,21,6,31.7,0.8c6.2-3,11.4-7.2,15.8-12.3c0.9-1,1.3-1.2,2.3-0.1
		c5.7,5.8,12.2,10.5,18.8,14.9c2.7,1.7,2.9,1.9,1.5,4.8c-1.9,3.9-0.6,7.2,1.7,10.2c2.8,3.7,7.6,4.2,11.2,1.3
		c8.8-7.1,16.7-15,23.2-24.2c14.1-20,19.9-41.9,16.4-66.2c-0.7-5.2-3-9.3-7-12.4c-3.6-2.8-7-2.4-9.9,1c-1.3,1.5-2.4,3.3-3,5.2
		c-0.6,1.7-1.4,2-3,1.5c-2.3-0.7-4.8-1.2-7.1-2C496.4,180.9,490,177.8,484.3,173z"/>
	<path fill="#9C282C" d="M446.3,428.3c0-6,0-11,0-16c0-1.3,0.2-2,1.7-1.9c2.7,0.1,5.3,0.1,8,0c1.4-0.1,1.6,0.5,1.6,1.7
		c0,9.1,0,18.2,0,27.3c0,2.4,0.2,4.8,1.2,7c1.5,3.6,4.5,5.3,8.9,5.2c4.1-0.1,6.9-2.1,8-5.8c0.7-2,0.9-4.1,0.9-6.2
		c0-9.1,0-18.2,0-27.3c0-1.5,0.3-2,1.9-1.9c2.7,0.1,5.3,0.1,8,0c1,0,1.5,0.2,1.5,1.4c-0.1,10,0,20-0.1,30c0,2.2-0.5,4.3-1,6.4
		c-2.3,8.1-8,12.7-17.2,13.4c-3,0.2-6,0.1-9.1-0.5c-7.9-1.6-12.8-7.1-13.9-15.5C445.8,439.6,446.5,433.4,446.3,428.3z"/>
	<path fill="#1D1D1D" d="M151.3,447.5c5.6,4.1,11.2,6,17.7,4.6c1.9-0.3,3.5-1,4.4-2.9c0.9-2,0.2-3.8-1.4-5.2c-2.1-2-4.8-3-7.3-4.1
		c-2.8-1.2-5.6-2.3-8-4.3c-8.5-6.5-7.3-19.3,2.4-23.7c7.6-3.5,15.5-3,23.4-0.8c0.7,0.2,1,0.5,1,1.3c0,3.1,0,6.2,0,9.5
		c-3-1.6-5.9-2.8-9.1-3.1c-2.7-0.3-5.3-0.3-7.9,0.7c-4.1,1.6-4.5,5.1-1.3,7.9c2,1.5,4.2,2.4,6.5,3.5c2.7,1.2,5.3,2.4,7.9,4.1
		c5.1,3.5,6.7,8.5,5.9,14.3c-0.8,5.7-4.3,9.3-9.6,10.9c-7.6,2.3-15.2,2.1-22.8-0.5c-1.5-0.5-2-1.3-1.9-2.8
		C151.4,453.9,151.3,450.8,151.3,447.5z"/>
	<path fill="#9C282C" d="M413.3,426.6c0,4.6,0.1,9.3,0,13.8c0,1.5,0.5,1.7,1.9,1.7c4.3,0,4.3,0,4.3,4.2c0,3.9,0,4.1-4.1,3.9
		c-1.6,0-2.1,0.3-2,2c0.1,2.2,0,4.5,0.1,6.7c0,1.3-0.2,1.9-1.6,1.7c-2.3-0.1-4.6-0.1-7,0c-1.2,0-1.6-0.3-1.6-1.5
		c0.1-2.1-0.1-4.2,0.1-6.3c0.2-2.3-0.7-2.7-2.8-2.7c-5.8,0.1-11.7,0-17.5,0.1c-1.4,0-1.6-0.5-1.9-1.7c-0.5-4.6,0.9-8.2,4.2-11.8
		c6.9-7.6,12.5-16,17.1-25.2c0.5-0.9,1-1.3,2-1.2c2.4,0.1,4.8,0.1,7.2,0c1.4-0.1,1.9,0.3,1.9,1.7C413.3,417,413.3,421.8,413.3,426.6
		z M391.3,442.1c3.8,0,7.3,0,10.8,0c1.2,0,1-0.7,1-1.4c0-2.3,0-4.6,0-7c0-2.8,0-5.6,0-8.8c-2.1,3.3-3.8,6-5.7,8.8
		C395.6,436.6,393.5,439.1,391.3,442.1z"/>
	<path fill="#1D1D1D" d="M341.4,450.5c2.4-8.1,4.9-16.1,7.4-24.2c0.2-0.8,0.5-1.5,1.6-1.5c3.1,0.1,6.4,0,9.6,0
		c-0.3,2.1-1.3,3.8-1.9,5.6c-4.2,11.2-8.4,22.4-12.5,33.6c-1.4,3.7-3.1,7.3-6,10.1c-4.3,4.2-9.4,4.9-15.1,3.4c-1-0.3-1.5-0.8-1.4-2
		c0.1-2.3,0-4.6,0-7.1c1.6,0.3,3,1.2,4.6,1c2.7,0,4.8-1,5.9-3.6c0.5-1,0.8-2.2,1.4-3.1c0.7-1.3,0.6-2.4,0-3.7
		c-4.4-10.7-8.7-21.5-13.1-32.2c-0.2-0.6-0.5-1.2-0.8-2c3.9,0,7.7,0,11.4,0c1.2,0,1.2,0.8,1.4,1.6c2.3,8,5.1,15.9,7.1,24
		C341,450.4,341.1,450.4,341.4,450.5z"/>
	<path fill="#1D1D1D" d="M212.3,456.5c-3.7,4.4-8.4,5.9-13.7,4.9c-4.3-0.8-7.2-3.4-8-7.7c-0.9-4.6-0.2-9.1,4.1-12.2
		c2.4-1.7,5.2-2.4,8.1-2.8c2.7-0.3,5.5-0.8,8.1-1c1.5-0.1,1.7-0.8,1.4-2.1c-0.7-2.7-2.6-4.1-5.8-4.2c-4.4-0.1-8.5,1.3-12.7,3.8
		c0-2.8,0-5.2,0-7.8c0-0.6,0.6-0.8,1-0.9c6-2.2,12.1-3.5,18.5-1.9c6,1.5,9.3,5.7,9.5,12.8c0.2,7.3,0.1,14.8,0.1,22.1
		c0,1.2-0.5,1.3-1.4,1.3c-2.6,0-5.1-0.1-7.6,0c-1.2,0-1.7-0.2-1.6-1.5C212.4,458.4,212.3,457.5,212.3,456.5z M212.4,445.8
		c-0.3-0.5,0.7-2-0.8-1.9c-2.7,0.3-5.5,0.3-8,1.3c-2.2,0.8-3.4,2.8-3,4.9c0.3,2.1,2,3.4,4.2,3.6C209.1,454.2,212.3,451,212.4,445.8z
		"/>
	<path fill="#1D1D1D" d="M288.4,451.4c0,2.3,0,4.5,0,6.6c0,0.9-0.3,1.3-1.2,1.6c-7,2.6-13.9,3.3-20.9,0.3c-5.3-2.2-8.2-6.7-8.9-12.4
		c-1-7.7,0-14.9,6.6-19.9c5.9-4.5,12.5-5,19.2-2c5.2,2.4,7.6,7.1,8.1,12.7c0.2,2,0,4.1,0.2,6c0.1,1.4-0.3,1.6-1.7,1.6
		c-6.6-0.1-13.2,0-20-0.1c-1.6,0-2,0.3-1.5,2c0.8,3,2.8,4.8,5.8,5.5c4.2,0.9,8.1,0.3,12.1-1.2C286.9,452,287.6,451.8,288.4,451.4z
		 M268.1,439.1c4.1,0,8.1,0,12.1,0c0.5,0,0.9,0.1,1-0.7c0.2-1.9-1.2-5.2-2.8-6.3c-2.1-1.3-5.1-1.2-7.1,0.5
		C269.3,434.2,268.4,436.4,268.1,439.1z"/>
	<path fill="#1D1D1D" d="M254.9,416c-1.4-0.2-2.7-0.6-3.8-0.6c-3.4-0.1-5.1,1.4-5.6,4.8c-0.6,4.8-0.6,4.8,4.1,4.8
		c4.1,0,4.1,0,4.1,4.2c0,4.1,0,4.1-4.2,4.1c-4.1,0-4.1,0-4.1,4.1c0,7.3,0,14.6,0,21.8c0,1.5-0.3,2-1.9,1.9c-2.6-0.1-5.1-0.1-7.6,0
		c-1.4,0.1-1.6-0.3-1.6-1.7c0.1-7.9,0-15.9,0.1-23.8c0-1.7-0.2-2.4-2.2-2.3c-3.8,0.1-3.9,0-3.9-3.8c0-4.2,0-4.3,4.4-4.3
		c1.3,0,1.7-0.3,1.7-1.7c-0.1-2.1-0.1-4.2,0.2-6.3c1.3-5.8,5.9-9.6,12.4-10.2c2.2-0.2,4.3-0.1,6.5,0.3c0.8,0.2,1.4,0.5,1.4,1.5
		C254.9,411,254.9,413.4,254.9,416z"/>
	<path fill="#1D1D1D" d="M319.7,452.2c0,2.4,0,4.6,0,6.9c0,1-0.3,1.5-1.4,1.9c-3.8,1-7.7,1.3-11.5-0.1c-4.4-1.6-6-5.2-6.3-9.5
		c-0.2-5.5-0.1-11,0-16.5c0-1.4-0.5-1.9-1.9-1.7c-4.1,0-4.1,0-4.1-4.2c0-4.1,0-4.1,3.9-4.1c1.5,0,2-0.3,2-1.9
		c-0.1-2-0.7-4.4,0.3-5.7c0.9-1.3,3.5-1.3,5.3-1.9c0.2-0.1,0.6-0.1,0.8-0.2c4.5-1.3,4.4-1.3,4.5,3.5c0,2-0.9,4.6,0.5,5.8
		c1.2,0.9,3.7,0.3,5.7,0.2c1.6-0.1,2.2,0.3,2,2c-0.2,2.1,0.9,4.8-0.5,6c-1.2,1-3.8,0.3-5.8,0.2c-1.6-0.1-1.9,0.6-1.9,2
		c0.1,3.7,0,7.6,0,11.3C311.5,452.5,313.5,454,319.7,452.2z"/>
	<path fill="#FDFCFC" d="M484.3,173c5.7,4.8,12.1,7.9,18.8,10.1c2.3,0.8,4.8,1.3,7.1,2c1.6,0.5,2.4,0.3,3-1.5c0.6-2,1.6-3.7,3-5.2
		c2.9-3.5,6.3-3.8,9.9-1c3.9,3.1,6.3,7.3,7,12.4c3.5,24.3-2.3,46.2-16.4,66.2c-6.5,9.2-14.4,17.2-23.2,24.2
		c-3.6,2.9-8.4,2.4-11.2-1.3c-2.3-3-3.5-6.4-1.7-10.2c1.4-2.9,1.2-3-1.5-4.8c-6.7-4.4-13.2-9.1-18.8-14.9c-0.9-1-1.4-0.9-2.3,0.1
		c-4.5,5.1-9.8,9.3-15.8,12.3c-10.7,5.2-21.3,5.1-31.7-0.8c-1.2-0.7-2.1-0.8-3.4-0.3c-4.1,1.4-8.4,1.9-12.7,1.2
		c-7.3-1-12.4-5.1-15.7-11.6c-0.7-1.4-1.5-1.7-3-1.6c-10.3,1.3-20.7,2.6-31,3.8c-3.4,0.3-6.3-0.6-9.1-2.3c-2.8-1.9-5-4.2-6.9-6.9
		c-0.9-1.5-1.7-1.4-3-0.7c-2,0.9-3.9,1.9-6.2,1.6c-0.9-0.1-0.8,0.6-0.9,1c-0.6,1.7-1.2,3.4-2.1,5c-4.2,7.9-10.9,11.7-19.7,11.2
		c-11-0.7-22.1,0.5-33.1,0.5c-1,0-1.7,0.5-2.3,1.3c-2.6,3.4-5.6,6.5-9.1,8.9c-2.9,2.1-6.2,3.5-9.9,3.5c-1,0-1.5,0.7-2.1,1.3
		c-4.6,4.9-10,8.4-16.6,9.4c-0.6,0.1-1.2,0.2-1.7,0.2c-4.1-0.7-7.6,0.9-11.2,2.8c-8.6,4.4-17.4,5.5-26.4,0.9
		c-2.3-1.2-4.2-3.7-6.4-4.2s-4.6,1.9-7.2,2.3c-10.3,2.1-18.1-1.7-24.5-9.6c-6.6-8.1-9.1-17.5-9.4-27.8c-0.1-4.5,0.1-9.1,1.3-13.6
		c-1.5-0.5-2.8,0.2-4.1,0.6c-8.4,2.3-15.9,6.5-23.2,10.9c-4.9,2.9-9.6,6-14.3,9.3c-1.2,0.8-1.7,0.7-2.7-0.3
		c-2.7-3.1-5.5-6.2-9.5-7.7c0-0.1,0-0.3,0.1-0.3c13.6-9.5,27.4-18.4,43-24.5c3.9-1.6,8-2.8,12.3-3.1c0.9-0.1,1.4-0.5,1.6-1.3
		c0.5-2.1,1-4.2,2.1-6.2c0.6-1.2-0.5-1.4-0.9-1.9c-6.3-5.5-12.4-11-18.2-17c-3.5-3.5-7.1-7.1-10.1-11c-0.7-0.9-1.3-1.2-2.3-0.8
		c-1.4,0.5-2.8,0.7-4.2,1.2c-1,0.3-2,0.3-2.9-0.2c-1.7-1-4.4-1.2-5.1-3c-1.3-3.3-2.3-6.6-1.4-10.5c5.7-23.4,19.7-40.2,40.5-51.7
		c13-7.2,27.2-11,41.9-13c3-0.5,6-0.7,9.1-1c4.9-0.6,8.7,2.7,8.9,7.8c0.1,3.7-0.6,7.2-4.1,9.4c-1,0.7-1,1.3-0.5,2.2
		c2.3,3.9,4.5,7.9,6.7,11.8c0.7,1.4,1.3,1.6,2.8,0.8c9.4-5.2,19.4-8.5,30.2-8.8c15.7-0.6,28.5,5.6,38.6,17.5
		c3.6,4.3,6.5,8.9,9.1,13.9c0.6,1,1.2,1.4,2.3,1.4c4.4-0.2,8.9-0.1,13.4-0.7c3.5-0.5,6.5,0.9,9.4,2.8c3.9,2.7,7,6.3,9.5,10.2
		c0.3,0.5,0.6,0.9,0.9,1.5c0.5,0.7,1.2,0.9,1.9,0.8c0.7,0,0.6-0.9,0.7-1.4c1.6-5.8,4.1-11.2,8.1-15.6c5.5-6,12.2-8.4,20.2-7.4
		c4.9,0.6,9.8-0.3,14.8-0.5c0.9,0,1.3-0.8,1.9-1.4c10-9.8,21.4-16.8,35.1-20c15.2-3.5,29.6-0.8,43.2,6.7c10.9,6,20,14.2,28.1,23.5
		c1,1.2,1.9,1.5,3.5,1c25.1-8.7,48-21.3,68.3-38.3c1.5-1.3,2.4-1.5,4.1,0c2.4,2.3,5,4.4,7.7,6.4c1.3,1,1.4,1.5,0.1,2.7
		c-8.4,8-17.8,14.8-27.6,20.9c-13,8-26.7,14.5-41,19.9C485.8,172.4,485.2,172.6,484.3,173z M482.3,186.7c-0.1-0.1-0.2-0.1-0.2-0.2
		c0,0.1,0,0.1,0,0.2C482.1,186.7,482.2,186.7,482.3,186.7c-0.3,0.8,0.3,1.3,0.7,1.9c0.8,1.7,1.6,3.5,2.4,5.3c0.5,1,0.2,1.9-0.6,2.6
		c-0.8,0.7-1.6,0.1-2.3-0.3c-0.9-0.6-1.5-1.5-2.1-2.4c-9.3-17.3-21.4-32.2-37.5-43.7c-9.1-6.5-19.2-10.2-30.3-9.9
		c-15.6,0.5-29,6.5-40.2,17.2c-10.5,10.1-17,22.4-21.1,36.2c-1.4,4.4-1.6,8.8-0.3,13.2c1.3,4.5,3.8,8.4,7.8,11.6
		c0.3-2.1,0.6-3.8,0.9-5.5c3.4-13.9,11.5-24.9,22.1-34.2c0.5-0.3,0.9-0.6,1.5-0.9c0.5-0.2,0.9-0.6,1.4-0.1c0.5,0.5,0.1,0.9-0.1,1.4
		c-0.9,1.7-2.1,3.3-3.4,4.8c-5.2,6.2-10,12.8-13.7,20c-2.4,4.8-4.4,9.5-4.6,15c-0.5,10.9,7.9,18.7,18,17c2.4-0.5,4.5-1.2,4.8-4.2
		c0.1-1,0.6-2.1,1-3c4.2-10.6,10.5-19.9,17.4-28.8c0.6-0.8,1.4-1.2,2.3-1.5c1.4-0.5,1.7,0.1,1.4,1.4c-0.5,1.5-1.3,2.8-2.2,3.9
		c-3.6,5-7.1,10-10.1,15.3c-3.3,5.7-6.3,11.5-7.6,18.1c-1.6,8.8,5.5,15.5,14.2,13.1c3-0.8,5.7-2.3,8.2-4.2
		c6.7-4.9,12.8-10.7,18.2-16.8c3.6-4.1,7-8.4,10.1-12.7c0.6-0.8,1.4-1.6,2.3-1.3c1,0.5,0.5,1.6,0.2,2.6c-0.2,0.8-0.5,1.5-0.9,2.2
		c-7.3,10.5-15,20.6-25.7,27.9c-1,0.7-0.8,1-0.1,1.7c2.4,2.2,5.2,3.7,8.5,4.1c8.4,1.2,15.7-2.1,21.3-7.7
		c9.6-9.5,17.9-20.2,23.5-32.8c0.5-1,1.2-1.6,2.1-2.1c1.2-0.5,2-0.2,2,1.3c-0.1,1.5-0.5,2.8-1.3,4.1c-2.8,4.6-5.5,9.4-8.2,14.1
		c-0.6,0.9-0.6,1.6,0.1,2.4c9.4,11.8,20.9,21.1,35,27c1.5,0.6,2.3,0.2,3.3-0.9c5.3-6.6,9.9-13.7,13.6-21.4c5.7-12,8.9-24.5,8-37.9
		c-0.1-2-0.5-2.8-2.7-2.7c-4.2,0.2-8.4-0.3-12.5-1C498.2,194.4,490,191.2,482.3,186.7z M243.1,174.8c2.2-1.6,4.8-2.7,7.4-3.4
		c6.6-1.9,13.5-2.4,20.3-2.6c1.6,0,2.2-0.2,1.4-2c-2-4.3-4.2-8.6-7.1-12.3c-7.8-10.2-18-15-30.8-14.3c-12.5,0.7-23.6,5.7-34,12.2
		c-0.8,0.6-0.9,1.2-0.7,2c0.5,1.6,0.3,3.1-0.2,4.6c-0.3,0.8-0.9,1.3-1.9,1.2c-0.9-0.1-1-0.8-1.2-1.5c-0.2-1.2-0.5-2.4-0.7-3.6
		c-3.3-13.2-10.2-24.5-18.5-35.2c-0.9-1.3-2-1.5-3.4-1.3c-3.1,0.6-6.3,0.9-9.4,1.7c-23.6,5.8-40.3,20.1-51.5,41.4
		c-0.7,1.3-0.7,2.2,0.2,3.4c1.6,2.1,3.1,4.3,4.8,6.4c10,12.2,21.5,23,33.1,33.7c0.8,0.8,1.6,2,2.7,2.2c1.2,0.2,1.3-1.6,2.2-2.3
		c0.3-0.3,0.6-0.9,1.2-0.7c0.6,0.2,0.5,0.8,0.5,1.4c-0.2,2.1-0.7,4.1-1.4,6.2c-4.6,13.7-8.1,27.5-6.7,42.2c0.6,6,2,11.8,5.3,17
		c5.1,7.8,16,7.6,20.7-0.5c0.6-0.9,0.3-1.4-0.1-2.3c-3.7-6-6-12.8-7.6-19.6c-0.2-1-0.7-2.8,0.6-3c1.3-0.3,2.1,1.3,2.8,2.3
		c0.1,0.1,0.1,0.5,0.2,0.6c1.6,6.7,4.6,12.9,7.3,19.2c1.5,3.4,3.7,6.2,6.4,8.6c8,7.3,18.5,5,24.6-0.5c-0.6-0.6-1.2-1-1.7-1.6
		c-8.7-8.1-14.9-18-19.1-29c-0.3-0.8-0.8-1.9,0.1-2.6c0.9-0.7,1.7,0.1,2.7,0.5c0.6,0.2,0.7,0.7,0.7,1.2c0.5,2.3,1.4,4.5,2.6,6.6
		c2.6,5.1,5.8,9.8,9.1,14.5c1.9,2.6,4.1,4.6,6.6,6.5c8,5.6,16.5,3.9,22-4.1c0.6-0.9,0.7-1.4-0.3-2c-1.5-0.9-3-2-4.4-3.1
		c-6.6-5.8-11.8-12.9-16.5-20.2c-0.5-0.8-0.8-1.7-1-2.6c-0.2-0.9-0.8-2.4,0.7-2.7c1.3-0.2,2.7,0.1,3.1,1.6c0.8,2.7,2.3,5,3.9,7.2
		c3.3,4.5,7.1,8.6,11,12.5c1.4,1.4,3,2.7,4.9,3.6c4.6,2.4,9.1,2.1,13.2-0.9c2.6-1.7,4.4-4.2,6.2-6.6c0.8-1.2,0.6-1.7-0.6-2.6
		c-4.9-3.4-9.3-7.3-13.4-11.7c-11-12.3-15.7-26.5-12.2-42.9c2.9-13.6,9.8-25.1,19.4-35c0.8-0.8,1.7-1.5,2.8-2.1
		c0.8-0.6,1.7-0.8,2.4,0.2c0.7,1,0.3,1.7-0.7,2.6c-3.8,3.1-6.6,7-8.6,11.5c-0.2,0.1-0.5,0.5-0.2,0.7
		C242.7,175.4,242.9,174.9,243.1,174.8z M290.3,172.8c-0.6,0-1-0.1-1.5-0.1c-9.4,0.2-18.9,0.3-28.3,0.6
		c-11.8,0.2-23.8,8.7-27.9,19.7c-3.3,8.9-3.1,18-0.2,27c4.3,13.4,13.7,22.4,25.2,29.9c0.5,0.3,1,0.3,1.6,0.3
		c10.8-0.5,21.6-0.8,32.5-1.2c1.7,0,1.9-0.5,1-2c-11.2-20.2-13.4-41.5-6.5-63.5C287.2,179.9,288.7,176.4,290.3,172.8z M363.2,162.3
		c-1.7,0.1-2.9,0.2-4.2,0.3c-5.8,0.5-11.6,1.4-17.4,1.4c-2.1,0-3.6,1-4.5,3c-6.3,13.4-8.6,27.3-7,41.9c1.2,9.6,3.8,18.8,8.2,27.4
		c1.9,3.5,4.2,4.8,8.1,4.2c2.6-0.3,5-0.7,7.6-0.9c4.4-0.6,8.7-1.2,13.5-1.9c-0.6-0.6-0.9-0.8-1.3-1.2c-3.8-3.4-6.6-7.2-7-12.4
		c-0.1-1.2-0.9-1.5-1.7-2c-5.7-3.7-9.2-8.8-10.7-15.5c-1.6-7.1-0.1-13.9,2.1-20.6C351.8,177.4,356.7,169.6,363.2,162.3z
		 M304.1,196.5L304.1,196.5c-1.9,0-3.7,0-5.7,0c-2.2,0-3-0.7-3.1-2.9c-0.1-2.3-0.1-4.6-0.2-7c-0.1-2.8,0.5-3.4,3.4-3.5
		c2.7,0,5.3-0.1,8-0.1c1,0,1.6-0.1,1-1.4c-1.4-2.7-2.8-5.2-4.9-7.4c-3.5-3.6-6.7-3.3-9.4,0.9c-1.6,2.6-2.8,5.3-3.6,8.4
		c-3,11.6-3.8,23.4-2.6,35.2c0.9,9.1,3.4,17.7,8,25.7c2.4,4.3,7.3,4.8,10.7,1.3c2.2-2.3,3.4-5.1,4.2-8.2c0.2-0.9,0-1.3-1-1.3
		c-2.8,0.1-5.6,0.2-8.5,0.2c-2.7,0-3.6-0.9-3.7-3.6c-0.1-2.1-0.2-4.2-0.2-6.3c-0.1-2.9,0.8-3.8,3.6-3.8c3.4,0,6.6-0.1,10,0
		c1.9,0.1,2.3-0.6,2.3-2.3c0.1-3.4,0.1-3.4-3.1-3.5c-2.3,0-3.1-0.8-3.3-3c-0.1-2.7-0.1-5.3-0.1-8c0-2.1,0.9-2.8,3-2.6
		c0.6,0.1,1.2,0.1,1.7,0.2c1,0.1,1.6-0.1,1.4-1.4c-0.2-1.5-0.3-3-0.5-4.5c0-1-0.7-1.2-1.5-1.2C308.3,196.5,306.2,196.5,304.1,196.5z
		 M310.1,232.2L310.1,232.2c2.7,0,5.3-0.1,8,0c1.5,0,2.7-0.6,3.7-1.5c0.9-0.8,1.2-1.9,0.2-2.8c-1.2-1.2-2.4-2.1-4.3-2
		c-4.4,0.3-8.9,0.5-13.4,0.7c-3.9,0.1-3.8,0.1-3.8,4.2c0,1.3,0.5,1.5,1.6,1.5C304.8,232.2,307.5,232.2,310.1,232.2z M309.2,192.4
		c0,0.1,0,0.2,0,0.3c2.8,0,5.5,0,8.2,0c1.5,0,3.6-1.6,3.7-3c0.1-2-1.5-2.2-2.8-2.7c-0.7-0.2-1.4-0.2-2.1-0.2c-4.3,0-8.6,0-13,0
		c-4.2,0-4.1,0-4.2,4.1c0,1.2,0.3,1.5,1.4,1.5C303.4,192.2,306.3,192.4,309.2,192.4z M317.9,207.1L317.9,207.1
		c-1.3-0.1-2.4-0.1-3.7-0.1c-4.5,0-4.5,0-4.4,4.5c0,1.4,0.5,1.7,1.7,1.6c4.4-0.3,8.8-0.7,13.2-0.8c1.9,0,2.1-0.7,1.6-2.2
		c-0.1-0.5-0.2-0.8-0.2-1.3c0-1.5-0.7-2-2.1-1.9C322,207.2,320,207.1,317.9,207.1z"/>
	<path fill="#FDFCFC" d="M391.3,442.1c2.2-3,4.3-5.7,6.2-8.4c1.9-2.7,3.6-5.6,5.7-8.8c0,3.3,0,6,0,8.8c0,2.3,0,4.6,0,7
		c0,0.7,0.1,1.4-1,1.4C398.7,442.1,395.2,442.1,391.3,442.1z"/>
	<path fill="#FDFCFC" d="M212.4,445.8c-0.1,5.1-3.3,8.4-7.7,7.9c-2.3-0.2-3.8-1.6-4.2-3.6c-0.3-2.1,0.8-4.1,3-4.9
		c2.6-0.9,5.3-0.9,8-1.3C213.1,443.9,212.1,445.4,212.4,445.8z"/>
	<path fill="#FDFCFC" d="M268.1,439.1c0.3-2.7,1.3-4.9,3.4-6.5c2-1.6,5-1.7,7.1-0.5c1.6,1,3.1,4.3,2.8,6.3c-0.1,0.8-0.6,0.7-1,0.7
		C276.2,439.1,272.1,439.1,268.1,439.1z"/>
	<path fill="#9C282C" d="M242.7,174.5c2-4.5,4.8-8.4,8.6-11.5c0.9-0.8,1.4-1.5,0.7-2.6c-0.7-1-1.6-0.7-2.4-0.2
		c-0.9,0.6-2,1.3-2.8,2.1c-9.6,9.9-16.5,21.4-19.4,35c-3.5,16.4,1.3,30.6,12.2,42.9c3.9,4.4,8.5,8.4,13.4,11.7
		c1,0.8,1.4,1.4,0.6,2.6c-1.7,2.6-3.6,4.9-6.2,6.6c-4.2,3-8.6,3.3-13.2,0.9c-1.9-0.9-3.5-2.1-4.9-3.6c-3.9-3.9-7.7-8-11-12.5
		c-1.6-2.2-3-4.5-3.9-7.2c-0.5-1.5-1.9-1.9-3.1-1.6c-1.5,0.3-0.9,1.7-0.7,2.7c0.1,0.9,0.5,1.9,1,2.6c4.8,7.3,9.9,14.4,16.5,20.2
		c1.4,1.2,2.8,2.2,4.4,3.1c1,0.6,1,1,0.3,2c-5.5,8.1-13.9,9.6-22,4.1c-2.6-1.7-4.8-3.9-6.6-6.5c-3.3-4.6-6.5-9.4-9.1-14.5
		c-1-2.1-2.1-4.3-2.6-6.6c-0.1-0.6-0.2-1-0.7-1.2c-0.8-0.3-1.7-1-2.7-0.5c-0.9,0.7-0.5,1.7-0.1,2.6c4.2,11.2,10.2,21,19.1,29
		c0.6,0.6,1.2,1,1.7,1.6c-6,5.5-16.6,7.8-24.6,0.5c-2.7-2.4-4.9-5.2-6.4-8.6c-2.7-6.3-5.8-12.4-7.3-19.2c0-0.2,0-0.5-0.2-0.6
		c-0.8-1-1.5-2.7-2.8-2.3c-1.3,0.3-0.8,2.1-0.6,3c1.5,7,3.8,13.6,7.6,19.6c0.6,0.8,0.7,1.4,0.1,2.3c-4.8,8-15.7,8.2-20.7,0.5
		c-3.4-5.1-4.8-10.9-5.3-17c-1.4-14.6,2.1-28.6,6.7-42.2c0.7-2,1-4.1,1.4-6.2c0.1-0.5,0.1-1.2-0.5-1.4c-0.6-0.2-0.8,0.5-1.2,0.7
		c-0.8,0.7-0.9,2.4-2.2,2.3c-0.9-0.1-1.7-1.4-2.7-2.2c-11.6-10.6-23.1-21.5-33.1-33.7c-1.7-2.1-3.1-4.3-4.8-6.4
		c-0.9-1.2-0.9-2.1-0.2-3.4c11.2-21.3,27.9-35.5,51.5-41.4c3-0.8,6.3-1.2,9.4-1.7c1.4-0.2,2.3,0,3.4,1.3c8.2,10.7,15.2,22,18.5,35.2
		c0.2,1.2,0.5,2.4,0.7,3.6c0.1,0.8,0.2,1.4,1.2,1.5c0.9,0.1,1.5-0.5,1.9-1.2c0.6-1.5,0.7-3.1,0.2-4.6c-0.2-0.8-0.1-1.5,0.7-2
		c10.5-6.5,21.5-11.5,34-12.2c12.8-0.7,23.1,4.1,30.8,14.3c2.9,3.8,5.1,8,7.1,12.3c0.8,1.7,0.2,2-1.4,2c-6.9,0-13.7,0.7-20.3,2.6
		c-2.7,0.7-5.2,1.7-7.4,3.4C243,174.7,242.9,174.6,242.7,174.5z"/>
	<path fill="#9C282C" d="M482.3,186.7c7.8,4.4,15.9,7.8,24.7,9.3c4.2,0.7,8.2,1.4,12.5,1c2.2-0.1,2.6,0.7,2.7,2.7
		c0.9,13.4-2.2,25.9-8,37.9c-3.7,7.7-8.2,14.8-13.6,21.4c-0.9,1.2-1.7,1.5-3.3,0.9c-14.1-5.8-25.6-15-35-27
		c-0.7-0.8-0.7-1.5-0.1-2.4c2.8-4.6,5.5-9.3,8.2-14.1c0.7-1.3,1.2-2.7,1.3-4.1c0.1-1.5-0.7-1.7-2-1.3c-0.9,0.3-1.6,1-2.1,2.1
		c-5.6,12.5-13.8,23.2-23.5,32.8c-5.6,5.6-12.9,8.7-21.3,7.7c-3.3-0.5-6-1.9-8.5-4.1c-0.7-0.7-0.9-1,0.1-1.7
		c10.7-7.3,18.4-17.5,25.7-27.9c0.5-0.6,0.8-1.4,0.9-2.2c0.2-0.8,0.8-2.1-0.2-2.6c-0.9-0.3-1.7,0.5-2.3,1.3
		c-3.1,4.4-6.5,8.6-10.1,12.7c-5.6,6.2-11.5,12-18.2,16.8c-2.6,1.9-5.2,3.4-8.2,4.2c-8.6,2.3-15.8-4.3-14.2-13.1
		c1.3-6.5,4.3-12.4,7.6-18.1c3-5.3,6.5-10.5,10.1-15.3c0.9-1.3,1.7-2.4,2.2-3.9c0.3-1.3,0-1.9-1.4-1.4c-0.9,0.2-1.7,0.7-2.3,1.5
		c-6.9,8.9-13.2,18.2-17.4,28.8c-0.3,1-0.9,2-1,3c-0.2,3.1-2.3,3.7-4.8,4.2c-10.1,1.7-18.4-6-18-17c0.2-5.5,2.2-10.2,4.6-15
		c3.7-7.2,8.5-13.8,13.7-20c1.3-1.5,2.4-3,3.4-4.8c0.2-0.5,0.6-0.9,0.1-1.4c-0.5-0.5-0.9-0.1-1.4,0.1c-0.5,0.2-1,0.5-1.5,0.9
		c-10.6,9.3-18.7,20.2-22.1,34.2c-0.5,1.6-0.6,3.4-0.9,5.5c-3.8-3.3-6.4-7.1-7.8-11.6c-1.3-4.4-1-8.8,0.3-13.2
		c4.2-13.7,10.7-26.1,21.1-36.2c11.3-10.8,24.6-16.7,40.2-17.2c11.2-0.3,21.3,3.5,30.3,9.9c16.1,11.5,28.1,26.4,37.5,43.7
		c0.6,0.9,1.2,1.9,2.1,2.4c0.7,0.5,1.5,1,2.3,0.3c0.8-0.7,1-1.5,0.6-2.6c-0.8-1.7-1.6-3.5-2.4-5.3
		C482.6,187.9,481.8,187.5,482.3,186.7L482.3,186.7z"/>
	<path fill="#9C282C" d="M290.3,172.8c-1.5,3.6-3,7.1-4.2,10.8c-6.9,22.1-4.8,43.3,6.5,63.5c0.8,1.5,0.7,1.9-1,2
		c-10.8,0.3-21.6,0.8-32.5,1.2c-0.6,0-1.2,0-1.6-0.3c-11.5-7.3-20.9-16.5-25.2-29.9c-2.9-8.9-3-18,0.2-27c4.1-11,16-19.5,27.9-19.7
		c9.4-0.2,18.9-0.3,28.3-0.6C289.2,172.7,289.6,172.7,290.3,172.8z"/>
	<path fill="#9C282C" d="M363.2,162.3c-6.5,7.3-11.4,15.1-14.3,23.9c-2.2,6.7-3.7,13.5-2.1,20.6c1.5,6.5,5,11.7,10.7,15.5
		c0.8,0.5,1.6,0.8,1.7,2c0.3,5.2,3.1,9.2,7,12.4c0.3,0.2,0.6,0.6,1.3,1.2c-4.8,0.6-9.1,1.3-13.5,1.9c-2.6,0.3-5,0.7-7.6,0.9
		c-3.9,0.5-6.3-0.7-8.1-4.2c-4.5-8.6-7.2-17.8-8.2-27.4c-1.7-14.6,0.7-28.6,7-41.9c0.9-2,2.4-3,4.5-3c5.8,0,11.6-0.9,17.4-1.4
		C360.2,162.5,361.5,162.4,363.2,162.3z"/>
	<path fill="#9C282C" d="M304.1,196.5c2.1,0,4.2,0,6.3,0c0.8,0,1.4,0.1,1.5,1.2c0.1,1.5,0.2,3,0.5,4.5c0.2,1.3-0.3,1.5-1.4,1.4
		c-0.6-0.1-1.2-0.1-1.7-0.2c-2.1-0.2-3,0.6-3,2.6c0,2.7,0,5.3,0.1,8c0,2.3,0.9,3,3.3,3c3.4,0,3.3,0,3.1,3.5c0,1.7-0.5,2.4-2.3,2.3
		c-3.4-0.1-6.6,0-10,0c-2.9,0-3.7,0.9-3.6,3.8c0.1,2.1,0.2,4.2,0.2,6.3c0.1,2.7,1,3.6,3.7,3.6c2.8,0,5.7-0.1,8.5-0.2
		c1,0,1.3,0.2,1,1.3c-0.8,3-2.1,5.9-4.2,8.2c-3.4,3.6-8.2,3-10.7-1.3c-4.6-7.9-7-16.6-8-25.7c-1.3-11.8-0.5-23.7,2.6-35.2
		c0.8-2.9,1.9-5.8,3.6-8.4c2.7-4.2,5.9-4.5,9.4-0.9c2.1,2.1,3.5,4.8,4.9,7.4c0.7,1.3,0.1,1.4-1,1.4c-2.7,0-5.3,0-8,0.1
		c-2.9,0-3.5,0.7-3.4,3.5c0.1,2.3,0.1,4.6,0.2,7c0.1,2.2,0.9,2.9,3.1,2.9C300.3,196.5,302.1,196.5,304.1,196.5L304.1,196.5z"/>
	<path fill="#9C282C" d="M310.1,232.2c-2.7,0-5.3,0-8,0c-1.2,0-1.6-0.2-1.6-1.5c-0.1-4.1-0.1-3.9,3.8-4.2c4.4-0.1,8.9-0.3,13.4-0.7
		c1.9-0.1,3.1,0.7,4.3,2c0.9,0.9,0.8,2-0.2,2.8c-1,0.9-2.2,1.5-3.7,1.5C315.5,232.1,312.8,232.2,310.1,232.2L310.1,232.2z"/>
	<path fill="#9C282C" d="M309.2,192.4c-2.9,0-5.8,0-8.6,0c-1,0-1.5-0.2-1.4-1.5c0.1-4.1,0-4.1,4.2-4.1c4.3,0,8.6,0,13,0
		c0.7,0,1.5,0,2.1,0.2c1.3,0.5,3,0.8,2.8,2.7c-0.1,1.4-2.2,3-3.7,3c-2.8,0-5.5,0-8.2,0C309.2,192.6,309.2,192.5,309.2,192.4z"/>
	<path fill="#9C282C" d="M317.9,207.1c2,0,4.1,0.1,6,0c1.4-0.1,2.2,0.3,2.1,1.9c0,0.5,0.1,0.8,0.2,1.3c0.5,1.5,0.1,2.1-1.6,2.2
		c-4.4,0.1-8.8,0.5-13.2,0.8c-1.3,0.1-1.7-0.2-1.7-1.6c0-4.5-0.1-4.5,4.4-4.5C315.5,207.1,316.7,207.1,317.9,207.1L317.9,207.1z"/>
	<path fill="#9C282C" d="M243.1,174.8c-0.2,0.1-0.3,0.6-0.6,0.3s0-0.6,0.2-0.7C242.9,174.6,243,174.7,243.1,174.8z"/>
	<path fill="#9C282C" d="M482.3,186.7c-0.1,0-0.2,0-0.3,0c0-0.1,0-0.1,0-0.2C482.1,186.5,482.2,186.7,482.3,186.7L482.3,186.7z"/>
</g>
</svg>
