<?xml version="1.0" encoding="utf-8"?>
<!-- Generator: Adobe Illustrator 19.0.0, SVG Export Plug-In . SVG Version: 6.00 Build 0)  -->
<svg version="1.1" id="Layer_1" xmlns="http://www.w3.org/2000/svg" xmlns:xlink="http://www.w3.org/1999/xlink" x="0px" y="0px"
	 viewBox="0 0 400 273.3" style="enable-background:new 0 0 400 273.3;" xml:space="preserve">
<style type="text/css">
	.st0{fill:#FFFFFF;}
</style>
<g id="_x36_XHnhT_1_">
	<g id="XMLID_1_">
		<path id="XMLID_84_" d="M-1.6,271.8c0-0.5,0-1,0-1.5c1.5-2.6,0.7-5.5,0.7-8.2c0-84.6,0-169.2,0.1-253.8c0-2.7-0.8-5.6,0.7-8.2
			c132.8,0,265.6,0,398.5,0c0,90.6,0,181.2,0,271.8c-2.1,1.4-4.5,0.7-6.7,0.7c-128.9,0-257.7,0-386.6,0
			C2.9,272.5,0.5,273.1-1.6,271.8z"/>
		<path id="XMLID_83_" class="st0" d="M-1.6,271.8c5.3,0.2,10.7,0.4,16,0.4c123.4,0,246.9,0,370.3,0c4.6,0,9.1-0.3,13.7-0.5
			c-1,0.5-2,1.5-3.1,1.5c-131.3,0.1-262.6,0.1-393.9,0C0.4,273.2-0.6,272.3-1.6,271.8z"/>
		<path id="XMLID_82_" class="st0" d="M-0.1,0c-0.2,6.3-0.4,12.7-0.4,19c0,79.7,0,159.5-0.1,239.2c0,4-0.7,8-1,12
			c0-88,0-176.1,0.1-264.1C-1.5,4.1-0.6,2-0.1,0z"/>
		<path id="XMLID_81_" class="st0" d="M394.9,268.6c-130.8,0-260.7,0-391.4,0c0-88.4,0-176.5,0-265.2c127.9,0,255.5,0,384.9,0
			c-3.4,2.8-5.8,4.8-8.2,6.7c-14.8,12-29.7,23.9-44.3,36.1c-5.5,4.6-8.4,10.3-3.3,18.2c-4.7,2.2-8.8,4.8-13.2,6.1
			c-20.3,6-34.8,17.5-43.5,37.6c-4.7,10.9-13.8,19.9-20.7,29.5c-18.3-0.2-35.5,2.4-53.8-4.3c12.5-12,28.4-13.6,40.6-22.6
			c0-17.6,0-35.3,0-53.5c-11-1.6-16,8.4-25.1,10.4c1.2,3,2.1,5,3.1,7.6c3.4-0.8,6.5-1.5,10.3-2.4c0,13.4,0,26.2,0,39.3
			c-10.2,8.1-24.8,9.5-33.9,22.5c3.7,2.5,6.7,6,10.4,6.9c19.8,4.9,39.6,4.8,59.3-1.8c15.9-5.3,32-9.8,47.9-15.1
			c4.1-1.4,8.4-3.6,11.3-6.7c8.7-9.2,16.7-19.1,25.4-29.3c10.3,9,19.1,3,27.8-2.4c5.1-3.1,10.2-6.3,16.4-10.2
			C394.9,141,394.9,204.3,394.9,268.6z"/>
		<path id="XMLID_80_" class="st0" d="M395.2,9.9c0,18.6,0,37.3,0,56.4c-9.3,5.9-18.6,11.9-27.2,17.4c-8.6-11.3-16.6-21.9-25.5-33.6
			c16.4-13.4,33.6-27.3,50.8-41.3C393.8,9.1,394.5,9.5,395.2,9.9z"/>
		<path id="XMLID_79_" class="st0" d="M278.9,117.3c4.9-8.8,9.7-17.7,14.7-26.4c0.7-1.2,2.1-2.3,3.4-2.9c16-7.1,32-14.1,49.7-21.9
			c2.1,2.3,4.2,4.7,6.7,7.6c-2,2.8-3.3,4.9-4.9,6.8c-9.2,10.5-18.2,21.3-27.9,31.3c-3.4,3.6-8.5,6-13.3,7.7
			c-6.9,2.5-14.1,3.8-21.7,4.8c7.6-6.8,14.5-14.4,26.6-14.5c0.2-3.9,0.4-6.9,0.7-11.5c-4.8-0.3-8.7-0.6-12.5-0.8c0.4,1,0.8,2,1.2,3
			c-7,6.2-14,12.3-21.1,18.5C280.1,118.3,279.5,117.8,278.9,117.3z"/>
		<path id="XMLID_78_" d="M34.1,82.1c1.3-5.1,2.1-10.9,4.3-16.2c2.7-6.6,8.5-10.2,15.7-10.2c7.4,0,13.4,3.3,16.3,10.4
			c4.6,11.3,4.8,22.9-0.2,34c-3.1,7.1-9.2,10.4-17.3,10c-7.9-0.4-12.9-4.8-15.4-11.6C35.7,93.6,35.3,88.1,34.1,82.1z"/>
		<path id="XMLID_77_" d="M168.3,82.4c1.5-5.5,2.4-11.6,4.7-17c2.7-6.3,8.4-9.6,15.2-9.7c7.1,0,13,3.1,16,9.8
			c5.3,11.7,5.3,23.7-0.1,35.3c-3.2,6.9-9.2,9.7-16.9,9.3c-7.4-0.4-12.7-4.1-15.2-10.8C170.2,94.2,169.6,88.5,168.3,82.4z"/>
		<path id="XMLID_76_" d="M113.7,227.6c-11.7,1.9-21.4,2.6-26.6-8.4c-3.6-7.5-2.3-18.6,2.9-23.6c8.7-8.3,18.9-6.8,29.5-3.8
			c0,14,0.4,27.6-0.2,41.2c-0.2,5.8-4.7,10-10.3,10.8c-6.6,0.9-13.4,0.2-20.7,0.2c0.3-2.7,0.5-4.1,0.7-5.5
			C97.8,237.1,109.5,243.6,113.7,227.6z"/>
		<path id="XMLID_75_" d="M307.9,172.2c0.3,6,0.7,11.9,1.1,18.4c10.8-2,20.9-2.6,26,8.8c3.9,8.6,3.9,17.5-2.5,25
			c-8,9.6-18.6,6.9-29.4,5.3c-0.5-2.2-1.4-4.1-1.4-6c-0.2-15.5-0.4-30.9-0.1-46.4c0-2.2,2.3-4.5,3.5-6.7
			C306.1,171.2,307,171.7,307.9,172.2z"/>
		<path id="XMLID_74_" d="M53.2,183.2c-4.2-0.5-8.5-1.4-12.7-1.3c-4.4,0.1-9.7,1.4-9.5,6.6c0.1,3.1,3.4,6.9,6.3,9
			c3.6,2.6,8.3,3.7,12.4,5.7c6.7,3.4,9.4,9,8.1,16.4c-1.2,6.7-5.9,10.2-12.1,10.8c-6,0.6-12.1,0.2-18-0.6c-2-0.2-3.7-2.9-5.5-4.4
			c0.5-0.7,0.9-1.4,1.4-2.1c5.2,0.6,10.3,1.5,15.5,1.6c4.9,0.1,10.2-0.4,11.2-6.7c0.9-5.9-3.1-8.7-7.8-10.7c-4-1.7-8.1-3.1-11.9-5.1
			c-5.8-3-8.4-8-7.4-14.5c1-6.2,4.8-10.4,10.8-11.3c5.4-0.7,11-0.3,16.5,0.3c1.7,0.2,3.2,2.6,4.7,4.1
			C54.5,181.8,53.9,182.5,53.2,183.2z"/>
		<path id="XMLID_73_" d="M202.2,229.7c-2.9,0.2-5.1,0.4-8.2,0.6c-7-17.3-13.8-34.4-21-52.3c3.5-0.4,5.4-0.6,7.8-0.9
			c5.4,14.2,10.7,28.1,15.9,42c0.8,0.1,1.6,0.2,2.4,0.3c5.3-13.7,10.5-27.5,16-41.7c2.1,0,4.1,0,7.8,0
			C215.8,195.8,209.1,212.7,202.2,229.7z"/>
		<path id="XMLID_72_" d="M107.7,108.7c-3.5,0-6.6,0-10.8,0c0-12.1,0-23.6,0-36c-4.3,1.1-7.4,1.8-11,2.7c-1-2.4-2-4.6-3.3-7.8
			c9.2-2.1,14.3-11.9,25.2-10.5C107.7,74.2,107.7,90.8,107.7,108.7z"/>
		<path id="XMLID_71_" d="M256.8,225.3c-4,6.4-14.6,7.6-22.3,3.7c-8.8-4.4-12.6-17.5-8.2-28.1c3.7-9.1,13.3-13.7,22.4-10.9
			c8.7,2.7,12.7,11.2,10.1,22.2c-8.4,0-16.9,0-26.4,0C234.1,228.8,246.9,223.8,256.8,225.3z"/>
		<path id="XMLID_70_" d="M369.7,205.6c-0.2-15.1-12.9-8.1-20.8-11.2c4.7-7,10.9-4.9,16.1-4.6c6.2,0.4,10.9,4.1,11.4,10.4
			c0.7,9.5,0.2,19.2,0.2,30.3c-7.5,0-14.6,0.5-21.5-0.1c-6.1-0.6-9.4-5-9.8-10.9c-0.4-5.8,2.7-10.1,8.1-11.5
			C358.3,206.5,363.7,206.4,369.7,205.6z"/>
		<path id="XMLID_69_" d="M141.8,72.6c-4.6,1.1-7.7,1.9-11.2,2.7c-1-2.5-1.8-4.5-2.9-7.4c8.4-2.8,13.7-11.2,24.4-11
			c0,17.5,0,34.3,0,51.9c-3.1,0.1-5.9,0.3-10.3,0.4C141.8,96.7,141.8,85,141.8,72.6z"/>
		<path id="XMLID_68_" d="M165.6,230c-2.4-0.2-4.2-0.4-6.7-0.6c0-7.1-0.3-13.7,0.1-20.2c0.7-11.2-7.1-17-18.7-11.6
			c0,10.1,0,20.7,0,31.7c-2.6,0.3-4.5,0.5-6.9,0.8c0-13,0-25.3,0-39.3c6.9-0.3,13.6-1.3,20.2-0.8c6.9,0.5,11.2,5.5,11.8,12.1
			C166.2,211.1,165.6,220.2,165.6,230z"/>
		<path id="XMLID_67_" d="M271.9,192.8c11-5,17.9-4.6,21.5,1.9c-4.9,0.5-9.5,1-14.2,1.5c-1.2,11.6-2.3,22.6-3.6,33.6
			c0,0.2-1.8,0.1-3.7,0.2C271.9,217.5,271.9,205.3,271.9,192.8z"/>
		<path id="XMLID_66_" d="M67.7,230.3c0-13.6,0-25.9,0-38.8c2.2-0.1,4-0.2,6.3-0.3c0,12.9,0,25.2,0,38.1
			C72.1,229.6,70.3,229.9,67.7,230.3z"/>
		<path id="XMLID_65_" d="M67.6,174.7c1.8-0.2,3.6-0.4,6.4-0.8c0.2,2.4,0.9,4.5,0.2,6c-0.5,1.1-3.4,2.5-4,2.1
			c-1.8-1.3-2.9-3.4-4.3-5.1C66.5,176.1,67,175.4,67.6,174.7z"/>
		<path id="XMLID_64_" class="st0" d="M46,82.9c0.7-4.3,0.7-8.6,2.2-12.2c1-2.3,4.1-4.7,6.5-4.9c1.8-0.2,5.4,3,5.6,4.8
			c0.6,8.2,0.6,16.5-0.1,24.7c-0.2,1.9-3.8,5.1-5.5,4.9c-2.3-0.2-5.5-2.7-6.4-5C46.8,91.4,46.7,86.9,46,82.9z"/>
		<path id="XMLID_63_" class="st0" d="M180.1,82.9c0.8-4.4,1.1-8.9,2.7-12.7c0.8-2,3.9-4.2,6.1-4.4c1.7-0.2,5.2,2.5,5.3,4.1
			c0.5,8.7,0.5,17.4,0,26.1c-0.1,1.7-3.5,4.4-5.2,4.3c-2.2-0.1-5.3-2.2-6.1-4.3C181.3,92,180.9,87.3,180.1,82.9z"/>
		<path id="XMLID_62_" class="st0" d="M112.5,197.2c0,7.3,0,14.8,0,22.6c-5.2,3.8-10.6,4.7-15.9,0.4c-4.5-3.6-5.4-13.8-2-19.1
			C97.9,195.6,103.7,194.3,112.5,197.2z"/>
		<path id="XMLID_61_" class="st0" d="M308.9,223.6c0-7.9,0-15.7,0-23.6c4.9-5.1,10.8-6,15.8-2.5c5.1,3.6,6.9,13.1,3.9,20.1
			C325.7,224.4,319.5,226.5,308.9,223.6z"/>
		<path id="XMLID_60_" class="st0" d="M252.2,206c-6.7,0-12.7,0-18.9,0c-0.2-7.2,3.5-10.4,9.6-10.6C249,195.2,251.9,198.9,252.2,206
			z"/>
		<path id="XMLID_59_" class="st0" d="M368,226.2c-4.8-1.3-9.7-2.2-14.2-4.1c-0.9-0.4-1-6.2-0.2-6.5c4.5-2,9.4-3.1,15.5-5
			c0.3,5.8,0.5,9.4,0.8,13C369.3,224.5,368.7,225.3,368,226.2z"/>
	</g>
</g>
</svg>
