<?xml version="1.0" encoding="utf-8"?>
<!-- Generator: Adobe Illustrator 18.1.1, SVG Export Plug-In . SVG Version: 6.00 Build 0)  -->
<svg version="1.1" id="Layer_1" xmlns="http://www.w3.org/2000/svg" xmlns:xlink="http://www.w3.org/1999/xlink" x="0px" y="0px"
	 viewBox="0 0 960 560" enable-background="new 0 0 960 560" xml:space="preserve">
<g>
	<path fill="#FEFEFE" d="M485.2,680.2c-124.9,0-249.7,0-374.6,0.1c-2.3,0-2.5-0.6-2.5-2.6c0-249.7,0-499.5,0-749.2
		c0-2.3,0.6-2.5,2.6-2.5c249.7,0,499.5,0,749.2,0c2.3,0,2.5,0.6,2.5,2.6c0,249.7,0,499.5,0,749.2c0,2.3-0.6,2.5-2.6,2.5
		C735,680.2,610.1,680.2,485.2,680.2z M230.4,247.4c0.5-0.1,1-0.1,1.5-0.2c1.1,0.3,2.2,1.2,3-0.4c2.8-0.6,5.6-1.1,8.4-1.7
		c0.7,0.1,1.1-0.1,0.6-0.9c-0.2-0.7-0.4-1.5-0.6-2.2c-3.8-10.4-7.6-20.9-11.4-31.3c-2.4-6.7-4.9-13.4-7.4-20.1
		c-0.3-0.8-0.5-1.6-1.6-1.7c-1.2,0-1.2,0.9-1.5,1.7c-0.7,2.1-1.6,4.2-2,6.4c-1.6,7.8-4.6,15.2-6.3,23c-0.6,0.2-0.9,0.5-0.3,1.1
		c-1.8,4.9-3.1,9.9-4.2,15c-0.6,0.2-0.9,0.5-0.3,1.1c-0.5,2.7-2.2,5.1-2.2,8c-1.1,0.6-1,1.1,0.1,1.6c0.3,0.2,0.6,0.4,0.9,0.7
		c0.6,1,1.3,0.9,2.1,0.2c5.7,0.5,11.4,0.5,17.1,0C227.7,248.1,229.1,249,230.4,247.4z M222.9,178.4c0.1,0.3,0.1,0.6,0.2,0.9
		c3.8,8.8,7.9,17.6,11.3,26.6c2.3,5.9,4.9,11.7,7.3,17.5c2.5,6.3,5.4,12.5,7.9,18.9c0.5,1.4,1.4,2,2.9,1.5c1.3-0.4,2.6-0.7,3.7-1.3
		c7.5-4.1,15.7-6.7,23.2-10.6c5-2.6,10.2-4.6,15.1-7.5c0.7-0.4,1.6-0.9,1.6-1.9c0.1-1.1-0.8-1.4-1.6-1.8c-1.3-0.7-2.5-1.6-3.8-2.4
		c-4-2.5-7.9-5.2-10.7-9c-1.4-1.9-3.2-3.1-5-4.6c-4.4-3.6-9.2-6.8-13.7-10.4c-3.3-2.6-6.7-5.3-9.8-8c-2.2-1.9-4.6-3.7-6.4-6.1
		c-2-2.6-3.8-6.3-8-6c-2.7,0.2-4-1.2-5.4-3c-2.4-3-5-5.7-8.2-7.7c-1.3-0.8-2.6-1.6-4.1-1.6c-2.3-0.1-3,0.7-2.1,2.8
		c1.1,2.5,1.9,5.1,2.6,7.7c-0.2,0.8,0.3,1,0.9,1.1c0.5,1.1,0.9,2.2,1.4,3.3C221.9,177.4,221.7,178.1,222.9,178.4z M360.1,110.5
		c-0.6,0.7-0.5,1.2,0.3,1.6c0,2,1.2,3,2.8,4c2.2,1.3,5.1,2,6.4,4.5c1,2.1,2.2,4.2,4.1,5.5c2.2,1.6,4,4.6,7.6,3c0.4,0.4,0.7,0.4,1,0
		c2.1,0.4,3.2,1.8,4,3.6c-0.4,0.4-0.4,0.7,0.1,1c-0.1,0.3-0.2,0.6-0.3,0.9c-1,0.7-1,1.4,0.1,2.1c1.6,4,4.7,6.4,8.8,7.7
		c2.9,0.9,5.6,2.3,6.9,5.4c-1.5,1.1-0.7,1.8,0.4,2.5c-0.2,1.7,0.3,2.9,1.8,4.1c1.7,1.3,3.4,2.6,5.1,3.9c0.7,0.5,1.4,0.8,2.1,0.5
		c3.9-1.8,7.8-0.9,11.8-0.7c1,0,1.7,0,2.5-0.7c2.4-2.2,5.1-2.4,7.9-0.6c1.6,1,3.2,2,4.8,3c7.1,4.2,13.5,9.3,19,15.5
		c-0.3,0.8,0,1.2,0.8,1.2c0.1,1.7,1.9,1.9,2.7,3c3.2,4,6.3,8.1,9.3,12.2c6.6,9.1,12.7,18.6,17.9,28.6c4.7,9.1,9.8,17.9,13.2,27.8
		c2.4,7.1,4.3,14.2,6.3,21.4c-0.6,0.5-0.3,0.8,0.3,1.1c0.4,2.2,0.8,4.3,1.3,6.5c-0.6,0.8-1,1.6,0.4,2c0,0.3,0.1,0.7,0.1,1
		c-0.6,0.8-1.1,1.6,0.4,2c0,0.3,0.1,0.7,0.1,1c-1.4,1.1-1,1.9,0.4,2.5c0,0.3,0.1,0.7,0.1,1c-1.5,1.4-1.5,2.6,0.4,3.5
		c0,0.3,0.1,0.7,0.1,1c-0.7,0.9-0.8,1.8,0.2,2.6c0.1,1.1,0.2,2.3,0.3,3.4c-0.7,0.7-0.4,1.6-0.4,2.4c0,4.5,0,8.9,0,13.4
		c0,1-0.4,2,0.4,2.9c0,0.3-0.1,0.7-0.1,1c-2.5,1.3-0.9,3-0.4,4.6c0,0.3-0.1,0.7-0.1,1c-2.3,0.7-1.4,1.9-0.4,3
		c-0.1,0.6-0.2,1.3-0.3,1.9c-0.6,0.3-0.8,0.6-0.2,1.1c-0.6,2.8-1.1,5.6-1.7,8.4c-0.3,1.3-0.3,2.7-1.4,3.7c-0.2,0-0.4,0-0.5-0.1
		c-1-2.2-2.9-4-3-6.5c-0.2-4-0.6-7.9-1.9-11.9c-1.4-4.5-4-8.1-6.9-11.4c-5.1-6-11.5-10.3-18.8-13.3c-2.5-1-4.9-1.9-7.3-3.1
		c-4.8-2.3-9.3-5.1-13-8.8c-4-4-7.8-8.2-10.8-13.2c-2.2-3.7-3.5-7.8-5.4-11.7c0.8-1.6-0.3-1.8-1.4-2c-3.4-3.7-6.9-7.2-11.2-9.9
		c-4.7-3-9.8-5.3-14.4-8.4c-6.6-4.5-13.1-9-19.5-13.9c-4.7-3.6-9.8-6.8-14.3-10.8c-3-2.6-6.3-5-9.4-7.5c-0.2-0.6-0.5-0.9-1.1-0.3
		c-0.5-0.1-0.9-0.2-1.4-0.2c-0.9-0.9-1.8-0.9-2.7,0c-0.5,0.1-1,0.2-1.4,0.2c-0.5-0.6-0.8-0.3-1.1,0.3c-2.2,0.7-4.1,1.9-5.9,3.2
		c-0.2-0.5-0.5-1-0.7-1.6c0.1-1.2,0.1-2.3,0.2-3.5c0.3-0.2,0.7-0.3,0.7-0.5c0.1-0.4-0.3-0.5-0.6-0.5c0.6-2-0.3-3.5-1.7-4.9
		c-5.4-5.3-10.7-10.6-16.1-15.9c-2.5-2.5-2.9-2.5-4.9,0.4c-4.9,7.2-8.8,15-11.9,23.2c-0.3,0.7-0.2,1.7-1.2,2.1
		c-0.8-3.2-0.9-6.3-0.6-9.5c0.8-8.5,3.4-16.6,7-24.3c1-2.2,1.1-3.9-0.5-5.9c-3-3.8-5.7-7.8-8.5-11.7c-1.2-1.7-2-3.5-2.4-5.5
		c-0.2-1.2,0-2.4,1.5-2.2c2.4,0.2,4.7,0.8,6.4,2.5c3.3,3.4,6.5,6.9,9.7,10.4c0.9,1,1.9,1.4,3.3,1.3c7.3-0.6,14.6-0.5,21.8-0.3
		c5.6,0.2,11.2,0.7,16.6,2.2c1.6,0.4,3.3,0.8,4.4,2.5c-5.1,0.4-10.3,0.2-15.3,0.4c-5.7,0.3-11.4,0.5-16.8,2.4
		c-3.3,1.1-3.7,2.6-1.7,5.4c4,5.9,8.1,11.7,12.2,17.5c0.9,1.3,1.3,3.1,3,3.9c0.7,2.1,1.4,1.1,2.1,0c0.8-0.1,1.6-0.1,2.5-0.2
		c1,1.5,1.8,0.9,2.6-0.2c0.5,0,0.9,0,1.4,0c0.6,1.5,1.3,0.7,2.1,0.2c2.4-0.1,2.1,1.5,2.1,3c-0.1,0.6,0.2,0.9,0.8,0.9
		c0.6,0,1.1-0.2,1.1-0.9c0.5-0.9,0.7-1.9,0.4-2.9c0.7-0.7,0.3-0.9-0.4-1c-3.6-2.2-7.5-1.6-11.3-1.2c-1.5,0.2-2.6,0-3.4-1.3
		c-1.9-2.8-3.5-5.7-5.6-8.4c-2.6-3.5-5-7.1-7.6-10.6c-1.1-1.5-0.1-2.1,0.8-2.1c2.7-0.1,5.3-1.2,8-1.1c0.9,0.1,1.8,0.6,2.2-0.8
		c1-0.1,2-0.2,2.9-0.2c0.7,0.6,1.4,0.6,2.1-0.1c2.5-0.1,5-0.3,7.4-0.4c3.7,0.6,7.5,0.8,11.2-0.1c0.4-0.1,0.9-0.3,1.3-0.4
		c1.6-0.5,1.4-1.2,0.1-1.9c-1.5-1.9-3.5-3-5.8-3.8c-4-1.4-8.1-1.9-12.3-2.4c-0.4-0.8-1-0.8-1.6-0.2c-3-0.1-6-0.3-8.9-0.4
		c-3.3-0.8-6.5-0.8-9.8,0c-2.7,0.1-5.3,0.2-8,0.4c-1.2,0.1-2.2-0.2-2.9-1.2c-2-3-5-5-7.2-7.9c-1.9-2.5-4.4-4-7.4-4.8
		c-0.2-0.6-0.6-0.8-1.1-0.2c-4.6-0.3-5.7,1-5,6c-0.6,0.6-0.2,0.9,0.4,1.1c0.8,1,0.7,2.3,1.4,3.4c3,4,5.8,8.2,8.8,12.2
		c1,1.3,1.1,2.3,0.5,3.8c-2.1,5.8-4.8,11.5-5.8,17.7c-0.6,0.2-0.9,0.5-0.3,1.1c-0.1,0.5-0.1,1-0.2,1.4c-0.8,0.4-0.9,0.9-0.3,1.6
		c-0.1,0.5-0.1,1-0.2,1.4c-1.1,1.3-0.9,2.7-0.2,4.1c0,0.8,0,1.7,0,2.5c-0.7,1.3-0.8,2.5,0.3,3.6c0.4,1.8,0.7,3.6,1.5,5.3
		c0.3,0.6,0.4,1.5,1.1,1.5c0.8,0.1,1.2-0.8,1.6-1.4c0.2-0.3,0.3-0.8,0.5-1.2c3.1-9.2,7.1-17.9,12.5-26c1.1-1.7,1.7-1.5,2.9-0.3
		c4.7,4.8,9.4,9.5,14.2,14.1c1.8,1.7,2.5,3.4,1.9,5.8c-0.6,0.3-0.8,0.6-0.2,1.1c-0.1,1.6-0.2,3.3-0.3,4.9c-0.6,0.3-0.8,0.6-0.2,1.1
		c0,0.9-0.5,1.9,0.7,2.4c0.5,0.2,1.3,0.4,1.6-0.2c1.1-2.2,3.4-3,5.2-4.5c2.5-2.1,7.2-2.4,9.3-0.6c8.7,7.7,18,14.5,27.4,21.2
		c5.3,3.8,10.3,8,16,11c5.7,3,11,6.4,16.3,9.9c5.2,3.4,9.3,7.7,10.9,14c0.5,2,1.4,3.7,2.4,5.4c2.4,4.1,5.2,7.8,8.5,11.3
		c5.9,6.2,12.5,11.3,20.6,14.4c5.5,2.1,10.7,4.8,15.4,8.4c7.5,5.8,13.1,12.9,14.6,22.7c-0.4,0.2-0.8,0.4-1.1,0.7
		c-8.7-11.5-20.2-18.2-34.5-20.4c-0.6-0.9-1.3-0.9-2.1-0.2c-1.6-0.1-3.3-0.2-4.9-0.3c-0.4-0.8-1-0.8-1.6-0.2
		c-0.6-0.1-1.3-0.2-1.9-0.3c-0.3-0.6-0.6-0.7-1.1-0.2c-10.8-1.8-21.5-3.9-32.1-6.3c-0.2-0.6-0.6-0.9-1.1-0.3
		c-1.1-0.3-2.3-0.5-3.4-0.8c-0.2-0.6-0.6-0.8-1.1-0.3c-6.6-1.6-13.2-2.8-19.2-6.1c-5.8-3.1-11.8-5.8-17.6-8.7
		c-9.2-4.5-18.4-8.9-27.6-13.4c-6.3-3-12.6-6-18.6-9.5c-8.5-5-17.2-9.4-27-10.9c-0.4-0.8-1-0.9-1.6-0.2c-5.5-0.4-10.6,0.5-15.2,4
		c-2.6,2-5.5,3.6-8.3,5.3c-3.1,1.8-6.2,3.6-9.4,5.3c-6.3,3.4-12.7,6.4-19.9,7.1c-0.4-0.6-0.8-0.4-1.1,0.1c-4.9,0.8-9.7,0.2-14.4-0.9
		c-9.8-2.4-18-7.9-25.2-14.9c0-0.5,0-1,0-1.4c4.2,0,8.4-0.1,12.5-0.1c0.8,0.6,1.5,0.7,2.1-0.1c1.1-0.1,2.3-0.2,3.4-0.4
		c0.4,0.6,0.8,0.4,1.1-0.1c1-0.1,1.9-0.3,2.9-0.4c0.5,0.6,0.8,0.4,1.1-0.2c0.6-0.1,1.3-0.2,1.9-0.3c0.5,0.6,0.8,0.3,1.1-0.2
		c0.6-0.1,1.3-0.2,1.9-0.3c0.7,0.6,1.2,0.5,1.6-0.3c1.2-0.3,2.4-0.6,3.7-0.8c12.8-3,24.9-7.6,36.3-14.2c4.2-2.4,8.1-5.2,12.1-7.8
		c1.1-0.7,2.1-2.6,3.3-2.1c0.9,0.4,0.4,2.4,0.5,3.7c-0.6,0.9-0.7,1.8,0.2,2.6c0,1,0,1.9,0,2.9c-0.8,0.6-0.8,1.3-0.2,2.1
		c-0.2,2.3-0.2,4.7-1.9,6.5c-0.6,0.7-0.6,1.3,0.2,2.1c1.2,1.1,1.7-0.3,1.9-0.7c0.7-1.4,1.5-2.8,1.7-4.4c0.9-5.1,0.7-10.2,0.1-15.2
		c-0.5-4-0.9-4.2-4-1.9c-0.7,0-1.4,0.1-1.5,1c-2.4,1.8-4.8,3.8-7.3,5.5c-9.7,6.6-20.3,11.6-31.5,15c-15.4,4.8-31.1,7.1-47.2,5.7
		c-0.7-0.6-0.9-0.2-0.9,0.5c-0.4,0.9,0.1,1.5,0.7,2.2c6.1,7.8,14.3,12.5,23,16.5c7,3.2,14.4,3.2,21.9,2.7c3.9-0.3,7.8-1.1,11.4-2.6
		c4.3-1.7,8.3-4,12.4-6.2c5-2.7,9.8-5.8,14.7-8.7c2.7-1.6,5-4,8.4-4c2.4,0.6,4.7,0.6,7.1,0c6.2,0.5,11.9,3,17.2,5.9
		c8.5,4.7,17.3,8.9,25.9,13.5c3.9,2,8,3.6,11.9,5.5c2.8,1.3,5.3,3,8.1,4.3c9.4,4.1,18.3,9.2,27.7,13.3c6.2,2.7,12.5,5,19.2,6
		c0.2,0.6,0.5,0.9,1.1,0.3c2.7,0.6,5.3,1.2,8,1.8c0.3,0.6,0.6,0.8,1.1,0.2c1.1,0.2,2.3,0.5,3.4,0.7c0.3,0.6,0.6,0.8,1.1,0.2
		c3.4,0.8,6.8,1.4,10.1,2.3c2.6,0.7,5.2,0.6,7.8,1.1c4.8,0.9,9.7,2,14.6,2c0.3,0.6,0.6,0.8,1.1,0.2c5.1,0.5,9.9,1.8,14.6,4
		c12.4,5.9,20.8,15.5,26.5,27.8c0.3,0.7,1,1.5,0.5,2.3c-1.3,2.3-2,5-3.9,7c-2.9,3-6.9,2.8-10.6,3.7c-0.4,0.1-0.7,0-1-0.5
		c-0.9-1.8-2.8-2.2-4.5-2.9c-2.4-1-3-2.7-1.2-4.6c1.3-1.4,1.8-3,1.5-4.8c-0.4-2.2-0.9-4.4-1.4-6.5c-0.6-2.4-2.5-3.5-4.8-3.7
		c-2.7-0.2-5.9-0.3-7.5,2.2c-2.8,4.3-1.3,10.1,3.2,13.2c0.6,0.4,1.8,0.3,1.6,1.4c-0.2,1-1,2-2.2,2.1c-2.9,0.3-5.5,1.8-8.2,2.6
		c-5.1,1.7-9.7,4.3-13.2,8.1c-4,4.4-6.2,10-8.5,15.4c-0.5,1.3-1.1,2.5-1,4c0.1,1.4,0.7,1.4,1.6,0.7c0.6-0.4,1.1-1,1.6-1.6
		c3.8-4.3,7.5-8.7,10.9-13.3c1.5-2,3.6-3.1,5.9-3.7c2.2-0.6,4.5,0.8,5.2,3c1.7,5.9,3.4,11.7,5,17.6c0.4,1.4,1.3,3.2,0.8,4.1
		c-1,1.9-0.6,3.7-0.7,5.5c-0.1,2.5,0.2,5-0.7,7.3c-0.7,1.8-0.7,3.6-0.7,5.4c0,1.7,0.1,3.4,0.2,5c0.2,2.9-1.2,5.4-2.3,7.8
		c-0.7,1.5-2.8,0.2-4.2,0.6c-0.6,0.2-1.1,0.3-1.7,0.5c-2.4,0.9-4.9,1.7-7.6,1.6c-1.6-0.1-2.5,0.7-2.2,2.5c0.2,1.6-0.8,3-0.8,4.5
		c0.1,2.2-2.3,4.1-0.8,6.5c-3.1,0.7-6.1,1.4-9.2,2.1c-1,0.2-2.3,0.5-1.8,1.8c1.3,3.7,0.3,7.5,0.8,11.3c0.7,5.5,0.5,11.2,0.5,16.8
		c0,7.8-0.3,15.6-0.5,23.4c0,1.7,0.3,2.3,2.3,1.8c2.6-0.7,5.3-0.8,8-1.4c6.2-1.4,6.4,0.2,5.5-6.4c-1.1-7.7-0.2-8.6,7.4-9.1
		c5.8-0.4,10.9-2.6,15.1-6.7c5.2-5,7.6-11.3,8-18.3c0.7-11.1-5.1-19.9-18.5-18.3c-3.7,0.5-7.4,1.4-11.1,1.8
		c-0.4-1.9,0.9-3.5,0.6-5.4c-0.1-0.5,0.5-1.1,1.2-0.7c3.5,1.9,6.8,0.2,10-0.8c6-1.8,10.7-5.5,12.6-11.6c1.2-4,3.3-7.3,5.7-10.6
		c1.3-1.8,2.8-3.4,5-4.3c4.4-1.8,9.1-1.4,13.5-0.9c6.3,0.7,12.6,2.6,18.7,4.3c5.1,1.4,9.4,4.5,13.9,7.3c2.3,1.5,4.5,1.2,6.5-0.6
		c2.2-2,2.8-4.6,3.6-7.2c0.3-0.8,0.4-1.9-0.6-2.5c-1-0.6-2-0.1-2.8,0.5c-0.6,0.4-0.8,1.2-1.3,1.7c-1.2,1.5-2.5,2.1-4.5,0.8
		c-2.9-1.9-5.7-3.9-8.6-5.9c-10.7-7.4-22.5-12.6-35.3-15c-2.3-0.4-3.1-1.8-3.6-3.5c-0.8-2.6-1.2-5.4-2.5-7.9
		c-1.4-2.9-0.4-4.9,2.6-6.3c1.7-0.8,3.5-1.6,5.1-2.5c7.2-4.1,9.4-11.3,11.4-18.7c0.3-1.2,0.4-2.6-0.2-3.3c-1.2-1.6-0.6-3.1-0.2-4.7
		c0.7-3.2,1.3-6.3,2-9.5c0.8-0.4,0.9-0.9,0.2-1.6c0.1-0.6,0.2-1.3,0.3-1.9c0.9-0.6,0.9-1.3,0.2-2.1c0.1-1,0.2-2,0.3-2.9
		c1-1.1,0.9-2.4,0.2-3.6c0-0.3,0.1-0.7,0.1-1c0.7-0.2,0.9-0.7,0.9-1.3c0-4.5,0-9,0-13.5c0-0.6-0.2-1.1-0.9-1.3c0-0.3,0-0.7-0.1-1
		c0.7-1.2,0.9-2.5-0.2-3.6c-0.1-1-0.2-2-0.3-2.9c0.7-0.9,0.8-1.8-0.2-2.6c-0.1-0.6-0.2-1.3-0.3-1.9c0.6-0.5,0.4-0.8-0.2-1.1
		c-0.1-0.8-0.2-1.6-0.3-2.4c0.6-0.5,0.3-0.8-0.2-1.1c-0.4-2.1-0.8-4.3-1.2-6.4c-3-16.4-8.1-32-15.7-46.8c-3.8-7.4-7.8-14.8-12.2-22
		c-6.5-10.7-13.6-21.1-22-30.4c-3.9-4.3-7.8-8.5-12.2-12.1c-4.6-3.8-9.9-6.6-15-9.7c-2.3-1.3-5.1-1.9-7.2-0.2
		c-2.6,2.1-5.3,2-8.2,1.7c-1.5-0.2-3.1-0.3-4.5,0.2c-4,1.4-6.1-1.8-8.8-3.5c-0.5-0.4-0.5-1-0.6-1.6c-0.5-5.8-3-8.9-8.7-10.6
		c-2.4-0.7-4.4-2.1-6.1-3.8c-0.9-0.8-1.4-1.9-1.3-3.1c0.6-5.3-2.8-8.7-8.2-8.1c-0.8,0.1-1.5,0.2-2.1-0.3c-2.2-1.7-4.6-3.4-5.5-6.1
		c-0.8-2.2-2.2-3.4-4.1-4.5c-1.2-0.7-2.4-1.5-3.7-2.1c-1.4-0.6-2-1.5-2.2-3c-0.4-3.2-2-5.8-4.9-7.5c-3.7-2.1-4-4.2-0.8-7
		c2.7-2.4,4.8-5.4,7.2-8c0.8-0.8,1.1-1.7,0.8-3c-0.4-1.5,0.4-2.6,1.8-2.7c2.8-0.2,5.3-1.4,8-2.1c6.3-1.7,13.8,0.6,17.7,8
		c0.7,1.3,1.6,1.3,2.7,0.6c1.7-1.2,3.3-2.6,5.2-3.6c5.1-2.8,8.5-6.7,9.4-12.5c0.1-0.7,0.4-1.2,1.2-1.4c5.2-1.2,10.7,3.4,10.7,8.7
		c0,1.4-0.6,1.7-1.8,1.5c-8-1.2-12.8,4.2-17.8,8.9c-1.2,1.1-1.1,2.7-0.4,4.2c1.6,3.3,4.7,4.2,7.7,2c2.4-1.8,4.9-3.2,7.8-4
		c3.8-1.1,6.4,1.4,5.7,5.4c-0.2,1.1-0.6,2.1-1.2,3c-0.9,1.6-2,3.1-3.3,4.4c-1.2,1.1-1.3,2.2-0.3,3.5c0.5,0.7,0.9,1.4,1.2,2.2
		c0.9,1.8,2.1,2.1,3.8,1.1c1.3-0.7,2.8-1.2,4.2-1.6c1.5-0.4,1.8-1.3,1.4-2.7c-0.2-0.6-0.3-1.1-0.6-1.7c-0.7-1.6-0.4-2.3,1.5-2.2
		c3.5,0.2,7,0.3,10.5,0.4c0.7,0,1.3,0.2,1.9,0.6c5.2,3.5,10.2,7.1,14.4,11.7c3.1,3.4,2.4,12.2-1.4,14.8c-2.4,1.6-4.4,3.6-6.6,5.4
		c-4.1,3.2-8,6.7-13.1,8.3c-0.7-0.1-1,0.3-1,1c0,0.6,0.4,0.8,1,0.7c1.6,0.2,3-0.3,4.4-1c4.6-2.5,8.6-5.7,12.3-9.2
		c1.8-1.7,4.2-2.5,5.5-4.4c1.7-2.4,2.6-5.3,2.9-8.3c0.6-0.3,0.9-0.6,0.2-1.1c0.7-4.2-1.6-7.1-4.4-9.6c-3.7-3.3-7.7-6.3-11.7-9.3
		c-1.6-1.2-3.5-2-5.8-1.9c-3,0.1-6-0.1-9-0.3c-5.7-0.3-5.7-0.3-4.1,5c0.3,1.1,0.4,1.7-0.9,2c-0.6,0.1-1.3,0.5-1.9,0.7
		c-0.8,0.3-1.7,1-2.3-0.3c-0.5-1.1-1.5-1.9-0.2-3.3c1.8-1.8,3.2-4,4.1-6.5c1.1-3,0.1-5.6-1.7-7.9c-1.5-2-3.9-1.8-6-1.3
		c-3.2,0.8-6.3,1.9-8.9,4.1c-1.2,1-2.6,1.5-3.8-0.1c-1.1-1.3-1-2.3,0.4-3.6c1-0.9,2.1-1.6,3.1-2.4c3.9-3.2,8-6,13.5-4.4
		c2.3,0.6,2.8-0.5,2.9-2.4c0-0.8,0-1.5,0-2.3c0.6-0.5,0.4-0.8-0.2-1.1c-1.5-7.5-8.1-9.4-14.2-9c-0.9,0.1-1.5,0.6-1.8,1.5
		c-0.6,0.2-0.9,0.6-0.3,1.1c-0.6,3.5-2.1,6.7-4.8,9c-1.9,1.6-4.2,2.7-6.2,4.2c-1.5,1.1-2.3,1.1-3.6-0.4c-4.1-4.6-9-7.5-15.5-6.9
		c-4.4,0.4-8.5,2.2-12.8,3.1c-1.8,0.4-2.5,2-2.5,3.8c0,0.8,0.3,1.7-0.4,2.4c-2.3,2.4-4,5.2-6.6,7.3c-4,3.1-3.5,7.7,0.8,10.4
		C357.9,106.5,359.7,108,360.1,110.5z M557.5,459.9c0,2.7,0.1,5,0,7.2c-0.2,2.2,0.4,3.2,2.9,2.9c4.1-0.5,8.1-1.3,12.2-1.9
		c1.6-0.3,1.6-1.1,1.5-2.3c-0.3-4.5-0.7-9-0.9-13.5c-0.1-1.3-0.7-3,1.5-3.4c2.7-0.6,5.5,0.2,6.2,1.9c1.8,4.5,4.2,8.8,5.7,13.4
		c0.5,1.5,1.5,2.5,3.5,2.3c3.8-0.4,7.6,0.1,11.4-0.5c2.9-0.4,3.2-0.4,1.9-3.1c-2.5-5.5-5.2-10.9-7.9-16.3c-0.8-1.6-0.8-2.6,0.9-3.7
		c8.1-5.4,8.5-18.8,4.1-24.6c-3.4-4.5-8-6.4-13.3-6.6c-9.6-0.3-18.9,1.9-28.2,3.5c-1.7,0.3-2,1.5-1.6,2.7c1.2,4,0.6,8.1,0.9,12.1
		C558.9,440.2,558.3,450.3,557.5,459.9z M403.6,499.1c2.7,0,5.4,0.2,8.2-0.4c2-0.4,2.4-0.9,1.5-2.7c-2.8-5.5-5.4-11.2-8.2-16.7
		c-0.8-1.6-0.6-2.6,0.8-3.5c3.9-2.7,6.2-6.5,6.8-11.2c1-8.6-0.7-15.8-10.8-19.3c-5.3-1.8-10.8-1.8-16.3-1.9c-4.2,0-8.3-0.7-12.5-0.8
		c-6.2-0.2-6.5-1.7-5.5,5.8c0,0.2,0,0.3,0,0.5c0.9,11.5,0.5,23-0.2,34.5c-0.2,3.8,0,7.6-0.3,11.4c-0.1,1.3,0.4,2.2,1.9,2.4
		c3.6,0.5,7.1,1.2,10.7,1.5c4,0.4,4.2,0.2,4-3.8c-0.2-4.3-0.7-8.6-1-13c0-0.6-0.4-1.4,0.5-1.8c2.3-1.1,6.5,0.3,7.5,2.7
		c1.5,3.8,3.1,7.5,4.8,11.3c2.4,5.5,0.5,5.1,7,5C402.8,499.1,403.2,499.1,403.6,499.1z M633.1,444.4c0,6.6,0,13.2,0,19.8
		c0,3.8,0,3.8,3.4,4.5c3.6,0.8,7.3,1.5,10.9,2.3c1.4,0.3,1.7-0.3,1.7-1.6c-0.1-2.3-0.3-4.7-0.5-7c-0.4-4.6-0.2-4.7,4.1-3.3
		c4.7,1.6,9.3,3.8,14.5,3.7c5.1,0,9.2-3.5,10.5-7.1c4.2-11.3-1-26.1-11.7-33.5c-5.1-3.5-11-4.9-16.8-6.5c-4.6-1.3-9.4-2-14.2-2.6
		c-1.8-0.2-2.7,0.2-2.5,2.4c0.2,2.4,0.2,4.8,0.4,7.2C633.8,429.9,633.6,437.2,633.1,444.4z M350.7,451c3.3,0.8,6.8,1.6,10.2,2.6
		c1.8,0.5,2.2,0,2.2-1.7c-0.1-3.1-0.7-6.3-0.1-9.4c0.3-1.9-0.7-2.5-2.4-2.6c-2.2-0.2-4.5-0.3-6.7-0.6c-9.8-1.5-19.1-4.8-27.8-9.5
		c-2.4-1.3-3.4-0.9-3.2,1.8c0.3,2.7-0.6,5.2-1.2,7.7c-0.4,1.7,0,2,1.3,2.6c3.1,1.4,6.5,2.2,9.7,3.3c0.8,0.3,1.6,0.2,1.7,1.4
		c0.7,6.3,1.1,12.6,0.6,19c-0.5,6.7-0.8,13.4-1.2,20.1c-0.1,1.3,0.2,2.5,1.5,3.1c4.4,1.9,8.9,3.6,13.7,4.3c1.7,0.3,2-0.5,1.9-1.9
		c-0.1-2.8-0.2-5.7-0.2-8.5C350.7,472.1,350.7,461.6,350.7,451z M553.1,421.9c0-1.5,0-2.3,0-3.2c0-3.4,0-3.4-3.3-2.5
		c-11.3,3.3-22.6,6.6-34.4,7.7c-0.9,0.1-1.8,0.3-1.9,1.3c-0.6,3.9-1,7.8-1.5,11.7c-0.1,1.2,0.2,1.5,1.4,1.1c3-1,6.1-1.7,9-2.8
		c1.9-0.7,2.9-0.6,2.7,1.7c-0.7,5.1,0.5,10.2,0.1,15.4c-0.7,7.5-0.4,15.1-0.7,22.7c-0.1,2.3,1.3,2.3,2.6,2c3.8-0.8,7.6-1.9,11.4-2.7
		c2.3-0.5,2.8-1.6,2.7-3.8c-0.3-12.3-0.3-24.6-0.5-36.9c0-1.8,0.1-2.8,2.5-2.9c3-0.1,6-0.9,9-1.4c1.5-0.2,1.8-1.2,1.4-2.3
		C552.9,425,553.3,423.1,553.1,421.9z M625.6,419.1c0.1-1.6,0.1-3.2,0.2-4.8c0.1-1.7-0.5-2.5-2.3-2.5c-3.9-0.1-7.8-0.3-11.7-0.6
		c-2.1-0.2-2.8,0.4-2.7,2.6c0.3,5.9,0.3,11.9,0.4,17.8c0,5,0.2,10.1-0.2,15.1c-0.5,6-0.2,12.1-0.9,18.1c-0.1,1.1,0.4,1.5,1.5,1.7
		c4.1,0.8,8.3,0.2,12.4,0.6c2.6,0.3,3-0.8,3-3.1C625,449,624.4,434,625.6,419.1z M418.9,465.3c1.1,10.3-0.6,20.5-0.5,30.8
		c0,1.8,0.5,2.9,2.3,2.6c4.1-0.6,8.2-0.8,12.2-1.8c1.6-0.4,2.1-1.1,2.1-2.7c-0.2-7.6-0.3-15.2-0.5-22.9c-0.2-9.1,0.8-18.2,0.9-27.3
		c0-2.8-0.2-3-3-2.4c-3.8,0.7-7.5,1.4-11.4,1.3c-1.8-0.1-2.2,0.6-2.2,2.3C419,451.9,418.9,458.6,418.9,465.3z"/>
	<path fill="#323232" d="M423.8,79.9c0,0.8,0,1.5,0,2.3c0,1.9-0.6,3-2.9,2.4c-5.4-1.5-9.6,1.2-13.5,4.4c-1,0.8-2.1,1.5-3.1,2.4
		c-1.3,1.3-1.4,2.3-0.4,3.6c1.3,1.6,2.6,1.1,3.8,0.1c2.6-2.2,5.7-3.2,8.9-4.1c2.2-0.6,4.5-0.7,6,1.3c1.8,2.3,2.7,4.8,1.7,7.9
		c-0.9,2.5-2.3,4.7-4.1,6.5c-1.3,1.3-0.3,2.2,0.2,3.3c0.6,1.3,1.5,0.7,2.3,0.3c0.6-0.3,1.2-0.6,1.9-0.7c1.3-0.3,1.2-0.9,0.9-2
		c-1.7-5.3-1.6-5.3,4.1-5c3,0.1,6,0.4,9,0.3c2.3-0.1,4.1,0.7,5.8,1.9c4,3,8,5.9,11.7,9.3c2.7,2.4,5.1,5.4,4.4,9.6
		c-0.4,0.3-0.4,0.7-0.2,1.1c-0.3,3-1.2,5.8-2.9,8.3c-1.4,2-3.8,2.8-5.5,4.4c-3.7,3.5-7.8,6.7-12.3,9.2c-1.4,0.8-2.8,1.3-4.4,1
		c-0.3-0.6-0.3-1.2,0-1.7c5.1-1.6,9-5,13.1-8.3c2.2-1.8,4.2-3.8,6.6-5.4c3.7-2.6,4.4-11.4,1.4-14.8c-4.2-4.6-9.2-8.2-14.4-11.7
		c-0.6-0.4-1.2-0.5-1.9-0.6c-3.5-0.1-7-0.2-10.5-0.4c-1.9-0.1-2.2,0.6-1.5,2.2c0.2,0.5,0.4,1.1,0.6,1.7c0.5,1.4,0.1,2.2-1.4,2.7
		c-1.4,0.4-2.9,0.9-4.2,1.6c-1.8,1-3,0.8-3.8-1.1c-0.4-0.8-0.8-1.5-1.2-2.2c-1-1.3-0.9-2.4,0.3-3.5c1.4-1.3,2.4-2.8,3.3-4.4
		c0.6-0.9,1-1.9,1.2-3c0.7-4-1.9-6.4-5.7-5.4c-2.9,0.8-5.4,2.2-7.8,4c-3,2.2-6.1,1.4-7.7-2c-0.7-1.5-0.8-3.1,0.4-4.2
		c5.1-4.7,9.8-10.1,17.8-8.9c1.3,0.2,1.8-0.1,1.8-1.5c0.1-5.3-5.5-9.9-10.7-8.7c-0.8,0.2-1.1,0.7-1.2,1.4c-1,5.8-4.3,9.8-9.4,12.5
		c-1.8,1-3.4,2.4-5.2,3.6c-1.1,0.8-2,0.7-2.7-0.6c-3.9-7.4-11.4-9.7-17.7-8c-2.6,0.7-5.2,1.9-8,2.1c-1.4,0.1-2.3,1.2-1.8,2.7
		c0.4,1.2,0,2.1-0.8,3c-2.4,2.7-4.5,5.6-7.2,8c-3.2,2.8-2.9,4.9,0.8,7c2.9,1.7,4.5,4.2,4.9,7.5c0.2,1.5,0.8,2.4,2.2,3
		c1.3,0.6,2.5,1.4,3.7,2.1c1.9,1,3.3,2.3,4.1,4.5c0.9,2.7,3.3,4.3,5.5,6.1c0.7,0.5,1.4,0.4,2.1,0.3c5.4-0.6,8.8,2.8,8.2,8.1
		c-0.1,1.3,0.4,2.3,1.3,3.1c1.7,1.7,3.7,3.1,6.1,3.8c5.7,1.6,8.2,4.7,8.7,10.6c0.1,0.6,0,1.2,0.6,1.6c2.7,1.7,4.7,4.9,8.8,3.5
		c1.4-0.5,3-0.3,4.5-0.2c2.9,0.3,5.6,0.4,8.2-1.7c2.1-1.7,4.9-1.1,7.2,0.2c5.1,3,10.4,5.9,15,9.7c4.4,3.6,8.4,7.8,12.2,12.1
		c8.4,9.3,15.5,19.7,22,30.4c4.4,7.1,8.4,14.5,12.2,22c7.6,14.8,12.7,30.5,15.7,46.8c0.4,2.1,0.8,4.3,1.2,6.4
		c-0.2,0.4-0.1,0.8,0.2,1.1c0.1,0.8,0.2,1.6,0.3,2.4c-0.2,0.4-0.2,0.8,0.2,1.1c0.1,0.6,0.2,1.3,0.3,1.9c-0.2,0.9-0.2,1.8,0.2,2.6
		c0.1,1,0.2,2,0.3,2.9c-0.2,1.2-0.2,2.4,0.2,3.6c0,0.3,0,0.7,0.1,1c0,5.4,0,10.7,0,16.1c0,0.3-0.1,0.7-0.1,1
		c-0.4,1.2-0.4,2.4-0.2,3.6c-0.1,1-0.2,2-0.3,2.9c-0.4,0.7-0.4,1.4-0.2,2.1c-0.1,0.6-0.2,1.3-0.3,1.9c-0.4,0.5-0.4,1-0.2,1.6
		c-0.7,3.2-1.3,6.3-2,9.5c-0.3,1.6-1,3,0.2,4.7c0.6,0.8,0.5,2.1,0.2,3.3c-1.9,7.4-4.2,14.5-11.4,18.7c-1.6,0.9-3.4,1.7-5.1,2.5
		c-3,1.4-4.1,3.4-2.6,6.3c1.3,2.6,1.7,5.3,2.5,7.9c0.5,1.8,1.4,3.1,3.6,3.5c12.8,2.4,24.6,7.6,35.3,15c2.8,2,5.7,4,8.6,5.9
		c2,1.3,3.2,0.7,4.5-0.8c0.5-0.6,0.7-1.4,1.3-1.7c0.8-0.5,1.8-1.1,2.8-0.5c1,0.6,0.8,1.6,0.6,2.5c-0.8,2.6-1.4,5.3-3.6,7.2
		c-2,1.8-4.1,2.1-6.5,0.6c-4.4-2.8-8.8-5.9-13.9-7.3c-6.2-1.7-12.4-3.6-18.7-4.3c-4.4-0.5-9.1-0.9-13.5,0.9c-2.2,0.9-3.7,2.6-5,4.3
		c-2.4,3.2-4.5,6.6-5.7,10.6c-1.9,6.2-6.7,9.8-12.6,11.6c-3.2,1-6.5,2.7-10,0.8c-0.7-0.4-1.3,0.2-1.2,0.7c0.3,1.9-1.1,3.6-0.6,5.4
		c-2,1.1-4.2,1.4-6.5,1.2c-1.5-2.4,0.8-4.3,0.8-6.5c-0.1-1.5,1-2.9,0.8-4.5c-0.2-1.8,0.7-2.6,2.2-2.5c2.7,0.2,5.1-0.6,7.6-1.6
		c0.5-0.2,1.1-0.3,1.7-0.5c1.4-0.4,3.5,0.8,4.2-0.6c1.2-2.4,2.6-4.9,2.3-7.8c-0.1-1.7-0.2-3.3-0.2-5c0-1.8,0-3.6,0.7-5.4
		c0.9-2.3,0.6-4.9,0.7-7.3c0-1.8-0.3-3.6,0.7-5.5c0.5-1-0.4-2.7-0.8-4.1c-1.7-5.9-3.3-11.8-5-17.6c-0.6-2.1-3-3.6-5.2-3
		c-2.3,0.6-4.4,1.7-5.9,3.7c-3.4,4.6-7.2,9-10.9,13.3c-0.5,0.6-1,1.2-1.6,1.6c-0.9,0.6-1.5,0.6-1.6-0.7c-0.1-1.5,0.5-2.7,1-4
		c2.3-5.5,4.6-11.1,8.5-15.4c3.5-3.9,8.2-6.5,13.2-8.1c2.7-0.9,5.3-2.3,8.2-2.6c1.2-0.1,1.9-1.1,2.2-2.1c0.2-1-1-1-1.6-1.4
		c-4.4-3.1-6-8.9-3.2-13.2c1.6-2.5,4.8-2.5,7.5-2.2c2.2,0.2,4.2,1.3,4.8,3.7c0.5,2.2,1,4.3,1.4,6.5c0.3,1.8-0.2,3.4-1.5,4.8
		c-1.8,1.9-1.2,3.6,1.2,4.6c1.6,0.7,3.5,1.1,4.5,2.9c0.2,0.5,0.6,0.6,1,0.5c3.6-0.9,7.7-0.7,10.6-3.7c1.9-2,2.6-4.7,3.9-7
		c0.5-0.8-0.2-1.6-0.5-2.3c-5.7-12.3-14.1-21.9-26.5-27.8c-4.7-2.2-9.5-3.5-14.6-4c-0.3-0.4-0.7-0.4-1.1-0.2c-5,0.1-9.8-1.1-14.6-2
		c-2.6-0.5-5.2-0.3-7.8-1.1c-3.3-0.9-6.8-1.6-10.1-2.3c-0.3-0.3-0.7-0.4-1.1-0.2c-1.1-0.2-2.3-0.5-3.4-0.7c-0.3-0.4-0.7-0.4-1.1-0.2
		c-2.7-0.6-5.3-1.2-8-1.8c-0.3-0.4-0.6-0.4-1.1-0.3c-6.7-1-13-3.3-19.2-6c-9.4-4.1-18.3-9.2-27.7-13.3c-2.8-1.2-5.4-2.9-8.1-4.3
		c-3.9-1.9-8.1-3.5-11.9-5.5c-8.6-4.5-17.4-8.7-25.9-13.5c-5.3-3-10.9-5.4-17.2-5.9c-2.4-0.6-4.7-0.6-7.1,0c-3.4,0-5.7,2.5-8.4,4
		c-4.9,2.9-9.7,5.9-14.7,8.7c-4.1,2.2-8.1,4.5-12.4,6.2c-3.6,1.5-7.5,2.3-11.4,2.6c-7.4,0.5-14.9,0.5-21.9-2.7
		c-8.7-4-17-8.7-23-16.5c-0.5-0.7-1.1-1.3-0.7-2.2c0.3-0.2,0.6-0.3,0.9-0.5c16.1,1.4,31.8-0.9,47.2-5.7c11.2-3.5,21.7-8.5,31.5-15
		c2.5-1.7,4.9-3.6,7.3-5.5c0.8,0.1,1.2-0.5,1.5-1c3.2-2.3,3.6-2.2,4,1.9c0.6,5.1,0.8,10.2-0.1,15.2c-0.3,1.6-1.1,3-1.7,4.4
		c-0.2,0.3-0.7,1.7-1.9,0.7c-0.8-0.7-0.8-1.4-0.2-2.1c1.8-1.9,1.8-4.2,1.9-6.5c0.4-0.7,0.5-1.4,0.2-2.1c0-1,0-1.9,0-2.9
		c0.2-0.9,0.3-1.8-0.2-2.6c-0.1-1.3,0.4-3.3-0.5-3.7c-1.2-0.5-2.2,1.4-3.3,2.1c-4,2.6-7.9,5.4-12.1,7.8
		c-11.4,6.7-23.5,11.2-36.3,14.2c-1.2,0.3-2.4,0.6-3.7,0.8c-0.6-0.1-1.1-0.2-1.6,0.3c-0.6,0.1-1.3,0.2-1.9,0.3
		c-0.4-0.2-0.8-0.1-1.1,0.2c-0.6,0.1-1.3,0.2-1.9,0.3c-0.4-0.2-0.8-0.2-1.1,0.2c-1,0.1-1.9,0.3-2.9,0.4c-0.4-0.2-0.8-0.2-1.1,0.1
		c-1.1,0.1-2.3,0.2-3.4,0.4c-0.7-0.2-1.4-0.2-2.1,0.1c-4.2,0-8.4,0.1-12.5,0.1c-0.4-0.2-0.9-0.3-1,0.1c-0.2,0.7,0.4,1.1,1,1.3
		c7.2,7,15.4,12.5,25.2,14.9c4.7,1.2,9.5,1.7,14.4,0.9c0.4,0.2,0.8,0.2,1.1-0.1c7.2-0.7,13.7-3.7,19.9-7.1c3.2-1.7,6.3-3.4,9.4-5.3
		c2.8-1.7,5.7-3.3,8.3-5.3c4.6-3.4,9.7-4.3,15.2-4c0.5,0.4,1,0.4,1.6,0.2c9.9,1.5,18.5,5.9,27,10.9c6,3.5,12.3,6.4,18.6,9.5
		c9.2,4.5,18.4,8.9,27.6,13.4c5.9,2.9,11.9,5.6,17.6,8.7c6,3.2,12.7,4.5,19.2,6.1c0.3,0.4,0.7,0.4,1.1,0.3c1.1,0.3,2.3,0.5,3.4,0.8
		c0.3,0.4,0.7,0.4,1.1,0.3c10.6,2.4,21.3,4.5,32.1,6.3c0.3,0.3,0.7,0.4,1.1,0.2c0.6,0.1,1.3,0.2,1.9,0.3c0.5,0.4,1,0.4,1.6,0.2
		c1.6,0.1,3.3,0.2,4.9,0.3c0.7,0.4,1.4,0.4,2.1,0.2c14.2,2.2,25.8,9,34.5,20.4c0.1,0.5,0.5,1.3,1,1.1c0.9-0.3,0.3-1.2,0.2-1.8
		c-1.5-9.7-7.1-16.9-14.6-22.7c-4.7-3.6-9.8-6.3-15.4-8.4c-8.1-3-14.6-8.2-20.6-14.4c-3.3-3.4-6.1-7.2-8.5-11.3
		c-1-1.7-1.9-3.4-2.4-5.4c-1.6-6.2-5.7-10.5-10.9-14c-5.3-3.5-10.6-6.9-16.3-9.9c-5.7-3-10.7-7.3-16-11
		c-9.4-6.7-18.8-13.5-27.4-21.2c-2.1-1.8-6.8-1.5-9.3,0.6c-1.7,1.5-4.1,2.2-5.2,4.5c-0.3,0.6-1.1,0.4-1.6,0.2
		c-1.2-0.4-0.7-1.5-0.7-2.4c0.4-0.3,0.4-0.7,0.2-1.1c0.1-1.6,0.2-3.3,0.3-4.9c0.3-0.3,0.4-0.7,0.2-1.1c0.6-2.3-0.1-4.1-1.9-5.8
		c-4.9-4.6-9.5-9.3-14.2-14.1c-1.2-1.2-1.7-1.4-2.9,0.3c-5.4,8.1-9.5,16.8-12.5,26c-0.1,0.4-0.2,0.8-0.5,1.2
		c-0.4,0.6-0.8,1.4-1.6,1.4c-0.7-0.1-0.9-0.9-1.1-1.5c-0.8-1.7-1.1-3.5-1.5-5.3c0.1-1.2,0.2-2.4-0.3-3.6c0-0.8,0-1.7,0-2.5
		c0.5-1.3,0.4-2.7,0.2-4.1c0.1-0.5,0.1-1,0.2-1.4c0.5-0.5,0.5-1,0.3-1.6c0.1-0.5,0.1-1,0.2-1.4c0.4-0.3,0.5-0.6,0.3-1.1
		c1-6.2,3.6-11.9,5.8-17.7c0.5-1.5,0.5-2.5-0.5-3.8c-3-4-5.8-8.2-8.8-12.2c-0.8-1.1-0.7-2.4-1.4-3.4c0.1-0.4,0-0.8-0.4-1.1
		c-0.7-5,0.4-6.3,5-6c0.3,0.4,0.7,0.4,1.1,0.2c3,0.8,5.5,2.2,7.4,4.8c2.1,2.9,5.2,4.9,7.2,7.9c0.6,1,1.7,1.2,2.9,1.2
		c2.7-0.2,5.3-0.3,8-0.4c3.3,0.3,6.5,0.3,9.8,0c3,0.1,6,0.3,8.9,0.4c0.5,0.4,1,0.4,1.6,0.2c4.1,0.5,8.3,1,12.3,2.4
		c2.3,0.8,4.3,1.9,5.8,3.8c0,0.6-0.1,1.3-0.1,1.9c-0.4,0.1-0.9,0.3-1.3,0.4c-3.7-0.3-7.4-0.3-11.2,0.1c-2.5,0.1-5,0.3-7.4,0.4
		c-0.7-0.3-1.4-0.3-2.1,0.1c-1,0.1-2,0.2-2.9,0.2c-0.8-0.1-1.8-0.5-2.2,0.8c-2.7-0.1-5.3,1-8,1.1c-0.9,0-1.9,0.6-0.8,2.1
		c2.6,3.5,5,7.2,7.6,10.6c2,2.7,3.7,5.6,5.6,8.4c0.9,1.3,1.9,1.5,3.4,1.3c3.8-0.5,7.8-1.1,11.3,1.2c-0.1,0.4,0.1,0.7,0.4,1
		c0.3,1,0.1,2-0.4,2.9c-0.6,0.2-1.2,0.2-1.9,0c0-1.5,0.3-3.2-2.1-3c-0.7-0.5-1.4-0.5-2.1-0.2c-0.5,0-0.9,0-1.4,0
		c-0.9-0.2-1.8-0.2-2.6,0.2c-0.8,0.1-1.6,0.1-2.5,0.2c-0.7,0-1.4,0-2.1,0c-1.6-0.8-2-2.6-3-3.9c-4.1-5.8-8.1-11.7-12.2-17.5
		c-2-2.8-1.6-4.3,1.7-5.4c5.4-1.9,11.2-2.2,16.8-2.4c5.1-0.2,10.2,0,15.3-0.4c-1.2-1.7-2.8-2.1-4.4-2.5c-5.4-1.5-11-2-16.6-2.2
		c-7.3-0.2-14.6-0.3-21.8,0.3c-1.4,0.1-2.4-0.3-3.3-1.3c-3.2-3.5-6.4-7-9.7-10.4c-1.7-1.7-4.1-2.3-6.4-2.5c-1.5-0.1-1.7,1.1-1.5,2.2
		c0.4,2,1.2,3.8,2.4,5.5c2.8,3.9,5.5,8,8.5,11.7c1.6,2,1.6,3.7,0.5,5.9c-3.6,7.7-6.2,15.7-7,24.3c-0.3,3.2-0.2,6.3,0.6,9.5
		c1-0.4,1-1.4,1.2-2.1c3.1-8.2,7-15.9,11.9-23.2c2-2.9,2.4-2.9,4.9-0.4c5.3,5.3,10.7,10.7,16.1,15.9c1.4,1.4,2.3,2.8,1.7,4.9
		c-0.3,0.3-0.3,0.7-0.1,1c-0.1,1.2-0.1,2.3-0.2,3.5c-0.4,0.6-0.6,1.4-0.1,2c0.3,0.4,0.7,0,0.8-0.4c1.8-1.3,3.7-2.6,5.9-3.2
		c0.4,0.1,0.8,0.1,1.1-0.3c0.5-0.1,1-0.2,1.4-0.2c0.9,0.2,1.8,0.2,2.7,0c0.5,0.1,0.9,0.2,1.4,0.2c0.3,0.4,0.7,0.4,1.1,0.3
		c3.1,2.5,6.4,4.8,9.4,7.5c4.5,3.9,9.6,7.2,14.3,10.8c6.3,4.8,12.9,9.3,19.5,13.9c4.6,3.2,9.7,5.4,14.4,8.4
		c4.3,2.7,7.8,6.2,11.2,9.9c0.3,0.8,0.7,1.5,1.4,2c1.9,3.9,3.1,8,5.4,11.7c3,5,6.8,9.2,10.8,13.2c3.7,3.7,8.2,6.6,13,8.8
		c2.4,1.1,4.9,2.1,7.3,3.1c7.3,3,13.7,7.3,18.8,13.3c2.8,3.3,5.5,6.9,6.9,11.4c1.2,4,1.7,7.8,1.9,11.9c0.1,2.5,2,4.3,3,6.5
		c0,0.1,0.1,0.3,0.1,0.4c0.1-0.1,0.3-0.2,0.4-0.4c1-1,1.1-2.4,1.4-3.7c0.7-2.8,1.2-5.6,1.7-8.4c0.3-0.3,0.4-0.7,0.2-1.1
		c0.1-0.6,0.2-1.3,0.3-1.9c0.5-1,0.5-2,0.4-3c0-0.3,0.1-0.7,0.1-1c0.5-1.5,0.5-3,0.4-4.6c0-0.3,0.1-0.7,0.1-1
		c0.7-6.2,0.7-12.4,0-18.6c-0.1-1.1-0.2-2.3-0.3-3.4c0.2-0.9,0.2-1.8-0.2-2.6c0-0.3-0.1-0.7-0.1-1c0.1-1.2,0.1-2.4-0.4-3.5
		c0-0.3-0.1-0.7-0.1-1c0.1-0.9,0-1.7-0.4-2.5c0-0.3-0.1-0.7-0.1-1c0.2-0.7,0.1-1.4-0.4-2c0-0.3-0.1-0.7-0.1-1c0.2-0.7,0.1-1.4-0.4-2
		c-0.4-2.2-0.8-4.3-1.3-6.5c0.1-0.4,0.1-0.8-0.3-1.1c-2-7.1-3.9-14.3-6.3-21.4c-3.3-9.8-8.5-18.7-13.2-27.8
		c-5.2-10-11.3-19.4-17.9-28.6c-3-4.2-6.1-8.2-9.3-12.2c-0.9-1.1-2.6-1.3-2.7-3c0-0.6-0.3-1-0.8-1.2c-5.5-6.2-11.9-11.3-19-15.5
		c-1.6-1-3.2-2-4.8-3c-2.8-1.7-5.4-1.6-7.9,0.6c-0.8,0.7-1.6,0.8-2.5,0.7c-3.9-0.2-7.9-1.2-11.8,0.7c-0.6,0.3-1.4,0-2.1-0.5
		c-1.7-1.3-3.4-2.5-5.1-3.9c-1.4-1.2-2-2.3-1.8-4.1c0.3-0.9,0.1-1.8-0.4-2.5c-1.3-3.1-4-4.4-6.9-5.4c-4.1-1.3-7.1-3.7-8.8-7.7
		c0-0.7,0-1.4-0.1-2.1c0.1-0.3,0.2-0.6,0.3-0.9c0.4-0.4,0.3-0.7-0.1-1c-0.8-1.8-2-3.2-4-3.6c-0.3-0.4-0.7-0.4-1,0
		c-3.5,1.7-5.4-1.4-7.6-3c-1.8-1.3-3-3.4-4.1-5.5c-1.2-2.5-4.1-3.1-6.4-4.5c-1.6-1-2.8-2-2.8-4c0.2-0.6,0.2-1.1-0.3-1.6
		c-0.4-2.6-2.2-4-4.2-5.3c-4.4-2.7-4.8-7.3-0.8-10.4c2.6-2.1,4.4-4.9,6.6-7.3c0.7-0.7,0.3-1.6,0.4-2.4c0-1.8,0.7-3.4,2.5-3.8
		c4.3-0.9,8.4-2.7,12.8-3.1c6.5-0.6,11.4,2.3,15.5,6.9c1.3,1.5,2.2,1.5,3.6,0.4c2-1.5,4.3-2.6,6.2-4.2c2.7-2.3,4.2-5.4,4.8-9
		c0.4-0.3,0.4-0.7,0.3-1.1c0.3-0.9,0.9-1.4,1.8-1.5c6.1-0.4,12.7,1.5,14.2,9C423.5,79.1,423.5,79.5,423.8,79.9z"/>
	<path fill="#18D726" d="M557.5,459.9c0.8-9.7,1.4-19.8,0.6-29.8c-0.3-4,0.3-8.1-0.9-12.1c-0.4-1.2-0.1-2.4,1.6-2.7
		c9.4-1.7,18.7-3.8,28.2-3.5c5.3,0.2,10,2.1,13.3,6.6c4.4,5.8,4.1,19.2-4.1,24.6c-1.7,1.1-1.7,2.1-0.9,3.7
		c2.7,5.4,5.3,10.9,7.9,16.3c1.2,2.7,0.9,2.7-1.9,3.1c-3.8,0.6-7.6,0-11.4,0.5c-2,0.2-3-0.8-3.5-2.3c-1.5-4.7-3.9-8.9-5.7-13.4
		c-0.7-1.7-3.5-2.4-6.2-1.9c-2.1,0.5-1.5,2.1-1.5,3.4c0.2,4.5,0.5,9,0.9,13.5c0.1,1.2,0.1,2-1.5,2.3c-4.1,0.7-8.1,1.4-12.2,1.9
		c-2.5,0.3-3-0.7-2.9-2.9C557.6,464.9,557.5,462.6,557.5,459.9z M573,431.7C573,431.7,573.1,431.7,573,431.7c0,1.8,0.1,3.5,0,5.3
		c0,1,0.3,1.5,1.4,1.5c2.7,0,5.4,0,7.9-0.8c3.9-1.2,5.6-4,5-8.3c-0.5-3.7-2.6-5.4-6.8-5.5c-1,0-2,0-3,0.1c-4.3,0.5-4.4,0.6-4.6,5
		C573,429.9,573,430.8,573,431.7z"/>
	<path fill="#0373BA" d="M403.6,499.1c-0.4,0-0.8,0-1.3,0c-6.5,0-4.6,0.5-7-5c-1.6-3.7-3.3-7.5-4.8-11.3c-0.9-2.4-5.2-3.8-7.5-2.7
		c-0.8,0.4-0.5,1.2-0.5,1.8c0.3,4.3,0.7,8.6,1,13c0.2,4,0.1,4.2-4,3.8c-3.6-0.3-7.1-1.1-10.7-1.5c-1.5-0.2-2-1-1.9-2.4
		c0.4-3.8,0.1-7.6,0.3-11.4c0.7-11.5,1.1-23,0.2-34.5c0-0.2,0-0.3,0-0.5c-1-7.5-0.8-6,5.5-5.8c4.2,0.2,8.3,0.8,12.5,0.8
		c5.5,0.1,11,0,16.3,1.9c10.1,3.5,11.8,10.7,10.8,19.3c-0.6,4.7-2.9,8.5-6.8,11.2c-1.4,1-1.6,1.9-0.8,3.5c2.8,5.5,5.4,11.2,8.2,16.7
		c0.9,1.8,0.5,2.3-1.5,2.7C409.1,499.3,406.3,499.1,403.6,499.1z M389.4,469.8c4.7,0.1,7.5-1.9,7.9-5.5c0.5-4.9-1.7-7.9-6.6-8.7
		c-1.8-0.3-3.7-0.4-5.5-0.5c-1.6-0.1-2.5,0.7-2.5,2.4c0,1.8-0.1,3.7-0.1,5.5C382.7,469.6,382.8,469.7,389.4,469.8z"/>
	<path fill="#18D726" d="M633.1,444.4c0.5-7.2,0.6-14.4-0.1-21.6c-0.2-2.4-0.3-4.8-0.4-7.2c-0.1-2.2,0.7-2.6,2.5-2.4
		c4.8,0.6,9.5,1.3,14.2,2.6c5.8,1.6,11.7,3,16.8,6.5c10.8,7.4,16,22.2,11.7,33.5c-1.3,3.6-5.5,7.1-10.5,7.1c-5.2,0-9.8-2.1-14.5-3.7
		c-4.3-1.5-4.6-1.3-4.1,3.3c0.2,2.3,0.4,4.6,0.5,7c0,1.3-0.3,1.9-1.7,1.6c-3.6-0.8-7.3-1.5-10.9-2.3c-3.5-0.8-3.5-0.8-3.4-4.5
		C633.2,457.6,633.1,451,633.1,444.4z M663.8,441c0-0.3,0-1.4-0.3-2.3c-1.2-5.8-8.1-10.6-14-10c-1.3,0.1-1.2,1-1.2,1.8
		c-0.1,2.4-0.1,4.8-0.1,7.3c0,8.1,0,8.1,7.9,9.9C661.3,449,663.8,447,663.8,441z"/>
	<path fill="#0373BA" d="M453.1,437.8c2.3,0.2,4.4-0.1,6.5-1.2c3.7-0.4,7.3-1.4,11.1-1.8c13.4-1.6,19.2,7.1,18.5,18.3
		c-0.4,7-2.8,13.3-8,18.3c-4.2,4-9.4,6.2-15.1,6.7c-7.6,0.6-8.4,1.4-7.4,9.1c0.9,6.6,0.7,5.1-5.5,6.4c-2.6,0.6-5.4,0.6-8,1.4
		c-2,0.6-2.3,0-2.3-1.8c0.2-7.8,0.4-15.6,0.5-23.4c0-5.6,0.2-11.3-0.5-16.8c-0.5-3.8,0.5-7.6-0.8-11.3c-0.4-1.3,0.8-1.5,1.8-1.8
		C447,439.2,450,438.5,453.1,437.8z M458.1,458.2C458.1,458.2,458.1,458.2,458.1,458.2c-0.1,0.6-0.1,1.2-0.1,1.8
		c0.1,7.4,0.1,7.4,7.3,5.6c6.4-1.6,9.4-6.5,7.8-13.1c-0.7-3.1-2.5-4.6-5.7-4.6c-2.8,0-5.4,0.9-8.1,1.6c-1,0.3-1.4,1.1-1.4,2.1
		C458.2,453.9,458.1,456.1,458.1,458.2z"/>
	<path fill="#0373BA" d="M350.7,451c0,10.5,0,21.1,0,31.6c0,2.8,0.1,5.7,0.2,8.5c0.1,1.4-0.2,2.2-1.9,1.9c-4.8-0.7-9.3-2.4-13.7-4.3
		c-1.3-0.6-1.5-1.8-1.5-3.1c0.4-6.7,0.7-13.4,1.2-20.1c0.4-6.3,0-12.6-0.6-19c-0.1-1.2-0.9-1.1-1.7-1.4c-3.2-1.1-6.6-1.9-9.7-3.3
		c-1.3-0.6-1.8-0.9-1.3-2.6c0.6-2.5,1.5-5,1.2-7.7c-0.3-2.6,0.7-3.1,3.2-1.8c8.7,4.7,18,8,27.8,9.5c2.2,0.3,4.5,0.4,6.7,0.6
		c1.7,0.1,2.7,0.7,2.4,2.6c-0.6,3.2,0,6.3,0.1,9.4c0.1,1.7-0.4,2.2-2.2,1.7C357.5,452.7,354.1,451.9,350.7,451z"/>
	<path fill="#18D726" d="M553.1,421.9c0.1,1.3-0.3,3.2,0.3,5.1c0.4,1.2,0,2.1-1.4,2.3c-3,0.5-6,1.3-9,1.4c-2.3,0.1-2.5,1-2.5,2.9
		c0.2,12.3,0.3,24.6,0.5,36.9c0,2.2-0.4,3.3-2.7,3.8c-3.8,0.8-7.6,1.9-11.4,2.7c-1.3,0.3-2.7,0.3-2.6-2c0.3-7.6,0-15.2,0.7-22.7
		c0.5-5.2-0.7-10.2-0.1-15.4c0.3-2.3-0.7-2.4-2.7-1.7c-2.9,1.1-6,1.8-9,2.8c-1.2,0.4-1.5,0-1.4-1.1c0.5-3.9,1-7.8,1.5-11.7
		c0.1-1,1-1.2,1.9-1.3c11.8-1.1,23.1-4.4,34.4-7.7c3.3-1,3.3-0.9,3.3,2.5C553.1,419.5,553.1,420.4,553.1,421.9z"/>
	<path fill="#18D726" d="M625.6,419.1c-1.3,15-0.6,29.9-0.2,44.9c0.1,2.3-0.4,3.4-3,3.1c-4.1-0.4-8.3,0.2-12.4-0.6
		c-1.2-0.2-1.7-0.6-1.5-1.7c0.7-6,0.4-12.1,0.9-18.1c0.4-5,0.2-10,0.2-15.1c0-5.9-0.1-11.9-0.4-17.8c-0.1-2.1,0.6-2.8,2.7-2.6
		c3.9,0.3,7.8,0.4,11.7,0.6c1.7,0.1,2.4,0.9,2.3,2.5C625.7,415.9,625.7,417.5,625.6,419.1z"/>
	<path fill="#0373BA" d="M418.9,465.3c0-6.7,0.1-13.4,0-20.1c0-1.7,0.4-2.4,2.2-2.3c3.9,0.1,7.6-0.6,11.4-1.3c2.8-0.5,3-0.4,3,2.4
		c-0.1,9.1-1.1,18.2-0.9,27.3c0.2,7.6,0.2,15.2,0.5,22.9c0,1.6-0.5,2.4-2.1,2.7c-4,1-8.2,1.1-12.2,1.8c-1.8,0.3-2.3-0.9-2.3-2.6
		C418.3,485.8,420,475.6,418.9,465.3z"/>
	<path fill="#323232" d="M222.2,176.6c-0.5-1.1-0.9-2.2-1.4-3.3c0-0.6-0.1-1.2-0.9-1.1c-0.7-2.6-1.5-5.2-2.6-7.7
		c-0.9-2.1-0.3-2.9,2.1-2.8c1.6,0,2.9,0.8,4.1,1.6c3.2,2,5.8,4.7,8.2,7.7c1.4,1.8,2.7,3.2,5.4,3c4.2-0.3,5.9,3.4,8,6
		c1.9,2.4,4.3,4.2,6.4,6.1c3.1,2.8,6.5,5.4,9.8,8c4.5,3.6,9.2,6.8,13.7,10.4c1.7,1.4,3.6,2.7,5,4.6c2.9,3.8,6.7,6.5,10.7,9
		c1.3,0.8,2.5,1.8,3.8,2.4c0.8,0.4,1.7,0.7,1.6,1.8c-0.1,1-0.9,1.5-1.6,1.9c-4.8,2.9-10.1,4.9-15.1,7.5c-7.6,3.9-15.7,6.5-23.2,10.6
		c-1.1,0.6-2.5,0.9-3.7,1.3c-1.5,0.5-2.3-0.2-2.9-1.5c-2.6-6.3-5.4-12.6-7.9-18.9c-2.3-5.9-5-11.6-7.3-17.5
		c-3.5-9-7.5-17.7-11.3-26.6c-0.1-0.3-0.1-0.6-0.2-0.9C223,177.7,222.7,177.1,222.2,176.6z M294.7,222.6c-0.3-0.9-1-1-1.6-1.4
		c-5-3.1-9.9-6.3-13.8-10.8c-1.1-1.2-2-2.6-3.4-3.7c-6.3-4.7-12.7-9.3-18.8-14.3c-6-4.8-12.3-9.3-16.5-16c-0.4-0.7-1.1-0.8-1.7-0.8
		c-4.6,0.2-7.5-2.4-10-5.9c-0.7-0.9-1.6-1.8-2.4-2.6c-1.8-1.7-3.8-3.4-6.2-4.2c-0.6-0.2-1.4-0.4-1.9,0c-0.6,0.6,0,1.2,0.3,1.8
		c10.6,25.2,21.1,50.5,31.6,75.7c0.9,2.2,1.8,2.2,3.7,1.3c8.8-4,17.7-7.9,26.6-11.9C285.4,227.8,290.3,225.5,294.7,222.6z"/>
	<path fill="#323232" d="M226.3,247.7c-5.7,0.4-11.4,0.4-17.1,0c-0.7-0.4-1.4-0.3-2.1-0.2c-0.3-0.2-0.6-0.4-0.9-0.7
		c0-0.5-0.1-1-0.1-1.6c0-2.9,1.7-5.3,2.2-8c0.4-0.3,0.4-0.7,0.3-1.1c1.1-5.1,2.5-10.1,4.2-15c0.4-0.3,0.4-0.6,0.3-1.1
		c1.7-7.8,4.7-15.2,6.3-23c0.4-2.2,1.3-4.2,2-6.4c0.3-0.8,0.3-1.7,1.5-1.7c1.1,0,1.3,0.9,1.6,1.7c2.5,6.7,4.9,13.4,7.4,20.1
		c3.8,10.4,7.6,20.9,11.4,31.3c0.3,0.7,0.4,1.4,0.6,2.2c-0.2,0.3-0.4,0.6-0.6,0.9c-2.8,0.6-5.6,1.1-8.4,1.7c-1-0.1-2.1-0.1-3,0.4
		c-0.5,0.1-1,0.1-1.5,0.2C229,247.3,227.6,247.2,226.3,247.7z M207,246.2c11.6,1.2,22.8,0.5,33.9-1.7c1.5-0.3,1.6-0.9,1.1-2.2
		c-6.2-16.8-12.3-33.6-18.5-50.4c-0.1-0.4-0.1-1.2-1-1.1C217.4,209.3,212.3,227.7,207,246.2z"/>
	<path fill="#B8B8B8" d="M511.5,299.1c0.6,6.2,0.7,12.4,0,18.6c-0.8-0.9-0.4-1.9-0.4-2.9c0-4.5,0-8.9,0-13.4
		C511.1,300.6,510.8,299.8,511.5,299.1z"/>
	<path fill="#B8B8B8" d="M513.9,316.2c0-5.4,0-10.7,0-16.1c0.7,0.2,0.9,0.7,0.9,1.3c0,4.5,0,9,0,13.5
		C514.8,315.5,514.6,316,513.9,316.2z"/>
	<path fill="#B8B8B8" d="M369.6,173.8c3.7-0.4,7.4-0.5,11.2-0.1C377.1,174.6,373.3,174.4,369.6,173.8z"/>
	<path fill="#B8B8B8" d="M353.6,164.5c-3.3,0.3-6.5,0.3-9.8,0C347.1,163.6,350.4,163.7,353.6,164.5z"/>
	<path fill="#B8B8B8" d="M298.2,255.8c2.3-0.6,4.7-0.6,7.1,0C302.9,256.4,300.6,256.4,298.2,255.8z"/>
	<path fill="#B8B8B8" d="M511.4,318.7c0.1,1.5,0.1,3.1-0.4,4.6C510.4,321.7,508.9,320,511.4,318.7z"/>
	<path fill="#B8B8B8" d="M510.5,288.5c0.5,1.1,0.5,2.3,0.4,3.5C509,291.1,509,289.9,510.5,288.5z"/>
	<path fill="#B8B8B8" d="M226.3,247.7c1.3-0.5,2.7-0.4,4.1-0.3C229.1,249,227.7,248.1,226.3,247.7z"/>
	<path fill="#B8B8B8" d="M510.9,324.2c0.1,1,0.1,2.1-0.4,3C509.5,326.1,508.5,324.9,510.9,324.2z"/>
	<path fill="#B8B8B8" d="M316.6,200.5c0.1,1.4,0.2,2.8-0.2,4.1C315.8,203.1,315.5,201.8,316.6,200.5z"/>
	<path fill="#B8B8B8" d="M513.6,320.8c-0.2-1.2-0.3-2.4,0.2-3.6C514.5,318.4,514.7,319.6,513.6,320.8z"/>
	<path fill="#B8B8B8" d="M513.8,299.1c-0.4-1.2-0.4-2.4-0.2-3.6C514.7,296.6,514.5,297.9,513.8,299.1z"/>
	<path fill="#B8B8B8" d="M316.4,207.1c0.5,1.2,0.4,2.4,0.3,3.6C315.6,209.5,315.7,208.3,316.4,207.1z"/>
	<path fill="#B8B8B8" d="M364.1,200.9c0.8-0.4,1.7-0.5,2.6-0.2C365.9,201.9,365.1,202.4,364.1,200.9z"/>
	<path fill="#B8B8B8" d="M510,285c0.4,0.8,0.5,1.6,0.4,2.5C509,286.9,508.6,286.1,510,285z"/>
	<path fill="#B8B8B8" d="M401.8,149.8c0.6,0.8,0.7,1.6,0.4,2.5C401.1,151.6,400.3,150.9,401.8,149.8z"/>
	<path fill="#B8B8B8" d="M231.8,247.2c1-0.5,2-0.4,3-0.4C234,248.4,232.9,247.4,231.8,247.2z"/>
	<path fill="#B8B8B8" d="M359.5,201.2c0.7,0,1.4,0,2.1,0C360.9,202.3,360.2,203.2,359.5,201.2z"/>
	<path fill="#B8B8B8" d="M511,293c0.4,0.8,0.4,1.7,0.2,2.6C510.2,294.8,510.3,294,511,293z"/>
	<path fill="#B8B8B8" d="M366.7,209.4c-0.9,0.2-1.8,0.2-2.7,0C364.9,208.4,365.8,208.4,366.7,209.4z"/>
	<path fill="#B8B8B8" d="M513.3,292.6c-0.5-0.8-0.4-1.7-0.2-2.6C514.1,290.7,514,291.6,513.3,292.6z"/>
	<path fill="#B8B8B8" d="M296.3,234.2c0.5,0.8,0.4,1.7,0.2,2.6C295.5,236,295.6,235.1,296.3,234.2z"/>
	<path fill="#B8B8B8" d="M439.4,262.4c-0.7-0.5-1.2-1.2-1.4-2C439.1,260.6,440.2,260.8,439.4,262.4z"/>
	<path fill="#B8B8B8" d="M368,200.7c0.7-0.3,1.4-0.2,2.1,0.2C369.4,201.4,368.6,202.2,368,200.7z"/>
	<path fill="#B8B8B8" d="M372.2,203.9c0.6,0.2,1.2,0.2,1.9,0c0,0.7-0.4,1-1.1,0.9C372.4,204.9,372.1,204.5,372.2,203.9z"/>
	<path fill="#B8B8B8" d="M465.2,311c-0.7,0.2-1.4,0.2-2.1-0.2C463.9,310.1,464.6,310,465.2,311z"/>
	<path fill="#B8B8B8" d="M207.1,247.4c0.7-0.1,1.4-0.2,2.1,0.2C208.4,248.4,207.7,248.4,207.1,247.4z"/>
	<path fill="#B8B8B8" d="M355.6,213.1c-0.2,0.4-0.5,0.8-0.8,0.4c-0.5-0.6-0.2-1.3,0.1-2C355.1,212.1,355.4,212.6,355.6,213.1z"/>
	<path fill="#B8B8B8" d="M354.9,175.3c0.4-1.2,1.4-0.8,2.2-0.8C356.8,175.9,355.8,175.4,354.9,175.3z"/>
	<path fill="#B8B8B8" d="M509.5,282c0.5,0.6,0.6,1.3,0.4,2C508.4,283.6,508.9,282.8,509.5,282z"/>
	<path fill="#B8B8B8" d="M360,174.3c0.7-0.4,1.4-0.4,2.1-0.1C361.5,174.9,360.8,174.9,360,174.3z"/>
	<path fill="#B8B8B8" d="M296.5,239.7c0.3,0.7,0.2,1.4-0.2,2.1C295.6,241,295.6,240.3,296.5,239.7z"/>
	<path fill="#B8B8B8" d="M223.3,257.8c0.7-0.4,1.4-0.4,2.1-0.1C224.7,258.4,224,258.4,223.3,257.8z"/>
	<path fill="#B8B8B8" d="M382.1,173.3c0-0.6,0.1-1.3,0.1-1.9C383.5,172.1,383.7,172.7,382.1,173.3z"/>
	<path fill="#B8B8B8" d="M386.1,134.6c0,0.7,0,1.4,0.1,2.1C385,136,385,135.3,386.1,134.6z"/>
	<path fill="#B8B8B8" d="M513.1,325.8c-0.2-0.7-0.2-1.4,0.2-2.1C514,324.5,514,325.2,513.1,325.8z"/>
	<path fill="#B8B8B8" d="M435.1,145.8c-0.3,0.6-0.3,1.2,0,1.7c-0.6,0.1-0.9-0.2-1-0.7C434.1,146.2,434.4,145.8,435.1,145.8z"/>
	<path fill="#B8B8B8" d="M509,279c0.5,0.6,0.6,1.3,0.4,2C507.9,280.6,508.4,279.8,509,279z"/>
	<path fill="#B8B8B8" d="M500.8,330.8c0.2,0.6,0.7,1.5-0.2,1.8c-0.5,0.2-0.8-0.6-1-1.1C500.1,331.2,500.5,331,500.8,330.8z"/>
	<path fill="#B8B8B8" d="M458.2,310.4c-0.6,0.2-1.1,0.2-1.6-0.2C457.2,309.6,457.7,309.7,458.2,310.4z"/>
	<path fill="#B8B8B8" d="M360.1,110.5c0.5,0.4,0.5,1,0.3,1.6C359.6,111.7,359.5,111.2,360.1,110.5z"/>
	<path fill="#B8B8B8" d="M364.2,165.1c-0.6,0.2-1.1,0.2-1.6-0.2C363.2,164.3,363.7,164.3,364.2,165.1z"/>
	<path fill="#B8B8B8" d="M222.2,176.6c0.5,0.5,0.8,1,0.6,1.7C221.7,178.1,221.9,177.4,222.2,176.6z"/>
	<path fill="#B8B8B8" d="M206.1,245.2c0,0.5,0.1,1,0.1,1.6C205,246.4,205,245.8,206.1,245.2z"/>
	<path fill="#B8B8B8" d="M238.9,255.8c0.5-0.4,1-0.4,1.6-0.3C240,256.3,239.5,256.4,238.9,255.8z"/>
	<path fill="#B8B8B8" d="M317.1,197.4c0.2,0.6,0.2,1.1-0.3,1.6C316.2,198.4,316.4,197.8,317.1,197.4z"/>
	<path fill="#B8B8B8" d="M305.8,253.6c-0.6,0.2-1.1,0.2-1.6-0.2C304.9,252.8,305.4,252.9,305.8,253.6z"/>
	<path fill="#B8B8B8" d="M512.6,329.3c-0.2-0.6-0.2-1.1,0.2-1.6C513.5,328.4,513.4,328.9,512.6,329.3z"/>
	<path fill="#B8B8B8" d="M210.7,259.3c-0.6-0.2-1.2-0.6-1-1.3c0.1-0.4,0.7-0.3,1-0.1C210.7,258.4,210.7,258.8,210.7,259.3z"/>
	<path fill="#B8B8B8" d="M294.2,228.2c-0.3,0.6-0.7,1.1-1.5,1C292.8,228.3,293.5,228.2,294.2,228.2z"/>
	<path fill="#B8B8B8" d="M362.6,209.6c-0.3,0.4-0.7,0.4-1.1,0.3C361.7,209.3,362,209,362.6,209.6z"/>
	<path fill="#B8B8B8" d="M352.8,208.5c0.2,0.4,0.1,0.8-0.2,1.1C352,209.1,352.2,208.8,352.8,208.5z"/>
	<path fill="#B8B8B8" d="M355.1,208.1c-0.2-0.4-0.2-0.7,0.1-1c0.4,0,0.7,0.1,0.6,0.5C355.8,207.8,355.4,207.9,355.1,208.1z"/>
	<path fill="#B8B8B8" d="M374.5,201c-0.3-0.2-0.6-0.5-0.4-1C374.7,200.2,375.2,200.3,374.5,201z"/>
	<path fill="#B8B8B8" d="M407.6,71.2c0.1,0.4,0.1,0.8-0.3,1.1C406.8,71.8,407.1,71.5,407.6,71.2z"/>
	<path fill="#B8B8B8" d="M417,302.4c-0.4,0.1-0.8,0.1-1.1-0.3C416.4,301.6,416.7,301.8,417,302.4z"/>
	<path fill="#B8B8B8" d="M421.5,303.4c-0.4,0.1-0.8,0.1-1.1-0.3C420.9,302.6,421.2,302.9,421.5,303.4z"/>
	<path fill="#B8B8B8" d="M415.3,304.3c0.4-0.1,0.8-0.1,1.1,0.3C415.8,305.1,415.5,304.8,415.3,304.3z"/>
	<path fill="#B8B8B8" d="M424.3,306.3c0.4-0.1,0.8-0.1,1.1,0.2C424.9,307.1,424.6,306.9,424.3,306.3z"/>
	<path fill="#B8B8B8" d="M235.8,256.3c0.3-0.3,0.7-0.4,1.1-0.2C236.7,256.6,236.3,256.9,235.8,256.3z"/>
	<path fill="#B8B8B8" d="M454.7,309.9c-0.4,0.2-0.8,0.1-1.1-0.2C454,309.2,454.4,309.3,454.7,309.9z"/>
	<path fill="#B8B8B8" d="M317.7,194.9c0.2,0.4,0.1,0.8-0.3,1.1C316.8,195.5,317.1,195.2,317.7,194.9z"/>
	<path fill="#B8B8B8" d="M457.2,177.3c0.5,0.2,0.8,0.6,0.8,1.2C457.2,178.5,456.9,178.1,457.2,177.3z"/>
	<path fill="#B8B8B8" d="M462.6,312.9c0.4-0.2,0.8-0.1,1.1,0.2C463.1,313.7,462.8,313.4,462.6,312.9z"/>
	<path fill="#B8B8B8" d="M219.9,172.2c0.8-0.1,1,0.5,0.9,1.1C220.1,173.3,219.7,173,219.9,172.2z"/>
	<path fill="#B8B8B8" d="M312.3,156.8c0.4,0.3,0.5,0.6,0.4,1.1C312.1,157.6,311.7,157.4,312.3,156.8z"/>
	<path fill="#B8B8B8" d="M318.4,151.1c-0.4,0.1-0.8,0.1-1.1-0.2C317.8,150.2,318.1,150.5,318.4,151.1z"/>
	<path fill="#B8B8B8" d="M386.2,132.6c0.4,0.3,0.6,0.6,0.1,1C385.8,133.4,385.8,133,386.2,132.6z"/>
	<path fill="#B8B8B8" d="M232.8,256.7c0.3-0.3,0.7-0.3,1.1-0.2C233.6,257.2,233.3,257.3,232.8,256.7z"/>
	<path fill="#B8B8B8" d="M510.2,329.2c0.2,0.4,0.1,0.8-0.2,1.1C509.4,329.8,509.6,329.4,510.2,329.2z"/>
	<path fill="#B8B8B8" d="M228.8,257.2c0.3-0.3,0.7-0.3,1.1-0.1C229.6,257.7,229.2,257.8,228.8,257.2z"/>
	<path fill="#B8B8B8" d="M206.7,255.4c-0.3,0.2-0.6,0.3-0.9,0.5C205.8,255.2,206,254.8,206.7,255.4z"/>
	<path fill="#B8B8B8" d="M243.2,245.1c0.2-0.3,0.4-0.6,0.6-0.9C244.4,245.1,244,245.2,243.2,245.1z"/>
	<path fill="#B8B8B8" d="M381.2,129.1c0.3-0.4,0.7-0.4,1,0C381.9,129.5,381.5,129.5,381.2,129.1z"/>
	<path fill="#B8B8B8" d="M460.3,124.7c-0.2-0.4-0.1-0.8,0.2-1.1C461.2,124.1,460.9,124.4,460.3,124.7z"/>
	<path fill="#B8B8B8" d="M423.8,79.9c-0.3-0.3-0.3-0.7-0.2-1.1C424.2,79,424.4,79.4,423.8,79.9z"/>
	<path fill="#B8B8B8" d="M512.8,288c-0.4-0.3-0.4-0.7-0.2-1.1C513.2,287.2,513.5,287.5,512.8,288z"/>
	<path fill="#B8B8B8" d="M208.6,236.2c0.1,0.4,0.1,0.8-0.3,1.1C207.6,236.7,208,236.4,208.6,236.2z"/>
	<path fill="#B8B8B8" d="M507.4,271.4c0.4,0.3,0.4,0.7,0.3,1.1C507.1,272.3,506.8,272,507.4,271.4z"/>
	<path fill="#B8B8B8" d="M251.5,275.1c-0.3,0.3-0.7,0.3-1.1,0.1C250.7,274.6,251,274.5,251.5,275.1z"/>
	<path fill="#B8B8B8" d="M369.2,209.9c-0.4,0.1-0.8,0-1.1-0.3C368.7,209,369,209.3,369.2,209.9z"/>
	<path fill="#B8B8B8" d="M213.1,220.1c0.1,0.4,0.1,0.8-0.3,1.1C212.2,220.6,212.5,220.3,213.1,220.1z"/>
	<path fill="#B8B8B8" d="M512.3,284.5c-0.4-0.3-0.4-0.7-0.2-1.1C512.7,283.7,513,284,512.3,284.5z"/>
	<path fill="#B8B8B8" d="M352.3,214.5c0.2,0.4,0.2,0.8-0.2,1.1C351.5,215.1,351.7,214.8,352.3,214.5z"/>
	<path fill="#B8B8B8" d="M428.9,307.3c0.4-0.1,0.8-0.1,1.1,0.2C429.5,308.1,429.1,307.9,428.9,307.3z"/>
	<path fill="#B8B8B8" d="M506.9,342.4c-0.1,0.1-0.3,0.2-0.4,0.4c0-0.1-0.1-0.3-0.1-0.4C506.6,342.3,506.8,342.4,506.9,342.4z"/>
	<path fill="#FEFEFE" d="M573,431.7c0-0.9,0-1.8,0-2.8c0.2-4.4,0.3-4.5,4.6-5c1-0.1,2-0.1,3-0.1c4.2,0.1,6.3,1.9,6.8,5.5
		c0.6,4.3-1.1,7.1-5,8.3c-2.6,0.8-5.3,0.8-7.9,0.8c-1.1,0-1.4-0.5-1.4-1.5C573.1,435.2,573.1,433.5,573,431.7
		C573.1,431.7,573,431.7,573,431.7z"/>
	<path fill="#FEFEFE" d="M389.4,469.8c-6.6-0.1-6.7-0.3-6.7-6.8c0-1.8,0.1-3.7,0.1-5.5c0-1.7,0.9-2.5,2.5-2.4
		c1.8,0.1,3.7,0.2,5.5,0.5c4.8,0.8,7,3.8,6.6,8.7C396.9,467.9,394.1,469.9,389.4,469.8z"/>
	<path fill="#FEFEFE" d="M663.8,441c0,6-2.5,8-7.7,6.7c-7.8-1.9-7.8-1.9-7.9-9.9c0-2.4,0-4.9,0.1-7.3c0-0.8-0.1-1.6,1.2-1.8
		c5.9-0.7,12.7,4.2,14,10C663.7,439.7,663.8,440.7,663.8,441z"/>
	<path fill="#FEFEFE" d="M458.1,458.2c0-2.2,0-4.4,0-6.5c0-1,0.3-1.8,1.4-2.1c2.7-0.7,5.3-1.6,8.1-1.6c3.1,0,5,1.5,5.7,4.6
		c1.5,6.6-1.4,11.6-7.8,13.1c-7.2,1.8-7.2,1.8-7.3-5.6C458.1,459.4,458.1,458.8,458.1,458.2C458.1,458.2,458.1,458.2,458.1,458.2z"
		/>
	<path fill="#B8B8B8" d="M294.7,222.6c-4.4,3-9.3,5.2-14.2,7.4c-8.8,4-17.7,7.9-26.6,11.9c-1.9,0.9-2.8,0.8-3.7-1.3
		c-10.5-25.3-21.1-50.5-31.6-75.7c-0.2-0.6-0.9-1.2-0.3-1.8c0.5-0.5,1.3-0.2,1.9,0c2.4,0.9,4.3,2.5,6.2,4.2c0.9,0.8,1.7,1.6,2.4,2.6
		c2.5,3.5,5.4,6.1,10,5.9c0.6,0,1.3,0,1.7,0.8c4.1,6.7,10.5,11.2,16.5,16c6.1,5,12.5,9.6,18.8,14.3c1.4,1,2.3,2.4,3.4,3.7
		c3.9,4.5,8.9,7.6,13.8,10.8C293.7,221.5,294.4,221.7,294.7,222.6z"/>
	<path fill="#00B1F6" d="M207,246.2c5.2-18.6,10.4-37,15.6-55.4c1-0.1,0.9,0.7,1,1.1c6.2,16.8,12.3,33.6,18.5,50.4
		c0.5,1.3,0.4,1.9-1.1,2.2C229.8,246.7,218.6,247.5,207,246.2z"/>
</g>
</svg>
