<?xml version="1.0" encoding="utf-8"?>
<!-- Generator: Adobe Illustrator 18.0.0, SVG Export Plug-In . SVG Version: 6.00 Build 0)  -->
<!DOCTYPE svg PUBLIC "-//W3C//DTD SVG 1.1//EN" "http://www.w3.org/Graphics/SVG/1.1/DTD/svg11.dtd">
<svg version="1.1" id="Layer_1" xmlns="http://www.w3.org/2000/svg" xmlns:xlink="http://www.w3.org/1999/xlink" x="0px" y="0px"
	 viewBox="0 0 640 480" enable-background="new 0 0 640 480" xml:space="preserve">
<g>
	<path fill="#F98282" d="M311.5,89.2c-1.5,2.7-2.9,5.4-4.3,8.2c-1.6,0.2-3.5-0.1-4.8,1c-2.7,2.5-5.7,2.3-9,1.8
		c-1.6-0.2-3.4-0.3-4.9,0.2c-4.5,1.5-6.7-1.9-9.6-3.9c-0.6-0.4-0.6-1.2-0.6-1.7c-0.2-6.4-3.9-9.9-9.7-11.6c-2.5-0.8-4.5-2-6.3-3.8
		c-1.2-1.1-2-2.3-1.7-4.2c0.8-5-3.5-9.4-8.5-8.7c-0.9,0.1-1.8,0.6-2.6-0.1c-2.5-1.9-5.3-4-6.4-7.1c-0.8-2-1.9-3.2-3.7-4.3
		c-1.5-0.8-2.8-1.8-4.3-2.5c-1.7-0.8-2.7-1.9-2.9-3.9c-0.6-3.7-2.5-6.4-5.9-8.2c-3.3-1.7-3.7-4.3-0.9-6.8c2.9-2.7,5.3-5.8,8-8.8
		c1-1.2,1.8-2.2,1.3-4c-0.4-1.4,0.4-2.6,1.6-2.7c4.5-0.4,8.4-2.7,12.9-3c6-0.4,13.2,3.6,15.6,8.9c0.8,1.7,1.7,1.9,3.2,1
		c2.9-2,5.8-4.3,8.8-6.1c2.4-1.5,4.1-3.4,5.1-5.9c0.8-1.7,1.3-3.7,1.8-5.5c0.2-0.7,0.4-1.4,1.3-1.6c5.5-1.6,12.4,4.2,11.8,10.1
		c-0.1,1.1-0.4,1.6-1.6,1.3c-8.7-1.7-14,4.3-19.6,9.1c-1.5,1.3-1.9,3-1,5c1.8,3.9,5.2,4.9,8.8,2.1c2.8-2,5.8-3.6,9.1-4.4
		c2.4-0.6,4.1,0.3,5,2.7c0.8,2,0.5,4-0.4,5.8c-1.1,2.1-2.5,4.1-4.2,5.8c-0.7,0.7-1.5,1.4-1,2.4c0.9,1.9,1.6,4.1,3.3,5.3
		c1.6,1.2,2.8-0.7,4.3-1.1c1.2-0.4,2.2-0.8,3.4-1.2c1.3-0.4,1.6-1.3,1.5-2.5c-0.2-1.5-2.1-3.1-0.6-4.2c1-0.8,3-0.3,4.6-0.2
		c2.7,0.1,5.3,0.2,8.1,0.3c0.7,0,1.6,0.1,2.1,0.4c6.3,4.1,12.5,8.2,17.2,14.2c2.8,3.5,1.3,12.9-2.5,15.3c-2,1.4-3.8,3-5.5,4.5
		c-4.7,3.9-9.2,8-15,10.1C311.7,87.4,311.3,88.1,311.5,89.2z"/>
	<path fill="#2C2C2C" d="M390.9,304.2c0.3-0.4,0.5-0.8,0.8-1.1c0.9,0.2,1.8,0.4,2.7,0.7c1.2,1.2,1.6,2.6,1.2,4.1
		c-1.7,5.5-2.7,11.4-6.7,16.1c-3.2,3.9-7.4,6-11.6,8.1c-3.1,1.5-4.4,3.5-2.9,6.6c1.5,3,2,6.2,2.9,9.4c0.6,2,1.7,3.1,4,3.5
		c12.5,2.3,24.2,7.2,34.9,13.9c4.5,2.8,8.6,5.9,13,8.8c2.9,1.8,4.2,1.6,5.8-1.3c0.9-1.6,2.1-2.3,3.6-1.8c1.7,0.6,1,2.3,0.7,3.6
		c-0.6,2.5-1.6,4.9-3.3,6.9c-2.1,2.3-4.2,2.6-6.8,1c-1.6-1-3.2-1.8-4.7-2.9c-7.8-5.2-16.7-7-25.5-8.8c-5.3-1.2-10.6-2-16.1-1.3
		c-4.3,0.7-7.9,2.2-10.5,5.8c-2.6,3.7-4.9,7.4-6.4,11.8c-1.6,5.2-5.2,9-10.3,11.4c-2.7,1.3-5.4,2.1-8.3,2.8
		c-1.6,0.4-3.2,0.5-4.9-0.3c-1.8-0.9-3.1-0.6-2.9,1.8c0.1,1.7-0.5,3.3-1.3,4.8c-1.7,1.4-3.8,1.4-5.8,1.2c-0.9-0.8-0.9-1.7-0.6-2.8
		c0.8-3.2,1.6-6.4,2-9.7c0.3-1.8,1.2-2.5,2.6-2.3c3,0.4,5.5-0.5,8.2-1.7c0.7-0.3,1.5-0.4,2.1-0.6c1.4-0.4,3.3,0.9,4.2-0.4
		c1.4-2.1,2.4-4.6,2.5-7.2c0.1-1.1-0.1-2.2-0.1-3.3c-0.1-3.6-0.5-7.1,1-10.6c0.9-2,0.6-4.6,0.5-6.9c-0.1-2-0.6-4.3,0.9-6.1
		c0.5-0.7,0-1.5-0.2-2.1c-2.1-7.7-4.4-15.2-6.4-22.8c-0.5-1.7-1.5-2.3-3-2.6c-3.4-0.5-6.1,0.9-8.3,3.4c-4.3,5-8.5,10.2-12.8,15.2
		c-0.4,0.5-0.9,1-1.3,1.5c-0.4,0.5-0.9,1.1-1.6,0.8c-0.8-0.4-0.8-1.2-0.7-1.9c0.1-0.5,0.2-0.9,0.4-1.4c2.6-6,4.9-12.2,8.9-17.4
		c2.8-3.5,6.1-6.5,10.3-8.2c4.9-2,9.5-4.4,14.7-5.5c1.4-0.3,2.1-1.3,2.3-2.4c0.3-1.5-1.2-1-1.9-1.4c-4.6-2.3-6.5-10.7-3.2-14.7
		c1.9-2.3,5-2.5,8-2.3c2.4,0.2,4.5,1.5,5.3,3.8c1,2.8,1.6,5.7,1.6,8.6c0,1.6-0.6,3-1.7,4.2c-1.9,2.1-1.4,4,1.3,4.9
		c1.9,0.7,3.9,1.4,5,3.2c0.6,1,1.4,0.8,2.1,0.6c1.7-0.4,3.4-1,5.1-1.2c6.4-0.9,8-6.1,9.8-11c0.2-0.6-0.1-1.5-0.2-2.1
		C390.6,306.4,390.8,305.3,390.9,304.2z"/>
	<path fill="#8C5DF6" d="M75,104.9c3,0.4,5.5,2.7,8.1,5c1.6,1.4,3,2.8,4.1,4.5c1.9,2.8,4.4,4.4,7.8,4.3c2.3,0,3.7,1.2,4.9,3.2
		c2.7,4.5,7,7.6,10.9,11c8.6,7.4,17.7,14.2,26.9,20.8c1.6,1.2,2.6,2.8,3.9,4.3c4.4,4.8,9.6,8.2,15,11.6c2.9,1.8,3,2.6,0,4.3
		c-10.2,5.9-21,10.3-31.6,15.1c-4.2,1.9-8.4,3.7-12.6,5.5c-3.2,1.5-3.6,1.3-4.9-1.9c-8.1-19.2-16.1-38.4-24.2-57.6
		c-3.7-8.9-7.5-17.9-11.3-26.8C71,105.7,71.7,104.8,75,104.9z"/>
	<path fill="#302F2A" d="M390.9,304.2c-0.2,1.2-0.4,2.2-1.8,2.3c-3.7-7.1-7.8-13.9-13.4-19.5c-10.1-10.1-22.3-15.2-36.6-16
		c-8.1-0.4-15.8-2.5-23.7-4c-10.3-1.8-20.4-4.3-30.6-6.6c-11.7-2.6-22.1-8.5-32.9-13.7c-16.9-8.2-33.7-16.4-50.5-24.7
		c-7-3.5-13.4-8.2-20.9-10.8c-6.4-2.2-12.9-3.9-19.8-2.9c-2,0.3-3.9,1.1-5.6,2.2c-8.2,5.2-16.5,10.1-25,14.8
		c-23.4,12.8-47,7.3-65-9.2c-1.7-1.6-3.4-3.4-5.1-5c-0.6-0.6-1.3-1.2-0.9-2.1c0.4-0.9,1.3-0.9,2.1-0.8c35.7,1.8,67.7-8.2,95.9-30.5
		c0.8-0.6,1.5-1.6,2.6-1.2c1.4,0.5,1.1,1.8,1.2,2.8c0.8,5.9,1.1,11.7-0.1,17.7c-0.4,2.1-0.9,4.4-3.2,5.5c-0.7-2.5,1-4.7,1.3-7
		c0.9-5.7,1.5-11.5-0.2-17.5c-0.6,0.5-1,0.7-1.3,1c-16.6,14.1-35.7,23-56.8,27.8c-11.8,2.6-23.9,3.7-35.9,3.3c-0.7,0-1.6-0.5-2,0.4
		c-0.4,0.9,0.6,1.3,1.1,1.7c3.4,3.6,7.2,6.7,11.3,9.4c11.7,7.9,24.5,11.2,38.5,7.8c9.6-2.3,18.3-6.7,26.8-11.6
		c5.9-3.5,11.8-7.1,17.4-11.2c11.5-2.4,21.9,0.8,31.6,6.1c25.6,14.2,52.3,26.1,78.4,39.3c10,5,21,7.1,31.7,9.5
		c11.6,2.7,23.5,4.9,35.3,6.8c6,1,12.1,0.9,18.1,2.6c11.7,3.4,21.3,10,28.9,19.4c0.7,0.9,1.2,1.8,2.5,2.5c0.1-3.5-0.9-6.5-2-9.4
		c-4-9.9-11.3-16.7-20.3-21.9c-3.3-1.9-6.7-3.5-10.2-4.9c-15.5-6.2-27.6-16.6-34-32c-4.3-10.4-11.4-17.4-20.6-22.5
		c-18.9-10.5-35.9-23.6-52.9-36.8c-1.1-0.9-2.1-1.7-3.2-2.7c-4.1-3.6-8.4-4-13-1.1c-1.8,1.2-3.4,2.5-4.8,4.2
		c-0.6,0.8-1.2,1.6-2.3,1.1c-1.1-0.5-0.9-1.5-0.8-2.4c0.3-3,0.6-6,1-9.1c0.3-1.9-0.2-3.5-1.7-4.9c-5.2-4.9-10.3-10.1-15.3-15.2
		c-2.6-2.6-2.7-2.6-4.8,0.6c-5.4,8.5-9.7,17.6-12.9,27.2c-0.4,1.1-0.3,2.7-1.8,2.7c-1.6,0.1-1.8-1.6-2.2-2.7
		c-2.3-8-1.4-15.9,0.5-23.8c1.4-5.6,3.2-11.2,5.8-16.4c1.2-2.3,0.9-4-0.7-5.9c-3-3.9-5.9-8.1-8.7-12.1c-1.6-2.3-2.9-4.9-3-7.9
		c-0.1-2.8,1.5-4.5,4.3-4.2c3.6,0.3,7.1,1.3,9.6,4.2c2.9,3.2,5.9,6.3,8.8,9.6c1.2,1.4,2.4,1.9,4.3,1.8c11-0.7,21.9-0.7,32.9,0.6
		c3.9,0.5,7.7,1.1,11.4,2.4c0.9,0.3,1.7,0.6,2.5,1.1c1.6,1.1,4.2,2,3.6,4.3c-0.6,2.1-3,1.1-4.7,1.1c-10,0.2-19.9,0.3-29.8,1.9
		c-6.8,1.1-6.9,1.4-3,6.8c4,5.6,8,11.4,11.8,17.1c1.2,1.7,2.3,2.4,4.6,2c2.4-0.4,4.9-0.3,7.5-0.3c1.5,0,2.9,0.5,4.1,1.5
		c1.1,0.9,1.4,1.9,1.1,3.2c-0.3,1.3-1.1,1.8-2.4,1.6c-0.3-3.7-0.4-3.9-4.3-4c-2.4-0.1-4.9,0.1-7.2,0.5c-2,0.3-3.2-0.2-4.4-1.9
		c-5-7.4-10.2-14.8-15.2-22.1c-1.7-2.5-1.4-3.9,1.5-5.1c1.5-0.6,2.9-1.1,4.5-1.4c5.7-1.2,11.5-1.6,17.3-1.7c4.9-0.2,9.6-0.4,15-0.6
		c-2.9-2-5.7-2.7-8.4-3.2c-12.7-2.4-25.5-2-38.3-1.5c-2.3,0.1-4-0.4-5.5-2.2c-2.9-3.3-6-6.5-8.9-9.8c-1.9-2.2-4.6-3-7.3-3.6
		c-1.9-0.4-2.8,0.6-2.4,2.5c0.4,2.2,1.3,4.2,2.6,6c3.1,4.4,6.1,8.8,9.4,13c1.6,2.1,1.7,3.9,0.6,6.2c-4,8.5-6.9,17.5-7.8,27
		c-0.3,3.5-0.3,7,0.9,11c0.6-1.4,0.9-2.2,1.3-3c3.5-9.2,8-17.9,13.5-26c1.3-1.8,2.3-2.7,4.4-0.7c6.2,6.3,12.5,12.5,18.8,18.7
		c1.3,1.3,1.7,2.6,1.5,4.5c-0.4,2.4-0.4,4.9-0.6,8c5.2-4.4,10.5-6.2,16.6-4.2c15.2,13.5,31.8,25.1,48.8,36.3
		c6.8,4.5,14.5,7.9,20.7,13.3c4.6,4,7.6,8.6,9.9,14.3c6.8,15.8,18.5,26.7,34.6,33c13.2,5.2,24.3,13.2,30.4,26.7
		c1.7,3.9,3,8.1,2.7,12.3C386.9,298.1,388.9,301.1,390.9,304.2z"/>
	<path fill="#18D726" d="M447.7,416.6c0-9.5,0-19.5-0.9-29.6c-0.2-1.8,0.4-2.7,2.2-3c9-1.8,18.1-3.4,27.4-3.9
		c4.9-0.3,9.5,0.7,13.7,3.4c3.9,2.6,6.1,6.3,6.8,11c1.1,8.2-0.6,15.4-7.8,20.6c-1.4,1-1.3,1.9-0.6,3.3c3,6.2,6,12.4,8.8,18.7
		c1.3,2.7,1.1,2.9-1.9,3c-4.4,0.2-8.6,0.3-13,0.6c-1.7,0.1-2.6-0.6-3.3-2.2c-2.1-5-4.3-10-6.5-14.9c-1.1-2.4-6.1-3.5-8.1-1.8
		c-0.8,0.7-0.6,1.7-0.6,2.6c0.3,4.9,0.6,9.9,1.1,14.9c0.2,2.1-0.2,3.2-2.6,3.5c-4.2,0.5-8.3,1.2-12.6,1.8c-2.3,0.4-3.3-0.3-3.2-2.9
		C447,433.4,447.3,425.3,447.7,416.6z M467,409.6c3.2-0.1,5.4-0.2,7.7-1.1c4.1-1.6,5.7-4.6,4.9-9.2c-0.6-3.8-2.8-5.5-7.2-5.8
		c-2.1-0.1-4.3,0.2-6.3,0.6c-1.5,0.3-2.2,1.1-2.2,2.6c0,3-0.2,6.1-0.1,9.1C463.9,410.1,463,409.6,467,409.6z"/>
	<path fill="#0373BA" d="M238.1,447.7c0.1-12.5,0-22.1-0.9-31.6c-0.1-1.3-0.1-2.3,1.6-2.2c11.3,1.3,22.7,0.4,33.9,2.5
		c7.2,1.4,13,5.1,14.5,13c1.5,8.2,0.2,15.9-7.1,21.3c-1.7,1.3-1.6,2.4-0.8,4.2c2.9,5.9,5.7,11.9,8.6,17.9c1.1,2.1,0.8,3.2-1.8,3.3
		c-4.2,0.1-8.2,0.6-12.4,0.5c-2.2-0.1-3.4-0.9-4.3-3c-1.9-5.1-4.2-10.2-6.3-15.3c-1-2.3-5.6-4.1-7.8-3c-1.2,0.6-0.9,1.7-0.9,2.7
		c0.3,4.8,0.7,9.5,1,14.4c0.2,3.8,0.1,3.8-3.7,3.5c-3.8-0.2-7.5-0.7-11.3-1.3c-2.4-0.4-3.5-1.4-3.4-4
		C237.5,461.8,237.8,453.3,238.1,447.7z M254.2,435.9c-0.1,8,1,8.9,9,8.2c5.2-0.6,7.4-3.1,7-8.2c-0.3-3.5-2-5.8-5.4-6.9
		c-2-0.7-4.2-0.8-6.3-1c-3.8-0.3-4.3,0.2-4.4,4.1C254.2,433.3,254.2,434.7,254.2,435.9z"/>
	<path fill="#18D626" d="M530,413.6c0.7-9.6,0.4-19.2-0.5-28.7c-0.2-2.4,0.2-3.4,2.8-3.1c10,1.3,19.9,3.2,29.1,7.2
		c13.9,6.1,22,22.2,18.8,36.8c-1.6,7.6-7.1,11.4-14.8,10.6c-5.2-0.6-9.9-2.8-14.8-4.3c-3.4-1-3.7-0.8-3.6,2.7c0.1,3,0.3,6.1,0.5,9.1
		c0.1,1.6-0.4,1.9-1.9,1.6c-4.6-1.1-9.1-2-13.8-2.9c-1.7-0.4-2.1-1.3-2.1-2.9C530,431,530,422.2,530,413.6z M546.8,408L546.8,408
		c0.1,2.5,0.1,4.9,0.1,7.5c0,1,0.3,1.8,1.4,2.1c3,1,5.9,2.1,9,2.4c4.2,0.4,6.2-1.4,6.6-5.5c0.7-9.1-5.9-15.9-15.3-15.6
		c-1.3,0-1.6,0.6-1.6,1.6C546.8,403,546.8,405.6,546.8,408z"/>
	<path fill="#0373BA" d="M332.3,408.9c2,0.2,4.1,0.1,5.8-1.2c4-0.7,8-1.6,11.9-2c14.6-1.8,22.9,6.6,21.3,21.3
		c-1.7,15.5-10.9,24.5-26.4,26.5c-8.2,1.1-7.5-0.3-7.1,8.4c0.5,9.1,1.5,6.9-6.8,8.5c-2.7,0.6-5.4,0.8-8.2,1.3
		c-2,0.4-2.5-0.4-2.4-2.3c0.2-10.7,0.5-21.3,0.5-32.1c0-7.7-0.5-15.3-1-22.9c-0.1-2.1,0.6-3,2.6-3.3
		C325.8,410.4,329,409.6,332.3,408.9z M337.2,431.2c0.4,3.1-1.5,7.6,0.8,8.9c2.7,1.7,6.8-0.1,10-1.5c5.6-2.3,8.2-10.5,5.1-15.7
		c-1.2-2-3-2.8-5.3-2.9c-2.3-0.1-4.6,0.8-6.8,1.2c-2.8,0.4-4.3,1.7-3.9,4.8C337.4,427.7,337.2,429.4,337.2,431.2z"/>
	<path fill="#B1964E" d="M157.8,206.6c-5.5,4.1-11.5,7.7-17.4,11.2c-8.4,4.9-17.2,9.3-26.8,11.6c-14.1,3.4-26.8,0.1-38.5-7.8
		c-4.1-2.7-7.9-5.8-11.3-9.4c-0.5-0.5-1.5-0.9-1.1-1.7c0.4-0.8,1.4-0.4,2-0.4c12.1,0.4,24.1-0.7,35.9-3.3
		c21.2-4.8,40.2-13.7,56.8-27.8c0.3-0.3,0.7-0.5,1.3-1c1.6,6,1.1,11.6,0.2,17.5c-0.4,2.3-2,4.5-1.3,7
		C157.8,203.9,157.8,205.3,157.8,206.6z"/>
	<path fill="#2E2A2A" d="M394.5,303.8c-0.9-0.2-1.8-0.4-2.7-0.7c0.1-0.4,0.2-0.7,0.3-1.1c1.3-2.4,1.8-4.9,1.8-7.7
		c0.1-0.4,0.2-0.8,0.2-1.2c1-0.6,0.8-1.4,0.4-2.1c0.1-0.4,0.1-0.8,0.2-1.2c1.1-0.7,0.6-1.7,0.5-2.6c-0.3-0.6-0.2-1.2,0.1-1.7
		c0.9-0.8,0.5-1.7,0.5-2.6c-0.3-0.8-0.2-1.6,0.1-2.3c1.2-1.4,0.4-2.8,0.5-4.3c-0.3-1.7-0.1-3.4,0.1-5.1c0.9-3.1,0.9-6.3,0-9.4
		c-0.2-1.7-0.3-3.4-0.1-5.1c-0.1-1.6,0.7-3.3-0.5-4.9c-0.3-0.8-0.4-1.6-0.1-2.3c0-1.1,0.6-2.2-0.5-3.2c-0.3-0.6-0.4-1.2-0.1-1.7
		c0-0.9,0.6-1.9-0.5-2.6c-0.4-0.7-0.4-1.5-0.3-2.3c0.5-0.7,0.5-1.2-0.3-1.6c-0.1-0.4-0.2-0.8-0.3-1.2c0.5-0.8,0.6-1.6-0.3-2.1
		c-0.1-0.4-0.2-0.8-0.3-1.2c0.6-2.4-0.5-4.5-1.4-6.6c-0.1-0.2-0.2-0.3-0.2-0.5c0-0.1,0.1-0.2,0.1-0.3c0.1-0.6,0.1-1.1-0.4-1.5
		c0-0.3-0.1-0.5-0.1-0.8c-0.9-6.5-2.9-12.6-5.4-18.6c-0.1-0.2-0.2-0.3-0.3-0.5c0-0.1,0.1-0.2,0.1-0.3c-0.5-3.7-2-7.1-3.8-10.4
		c-0.2-0.5-0.4-1-0.6-1.4c0-1.1-0.2-1.9-1.2-2.5c-1.3-2.5-2.5-5.1-3.8-7.7c0-0.5,0-1-0.6-1.2c-0.8-1-1.3-2-1.6-3.2
		c0-1-0.3-1.8-1.3-2.3c-1.1-1.6-2-3.1-2.6-4.9c-0.1-1-0.3-1.8-1.3-2.3c-0.5-0.5-0.8-1-0.9-1.6c0-0.5-0.1-1-0.7-1.2
		c-0.8-0.8-1.3-1.6-1.6-2.7c-0.1-1-0.3-1.9-1.4-2.3c-0.5-0.4-0.8-0.9-0.9-1.6c0.1-0.6-0.1-1.1-0.8-1.3c-1.9-3.1-3.9-6.2-5.9-9.3
		c0-0.6-0.1-1.1-0.8-1.3c-0.1-0.2-0.2-0.3-0.3-0.5c0-0.6-0.2-1.1-0.9-1.2c-1.6-1.9-3-3.9-4.2-6c0-0.6-0.2-1.1-0.9-1.2
		c-1-1-1.8-2-2.4-3.3c0-0.6-0.2-1.1-0.9-1.2c-1.9-2.4-3.9-4.9-5.7-7.2c0-0.6-0.3-1-1-1.1c-1.2-1-2.1-2-2.9-3.4c0-0.7-0.4-1.1-1-1.1
		c-1.8-1.8-3.8-3.8-5.6-5.6c-0.1-0.6-0.4-1-1.1-1c-2-1.7-4.1-3.5-6.2-5.2c-0.1-0.7-0.5-0.9-1.1-0.9c-1.8-1.3-3.7-2.4-5.5-3.7
		c-0.5-1-1.4-1.2-2.3-1.3c-0.7,0-1.2-0.4-1.6-0.9c-0.1-0.7-0.6-0.9-1.2-0.9c-0.8-0.5-1.5-1-2.2-1.5c-0.7-1.1-1.6-1.3-2.7-1
		c-0.6,0-1.2,0-1.8,0c-0.5-0.4-0.8-0.2-1.1,0.3c-0.4,0.2-0.7,0.4-1.1,0.6c-1.3,0.1-2,0.8-2.3,2c-0.7,0.7-1.4,0.8-2.2,0.3
		c-1.6-1.3-3.3-0.8-4.9-0.3c-1.4,0-2.6,0-4,0c-1-0.5-1.9-0.9-2.7,0.3c-0.7,0.5-1.4,0.8-2.1,0.5c-0.3-0.5-0.7-0.6-1.3-0.6
		c-1.6-0.8-3-1.8-4.4-3.1c-0.1-0.7-0.6-0.8-1.2-0.8c-0.7-0.2-1.3-0.6-1.6-1.3c-0.3-1.6,0.7-3.4-0.7-4.9c-0.6-1.7-1.5-3.3-2.7-4.7
		c-0.1-0.6-0.5-0.9-1.1-0.9c-1-0.5-1.8-1-2.8-1.6c-0.3-0.8-0.9-0.7-1.6-0.5c-3.4-0.5-5.8-2.6-7.9-5.1c0-0.6-0.2-1-0.8-1.1
		c-0.1-0.3-0.3-0.6-0.4-0.8c0.1-0.6,0.1-1.1-0.5-1.4c0-0.4,0-0.8,0-1.1c0.7-0.5,0.6-1.2,0.5-1.9c-1.2-2.7-2.7-5-6.1-5
		c-1.2,0.1-2.3,0.2-3.5,0.4c-3.4-2.2-6.5-4.7-8.2-8.5c0.1-1.3,0-2.3-1.5-2.6c-0.8-0.5-1.5-1-2.2-1.4c-0.2-0.7-0.6-0.8-1.3-0.8
		c-1-0.3-1.8-0.8-2.6-1.5c-0.4-1.1-1.4-1.2-2.3-1.3c-0.2-0.2-0.3-0.4-0.5-0.5c-0.1-1,0.4-2-0.6-2.8c-0.8-2.5-1.7-4.9-3.9-6.5
		c-0.5-1-1.4-1.2-2.2-1.3c-0.8-0.3-1.4-0.8-1.6-1.6c-0.7-2.1-0.7-4.2,0-6.3c0.1-0.1,0.2-0.3,0.3-0.4c0.7-0.1,0.9-0.5,0.9-1.1
		c0.2-0.6,0.6-1,1.2-1.2c0.6,0,1-0.3,1.1-0.9c1.5-1.7,2.8-3.4,4.3-5.1c1.5-1.6,2.7-3.1,2.4-5.5c-0.2-1.6,1-3.2,2.6-3.5
		c4.7-1,9.1-2.9,14-3.3c7.3-0.6,12.6,2.8,17.1,8c1.4,1.6,2,1.5,3.5,0.4c2.3-1.7,4.9-3.3,7.3-5c3.1-2.2,4.2-5.6,4.8-9.1
		c0.6-3,2-3.8,4.9-3.7c8.6,0.4,13.7,5.4,13.4,13.5c-0.1,2.2-0.8,3.3-3.2,2.8c-8.2-1.9-13.2,3.4-18.5,8.1c-1.4,1.2-1,2.6,0.1,3.9
		c1.1,1.3,2.4,1.4,3.7,0.3c2.7-2.1,5.7-3.8,9-4.8c2.7-0.8,5.6-1.4,7.8,1c2.3,2.5,3.3,5.6,1.8,8.9c-1,2.2-0.7,2.5,1.9,2.4
		c5.3-0.2,10.7,0.2,16,0.5c0.8,0,1.6,0.4,2.3,0.9c5.7,3.8,11.3,7.8,16,12.7c5.7,6,4.2,16.8-2.6,21.4c-3.8,2.6-7.1,5.8-10.7,8.7
		c-2.3,1.8-4.8,3.5-7.5,4.7c-1.3,0.6-2.5,1.2-4,0.6c-0.2-1.1,0.2-1.6,1.3-2c5.8-2.1,10.4-6.2,15-10.1c1.8-1.6,3.5-3.2,5.5-4.5
		c3.8-2.5,5.3-11.8,2.5-15.3c-4.8-5.9-10.9-10.2-17.2-14.2c-0.6-0.4-1.5-0.4-2.1-0.4c-2.7-0.1-5.3-0.2-8.1-0.3
		c-1.6,0-3.6-0.6-4.6,0.2c-1.5,1.1,0.4,2.7,0.6,4.2c0.2,1.4-0.2,2.1-1.5,2.5c-1.2,0.4-2.2,0.8-3.4,1.2c-1.5,0.4-2.8,2.2-4.3,1.1
		c-1.6-1.3-2.4-3.4-3.3-5.3c-0.5-1.1,0.4-1.7,1-2.4c1.6-1.7,3.1-3.7,4.2-5.8c1-1.8,1.3-3.8,0.4-5.8c-0.9-2.4-2.6-3.3-5-2.7
		c-3.4,0.8-6.4,2.3-9.1,4.4c-3.6,2.7-7,1.7-8.8-2.1c-1-2-0.5-3.8,1-5c5.6-4.9,10.9-10.9,19.6-9.1c1.1,0.2,1.5-0.2,1.6-1.3
		c0.6-5.8-6.3-11.6-11.8-10.1c-0.9,0.3-1.1,0.9-1.3,1.6c-0.6,1.8-1.2,3.7-1.8,5.5c-1.1,2.5-2.7,4.5-5.1,5.9c-3,1.8-5.9,4.1-8.8,6.1
		c-1.5,1-2.4,0.8-3.2-1c-2.5-5.4-9.6-9.3-15.6-8.9c-4.5,0.3-8.4,2.6-12.9,3c-1.3,0.1-2,1.4-1.6,2.7c0.5,1.7-0.3,2.8-1.3,4
		c-2.6,3-5,6.1-8,8.8c-2.8,2.5-2.4,5.1,0.9,6.8c3.4,1.7,5.3,4.5,5.9,8.2c0.3,1.9,1.3,3.1,2.9,3.9c1.5,0.7,2.8,1.6,4.3,2.5
		c1.7,1,2.9,2.2,3.7,4.3c1.2,3.1,3.9,5,6.4,7.1c0.9,0.7,1.7,0.2,2.6,0.1c5.1-0.7,9.4,3.7,8.5,8.7c-0.3,1.8,0.6,3.1,1.7,4.2
		c1.8,1.7,3.9,3,6.3,3.8c5.7,1.7,9.5,5.2,9.7,11.6c0,0.7,0,1.4,0.6,1.7c2.9,1.9,5.2,5.3,9.6,3.9c1.6-0.5,3.3-0.5,4.9-0.2
		c3.3,0.5,6.3,0.6,9-1.8c1.3-1.2,3.1-0.9,4.8-1c11.7,5.3,21.8,12.9,30.6,22.4c16.1,17.6,28.2,37.7,39.3,58.6
		c11.2,21,17.5,43.4,20.6,66.8c2.5,19,1.8,37.8-2.9,56.5C394.4,302.3,394.1,303,394.5,303.8z M297.2,48.7c1-0.4,1.9-0.9,2.9-1.2
		c1.6-0.4,2-1.2,1.3-2.7c-0.8-1.6-1.3-3.3-1.8-4.9c-1.6,1-2.1,2.9-3.5,4.1c-0.3,0.3-0.6,0.7-0.9,1.1c-0.8,1.1,0.2,1.6,0.6,2.4
		C296,48,296.2,48.9,297.2,48.7z"/>
	<path fill="#8C5EF6" d="M72.3,200c-3.1-0.2-6.5-0.4-9.9-0.6c-2.2-0.1-3.1-1.1-2.5-3.4c5.5-19.6,11.1-39.2,16.5-58.8
		c0.3-1,0.3-2.4,1.8-2.4c1.5,0,1.6,1.5,1.9,2.4c6.9,18.8,13.7,37.6,20.6,56.4c1,2.7-0.3,3.2-2.3,3.7C89.8,199,81.2,199.7,72.3,200z"
		/>
	<path fill="#0473BA" d="M219.2,446.6c0,6.7,0,13.5,0,20.2c0,3.4,0,3.4-3.4,2.6c-4.3-0.9-8.3-2.3-12.3-3.9c-1.9-0.8-2.7-1.8-2.6-4
		c0.3-6.3,0.4-12.7,0.8-19.1c0.5-7.6,0-15.1-0.1-22.7c0-1.8-0.8-2.5-2.4-2.9c-3.6-0.9-7-2.1-10.5-3.5c-1.4-0.6-1.8-1.4-1.5-2.7
		c1-3.3,1.3-6.7,1.6-10.1c0.1-1.5,0.7-1.9,2.1-1.1c12.2,7,25.3,11,39.3,11.8c1.6,0.1,2.3,0.7,2.2,2.4c-0.3,3.7-0.2,7.4,0.3,11.1
		c0.3,1.8-0.6,2-2.1,1.6c-3.3-1-6.6-1.6-9.9-2.6c-1.7-0.6-2.2-0.2-2.2,1.6c0.1,7.1,0,14.2,0,21.3C218.8,446.6,219,446.6,219.2,446.6
		z"/>
	<path fill="#18D726" d="M411.2,428.5c0.5-7.2,0.2-14.4-0.2-21.5c-0.1-1.8-0.9-1.6-2-1.2c-3.6,1.2-7.2,2.2-10.8,3.4
		c-1.5,0.5-1.8,0-1.6-1.4c0.9-3.8,1.5-7.6,1.6-11.5c0.1-1.5,0.7-2.5,2.5-2.6c13.1-1.3,25.7-4.8,38.2-8.6c2.6-0.8,3.2-0.3,3,2.3
		c-0.2,3.1-0.3,6.3,0.3,9.4c0.4,1.7-0.2,2.7-2.2,2.9c-3.3,0.4-6.5,1.2-9.8,1.5c-1.8,0.2-2.2,0.9-2.2,2.6c0.2,13.8,0.3,27.5,0.7,41.2
		c0.1,2.6-0.8,3.9-3.2,4.4c-4.3,0.9-8.4,1.7-12.7,2.7c-1.8,0.4-2.5-0.3-2.4-2.1C410.6,442.6,410.9,435.5,411.2,428.5z"/>
	<path fill="#F3F659" d="M239.9,158.1c-6.1-2-11.4-0.1-16.6,4.2c0.2-3,0.3-5.5,0.6-8c0.3-1.8-0.2-3.2-1.5-4.5
		c-6.3-6.2-12.6-12.4-18.8-18.7c-1.9-2-3.1-1.2-4.4,0.7c-5.5,8.2-10,16.8-13.5,26c-0.3,0.9-0.7,1.6-1.3,3c-1.2-4-1.2-7.5-0.9-11
		c0.8-9.5,3.8-18.4,7.8-27c1.1-2.3,1.1-4.1-0.6-6.2c-3.3-4.2-6.3-8.6-9.4-13c-1.4-1.8-2.2-3.8-2.6-6c-0.4-1.9,0.5-2.9,2.4-2.5
		c2.7,0.6,5.3,1.4,7.3,3.6c2.9,3.3,6.1,6.4,8.9,9.8c1.6,1.7,3.2,2.3,5.5,2.2c12.8-0.6,25.6-1,38.3,1.5c2.8,0.5,5.5,1.2,8.4,3.2
		c-5.4,0.2-10.2,0.5-15,0.6c-5.8,0.2-11.6,0.7-17.3,1.7c-1.6,0.3-3.1,0.7-4.5,1.4c-2.8,1.3-3.2,2.6-1.5,5.1
		c5,7.4,10.2,14.7,15.2,22.1c1.2,1.6,2.3,2.2,4.4,1.9c2.3-0.4,4.8-0.5,7.2-0.5c3.8,0.1,4,0.3,4.3,4
		C241.8,153.8,240.8,156,239.9,158.1z"/>
	<path fill="#18D726" d="M521.4,410.9c0,8.6,0,17.4,0,26c0,5,0.5,4.3-4.3,4.2c-3.8,0-7.6-0.4-11.4-0.6c-2.1-0.1-2.7-1.1-2.6-3.2
		c1.1-18.1,1.2-36.3,0.5-54.4c-0.1-3.4-0.1-3.5,3.5-3.3c4.1,0.2,8.1,0.5,12.1,0.6c2.2,0,2.8,1,2.7,3.1c-0.5,9.2-0.9,18.4-1.3,27.7
		C521,410.9,521.2,410.9,521.4,410.9z"/>
	<path fill="#0373BA" d="M311.8,443.2c0,9.2-0.1,18.4,0.1,27.7c0,1.9-0.6,2.7-2.5,3.1c-4.3,0.8-8.5,1.3-12.9,1.6
		c-2.6,0.2-3.1-1-2.9-3.3c0.7-11.5,1.3-22.8,1-34.3c-0.1-6.9-0.3-13.8-0.6-20.8c-0.1-2,0.5-2.8,2.6-2.8c4.4,0,8.6-0.6,12.9-1.6
		c2-0.5,3-0.1,2.9,2.3c-0.5,9.3-0.8,18.6-1.3,27.9C311.4,443.2,311.6,443.2,311.8,443.2z"/>
	<path fill="#302F2A" d="M386,205.2c2.4,6,4.6,12.1,5.4,18.6C389.6,217.6,387.8,211.4,386,205.2z"/>
	<path fill="#302F2A" d="M396.5,261.6c0.9,3.1,0.9,6.3,0,9.4C396.5,267.9,396.5,264.7,396.5,261.6z"/>
	<path fill="#302F2A" d="M382,194.1c1.7,3.3,3.3,6.6,3.8,10.4C384.3,201.1,383.1,197.6,382,194.1z"/>
	<path fill="#302F2A" d="M393.9,294.3c0.1,2.7-0.6,5.2-1.8,7.7C392.7,299.5,393.3,297,393.9,294.3z"/>
	<path fill="#302F2A" d="M392,226.8c0.8,2.1,1.9,4.2,1.4,6.6C392.9,231.2,392.1,229,392,226.8z"/>
	<path fill="#302F2A" d="M222,33.9c-0.6,2.1-0.7,4.2,0,6.3C220.2,38.1,220.4,36,222,33.9z"/>
	<path fill="#302F2A" d="M275.7,92.8c1.3,1.5,0.3,3.3,0.7,4.9C274.9,96.2,276,94.3,275.7,92.8z"/>
	<path fill="#302F2A" d="M293.5,102.5c1.6-0.5,3.4-1,4.9,0.3C296.8,102.7,295.2,102.6,293.5,102.5z"/>
	<path fill="#302F2A" d="M395.9,251.6c1.2,1.5,0.4,3.2,0.5,4.9C395.7,254.9,395.8,253.3,395.9,251.6z"/>
	<path fill="#302F2A" d="M396.4,276.2c-0.1,1.5,0.7,3-0.5,4.3C395.8,279,395.7,277.6,396.4,276.2z"/>
	<path fill="#302F2A" d="M249,69c1.2-0.1,2.3-0.2,3.5-0.4C251.3,69.1,250.2,70.1,249,69z"/>
	<path fill="#302F2A" d="M229.8,49.5c1,0.8,0.5,1.8,0.6,2.8C229.4,51.5,229.8,50.6,229.8,49.5z"/>
	<path fill="#302F2A" d="M300.7,102.5c0.3-1.3,1-1.9,2.3-2C302.2,101.2,301.7,102.1,300.7,102.5z"/>
	<path fill="#302F2A" d="M286.8,102.9c0.8-1.2,1.7-0.8,2.7-0.3C288.7,102.7,287.7,102.8,286.8,102.9z"/>
	<path fill="#302F2A" d="M395.3,246.1c1.1,1,0.5,2.1,0.5,3.2C395.2,248.3,395.1,247.3,395.3,246.1z"/>
	<path fill="#302F2A" d="M306.8,99.8c1.2-0.3,2-0.1,2.7,1C308.6,100.4,307.8,100.1,306.8,99.8z"/>
	<path fill="#302F2A" d="M380.3,190.2c1,0.6,1.2,1.5,1.2,2.5C380.8,192,380.5,191.2,380.3,190.2z"/>
	<path fill="#302F2A" d="M223.6,41.8c1,0.1,1.7,0.3,2.2,1.3C225,42.9,224.2,42.6,223.6,41.8z"/>
	<path fill="#302F2A" d="M230.8,52.9c1,0.1,1.8,0.3,2.3,1.3C232.3,54,231.4,53.7,230.8,52.9z"/>
	<path fill="#302F2A" d="M314.5,103.8c1,0.1,1.8,0.3,2.3,1.3C315.8,104.9,315.1,104.5,314.5,103.8z"/>
	<path fill="#302F2A" d="M364.6,160.8c1.1,0.4,1.3,1.4,1.4,2.3C365.3,162.6,364.9,161.8,364.6,160.8z"/>
	<path fill="#302F2A" d="M369.1,168.6c1.1,0.5,1.3,1.4,1.3,2.3C369.7,170.3,369.4,169.4,369.1,168.6z"/>
	<path fill="#302F2A" d="M373.1,175.9c1,0.5,1.2,1.4,1.3,2.3C373.6,177.5,373.2,176.7,373.1,175.9z"/>
	<path fill="#302F2A" d="M239.3,57.8c1.5,0.3,1.6,1.5,1.5,2.6C240.2,59.6,239.7,58.7,239.3,57.8z"/>
	<path fill="#302F2A" d="M393.7,234.5c1,0.6,0.8,1.4,0.3,2.1C393.9,235.9,393.8,235.2,393.7,234.5z"/>
	<path fill="#302F2A" d="M394.7,241.7c1.1,0.7,0.5,1.7,0.5,2.6C394.7,243.5,394.6,242.6,394.7,241.7z"/>
	<path fill="#302F2A" d="M395.8,282.9c0.1,0.9,0.5,1.8-0.5,2.6C395.2,284.5,395.3,283.7,395.8,282.9z"/>
	<path fill="#302F2A" d="M395.2,287.3c0,0.9,0.6,1.9-0.5,2.6C394.6,289,394.7,288,395.2,287.3z"/>
	<path fill="#302F2A" d="M394.5,291c0.4,0.8,0.6,1.6-0.4,2.1C394,292.5,394.1,291.7,394.5,291z"/>
	<path fill="#302F2A" d="M258.5,73.7c0.1,0.7,0.2,1.5-0.5,1.9C257.7,74.8,258.1,74.2,258.5,73.7z"/>
	<path fill="#302F2A" d="M394.2,237.9c0.8,0.4,0.8,1,0.3,1.6C394.1,238.9,394,238.4,394.2,237.9z"/>
	<path fill="#302F2A" d="M223.2,32.4c0,0.6-0.3,1-0.9,1.1C222.4,33,222.7,32.6,223.2,32.4z"/>
	<path fill="#302F2A" d="M355.2,145.9c0.7,0.1,0.9,0.6,0.9,1.2C355.5,146.8,355.3,146.4,355.2,145.9z"/>
	<path fill="#302F2A" d="M283.4,102.8c0.5,0,1,0.1,1.3,0.6C284.1,103.6,283.7,103.3,283.4,102.8z"/>
	<path fill="#302F2A" d="M311.8,102.2c0.6,0,1.1,0.2,1.2,0.9C312.3,102.9,311.9,102.7,311.8,102.2z"/>
	<path fill="#302F2A" d="M304,100c0.2-0.5,0.6-0.7,1.1-0.3C304.7,99.8,304.4,99.9,304,100z"/>
	<path fill="#302F2A" d="M350.2,138.7c0.7,0.1,0.9,0.6,0.9,1.2C350.6,139.7,350.4,139.2,350.2,138.7z"/>
	<path fill="#302F2A" d="M367.6,165.9c0.6,0.2,0.7,0.7,0.7,1.2C367.7,166.7,367.6,166.3,367.6,165.9z"/>
	<path fill="#302F2A" d="M391.5,224.6c0.5,0.4,0.5,0.9,0.4,1.5C391.5,225.6,391.3,225.1,391.5,224.6z"/>
	<path fill="#302F2A" d="M363,158.1c0.7,0.2,0.8,0.7,0.8,1.3C363.3,159.1,363.1,158.6,363,158.1z"/>
	<path fill="#302F2A" d="M278,98.8c0.6,0,1,0.2,1.2,0.8C278.6,99.6,278.2,99.3,278,98.8z"/>
	<path fill="#302F2A" d="M346.9,134.3c0.7,0.1,0.9,0.5,0.9,1.2C347.3,135.2,347,134.8,346.9,134.3z"/>
	<path fill="#302F2A" d="M235.8,55.7c0.6,0,1.1,0.1,1.3,0.8C236.4,56.4,236.1,56.2,235.8,55.7z"/>
	<path fill="#302F2A" d="M340.2,126c0.7,0.1,0.9,0.5,1,1.1C340.6,126.8,340.4,126.5,340.2,126z"/>
	<path fill="#302F2A" d="M336.2,121.5c0.7,0.1,1,0.5,1,1.1C336.7,122.4,336.4,122,336.2,121.5z"/>
	<path fill="#302F2A" d="M322.2,108.8c0.6,0,1.1,0.2,1.1,0.9C322.9,109.6,322.5,109.3,322.2,108.8z"/>
	<path fill="#302F2A" d="M225.4,30.4c-0.1,0.7-0.5,0.9-1.1,0.9C224.5,30.8,224.9,30.5,225.4,30.4z"/>
	<path fill="#302F2A" d="M272,87.2c0.6,0,1,0.2,1.1,0.9C272.6,87.7,272.3,87.4,272,87.2z"/>
	<path fill="#302F2A" d="M356.3,147.5c0.7,0.1,0.9,0.6,0.8,1.3C356.7,148.5,356.4,148.1,356.3,147.5z"/>
	<path fill="#302F2A" d="M267.6,85.1c0.6-0.2,1.2-0.2,1.6,0.5C268.6,85.7,268,85.6,267.6,85.1z"/>
	<path fill="#302F2A" d="M375.9,181.4c0.6,0.2,0.7,0.7,0.6,1.2C376.1,182.3,375.9,181.9,375.9,181.4z"/>
	<path fill="#302F2A" d="M258.9,78.9c0.6,0.1,0.8,0.6,0.8,1.1C259.2,79.8,259,79.4,258.9,78.9z"/>
	<path fill="#302F2A" d="M258.1,76.7c0.5,0.4,0.5,0.9,0.5,1.4C258,77.7,257.8,77.3,258.1,76.7z"/>
	<path fill="#302F2A" d="M329.6,114.9c0.6,0,1,0.3,1.1,1C330.1,115.7,329.7,115.4,329.6,114.9z"/>
	<path fill="#FAFDFA" d="M467,409.6c-4,0-3.1,0.5-3.3-3.8c-0.1-3,0.1-6.1,0.1-9.1c0-1.6,0.8-2.3,2.2-2.6c2-0.4,4.2-0.7,6.3-0.6
		c4.4,0.2,6.6,2,7.2,5.8c0.8,4.8-0.9,7.7-4.9,9.2C472.5,409.3,470.2,409.5,467,409.6z"/>
	<path fill="#FAFCFD" d="M254.2,435.9c0-1.3,0-2.6,0-3.9c0.1-3.9,0.6-4.4,4.4-4.1c2.1,0.2,4.3,0.3,6.3,1c3.4,1.1,5.1,3.3,5.4,6.9
		c0.4,5.1-1.7,7.7-7,8.2C255.2,444.9,254.1,443.9,254.2,435.9z"/>
	<path fill="#FAFDFA" d="M546.8,408c0-2.5,0-4.9,0-7.5c0-1.1,0.4-1.6,1.6-1.6c9.4-0.2,16,6.5,15.3,15.6c-0.3,4.2-2.4,5.9-6.6,5.5
		c-3.1-0.3-6-1.6-9-2.4c-1.1-0.3-1.4-1.2-1.4-2.1C546.9,413,546.8,410.5,546.8,408L546.8,408z"/>
	<path fill="#FAFCFD" d="M337.2,431.2c0-1.7,0.2-3.5,0-5.2c-0.4-3.1,1.1-4.4,3.9-4.8c2.2-0.4,4.5-1.2,6.8-1.2
		c2.2,0.1,4.2,0.9,5.3,2.9c3,5.3,0.5,13.5-5.1,15.7c-3.2,1.4-7.4,3.1-10,1.5C335.8,438.7,337.7,434.3,337.2,431.2z"/>
	<path fill="#FEFEFE" d="M297.2,48.7c-1,0.2-1.2-0.7-1.5-1.3c-0.4-0.8-1.4-1.4-0.6-2.4c0.3-0.4,0.6-0.8,0.9-1.1
		c1.4-1.2,1.8-3.1,3.5-4.1c0.6,1.6,1.1,3.4,1.8,4.9c0.8,1.6,0.3,2.3-1.3,2.7C299,47.9,298.2,48.3,297.2,48.7z"/>
</g>
</svg>
